<?xml version="1.0" encoding="UTF-8"?>
<svg width="1805px" height="741px" viewBox="0 0 1805 741" version="1.1" xmlns="http://www.w3.org/2000/svg" xmlns:xlink="http://www.w3.org/1999/xlink">
    <!-- Generator: Sketch 52.5 (67469) - http://www.bohemiancoding.com/sketch -->
    <title>slash-turns-1</title>
    <desc>Created with Sketch.</desc>
    <defs>
        <linearGradient x1="50%" y1="60.3572074%" x2="50%" y2="120.794572%" id="linearGradient-1">
            <stop stop-color="#41A4FF" offset="0%"></stop>
            <stop stop-color="#5348C8" offset="100%"></stop>
        </linearGradient>
        <text id="text-2" font-family="ArialRoundedMTBold, Arial Rounded MT Bold" font-size="80" font-weight="normal" fill="#FFFFFF">
            <tspan x="390" y="119">Docusaurus makes 1 year!</tspan>
        </text>
        <filter x="-3.2%" y="-29.6%" width="106.3%" height="169.9%" filterUnits="objectBoundingBox" id="filter-3">
            <feOffset dx="0" dy="5" in="SourceAlpha" result="shadowOffsetOuter1"></feOffset>
            <feGaussianBlur stdDeviation="10" in="shadowOffsetOuter1" result="shadowBlurOuter1"></feGaussianBlur>
            <feColorMatrix values="0 0 0 0 0   0 0 0 0 0   0 0 0 0 0  0 0 0 0.164799345 0" type="matrix" in="shadowBlurOuter1"></feColorMatrix>
        </filter>
        <text id="text-4" font-family="ArialRoundedMTBold, Arial Rounded MT Bold" font-size="80" font-weight="normal" fill="#FFFFFF">
            <tspan x="471" y="675">Happy Birthday Slash!</tspan>
        </text>
        <filter x="-3.8%" y="-29.6%" width="107.5%" height="169.9%" filterUnits="objectBoundingBox" id="filter-5">
            <feOffset dx="0" dy="5" in="SourceAlpha" result="shadowOffsetOuter1"></feOffset>
            <feGaussianBlur stdDeviation="10" in="shadowOffsetOuter1" result="shadowBlurOuter1"></feGaussianBlur>
            <feColorMatrix values="0 0 0 0 0   0 0 0 0 0   0 0 0 0 0  0 0 0 0.164799345 0" type="matrix" in="shadowBlurOuter1"></feColorMatrix>
        </filter>
        <text id="text-6" font-family="ArialRoundedMTBold, Arial Rounded MT Bold" font-size="32" font-weight="normal" fill="#FFFFFF">
            <tspan x="1472" y="614">From your friends at</tspan>
        </text>
        <filter x="-10.5%" y="-74.3%" width="121.2%" height="275.7%" filterUnits="objectBoundingBox" id="filter-7">
            <feOffset dx="0" dy="5" in="SourceAlpha" result="shadowOffsetOuter1"></feOffset>
            <feGaussianBlur stdDeviation="10" in="shadowOffsetOuter1" result="shadowBlurOuter1"></feGaussianBlur>
            <feColorMatrix values="0 0 0 0 0   0 0 0 0 0   0 0 0 0 0  0 0 0 0.164799345 0" type="matrix" in="shadowBlurOuter1"></feColorMatrix>
        </filter>
    </defs>
    <g id="slash-turns-1" stroke="none" stroke-width="1" fill="none" fill-rule="evenodd">
        <rect id="Rectangle" stroke="#979797" fill="url(#linearGradient-1)" x="0.5" y="0.5" width="1804" height="741"></rect>
        <g id="Group-6" transform="translate(491.000000, 171.000000)">
            <g id="Group">
                <rect id="Rectangle" fill="#FFFFFF" x="204" y="54" width="195" height="114"></rect>
                <g id="Group-2">
                    <path d="M44.5,323 C28.03945,323 13.699325,314.1406 6.000825,301 C2.2072,307.4768 0,314.9766 0,323 C0,347.3012 19.92265,367 44.5,367 L89,367 L89,323 L44.5,323 Z" id="Fill-1" fill="#3ECC5F"></path>
                    <path d="M399,79.1981013 L399,57.0594937 C399,32.6051878 379.120887,12.7822786 354.602205,12.7822786 L154.81213,12.7822786 L149.262405,3.19626147 C146.793888,-1.06542049 140.629254,-1.06542049 138.162957,3.19626147 L132.613232,12.7822786 L127.063508,3.19626147 C124.594991,-1.06542049 118.430357,-1.06542049 115.96406,3.19626147 L110.414335,12.7822786 L104.864611,3.19626147 C102.396093,-1.06542049 96.2314597,-1.06542049 93.7651622,3.19626147 L88.2154379,12.7822786 C88.1828795,12.7822786 85.0698541,9.72862662 78.8763618,3.62132274 C75.388915,0.143347484 69.4351708,1.73289951 68.1565143,6.48605856 L65.1197051,17.7856039 L53.5918178,14.7039097 C48.8257145,13.4309398 44.4658511,17.7789623 45.7445076,22.5321213 L48.8323742,34.0287003 L37.5042769,37.0550479 C32.7381737,38.3302317 31.1420729,44.2700201 34.6295197,47.7479954 L43.8220831,56.9178066 C43.8220831,56.9488007 40.6158223,58.8409137 34.2033009,62.5941456 C29.932233,65.0537449 29.932233,71.2038501 34.2033009,73.6634494 L43.8176433,79.1981013 L34.2033009,84.7327532 C29.932233,87.1923525 29.932233,93.3424577 34.2033009,95.802057 L43.8176433,101.336709 L34.2033009,106.871361 C29.932233,109.33096 29.932233,115.481065 34.2033009,117.940665 L43.8176433,123.475317 L34.2033009,129.009968 C29.932233,131.469568 29.932233,137.619673 34.2033009,140.079272 L43.8176433,145.613924 L34.2033009,151.148576 C29.932233,153.608175 29.932233,159.75828 34.2033009,162.21788 L43.8176433,167.752532 L34.2033009,173.287184 C29.932233,175.746783 29.932233,181.896888 34.2033009,184.356487 L43.8176433,189.891139 L34.2033009,195.425791 C29.932233,197.88539 29.932233,204.035496 34.2033009,206.495095 L43.8176433,212.029747 L34.2033009,217.564399 C29.932233,220.023998 29.932233,226.174103 34.2033009,228.633703 L43.8176433,234.168354 L34.2033009,239.703006 C29.932233,242.162606 29.932233,248.312711 34.2033009,250.77231 L43.8176433,256.306962 L34.2033009,261.841614 C29.932233,264.301213 29.932233,270.451318 34.2033009,272.910918 L43.8176433,278.44557 L34.2033009,283.980222 C29.932233,286.439821 29.932233,292.589926 34.2033009,295.049525 L43.8176433,300.584177 L34.2033009,306.118829 C29.932233,308.578428 29.932233,314.728534 34.2033009,317.188133 L43.8176433,322.722785 C43.8176433,347.177091 63.6945359,367 88.2154379,367 L354.602205,367 C379.120887,367 399,347.177091 399,322.722785 L399,145.613924 L243.563321,135.926069 C231.10974,135.149004 221.408822,124.850124 221.408822,112.406013 C221.408822,99.9619014 231.10974,89.6630211 243.563321,88.885956 L399,79.1981013 Z" id="Fill-3" fill="#3ECC5F"></path>
                    <polygon id="Fill-5" fill="#3ECC5F" points="311 367 377 367 377 278 311 278"></polygon>
                    <path d="M421.888889,311.444444 C421.402222,311.444444 420.937778,311.526667 420.468889,311.586667 C420.384444,311.253333 420.304444,310.917778 420.211111,310.584444 C424.224444,308.908889 427.044444,304.953333 427.044444,300.333333 C427.044444,294.195556 422.071111,289.222222 415.933333,289.222222 C413.404444,289.222222 411.1,290.102222 409.231111,291.524444 C408.984444,291.273333 408.737778,291.024444 408.486667,290.777778 C409.88,288.92 410.733333,286.64 410.733333,284.14 C410.733333,278.002222 405.76,273.028889 399.622222,273.028889 C395.033333,273.028889 391.095556,275.813333 389.402222,279.786667 C389.073333,279.693333 388.742222,279.615556 388.413333,279.531111 C388.473333,279.062222 388.555556,278.597778 388.555556,278.111111 C388.555556,271.973333 383.582222,267 377.444444,267 C371.306667,267 366.333333,271.973333 366.333333,278.111111 C366.333333,278.597778 366.415556,279.062222 366.475556,279.531111 C366.146667,279.615556 365.815556,279.693333 365.486667,279.786667 C363.793333,275.813333 359.855556,273.028889 355.266667,273.028889 C349.128889,273.028889 344.155556,278.002222 344.155556,284.14 C344.155556,286.64 345.008889,288.92 346.402222,290.777778 C338.142222,298.848889 333,310.095556 333,322.555556 C333,347.102222 352.897778,367 377.444444,367 C398.197778,367 415.577778,352.755556 420.468889,333.524444 C420.937778,333.584444 421.402222,333.666667 421.888889,333.666667 C428.026667,333.666667 433,328.693333 433,322.555556 C433,316.417778 428.026667,311.444444 421.888889,311.444444" id="Fill-7" fill="#44D860"></path>
                    <polygon id="Fill-8" fill="#3ECC5F" points="333 233 399 233 399 189 333 189"></polygon>
                    <path d="M421.444444,217.996231 C424.513333,217.996231 427,215.536118 427,212.5 C427,209.463882 424.513333,207.003769 421.444444,207.003769 C421.202222,207.003769 420.968889,207.04554 420.735556,207.074121 C420.691111,206.909234 420.653333,206.744347 420.606667,206.57946 C422.611111,205.750628 424.022222,203.791771 424.022222,201.507538 C424.022222,198.47142 421.535556,196.011307 418.466667,196.011307 C417.202222,196.011307 416.048889,196.44441 415.115556,197.150126 C414.993333,197.024812 414.868889,196.901696 414.742222,196.780779 C415.44,195.864008 415.866667,194.733982 415.866667,193.496231 C415.866667,190.462312 413.38,188 410.311111,188 C408.015556,188 406.046667,189.378455 405.2,191.343907 C403.295556,190.818467 401.297778,190.515075 399.222222,190.515075 C386.951111,190.515075 377,200.359925 377,212.5 C377,224.640075 386.951111,234.484925 399.222222,234.484925 C401.297778,234.484925 403.295556,234.181533 405.2,233.656093 C406.046667,235.621545 408.015556,237 410.311111,237 C413.38,237 415.866667,234.537688 415.866667,231.503769 C415.866667,230.266018 415.44,229.135992 414.742222,228.219221 C414.868889,228.098304 414.993333,227.975188 415.115556,227.849874 C416.048889,228.55559 417.202222,228.988693 418.466667,228.988693 C421.535556,228.988693 424.022222,226.52858 424.022222,223.492462 C424.022222,221.208229 422.611111,219.249372 420.606667,218.42054 C420.653333,218.257852 420.691111,218.090766 420.735556,217.925879 C420.968889,217.95446 421.202222,217.996231 421.444444,217.996231" id="Fill-9" fill="#44D860"></path>
                    <path d="M134.4,84 C131.30656,84 128.8,81.5382 128.8,78.5 C128.8,69.4008 121.26464,62 112,62 C102.73536,62 95.2,69.4008 95.2,78.5 C95.2,81.5382 92.69344,84 89.6,84 C86.50656,84 84,81.5382 84,78.5 C84,63.3354 96.55968,51 112,51 C127.44032,51 140,63.3354 140,78.5 C140,81.5382 137.49344,84 134.4,84" id="Fill-10" fill="#000000"></path>
                    <path d="M222,367 L355.5,367 C380.07735,367 400,347.201711 400,322.777778 L400,168 L266.5,168 C241.92265,168 222,187.798289 222,212.222222 L222,367 Z" id="Fill-11" fill="#FFFF50"></path>
                    <path d="M366.770903,236 L255.229097,236 C253.996407,236 253,235.106 253,234 C253,232.894 253.996407,232 255.229097,232 L366.770903,232 C368.003593,232 369,232.894 369,234 C369,235.106 368.003593,236 366.770903,236" id="Fill-12" fill="#000000"></path>
                    <path d="M366.770903,280 L255.229097,280 C253.996407,280 253,279.106 253,278 C253,276.894 253.996407,276 255.229097,276 L366.770903,276 C368.003593,276 369,276.894 369,278 C369,279.106 368.003593,280 366.770903,280" id="Fill-13" fill="#000000"></path>
                    <path d="M366.770903,324 L255.229097,324 C253.996407,324 253,323.106 253,322 C253,320.894 253.996407,320 255.229097,320 L366.770903,320 C368.003593,320 369,320.894 369,322 C369,323.106 368.003593,324 366.770903,324" id="Fill-14" fill="#000000"></path>
                    <path d="M366.770903,214 L255.229097,214 C253.996407,214 253,213.104 253,212 C253,210.894 253.996407,210 255.229097,210 L366.770903,210 C368.003593,210 369,210.894 369,212 C369,213.104 368.003593,214 366.770903,214" id="Fill-15" fill="#000000"></path>
                    <path d="M366.770903,258 L255.229097,258 C253.996407,258 253,257.106 253,256 C253,254.894 253.996407,254 255.229097,254 L366.770903,254 C368.003593,254 369,254.894 369,256 C369,257.106 368.003593,258 366.770903,258" id="Fill-16" fill="#000000"></path>
                    <path d="M366.770903,302 L255.229097,302 C253.996407,302 253,301.106 253,300 C253,298.894 253.996407,298 255.229097,298 L366.770903,298 C368.003593,298 369,298.894 369,300 C369,301.106 368.003593,302 366.770903,302" id="Fill-17" fill="#000000"></path>
                    <path d="M399,98.0113861 C398.973465,98.0113861 398.951352,97.9980232 398.924817,98.0002504 C392.091974,98.2341013 388.859089,105.118227 386.006543,111.191669 C383.030166,117.536824 380.728227,121.665963 376.955791,121.541243 C372.778691,121.389796 370.390513,116.637055 367.860813,111.605919 C364.955197,105.830915 361.638283,99.2786354 354.674975,99.5236221 C347.939429,99.7552458 344.695487,105.746284 341.834096,111.031314 C338.789169,116.661553 336.717204,120.084685 332.721428,119.926558 C328.460299,119.770657 326.195953,115.906549 323.575591,111.434429 C320.654496,106.454518 317.277877,100.855459 310.449457,101.046994 C303.828897,101.27639 300.576111,106.35875 297.705875,110.846461 C294.669793,115.590294 292.542545,118.481136 288.49591,118.309646 C284.133063,118.151518 281.879773,114.946647 279.272679,111.233985 C276.34495,107.06253 273.045726,102.340969 266.237207,102.570365 C259.762592,102.793081 256.509805,106.955627 253.64178,110.6282 C250.917488,114.111465 248.790241,116.868679 244.290294,116.694961 C243.06967,116.645963 242.045849,117.61032 242.001624,118.841935 C241.955187,120.069095 242.910458,121.102494 244.131082,121.149264 C250.802502,121.374206 254.181331,117.138164 257.115694,113.383186 C259.718366,110.051368 261.965022,107.176115 266.387574,107.024669 C270.646492,106.842042 272.643274,109.507943 275.663877,113.806345 C278.531901,117.890941 281.786899,122.523416 288.336699,122.761722 C295.198288,122.993345 298.499723,117.828581 301.423029,113.258466 C304.036757,109.17387 306.292259,105.648289 310.599824,105.49907 C314.564642,105.349851 316.722847,108.505724 319.765563,113.697215 C322.633587,118.590267 325.881952,124.133647 332.562216,124.378634 C339.472453,124.619166 342.809269,118.541269 345.717096,113.164925 C348.23574,108.514633 350.612861,104.120463 354.825342,103.975698 C358.790159,103.882158 360.857702,107.528005 363.915897,113.619264 C366.772865,119.305182 370.012384,125.746105 376.796579,125.993319 C376.922622,125.997773 377.046453,126 377.170285,126 C383.945634,126 387.160829,119.151509 390.006741,113.095884 C392.525384,107.728448 394.90914,102.670587 399,102.465689 L399,98.0113861 Z" id="Fill-24" fill="#000000"></path>
                    <polygon id="Fill-18" fill="#3ECC5F" points="178 367 267 367 267 278 178 278"></polygon>
                    <path d="M310.888889,311.444444 C310.402222,311.444444 309.937778,311.526667 309.468889,311.586667 C309.384444,311.253333 309.304444,310.917778 309.211111,310.584444 C313.224444,308.908889 316.044444,304.953333 316.044444,300.333333 C316.044444,294.195556 311.071111,289.222222 304.933333,289.222222 C302.404444,289.222222 300.1,290.102222 298.231111,291.524444 C297.984444,291.273333 297.737778,291.024444 297.486667,290.777778 C298.88,288.92 299.733333,286.64 299.733333,284.14 C299.733333,278.002222 294.76,273.028889 288.622222,273.028889 C284.033333,273.028889 280.095556,275.813333 278.402222,279.786667 C278.073333,279.693333 277.742222,279.615556 277.413333,279.531111 C277.473333,279.062222 277.555556,278.597778 277.555556,278.111111 C277.555556,271.973333 272.582222,267 266.444444,267 C260.306667,267 255.333333,271.973333 255.333333,278.111111 C255.333333,278.597778 255.415556,279.062222 255.475556,279.531111 C255.146667,279.615556 254.815556,279.693333 254.486667,279.786667 C252.793333,275.813333 248.855556,273.028889 244.266667,273.028889 C238.128889,273.028889 233.155556,278.002222 233.155556,284.14 C233.155556,286.64 234.008889,288.92 235.402222,290.777778 C227.142222,298.848889 222,310.095556 222,322.555556 C222,347.102222 241.897778,367 266.444444,367 C287.197778,367 304.577778,352.755556 309.468889,333.524444 C309.937778,333.584444 310.402222,333.666667 310.888889,333.666667 C317.026667,333.666667 322,328.693333 322,322.555556 C322,316.417778 317.026667,311.444444 310.888889,311.444444" id="Fill-19" fill="#44D860"></path>
                    <polygon id="Fill-20" fill="#3ECC5F" points="178 232 267 232 267 189 178 189"></polygon>
                    <path d="M291.444444,215.996231 C294.513333,215.996231 297,213.536118 297,210.5 C297,207.463882 294.513333,205.003769 291.444444,205.003769 C291.202222,205.003769 290.968889,205.04554 290.735556,205.074121 C290.691111,204.909234 290.653333,204.744347 290.606667,204.57946 C292.611111,203.750628 294.022222,201.791771 294.022222,199.507538 C294.022222,196.47142 291.535556,194.011307 288.466667,194.011307 C287.202222,194.011307 286.048889,194.44441 285.115556,195.150126 C284.993333,195.024812 284.868889,194.901696 284.742222,194.780779 C285.44,193.864008 285.866667,192.733982 285.866667,191.496231 C285.866667,188.462312 283.38,186 280.311111,186 C278.015556,186 276.046667,187.378455 275.2,189.343907 C273.295556,188.818467 271.297778,188.515075 269.222222,188.515075 C256.951111,188.515075 247,198.359925 247,210.5 C247,222.640075 256.951111,232.484925 269.222222,232.484925 C271.297778,232.484925 273.295556,232.181533 275.2,231.656093 C276.046667,233.621545 278.015556,235 280.311111,235 C283.38,235 285.866667,232.537688 285.866667,229.503769 C285.866667,228.266018 285.44,227.135992 284.742222,226.219221 C284.868889,226.098304 284.993333,225.975188 285.115556,225.849874 C286.048889,226.55559 287.202222,226.988693 288.466667,226.988693 C291.535556,226.988693 294.022222,224.52858 294.022222,221.492462 C294.022222,219.208229 292.611111,217.249372 290.606667,216.42054 C290.653333,216.257852 290.691111,216.090766 290.735556,215.925879 C290.968889,215.95446 291.202222,215.996231 291.444444,215.996231" id="Fill-21" fill="#44D860"></path>
                    <path d="M310.5,54 C310.148,54 309.774,53.956022 309.422,53.890055 C309.07,53.824088 308.7158,53.7141429 308.388,53.5822089 C308.058,53.4502749 307.75,53.2743628 307.4398,53.0764618 C307.1538,52.8785607 306.87,52.6366817 306.6038,52.3948026 C306.364,52.1309345 306.122,51.8670665 305.924,51.5592204 C305.726,51.2513743 305.55,50.9435282 305.4158,50.6136932 C305.286,50.2838581 305.176,49.932034 305.11,49.5802099 C305.044,49.2283858 305,48.8545727 305,48.5027486 C305,48.1509245 305.044,47.7771114 305.11,47.4252874 C305.176,47.0734633 305.286,46.7436282 305.4158,46.3918041 C305.55,46.061969 305.726,45.7541229 305.924,45.4462769 C306.122,45.1604198 306.364,44.8745627 306.6038,44.6106947 C306.87,44.3688156 307.1538,44.1269365 307.4398,43.9290355 C307.75,43.7311344 308.058,43.5552224 308.388,43.4232884 C308.7158,43.2913543 309.07,43.1814093 309.422,43.1154423 C310.126,42.9615192 310.852,42.9615192 311.578,43.1154423 C311.9278,43.1814093 312.282,43.2913543 312.612,43.4232884 C312.9398,43.5552224 313.25,43.7311344 313.558,43.9290355 C313.844,44.1269365 314.1278,44.3688156 314.394,44.6106947 C314.636,44.8745627 314.878,45.1604198 315.076,45.4462769 C315.274,45.7541229 315.45,46.061969 315.582,46.3918041 C315.714,46.7436282 315.824,47.0734633 315.89,47.4252874 C315.9538,47.7771114 316,48.1509245 316,48.5027486 C316,49.954023 315.4038,51.3833083 314.394,52.3948026 C314.1278,52.6366817 313.844,52.8785607 313.558,53.0764618 C313.25,53.2743628 312.9398,53.4502749 312.612,53.5822089 C312.282,53.7141429 311.9278,53.824088 311.578,53.890055 C311.226,53.956022 310.852,54 310.5,54" id="Fill-22" fill="#000000"></path>
                    <path d="M354.5,51 C353.048,51 351.64,50.4062969 350.6038,49.3948026 C350.364,49.1309345 350.122,48.8450775 349.924,48.5592204 C349.726,48.2513743 349.55,47.9435282 349.4158,47.6136932 C349.286,47.2838581 349.176,46.932034 349.11,46.5802099 C349.044,46.2283858 349,45.8545727 349,45.5027486 C349,44.0514743 349.594,42.6441779 350.6038,41.6106947 C350.87,41.3688156 351.1538,41.1269365 351.4398,40.9290355 C351.75,40.7311344 352.058,40.5552224 352.388,40.4232884 C352.7158,40.2913543 353.07,40.1814093 353.422,40.1154423 C354.126,39.9615192 354.874,39.9615192 355.578,40.1154423 C355.9278,40.1814093 356.282,40.2913543 356.612,40.4232884 C356.9398,40.5552224 357.25,40.7311344 357.558,40.9290355 C357.844,41.1269365 358.1278,41.3688156 358.394,41.6106947 C359.4038,42.6441779 360,44.0514743 360,45.5027486 C360,45.8545727 359.9538,46.2283858 359.89,46.5802099 C359.824,46.932034 359.714,47.2838581 359.582,47.6136932 C359.428,47.9435282 359.274,48.2513743 359.076,48.5592204 C358.878,48.8450775 358.636,49.1309345 358.394,49.3948026 C358.1278,49.6366817 357.844,49.8785607 357.558,50.0764618 C357.25,50.2743628 356.9398,50.4502749 356.612,50.5822089 C356.282,50.7141429 355.9278,50.824088 355.578,50.890055 C355.226,50.956022 354.852,51 354.5,51" id="Fill-23" fill="#000000"></path>
                </g>
            </g>
            <path d="M397.745804,59.1636842 C389.483144,58.501564 381.208307,56.3780666 372.957825,57.1773237 C326.762627,61.6524371 349.914053,66.3194781 317.472915,64.2161144 C305.648459,63.4494604 284.178476,63.4494604 253.062966,64.2161144 C238.180169,66.811054 227.842323,71.4337137 222.04943,78.0840936 C217.707269,83.0689989 209.718801,93.8744299 206.660512,99.1984846 C197.036252,115.952977 191.434484,140.745729 211.930023,153.622603 C223.422533,160.843081 242.698966,159.632145 252.857005,159.580404 C273.058483,159.477506 309.369768,162.872535 347.924865,159.695797 C386.479962,156.519059 393.330791,164.20726 399.126717,161.351036 C401.379283,160.240975 400.411906,146.437658 400.189681,145.886367 C397.190275,138.445499 239.070036,135.951379 237.814124,128.029239 C236.207118,117.892446 235.160188,107.36317 236.927995,97.2530876 C237.973975,91.2711245 396.119255,85.6632452 398.706306,80.1674069 C400.233194,76.9237414 401.417106,73.458697 401.948261,69.9141758 C402.21925,68.1058044 401.351972,66.3059604 401.053828,64.5018526 L397.745804,59.1636842 Z" id="Combined-Shape" fill="#FF9C9C"></path>
            <g id="Group-4" transform="translate(497.000000, 239.000000)">
                <ellipse id="Oval" stroke="#979797" fill="#FFFFFF" cx="163" cy="64" rx="163" ry="64"></ellipse>
                <ellipse id="Oval" stroke="#D9D9D9" stroke-width="2" cx="163" cy="64" rx="95" ry="37"></ellipse>
            </g>
            <g id="Group-5" transform="translate(603.000000, 99.000000)">
                <g id="Group-3">
                    <polygon id="Path" stroke="#EDE66C" fill="#FFF9A9" points="99.7734375 226 3 193.226562 3 62.4765625 99.7734375 94"></polygon>
                    <path d="M3,62.4765625 L3,192.5" id="Line" stroke="#FF9C9C" stroke-width="6" stroke-linecap="round" stroke-linejoin="bevel"></path>
                    <polygon id="Path-2" stroke="#FF9C9C" stroke-width="6" fill="#FFB5B5" stroke-linecap="round" stroke-linejoin="round" points="3 62.4765625 98.7734375 54.7382812 98.7734375 95"></polygon>
                    <path d="M98.6818471,137.586709 C98.6656217,137.586709 98.6521005,137.578596 98.6358751,137.579948 C94.4578313,137.721929 92.4810351,141.901577 90.7368033,145.589024 C88.9168528,149.441439 87.5092982,151.948417 85.2025854,151.872693 C82.648435,151.780744 81.1881478,148.895151 79.6413251,145.840533 C77.8646424,142.33428 75.8364658,138.356111 71.5786471,138.504852 C67.4600964,138.645481 65.4765397,142.282897 63.7268994,145.491666 C61.8650333,148.910025 60.5980989,150.988355 58.1548222,150.892349 C55.5492913,150.797695 54.1647228,148.45163 52.5624632,145.736414 C50.7763157,142.712896 48.7116319,139.313468 44.5362924,139.429757 C40.4880519,139.569033 38.4990867,142.654752 36.7440378,145.379433 C34.8875802,148.259617 33.5868429,150.014772 31.1124675,149.910652 C28.4447392,149.814646 27.0669312,147.868832 25.4727844,145.614716 C23.6825805,143.082047 21.6652209,140.215384 17.5020504,140.354661 C13.5430496,140.489881 11.5540844,143.017141 9.80038774,145.246917 C8.13457869,147.361757 6.83384142,149.03578 4.08228183,148.930308 C3.33591284,148.90056 2.70988233,149.486062 2.68283998,150.233828 C2.6544455,150.97889 3.23856037,151.60631 3.98492936,151.634706 C8.06426856,151.771278 10.1303045,149.199396 11.9245647,146.919588 C13.5160073,144.896698 14.8897589,143.151009 17.5939944,143.059059 C20.1981731,142.948179 21.4191354,144.566761 23.2661283,147.176506 C25.019825,149.656439 27.0101423,152.469013 31.015115,152.613699 C35.2107363,152.754327 37.2294481,149.618577 39.0169478,146.843865 C40.6151509,144.363931 41.994311,142.2234 44.6282364,142.132803 C47.0525835,142.042205 48.3722504,143.958272 50.2327644,147.110248 C51.9864611,150.08103 53.972722,153.446653 58.0574697,153.595395 C62.2828376,153.741433 64.3231833,150.051281 66.1012181,146.787072 C67.6412802,143.96368 69.0948068,141.295792 71.6705911,141.207899 C74.0949382,141.151106 75.3591683,143.364656 77.2291471,147.062921 C78.9760832,150.515085 80.9569357,154.425645 85.1052329,154.57574 C85.1823036,154.578444 85.2580222,154.579796 85.3337408,154.579796 C89.4766295,154.579796 91.4426087,150.421784 93.1827842,146.745154 C94.7228463,143.486354 96.1804293,140.41551 98.6818471,140.291108 L98.6818471,137.586709 Z" id="Fill-24" fill="#FF9C9C" transform="translate(50.681847, 146.079796) rotate(13.000000) translate(-50.681847, -146.079796) "></path>
                    <path d="M98.6818471,139.586709 C98.6656217,139.586709 98.6521005,139.578596 98.6358751,139.579948 C94.4578313,139.721929 92.4810351,143.901577 90.7368033,147.589024 C88.9168528,151.441439 87.5092982,153.948417 85.2025854,153.872693 C82.648435,153.780744 81.1881478,150.895151 79.6413251,147.840533 C77.8646424,144.33428 75.8364658,140.356111 71.5786471,140.504852 C67.4600964,140.645481 65.4765397,144.282897 63.7268994,147.491666 C61.8650333,150.910025 60.5980989,152.988355 58.1548222,152.892349 C55.5492913,152.797695 54.1647228,150.45163 52.5624632,147.736414 C50.7763157,144.712896 48.7116319,141.313468 44.5362924,141.429757 C40.4880519,141.569033 38.4990867,144.654752 36.7440378,147.379433 C34.8875802,150.259617 33.5868429,152.014772 31.1124675,151.910652 C28.4447392,151.814646 27.0669312,149.868832 25.4727844,147.614716 C23.6825805,145.082047 21.6652209,142.215384 17.5020504,142.354661 C13.5430496,142.489881 11.5540844,145.017141 9.80038774,147.246917 C8.13457869,149.361757 6.83384142,151.03578 4.08228183,150.930308 C3.33591284,150.90056 2.70988233,151.486062 2.68283998,152.233828 C2.6544455,152.97889 3.23856037,153.60631 3.98492936,153.634706 C8.06426856,153.771278 10.1303045,151.199396 11.9245647,148.919588 C13.5160073,146.896698 14.8897589,145.151009 17.5939944,145.059059 C20.1981731,144.948179 21.4191354,146.566761 23.2661283,149.176506 C25.019825,151.656439 27.0101423,154.469013 31.015115,154.613699 C35.2107363,154.754327 37.2294481,151.618577 39.0169478,148.843865 C40.6151509,146.363931 41.994311,144.2234 44.6282364,144.132803 C47.0525835,144.042205 48.3722504,145.958272 50.2327644,149.110248 C51.9864611,152.08103 53.972722,155.446653 58.0574697,155.595395 C62.2828376,155.741433 64.3231833,152.051281 66.1012181,148.787072 C67.6412802,145.96368 69.0948068,143.295792 71.6705911,143.207899 C74.0949382,143.151106 75.3591683,145.364656 77.2291471,149.062921 C78.9760832,152.515085 80.9569357,156.425645 85.1052329,156.57574 C85.1823036,156.578444 85.2580222,156.579796 85.3337408,156.579796 C89.4766295,156.579796 91.4426087,152.421784 93.1827842,148.745154 C94.7228463,145.486354 96.1804293,142.41551 98.6818471,142.291108 L98.6818471,139.586709 Z" id="Fill-24" fill="#FF9C9C" transform="translate(50.681847, 148.079796) rotate(13.000000) translate(-50.681847, -148.079796) "></path>
                    <path d="M98.6818471,141.586709 C98.6656217,141.586709 98.6521005,141.578596 98.6358751,141.579948 C94.4578313,141.721929 92.4810351,145.901577 90.7368033,149.589024 C88.9168528,153.441439 87.5092982,155.948417 85.2025854,155.872693 C82.648435,155.780744 81.1881478,152.895151 79.6413251,149.840533 C77.8646424,146.33428 75.8364658,142.356111 71.5786471,142.504852 C67.4600964,142.645481 65.4765397,146.282897 63.7268994,149.491666 C61.8650333,152.910025 60.5980989,154.988355 58.1548222,154.892349 C55.5492913,154.797695 54.1647228,152.45163 52.5624632,149.736414 C50.7763157,146.712896 48.7116319,143.313468 44.5362924,143.429757 C40.4880519,143.569033 38.4990867,146.654752 36.7440378,149.379433 C34.8875802,152.259617 33.5868429,154.014772 31.1124675,153.910652 C28.4447392,153.814646 27.0669312,151.868832 25.4727844,149.614716 C23.6825805,147.082047 21.6652209,144.215384 17.5020504,144.354661 C13.5430496,144.489881 11.5540844,147.017141 9.80038774,149.246917 C8.13457869,151.361757 6.83384142,153.03578 4.08228183,152.930308 C3.33591284,152.90056 2.70988233,153.486062 2.68283998,154.233828 C2.6544455,154.97889 3.23856037,155.60631 3.98492936,155.634706 C8.06426856,155.771278 10.1303045,153.199396 11.9245647,150.919588 C13.5160073,148.896698 14.8897589,147.151009 17.5939944,147.059059 C20.1981731,146.948179 21.4191354,148.566761 23.2661283,151.176506 C25.019825,153.656439 27.0101423,156.469013 31.015115,156.613699 C35.2107363,156.754327 37.2294481,153.618577 39.0169478,150.843865 C40.6151509,148.363931 41.994311,146.2234 44.6282364,146.132803 C47.0525835,146.042205 48.3722504,147.958272 50.2327644,151.110248 C51.9864611,154.08103 53.972722,157.446653 58.0574697,157.595395 C62.2828376,157.741433 64.3231833,154.051281 66.1012181,150.787072 C67.6412802,147.96368 69.0948068,145.295792 71.6705911,145.207899 C74.0949382,145.151106 75.3591683,147.364656 77.2291471,151.062921 C78.9760832,154.515085 80.9569357,158.425645 85.1052329,158.57574 C85.1823036,158.578444 85.2580222,158.579796 85.3337408,158.579796 C89.4766295,158.579796 91.4426087,154.421784 93.1827842,150.745154 C94.7228463,147.486354 96.1804293,144.41551 98.6818471,144.291108 L98.6818471,141.586709 Z" id="Fill-24" fill="#FF9C9C" transform="translate(50.681847, 150.079796) rotate(13.000000) translate(-50.681847, -150.079796) "></path>
                    <path d="M96.6818471,141.586709 C96.6656217,141.586709 96.6521005,141.578596 96.6358751,141.579948 C92.4578313,141.721929 90.4810351,145.901577 88.7368033,149.589024 C86.9168528,153.441439 85.5092982,155.948417 83.2025854,155.872693 C80.648435,155.780744 79.1881478,152.895151 77.6413251,149.840533 C75.8646424,146.33428 73.8364658,142.356111 69.5786471,142.504852 C65.4600964,142.645481 63.4765397,146.282897 61.7268994,149.491666 C59.8650333,152.910025 58.5980989,154.988355 56.1548222,154.892349 C53.5492913,154.797695 52.1647228,152.45163 50.5624632,149.736414 C48.7763157,146.712896 46.7116319,143.313468 42.5362924,143.429757 C38.4880519,143.569033 36.4990867,146.654752 34.7440378,149.379433 C32.8875802,152.259617 31.5868429,154.014772 29.1124675,153.910652 C26.4447392,153.814646 25.0669312,151.868832 23.4727844,149.614716 C21.6825805,147.082047 19.6652209,144.215384 15.5020504,144.354661 C11.5430496,144.489881 9.55408444,147.017141 7.80038774,149.246917 C6.13457869,151.361757 4.83384142,153.03578 2.08228183,152.930308 C1.33591284,152.90056 0.709882331,153.486062 0.682839977,154.233828 C0.654445504,154.97889 1.23856037,155.60631 1.98492936,155.634706 C6.06426856,155.771278 8.13030446,153.199396 9.9245647,150.919588 C11.5160073,148.896698 12.8897589,147.151009 15.5939944,147.059059 C18.1981731,146.948179 19.4191354,148.566761 21.2661283,151.176506 C23.019825,153.656439 25.0101423,156.469013 29.015115,156.613699 C33.2107363,156.754327 35.2294481,153.618577 37.0169478,150.843865 C38.6151509,148.363931 39.994311,146.2234 42.6282364,146.132803 C45.0525835,146.042205 46.3722504,147.958272 48.2327644,151.110248 C49.9864611,154.08103 51.972722,157.446653 56.0574697,157.595395 C60.2828376,157.741433 62.3231833,154.051281 64.1012181,150.787072 C65.6412802,147.96368 67.0948068,145.295792 69.6705911,145.207899 C72.0949382,145.151106 73.3591683,147.364656 75.2291471,151.062921 C76.9760832,154.515085 78.9569357,158.425645 83.1052329,158.57574 C83.1823036,158.578444 83.2580222,158.579796 83.3337408,158.579796 C87.4766295,158.579796 89.4426087,154.421784 91.1827842,150.745154 C92.7228463,147.486354 94.1804293,144.41551 96.6818471,144.291108 L96.6818471,141.586709 Z" id="Fill-24" fill="#FF9C9C" transform="translate(48.681847, 150.079796) rotate(13.000000) translate(-48.681847, -150.079796) "></path>
                    <path d="M96.6818471,141.586709 C96.6656217,141.586709 96.6521005,141.578596 96.6358751,141.579948 C92.4578313,141.721929 90.4810351,145.901577 88.7368033,149.589024 C86.9168528,153.441439 85.5092982,155.948417 83.2025854,155.872693 C80.648435,155.780744 79.1881478,152.895151 77.6413251,149.840533 C75.8646424,146.33428 73.8364658,142.356111 69.5786471,142.504852 C65.4600964,142.645481 63.4765397,146.282897 61.7268994,149.491666 C59.8650333,152.910025 58.5980989,154.988355 56.1548222,154.892349 C53.5492913,154.797695 52.1647228,152.45163 50.5624632,149.736414 C48.7763157,146.712896 46.7116319,143.313468 42.5362924,143.429757 C38.4880519,143.569033 36.4990867,146.654752 34.7440378,149.379433 C32.8875802,152.259617 31.5868429,154.014772 29.1124675,153.910652 C26.4447392,153.814646 25.0669312,151.868832 23.4727844,149.614716 C21.6825805,147.082047 19.6652209,144.215384 15.5020504,144.354661 C11.5430496,144.489881 9.55408444,147.017141 7.80038774,149.246917 C6.13457869,151.361757 4.83384142,153.03578 2.08228183,152.930308 C1.33591284,152.90056 0.709882331,153.486062 0.682839977,154.233828 C0.654445504,154.97889 1.23856037,155.60631 1.98492936,155.634706 C6.06426856,155.771278 8.13030446,153.199396 9.9245647,150.919588 C11.5160073,148.896698 12.8897589,147.151009 15.5939944,147.059059 C18.1981731,146.948179 19.4191354,148.566761 21.2661283,151.176506 C23.019825,153.656439 25.0101423,156.469013 29.015115,156.613699 C33.2107363,156.754327 35.2294481,153.618577 37.0169478,150.843865 C38.6151509,148.363931 39.994311,146.2234 42.6282364,146.132803 C45.0525835,146.042205 46.3722504,147.958272 48.2327644,151.110248 C49.9864611,154.08103 51.972722,157.446653 56.0574697,157.595395 C60.2828376,157.741433 62.3231833,154.051281 64.1012181,150.787072 C65.6412802,147.96368 67.0948068,145.295792 69.6705911,145.207899 C72.0949382,145.151106 73.3591683,147.364656 75.2291471,151.062921 C76.9760832,154.515085 78.9569357,158.425645 83.1052329,158.57574 C83.1823036,158.578444 83.2580222,158.579796 83.3337408,158.579796 C87.4766295,158.579796 89.4426087,154.421784 91.1827842,150.745154 C92.7228463,147.486354 94.1804293,144.41551 96.6818471,144.291108 L96.6818471,141.586709 Z" id="Fill-24" fill="#FF9C9C" transform="translate(48.681847, 150.079796) rotate(13.000000) translate(-48.681847, -150.079796) "></path>
                    <ellipse id="Oval" fill="#F2E864" cx="86.5" cy="110.5" rx="2.5" ry="3.5"></ellipse>
                    <ellipse id="Oval" fill="#F2E864" cx="48.5" cy="117.5" rx="2.5" ry="3.5"></ellipse>
                    <ellipse id="Oval" fill="#F2E864" cx="31.5" cy="93.5" rx="2.5" ry="3.5"></ellipse>
                    <path d="M50.9973168,66.8947704 C50.9332658,66.7661813 50.9,66.6343279 50.9,66.5 C50.9,66.390593 50.9220676,66.2828274 50.9648627,66.17713 L48.9853516,22.4052734 L66.5683594,22.4052734 L66.5683594,66.2740067 C66.5893023,66.348446 66.6,66.4238251 66.6,66.5 C66.6,66.5761749 66.5893023,66.651554 66.5683594,66.7259933 L66.5683594,66.9541016 L66.4708192,66.9541016 C65.8001934,68.1180112 62.5985159,69 58.75,69 C54.9014841,69 51.6998066,68.1180112 51.0291808,66.9541016 L51,66.9541016 L50.9973168,66.8947704 Z" id="Combined-Shape" fill="#D0021B"></path>
                    <ellipse id="Oval" fill="#EA364C" cx="57.75" cy="22.5" rx="8.75" ry="2.5"></ellipse>
                    <path d="M58.6687012,22.3344727 C55.3790134,18.9523895 56.3726903,21.068612 58.1972656,15.6691895" id="Path-4" stroke="#7D7D7D"></path>
                    <path d="M58.1296387,18.6691895 C56.1944663,18.5979022 54.7082357,17.8333336 54.8725586,12.4440918 C54.9821072,8.85126392 56.2474881,5.03314869 58.6687012,0.989746094 C58.3244993,2.87982464 58.7551633,5.00303428 59.9606934,7.359375 C61.7689884,10.8938861 63.5400287,10.362152 63.0219727,13.5620117 C62.5039166,16.7618714 60.064811,18.7404767 58.1296387,18.6691895 Z" id="Path-5" fill="#F8E71C"></path>
                </g>
                <ellipse id="Oval" fill="#F2E864" cx="71.5" cy="189.5" rx="2.5" ry="3.5"></ellipse>
            </g>
            <rect id="Rectangle" stroke="#FF9C9C" fill="#D8D8D8" x="660.5" y="242.5" width="1" height="6"></rect>
            <circle id="Oval" fill="#FFF9A9" cx="714" cy="311" r="3"></circle>
            <circle id="Oval" fill="#FFF9A9" cx="613" cy="324" r="3"></circle>
            <circle id="Oval" fill="#FFF9A9" cx="597" cy="315" r="3"></circle>
            <circle id="Oval" fill="#FFF9A9" cx="622" cy="306" r="3"></circle>
            <circle id="Oval" fill="#FFF9A9" cx="638" cy="320" r="3"></circle>
            <path d="M408.780236,197.65969 C407.148193,196.984196 406,195.376185 406,193.5 C406,191.014719 408.014719,189 410.5,189 C412.985281,189 415,191.014719 415,193.5 C415,194.545608 414.643384,195.507923 414.045145,196.271954 C414.796343,196.539749 415.51299,196.999252 416.181129,197.623366 C417.003819,196.625617 418.186155,196 419.5,196 C421.985281,196 424,198.238576 424,201 C424,203.458993 422.402418,205.503392 420.297601,205.921702 C420.55419,207.066198 420.74587,208.278174 420.863615,209.540114 C421.505195,208.596238 422.448441,208 423.5,208 C425.432997,208 427,210.014719 427,212.5 C427,214.985281 425.432997,217 423.5,217 C422.448441,217 421.505195,216.403762 420.863615,215.459886 C420.739609,216.788926 420.533597,218.062547 420.256121,219.260289 C422.432544,219.926473 424,221.796828 424,224 C424,226.761424 421.537566,229 418.5,229 C417.311913,229 416.211812,228.657534 415.312626,228.075267 C414.432277,228.674282 413.485734,229 412.5,229 C407.80558,229 404,221.612698 404,212.5 C404,205.976845 405.950034,200.337808 408.780236,197.65969 Z M410.5,237 C408.014719,237 406,235.209139 406,233 C406,230.790861 408.014719,229 410.5,229 C412.985281,229 415,230.790861 415,233 C415,235.209139 412.985281,237 410.5,237 Z" id="Combined-Shape" fill="#FF9C9C"></path>
            <path d="M343.528636,386.51039 C347.599311,387.911632 350,389.635727 350,391.5 C350,396.19442 334.777681,400 316,400 C297.222319,400 282,396.19442 282,391.5 C282,387.435759 293.409743,384.037739 308.658282,383.198678 C301.291858,381.852717 297,380.237219 297,378.5 C297,373.80558 328.340068,370 367,370 C405.659932,370 437,373.80558 437,378.5 C437,383.19442 405.659932,387 367,387 C358.766903,387 350.865782,386.827406 343.528636,386.51039 Z M459.5,375 C444.312169,375 432,371.642136 432,367.5 C432,363.357864 444.312169,360 459.5,360 C474.687831,360 487,363.357864 487,367.5 C487,371.642136 474.687831,375 459.5,375 Z" id="Combined-Shape" fill="#FF9C9C"></path>
            <path d="M267,190.148357 C271.066553,190.635206 273.498317,190.12563 275.018154,190.060561 C277.885812,189.93779 277.885812,185.345965 282.87434,187.641877 C286.200026,189.172485 286.673657,191.830961 284.295233,195.617305 C287.120976,195.053501 289.193272,194.979924 290.512122,195.396572 C295.84946,197.082733 295.983751,200.521519 290.914997,205.71293 C294.971666,206.245399 297,207.858298 297,210.551627 C297,213.244955 294.708377,215.222515 290.12513,216.484307 C293.761596,219.347703 294.704927,222.101781 292.955124,224.746542 C291.20532,227.391303 288.331526,227.734584 284.33374,225.776387 C286.356619,230.777729 285.612339,233.737897 282.100898,234.656891 C278.589458,235.575885 276.550675,234.648783 275.984549,231.875585" id="Path-7" stroke="#FF9C9C" stroke-width="3"></path>
            <ellipse id="Oval" fill="#FF9C9C" cx="541.5" cy="380" rx="52.5" ry="9"></ellipse>
        </g>
        <g id="Docusaurus-makes-1-y" fill="#FFFFFF" fill-opacity="1">
            <use filter="url(#filter-3)" xlink:href="#text-2"></use>
            <use xlink:href="#text-2"></use>
        </g>
        <g id="Happy-Birthday-Slash" fill="#FFFFFF" fill-opacity="1">
            <use filter="url(#filter-5)" xlink:href="#text-4"></use>
            <use xlink:href="#text-4"></use>
        </g>
        <g id="From-your-friends-at" fill="#FFFFFF" fill-opacity="1">
            <use filter="url(#filter-7)" xlink:href="#text-6"></use>
            <use xlink:href="#text-6"></use>
        </g>
        <g id="Group-2" transform="translate(1450.000000, 631.000000)">
            <polygon id="Fill-1" fill="#000000" points="0 111 355 111 355 0 0 0"></polygon>
            <g id="Group-44" transform="translate(40.000000, 12.000000)">
                <g id="Group">
                    <polygon id="Fill-2" fill="#FFFFFF" points="104.85716 39.2266415 104.85716 15.8456902 116.652382 15.8456902 116.652382 18.3029585 107.867371 18.3029585 107.867371 26.4486293 115.917683 26.4486293 115.917683 28.9048122 107.867371 28.9048122 107.867371 39.2266415"></polygon>
                    <g id="Group-43">
                        <path d="M128.726986,31.8896768 C127.746665,31.5738354 125.857439,31.151628 124.106712,31.151628 C121.76195,31.151628 121.167915,32.2749817 121.167915,34.2058476 C121.167915,36.3483598 121.866907,37.3664329 123.896798,37.3664329 C125.997021,37.3664329 127.746665,36.5589207 128.726986,35.8914207 L128.726986,31.8896768 Z M131.667946,39.22675 L129.182521,39.22675 L129.007232,37.7875549 C128.026911,38.5603354 125.647525,39.5773232 123.478052,39.5773232 C119.767767,39.5773232 118.297286,37.4011646 118.297286,34.1363841 C118.297286,30.6957744 120.012306,28.9049207 123.687966,28.9049207 C125.857439,28.9049207 127.782372,29.4671402 128.726986,29.8882622 L128.726986,27.2204329 C128.726986,24.9737256 128.026911,24.0262012 125.437611,24.0262012 C123.896798,24.0262012 122.35815,24.2356768 120.817337,24.6926159 L120.362884,22.2700793 C121.866907,21.7794939 123.968212,21.4636524 125.752482,21.4636524 C129.777638,21.4636524 131.667946,23.218689 131.667946,27.0446037 L131.667946,39.22675 Z" id="Fill-3" fill="#FFFFFF"></path>
                        <path d="M146.647154,22.2002902 L146.261951,24.4817293 C145.317338,24.1658878 143.777607,23.8500463 142.587373,23.8500463 C138.667174,23.8500463 138.353385,26.4125951 138.353385,30.5196195 C138.353385,34.6277293 138.667174,37.190278 142.587373,37.190278 C143.777607,37.190278 145.317338,36.8744366 146.261951,36.5585951 L146.647154,38.8400341 C145.666834,39.2264244 144.057854,39.5769976 142.517041,39.5769976 C136.848279,39.5769976 135.412424,35.8910951 135.412424,30.5196195 C135.412424,25.1492293 136.848279,21.4633268 142.517041,21.4633268 C144.057854,21.4633268 145.666834,21.8139 146.647154,22.2002902" id="Fill-5" fill="#FFFFFF"></path>
                        <path d="M152.317539,29.5023061 L160.19148,29.5023061 L160.19148,28.8706232 C160.19148,25.6405744 159.176535,23.6749768 156.305906,23.6749768 C153.052238,23.6749768 152.352164,26.0258793 152.317539,29.5023061 Z M152.317539,31.8195622 C152.491746,35.5054646 153.401734,37.2605012 156.93673,37.2605012 C158.792414,37.2605012 160.716266,36.8046476 162.046082,36.2771598 L162.501617,38.5238671 C161.066844,39.1219037 158.792414,39.5777573 156.902105,39.5777573 C150.637145,39.5777573 149.376578,35.2949037 149.376578,30.4150988 C149.376578,25.3952817 151.022348,21.4630012 156.341613,21.4630012 C161.066844,21.4630012 163.026402,24.7983305 163.026402,28.9759037 L163.026402,31.8195622 L152.317539,31.8195622 Z" id="Fill-7" fill="#FFFFFF"></path>
                        <path d="M170.095421,35.4701902 C171.426319,36.629361 172.861093,37.1904951 174.189827,37.1904951 C177.515991,37.1904951 178.145733,34.5921293 178.145733,30.5556537 C178.145733,26.693922 177.411034,23.8155317 174.050245,23.8155317 C172.265975,23.8155317 171.146073,24.5177634 170.095421,25.3600073 L170.095421,35.4701902 Z M174.645362,39.5772146 C172.684721,39.5772146 170.83012,38.6296902 169.885507,37.4716049 L169.640968,39.2266415 L167.155542,39.2266415 L167.155542,14.4412268 L170.095421,14.4412268 L170.095421,23.2185805 C170.936159,22.3405195 172.615471,21.4277268 174.435448,21.4277268 C179.334886,21.4277268 181.085612,25.0788976 181.085612,30.5198366 C181.085612,35.6112878 179.615132,39.5772146 174.645362,39.5772146 Z" id="Fill-9" fill="#FFFFFF"></path>
                        <path d="M191.410787,23.8499378 C187.771916,23.8499378 187.037217,26.8346939 187.037217,30.5205963 C187.037217,34.2064988 187.771916,37.1912549 191.410787,37.1912549 C195.05074,37.1912549 195.785439,34.2064988 195.785439,30.5205963 C195.785439,26.8346939 195.05074,23.8499378 191.410787,23.8499378 M191.410787,39.5779744 C186.371768,39.5779744 184.096256,35.7857061 184.096256,30.5205963 C184.096256,25.2544012 186.371768,21.4632183 191.410787,21.4632183 C196.450889,21.4632183 198.7264,25.2544012 198.7264,30.5205963 C198.7264,35.7857061 196.450889,39.5779744 191.410787,39.5779744" id="Fill-11" fill="#FFFFFF"></path>
                        <path d="M208.98027,23.8499378 C205.341398,23.8499378 204.606699,26.8346939 204.606699,30.5205963 C204.606699,34.2064988 205.341398,37.1912549 208.98027,37.1912549 C212.620223,37.1912549 213.354922,34.2064988 213.354922,30.5205963 C213.354922,26.8346939 212.620223,23.8499378 208.98027,23.8499378 M208.98027,39.5779744 C203.94125,39.5779744 201.665738,35.7857061 201.665738,30.5205963 C201.665738,25.2544012 203.94125,21.4632183 208.98027,21.4632183 C214.020371,21.4632183 216.295883,25.2544012 216.295883,30.5205963 C216.295883,35.7857061 214.020371,39.5779744 208.98027,39.5779744" id="Fill-13" fill="#FFFFFF"></path>
                        <polygon id="Fill-15" fill="#FFFFFF" points="220.390397 39.2266415 220.390397 14.4412268 223.330276 14.4412268 223.330276 29.853422 229.385323 21.8141171 232.81428 21.8141171 226.164116 30.4145561 233.094526 39.2266415 229.629862 39.2266415 223.330276 30.9767756 223.330276 39.2266415"></polygon>
                        <path d="M112.491648,51.2996 C107.521878,51.2996 106.472308,55.0560512 106.472308,60.9539293 C106.472308,66.8518073 107.521878,70.6082585 112.491648,70.6082585 C117.461417,70.6082585 118.51207,66.8518073 118.51207,60.9539293 C118.51207,55.0560512 117.461417,51.2996 112.491648,51.2996 M103.462097,60.9539293 C103.462097,53.8621488 105.806859,48.8423317 112.491648,48.8423317 C119.177519,48.8423317 121.52228,53.8621488 121.52228,60.9539293 C121.52228,68.0457098 119.177519,73.0655268 112.491648,73.0655268 C105.806859,73.0655268 103.462097,68.0457098 103.462097,60.9539293" id="Fill-17" fill="#FFFFFF"></path>
                        <path d="M128.837245,69.2739098 C129.712608,69.9761415 131.112756,70.6425561 132.757444,70.6425561 C136.152858,70.6425561 136.887557,67.9747268 136.887557,63.9024341 C136.887557,59.8301415 136.257815,57.2675927 132.967358,57.2675927 C131.217713,57.2675927 129.817565,58.1098366 128.837245,58.9878976 L128.837245,69.2739098 Z M133.177272,73.030361 C131.357295,73.030361 129.677983,72.2933976 128.837245,71.5911659 L128.837245,78.9629707 L125.897366,78.9629707 L125.897366,55.2314463 L128.382791,55.2314463 L128.62733,56.9864829 C129.433444,55.8631293 131.32267,54.8808732 133.387186,54.8808732 C138.49762,54.8808732 139.827436,59.0226293 139.827436,63.9371659 C139.827436,69.4150073 138.007459,73.030361 133.177272,73.030361 Z" id="Fill-19" fill="#FFFFFF"></path>
                        <path d="M145.707194,62.9198524 L153.581135,62.9198524 L153.581135,62.2881695 C153.581135,59.0581207 152.56619,57.0925232 149.696643,57.0925232 C146.441893,57.0925232 145.741819,59.4434256 145.707194,62.9198524 Z M145.707194,65.2371085 C145.881401,68.923011 146.791389,70.6780476 150.326385,70.6780476 C152.182069,70.6780476 154.10592,70.2221939 155.435737,69.6947061 L155.891272,71.9414134 C154.455416,72.53945 152.182069,72.9953037 150.29176,72.9953037 C144.026799,72.9953037 142.766233,68.71245 142.766233,63.8326451 C142.766233,58.812828 144.412002,54.8805476 149.731268,54.8805476 C154.455416,54.8805476 156.417139,58.2158768 156.417139,62.39345 L156.417139,65.2371085 L145.707194,65.2371085 Z" id="Fill-21" fill="#FFFFFF"></path>
                        <path d="M170.766388,72.6440793 L170.766388,59.9702622 C170.766388,58.3910549 170.100939,57.5835427 168.38592,57.5835427 C166.567025,57.5835427 164.745966,58.1804939 163.486482,58.7427134 L163.486482,72.6440793 L160.546603,72.6440793 L160.546603,55.2315549 L162.927072,55.2315549 L163.171611,56.7760305 C164.571759,55.8285061 166.776939,54.8809817 169.120619,54.8809817 C172.096205,54.8809817 173.706267,56.5654695 173.706267,59.6544207 L173.706267,72.6440793 L170.766388,72.6440793 Z" id="Fill-23" fill="#FFFFFF"></path>
                        <path d="M191.870975,73.0652012 C189.911416,73.0652012 186.936912,72.5735305 185.431807,71.8365671 L185.921967,69.4140305 C187.461698,70.0467988 189.56192,70.6426646 191.766018,70.6426646 C195.020768,70.6426646 196.56158,69.4845793 196.56158,66.81675 C196.56158,64.0436402 195.301014,63.1297622 191.696768,62.0422256 C187.425991,60.7430427 185.256518,59.3385793 185.256518,55.3021037 C185.256518,50.9128841 187.530948,48.8420061 192.536424,48.8420061 C194.671272,48.8420061 196.666537,49.2283963 198.171643,49.8600793 L197.680401,52.2120671 C196.281334,51.7203963 194.426733,51.2645427 192.641381,51.2645427 C189.176717,51.2645427 188.231022,52.4573598 188.231022,55.1262744 C188.231022,57.8646524 189.105303,58.2510427 192.39576,59.3743963 C196.735788,60.8483232 199.536084,61.9369451 199.536084,66.4303598 C199.536084,70.9585061 196.491248,73.0652012 191.870975,73.0652012" id="Fill-25" fill="#FFFFFF"></path>
                        <path d="M209.720595,57.2673756 C206.081724,57.2673756 205.347025,60.2521317 205.347025,63.9380341 C205.347025,67.6239366 206.081724,70.6086927 209.720595,70.6086927 C213.360548,70.6086927 214.095248,67.6239366 214.095248,63.9380341 C214.095248,60.2521317 213.360548,57.2673756 209.720595,57.2673756 M209.720595,72.9954122 C204.681576,72.9954122 202.406064,69.2031439 202.406064,63.9380341 C202.406064,58.671839 204.681576,54.8806561 209.720595,54.8806561 C214.760697,54.8806561 217.036209,58.671839 217.036209,63.9380341 C217.036209,69.2031439 214.760697,72.9954122 209.720595,72.9954122" id="Fill-27" fill="#FFFFFF"></path>
                        <path d="M223.895962,55.2315549 L223.895962,67.905372 C223.895962,69.4845793 224.560329,70.2920915 226.276431,70.2920915 C228.024993,70.2920915 229.810345,69.6951402 231.035204,69.1329207 L231.035204,55.2315549 L233.975083,55.2315549 L233.975083,72.6440793 L231.595696,72.6440793 L231.350075,71.0996037 C229.985634,72.047128 227.815079,72.9946524 225.539568,72.9946524 C222.565064,72.9946524 220.955001,71.3101646 220.955001,68.2212134 L220.955001,55.2315549 L223.895962,55.2315549 Z" id="Fill-29" fill="#FFFFFF"></path>
                        <path d="M247.590282,57.6891488 C245.629642,58.0744537 243.634376,58.7419537 242.164978,59.5147341 L242.164978,72.6444049 L239.225099,72.6444049 L239.225099,55.2318805 L241.639111,55.2318805 L241.955064,57.2669415 C243.005716,56.2141366 244.929568,55.1971488 247.205079,54.9855024 L247.590282,57.6891488 Z" id="Fill-31" fill="#FFFFFF"></path>
                        <path d="M260.504434,55.617728 L260.11923,57.8991671 C259.174617,57.5833256 257.634887,57.2674841 256.444652,57.2674841 C252.524453,57.2674841 252.210664,59.8300329 252.210664,63.9370573 C252.210664,68.0451671 252.524453,70.6077159 256.444652,70.6077159 C257.634887,70.6077159 259.174617,70.2918744 260.11923,69.9760329 L260.504434,72.257472 C259.524113,72.6438622 257.915133,72.9944354 256.37432,72.9944354 C250.705559,72.9944354 249.269703,69.3085329 249.269703,63.9370573 C249.269703,58.5666671 250.705559,54.8807646 256.37432,54.8807646 C257.915133,54.8807646 259.524113,55.2313378 260.504434,55.617728" id="Fill-33" fill="#FFFFFF"></path>
                        <path d="M266.174818,62.9198524 L274.04876,62.9198524 L274.04876,62.2881695 C274.04876,59.0581207 273.033814,57.0925232 270.163186,57.0925232 C266.909518,57.0925232 266.208361,59.4434256 266.174818,62.9198524 Z M266.174818,65.2371085 C266.349025,68.923011 267.259014,70.6780476 270.79401,70.6780476 C272.649693,70.6780476 274.573545,70.2221939 275.903361,69.6947061 L276.358896,71.9414134 C274.923041,72.53945 272.649693,72.9953037 270.759385,72.9953037 C264.494424,72.9953037 263.233857,68.71245 263.233857,63.8326451 C263.233857,58.812828 264.879627,54.8805476 270.198893,54.8805476 C274.923041,54.8805476 276.8826,58.2158768 276.8826,62.39345 L276.8826,65.2371085 L266.174818,65.2371085 Z" id="Fill-35" fill="#FFFFFF"></path>
                        <path d="M4.14753398,64.4136415 L38.532323,84.3279341 L72.9171121,64.4147268 L72.9171121,24.5861415 L38.532323,4.67184878 L4.14753398,24.5861415 L4.14753398,64.4136415 Z M38.532323,88.9960927 L0.116967578,66.7482634 L0.116967578,22.2515195 L38.532323,0.0036902439 L76.9476785,22.2526049 L76.9476785,66.7482634 L38.532323,88.9960927 Z" id="Fill-37" fill="#4265A6"></path>
                        <path d="M38.5313492,22.652128 C37.2956695,22.652128 36.1216656,22.9212988 35.3101422,23.3912622 L21.9275797,31.1418598 C20.2114781,32.1360549 18.7063727,34.7507012 18.7063727,36.7380061 L18.7063727,52.2402866 C18.7063727,54.2275915 20.2114781,56.8433232 21.9275797,57.8364329 L35.3101422,65.5881159 C36.9331891,66.5280427 40.1295094,66.5280427 41.7525563,65.5881159 L55.1351187,57.8375183 C56.8512203,56.8433232 58.3563258,54.2286768 58.3563258,52.241372 L58.3563258,36.7390915 C58.3563258,34.7517866 56.8512203,32.1360549 55.1351187,31.1429451 L41.7525563,23.3912622 C40.9410328,22.9212988 39.7670289,22.652128 38.5313492,22.652128 M38.5313492,70.3702378 C36.5815289,70.3702378 34.7215172,69.9154695 33.2954,69.0895061 L19.9117555,61.3378232 C16.9751227,59.6381402 14.6758063,55.6418232 14.6758063,52.2402866 L14.6758063,36.7380061 C14.6758063,33.3375549 16.9751227,29.3412378 19.9117555,27.6404695 L33.2954,19.889872 C34.7215172,19.0639085 36.5815289,18.6091402 38.5313492,18.6091402 C40.4811695,18.6091402 42.3411813,19.0639085 43.7672984,19.889872 L57.150943,27.6415549 C60.0875758,29.3412378 62.3868922,33.3375549 62.3868922,36.7390915 L62.3868922,52.241372 C62.3868922,55.6418232 60.0875758,59.6381402 57.150943,61.3389085 L43.7672984,69.0895061 C42.3411813,69.9154695 40.4811695,70.3702378 38.5313492,70.3702378" id="Fill-39" fill="#00CEFF"></path>
                        <path d="M38.531782,37.934622 C34.9156336,37.934622 31.9725086,40.8857317 31.9725086,44.5141098 C31.9725086,48.1414024 34.9156336,51.0925122 38.531782,51.0925122 C42.1479305,51.0925122 45.0910555,48.1414024 45.0910555,44.5141098 C45.0910555,40.8857317 42.1479305,37.934622 38.531782,37.934622 M38.531782,55.1355 C32.6931414,55.1355 27.9419422,50.3707439 27.9419422,44.5141098 C27.9419422,38.6563902 32.6931414,33.8916341 38.531782,33.8916341 C44.3704227,33.8916341 49.1216219,38.6563902 49.1216219,44.5141098 C49.1216219,50.3707439 44.3704227,55.1355 38.531782,55.1355" id="Fill-41" fill="#FFFFFF"></path>
                    </g>
                </g>
            </g>
        </g>
        <text id="Learn-more-at-docusa" font-family="ArialRoundedMTBold, Arial Rounded MT Bold" font-size="22" font-weight="normal" fill="#FFFFFF" fill-opacity="0.528391078">
            <tspan x="749.944824" y="716">Learn more at </tspan>
            <tspan x="904.030762" y="716" text-decoration="underline">docusaurus.io</tspan>
        </text>
        <path d="M823.288086,353.587891 C812.159061,354.021056 805.847341,366.367633 805.666016,372.113281 C805.48469,377.858929 818.993592,377.990648 820.957031,386.876953 C822.920471,395.763258 808.228952,401.285602 813.814453,408.992188 C819.399955,416.698773 831.787055,402.761813 839.570312,412.558594 C850.383874,426.169616 818.295222,466.67454 858.513672,461.193359 C863.520599,460.510989 869.480466,454.009033 871.738281,451.21875 C885.428637,434.299755 868.310013,432.420383 873.669922,419.826172 C876.748815,412.591678 889.048828,388.853516 885.488281,380.769531 C881.927734,372.685547 875.998283,377.813872 872.658203,374.402344 C867.404367,369.036122 883.367316,358.869437 873.669922,350.086914 C863.972527,341.304392 851.570312,343.867188 842.09082,346.71875 C832.611328,349.570313 834.417111,353.154725 823.288086,353.587891 Z" id="Path-8" fill="#FF9C9C"></path>
        <path d="M833.509333,430.42661 C827.291602,438.557759 816.829929,429.491471 820.925196,420.581123 C830.075447,409.513748 840.895416,420.767564 833.509333,430.42661 Z" id="Path-9" fill="#FF9C9C"></path>
    </g>
</svg>