<svg viewBox="0 0 1190.6 841.9" xmlns="http://www.w3.org/2000/svg" xmlns:xlink="http://www.w3.org/1999/xlink"><defs><path id="a" transform="rotate(-77.936 612.785 446.886)" d="M287.4 88.5h650.7v716.8H287.4z"/></defs><clipPath id="b"><use overflow="visible" xlink:href="#a"/></clipPath><path d="M275.3 368.5c36.8-172.1 207-282.2 379.1-245.4C826.6 159.9 936.8 329.8 900 502c-2.5 11.6-5.7 22.9-9.4 34.1l50.5 10.8c6.6 1.4 11.5 6.7 12.8 13.1 1.1 6.7-1.7 13.2-7.4 16.8L812 663.7c-7.7 5-17.8 2.8-22.7-4.9l-87.5-134.2c-3.6-5.7-3.6-12.8.2-18.5 3.9-5.3 10.6-8.1 17-6.7l56 12c4.6-11 8-22.3 10.5-33.9 23.3-109-46.4-216.7-155.5-240C521 214.2 413.2 284 389.9 393s46.5 216.8 155.6 240.1c8.8 1.9 14.6 10.6 12.7 19.5l-17.6 82.1c-1.9 8.9-10.7 14.6-19.6 12.7-172.1-36.7-282.5-206.8-245.7-378.9z" clip-path="url(#b)"/></svg>