<svg xmlns="http://www.w3.org/2000/svg" xmlns:xlink="http://www.w3.org/1999/xlink" xml:space="preserve" width="1069.627" height="963.187" viewBox="0 0 1069.627 963.187">
  <defs>
    <path id="a" fill="#3578e5" fill-opacity="1" fill-rule="nonzero" stroke="none" d="M3.587 0C2.524.2.797.797-.4 1.494v-2.988C.798-.797 2.525-.2 3.588 0"/>
    <path id="b" fill="#25c2a0" fill-opacity="1" fill-rule="nonzero" stroke="none" d="M3.587 0C2.524.2.797.797-.4 1.494v-2.988C.798-.797 2.525-.2 3.588 0"/>
    <path id="c" fill="#fa383e" fill-opacity="1" fill-rule="nonzero" stroke="none" d="M3.587 0C2.524.2.797.797-.4 1.494v-2.988C.798-.797 2.525-.2 3.588 0"/>
  </defs>
  <path fill="none" stroke="#25c2a0" stroke-miterlimit="10" stroke-width="3.189" d="M198.736 152.776V1.595h377.956v151.18Z"/>
  <text fill="#25c2a0" stroke="none" font-family="ArialMT" font-size="9.963" font-weight="400" style="-inkscape-font-specification:ArialMT" transform="translate(320.546 38.541) scale(2.66666)"><tspan x="0 6.087 8.299 10.511 18.809 23.791 28.772 33.753 36.523 42.062" y="0">Filesystem</tspan></text>
  <path fill="none" stroke="#25c2a0" stroke-miterlimit="10" stroke-width="3.189" d="M9.757 114.981V39.39h151.184v75.592Z"/>
  <text fill="#25c2a0" stroke="none" font-family="ArialMT" font-size="9.963" font-weight="400" style="-inkscape-font-specification:ArialMT" transform="matrix(1.6 0 0 1.6 12.687 81.31)"><tspan x="0 5.539 11.078 16.06 21.599 26.58 32.119 37.659 40.976 46.515 51.497 54.266 59.248 64.787 70.326 73.096 75.307 80.846 83.616 85.828" y="0">docusaurus.config.js</tspan></text>
  <path fill="none" stroke="#25c2a0" stroke-miterlimit="10" stroke-width="1.064" d="M320.48 65.973H214.172V88.4h106.306z"/>
  <text fill="#25c2a0" stroke="none" font-family="ArialMT" font-size="9.963" font-weight="400" style="-inkscape-font-specification:ArialMT" transform="matrix(1.6 0 0 1.6 219.482 82.888)"><tspan x="0 5.539 11.078 16.06 21.041 23.811 26.022 31.562 34.331 37.649 43.188 45.957 54.256" y="0">docs/intro.md</tspan></text>
  <path fill="none" stroke="#25c2a0" stroke-miterlimit="10" stroke-width="1.064" d="M352.386 109.746H214.173v25.59h138.213z"/>
  <text fill="#25c2a0" stroke="none" font-family="ArialMT" font-size="9.963" font-weight="400" style="-inkscape-font-specification:ArialMT" transform="matrix(1.6 0 0 1.6 219.482 126.661)"><tspan x="0 4.981 8.299 13.28 16.05 21.589 27.128 32.667 38.207 43.188 45.957 48.169 53.708 59.248 64.787 69.768 72.538 74.749" y="0">src/pages/index.js</tspan></text>
  <path fill="none" stroke="#25c2a0" stroke-miterlimit="10" stroke-width="1.064" d="M493.476 64.392H388.034v25.587h105.44Z"/>
  <text fill="#25c2a0" stroke="none" font-family="ArialMT" font-size="9.963" font-weight="400" style="-inkscape-font-specification:ArialMT" transform="matrix(1.6 0 0 1.6 393.342 81.31)"><tspan x="0 5.539 7.751 13.29 18.829 21.599 27.138 32.677 34.889 37.101 42.64 45.41 53.708" y="0">blog/hello.md</tspan></text>
  <path fill="none" stroke="#25c2a0" stroke-miterlimit="10" stroke-width="1.064" d="M515.612 109.746H388.034v25.59h127.578z"/>
  <text fill="#25c2a0" stroke="none" font-family="ArialMT" font-size="9.963" font-weight="400" style="-inkscape-font-specification:ArialMT" transform="matrix(1.6 0 0 1.6 393.342 126.661)"><tspan x="0 5.539 7.751 13.29 18.829 21.599 27.138 32.677 35.447 40.986 46.525 49.843 54.824 57.594 62.575 70.874" y="0">blog/authors.yml</tspan></text>
  <path fill="none" stroke="#3578e5" stroke-miterlimit="10" stroke-width="1.064" d="M236.53 152.776v58.472"/>
  <use xlink:href="#a" transform="matrix(0 2.66666 2.66666 0 236.53 211.245)"/>
  <text fill="#3578e5" stroke="none" font-family="ArialMT" font-size="9.963" font-weight="400" style="-inkscape-font-specification:ArialMT" transform="translate(240.283 190.594) scale(1.06666)"><tspan x="0 2.212 7.751 13.29 18.829 26.022 31.562 37.101 39.87 45.41 50.949" y="0">loadContent</tspan></text>
  <path fill="none" stroke="#3578e5" stroke-miterlimit="10" stroke-width="1.064" d="M387.714 152.776v58.472"/>
  <use xlink:href="#a" transform="matrix(0 2.66666 2.66666 0 387.714 211.245)"/>
  <text fill="#3578e5" stroke="none" font-family="ArialMT" font-size="9.963" font-weight="400" style="-inkscape-font-specification:ArialMT" transform="translate(391.466 190.594) scale(1.06666)"><tspan x="0 2.212 7.751 13.29 18.829 26.022 31.562 37.101 39.87 45.41 50.949" y="0">loadContent</tspan></text>
  <path fill="none" stroke="#3578e5" stroke-miterlimit="10" stroke-width="1.064" d="M538.897 152.776v58.472"/>
  <use xlink:href="#a" transform="matrix(0 2.66666 2.66666 0 538.897 211.245)"/>
  <text fill="#3578e5" stroke="none" font-family="ArialMT" font-size="9.963" font-weight="400" style="-inkscape-font-specification:ArialMT" transform="translate(542.647 190.594) scale(1.06666)"><tspan x="0 2.212 7.751 13.29 18.829 26.022 31.562 37.101 39.87 45.41 50.949" y="0">loadContent</tspan></text>
  <path fill="none" stroke="#25c2a0" stroke-miterlimit="10" stroke-width="1.064" d="M100.466 114.981v83.15h869.3v13.114"/>
  <use xlink:href="#b" transform="matrix(0 2.66666 2.66666 0 969.766 211.245)"/>
  <path fill="none" stroke="#25c2a0" stroke-miterlimit="10" stroke-width="1.064" d="M213.853 198.13v20.675"/>
  <use xlink:href="#b" transform="matrix(0 2.66666 2.66666 0 213.855 218.805)"/>
  <path fill="none" stroke="#25c2a0" stroke-miterlimit="10" stroke-width="1.064" d="M365.036 198.13v20.675"/>
  <use xlink:href="#b" transform="matrix(0 2.66666 2.66666 0 365.036 218.802)"/>
  <path fill="none" stroke="#25c2a0" stroke-miterlimit="10" stroke-width="1.064" d="M516.22 198.13v20.675"/>
  <use xlink:href="#b" transform="matrix(0 2.66666 2.66666 0 516.22 218.802)"/>
  <path fill="none" stroke="#25c2a0" stroke-miterlimit="10" stroke-width="1.064" d="M742.993 198.13v13.115"/>
  <use xlink:href="#b" transform="matrix(0 2.66666 2.66666 0 742.993 211.245)"/>
  <text fill="#25c2a0" stroke="none" font-family="ArialMT" font-size="9.963" font-weight="400" style="-inkscape-font-specification:ArialMT" transform="translate(116.35 194.3) scale(1.06666)"><tspan x="0 2.212 7.751 9.963" y="0">init</tspan></text>
  <path fill="none" stroke="#3578e5" stroke-miterlimit="10" stroke-width="3.189" d="M297.005 281.282c0-33.4-27.075-60.474-60.475-60.474-33.397 0-60.47 27.074-60.47 60.474s27.075 60.475 60.473 60.475c33.4 0 60.474-27.075 60.474-60.475z"/>
  <text fill="#3578e5" stroke="none" font-family="ArialMT" font-size="9.963" font-weight="400" style="-inkscape-font-specification:ArialMT" transform="translate(198.131 263.256) scale(2.13333)"><tspan x="0 5.539 7.751 13.29 18.829 21.041 26.58" y="0">plugin­</tspan><tspan x="0 4.981 10.521 16.06 18.829 24.369 29.908 32.677" y="11.956">content­</tspan><tspan x="0 5.539 11.078 16.06" y="23.911">docs</tspan></text>
  <path fill="none" stroke="#3578e5" stroke-miterlimit="10" stroke-width="3.189" d="M448.188 281.282c0-33.4-27.074-60.474-60.474-60.474s-60.475 27.074-60.475 60.474 27.075 60.475 60.475 60.475 60.474-27.075 60.474-60.475z"/>
  <text fill="#3578e5" stroke="none" font-family="ArialMT" font-size="9.963" font-weight="400" style="-inkscape-font-specification:ArialMT" transform="translate(349.312 261.144) scale(2.13333)"><tspan x="0 5.539 7.751 13.29 18.829 21.041 26.58" y="0">plugin­</tspan><tspan x="0 4.981 10.521 16.06 18.829 24.369 29.908 32.677" y="11.956">content­</tspan><tspan x="0 5.539 7.751 13.29" y="23.911">blog</tspan></text>
  <path fill="none" stroke="#3578e5" stroke-miterlimit="10" stroke-width="3.189" d="M599.37 281.282c0-33.4-27.075-60.474-60.473-60.474-33.4 0-60.474 27.074-60.474 60.474s27.077 60.475 60.474 60.475c33.398 0 60.47-27.075 60.47-60.475z"/>
  <text fill="#3578e5" stroke="none" font-family="ArialMT" font-size="9.963" font-weight="400" style="-inkscape-font-specification:ArialMT" transform="translate(500.496 261.144) scale(2.13333)"><tspan x="0 5.539 7.751 13.29 18.829 21.041 26.58" y="0">plugin­</tspan><tspan x="0 4.981 10.521 16.06 18.829 24.369 29.908 32.677" y="11.956">content­</tspan><tspan x="0 5.539 11.078 16.618 22.157" y="23.911">pages</tspan></text>
  <path fill="none" stroke="#3578e5" stroke-miterlimit="10" stroke-width="3.189" d="M652.284 409.788V281.282c0-33.4 27.074-60.474 60.472-60.474h68.031c33.4 0 60.475 27.074 60.475 60.474v128.506c0 33.398-27.075 60.472-60.475 60.472h-68.031c-33.398 0-60.472-27.074-60.472-60.474z"/>
  <text fill="#3578e5" stroke="none" font-family="ArialMT" font-size="9.963" font-weight="400" style="-inkscape-font-specification:ArialMT" transform="translate(681.81 273.645) scale(2.13333)"><tspan x="0 2.77 8.309 13.848 22.147 27.686 31.004 35.985 38.197 43.736 48.717 53.698 55.91" y="0">theme­classic</tspan></text>
  <path fill="none" stroke="#25c2a0" stroke-dasharray="2.125 5.315" stroke-miterlimit="10" stroke-width="2.125" d="M667.401 424.906V281.282h158.744v143.624z"/>
  <text fill="#25c2a0" stroke="none" font-family="ArialMT" font-size="9.963" font-weight="400" style="-inkscape-font-specification:ArialMT" transform="matrix(1.6 0 0 1.6 709.566 309.663)"><tspan x="0 4.981 8.299 13.28 16.05 18.819 24.359 29.898 38.197 43.736" y="0">src/theme/</tspan></text>
  <path fill="none" stroke="#25c2a0" stroke-miterlimit="10" stroke-width="1.064" d="M750.54 317.378h-75.312v18.52h75.311z"/>
  <text fill="#25c2a0" stroke="none" font-family="ArialMT" font-size="9.963" font-weight="400" style="-inkscape-font-specification:ArialMT" transform="translate(679.65 331.31) scale(1.33333)"><tspan x="0 6.645 12.184 20.483 26.022 31.562 33.773 36.543 38.755 44.294" y="0">Admonition</tspan></text>
  <path fill="none" stroke="#25c2a0" stroke-miterlimit="10" stroke-width="1.064" d="M768.273 346.295h-93.045v21.157h93.045z"/>
  <text fill="#25c2a0" stroke="none" font-family="ArialMT" font-size="9.963" font-weight="400" style="-inkscape-font-specification:ArialMT" transform="translate(679.65 360.227) scale(1.33333)"><tspan x="0 6.645 8.857 14.396 19.935 26.58 32.119 37.101 39.87 46.515 52.055 57.594" y="0">BlogPostPage</tspan></text>
  <path fill="none" stroke="#25c2a0" stroke-miterlimit="10" stroke-width="1.064" d="M748.32 377.764h-73.092v18.688h73.093z"/>
  <text fill="#25c2a0" stroke="none" font-family="ArialMT" font-size="9.963" font-weight="400" style="-inkscape-font-specification:ArialMT" transform="translate(679.65 391.862) scale(1.33333)"><tspan x="0 7.193 12.732 18.271 23.811 30.456 32.667 38.207 43.188" y="0">CodeBlock</tspan></text>
  <text fill="#25c2a0" stroke="none" font-family="ArialMT" font-size="9.963" font-weight="400" style="-inkscape-font-specification:ArialMT" transform="matrix(1.6 0 0 1.6 740.126 410.583)"><tspan x="0 2.77 5.539" y="0">...</tspan></text>
  <path fill="none" stroke="#3578e5" stroke-miterlimit="10" stroke-width="3.189" d="M879.056 356.874v-75.592c0-33.4 27.075-60.474 60.475-60.474h68.032c33.397 0 60.472 27.074 60.472 60.474v75.592c0 33.397-27.075 60.472-60.472 60.472H939.53c-33.4 0-60.475-27.075-60.475-60.472z"/>
  <text fill="#3578e5" stroke="none" font-family="ArialMT" font-size="9.963" font-weight="400" style="-inkscape-font-specification:ArialMT" transform="translate(920.985 260.893) scale(2.13333)"><tspan x="0 2.77 8.309 13.848 22.147 27.686 31.004 33.215 35.427 40.408 45.948" y="0">theme­live­</tspan><tspan x="0 4.981 10.521 16.06 21.599 27.138 29.35 34.889 39.87" y="11.955">codeblock</tspan></text>
  <path fill="none" stroke="#25c2a0" stroke-dasharray="2.125 5.315" stroke-miterlimit="10" stroke-width="2.125" d="M894.176 379.548V303.96h158.741v75.592z"/>
  <text fill="#25c2a0" stroke="none" font-family="ArialMT" font-size="9.963" font-weight="400" style="-inkscape-font-specification:ArialMT" transform="matrix(1.6 0 0 1.6 936.338 324.78)"><tspan x="0 4.981 8.299 13.28 16.05 18.819 24.359 29.898 38.197 43.736" y="0">src/theme/</tspan></text>
  <path fill="none" stroke="#25c2a0" stroke-miterlimit="10" stroke-width="1.064" d="M975.094 332.413H902v18.685h73.094z"/>
  <text fill="#25c2a0" stroke="none" font-family="ArialMT" font-size="9.963" font-weight="400" style="-inkscape-font-specification:ArialMT" transform="translate(906.426 346.507) scale(1.33333)"><tspan x="0 7.193 12.732 18.271 23.811 30.456 32.667 38.207 43.188" y="0">CodeBlock</tspan></text>
  <text fill="#25c2a0" stroke="none" font-family="ArialMT" font-size="9.963" font-weight="400" style="-inkscape-font-specification:ArialMT" transform="matrix(1.6 0 0 1.6 966.901 365.228)"><tspan x="0 2.77 5.539" y="0">...</tspan></text>
  <path fill="none" stroke="#3578e5" stroke-miterlimit="10" stroke-width="1.064" d="M236.53 341.757v118.938"/>
  <use xlink:href="#a" transform="matrix(0 2.66666 2.66666 0 236.53 460.695)"/>
  <text fill="#3578e5" stroke="none" font-family="ArialMT" font-size="9.963" font-weight="400" style="-inkscape-font-specification:ArialMT" transform="translate(240.283 358.489) scale(1.06666)"><tspan x="0 4.981 10.521 16.06 18.829 24.369 29.908 32.677 38.217 43.756 49.295 54.834 60.373 65.913" y="0">contentLoaded:</tspan><tspan x="0 6.077 11.616 17.156 22.695 29.888 35.427 40.966 43.736" y="11.955">­addRoute</tspan><tspan x="0 6.077 11.058 14.376 19.915 25.454 28.224 33.763 40.956 46.495 49.265" y="23.911">­createData</tspan><tspan x="0 6.077 11.058 16.598 19.367 27.118 29.33 34.869 40.408 45.948 48.159 55.352 60.891 63.661" y="35.866">­setGlobalData</tspan></text>
  <path fill="none" stroke="#3578e5" stroke-miterlimit="10" stroke-width="1.064" d="M387.714 341.757v118.938"/>
  <use xlink:href="#a" transform="matrix(0 2.66666 2.66666 0 387.714 460.695)"/>
  <text fill="#3578e5" stroke="none" font-family="ArialMT" font-size="9.963" font-weight="400" style="-inkscape-font-specification:ArialMT" transform="translate(391.466 358.489) scale(1.06666)"><tspan x="0 4.981 10.521 16.06 18.829 24.369 29.908 32.677 38.217 43.756 49.295 54.834 60.373 65.913" y="0">contentLoaded:</tspan><tspan x="0 6.077 11.616 17.156 22.695 29.888 35.427 40.966 43.736" y="11.955">­addRoute</tspan><tspan x="0 6.077 11.058 14.376 19.915 25.454 28.224 33.763 40.956 46.495 49.265" y="23.911">­createData</tspan><tspan x="0 6.077 11.058 16.598 19.367 27.118 29.33 34.869 40.408 45.948 48.159 55.352 60.891 63.661" y="35.866">­setGlobalData</tspan></text>
  <path fill="none" stroke="#3578e5" stroke-miterlimit="10" stroke-width="1.064" d="M538.897 341.757v118.938"/>
  <use xlink:href="#a" transform="matrix(0 2.66666 2.66666 0 538.897 460.695)"/>
  <text fill="#3578e5" stroke="none" font-family="ArialMT" font-size="9.963" font-weight="400" style="-inkscape-font-specification:ArialMT" transform="translate(542.647 358.489) scale(1.06666)"><tspan x="0 4.981 10.521 16.06 18.829 24.369 29.908 32.677 38.217 43.756 49.295 54.834 60.373 65.913" y="0">contentLoaded:</tspan><tspan x="0 6.077 11.616 17.156 22.695 29.888 35.427 40.966 43.736" y="11.955">­addRoute</tspan><tspan x="0 6.077 11.058 14.376 19.915 25.454 28.224 33.763 40.956 46.495 49.265" y="23.911">­createData</tspan><tspan x="0 6.077 11.058 16.598 19.367 27.118 29.33 34.869 40.408 45.948 48.159 55.352 60.891 63.661" y="35.866">­setGlobalData</tspan></text>
  <path fill="none" stroke="#3578e5" stroke-miterlimit="10" stroke-width="1.064" d="M746.771 424.906v249.45m226.776-294.808v294.808H465.308"/>
  <use xlink:href="#a" transform="matrix(-2.66666 0 0 2.66666 465.314 674.358)"/>
  <text fill="#3578e5" stroke="none" font-family="ArialMT" font-size="9.963" font-weight="400" style="-inkscape-font-specification:ArialMT" transform="translate(673.308 548.535) scale(1.06666)"><tspan x="0 5.539 11.078 13.848 19.935 25.474 31.014 39.312 44.852 51.497 57.036 59.805" y="0">getThemePath</tspan></text>
  <text fill="#3578e5" stroke="none" font-family="ArialMT" font-size="9.963" font-weight="400" style="-inkscape-font-specification:ArialMT" transform="translate(900.08 548.535) scale(1.06666)"><tspan x="0 5.539 11.078 13.848 19.935 25.474 31.014 39.312 44.852 51.497 57.036 59.805" y="0">getThemePath</tspan></text>
  <path fill="none" stroke="#25c2a0" stroke-miterlimit="10" stroke-width="3.189" d="M198.736 621.441v-151.18h377.956v151.183z"/>
  <text fill="#25c2a0" stroke="none" font-family="ArialMT" font-size="9.963" font-weight="400" style="-inkscape-font-specification:ArialMT" transform="translate(327.914 507.524) scale(2.66666)"><tspan x="0 4.991 10.53 18.829 27.118 29.888 32.099 34.311 39.85" y="0">Tempfiles</tspan></text>
  <path fill="none" stroke="#25c2a0" stroke-miterlimit="10" stroke-width="1.064" d="M269.1 527.308h-54.927v21.968H269.1z"/>
  <text fill="#25c2a0" stroke="none" font-family="ArialMT" font-size="9.963" font-weight="400" style="-inkscape-font-specification:ArialMT" transform="matrix(1.6 0 0 1.6 219.482 543.772)"><tspan x="0 3.318 8.857 14.396 17.166 22.705" y="0">routes</tspan></text>
  <path fill="none" stroke="#25c2a0" stroke-miterlimit="10" stroke-width="1.064" d="M326.693 557.417h-112.52v22.224h112.52z"/>
  <text fill="#25c2a0" stroke="none" font-family="ArialMT" font-size="9.963" font-weight="400" style="-inkscape-font-specification:ArialMT" transform="matrix(1.6 0 0 1.6 219.482 574.137)"><tspan x="0 4.981 7.193 9.405 14.944 20.483 26.012 34.311 39.85 45.39 50.929 53.141 58.68" y="0">clientmodules</tspan></text>
  <path fill="none" stroke="#25c2a0" stroke-miterlimit="10" stroke-width="1.064" d="M378.951 585.975H214.173v25.584H378.95z"/>
  <text fill="#25c2a0" stroke="none" font-family="ArialMT" font-size="9.963" font-weight="400" style="-inkscape-font-specification:ArialMT" transform="matrix(1.6 0 0 1.6 219.482 602.887)"><tspan x="0 4.981 7.193 9.963 18.261 23.243 28.782 34.321 37.091 39.302 47.611 50.929 55.91 61.449 64.767 66.979 72.518 74.729 76.941 81.922 87.462 93.001" y="0">siteconfig(serialized)</tspan></text>
  <path fill="none" stroke="#25c2a0" stroke-miterlimit="10" stroke-width="1.064" d="M519.17 527.18H388.033v22.224h131.135z"/>
  <text fill="#25c2a0" stroke="none" font-family="ArialMT" font-size="9.963" font-weight="400" style="-inkscape-font-specification:ArialMT" transform="matrix(1.6 0 0 1.6 393.342 543.9)"><tspan x="0 4.981 10.521 16.06 24.359 27.128 30.446 35.985 41.524 46.505 48.717 54.256 57.026 59.238 64.777 70.316" y="0">codetranslations</tspan></text>
  <path fill="none" stroke="#25c2a0" stroke-miterlimit="10" stroke-width="1.064" d="M523.599 555.735H388.034v25.592h135.565z"/>
  <text fill="#25c2a0" stroke="none" font-family="ArialMT" font-size="9.963" font-weight="400" style="-inkscape-font-specification:ArialMT" transform="matrix(1.6 0 0 1.6 393.342 572.655)"><tspan x="0 5.539 7.751 13.29 18.829 21.041 29.34 34.321 40.966 48.717 58.68 64.219 69.758 72.528" y="0">pluginJSONdata</tspan></text>
  <path fill="none" stroke="#25c2a0" stroke-miterlimit="10" stroke-width="1.064" d="M476.657 586.07h-88.623v25.39h88.623z"/>
  <text fill="#25c2a0" stroke="none" font-family="ArialMT" font-size="9.963" font-weight="400" style="-inkscape-font-specification:ArialMT" transform="matrix(1.6 0 0 1.6 393.342 602.79)"><tspan x="0 5.539 7.751 13.29 18.829 24.369 29.34 34.879 40.418 43.188" y="0">globaldata</tspan></text>
  <path fill="none" stroke="#25c2a0" stroke-miterlimit="10" stroke-width="1.064" d="M70.232 114.981v483.786H204.29"/>
  <use xlink:href="#b" transform="matrix(2.66666 0 0 -2.66666 204.29 598.764)"/>
  <path fill="none" stroke="#fa383e" stroke-miterlimit="10" stroke-width="3.189" d="M138.261 674.356V492.938c0-33.398 27.075-60.472 60.475-60.472h355.279c33.397 0 60.471 27.074 60.471 60.472v181.418c0 33.4-27.074 60.474-60.471 60.474h-355.28c-33.4 0-60.474-27.074-60.474-60.474z"/>
  <text fill="#fa383e" stroke="none" font-family="ArialMT" font-size="9.963" font-weight="400" style="-inkscape-font-specification:ArialMT" transform="rotate(-90 380.962 210.672) scale(2.66666)"><tspan x="0 6.645 12.184 17.723 23.263 25.474 31.014" y="0">Bundler</tspan></text>
  <path fill="none" stroke="#fa383e" stroke-miterlimit="10" stroke-width="1.064" d="M452.69 644.801H322.738v59.112H452.69Z"/>
  <text fill="#fa383e" stroke="none" font-family="ArialMT" font-size="9.963" font-weight="400" style="-inkscape-font-specification:ArialMT" transform="translate(354.636 667.097) scale(2.13333)"><tspan x="0 6.087 11.626 17.166 25.464" y="0">Theme</tspan><tspan x="-11.633 -6.652 -1.112 7.186 12.726 18.265 23.804 29.343 34.882 37.652" y="11.955">components</tspan></text>
  <path fill="none" stroke="#fa383e" stroke-miterlimit="10" stroke-width="1.064" d="M312.122 734.828v66.029"/>
  <use xlink:href="#c" transform="matrix(0 2.66666 2.66666 0 312.122 800.857)"/>
  <text fill="#fa383e" stroke="none" font-family="ArialMT" font-size="9.963" font-weight="400" style="-inkscape-font-specification:ArialMT" transform="translate(206.181 768.995) scale(1.06666)"><tspan x="0 6.645 12.184 15.502 20.483 26.022 29.34 32.657 37.639 39.85 45.39 53.688 57.006 62.545 68.084 73.624 79.163 82.48 84.692 90.231" y="0">Server­siderendering</tspan><tspan x="32.673 35.991 43.184 48.723 54.262 59.801" y="11.955">(Node)</tspan></text>
  <path fill="none" stroke="#fa383e" stroke-miterlimit="10" stroke-width="1.064" d="M463.306 734.828v66.029"/>
  <use xlink:href="#c" transform="matrix(0 2.66666 2.66666 0 463.306 800.857)"/>
  <text fill="#fa383e" stroke="none" font-family="ArialMT" font-size="9.963" font-weight="400" style="-inkscape-font-specification:ArialMT" transform="translate(467.055 768.995) scale(1.06666)"><tspan x="0 7.193 9.405 11.616 17.156 22.695 25.464 28.782 33.763 35.975 41.514 49.813 53.131 58.67 64.209 69.748 75.287 78.605 80.817 86.356" y="0">Client­siderendering</tspan><tspan x="24.376 27.694 34.339 37.656 43.195 50.388 55.37 60.909 64.226" y="11.955">(Browser)</tspan></text>
  <path fill="none" stroke="#25c2a0" stroke-miterlimit="10" stroke-width="3.189" d="M198.736 961.603V810.422h173.86v151.181z"/>
  <text fill="#25c2a0" stroke="none" font-family="ArialMT" font-size="9.963" font-weight="400" style="-inkscape-font-specification:ArialMT" transform="translate(202.957 842.606) scale(2.66666)"><tspan x="0 6.645 12.184 15.502 20.483 26.022 32.099 37.639 43.178 48.717 54.256 56.468" y="0">Serverbundle</tspan></text>
  <text fill="#25c2a0" stroke="none" font-family="ArialMT" font-size="9.963" font-weight="400" style="-inkscape-font-specification:ArialMT" transform="matrix(1.6 0 0 1.6 217.887 875.017)"><tspan x="0 6.645 9.415 14.954 17.723 19.935 27.676 34.869 40.956 49.255 57.564 63.103 68.642 74.182 79.721" y="0">StaticHTMLpages</tspan></text>
  <path fill="none" stroke="#25c2a0" stroke-miterlimit="10" stroke-width="3.189" d="M402.834 961.603V810.422h173.858v151.181z"/>
  <text fill="#25c2a0" stroke="none" font-family="ArialMT" font-size="9.963" font-weight="400" style="-inkscape-font-specification:ArialMT" transform="translate(412.218 842.606) scale(2.66666)"><tspan x="0 7.193 9.405 11.616 17.156 22.695 28.224 33.763 39.302 44.842 50.381 52.593" y="0">Clientbundle</tspan></text>
  <text fill="#25c2a0" stroke="none" font-family="ArialMT" font-size="9.963" font-weight="400" style="-inkscape-font-specification:ArialMT" transform="matrix(1.6 0 0 1.6 455.209 876.598)"><tspan x="0 4.981 14.386 19.925 24.907 29.888 35.427 38.197" y="0">JSassets</tspan></text>
</svg>
