<svg width="250" height="200" xmlns="http://www.w3.org/2000/svg"><use href="#e" x="-20" opacity=".361"/><use href="#e" x="-40" opacity=".361"/><g id="e"><g fill="#3ECC5F"><path d="M63 163c-7.4 0-14-4-17.3-10a20 20 0 00-2.7 10c0 11 9 20 20 20h20v-20H63z"/><path d="M223 83H63c-8 4-8 6 0 10-8 4-8 6 0 10-8 4-8 6 0 10-8 4-8 6 0 10-8 4-8 6 0 10-8 4-8 6 0 10-8 4-8 6 0 10-8 4-8 6 0 10 0 11 9 20 20 20h120c11 0 20-9 20-20V83z"/></g><path d="M223 53V33c0-11.046-8.954-20-20-20H87.112c-16.524 0-29.937 13.362-30 29.885-.121 31.68-.075 47.581.139 47.705h165.75V53z" fill="#D0021B"/></g><use href="#h" x="60"/><use href="#f" x="50"/><path d="M143 183h60c11 0 20-9 20-20V93h-60c-11 0-20 9-20 20v70z" fill="#FFFF50"/><g fill="none" stroke="#000" stroke-width="2" stroke-linecap="round"><path d="M103 53a1 1 0 10-20 0" stroke-width="5"/><path d="M223 62.6c-5 0-5 10-10 10.7-5 0-5-10-10-10s-5 9-10 9-5-8.5-10-8.5-5 8-10 8-5-7.25-10-7.25-5 6.5-10 6.5" stroke-linecap="butt"/><path d="M208 113h-50m50 10h-50m50 10h-50m50 10h-50m50 10h-50m50 10h-50"/></g><circle cx="183" cy="39.3" r="2.5"/><circle cx="203" cy="38" r="2.5"/><circle cx="153" cy="71" r="1"/><path d="M225 116h-23v68h-5v-68h-31v-4h58.256a4.502 4.502 0 018.744 1.5 4.5 4.5 0 01-8.242 2.5z" fill="#D8D8D8"/><g fill="#3ECC5F"><path d="M123 123h40v-20h-30zM123 183h40v-40h-30z"/></g><g id="h" fill="#44D860"><circle cx="163" cy="113" r="10"/><circle cx="168" cy="104.3" r="2.4"/><circle cx="171.7" cy="108" r="2.4"/><circle cx="173" cy="113" r="2.4"/><circle cx="171.7" cy="118" r="2.4"/><circle cx="168" cy="121.7" r="2.4"/></g><g id="f" fill="#44D860"><circle cx="163" cy="163" r="20"/><circle cx="153" cy="145.7" r="5"/><circle cx="163" cy="143" r="5"/><circle cx="173" cy="145.7" r="5"/><circle cx="180.3" cy="153" r="5"/><circle cx="183" cy="163" r="5"/></g><path d="M95 32h128.2v48H75V52c0-11 9-20 20-20z"/><path d="M103 53a1 1 0 10-20 0" stroke-width="2" fill="none" stroke="#9B9B9B" stroke-linecap="round" opacity=".546"/><g fill="#D8D8D8"><path opacity=".436" d="M212 35h8v19h-8z"/><path d="M201 17h5.33c7.2-.38 13.3 5.13 13.6 12a13 13 0 01.018.683v.3h-8v-3c0-5.5-4.5-10-10-10a10 10 0 00-.9.04z" opacity=".538"/><path opacity=".436" d="M212 56h8v4h-8z"/></g><ellipse fill="#930012" transform="rotate(-20 93.5 28)" cx="93.5" cy="28" rx="3.5" ry="1"/><path d="M95.52 24.747c-1.3-4.8-6-7.7-10.5-6.5m3.5 10.5c-1.3-4.8-6-7.7-10.5-6.5" fill="none" stroke="#6D000D" opacity=".6"/><path fill="#D8D8D8" d="M74 184h135v3H74z"/><g id="w"><circle cx="71.5" cy="186.5" r="6.5"/><circle fill="#4A4A4A" cx="71.5" cy="186.5" r="2.5"/></g><use href="#w" x="138"/></svg>