<svg xmlns="http://www.w3.org/2000/svg" viewBox="0 0 720.07 762.53"><defs><style>.cls-1{fill:#ced8d2}.cls-2{fill:#1d1d1b}.cls-3{opacity:.2}.cls-4{fill:#050505}.cls-5{fill:#ccbca8}.cls-6{fill:#b7a38d}.cls-7{fill:#b79765}.cls-8{fill:#fff}.cls-9{fill:#d7b89b}.cls-10{opacity:.27}.cls-11{opacity:.51}.cls-12{fill:#e3fbfc}.cls-13{opacity:.56}.cls-14{opacity:.39}.cls-15{fill:none;stroke:#1d1d1b;stroke-linecap:round;stroke-linejoin:round;stroke-width:5px}</style></defs><title>BoyerShadows</title><g id="BACKGROUND_OCLOR" data-name="BACKGROUND OCLOR"><path class="cls-1" d="M604,97c102.41,62,170.85,174.54,170.85,303,0,195.53-158.51,354-354,354s-354-158.51-354-354A352.48,352.48,0,0,1,139,185.68l6.95-8.83A356,356,0,0,1,220.64,108Z" transform="translate(-60.79 2.5)"/><path class="cls-2" d="M774.33,418.17H743a2.5,2.5,0,0,1,0-5h31.33a2.5,2.5,0,0,1,0,5Z" transform="translate(-60.79 2.5)"/></g><g id="shadow"><g class="cls-3"><path class="cls-4" d="M683,482.33c-18.83,3.44-37.15,12-54.59,19.58-9,3.89-18.46,6.69-27.67,10.08-5.37,2-15.08,4-18.46,8.83.79-8.35-.94-19-3.12-27.1-2.32-8.64-7.87-15.93-6.74-25.29,10.4-.89,21.59,1.16,32.08,1.24,14.77.12,29.37.81,44.09,1.92C660,472.46,673.68,471.94,683,482.33Z" transform="translate(-60.79 2.5)"/></g><g class="cls-3"><path class="cls-4" d="M291,512.33c-30.31,0-58.76,13-86.18,24.53-16.11,6.77-34.42,9.42-51.16,14.65-10.28,3.21-21.33,5.38-31.33,8.65-5.92,1.94-11.34,5.75-17.38,7.26-3.81-5.92-4.16-13.61-6.52-20.21-3.8-10.67-7.68-21.23-11.12-32C83.14,502,72,486.26,73.7,471.75c10.35.26,20.59,2.61,31.22,2.58,15.75,0,31.49,1.5,47.24,2,23.23.68,46.12,6.64,69,9.85,15.67,2.2,30.65,10.18,46.2,13.66C276.88,501.94,286.34,504.48,291,512.33Z" transform="translate(-60.79 2.5)"/></g><g class="cls-3"><path class="cls-4" d="M267.7,678.5c9.58,1.57,19,4.62,28.83,4.61,8.83,0,17.49-2.54,26.5-2.12,6.67.31,13.14,1.66,19.79,2,15.14.78,28.27,4,42.83,8.8,10.37,3.41,20.13,9,30.39,12.38,8.91,2.93,20.7,1.92,30.18.2,13.06-2.37,25.5-7.44,38.49-10.12,15-3.1,27.84-5.3,42-11.55,12.52-5.54,25.66-10.15,38.37-15.42,4.46-1.85,17.39-3.54,16.48-10.31-.43-3.2-6.84-6.92-9-8.77-7.25-6.25-14.56-10-23.13-14.16-12.82-6.3-19.11-8.37-33.63-7.06-35.83,3.25-71.88,6.13-106.13,17.5-8.81,2.93-20.59,8.56-30,7.84-16.78-1.3-33.56-3-50.42-1.94-10.88.66-21.23,2.49-32.25,1.95-10.47-.52-20.93-3.28-31.32-5-13.79-2.29-29.89-6.58-51.33-3-5.23-.11-14,7.91-14.7,13.33-1.24,9.58,10.32,5.68,16.42,5.39C234.49,662.17,249.83,675.57,267.7,678.5Z" transform="translate(-60.79 2.5)"/></g></g><g id="COLOR"><path class="cls-5" d="M379.67,631.39l50.88-10.2,110.17-24.29,74.73-16.24-13.42-60L594.42,482H680l66-17.43V289l-50.12-6.6V177.1l-23.14-25.84-5.41-2.66L604,148V12.67L539,0,400,5V32H290L222,46V174.2l-83,2.89V312.74L80,314l-3.72,4.24,1,154.1,1.75,2,57.45,11.84,57.15-.53L343,454.5c-.07,0,4.24,22.37,4.47,23.62l4.68,24.73c1.64,8.67,3.73,18.35,2.53,27.22-.51,3.75-.49,7.66-.68,11.44-.17,3.33-.59,6.81,3.25,7.49,1.29.23,2.84-.51,3.7.5s.4,3.3.62,4.55c.37,2.13,1.11,4.34,1.52,6.52l2.81,14.86,5,26.61,5.49,29s.05.34.06.34Z" transform="translate(-60.79 2.5)"/><polygon class="cls-6" points="134.41 488.2 78.21 488.68 13.87 477.07 16.52 316.5 280.95 315.24 352.71 324.5 352.71 390.84 343.71 391 134.41 488.2"/><polygon class="cls-6" points="355.21 150.5 355.21 297.5 635.1 295.83 635.1 179.59 624.21 167 611.96 153.75 591.85 151.83 355.21 150.5"/><polygon class="cls-6" points="161.71 172.5 161.21 48.46 229.21 34.5 366.21 34.5 366.21 148.95 355.21 150.5 354.38 177.49 227.43 179.46 161.71 172.5"/><path class="cls-7" d="M345.88,628.62a19.34,19.34,0,0,0-3.63,1.85c-2.64,1.58-5.9,2.39-8.78,3.45-3.7,1.36-7.63,3.4-11.49,4.23L304,642l-23,.65-32.85-9.12-7.9,6.43-9.5,4.29-10.13,2L217.74,642l4.69-12.72,8.29-7.88-10.09-12.88-6.8-21.21c-.15-4.54-.28-9.09-.46-13.63-.3-7.38-4.83-1.22-7.93-5.12-2.19-2.75,1.31-8.37,2.14-11.07,1.07-3.46,3.65-6.93,4.39-10.37.4-1.85-.79-3.32-.72-5.08,0-1.19.59-1.75.76-2.79.45-2.78-.62-5.74-.77-8.51a117.36,117.36,0,0,0-1.67-11.85c-.45-2.87-.2-6.63-2.31-8.89-1.73-1.86-4.94-2-6.25-4.25-1.1-1.9.2-3.86,0-6-.46-5.23-3.43-9.56-5.81-14.05l-6.84-12.87-8.25-15.52-7.75-20.06,1.3-22.67L182,391.63l3.62-6.63-6.09-2.31-4.76-8.25-.58-11,2.6-4.53,6.43-3.44,5.21,1.25,9.51,9L222.55,355l38.54-8.5,1-7.65,2.74-5.2,5.88-1,3.44,2.58,4.14,9.6,24,.7,32,5.52L350,363.07l8.4-3.82L373.94,355l11.35.35,4.29,3.65L365.95,378.2l6.22,22,14.59,20.54,7.77,6.22-.82,12.28-.82,3.44L343,454.5c-.52.12,6.72,41.69,7.34,45.53.84,5.22,1.15,10.56,2.18,15.72a45.42,45.42,0,0,1,.49,8.61V535.8c0,3.16-.7,9.73,1.75,12.08,1.49,1.43,2.23-.07,3.76.62,2.49,1.13,3,8.54,3.63,11.14L365,572.22c1.27,5.54,3,11.17,3.86,16.79l6.24,40.78,3.37,3.93,3.22-.31.51,6.09-8.08,3.15c-7.9-3.34-15.36-6.95-21.87-12.71a6,6,0,0,0-1.84-1.28A6.58,6.58,0,0,0,345.88,628.62Z" transform="translate(-60.79 2.5)"/><path class="cls-8" d="M367.71,375s25.05-15.79,25.17-15.79,4.73,6.38,4.73,6.38l6.18,19.06-3.15,14-5.14,6.35-5.92,2.45-5.69-4.41-4.45-2.88.39-7.3L371,391.63Z" transform="translate(-60.79 2.5)"/><polygon class="cls-8" points="268 386.47 240.1 389.87 209.14 394.5 194.94 395.41 192.21 407.55 197.47 425.94 207.9 439.05 220.17 446.08 230.11 448.31 240.1 448.06 252.46 444.82 262.21 437.75 268.24 430.09 273.17 419.72 275.01 407.55 273.81 397.65 268 386.47"/><path class="cls-2" d="M362.47,402.31a4.84,4.84,0,0,0,1.79,1l3.11,1.18a10.32,10.32,0,0,0,3.91.92c2.44-.07,4.46-1.82,6.24-3.49a6,6,0,0,0,2.17-3.23A4.82,4.82,0,0,0,378,394.8c-2.45-2.47-7.94-4.68-11.46-3.35C363.61,392.55,359.91,399.72,362.47,402.31Z" transform="translate(-60.79 2.5)"/><path class="cls-9" d="M355,414.41c.84,3.95,4.6,7.43,8.59,6.85,2.93-.42,5.19-2.74,7.93-3.87,4.64-1.92,9.9-.21,14.92-.33a5,5,0,0,0,2-.35,3.89,3.89,0,0,0,1.84-4.23,10.3,10.3,0,0,0-2.31-4.34q-2.11-2.7-4.46-5.2c-1.22-1.3-3-2.65-4.61-1.88a6.15,6.15,0,0,0-1.74,1.69,7.77,7.77,0,0,1-7,2.48c-3.49-.58-7.21-4.17-10.76-2.09S354.24,410.71,355,414.41Z" transform="translate(-60.79 2.5)"/><g class="cls-10"><path class="cls-8" d="M368.81,388.34l-1.1-23.69s8.48-17.33,8.09-18,6.68-6.06,6.68-6.06l13-1,8.29,1.85,9.82,12.28,7.21,15.07L424.21,386l-4.71,21.73-6.39,11.59-8.61,4.11L390.36,422l-5.08-3.31,3.67-3.79v-5.42l-4-6.79-5.56-2.47-1.51-7.57Z" transform="translate(-60.79 2.5)"/></g><g class="cls-10"><polygon class="cls-8" points="226.66 366.6 237.24 361.46 250.18 361.46 265.7 366.6 279.96 384.01 285.01 395.42 287.35 407.55 286.4 422.15 279.23 440.12 268 452.2 253.91 456.94 235.27 454.47 220.17 446.08 208.28 425.94 205.61 398.57 213.7 378.9 226.66 366.6"/></g><g class="cls-11"><path class="cls-8" d="M409,439.75c2.36,4.34,2.22,12.12,2.69,17.5.09,1.06-.14,3.22.56,4,1.48,1.65,1-.36,2.56-.69.63-.14,1.51.46,1.75.39.58-.16,1.31-1.06,1.76-1.16,1.15-.24,3,.52,4.19,0,.76-.35,1-1.35,1.69-1.59.86-.31,1.44.2,2.31.08,1.47-.21,4-2,4.8-.05,1.43.12,1.21-1.24,2.15-1.49.72-.19,1.17.59,1.7.51.9-.12,3.54-.38,4.45-1,2.39-1.52,1-8.77.9-11.83A110.37,110.37,0,0,0,439,431.52c-2.13,0-4.39,1.84-6.54,2.33-5.92,1.36-12,1.57-17.91,3.15" transform="translate(-60.79 2.5)"/></g><g class="cls-11"><path class="cls-8" d="M536.5,417c-1.36,2.71.54,8.93,1.31,12,.62,2.48,1.22,5,1.73,7.46,1.31-.76,1.41-1.43,3-1.49a14.4,14.4,0,0,0,1.74.77c1.14.13,1.75-.4,2.77-.56,1.84-.29,4.55-.88,6.77-.28-2.06-4.24-3-8.94-3.79-13.6-.18-1,.13-3.81-.67-4.58C547.82,415.29,542.06,417.06,536.5,417Z" transform="translate(-60.79 2.5)"/></g><g class="cls-11"><path class="cls-8" d="M547.25,294.25c0,9.83-1.48,19.55-1.25,29.38,0,1-.43,3.13,0,4,1.14,2.17,1,.14,2.53.12s2.27,1.32,4.2,1.26c1.21,0,2.66-.62,4-.76,3.52-.36,8.43.88,11.46,2.23.67-11.62-.15-23.39-.24-34.95-.89,0-1.82,0-2.72,0" transform="translate(-60.79 2.5)"/></g><g class="cls-11"><path class="cls-8" d="M374.75,251c-.19,4,.75,8,.75,12,0,3.31-.18,6.68,0,10,.21,3.74.35,7.47.54,11.21,1.38.2,3.73-1.36,4.73-1,1.66.62.39,3.52,2.47,3.79,1.05.14,1.18-1.19,2-1.3s1.31.73,2,.73,1.89-.48,2.52-.4,1.11.91,1.41.91c4.59,0,3.49-6.39,3.58-10.1.13-5.21,1.23-10.28,1.25-15.49,0-1.39.84-6.83-.05-7.82-.59-.65-1.81-.24-2.59-.25-4.44,0-8.91.19-13.36.19" transform="translate(-60.79 2.5)"/></g><g class="cls-11"><path class="cls-8" d="M106.25,316.25c-1.22.56-1,9.29-1,11.36,0,3.62.17,7.29,0,10.9-.18,4,.39,8.06.28,12,1.35-.75,2.9-3.06,4.67-2.25.54.25.24,1.64,1,1.93.91.36,1.25-.45,2.07-.48,1.63-.05,2.85.13,4.37-.9,2.49-1.67,1.66-4,1.38-7a76.43,76.43,0,0,1,.5-16.47c.16-1.27,1.52-4.07.75-5.3-1.56-2.48-7.92.65-10.25-1.75" transform="translate(-60.79 2.5)"/></g><g class="cls-11"><path class="cls-8" d="M164.25,177.75c-1.19,3.13-.24,7.9-.49,11.31a68.35,68.35,0,0,0,.46,11.07c.29,3.43-.16,7.73,1.25,10.84,1-.46,1.46-1.42,2.82-1.47.78,0,2,.77,2.82,1,2.6.78,4.87,1.11,5.37-1.72,1.86-10.4-1.63-22.08,1-32.28" transform="translate(-60.79 2.5)"/></g><g class="cls-11"><path class="cls-8" d="M314.75,177.5c0,7.1,1,13.7,1.73,20.63.29,2.92-.35,7.68,1,10.32,1.16,2.23.77.49,2.85-.06,2.62-.7,1.29.93,3.27,1.47.61.17,2.79-.54,3.55-.66a40.06,40.06,0,0,0,4.08-.44c.39-.1,2-.76,2.13-.74.87.11,1.12.85,1.65,1,1.47.41,3.44.31,4.72,1.27,2.09-1.86,1.25-6.75,1.25-9.29a111.45,111.45,0,0,1,.28-11.35c.43-4.23,2.08-8.41,2-12.67,0,.13-.45.23-.75.54" transform="translate(-60.79 2.5)"/></g><path class="cls-8" d="M638.75,149.5c0,7.67-.1,15.3-.27,22.94.64-1.54,2.45-3.17,4.22-2.9.54,3.11,1,3.66,3.49,1.74,1.22,3.69,3.36-.27,4.8-1s3.29.33,4.75,0c2-.47,2.21-2.73,2.48-4.73.72-5.42,1.62-10.88,2.52-16.27" transform="translate(-60.79 2.5)"/><g class="cls-11"><path class="cls-8" d="M565.25,4.5c-1.2,3.83-.25,9.22-.25,13.24s-.2,8.22.13,12.26c.34,4.2,1,8.33,1.41,12.49.65-.46,1.79-2.75,2.71-2.77.62,0,1.28,1.34,2,1.55-.51-.15,2.6-.36,2.12-.27.58-.11,1.29.45,2.08-.47,0,.81.59,1.27.81,1.76a1.44,1.44,0,0,1,1.94-.08c1.62-2.72,1.09-7.6,1.24-10.71s.35-6.07.57-9.07c.26-3.51-1.82-10.46-.26-13.18" transform="translate(-60.79 2.5)"/></g><g class="cls-11"><path class="cls-8" d="M344,32c-.48,1,.06,2.92,0,4.3-.19,2.38-1.19,4.66-1.53,7-.46,3.24-.18,6.66-.18,9.93,0,4-.57,8.72.5,12.48,1.9-1.32,4.18-5.76,6.51-6,.23.57.47,2.78,1.23,3,1.51.34,1.67-2.51,2.77-2.78,1.7-.43,1.94,2.07,3.94.33,1,2.63,1.73,0,3-.48s2.08.81,3.71-.52c.4,1.15,1.06,2.27,2.23,2.45,1.38-2.07,1.35-4.43,1.62-6.86.37-3.41,1.16-6.53,1.19-10,0-4.25-.05-8.71,1.25-12.62" transform="translate(-60.79 2.5)"/></g><g class="cls-11"><path class="cls-8" d="M247.5,41.25c-.35,3.5,1.76,7.33,2.25,10.81.25,1.81.14,4,1.25,5.48,1.82-3,4.84,1.18,5.79-1,6.84,1.07,2.63-13.17,5-16.54" transform="translate(-60.79 2.5)"/></g><g class="cls-11"><path class="cls-8" d="M709.67,295.33c2.33,3.49,2,11.62,2,16a48.19,48.19,0,0,1-1.63,14c1.82-1.77,2.28-.66,4.27-.64,1.46,0,2.63.09,4.2,0,4.21-.25,4.85.8,4.83-4.4,0-9,1.83-19.42,1.67-27.6" transform="translate(-60.79 2.5)"/></g><path class="cls-7" d="M372.5,517.5c-1,0-4.6-.61-5.25-.27-1.44.77-.83,5.27-1.06,7.08a86.53,86.53,0,0,0-.65,15.65c3.48.21,7.31-1.35,10.34-2.82,2.46-1.19,7-2.37,8.37-5,1.23-2.26-.15-5.42-1.3-7.43C380.22,520,375.95,520.66,372.5,517.5Z" transform="translate(-60.79 2.5)"/><path class="cls-8" d="M364,513.75c-1.64,0-3.47.25-5-.4-1-.43-1.89-2-2.87-2.21-2.63-.57-3.64,4.44-3.93,6.55-.65,4.7,0,9.78-.21,14.56-.18,3.54-.83,7.5-.49,11,.27,2.77,5.17,7.86,7,3.79,2.07,0,2.24,1.42,4.13-.47,2.36-2.36,2.43-8.28,2.58-11.46A89.06,89.06,0,0,0,364,513.75Z" transform="translate(-60.79 2.5)"/><path class="cls-8" d="M346.75,488.75c-4.43-.36-9,1.44-13.25,2.5s-8.35,2.19-12.6,2.12a119.23,119.23,0,0,0-14.92.71c-9.72,1-19.31,3-29,4.43-8,1.18-16.07.42-24.15.8a160.73,160.73,0,0,1-21.67-.3c-3.36-.3-6.5-1.24-9.81-1.71s-7.16.62-10.52,0c-2.57-.5-10.5-4.42-12.24-.89-1.1,2.24,1.65,9,3.37,10.62,1.91,1.8,3.77,2.19,5.08,4.74s1.34,5.38,2.05,8a61.06,61.06,0,0,1,2,12c.21,3.07-.48,6-.26,9,.41,5.51-1.6,10.3-2.13,15.74-.27,2.81-1.92,4.91-2.43,7.58-.45,2.35-1.55,4.24.74,5.47,1.78,1,4.4.33,6.33.6,4.14.59,8.24,1.38,12.37,2.18,10.84,2.11,23,2.42,34,1.95a173.24,173.24,0,0,1,25.22.5c7.15.72,14.39,1.51,21.56,1.87s13.5.73,20.7-.13c4.43-.53,8.73-1,13.2-1.3,3.77-.21,7.17-.5,10.6-2,2.85-1.28,10.28-3.3,11-6.25.81-3.33-1.57-7.8-2-11.1-.3-2.5-.36-4.25-1.34-6.51-5.43.15-6.21-5.74-6.47-10.28-.19-3.35,1.7-6.78,2.08-10.14a70.7,70.7,0,0,0,.18-8.57c-.06-4.81-1.46-9.9-2.56-14.55-.51-2.15-4.41-14.24-4.69-14.24" transform="translate(-60.79 2.5)"/><path class="cls-8" d="M367.67,422.33c-.24-.33.24-.54-.26-.66-.48,7.73,6.38,11.62,12.85,8.57,5.41-2.54,7.2-11,.74-12.92A11.57,11.57,0,0,0,367.67,422.33Z" transform="translate(-60.79 2.5)"/><path class="cls-12" d="M231,391.5c-3,2.57-14.36,15.14-8,18.65C227.9,412.85,231.23,401.12,231,391.5Z" transform="translate(-60.79 2.5)"/><path class="cls-12" d="M230.5,419c-3.25,2.7-10.29,24.24-2.73,21.27C233.1,438.17,229.89,425.67,230.5,419Z" transform="translate(-60.79 2.5)"/></g><g id="shadows"><g class="cls-3"><polygon class="cls-4" points="161.21 48.46 229.21 34.5 229.19 179.59 354.38 179.59 198.21 202.51 165.27 179 161.71 172.5 161.21 48.46"/></g><g class="cls-3"><path class="cls-4" d="M412.5,180c-9,23.6-18.5,48.61-25.84,72.42a252.61,252.61,0,0,0,28.76,0c.84-14.23.89-28.77,1.08-43C416.62,200.39,413.53,192.41,412.5,180Z" transform="translate(-60.79 2.5)"/></g><g class="cls-3"><path class="cls-4" d="M290,251c-10.86,19.34-26.07,40.4-36,61.4,11.67,1.24,25-.47,36.87-1C291,291.92,291.49,272.44,290,251Z" transform="translate(-60.79 2.5)"/></g><g class="cls-3"><polygon class="cls-4" points="138.57 177.49 78.21 179.59 78.21 315.24 138.57 316.5 138.57 177.49"/></g><g class="cls-3"><polygon class="cls-4" points="19.21 316.5 83.21 324.62 83.21 489.21 16.52 476.5 19.21 316.5"/></g><g class="cls-3"><polygon class="cls-4" points="354.64 254.92 229.21 253.5 229.19 316.5 284.48 316.5 352.71 324.5 352.71 354 354.64 387.5 375.37 390.84 373.21 297.5 354.38 296.75 354.64 254.92"/></g><g class="cls-3"><polygon class="cls-4" points="373.21 297.5 373.21 390.49 499.03 390.84 497.21 418.17 519.23 416.91 535.94 484.5 619.21 484.5 621.21 297.5 535.86 298.09 537.21 150.5 354.38 150.5 354.38 296.75 373.21 297.5"/></g><g class="cls-3"><path class="cls-4" d="M408.5,254.5c-1.72,11.63-.54,23.82-1.84,35.55-.81,7.35-1.51,14.57-1.7,22.27a66,66,0,0,1,17.46-1.74c.89,16.3-1.28,32.82-1.95,49.07-.4,9.85.58,19.49,1.1,29.27,3.85-.45,7.23-1.33,11.34-1.5,6-19.23-.34-41,.59-60.82.14-3-.42-8.29,1.69-10.16,2.33-2.07,11.37-2.31,14.31-2.47,22.9-1.22,45.35-4.54,68-7.48,15-1.94,29.77-6.35,44.85-7,5.65-.24,10.71-.52,16.1-2.13,4.42-1.32,12.76-1.92,15.73-4.76-19.4-3.52-39.12-1.68-58.76-2.1-21.15-.45-42.22,0-63.38,0-13.56,0-27.86,2.62-41.3.54-2.23-.35-4.87-.59-6.85-1.92-3.59-2.41-3.44-5.78-4.67-10.64-1.16-4.63-1.79-24.93-5.74-26.48" transform="translate(-60.79 2.5)"/></g><g class="cls-3"><polygon class="cls-4" points="475.7 2.59 339.21 7.5 339.21 34.5 366.21 34.5 366.21 149.74 475.7 151.07 475.7 2.59"/></g><g class="cls-3"><path class="cls-4" d="M341.85,454.31,502,417.85l38.69,179L375.87,633.72l-10.22-53.87-3-15.57c-1.05-5.55-3.3-11.65-3.17-17.26,3.09,1.72,5.12-1.35,5.72-4.28.92-4.53.23-4.23,5.51-4.25,4.9,0,8.53-2.82,12.31-5.76,4.51-3.52.94-6.64-2-10-4.31-4.86-8.66-5.73-15-6.07,0-9.28-10.17-1.72-12.72-8.82-1.68-4.67-2.19-10.14-3.22-15L343,459.5C342.9,459.23,341.84,454.32,341.85,454.31Z" transform="translate(-60.79 2.5)"/></g><g class="cls-3"><path class="cls-4" d="M261.67,345.33c.71-3-1.64-12.36,3.83-12.33,4.53,0,2.93,9.79,2.79,12.95-2.3.13-4.85-.24-7,.72" transform="translate(-60.79 2.5)"/></g><g class="cls-3"><path class="cls-4" d="M185.67,384.33c-6.22,1.13-9.76-9-10.41-13.68-.87-6.31.63-9.24,5.5-13,.47.32.22.28.4.2.73,3.17-1.09,6.15.92,9.13,1.49,2.22,4.23,2.45,6.3,3.52-1.15-.91-2.45-1.66-2.5-3.15,2,.39,4.4,4.37,6.46,3.11,1.5-.91,1.11-5.52.46-6.75,4.1.69,4.17,4.81,2.71,7.25-2.34,3.9-10.33,10.17-9.43,14.94C186.3,385.68,186.39,385.36,185.67,384.33Z" transform="translate(-60.79 2.5)"/></g><g class="cls-3"><path class="cls-4" d="M246.31,350.72c-1.27,1.27-3.4,2.11-5.06,3.18-3.34,2.15-6.16,5-9.25,7.45a83.09,83.09,0,0,0-12.87,12.81c-6.32,7.81-10.75,19.13-12.07,29.1-1,7.23.18,15.24.94,22.44.89,8.47,1.71,17.31,5.26,25.15,6.2,13.7,14.95,28.54,27.78,37,4.94,3.24,10,7.2,15.71,9,4.31,1.39,8.84,1.24,13.23,2.23-3.06,3.07-9.28,2.33-12.72,5.42-2.88,2.59-2.79,5.92.95,7.19,1.69.58,4.05.24,5.86.63,2.82.61,5.36,1.53,8.3,1.71,3.71.23,7.52,0,11.24,0-4.16,0-8.39-.24-12.26,1.54-3.43,1.58-7,2.52-10.31,4s-5.71,4.56-8.28,6.88c-3.22,2.91-6.67,8-2.12,11.25,3,2.13,10.59,2.31,12.25,6.16,1.73,4-4.14,4.18-6.95,4.75-3.63.74-9,1.22-6.26,5.77,2.29,3.86,5.3,3.53,5.33,8.58,0,3.45-1.43,6.07,1.66,8.07s8,1.95,11.52,2.83A65.85,65.85,0,0,0,285.33,576c3.28,0,9-.88,11.31,1.67-5.49,3.45-15.75,3-22.13,4.33-3.3.67-9.6,1.64-11.55,4.74-1.42,2.26-.69,6.78-.06,9.21,1.12,4.33,5,7,8.11,9.71,7.07,6.19,11.31,14.54,20.31,18.52,7.76,3.43,18,3.45,26.41,3.9,5.7.31,12,.81,17.6-.09,1.3-.21,4.62-.53,5.43-1.89,1.26-2.12-1.19-2.72-1.72-4.68,3.66-2.07,10.79,3,14,4.44,3.72,1.65,7.76,2.41,11.4,4.31,2.53,1.33,5.48,3.6,8.5,3.16a27.55,27.55,0,0,0,.48-13.23c-.43,3.89,3.95,16.67,8.8,14.5.53,2.9.1,5.59-2.72,7-7.7,4-22.12-6.42-28.33-10.84-5.24-3.74-6.78-.89-12.26,1.34s-11.38,3.62-17.24,5.13c-13.27,3.42-27.45,4.4-41.22,3.74-6.22-.3-11.5-2.13-17.13-4.47-2.59-1.07-5.4-1.43-8-2.46-1.61-.64-3.45-2.28-5.33-2.07-2.44.27-4.62,4.29-7,6-4.84,3.47-16.18,13.83-22.49,9s-.22-12.28,3-17.15c2.25-3.4,4.66-6.16,5.47-10.1-7-4.26-11.11-13.77-13.31-21.1-2.79-9.27-6.33-20.47-2.68-29.91-2-.35-6,1.29-7.57-.06s-.53-5.59,0-7.34c.93-3.08,2.16-6.15,3.31-9.15.73-1.92,2.61-5.11,2.37-7.18-.1-.91-1.35-1.87-1.35-2.4,0-2,.85-1.63,1.28-2.93,1.06-3.16.25-6.76-.33-10.16-.71-4.15-2.2-8.09-3.37-12.11-.56-1.91-.78-6.27-2.05-7.67-.93-1-2.91-.38-3.93-1.12-1.66-1.21-1.44-2.7-1.74-4.63-.69-4.47.35-8.63-1.27-12.86-1.95-5.08-5.41-9.49-8.65-13.8-2.05-2.73-4.34-5.08-5.69-8.32-1.9-4.58-2.83-9.51-4.9-14-3.89-8.46-5.68-16.8-6.42-26.21a54,54,0,0,1,8-31.47c3-4.62,4.06-9.85,7.65-14.39,6.72-8.49,11.63-17.25,21.5-22.32C221.14,354.82,233.33,349.9,246.31,350.72Z" transform="translate(-60.79 2.5)"/></g><g class="cls-3"><path class="cls-4" d="M273.67,368.33c-1.13-4-10.12,5-11.35,6.5-3.26,3.95-6,6.85-7.91,11.76a50.11,50.11,0,0,0-1.75,31.1c2.35,8.41,7.94,19.78,14.9,25.18,8.52,6.6,20.57,8.32,31.14,7.47,7.79-.62,14.35-5.58,19.9-10.8a50.14,50.14,0,0,0,11.1-16.46c-2,6.48-13.41,14.93-19.84,16.73-7.47,2.09-18.4,4.18-25.55.2-12.48-7-24.38-25.35-15.32-39.27,1.93-3,4.76-6,8-7.44,2.18-1,7.74-1.36,8-4.23-4.36-1.48-9.49.89-13.33-2.77-1.72-1.63-3-5.48-3.35-7.8C267.7,374.2,270,374,273.67,368.33Z" transform="translate(-60.79 2.5)"/></g><g class="cls-3"><path class="cls-4" d="M359.67,386.67c-4.3.06-10.59,3.22-11.17,7.85-.33,2.66.75,9.09,2.09,11.12,2-3.53,2.56-7.41,5.28-10.79,3.21-4,5.34-3.32,10.09-3.56C364.29,386.61,362.59,383.8,359.67,386.67Z" transform="translate(-60.79 2.5)"/></g><g class="cls-3"><path class="cls-4" d="M360.33,402.67c-2.91.29-6.34,5.53-7,8.35a16,16,0,0,0,1,8.82c1.31,2.8,4.78,4.71,7,7,2.44,2.46,3.76,5.82,6.19,8.2,4.57,4.46,10.14-.65,11.77-5.29-4.84,1.22-7,2.58-8.76-3.54-1.17-4.17.93-5.16,3.54-7.84,1.11-1.15,3.21-1,1.6-2.67-1.4-1.43-5.15.3-6.75.42-2.58.19-4.06-.07-5.6-2.48C362,411.52,359.72,407.17,360.33,402.67Z" transform="translate(-60.79 2.5)"/></g><g class="cls-3"><path class="cls-4" d="M359.67,358.33c-.76.31-6.6,4-6.82,4.65-.49,1.41,2.81,4.23,3.75,5.6,2.32,3.38,6.22,6.22,7.66,10a8,8,0,0,0-.28-1.18,30.47,30.47,0,0,0,2.79,7.56c.88,1.57,3.17,6.14,4.59,7.15,2.35,1.66,3.71-1.5,6.4,1.84,1.45,1.79,3,5.84,2.28,7.93,3.41,1.11,4.83,2.88,7.61,4.73,2.32,1.54,1.94,1.59,4.19-.58,1.35-1.3,3.83-4,4.12-5.72-3.86,1.79-7.87,1.35-10.92-1.69s-6.29-6-9.56-9c-2.79-2.59-5-5-4.83-8.95.13-2.92,2.57-6.66,2-9.33C366.92,372.31,363.62,363.75,359.67,358.33Z" transform="translate(-60.79 2.5)"/></g><g class="cls-3"><path class="cls-4" d="M341,454.67c-4.14,3.75-3.56,16.7-4.66,22.34-.85,4.35-3.51,10.22-3,14.61,4-.2,7.16.24,6.62,4.9-.45,3.82-5.52,4.61-4.63,8.09,2.95,1.11,6.66,1.29,7,5.23.39,5-5.31,1.2-8.28,1.55-1,2.37,5.49,3.72,6.64,4.42s1.78,1.62,3.23,2.23,3.23.49,4.56,1.5c2.28,1.73,1.85,4.47,4.18,6.17,2.35-2.21-.25-7,3-8.41,1.49,1.3.19,3.11,2.35,3.71,3.27.9,2.13-2.54,3.66-3.83,3.18-2.68,2.27,5.63,2.39,7.79,2.19-1.18,3.11-.88,5.36.12,1.51.67,6.09,2.23,6.62,3.59,1.42,3.68-6.64,8.48-8.25,11,2.05,1.28,10.43-3,12.74-4.34a10.33,10.33,0,0,0,4.82-6.82c1.65-7.43-5.83-10.9-12.25-11.55-3.49-.35-3.25.33-5.57-2-3.24-3.23-4.07-2.28-8.2-2.66-1.23-.11-6-.63-6.92-1.32-1.46-1.12-1.27-4.38-1.59-5.86-.75-3.48-2.39-6.71-3.1-10.21-1.46-7.27-1-14.8-2.22-22.12-.81-5.08-2.44-10.34-2.17-15.51" transform="translate(-60.79 2.5)"/></g><g class="cls-3"><path class="cls-4" d="M350.67,541c-3-.23-6.11.62-9,1.25-3.12.68-3.7.34-3.57,3.08.17,3.43,3.3,4.68,4.94,7.07,1.28,1.87,2.56,5.74,3.23,7.93,1.2,3.91,1.76,8.4-1.57,11.42-3.64,3.3-9.51,1.66-12.73,4.58,1.34,1.83,7.16,1.55,9.67,2.25,3.09.86,6.73,1.93,8.65,4.76,3,4.38,3.42,10.73,6.07,15.46,1.72,3.06,2.83,6,5.24,8.52,3.08,3.27,6.61,6.19,9.69,9.4,1.18-15.4-6.86-29-8.6-43.82-.71-6.11-1.3-12.15-1.6-18.31-.08-1.64.39-4.13-.59-5.22-1.18-1.31-5.14-1.94-6.81-3.7" transform="translate(-60.79 2.5)"/></g><g class="cls-3"><path class="cls-4" d="M384.67,530c.3,8.5-6.07,13.8-11.35,19.33-3.39,3.55-4.81,8.52-5,13.33-.25,7.06.67,13.93.67,20.93,0,5.53-.81,11.5-.34,16.93,1.65-11.38-.9-24.65-4.25-35.53-1.69-5.47-3.45-11.3-3.69-17,6.54,1.48,5.79-3.28,6-8,2.64-.59,5.35-.85,8-1.37,3.17-.61,6.32-2.67,9.27-3" transform="translate(-60.79 2.5)"/></g><g class="cls-3"><path class="cls-4" d="M435.35,507.66c-4.24,1.67-9.4-.44-13.87-.81-3.78-.31-7.49-1-11.29-1.06-1.72,0-6.63-1.22-8.09-.41-3.43,1.92,3.15,5.19,5.13,6.06a124.84,124.84,0,0,0,16,6.13c10.08,2.86,22.82,1.09,32.08-3.58,7.21-3.64,10.57-8.8,15.72-14.36-5.8,2.45-10.79,5.86-17.25,6.83A116.77,116.77,0,0,1,435.35,507.66Z" transform="translate(-60.79 2.5)"/></g><g class="cls-3"><path class="cls-4" d="M435,527c-2.45,0-4.91,0-7.33,0-4.11,0-3.83,1.13-.38,2.87,5.4,2.72,21.11,6.84,22.34-3.47-3.72-.21-7.54-.06-11.29-.06" transform="translate(-60.79 2.5)"/></g><g class="cls-13"><path class="cls-8" d="M403.49,349.46c-1.42-2-4.26-1.57-6.78-1.52a3.17,3.17,0,0,0-.93,1.51c-2.56,3,4.57,9.28,6.21,12.51,2.07,4.1.56,13.79,3.3,16.77,6.24,6.81,5.75-10.13,5.15-13.27C409.27,359.45,406.45,355.81,403.49,349.46Z" transform="translate(-60.79 2.5)"/></g><g class="cls-13"><path class="cls-8" d="M322,374c-1.2-3.64-13.68-1.56-7.75,5.24,2.13,2.44,6.18,3.72,8.74,5.76a26,26,0,0,1,7.41,8.5c2,4,2.86,14.65,6.09,17,4.07,3,5.05-1,5.51-4.24.83-5.84-1.21-10.45-3.71-15.46C334.78,383.79,330.24,379.88,322,374Z" transform="translate(-60.79 2.5)"/></g></g><g id="DETAILS"><path class="cls-2" d="M391.56,572.73a1,1,0,0,1-.25-2l33.32-8.69a1,1,0,0,1,.5,1.94l-33.32,8.69A1,1,0,0,1,391.56,572.73Z" transform="translate(-60.79 2.5)"/><path class="cls-2" d="M398.8,603.88a1,1,0,0,1-.93-.63c-4.16-10.56-5.82-20.87-7.3-31.38a1,1,0,1,1,2-.28c1.46,10.39,3.1,20.57,7.18,30.93a1,1,0,0,1-.93,1.37Z" transform="translate(-60.79 2.5)"/><path class="cls-2" d="M398.8,603.88a1,1,0,0,1-.24-2c11.3-2.76,24.26-5.85,34.69-7.87a1,1,0,1,1,.38,2c-10.39,2-23.32,5.09-34.6,7.85A1,1,0,0,1,398.8,603.88Z" transform="translate(-60.79 2.5)"/><path class="cls-2" d="M433.44,596a1,1,0,0,1-.92-.61c-2.65-6.23-4.23-13.44-5.76-20.4-.92-4.17-1.78-8.11-2.84-11.69a1,1,0,0,1,1.92-.57c1.08,3.65,2,7.62,2.87,11.83,1.51,6.88,3.07,14,5.65,20a1,1,0,0,1-.92,1.39Z" transform="translate(-60.79 2.5)"/><path class="cls-2" d="M430.55,564.05a1,1,0,0,1-.25-2l33.32-8.69a1,1,0,0,1,.5,1.94L430.8,564A1,1,0,0,1,430.55,564.05Z" transform="translate(-60.79 2.5)"/><path class="cls-2" d="M437.79,595.21a1,1,0,0,1-.93-.63c-4.16-10.56-5.82-20.87-7.3-31.38a1,1,0,1,1,2-.28c1.46,10.39,3.11,20.57,7.18,30.93a1,1,0,0,1-.93,1.37Z" transform="translate(-60.79 2.5)"/><path class="cls-2" d="M437.79,595.21a1,1,0,0,1-.24-2c11.3-2.76,24.26-5.85,34.69-7.87a1,1,0,1,1,.38,2c-10.39,2-23.32,5.09-34.6,7.85A1,1,0,0,1,437.79,595.21Z" transform="translate(-60.79 2.5)"/><path class="cls-2" d="M472.43,587.35a1,1,0,0,1-.92-.61c-2.65-6.23-4.24-13.44-5.76-20.4-.92-4.17-1.78-8.11-2.84-11.69a1,1,0,0,1,1.92-.57c1.08,3.65,1.95,7.62,2.87,11.83,1.51,6.88,3.07,14,5.65,20a1,1,0,0,1-.92,1.39Z" transform="translate(-60.79 2.5)"/><path class="cls-2" d="M469.54,555.13a1,1,0,0,1-.25-2l33.32-8.69a1,1,0,1,1,.5,1.94l-33.32,8.69A1,1,0,0,1,469.54,555.13Z" transform="translate(-60.79 2.5)"/><path class="cls-2" d="M476.78,586.28a1,1,0,0,1-.93-.63c-4.16-10.56-5.82-20.87-7.3-31.38a1,1,0,1,1,2-.28c1.46,10.39,3.11,20.57,7.18,30.93a1,1,0,0,1-.93,1.37Z" transform="translate(-60.79 2.5)"/><path class="cls-2" d="M476.78,586.28a1,1,0,0,1-.24-2c11.31-2.76,24.27-5.86,34.69-7.87a1,1,0,0,1,.38,2c-10.38,2-23.31,5.09-34.6,7.85A1,1,0,0,1,476.78,586.28Z" transform="translate(-60.79 2.5)"/><path class="cls-2" d="M511.42,578.43a1,1,0,0,1-.92-.61c-2.65-6.23-4.23-13.44-5.76-20.4-.92-4.17-1.78-8.11-2.84-11.69a1,1,0,1,1,1.92-.57c1.08,3.65,1.95,7.62,2.87,11.83,1.51,6.88,3.07,14,5.65,20a1,1,0,0,1-.92,1.39Z" transform="translate(-60.79 2.5)"/><path class="cls-2" d="M411,594.15a1,1,0,0,1-1-.75,147.58,147.58,0,0,1-3-14.59,1,1,0,0,1,2-.3,146,146,0,0,0,2.94,14.39,1,1,0,0,1-1,1.25Z" transform="translate(-60.79 2.5)"/><path class="cls-2" d="M404.8,579.33a.31.31,0,0,0,0,.19c0,.18.32.13.49,0a15.4,15.4,0,0,1,5.9-1.86,13.93,13.93,0,0,1-2.23-2.31c-.38-.46-1.53-2.3-2.17-2.28-.82,0-.82,2.22-.95,2.8A23.77,23.77,0,0,1,404.8,579.33Z" transform="translate(-60.79 2.5)"/><path class="cls-2" d="M417.37,592.77a1,1,0,0,1-1-.75,147.58,147.58,0,0,1-3-14.59,1,1,0,0,1,2-.3,146,146,0,0,0,2.94,14.39,1,1,0,0,1-1,1.25Z" transform="translate(-60.79 2.5)"/><path class="cls-2" d="M411.2,578a.31.31,0,0,0,0,.19c0,.18.32.13.49,0a15.4,15.4,0,0,1,5.9-1.86,13.93,13.93,0,0,1-2.23-2.31c-.38-.46-1.53-2.3-2.17-2.28-.82,0-.82,2.22-.95,2.8A23.77,23.77,0,0,1,411.2,578Z" transform="translate(-60.79 2.5)"/><path class="cls-2" d="M408.18,597.66a1,1,0,0,1-.14-2,113.17,113.17,0,0,0,12.62-2.59,1,1,0,0,1,.51,1.93,115.38,115.38,0,0,1-12.84,2.63Z" transform="translate(-60.79 2.5)"/><path class="cls-2" d="M455.14,587.53l-.29,0a3,3,0,0,1-2.33-2.1,16.6,16.6,0,0,1-.68-2l-2.24-7.76a1,1,0,1,1,1.92-.55l2.24,7.76a14.83,14.83,0,0,0,.59,1.77c.22.52.52.88.75.91a.8.8,0,0,0,.62-.44,4.3,4.3,0,0,0,.38-1.52,1,1,0,0,1,2,.26,6,6,0,0,1-.64,2.26A2.74,2.74,0,0,1,455.14,587.53Z" transform="translate(-60.79 2.5)"/><path class="cls-2" d="M443.83,577.65a1.81,1.81,0,0,1-1.5-.64c-.86-1.07,0-2.7.28-3.23a9.06,9.06,0,0,1,5.24-4.79,13.43,13.43,0,0,1,5.21-.59,7.57,7.57,0,0,1,4.56,1.92c.75.55,2.14,1.58,2.24,3.18a1,1,0,0,1-.77,1c-3.13.75-6.31,1.44-9.45,2.06-.59.12-1.19.21-1.79.31a28,28,0,0,0-2.87.56A4.39,4.39,0,0,1,443.83,577.65Zm8.13-7.28a10.64,10.64,0,0,0-3.46.52,7.11,7.11,0,0,0-4.12,3.83,4.21,4.21,0,0,0-.38.92,3.18,3.18,0,0,0,.45-.09,29.36,29.36,0,0,1,3.08-.61c.58-.09,1.15-.18,1.72-.3,2.74-.54,5.51-1.14,8.25-1.78a6.36,6.36,0,0,0-1.07-.93,5.68,5.68,0,0,0-3.49-1.53Z" transform="translate(-60.79 2.5)"/><path class="cls-2" d="M449.68,569.86a1,1,0,0,1-.95-.68l-.65-1.95a1,1,0,1,1,1.89-.64l.66,2a1,1,0,0,1-.95,1.32Z" transform="translate(-60.79 2.5)"/><path class="cls-2" d="M487.63,569.34a7.54,7.54,0,0,1-2.89-.62,4.08,4.08,0,0,1-1.66-1.15,4.62,4.62,0,0,1-.81-2l-1.89-9.07a1,1,0,0,1,2-.41l1.89,9.07a3,3,0,0,0,.41,1.2,2.27,2.27,0,0,0,.87.55,5.12,5.12,0,0,0,2.67.42,2.93,2.93,0,0,0,2-1.2c.79-1.21.35-3-.12-4.65L488.21,555a1,1,0,0,1,1.92-.56l1.89,6.42c.6,2,1.14,4.39-.12,6.31a4.88,4.88,0,0,1-3.42,2.08A5.85,5.85,0,0,1,487.63,569.34Z" transform="translate(-60.79 2.5)"/><path class="cls-2" d="M481.41,557a1,1,0,0,1-.38-1.93,10,10,0,0,1,2.29-.55l5.71-.89a1,1,0,1,1,.31,2l-5.71.89a8.28,8.28,0,0,0-1.84.43A1,1,0,0,1,481.41,557Z" transform="translate(-60.79 2.5)"/><path class="cls-2" d="M490.11,579a1,1,0,0,1-1-.73c-.84-3-1.53-6.16-2.07-9.27a1,1,0,0,1,2-.34c.53,3,1.21,6.1,2,9.07a1,1,0,0,1-1,1.27Z" transform="translate(-60.79 2.5)"/><path class="cls-2" d="M486.73,580.72a1,1,0,0,1-.4-1.92,11.07,11.07,0,0,1,2.91-.69l.95-.14a13.12,13.12,0,0,0,2.83-.84,1,1,0,1,1,.78,1.84,15.09,15.09,0,0,1-3.26,1l-1,.16a9.4,9.4,0,0,0-2.39.54A1,1,0,0,1,486.73,580.72Z" transform="translate(-60.79 2.5)"/><path class="cls-2" d="M539.23,438.62h-.05a1,1,0,0,1-.92-.76,100.06,100.06,0,0,1-2.75-19.47,1,1,0,1,1,2-.08,98.07,98.07,0,0,0,2.08,16.38q.29-.45.62-.87a1,1,0,0,1,1.55,0,3,3,0,0,0,1.45,1.13.67.67,0,0,0,.6-.23,1,1,0,0,1,1.91-.48.66.66,0,0,0,.78.29,2.38,2.38,0,0,0,.25-.15,2.75,2.75,0,0,1,1-.43,2.79,2.79,0,0,1,1.72.3l.35.14h.05a1,1,0,0,1,1.57-.38,4,4,0,0,0,1.15.68c-1.13-6.06-2.51-12.14-4.09-18.09a1,1,0,1,1,1.93-.51c1.72,6.47,3.2,13.1,4.39,19.69a1,1,0,0,1-.23.83.94.94,0,0,1-.79.34,6.06,6.06,0,0,1-2.82-.83,2.28,2.28,0,0,1-1.79.15c-.17-.06-.34-.13-.52-.2a2,2,0,0,0-.52-.18,1.72,1.72,0,0,0-.28.16,4.4,4.4,0,0,1-.47.27,2.6,2.6,0,0,1-2,.06l-.29-.12,0,0a2.66,2.66,0,0,1-2.24.61,3.67,3.67,0,0,1-1.69-.87,10.64,10.64,0,0,0-.95,2A1,1,0,0,1,539.23,438.62Z" transform="translate(-60.79 2.5)"/><path class="cls-2" d="M413.45,463.26a1,1,0,0,1-.8-.4c-1.36-1.8-1.36-4.11-1.36-6.14v-.54a34.58,34.58,0,0,0-3.39-14.73,1,1,0,1,1,1.8-.87,36.62,36.62,0,0,1,3.59,15.59v.55a13.41,13.41,0,0,0,.31,3.6l.66-.92a1,1,0,0,1,1.67.06.37.37,0,0,0,.31.11.38.38,0,0,0,.31-.12l.07-.15a2.15,2.15,0,0,1,.55-.8c1.06-.91,2.17-.05,2.7.36a3.14,3.14,0,0,0,.62.41.21.21,0,0,0,.19,0,3,3,0,0,0,1-1.69,1,1,0,0,1,1.81-.24,2,2,0,0,0,3.34-.39,1,1,0,0,1,1.69-.34,3.62,3.62,0,0,0,2.06,1.31.43.43,0,0,0,.31-.13,2.09,2.09,0,0,0,.27-.51,4.56,4.56,0,0,1,.43-.81,2.72,2.72,0,0,1,2.6-1.06,3,3,0,0,1,1.39.55l.45-.45a1,1,0,0,1,1.59.25.43.43,0,0,0,.78-.35,1,1,0,0,1,1.77-.91,2.4,2.4,0,0,0,.38.45l-1.72-21.17a1,1,0,0,1,2-.16l1.86,22.86a1,1,0,0,1-1.15,1.07A4.46,4.46,0,0,1,440,457a2.36,2.36,0,0,1-.95.8,2.48,2.48,0,0,1-2.26-.15l-.54.54a1,1,0,0,1-1.64-.35.78.78,0,0,0-.64-.4.79.79,0,0,0-.72.23,3,3,0,0,0-.23.46,3.62,3.62,0,0,1-.64,1.07,2.39,2.39,0,0,1-1.79.77,4.43,4.43,0,0,1-2.59-1.09,4,4,0,0,1-2.48,1.18,4.09,4.09,0,0,1-2.49-.47,3.7,3.7,0,0,1-1.47,1.51,2.18,2.18,0,0,1-1.77.1,4.43,4.43,0,0,1-1.15-.7l-.26-.2-.09.18a2.34,2.34,0,0,1-2,1.14,2.22,2.22,0,0,1-1-.18l-1,1.45a1,1,0,0,1-.8.42Z" transform="translate(-60.79 2.5)"/><path class="cls-2" d="M568,334.05a2,2,0,0,1-1.63-.84q-.62-.86-1.14-1.78a2.62,2.62,0,0,1-1.57.53,3.26,3.26,0,0,1-2.43-1.15l-.8-.81a3.77,3.77,0,0,1-4.27.95,4,4,0,0,1-1.4-1.09l-.28.46a2.83,2.83,0,0,1-4.34.92l-1.78-1.15a13.94,13.94,0,0,1-1.61,1.75,2,2,0,0,1-3.34-1.73,114.37,114.37,0,0,0,.86-19.86c0-.71-.07-1.42-.11-2.13a46.28,46.28,0,0,1,.41-11.9,2,2,0,0,1,3.92.81,42.57,42.57,0,0,0-.33,10.87c0,.72.08,1.45.11,2.17a118.36,118.36,0,0,1-.32,15.26,2,2,0,0,1,.92.31l2.7,1.75,1.05-1.76a2,2,0,0,1,1.89-1,4,4,0,0,1,3,2.11l.21.31a4.35,4.35,0,0,0,.77-1.08,2,2,0,0,1,3.2-.48l1.59,1.62a2.92,2.92,0,0,1,2.11-1.48,2,2,0,0,1,1.14.17c.08-3.24-.09-6.52-.25-9.73-.35-7-.71-14.15,1.29-21.07a2,2,0,1,1,3.84,1.11c-1.81,6.28-1.48,12.83-1.13,19.77.27,5.39.55,11-.26,16.43a2,2,0,0,1-2,1.71Z" transform="translate(-60.79 2.5)"/><path class="cls-2" d="M723.53,328.85a2,2,0,0,1-1.7-.94h0a3.37,3.37,0,0,1-1.62.17,3.55,3.55,0,0,1-1.3-.46,2,2,0,0,1-1.19.4,2,2,0,0,1-1.59-.77,4.51,4.51,0,0,0-1.65-1.3,8.46,8.46,0,0,1-2.29,2.39,2,2,0,0,1-3.14-1.52,48.11,48.11,0,0,1,.34-7.82c.06-.61.12-1.22.17-1.83a90.75,90.75,0,0,0-.81-22.43,2,2,0,0,1,3.95-.64,94.8,94.8,0,0,1,.84,23.42c-.06.62-.12,1.25-.18,1.87s-.15,1.48-.21,2.21a2,2,0,0,1,.52,0,8.49,8.49,0,0,1,3.76,1.46,3.43,3.43,0,0,0,4.1-.29h0c.07-9.84.45-19.76,1.14-29.55a2,2,0,0,1,4,.28c-.78,11.06-1.17,22.29-1.15,33.37a2,2,0,0,1-2,2Z" transform="translate(-60.79 2.5)"/><path class="cls-2" d="M637.16,177a2,2,0,0,1-2-2.4,143.33,143.33,0,0,0,2.81-24,2,2,0,0,1,4,.13,147.05,147.05,0,0,1-1.22,14.67,2.79,2.79,0,0,1,2.14,1.26l1.59,2.13a3.5,3.5,0,0,1,.5-.66,3.06,3.06,0,0,1,4.17-.17l.15-.26a2,2,0,0,1,1.79-1,2,2,0,0,1,1.73,1.1q.29.58.56,1.17l1.26-1.74a2.6,2.6,0,0,1,2.63-1.2,63.58,63.58,0,0,0,2.49-16.74,2,2,0,0,1,2-2h0a2,2,0,0,1,2,2,67.58,67.58,0,0,1-4,22,2,2,0,0,1-2,1.32,2,2,0,0,1-1.54-.82l-1.84,2.54a3.31,3.31,0,0,0-4.89.84,2,2,0,0,1-1.91-.57l-.1-.11a3.58,3.58,0,0,1-.21.34,2,2,0,0,1-1.61.85,2.09,2.09,0,0,1-1.63-.81l-3-4.05L639,175.74A2,2,0,0,1,637.16,177Z" transform="translate(-60.79 2.5)"/><path class="cls-2" d="M578.34,48.08a2,2,0,0,1-1-.25,5.11,5.11,0,0,1-2.11-2.27,3,3,0,0,1-1.94-.21,3.58,3.58,0,0,1-1.52-1.43,2,2,0,0,1-3.17-.08L568,43a18.65,18.65,0,0,0-.65,2.92,2,2,0,0,1-4-.28q0-18.63,0-37.26a2,2,0,0,1,2-2h0a2,2,0,0,1,2,2q0,14.29,0,28.57h0a2,2,0,0,1,1.76.82l.71,1q.19-.25.41-.48a2,2,0,0,1,3.22.4l1,1.85a2,2,0,0,1,1.76-1.37c-.05-9.67.38-19.39,1.28-29a2,2,0,1,1,4,.38A288.91,288.91,0,0,0,580.34,46a2,2,0,0,1-2,2.06Z" transform="translate(-60.79 2.5)"/><path class="cls-2" d="M341.35,72.24a2,2,0,0,1-2-2.07c.46-12.23,1.44-24.6,2.91-36.75a2,2,0,1,1,4,.48c-1,8.09-1.74,16.27-2.27,24.44a2,2,0,0,1,2.25-.33,11,11,0,0,1,2.36,1.58l.3-.64a2,2,0,0,1,3.7.19l.48,1.37a3.47,3.47,0,0,1,2.3-1.8,2,2,0,0,1,1.66.4l.16.15.08-.15a2,2,0,0,1,2.43-.89q.18-.64.32-1.28a2,2,0,0,1,3.93.11q0,.25.09.51a2,2,0,0,1,2-1.12l2.38-24.32a2,2,0,0,1,4,.39l-3.12,31.83a2,2,0,0,1-3.57,1,8.93,8.93,0,0,1-.56-.81,2,2,0,0,1-3-.59l-.26-.48q-.31.63-.65,1.25a9.33,9.33,0,0,0-4.17,1,2,2,0,0,1-1.71-.68l-.2-.24a3.67,3.67,0,0,1-1.7,1.06,2.83,2.83,0,0,1-2.46-.47,2.94,2.94,0,0,1-.64-.68,2,2,0,0,1-3.08-.44,6.92,6.92,0,0,0-.75-1,31,31,0,0,1-3.55,8A2,2,0,0,1,341.35,72.24Z" transform="translate(-60.79 2.5)"/><path class="cls-2" d="M250.94,60a2,2,0,0,1-2-1.71L246.6,42.31a2,2,0,1,1,4-.58L252,51.65a2,2,0,0,1,1.31.75l.35.44a2,2,0,0,1,2.52.09,3.33,3.33,0,0,1,.47.5,2.46,2.46,0,0,1,.74-.33,2,2,0,0,1,1,0,2,2,0,0,1,1.21-.66c.05-4.25.07-8.52,0-12.75a2,2,0,0,1,2-2,2,2,0,0,1,2,2c0,5.9,0,11.88-.12,17.78a2,2,0,0,1-3,1.67,5.14,5.14,0,0,1-.61-.43,2,2,0,0,1-2.39-.14,2.66,2.66,0,0,1-1.36.08A3.1,3.1,0,0,1,255,58.1a2,2,0,0,1-1.1.3,2,2,0,0,1-1-.27,2,2,0,0,1-1.82,1.81Z" transform="translate(-60.79 2.5)"/><path class="cls-2" d="M340.36,215.29h-.1a2,2,0,0,1-1.83-1.51c0-.09-.06-.22-.1-.37a2,2,0,0,1-2.54-.55,5.77,5.77,0,0,1-.38-.57,1.5,1.5,0,0,0-2,.7,2.42,2.42,0,0,1-2.31-1.24,3.3,3.3,0,0,1-.73.66,3.23,3.23,0,0,1-2.57.42,3.9,3.9,0,0,1-1.72-.94L326,212a7.25,7.25,0,0,0-3.9.33,2,2,0,0,1-1.52-.63q-.69-.73-1.3-1.52l-.78,1.1a2,2,0,0,1-3.63-1,286.61,286.61,0,0,1-.45-32.05,2,2,0,0,1,2.08-1.91,2,2,0,0,1,1.91,2.08c-.37,8.76-.33,17.62.13,26.4a2,2,0,0,1,2.54.87q.33.6.71,1.16a13.67,13.67,0,0,0,5.52-1.38,2,2,0,0,1,1.48,2v.13a3.09,3.09,0,0,1,3.68-1.4,2.81,2.81,0,0,1,.86.51l.5-1a2,2,0,0,1,3.78.82l0,.35a2,2,0,0,1,1,2,3.47,3.47,0,0,1,.74.11,50.87,50.87,0,0,0,.36-7.37v-.84a208.41,208.41,0,0,1,1.46-24.08,2,2,0,1,1,4,.47,204.43,204.43,0,0,0-1.43,23.61v.84c0,4.07,0,8.28-1.47,12.29A2,2,0,0,1,340.36,215.29Z" transform="translate(-60.79 2.5)"/><path class="cls-2" d="M388.18,290.76a2.88,2.88,0,0,1-2.64-1.93,2,2,0,0,1-2.78-.7l-.18.21a2,2,0,0,1-3.18-.19q-.27-.4-.56-.78a16.48,16.48,0,0,0-.57,1.72,2,2,0,0,1-3.93-.47l-1-34.89a2,2,0,1,1,4-.12l.84,28.28a2,2,0,0,1,1.56.52q.68.62,1.29,1.31.2-.34.38-.69A2,2,0,0,1,383.1,282a2,2,0,0,1,1.77,1l.06.11a2,2,0,0,1,3.53.81l.19.87.92-1.57a2,2,0,0,1,3.72.89q0,.2,0,.39l.06,0c1.1-7.19,2-14.54,1.41-21.78,0-.57-.1-1.13-.16-1.7a28.16,28.16,0,0,1,0-7.76,2,2,0,1,1,3.94.7,24.78,24.78,0,0,0,.07,6.67c.06.59.12,1.18.16,1.76.73,8.92-.66,17.76-2,26.32a4,4,0,0,1-6.32.89,2.86,2.86,0,0,1-1.82,1.19A2.66,2.66,0,0,1,388.18,290.76Z" transform="translate(-60.79 2.5)"/><path class="cls-2" d="M176,215.44a2,2,0,0,1-1.12-.34,8,8,0,0,1-1.65-1.5l-.06.07a2,2,0,0,1-3,.23q-.18-.17-.35-.36a2,2,0,0,1-2.12-.32q-.42-.37-.82-.77l0,.15a2,2,0,0,1-3.94-.14,198.32,198.32,0,0,1-1.3-35.58,2,2,0,1,1,4,.21,194.37,194.37,0,0,0,.65,29.33h.13a2,2,0,0,1,1.72,1,10,10,0,0,0,.56.9l.19-.32a2,2,0,0,1,3.55.21,2,2,0,0,1,2.92.93,2,2,0,0,1,.22-.25,104.51,104.51,0,0,0-.31-12.64c-.42-6.48-.85-13.19.58-19.75a2,2,0,1,1,3.91.85c-1.31,6-.92,12.15-.5,18.64a89.68,89.68,0,0,1,.08,15.77,2,2,0,0,1-1.27,1.64l-.2.61a2,2,0,0,1-1.9,1.38Z" transform="translate(-60.79 2.5)"/><path class="cls-2" d="M105.57,354.11a2,2,0,0,1-2-2.32,82.63,82.63,0,0,0,.84-19.26c-.09-1.22-.21-2.43-.32-3.65a61.71,61.71,0,0,1-.39-10.8,2,2,0,1,1,4,.32,57.8,57.8,0,0,0,.39,10.1c.12,1.25.24,2.49.33,3.74a86.64,86.64,0,0,1,0,13.21l.17.05a2,2,0,0,1,1.25,1.26,2,2,0,0,1,3.41-.55,2,2,0,0,1,2.72-.39c-.92-8.6.7-17.35,2.13-25.16a2,2,0,0,1,3.93.72c-1.59,8.64-3.24,17.58-1.78,26.27.41,2.42-.13,4.09-1.6,4.95a2,2,0,0,1-2.71-.67,2,2,0,0,1-1.35-.21,2,2,0,0,1-2.37-.24l-.42-.4a3.82,3.82,0,0,1-2.09.58,3.71,3.71,0,0,1-1.5-.36l-.84,1.69A2,2,0,0,1,105.57,354.11Z" transform="translate(-60.79 2.5)"/><path class="cls-2" d="M312.16,134.92a.81.81,0,0,1,0-1.62L340,133a.83.83,0,0,1,.82.8.81.81,0,0,1-.8.82l-27.89.27Z" transform="translate(-60.79 2.5)"/><path class="cls-2" d="M311.72,160.82a.81.81,0,0,1-.8-.71c-1.19-9.12-.47-17.55.44-26.09a.81.81,0,0,1,1.61.17c-.9,8.45-1.61,16.77-.44,25.71a.81.81,0,0,1-.7.91Z" transform="translate(-60.79 2.5)"/><path class="cls-2" d="M340.48,161.46h0c-8.56-.47-19.33-.59-28.72-.64a.81.81,0,0,1,0-1.62h0c9.42.05,20.21.17,28.8.64a.81.81,0,0,1,0,1.62Z" transform="translate(-60.79 2.5)"/><path class="cls-2" d="M340.48,161.46a.81.81,0,0,1-.8-.68c-.86-5.42-.68-11.39-.52-17.16.1-3.46.2-6.72.07-9.75a.81.81,0,0,1,1.62-.07c.13,3.08,0,6.37-.07,9.86-.17,5.7-.34,11.59.5,16.86a.81.81,0,0,1-.67.93Z" transform="translate(-60.79 2.5)"/><path class="cls-2" d="M344.5,135.77a.81.81,0,0,1,0-1.62l27.89-.27a.81.81,0,1,1,0,1.62l-27.89.27Z" transform="translate(-60.79 2.5)"/><path class="cls-2" d="M344.06,161.67a.81.81,0,0,1-.8-.71c-1.19-9.12-.47-17.54.44-26.09a.81.81,0,0,1,1.61.17c-.9,8.45-1.61,16.77-.44,25.71a.81.81,0,0,1-.7.91Z" transform="translate(-60.79 2.5)"/><path class="cls-2" d="M372.82,162.31h0c-8.55-.47-19.32-.58-28.72-.64a.81.81,0,0,1-.81-.81.8.8,0,0,1,.81-.81c9.42.05,20.21.17,28.8.64a.81.81,0,0,1,0,1.62Z" transform="translate(-60.79 2.5)"/><path class="cls-2" d="M372.82,162.31a.81.81,0,0,1-.8-.68c-.86-5.42-.68-11.39-.52-17.16.1-3.46.2-6.72.07-9.74a.81.81,0,0,1,.78-.84.8.8,0,0,1,.84.78c.13,3.08,0,6.37-.07,9.86-.17,5.7-.34,11.59.5,16.86a.81.81,0,0,1-.67.93Z" transform="translate(-60.79 2.5)"/><path class="cls-2" d="M376.88,136.43a.81.81,0,0,1,0-1.62l27.89-.27h0a.81.81,0,0,1,0,1.62l-27.89.27Z" transform="translate(-60.79 2.5)"/><path class="cls-2" d="M376.44,162.33a.81.81,0,0,1-.8-.71c-1.19-9.12-.47-17.55.44-26.09a.81.81,0,1,1,1.61.17c-.9,8.45-1.61,16.77-.44,25.71a.81.81,0,0,1-.7.91Z" transform="translate(-60.79 2.5)"/><path class="cls-2" d="M405.21,163h0c-8.57-.47-19.33-.59-28.72-.64a.81.81,0,0,1,0-1.62h0c9.41.05,20.2.17,28.8.64a.81.81,0,0,1,0,1.62Z" transform="translate(-60.79 2.5)"/><path class="cls-2" d="M405.21,163a.81.81,0,0,1-.8-.68c-.86-5.42-.68-11.39-.52-17.16.1-3.46.2-6.72.07-9.74a.81.81,0,0,1,.78-.84.84.84,0,0,1,.84.78c.13,3.08,0,6.37-.07,9.86-.17,5.7-.34,11.59.5,16.86a.81.81,0,0,1-.67.93Z" transform="translate(-60.79 2.5)"/><path class="cls-2" d="M323.19,155.57a.81.81,0,0,1-.81-.8,119.45,119.45,0,0,1,.53-12,.81.81,0,1,1,1.61.15,117.78,117.78,0,0,0-.52,11.88.81.81,0,0,1-.8.82Z" transform="translate(-60.79 2.5)"/><path class="cls-2" d="M321.06,142.69a.25.25,0,0,0-.06.14c0,.15.23.16.38.12a12.47,12.47,0,0,1,5-.3,11.28,11.28,0,0,1-1.29-2.25c-.21-.43-.75-2.1-1.26-2.22s-1.08,1.58-1.29,2A19.26,19.26,0,0,1,321.06,142.69Z" transform="translate(-60.79 2.5)"/><path class="cls-2" d="M328.49,155.74a.81.81,0,0,1-.81-.8,119.74,119.74,0,0,1,.53-12,.81.81,0,1,1,1.61.15,118.08,118.08,0,0,0-.52,11.89.81.81,0,0,1-.8.82Z" transform="translate(-60.79 2.5)"/><path class="cls-2" d="M326.36,142.86a.25.25,0,0,0-.06.14c0,.15.23.16.38.12a12.47,12.47,0,0,1,5-.3,11.28,11.28,0,0,1-1.29-2.25c-.21-.43-.75-2.1-1.26-2.22s-1.08,1.58-1.29,2A19.26,19.26,0,0,1,326.36,142.86Z" transform="translate(-60.79 2.5)"/><path class="cls-2" d="M359.46,159.08a1.87,1.87,0,0,1-.68-.13,2.44,2.44,0,0,1-1.42-2.11,13.4,13.4,0,0,1-.14-1.71L357,148.6a.81.81,0,1,1,1.62-.06l.24,6.54a12,12,0,0,0,.12,1.51c.07.45.23.79.41.86a.65.65,0,0,0,.57-.23,3.52,3.52,0,0,0,.6-1.12.81.81,0,1,1,1.5.6,4.84,4.84,0,0,1-.94,1.65A2.32,2.32,0,0,1,359.46,159.08Z" transform="translate(-60.79 2.5)"/><path class="cls-2" d="M364.67,149.6h0c-2.6,0-5.24-.11-7.83-.24-.48,0-1-.07-1.46-.11a22.82,22.82,0,0,0-2.37-.12c-1,0-1.7-.28-2-.89-.46-1,.53-2.12.86-2.48a7.33,7.33,0,0,1,5.06-2.73,10.84,10.84,0,0,1,4.21.56,6.13,6.13,0,0,1,3.2,2.4,3.77,3.77,0,0,1,1.13,2.94A.81.81,0,0,1,364.67,149.6Zm-11.45-2.09c.77,0,1.54.07,2.28.13.47,0,.94.08,1.4.1,2.26.11,4.56.19,6.83.22a5.18,5.18,0,0,0-.66-.94,4.6,4.6,0,0,0-2.44-1.89,9.3,9.3,0,0,0-3.58-.49,5.76,5.76,0,0,0-4,2.2,3.41,3.41,0,0,0-.48.65,2.61,2.61,0,0,0,.37,0Z" transform="translate(-60.79 2.5)"/><path class="cls-2" d="M358.38,144.1a.81.81,0,0,1-.81-.75l-.13-1.66a.81.81,0,0,1,1.61-.13l.13,1.66a.81.81,0,0,1-.74.87Z" transform="translate(-60.79 2.5)"/><path class="cls-2" d="M389.22,151.27l-.45,0a5.75,5.75,0,0,1-2.82-1.17,3.27,3.27,0,0,1-1.08-1.23,3.75,3.75,0,0,1-.23-1.76l.3-7.5a.82.82,0,0,1,.84-.78.81.81,0,0,1,.78.84l-.3,7.49a2.47,2.47,0,0,0,.09,1,1.72,1.72,0,0,0,.57.6,4.14,4.14,0,0,0,2,.86,2.37,2.37,0,0,0,1.83-.54c.86-.8.88-2.32.82-3.68l-.22-5.41a.81.81,0,1,1,1.62-.07l.22,5.41c.07,1.72,0,3.67-1.34,4.94A3.88,3.88,0,0,1,389.22,151.27Z" transform="translate(-60.79 2.5)"/><path class="cls-2" d="M392.22,140.66h-.07l-4.66-.42a6.73,6.73,0,0,0-1.53,0,.81.81,0,0,1-.23-1.6,8.12,8.12,0,0,1,1.91,0l4.66.42a.81.81,0,0,1-.07,1.62Z" transform="translate(-60.79 2.5)"/><path class="cls-2" d="M388.35,159.23a.81.81,0,0,1-.81-.79c-.06-2.56,0-5.14.2-7.69a.81.81,0,0,1,1.62.12c-.19,2.49-.25,5-.19,7.53a.81.81,0,0,1-.79.83Z" transform="translate(-60.79 2.5)"/><path class="cls-2" d="M389.16,160.06q-.43,0-.86,0l-.83-.08a7.63,7.63,0,0,0-2,0,.81.81,0,0,1-.26-1.6,8.9,8.9,0,0,1,2.41,0l.78.07a10.65,10.65,0,0,0,2.38-.1.81.81,0,0,1,.25,1.6A12.24,12.24,0,0,1,389.16,160.06Z" transform="translate(-60.79 2.5)"/><path class="cls-2" d="M436.16,110.93a.81.81,0,0,1,0-1.62L464,109a.85.85,0,0,1,.82.8.81.81,0,0,1-.8.82l-27.89.27Z" transform="translate(-60.79 2.5)"/><path class="cls-2" d="M435.72,136.83a.81.81,0,0,1-.8-.71c-1.19-9.11-.47-17.54.44-26.09a.8.8,0,0,1,.89-.72.81.81,0,0,1,.72.89c-.9,8.45-1.61,16.77-.44,25.71a.81.81,0,0,1-.7.91Z" transform="translate(-60.79 2.5)"/><path class="cls-2" d="M464.49,137.47h0c-8.55-.47-19.32-.58-28.73-.64a.81.81,0,0,1,0-1.62h0c9.42.05,20.21.17,28.8.64a.81.81,0,0,1,0,1.62Z" transform="translate(-60.79 2.5)"/><path class="cls-2" d="M464.48,137.47a.81.81,0,0,1-.8-.68c-.86-5.42-.68-11.39-.52-17.16.1-3.46.2-6.72.07-9.75A.81.81,0,0,1,464,109a.84.84,0,0,1,.84.78c.13,3.08,0,6.38-.07,9.86-.17,5.7-.34,11.59.5,16.86a.81.81,0,0,1-.67.93Z" transform="translate(-60.79 2.5)"/><path class="cls-2" d="M468.5,111.78a.81.81,0,0,1,0-1.62l27.89-.27h0a.81.81,0,0,1,0,1.62l-27.89.27Z" transform="translate(-60.79 2.5)"/><path class="cls-2" d="M468.06,137.69a.81.81,0,0,1-.8-.71c-1.19-9.12-.47-17.54.44-26.09a.8.8,0,0,1,.89-.72.81.81,0,0,1,.72.89c-.9,8.45-1.61,16.77-.44,25.71a.81.81,0,0,1-.7.91Z" transform="translate(-60.79 2.5)"/><path class="cls-2" d="M496.82,138.33h0c-8.55-.47-19.32-.59-28.72-.64a.81.81,0,0,1,0-1.62h0c9.42.05,20.21.17,28.8.64a.81.81,0,0,1,0,1.62Z" transform="translate(-60.79 2.5)"/><path class="cls-2" d="M496.82,138.33a.81.81,0,0,1-.8-.68c-.86-5.42-.68-11.39-.52-17.16.1-3.46.2-6.72.07-9.74a.81.81,0,0,1,.78-.84.83.83,0,0,1,.84.78c.13,3.08,0,6.37-.07,9.86-.17,5.7-.34,11.59.5,16.86a.81.81,0,0,1-.67.93Z" transform="translate(-60.79 2.5)"/><path class="cls-2" d="M500.89,112.44a.81.81,0,0,1,0-1.62l27.89-.27a.84.84,0,0,1,.82.8.81.81,0,0,1-.8.82l-27.89.27Z" transform="translate(-60.79 2.5)"/><path class="cls-2" d="M500.45,138.34a.81.81,0,0,1-.8-.71c-1.19-9.11-.47-17.54.44-26.09a.8.8,0,0,1,.89-.72.81.81,0,0,1,.72.89c-.9,8.45-1.61,16.77-.44,25.71a.81.81,0,0,1-.7.91Z" transform="translate(-60.79 2.5)"/><path class="cls-2" d="M529.21,139h0c-8.55-.47-19.32-.59-28.73-.64a.81.81,0,0,1,0-1.62h0c9.42.05,20.22.17,28.8.64a.81.81,0,0,1,0,1.62Z" transform="translate(-60.79 2.5)"/><path class="cls-2" d="M529.21,139a.81.81,0,0,1-.8-.68c-.86-5.42-.68-11.39-.52-17.16.1-3.46.2-6.72.07-9.74a.81.81,0,0,1,.78-.84.83.83,0,0,1,.84.78c.13,3.08,0,6.37-.07,9.86-.17,5.7-.34,11.59.5,16.86a.81.81,0,0,1-.67.93Z" transform="translate(-60.79 2.5)"/><path class="cls-2" d="M447.2,131.58a.81.81,0,0,1-.81-.8,119.88,119.88,0,0,1,.53-12,.81.81,0,0,1,1.61.15,118.36,118.36,0,0,0-.52,11.89.81.81,0,0,1-.8.82Z" transform="translate(-60.79 2.5)"/><path class="cls-2" d="M445.07,118.7a.25.25,0,0,0-.06.14c0,.15.23.16.38.12a12.47,12.47,0,0,1,5-.3,11.28,11.28,0,0,1-1.29-2.25c-.21-.43-.75-2.1-1.26-2.22s-1.08,1.58-1.29,2A19.26,19.26,0,0,1,445.07,118.7Z" transform="translate(-60.79 2.5)"/><path class="cls-2" d="M452.5,131.76a.81.81,0,0,1-.81-.8,119.9,119.9,0,0,1,.53-12,.81.81,0,0,1,1.61.15,118.39,118.39,0,0,0-.52,11.89.81.81,0,0,1-.8.82Z" transform="translate(-60.79 2.5)"/><path class="cls-2" d="M450.37,118.88a.25.25,0,0,0-.06.14c0,.15.23.16.38.12a12.47,12.47,0,0,1,5-.3,11.28,11.28,0,0,1-1.29-2.25c-.21-.43-.75-2.1-1.26-2.22s-1.08,1.58-1.29,2A19.26,19.26,0,0,1,450.37,118.88Z" transform="translate(-60.79 2.5)"/><path class="cls-2" d="M483.46,135.1a1.87,1.87,0,0,1-.68-.13,2.44,2.44,0,0,1-1.42-2.11,13.51,13.51,0,0,1-.14-1.71l-.24-6.54a.81.81,0,0,1,.78-.84.85.85,0,0,1,.84.78l.24,6.54a12.11,12.11,0,0,0,.12,1.51c.08.45.24.79.41.86a.64.64,0,0,0,.57-.23,3.54,3.54,0,0,0,.6-1.12.81.81,0,1,1,1.5.6,4.78,4.78,0,0,1-.94,1.65A2.32,2.32,0,0,1,483.46,135.1Z" transform="translate(-60.79 2.5)"/><path class="cls-2" d="M488.68,125.61h0c-2.61,0-5.24-.11-7.83-.24-.48,0-1-.07-1.46-.11a21.9,21.9,0,0,0-2.37-.12c-1,0-1.7-.28-2-.89-.46-1,.53-2.12.86-2.48a7.33,7.33,0,0,1,5.06-2.73,10.85,10.85,0,0,1,4.21.56,6.13,6.13,0,0,1,3.2,2.4,3.77,3.77,0,0,1,1.13,2.94A.81.81,0,0,1,488.68,125.61Zm-11.45-2.09c.77,0,1.54.07,2.28.13.47,0,.94.08,1.4.1,2.26.11,4.55.19,6.83.22a5.15,5.15,0,0,0-.66-.94,4.59,4.59,0,0,0-2.44-1.89,9.34,9.34,0,0,0-3.58-.49,5.76,5.76,0,0,0-4,2.2,3.38,3.38,0,0,0-.48.65l.37,0Z" transform="translate(-60.79 2.5)"/><path class="cls-2" d="M482.39,120.11a.81.81,0,0,1-.81-.75l-.13-1.66a.81.81,0,0,1,1.62-.13l.13,1.66a.81.81,0,0,1-.74.87Z" transform="translate(-60.79 2.5)"/><path class="cls-2" d="M513.23,127.28l-.45,0a5.74,5.74,0,0,1-2.82-1.17,3.27,3.27,0,0,1-1.08-1.23,3.76,3.76,0,0,1-.23-1.76l.3-7.5a.85.85,0,0,1,.84-.78.81.81,0,0,1,.78.84l-.3,7.49a2.48,2.48,0,0,0,.09,1,1.84,1.84,0,0,0,.57.6,4.14,4.14,0,0,0,2,.86,2.39,2.39,0,0,0,1.83-.54c.86-.8.88-2.32.82-3.68l-.22-5.41a.81.81,0,0,1,.78-.84.8.8,0,0,1,.84.78l.22,5.41c.07,1.72,0,3.67-1.34,4.94A3.88,3.88,0,0,1,513.23,127.28Z" transform="translate(-60.79 2.5)"/><path class="cls-2" d="M516.23,116.68h-.07l-4.66-.42a6.78,6.78,0,0,0-1.53,0,.81.81,0,1,1-.23-1.6,8.16,8.16,0,0,1,1.91,0l4.66.42a.81.81,0,0,1-.07,1.62Z" transform="translate(-60.79 2.5)"/><path class="cls-2" d="M512.36,135.24a.81.81,0,0,1-.81-.79c-.06-2.55,0-5.14.2-7.69a.82.82,0,0,1,.87-.75.81.81,0,0,1,.75.87c-.19,2.5-.25,5-.19,7.53a.81.81,0,0,1-.79.83Z" transform="translate(-60.79 2.5)"/><path class="cls-2" d="M513.16,136.07q-.43,0-.86,0l-.83-.08a7.66,7.66,0,0,0-2,0,.81.81,0,1,1-.26-1.6,9,9,0,0,1,2.42,0l.77.07a10.62,10.62,0,0,0,2.38-.1.81.81,0,0,1,.25,1.6A12.27,12.27,0,0,1,513.16,136.07Z" transform="translate(-60.79 2.5)"/><path class="cls-2" d="M490.5,258.07a.81.81,0,0,1,0-1.62l27.89-.27h0a.81.81,0,0,1,0,1.62l-27.89.27Z" transform="translate(-60.79 2.5)"/><path class="cls-2" d="M490.06,284a.81.81,0,0,1-.8-.71c-1.19-9.12-.47-17.54.44-26.09a.8.8,0,0,1,.89-.72.81.81,0,0,1,.72.89c-.9,8.45-1.61,16.77-.44,25.71a.81.81,0,0,1-.7.91Z" transform="translate(-60.79 2.5)"/><path class="cls-2" d="M518.83,284.61h0c-8.55-.47-19.32-.59-28.72-.64a.81.81,0,0,1,0-1.62h0c9.42.05,20.21.17,28.8.64a.81.81,0,0,1,0,1.62Z" transform="translate(-60.79 2.5)"/><path class="cls-2" d="M518.83,284.61a.81.81,0,0,1-.8-.68c-.86-5.42-.68-11.39-.52-17.16.1-3.46.2-6.72.07-9.75a.81.81,0,0,1,.78-.84.83.83,0,0,1,.84.78c.13,3.08,0,6.38-.07,9.86-.17,5.7-.34,11.59.5,16.86a.81.81,0,0,1-.67.93Z" transform="translate(-60.79 2.5)"/><path class="cls-2" d="M522.84,258.92a.81.81,0,0,1,0-1.62l27.89-.27a.79.79,0,0,1,.82.8.81.81,0,0,1-.8.82l-27.89.27Z" transform="translate(-60.79 2.5)"/><path class="cls-2" d="M522.4,284.82a.81.81,0,0,1-.8-.71c-1.19-9.12-.47-17.55.44-26.09a.8.8,0,0,1,.89-.72.81.81,0,0,1,.72.89c-.9,8.45-1.61,16.77-.44,25.71a.81.81,0,0,1-.7.91Z" transform="translate(-60.79 2.5)"/><path class="cls-2" d="M551.17,285.46h0c-8.55-.47-19.32-.59-28.72-.64a.81.81,0,0,1,0-1.62h0c9.42.05,20.21.17,28.8.64a.81.81,0,0,1,0,1.62Z" transform="translate(-60.79 2.5)"/><path class="cls-2" d="M551.17,285.46a.81.81,0,0,1-.8-.68c-.86-5.42-.68-11.39-.52-17.16.1-3.46.2-6.72.07-9.74a.81.81,0,0,1,.78-.84.85.85,0,0,1,.84.78c.13,3.08,0,6.37-.07,9.86-.17,5.7-.34,11.59.5,16.86a.81.81,0,0,1-.67.93Z" transform="translate(-60.79 2.5)"/><path class="cls-2" d="M555.23,259.58a.81.81,0,0,1,0-1.62l27.89-.27h0a.81.81,0,0,1,0,1.62l-27.89.27Z" transform="translate(-60.79 2.5)"/><path class="cls-2" d="M554.79,285.48a.81.81,0,0,1-.8-.71c-1.19-9.12-.47-17.54.44-26.09a.8.8,0,0,1,.89-.72.81.81,0,0,1,.72.89c-.9,8.45-1.61,16.77-.44,25.71a.81.81,0,0,1-.7.91Z" transform="translate(-60.79 2.5)"/><path class="cls-2" d="M583.56,286.12h0c-8.55-.47-19.32-.59-28.72-.64a.81.81,0,0,1,0-1.62h0c9.42.05,20.21.17,28.8.64a.81.81,0,0,1,0,1.62Z" transform="translate(-60.79 2.5)"/><path class="cls-2" d="M583.55,286.12a.81.81,0,0,1-.8-.68c-.86-5.42-.68-11.39-.52-17.16.1-3.46.2-6.72.07-9.75a.81.81,0,0,1,.78-.84.83.83,0,0,1,.84.78c.13,3.08,0,6.38-.07,9.86-.17,5.7-.34,11.59.5,16.86a.81.81,0,0,1-.67.93Z" transform="translate(-60.79 2.5)"/><path class="cls-2" d="M501.54,278.72a.81.81,0,0,1-.81-.8,119.9,119.9,0,0,1,.53-12,.81.81,0,0,1,1.61.15,118.39,118.39,0,0,0-.52,11.89.81.81,0,0,1-.8.82Z" transform="translate(-60.79 2.5)"/><path class="cls-2" d="M499.41,265.84a.25.25,0,0,0-.06.14c0,.15.23.16.38.12a12.47,12.47,0,0,1,5-.3,11.28,11.28,0,0,1-1.29-2.25c-.21-.43-.75-2.1-1.26-2.22s-1.08,1.58-1.29,2A19.26,19.26,0,0,1,499.41,265.84Z" transform="translate(-60.79 2.5)"/><path class="cls-2" d="M506.84,278.89a.81.81,0,0,1-.81-.8,119.9,119.9,0,0,1,.53-12,.81.81,0,0,1,1.61.15,118.39,118.39,0,0,0-.52,11.89.81.81,0,0,1-.8.82Z" transform="translate(-60.79 2.5)"/><path class="cls-2" d="M504.71,266a.25.25,0,0,0-.06.14c0,.15.23.16.38.12a12.47,12.47,0,0,1,5-.3,11.28,11.28,0,0,1-1.29-2.25c-.21-.43-.75-2.1-1.26-2.22s-1.08,1.58-1.29,2A19.26,19.26,0,0,1,504.71,266Z" transform="translate(-60.79 2.5)"/><path class="cls-2" d="M537.81,282.23a1.86,1.86,0,0,1-.68-.13,2.44,2.44,0,0,1-1.42-2.11,13.51,13.51,0,0,1-.14-1.71l-.24-6.54a.81.81,0,0,1,.78-.84.85.85,0,0,1,.84.78l.24,6.54a12.11,12.11,0,0,0,.12,1.51c.08.45.24.79.41.86a.65.65,0,0,0,.57-.23,3.49,3.49,0,0,0,.6-1.12.81.81,0,1,1,1.51.6,4.85,4.85,0,0,1-.94,1.65A2.32,2.32,0,0,1,537.81,282.23Z" transform="translate(-60.79 2.5)"/><path class="cls-2" d="M543,272.75h0c-2.6,0-5.24-.11-7.83-.24-.48,0-1-.07-1.46-.11a23.26,23.26,0,0,0-2.38-.12c-1,0-1.7-.28-2-.89-.46-1,.53-2.12.86-2.48a7.33,7.33,0,0,1,5.06-2.73,10.88,10.88,0,0,1,4.21.56,6.13,6.13,0,0,1,3.2,2.4,3.76,3.76,0,0,1,1.13,2.94A.81.81,0,0,1,543,272.75Zm-11.45-2.09c.77,0,1.54.07,2.28.13.47,0,.94.08,1.4.1,2.26.11,4.55.19,6.83.22a5.25,5.25,0,0,0-.66-.94,4.6,4.6,0,0,0-2.44-1.89,9.31,9.31,0,0,0-3.58-.49,5.76,5.76,0,0,0-4,2.2,3.47,3.47,0,0,0-.48.65,2.52,2.52,0,0,0,.37,0Z" transform="translate(-60.79 2.5)"/><path class="cls-2" d="M536.73,267.24a.81.81,0,0,1-.81-.75l-.13-1.66a.81.81,0,0,1,1.62-.13l.13,1.66a.81.81,0,0,1-.74.87Z" transform="translate(-60.79 2.5)"/><path class="cls-2" d="M567.57,274.42l-.45,0a5.76,5.76,0,0,1-2.82-1.17,3.26,3.26,0,0,1-1.08-1.23,3.8,3.8,0,0,1-.23-1.76l.3-7.49a.81.81,0,0,1,.81-.78h0a.81.81,0,0,1,.78.84l-.3,7.49a2.49,2.49,0,0,0,.09,1,1.85,1.85,0,0,0,.57.6,4.15,4.15,0,0,0,2,.86,2.37,2.37,0,0,0,1.83-.54c.86-.8.88-2.32.82-3.68l-.22-5.41a.81.81,0,0,1,1.62-.07l.22,5.41c.07,1.72,0,3.67-1.34,4.94A3.88,3.88,0,0,1,567.57,274.42Z" transform="translate(-60.79 2.5)"/><path class="cls-2" d="M570.57,263.81h-.07l-4.66-.42a6.7,6.7,0,0,0-1.53,0,.81.81,0,1,1-.23-1.6,8.16,8.16,0,0,1,1.91,0l4.66.42a.81.81,0,0,1-.07,1.62Z" transform="translate(-60.79 2.5)"/><path class="cls-2" d="M566.7,282.37a.81.81,0,0,1-.81-.79c-.06-2.55,0-5.13.2-7.69a.82.82,0,0,1,.87-.75.81.81,0,0,1,.75.87c-.19,2.5-.25,5-.19,7.53a.81.81,0,0,1-.79.83Z" transform="translate(-60.79 2.5)"/><path class="cls-2" d="M567.51,283.21q-.43,0-.86,0l-.83-.08a7.59,7.59,0,0,0-2,0,.81.81,0,1,1-.26-1.6,9,9,0,0,1,2.42,0l.77.07a10.58,10.58,0,0,0,2.38-.1.81.81,0,0,1,.25,1.6A12.27,12.27,0,0,1,567.51,283.21Z" transform="translate(-60.79 2.5)"/><path class="cls-2" d="M587.27,441.82a.81.81,0,0,1,0-1.62l23.12-.22a.81.81,0,1,1,0,1.62l-23.12.22Z" transform="translate(-60.79 2.5)"/><path class="cls-2" d="M610.83,468.41h0c-5.06-.28-11.42-.46-19.44-.56a.81.81,0,0,1,0-1.62h0c8,.1,14.43.28,19.51.56a.81.81,0,0,1,0,1.62Z" transform="translate(-60.79 2.5)"/><path class="cls-2" d="M610.82,468.41a.81.81,0,0,1-.8-.68c-.86-5.42-.68-11.39-.52-17.16.1-3.46.2-6.72.07-9.75a.81.81,0,0,1,.78-.84.85.85,0,0,1,.84.78c.13,3.08,0,6.38-.07,9.86-.17,5.7-.34,11.59.5,16.86a.81.81,0,0,1-.67.93Z" transform="translate(-60.79 2.5)"/><path class="cls-2" d="M614.84,442.72a.81.81,0,0,1,0-1.62l27.89-.27h0a.81.81,0,0,1,0,1.62l-27.89.27Z" transform="translate(-60.79 2.5)"/><path class="cls-2" d="M614.4,468.62a.81.81,0,0,1-.8-.71c-1.19-9.12-.47-17.54.44-26.09a.8.8,0,0,1,.89-.72.81.81,0,0,1,.72.89c-.9,8.45-1.61,16.77-.44,25.71a.81.81,0,0,1-.7.91Z" transform="translate(-60.79 2.5)"/><path class="cls-2" d="M643.17,469.26h0c-8.55-.47-19.32-.58-28.72-.64a.81.81,0,0,1,0-1.62h0c9.42.05,20.21.17,28.8.64a.81.81,0,0,1,0,1.62Z" transform="translate(-60.79 2.5)"/><path class="cls-2" d="M643.16,469.26a.81.81,0,0,1-.8-.68c-.86-5.42-.68-11.39-.52-17.16.1-3.46.2-6.72.07-9.75a.81.81,0,0,1,.78-.84.86.86,0,0,1,.84.78c.13,3.08,0,6.37-.07,9.86-.17,5.7-.34,11.59.5,16.86a.81.81,0,0,1-.67.93Z" transform="translate(-60.79 2.5)"/><path class="cls-2" d="M647.23,443.38a.81.81,0,0,1,0-1.62l27.89-.27a.81.81,0,0,1,0,1.62l-27.89.27Z" transform="translate(-60.79 2.5)"/><path class="cls-2" d="M646.79,469.28a.81.81,0,0,1-.8-.71c-1.19-9.11-.47-17.54.44-26.09a.81.81,0,1,1,1.61.17c-.9,8.45-1.61,16.77-.44,25.71a.81.81,0,0,1-.7.91Z" transform="translate(-60.79 2.5)"/><path class="cls-2" d="M675.55,469.92h0c-8.57-.47-19.33-.59-28.72-.64a.81.81,0,0,1,0-1.62h0c9.41.05,20.2.17,28.8.64a.81.81,0,0,1,0,1.62Z" transform="translate(-60.79 2.5)"/><path class="cls-2" d="M675.55,469.92a.81.81,0,0,1-.8-.68c-.86-5.42-.68-11.39-.52-17.16.1-3.46.2-6.72.07-9.75a.81.81,0,0,1,.78-.84.85.85,0,0,1,.84.78c.13,3.08,0,6.38-.07,9.86-.17,5.7-.34,11.59.5,16.86a.81.81,0,0,1-.67.93Z" transform="translate(-60.79 2.5)"/><path class="cls-2" d="M593.54,462.51a.81.81,0,0,1-.81-.8,119.92,119.92,0,0,1,.53-12,.81.81,0,0,1,1.61.15,118.4,118.4,0,0,0-.52,11.89.81.81,0,0,1-.8.82Z" transform="translate(-60.79 2.5)"/><path class="cls-2" d="M591.41,449.64a.25.25,0,0,0-.06.14c0,.15.23.16.38.12a12.47,12.47,0,0,1,5-.3,11.28,11.28,0,0,1-1.29-2.25c-.21-.43-.75-2.1-1.26-2.22s-1.08,1.58-1.29,2A19.26,19.26,0,0,1,591.41,449.64Z" transform="translate(-60.79 2.5)"/><path class="cls-2" d="M598.84,462.69a.81.81,0,0,1-.81-.8,119.87,119.87,0,0,1,.53-12,.81.81,0,0,1,1.61.15,118.37,118.37,0,0,0-.52,11.88.81.81,0,0,1-.8.82Z" transform="translate(-60.79 2.5)"/><path class="cls-2" d="M596.71,449.81a.25.25,0,0,0-.06.14c0,.15.23.16.38.12a12.47,12.47,0,0,1,5-.3,11.28,11.28,0,0,1-1.29-2.25c-.21-.43-.75-2.1-1.26-2.22s-1.08,1.58-1.29,2A19.26,19.26,0,0,1,596.71,449.81Z" transform="translate(-60.79 2.5)"/><path class="cls-2" d="M629.8,466a1.87,1.87,0,0,1-.68-.13,2.44,2.44,0,0,1-1.42-2.11,13.55,13.55,0,0,1-.14-1.71l-.24-6.54a.81.81,0,0,1,.78-.84.84.84,0,0,1,.84.78l.24,6.54a11.94,11.94,0,0,0,.12,1.51c.07.45.24.79.41.86a.64.64,0,0,0,.57-.23,3.49,3.49,0,0,0,.6-1.12.81.81,0,0,1,1.51.6,4.82,4.82,0,0,1-.94,1.65A2.32,2.32,0,0,1,629.8,466Z" transform="translate(-60.79 2.5)"/><path class="cls-2" d="M635,456.54h0c-2.59,0-5.23-.11-7.83-.24-.48,0-1-.07-1.47-.11-.79-.07-1.6-.13-2.37-.12-1,0-1.71-.28-2-.89-.46-1,.53-2.12.86-2.48a7.32,7.32,0,0,1,5.06-2.73,10.87,10.87,0,0,1,4.21.56,6.13,6.13,0,0,1,3.2,2.4,3.77,3.77,0,0,1,1.13,2.94A.81.81,0,0,1,635,456.54Zm-11.45-2.09c.76,0,1.53.07,2.28.13.47,0,.94.08,1.41.1,2.27.11,4.56.19,6.83.22a5.12,5.12,0,0,0-.66-.94,4.59,4.59,0,0,0-2.44-1.89,9.45,9.45,0,0,0-3.58-.49,5.76,5.76,0,0,0-4,2.2,3.43,3.43,0,0,0-.48.65l.37,0Z" transform="translate(-60.79 2.5)"/><path class="cls-2" d="M628.73,451a.81.81,0,0,1-.81-.75l-.13-1.66a.81.81,0,0,1,.74-.87.8.8,0,0,1,.87.74l.13,1.66a.81.81,0,0,1-.75.87Z" transform="translate(-60.79 2.5)"/><path class="cls-2" d="M659.57,458.22l-.45,0A5.76,5.76,0,0,1,656.3,457a3.27,3.27,0,0,1-1.08-1.23A3.76,3.76,0,0,1,655,454l.3-7.49a.81.81,0,0,1,.81-.78h0a.81.81,0,0,1,.78.84l-.3,7.49a2.51,2.51,0,0,0,.09,1,1.72,1.72,0,0,0,.57.6,4.16,4.16,0,0,0,2,.86,2.39,2.39,0,0,0,1.83-.54c.86-.8.88-2.32.82-3.68l-.22-5.41a.81.81,0,0,1,.78-.84.83.83,0,0,1,.84.78l.22,5.41c.07,1.72,0,3.67-1.34,4.94A3.88,3.88,0,0,1,659.57,458.22Z" transform="translate(-60.79 2.5)"/><path class="cls-2" d="M662.57,447.61h-.07l-4.66-.42a6.67,6.67,0,0,0-1.53,0,.81.81,0,0,1-.23-1.6,8,8,0,0,1,1.91,0l4.66.42a.81.81,0,0,1-.07,1.62Z" transform="translate(-60.79 2.5)"/><path class="cls-2" d="M658.7,466.17a.81.81,0,0,1-.81-.79c-.06-2.55,0-5.14.2-7.69a.81.81,0,1,1,1.62.12c-.19,2.5-.25,5-.19,7.53a.81.81,0,0,1-.79.83Z" transform="translate(-60.79 2.5)"/><path class="cls-2" d="M659.5,467c-.29,0-.57,0-.86,0l-.83-.08a7.66,7.66,0,0,0-2,0,.81.81,0,1,1-.26-1.6,9,9,0,0,1,2.42,0l.77.07a10.54,10.54,0,0,0,2.38-.1.81.81,0,1,1,.25,1.6A12.16,12.16,0,0,1,659.5,467Z" transform="translate(-60.79 2.5)"/><path class="cls-2" d="M649.15,174.82a1.5,1.5,0,0,1-1.06-2.56l1.28-1.28a1.5,1.5,0,0,1,2.12,2.12l-1.29,1.28A1.5,1.5,0,0,1,649.15,174.82Z" transform="translate(-60.79 2.5)"/><path class="cls-2" d="M646.76,297.47a1.91,1.91,0,0,1-.54-.08c-.46-.14-2-.78-1.73-3.32a821.6,821.6,0,0,0,2-121.16,1.5,1.5,0,1,1,3-.17,824.54,824.54,0,0,1-1.89,120.89,1.64,1.64,0,0,1,.42.25,2.14,2.14,0,0,1,.42,2.58A1.82,1.82,0,0,1,646.76,297.47Z" transform="translate(-60.79 2.5)"/><path class="cls-2" d="M720.11,472.24h0a1.5,1.5,0,0,1-1.49-1.51c.17-47.52-.5-95.68-2-143.15a1.5,1.5,0,0,1,1.45-1.55,1.48,1.48,0,0,1,1.55,1.45c1.5,47.5,2.17,95.7,2,143.26A1.5,1.5,0,0,1,720.11,472.24Z" transform="translate(-60.79 2.5)"/><path class="cls-2" d="M580,590.51c-.85,0-2.61-.4-3.33-3.53l-34.2-149.63a1.5,1.5,0,0,1,2.92-.67L579.55,586a1.76,1.76,0,0,1,1.05,0,2.53,2.53,0,0,1,1.49,2.71,2,2,0,0,1-1.94,1.81Z" transform="translate(-60.79 2.5)"/><path class="cls-2" d="M509.61,417.68a1.5,1.5,0,0,1-1.49-1.35c-.91-9-1.45-18.11-1.61-27.13a1.5,1.5,0,0,1,1.47-1.53h0a1.5,1.5,0,0,1,1.5,1.47c.16,8.93.69,18,1.59,26.88a1.5,1.5,0,0,1-1.34,1.64Z" transform="translate(-60.79 2.5)"/><path class="cls-2" d="M172.54,314.24a1.5,1.5,0,0,1-1.5-1.4c-2.16-33.64-3.43-67.8-3.77-101.51a1.5,1.5,0,0,1,1.48-1.52h0a1.5,1.5,0,0,1,1.5,1.48c.34,33.66,1.61,67.76,3.77,101.35a1.5,1.5,0,0,1-1.4,1.59Z" transform="translate(-60.79 2.5)"/><path class="cls-2" d="M102.22,479.3a1.5,1.5,0,0,1-1.5-1.5,976.48,976.48,0,0,1,8.15-126.63,1.5,1.5,0,0,1,3,.39,973.51,973.51,0,0,0-8.13,126.24,1.5,1.5,0,0,1-1.5,1.5Z" transform="translate(-60.79 2.5)"/><path class="cls-2" d="M382.09,318.12a1.5,1.5,0,0,1-1.5-1.46,137.6,137.6,0,0,1,2.19-27.88,1.5,1.5,0,0,1,3,.54,134.6,134.6,0,0,0-2.15,27.27,1.5,1.5,0,0,1-1.46,1.53Z" transform="translate(-60.79 2.5)"/><path class="cls-2" d="M567,147.95h-.11a1.5,1.5,0,0,1-1.39-1.61c2.5-34.22,3.92-69,4.21-103.28a1.5,1.5,0,0,1,1.5-1.49h0a1.5,1.5,0,0,1,1.49,1.51c-.29,34.38-1.71,69.19-4.22,103.47A1.5,1.5,0,0,1,567,147.95Z" transform="translate(-60.79 2.5)"/><path class="cls-2" d="M254.41,176.21a1.5,1.5,0,0,1-1.5-1.49l-.43-115.58A1.5,1.5,0,0,1,254,57.63h0a1.5,1.5,0,0,1,1.5,1.49l.43,115.58a1.5,1.5,0,0,1-1.49,1.51Z" transform="translate(-60.79 2.5)"/><path class="cls-2" d="M323.06,194a.88.88,0,0,1-.34-1.68,20.41,20.41,0,0,0,8.61-6.82.88.88,0,1,1,1.42,1A21.88,21.88,0,0,1,323.4,194,.88.88,0,0,1,323.06,194Z" transform="translate(-60.79 2.5)"/><path class="cls-2" d="M329.51,195.91a.88.88,0,0,1-.31-1.69,7.32,7.32,0,0,0,3.11-2.27.87.87,0,0,1,1.37,1.09,9.07,9.07,0,0,1-3.85,2.81A.88.88,0,0,1,329.51,195.91Z" transform="translate(-60.79 2.5)"/><path class="cls-2" d="M383.94,269.31a.88.88,0,0,1-.59-1.52,18.54,18.54,0,0,0,4.38-6.13.87.87,0,1,1,1.6.7,20.31,20.31,0,0,1-4.8,6.71A.88.88,0,0,1,383.94,269.31Z" transform="translate(-60.79 2.5)"/><path class="cls-2" d="M387,272.83a.87.87,0,0,1-.61-1.5l3-3a.87.87,0,0,1,1.22,1.25l-3,3A.87.87,0,0,1,387,272.83Z" transform="translate(-60.79 2.5)"/><path class="cls-2" d="M550.94,316.28a.87.87,0,0,1-.46-1.62,10.51,10.51,0,0,0,4.81-7.27.88.88,0,0,1,1.73.26,12.29,12.29,0,0,1-5.62,8.49A.87.87,0,0,1,550.94,316.28Z" transform="translate(-60.79 2.5)"/><path class="cls-2" d="M555.08,319.94a.88.88,0,0,1-.68-1.43l4.05-5a.88.88,0,0,1,1.36,1.11l-4.05,5A.87.87,0,0,1,555.08,319.94Z" transform="translate(-60.79 2.5)"/><path class="cls-2" d="M646.36,158.78a.87.87,0,0,1-.72-1.36l6.27-9.32a.87.87,0,1,1,1.45,1l-6.27,9.32A.87.87,0,0,1,646.36,158.78Z" transform="translate(-60.79 2.5)"/><path class="cls-2" d="M647.38,163.19a.88.88,0,0,1-.49-1.6,22.85,22.85,0,0,0,6.44-6.52.88.88,0,0,1,1.47,1,24.63,24.63,0,0,1-6.94,7A.87.87,0,0,1,647.38,163.19Z" transform="translate(-60.79 2.5)"/><path class="cls-2" d="M715.47,312.87a.88.88,0,0,1-.23,0,.87.87,0,0,1-.61-1.08,45.45,45.45,0,0,0,1.57-9.31.87.87,0,0,1,1.75.11,47.17,47.17,0,0,1-1.63,9.67A.87.87,0,0,1,715.47,312.87Z" transform="translate(-60.79 2.5)"/><path class="cls-2" d="M717.5,317.38a.87.87,0,0,1-.87-.87V314a.88.88,0,0,1,1.75,0v2.5A.87.87,0,0,1,717.5,317.38Z" transform="translate(-60.79 2.5)"/><path class="cls-2" d="M569.57,20.39h-.13a.88.88,0,0,1-.74-1l.52-3.5a.87.87,0,1,1,1.73.26l-.52,3.5A.88.88,0,0,1,569.57,20.39Z" transform="translate(-60.79 2.5)"/><path class="cls-2" d="M572.25,30a.86.86,0,0,1-.28,0,.88.88,0,0,1-.55-1.11A43.82,43.82,0,0,0,573.68,17a.91.91,0,0,1,.92-.83.87.87,0,0,1,.83.92,45.63,45.63,0,0,1-2.35,12.32A.88.88,0,0,1,572.25,30Z" transform="translate(-60.79 2.5)"/><path class="cls-2" d="M351.81,47.69a.88.88,0,0,1-.63-1.48,27.74,27.74,0,0,0,5.53-8.54.87.87,0,1,1,1.62.66,29.07,29.07,0,0,1-5.89,9.08A.87.87,0,0,1,351.81,47.69Z" transform="translate(-60.79 2.5)"/><path class="cls-2" d="M356.83,51.68a.88.88,0,0,1-.58-1.53A45.23,45.23,0,0,0,362,44.08a.87.87,0,1,1,1.38,1.08,47,47,0,0,1-5.94,6.3A.87.87,0,0,1,356.83,51.68Z" transform="translate(-60.79 2.5)"/><path class="cls-2" d="M255.46,48.4a.87.87,0,0,1-.77-.46L253.09,45a.87.87,0,1,1,1.54-.83l1.59,2.95a.87.87,0,0,1-.77,1.29Z" transform="translate(-60.79 2.5)"/><path class="cls-2" d="M173.55,192.77a.87.87,0,0,1-.4-.1,12.56,12.56,0,0,1-6.25-7.89.88.88,0,0,1,1.7-.43,10.78,10.78,0,0,0,5.36,6.77.88.88,0,0,1-.41,1.65Z" transform="translate(-60.79 2.5)"/><path class="cls-2" d="M171.49,204.89a.87.87,0,0,1-.48-.15,10,10,0,0,1-4.38-8.8.88.88,0,1,1,1.75.11,8.22,8.22,0,0,0,3.6,7.23.87.87,0,0,1-.48,1.6Z" transform="translate(-60.79 2.5)"/><path class="cls-2" d="M114,331.87a.88.88,0,0,1-.81-.53l-1.49-3.5a.88.88,0,0,1,1.61-.69l1.49,3.5a.87.87,0,0,1-.8,1.22Z" transform="translate(-60.79 2.5)"/><path class="cls-2" d="M112.89,344.45a.88.88,0,0,1-.72-.38,24.28,24.28,0,0,1-3.57-7.84.87.87,0,0,1,1.7-.43,22.53,22.53,0,0,0,3.32,7.28.87.87,0,0,1-.72,1.37Z" transform="translate(-60.79 2.5)"/><path class="cls-2" d="M190.82,374.17a.88.88,0,0,1-.82-.58,9.05,9.05,0,0,0-7.67-5.79.88.88,0,0,1,.12-1.75,10.85,10.85,0,0,1,9.19,6.94.87.87,0,0,1-.82,1.17Z" transform="translate(-60.79 2.5)"/><path class="cls-2" d="M189.51,373.73a.87.87,0,0,1-.62-.25,4.18,4.18,0,0,0-5.15-.45.87.87,0,0,1-1-1.43,5.92,5.92,0,0,1,7.39.64.88.88,0,0,1-.62,1.5Z" transform="translate(-60.79 2.5)"/><path class="cls-2" d="M269.07,343.71a.87.87,0,0,1-.86-.72,17.45,17.45,0,0,1-.2-4.76.88.88,0,0,1,1.74.17,15.71,15.71,0,0,0,.18,4.28.87.87,0,0,1-.71,1Z" transform="translate(-60.79 2.5)"/><path class="cls-2" d="M268.36,343.16a.87.87,0,0,1-.57-1.54l3.13-2.7a.87.87,0,1,1,1.14,1.33l-3.13,2.7A.87.87,0,0,1,268.36,343.16Z" transform="translate(-60.79 2.5)"/><path class="cls-2" d="M377.93,433.36h-.11a.88.88,0,0,1-.76-1,26.76,26.76,0,0,0-1.74-14.15.88.88,0,1,1,1.63-.63,28.38,28.38,0,0,1,1.85,15A.88.88,0,0,1,377.93,433.36Z" transform="translate(-60.79 2.5)"/><path class="cls-2" d="M420.89,450.7a1,1,0,0,1-.53-1.85l9.92-6.12a1,1,0,0,1,1,1.7l-9.92,6.12A1,1,0,0,1,420.89,450.7Z" transform="translate(-60.79 2.5)"/><path class="cls-2" d="M424.36,453.7a1,1,0,0,1-.45-1.89l2.94-1.46a1,1,0,1,1,.89,1.79l-2.93,1.46A1,1,0,0,1,424.36,453.7Z" transform="translate(-60.79 2.5)"/><path class="cls-2" d="M544.14,426.87a1,1,0,0,1-.45-1.89l2-1a1,1,0,1,1,.89,1.79l-2,1A1,1,0,0,1,544.14,426.87Z" transform="translate(-60.79 2.5)"/><path class="cls-2" d="M545.1,431.23h-.49a1,1,0,0,1,0-2h.49a1,1,0,0,1,0,2Z" transform="translate(-60.79 2.5)"/><path class="cls-2" d="M475.12,219.77a1,1,0,0,1,0-2A235.3,235.3,0,0,0,547,203.46a1,1,0,0,1,.69,1.88,237.28,237.28,0,0,1-72.48,14.43Z" transform="translate(-60.79 2.5)"/><path class="cls-2" d="M510.53,226.27a1,1,0,0,1-.25-2l9.8-2.54a1,1,0,0,1,.5,1.94l-9.8,2.54A1,1,0,0,1,510.53,226.27Z" transform="translate(-60.79 2.5)"/><path class="cls-2" d="M544.37,369.75a1,1,0,0,1-.07-2c16.71-1.22,32.23-8.25,47.24-15.05a1,1,0,0,1,.83,1.82c-14.46,6.55-30.85,14-47.92,15.23Z" transform="translate(-60.79 2.5)"/><path class="cls-2" d="M580.71,394.05a1,1,0,0,1-.45-1.89l5.5-2.76a1,1,0,0,1,.9,1.79l-5.5,2.76A1,1,0,0,1,580.71,394.05Z" transform="translate(-60.79 2.5)"/><path class="cls-2" d="M454.49,60.42a1,1,0,0,1,0-2,214.71,214.71,0,0,0,53.3-9.11,1,1,0,1,1,.58,1.91,216.68,216.68,0,0,1-53.8,9.19Z" transform="translate(-60.79 2.5)"/><path class="cls-2" d="M327.29,102.14a1,1,0,0,1-.06-2,192.46,192.46,0,0,0,70.27-18,1,1,0,1,1,.86,1.81,194.47,194.47,0,0,1-71,18.23Z" transform="translate(-60.79 2.5)"/><path class="cls-2" d="M432.07,510.83c-10.54,0-21-1.47-31.26-2.9a1,1,0,1,1,.28-2c12.26,1.72,24.94,3.49,37.49,2.68,13.92-.91,25.89-5.09,34.6-12.1a1,1,0,1,1,1.25,1.56c-9,7.27-21.39,11.6-35.73,12.54C436.49,510.76,434.28,510.83,432.07,510.83Z" transform="translate(-60.79 2.5)"/><path class="cls-2" d="M450.56,528.21h-.06c-9.42-.56-19-.73-28.4-.49h0a1,1,0,0,1,0-2c9.48-.23,19.09-.06,28.57.5a1,1,0,0,1-.06,2Z" transform="translate(-60.79 2.5)"/><path class="cls-2" d="M359,529.5a1,1,0,0,1-1-1,55.34,55.34,0,0,1,.78-8.08c.31-2.13.63-4.32.73-6.47a1,1,0,0,1,1-1,1,1,0,0,1,1,1,66.87,66.87,0,0,1-.74,6.67,53.91,53.91,0,0,0-.75,7.79,1,1,0,0,1-1,1Z" transform="translate(-60.79 2.5)"/><path class="cls-2" d="M357.5,544.5a1,1,0,0,1-1-1v-6a1,1,0,0,1,2,0v6A1,1,0,0,1,357.5,544.5Z" transform="translate(-60.79 2.5)"/><path class="cls-2" d="M227.31,549.06c-4.17,0-11.51-.6-15.38-4.5a1.5,1.5,0,1,1,2.13-2.11c3.07,3.09,9.95,3.87,15.35,3.56a1.5,1.5,0,0,1,.17,3C229,549,228.26,549.06,227.31,549.06Z" transform="translate(-60.79 2.5)"/><path class="cls-2" d="M227.5,541a1.46,1.46,0,0,1-.31,0,20.42,20.42,0,0,0-5.58-.47,1.5,1.5,0,0,1-.22-3,23.41,23.41,0,0,1,6.42.53,1.5,1.5,0,0,1-.31,3Z" transform="translate(-60.79 2.5)"/><path class="cls-2" d="M328.5,560a1.5,1.5,0,0,1-.7-2.83c1.12-.59,2.3-1.27,3.42-2a1.5,1.5,0,1,1,1.57,2.56c-1.17.72-2.41,1.43-3.58,2A1.48,1.48,0,0,1,328.5,560Z" transform="translate(-60.79 2.5)"/><path class="cls-2" d="M340,561a1.5,1.5,0,0,1-.55-2.9,4.24,4.24,0,0,0,1.83-1.48,1.5,1.5,0,1,1,2.44,1.74,7.21,7.21,0,0,1-3.17,2.52A1.5,1.5,0,0,1,340,561Z" transform="translate(-60.79 2.5)"/><path class="cls-2" d="M230.5,604a1.5,1.5,0,0,1-1.07-.45,8.85,8.85,0,0,1-2.42-4.84,1.5,1.5,0,0,1,3-.43,5.86,5.86,0,0,0,1.58,3.16A1.5,1.5,0,0,1,230.5,604Z" transform="translate(-60.79 2.5)"/><path class="cls-2" d="M236.5,613a1.49,1.49,0,0,1-.89-.29,5.41,5.41,0,0,1-2.11-4.15,1.5,1.5,0,0,1,1.44-1.55,1.47,1.47,0,0,1,1.55,1.44,2.46,2.46,0,0,0,.89,1.85,1.5,1.5,0,0,1-.89,2.71Z" transform="translate(-60.79 2.5)"/><path class="cls-2" d="M239.5,604.5a1.5,1.5,0,0,1-1.16-.55,3.88,3.88,0,0,1-.81-3.23,1.5,1.5,0,0,1,2.95.56.86.86,0,0,0,.19.77,1.5,1.5,0,0,1-1.16,2.45Z" transform="translate(-60.79 2.5)"/><path class="cls-2" d="M184.5,419a1.5,1.5,0,0,1-1.48-1.25,8,8,0,0,1,.7-5,1.5,1.5,0,0,1,2.57,1.55,5.2,5.2,0,0,0-.3,3,1.5,1.5,0,0,1-1.23,1.73Z" transform="translate(-60.79 2.5)"/><path class="cls-2" d="M186,431.5a1.5,1.5,0,0,1-1.22-.63,7.49,7.49,0,0,1-1.28-4.41,1.5,1.5,0,1,1,3,.07,4.53,4.53,0,0,0,.72,2.59A1.5,1.5,0,0,1,186,431.5Z" transform="translate(-60.79 2.5)"/><path class="cls-2" d="M192,424.5a1.5,1.5,0,0,1-1.37-.9,14.86,14.86,0,0,1-1.11-3.89,1.5,1.5,0,1,1,3-.42,11.86,11.86,0,0,0,.89,3.11,1.5,1.5,0,0,1-1.37,2.1Z" transform="translate(-60.79 2.5)"/><path class="cls-2" d="M204.5,533h-36a1.5,1.5,0,0,1,0-3h36a1.5,1.5,0,0,1,0,3Z" transform="translate(-60.79 2.5)"/><path class="cls-2" d="M204,549.5H185.5a1.5,1.5,0,0,1,0-3H204a1.5,1.5,0,0,1,0,3Z" transform="translate(-60.79 2.5)"/><path class="cls-2" d="M189.5,578.5c-6,0-12.13-.13-18-.25s-12-.25-18-.25a1.5,1.5,0,0,1,0-3c6,0,12.13.13,18,.25s12,.25,18,.25a1.5,1.5,0,0,1,0,3Z" transform="translate(-60.79 2.5)"/><path class="cls-2" d="M194.74,597.1c-1.16,0-2.31,0-3.45-.05s-2.2,0-3.29,0a1.5,1.5,0,0,1,0-3h0c1.11,0,2.23,0,3.36,0a47.35,47.35,0,0,0,10.34-.52,1.5,1.5,0,0,1,.6,2.94A37.75,37.75,0,0,1,194.74,597.1Z" transform="translate(-60.79 2.5)"/><path class="cls-2" d="M204.57,643.61c-1.36,0-2.93-.29-3.46-1.53a1.5,1.5,0,0,1,2.52-1.56,6.25,6.25,0,0,0,2.15,0,1.5,1.5,0,0,1,.43,3A11.65,11.65,0,0,1,204.57,643.61Zm-.69-2.69h0Z" transform="translate(-60.79 2.5)"/><path class="cls-2" d="M224.41,412a4.41,4.41,0,0,1-2.14-.58,4.94,4.94,0,0,1-2.65-4c-.63-6.22,8.66-15.66,10.4-17.13a1.5,1.5,0,0,1,2.47,1.11c.19,7.81-1.82,17.46-5.91,19.94A4.16,4.16,0,0,1,224.41,412Zm5-16.86c-3.19,3.51-7.12,8.94-6.81,12a2,2,0,0,0,1.11,1.64,1.14,1.14,0,0,0,1.3,0C227.15,407.56,229,401.53,229.42,395.18Z" transform="translate(-60.79 2.5)"/><path class="cls-2" d="M226.47,442.05a3.21,3.21,0,0,1-2.82-1.63c-2.75-4.65,2.88-20.07,5.89-22.57a1.5,1.5,0,0,1,2.45,1.29,49.5,49.5,0,0,0,.16,7c.44,6.71.89,13.65-3.83,15.5A5.05,5.05,0,0,1,226.47,442.05ZM229,424.37c-2.07,4.91-4,12.42-2.8,14.52.07.11.18.3,1,0,2.69-1.05,2.27-7.41,1.94-12.52C229.11,425.68,229.07,425,229,424.37Z" transform="translate(-60.79 2.5)"/><g class="cls-14"><path class="cls-2" d="M659,528.67a1,1,0,0,1-.06-2l1.29-.08c4.56-.29,8.88-.57,13.44-.59h0a1,1,0,0,1,0,2c-4.5,0-8.79.29-13.32.58l-1.29.08Z" transform="translate(-60.79 2.5)"/></g><g class="cls-14"><path class="cls-2" d="M680.33,545.33H669.67a1,1,0,0,1,0-2h10.67a1,1,0,0,1,0,2Z" transform="translate(-60.79 2.5)"/></g><g class="cls-14"><path class="cls-2" d="M638.33,570H633a1,1,0,0,1,0-2h5.33a1,1,0,0,1,0,2Z" transform="translate(-60.79 2.5)"/></g><g class="cls-14"><path class="cls-2" d="M421,664.7c-.45,0-.91,0-1.36,0a1,1,0,0,1,.1-2,43.87,43.87,0,0,0,6.81-.34c1.22-.12,2.49-.25,3.75-.32a1,1,0,0,1,1.06.94,1,1,0,0,1-.94,1.06c-1.22.07-2.46.2-3.66.32A57,57,0,0,1,421,664.7Z" transform="translate(-60.79 2.5)"/></g><g class="cls-14"><path class="cls-2" d="M457.67,654a1,1,0,0,1-.36-1.93c3.28-1.27,7.31-1.07,11.22-.87,1.35.07,2.62.13,3.81.13a1,1,0,0,1,0,2c-1.25,0-2.54-.07-3.91-.14-3.69-.19-7.51-.38-10.39.74A1,1,0,0,1,457.67,654Z" transform="translate(-60.79 2.5)"/></g><g class="cls-14"><path class="cls-2" d="M503,674H490.33a1,1,0,1,1,0-2H503a1,1,0,0,1,0,2Z" transform="translate(-60.79 2.5)"/></g><g class="cls-14"><path class="cls-2" d="M340.77,690.77a22.36,22.36,0,0,1-6-.81,1,1,0,1,1,.54-1.93,21.35,21.35,0,0,0,7.64.63,1,1,0,0,1,.19,2Q341.92,690.77,340.77,690.77Z" transform="translate(-60.79 2.5)"/></g><g class="cls-14"><path class="cls-2" d="M393,700h-8a1,1,0,0,1,0-2h8a1,1,0,0,1,0,2Z" transform="translate(-60.79 2.5)"/></g><g class="cls-14"><path class="cls-2" d="M645,630.67h-7.33a1,1,0,0,1,0-2H645a1,1,0,0,1,0,2Z" transform="translate(-60.79 2.5)"/></g><g class="cls-14"><path class="cls-2" d="M731,508.67h-2.67a1,1,0,0,1,0-2H731a1,1,0,0,1,0,2Z" transform="translate(-60.79 2.5)"/></g><g class="cls-14"><path class="cls-2" d="M630.33,513.33a1,1,0,0,1-.35-1.94,11.21,11.21,0,0,1,4.38-.73,1,1,0,0,1,1,1,1,1,0,0,1-1,1,9.37,9.37,0,0,0-3.62.6A1,1,0,0,1,630.33,513.33Z" transform="translate(-60.79 2.5)"/></g><g class="cls-14"><path class="cls-2" d="M753,472h-2.67a1,1,0,1,1,0-2H753a1,1,0,0,1,0,2Z" transform="translate(-60.79 2.5)"/></g><g class="cls-14"><path class="cls-2" d="M765.67,446H763a1,1,0,0,1,0-2h2.67a1,1,0,1,1,0,2Z" transform="translate(-60.79 2.5)"/></g><g class="cls-14"><path class="cls-2" d="M111,505.33h-5.33a1,1,0,1,1,0-2H111a1,1,0,0,1,0,2Z" transform="translate(-60.79 2.5)"/></g><g class="cls-14"><path class="cls-2" d="M144.33,500.67h-4a1,1,0,1,1,0-2h4a1,1,0,0,1,0,2Z" transform="translate(-60.79 2.5)"/></g><g class="cls-14"><path class="cls-2" d="M120.56,518.83a7.62,7.62,0,0,1-4.12-1,1,1,0,0,1,1.14-1.65,7.18,7.18,0,0,0,4.58.51,1,1,0,1,1,.38,2A10.47,10.47,0,0,1,120.56,518.83Z" transform="translate(-60.79 2.5)"/></g></g><g id="LINEART"><path class="cls-15" d="M145.95,176.85" transform="translate(-60.79 2.5)"/><path class="cls-2" d="M255.72,395.42a2.5,2.5,0,0,1-.07-5c14.6-.4,26.34-2.39,38.77-4.49a316.57,316.57,0,0,1,34.2-4.45,2.5,2.5,0,0,1,.32,5,312.48,312.48,0,0,0-33.68,4.38c-12,2-24.51,4.16-39.46,4.56Z" transform="translate(-60.79 2.5)"/><path class="cls-2" d="M365,378.9a2.5,2.5,0,0,1-1.06-4.76c5.28-2.48,9.35-5.59,13.65-8.88a95.33,95.33,0,0,1,12-8.2,2.5,2.5,0,0,1,2.42,4.38,91.32,91.32,0,0,0-11.39,7.8c-4.33,3.31-8.8,6.72-14.56,9.43A2.49,2.49,0,0,1,365,378.9Z" transform="translate(-60.79 2.5)"/><path class="cls-2" d="M371.49,408.63a13.15,13.15,0,0,1-1.43-.08,12.82,12.82,0,0,1-8.47-4.94,9.18,9.18,0,0,1-1.83-7.18c1.23-6.66,9.76-7.66,14.6-7.21h0a9.63,9.63,0,0,1,4.79,1.55,8.4,8.4,0,0,1,3.17,7.19,11.07,11.07,0,0,1-6.4,9.79A11.23,11.23,0,0,1,371.49,408.63Zm.79-14.5c-3.31,0-7.17.89-7.6,3.21a4.26,4.26,0,0,0,.92,3.28,7.71,7.71,0,0,0,5,3,6.7,6.7,0,0,0,3.36-.42,6.08,6.08,0,0,0,3.38-5.35,3.59,3.59,0,0,0-1.08-3,5.2,5.2,0,0,0-2.35-.64h0C373.39,394.15,372.85,394.13,372.29,394.13Z" transform="translate(-60.79 2.5)"/><path class="cls-2" d="M363.66,424.5a11.22,11.22,0,0,1-7.68-3,12.76,12.76,0,0,1-3.34-12.21,15.39,15.39,0,0,1,7.71-9.63,2.5,2.5,0,0,1,2.39,4.39,10.53,10.53,0,0,0-5.24,6.45,7.79,7.79,0,0,0,1.94,7.37,6.05,6.05,0,0,0,6.84,1,13.26,13.26,0,0,0,1.65-1.22,18.82,18.82,0,0,1,2.06-1.53c3.61-2.23,8-2,11.37-1.58,1.91.24,4,.51,5-.3s.89-3.23,0-5c-1.06-2.1-5.27-5.48-8-6.77a2.5,2.5,0,0,1,2.15-4.51c3.08,1.47,8.52,5.54,10.28,9s2,8.39-1.34,11.12c-2.66,2.14-6.14,1.7-8.68,1.37s-5.91-.53-8.19.87a14.67,14.67,0,0,0-1.52,1.14,17.46,17.46,0,0,1-2.31,1.68A10.19,10.19,0,0,1,363.66,424.5Z" transform="translate(-60.79 2.5)"/><path class="cls-2" d="M376.27,435a8.13,8.13,0,0,1-4-1,13,13,0,0,1-3.16-2.74,12,12,0,0,1-1.82-2.39c-1.18-2.18-2.32-5.7-2-8.26a2.5,2.5,0,1,1,5,.56,11.53,11.53,0,0,0,1.46,5.31,8.1,8.1,0,0,0,1.12,1.4,8.88,8.88,0,0,0,1.92,1.75,4,4,0,0,0,4-.44,6.94,6.94,0,0,0,2.53-4.42,20.49,20.49,0,0,0-.59-7,2.5,2.5,0,1,1,4.89-1,24.37,24.37,0,0,1,.62,8.94,11.8,11.8,0,0,1-4.51,7.58A9.3,9.3,0,0,1,376.27,435Z" transform="translate(-60.79 2.5)"/><path class="cls-2" d="M388.38,410.24a2.5,2.5,0,0,1-.38-5c5.57-.87,10.41-5.64,12.34-12.16,2.08-7,.34-14.44-1.48-19.41a28.74,28.74,0,0,0-3.29-6.64c-4.09-5.88-11.69-9.55-19.85-9.6h-.15c-9,0-17,4.08-22.08,7.51a2.5,2.5,0,0,1-2.79-4.15c8.19-5.51,16.84-8.38,25-8.36,9.76,0,18.92,4.55,23.93,11.74a33.58,33.58,0,0,1,3.88,7.78c3,8.15,3.54,16,1.58,22.56-2.48,8.36-8.9,14.52-16.37,15.68Z" transform="translate(-60.79 2.5)"/><path class="cls-2" d="M291.58,645.16a94,94,0,0,1-26.67-3.83,95.29,95.29,0,0,1-38-21.85c-11.07-10.39-14.37-23.33-16.28-35.77a40.63,40.63,0,0,1,0-12.24,2.5,2.5,0,0,1,5,.53,35.69,35.69,0,0,0,0,11c2.05,13.35,5.35,24,14.76,32.88a89.3,89.3,0,0,0,82.71,21.78c2-.48,4-.93,6-1.37,10.24-2.28,19.91-4.44,28.15-10.85a2.5,2.5,0,0,1,3.07,3.95c-9.13,7.1-19.33,9.38-30.14,11.79-2,.44-3.95.88-5.94,1.36A97.5,97.5,0,0,1,291.58,645.16Z" transform="translate(-60.79 2.5)"/><path class="cls-2" d="M200.22,497.51a2.5,2.5,0,0,1-2.21-1.33c-2.34-4.4-4.81-8.85-7.19-13.15-2.67-4.82-5.43-9.81-8-14.76-6.07-11.51-11.81-24-12.76-37.34-1-13.78,3-28.47,12.17-44.91,4.35-7.8,8.33-13.25,12.9-17.67a67.46,67.46,0,0,1,17.65-11.86c27.92-13.6,60.15-14.28,88-13.15,28.91,1.17,48.72,11.29,66.24,33.85a2.5,2.5,0,1,1-3.95,3.07c-16.52-21.27-35.21-30.82-62.49-31.92s-58.7-.46-85.61,12.65a62.58,62.58,0,0,0-16.36,11c-4.2,4.06-7.9,9.15-12,16.51C177.87,404,174.09,417.8,175,430.58c.88,12.41,6.39,24.33,12.2,35.36,2.59,4.91,5.34,9.87,8,14.67,2.39,4.32,4.87,8.79,7.23,13.22a2.5,2.5,0,0,1-2.21,3.68Z" transform="translate(-60.79 2.5)"/><path class="cls-2" d="M261.89,349a2.49,2.49,0,0,1-1.67-.64,4.61,4.61,0,0,1-1.32-3.69,34.16,34.16,0,0,1,.75-6.35,12.71,12.71,0,0,1,2-5,8.89,8.89,0,0,1,9.85-3.06c3,1.06,5.42,3.7,7.23,8.08a43.72,43.72,0,0,1,2,5.84,2.5,2.5,0,0,1-4.84,1.25,38.8,38.8,0,0,0-1.73-5.17c-1.24-3-2.63-4.71-4.25-5.28a3.88,3.88,0,0,0-4.19,1.3,8.26,8.26,0,0,0-1.17,3.09,29.18,29.18,0,0,0-.64,5.42c0,.09,0,.16,0,.21a2.5,2.5,0,0,1-2,4Zm1.67-4.36h0Z" transform="translate(-60.79 2.5)"/><path class="cls-2" d="M183.89,387.5a2.52,2.52,0,0,1-.41,0c-3.94-.65-7.3-3.73-9.72-8.89-2.67-5.71-3.34-11.18-1.95-15.82,1.62-5.36,7.07-10.44,13.41-9.67,5,.61,8.67,4.6,11.1,7.24l4.87,5.3a2.5,2.5,0,1,1-3.68,3.38l-4.87-5.3c-2.55-2.78-5.08-5.3-8-5.66-3.68-.45-7,2.84-8,6.15-1.31,4.35.2,9.06,1.69,12.25,1.17,2.51,3.17,5.61,6,6.08a2.5,2.5,0,0,1-.41,5Z" transform="translate(-60.79 2.5)"/><path class="cls-2" d="M294.85,448.5A43.45,43.45,0,1,1,338.3,405,43.5,43.5,0,0,1,294.85,448.5Zm0-81.9A38.45,38.45,0,1,0,333.3,405,38.49,38.49,0,0,0,294.85,366.6Z" transform="translate(-60.79 2.5)"/><path class="cls-2" d="M394.52,444.82a2.5,2.5,0,0,1-2.5-2.41c-.18-4.94-.79-11.63-1.59-17.47a4.05,4.05,0,0,1,0-1.16A2.53,2.53,0,0,1,392.5,421a2.46,2.46,0,0,1,2.86,2,4.07,4.07,0,0,1,0,1.28c.82,6,1.44,12.85,1.63,17.9a2.5,2.5,0,0,1-2.41,2.59Zm-4.09-20.91h0Z" transform="translate(-60.79 2.5)"/><path class="cls-2" d="M375.87,636.22a2.5,2.5,0,0,1-2.46-2l-16-84.58a2.5,2.5,0,0,1,4.91-.93l15.56,82L537.75,595,500.12,420.84,344.73,456.22l10,56.84a2.5,2.5,0,0,1-4.92.87l-10.45-59.18a2.5,2.5,0,0,1,1.91-2.87l160.17-36.47a2.5,2.5,0,0,1,3,1.91l38.69,179a2.5,2.5,0,0,1-1.9,3L376.42,636.16A2.45,2.45,0,0,1,375.87,636.22Z" transform="translate(-60.79 2.5)"/><path class="cls-2" d="M542.38,599.64a2.5,2.5,0,0,1-.49-5c23.54-4.76,47.28-10.1,70.61-15.88L578,417l-53.49,1.44c-6.61.18-13.44.36-20.07,1a2.5,2.5,0,0,1-.51-5c6.82-.7,13.74-.89,20.44-1.07L580,411.91a2.46,2.46,0,0,1,2.51,2l35.43,166.24a2.5,2.5,0,0,1-1.84,2.95c-24.16,6-48.78,11.58-73.18,16.51A2.48,2.48,0,0,1,542.38,599.64Z" transform="translate(-60.79 2.5)"/><path class="cls-2" d="M339.58,545.66a2.5,2.5,0,0,1-.67-4.91A92.52,92.52,0,0,1,350.66,539l1.36-.16a2.5,2.5,0,0,1,.57,5l-1.36.15a94.18,94.18,0,0,0-11,1.58A2.5,2.5,0,0,1,339.58,545.66Z" transform="translate(-60.79 2.5)"/><path class="cls-2" d="M365,542.15a2.5,2.5,0,0,1-.41-5c10.27-1.72,16.43-4,18.3-6.92a3.28,3.28,0,0,0,.4-2.81c-1-4-7.08-6.94-18-8.69a2.5,2.5,0,0,1,.79-4.94c8.44,1.36,19.9,4.12,22,12.38a8.33,8.33,0,0,1-1.05,6.79c-2.78,4.27-9.46,7.09-21.67,9.13A2.49,2.49,0,0,1,365,542.15Z" transform="translate(-60.79 2.5)"/><path class="cls-2" d="M353,517.24l-.28,0A200,200,0,0,0,330.45,516a2.5,2.5,0,0,1,0-5,205,205,0,0,1,22.86,1.26,2.5,2.5,0,0,1-.27,5Z" transform="translate(-60.79 2.5)"/><path class="cls-2" d="M374.91,644.09a19.3,19.3,0,0,1-7.71-1.6,35.5,35.5,0,0,1-5.75-3.38l-23.4-15.86a2.5,2.5,0,0,1,2.8-4.14L364.26,635a31.89,31.89,0,0,0,4.94,2.93,14.31,14.31,0,0,0,7.26,1.1,4.63,4.63,0,0,0,2.48-.81c1-.83,1-2.61.47-3.86a2.5,2.5,0,0,1,4.65-1.85c1.39,3.49.62,7.4-1.87,9.52a9.29,9.29,0,0,1-5.17,2A19.23,19.23,0,0,1,374.91,644.09Z" transform="translate(-60.79 2.5)"/><path class="cls-2" d="M224.4,649.13a19.38,19.38,0,0,1-5.42-.75,5.09,5.09,0,0,1-3-2,5.2,5.2,0,0,1-.74-3c.17-10,7.38-17.73,14.76-24.76a2.5,2.5,0,1,1,3.45,3.62c-6.61,6.3-13.07,13.13-13.21,21.23v.08l.14,0c4.2,1.22,9.32.4,14-2.26,4.56-2.56,8.4-6.47,11.86-10.31a2.5,2.5,0,0,1,3.71,3.35c-3.75,4.16-7.94,8.4-13.13,11.32A25.75,25.75,0,0,1,224.4,649.13Zm-4.15-5.26h0Zm-.31-.44Z" transform="translate(-60.79 2.5)"/><path class="cls-2" d="M559.82,416.91a2.5,2.5,0,0,1-2.5-2.5V390.84H404.5a2.5,2.5,0,0,1,0-5H559.82a2.5,2.5,0,0,1,2.5,2.5v26.08A2.5,2.5,0,0,1,559.82,416.91Z" transform="translate(-60.79 2.5)"/><path class="cls-2" d="M447.94,433.1a2.5,2.5,0,0,1-2.5-2.5V388.34a2.5,2.5,0,0,1,5,0V430.6A2.5,2.5,0,0,1,447.94,433.1Z" transform="translate(-60.79 2.5)"/><path class="cls-2" d="M682,484.5H594.42a2.5,2.5,0,1,1,0-5H679.5v-182h-243v90.84a2.5,2.5,0,0,1-5,0V295a2.5,2.5,0,0,1,2.5-2.5H682a2.5,2.5,0,0,1,2.5,2.5V482A2.5,2.5,0,0,1,682,484.5Z" transform="translate(-60.79 2.5)"/><path class="cls-2" d="M682,484.5a2.5,2.5,0,0,1-.66-4.91l62.16-16.93V291.75l-61.27,5.74a2.5,2.5,0,1,1-.47-5l64-6A2.5,2.5,0,0,1,748.5,289V464.57a2.5,2.5,0,0,1-1.84,2.41l-64,17.43A2.52,2.52,0,0,1,682,484.5Z" transform="translate(-60.79 2.5)"/><path class="cls-2" d="M598,297.5a2.5,2.5,0,0,1-2.5-2.5V150.5H417.66v142H434a2.5,2.5,0,0,1,0,5H415.16a2.5,2.5,0,0,1-2.5-2.5V148a2.5,2.5,0,0,1,2.5-2.5H598a2.5,2.5,0,0,1,2.5,2.5V295A2.5,2.5,0,0,1,598,297.5Z" transform="translate(-60.79 2.5)"/><path class="cls-2" d="M670.74,151.74h0L598,150.5a2.5,2.5,0,1,1,.09-5l72.74,1.24a2.5,2.5,0,0,1,0,5Z" transform="translate(-60.79 2.5)"/><path class="cls-2" d="M695.88,296.2a2.5,2.5,0,0,1-2.5-2.5V177.1a2.5,2.5,0,0,1,5,0V293.7A2.5,2.5,0,0,1,695.88,296.2Z" transform="translate(-60.79 2.5)"/><path class="cls-2" d="M604,150.5a2.5,2.5,0,0,1-2.5-2.5V16L541.5,3.1V148a2.5,2.5,0,0,1-5,0V0a2.5,2.5,0,0,1,.93-1.94,2.5,2.5,0,0,1,2.1-.5l65,14a2.5,2.5,0,0,1,2,2.44V148A2.5,2.5,0,0,1,604,150.5Z" transform="translate(-60.79 2.5)"/><path class="cls-2" d="M400,30.5a2.5,2.5,0,0,1-2.5-2.5V5a2.5,2.5,0,0,1,2.41-2.5l139-5A2.51,2.51,0,0,1,541.5-.09a2.5,2.5,0,0,1-2.41,2.59L402.5,7.41V28A2.5,2.5,0,0,1,400,30.5Z" transform="translate(-60.79 2.5)"/><path class="cls-2" d="M415.16,179.6H289.78l-68-5.1A2.5,2.5,0,0,1,219.5,172V46a2.5,2.5,0,0,1,2-2.45l68-14a2.49,2.49,0,0,1,.5-.05H427a2.5,2.5,0,0,1,2.5,2.5V148a2.5,2.5,0,0,1-5,0V34.5H290.25L224.5,48V169.68l65.56,4.92h125.1a2.5,2.5,0,0,1,0,5Z" transform="translate(-60.79 2.5)"/><path class="cls-2" d="M290,179.6h0a2.5,2.5,0,0,1-2.5-2.5l0-145.1a2.5,2.5,0,0,1,2.5-2.5h0a2.5,2.5,0,0,1,2.5,2.5l0,145.1A2.5,2.5,0,0,1,290,179.6Z" transform="translate(-60.79 2.5)"/><path class="cls-2" d="M290,316.5H139a2.5,2.5,0,0,1-2.5-2.5V177.1a2.5,2.5,0,0,1,2.41-2.5L242,171a2.5,2.5,0,1,1,.17,5L141.5,179.51v132h146l0-59.5a2.5,2.5,0,0,1,.74-1.77,2.38,2.38,0,0,1,1.78-.72l125.16,1a2.5,2.5,0,1,1,0,5l-122.64-1,0,59.48A2.5,2.5,0,0,1,290,316.5Z" transform="translate(-60.79 2.5)"/><path class="cls-2" d="M199.36,316.5a2.5,2.5,0,0,1-2.5-2.5V175a2.5,2.5,0,0,1,5,0V314A2.5,2.5,0,0,1,199.36,316.5Z" transform="translate(-60.79 2.5)"/><path class="cls-2" d="M415.16,324.62H144l-.3,0L77,316.48a2.5,2.5,0,0,1,.3-5H139a2.5,2.5,0,0,1,0,5H118.54l25.61,3.12H369.87l-28.15-3.12H290a2.5,2.5,0,0,1,0-5h51.88l.27,0,73.31,8.12a2.5,2.5,0,0,1-.28,5Z" transform="translate(-60.79 2.5)"/><path class="cls-2" d="M195.71,489.21H139a2.51,2.51,0,0,1-.5-.05L76.81,476.45a2.5,2.5,0,0,1-2-2.45V314a2.5,2.5,0,0,1,5,0V472l59.44,12.25h56.46a2.5,2.5,0,0,1,0,5Z" transform="translate(-60.79 2.5)"/><path class="cls-2" d="M144,489.21a2.5,2.5,0,0,1-2.5-2.5V322.12a2.5,2.5,0,0,1,5,0v164.6A2.5,2.5,0,0,1,144,489.21Z" transform="translate(-60.79 2.5)"/><path class="cls-2" d="M415.16,391a2.5,2.5,0,0,1-2.5-2.5V322.12a2.5,2.5,0,0,1,5,0V388.5A2.5,2.5,0,0,1,415.16,391Z" transform="translate(-60.79 2.5)"/><circle class="cls-2" cx="268" cy="397.88" r="4.97"/><circle class="cls-2" cx="332.92" cy="374.31" r="4.97"/><path class="cls-2" d="M746,291.5l-.33,0-50.12-6.6a2.5,2.5,0,1,1,.65-5l50.12,6.6a2.5,2.5,0,0,1-.32,5Z" transform="translate(-60.79 2.5)"/><path class="cls-2" d="M260.2,516c-11.18,0-22.1-.85-32.78-1.67-5.72-.44-11.25-1.28-17.79-2.41-.42-.07-1.15-.13-1.93-.2-3.83-.31-6.88-.7-8.48-2.55-2.33-2.7-2.49-14.1-2.49-14.21a2.5,2.5,0,0,1,.76-1.78,2.43,2.43,0,0,1,1.81-.7,86.45,86.45,0,0,1,11.45,1.34c2.72.44,5.53.9,8.3,1.14,2.19.19,4.39.43,6.52.67,2.37.27,4.82.54,7.24.73,11.37.88,23.05.62,37.87-.85,4.78-.47,9.53-.91,14.27-1.34,8.69-.79,17.68-1.62,26.58-2.67,6.31-.75,12-1.48,17.45-2.22,4.9-.67,9.64-1.59,14.23-2.48l3-.57a2.5,2.5,0,0,1,.94,4.91l-3,.57c-4.65.9-9.46,1.83-14.5,2.52-5.46.75-11.2,1.48-17.54,2.23-9,1.06-18,1.89-26.71,2.69-4.73.43-9.47.87-14.23,1.34-15.12,1.5-27.08,1.76-38.75.86-2.5-.19-5-.47-7.41-.74-2.1-.23-4.26-.48-6.39-.66-3-.25-5.88-.73-8.69-1.18s-5.43-.89-8.12-1.12c.21,3.07.69,7.15,1.22,8.31.74.45,3.75.69,5.05.8.93.08,1.73.14,2.37.25,6.4,1.1,11.79,1.92,17.33,2.35,16.15,1.25,32.85,2.55,49.94.84,3.43-.34,7-.56,10.36-.78,4.63-.29,9.41-.59,14-1.2,3.91-.53,7.81-1.15,11.58-1.76a221.82,221.82,0,0,1,23.71-2.93c2.85-.15,5.73-.1,8.52-.05,1.38,0,2.75,0,4.11,0a2.5,2.5,0,0,1,0,5c-1.39,0-2.8,0-4.2,0-2.7,0-5.49-.1-8.17,0a215,215,0,0,0-23.18,2.88c-3.81.61-7.74,1.25-11.71,1.78-4.73.63-9.6.94-14.31,1.23-3.36.21-6.84.43-10.18.76C272.16,515.75,266.14,516,260.2,516Zm-57.09-10Z" transform="translate(-60.79 2.5)"/><path class="cls-2" d="M312.32,579.89q-1.43,0-2.86,0c-15-.5-31.12-1.47-50.81-3.05-3.23-.26-6.56-.34-9.77-.42-3.72-.09-7.57-.19-11.4-.55a74,74,0,0,1-8.77-1.55c-2-.44-4.12-.9-6.18-1.21a55.21,55.21,0,0,0-9.94-.29c-2.27.07-4.62.13-7,0a2.5,2.5,0,0,1-2.38-2.36c-.21-3.82-.29-8.26,1.5-12.54a66.07,66.07,0,0,0,3.9-11.72,3.41,3.41,0,0,0-.06-2.55l-.09-.07a4.08,4.08,0,0,1-1.68-3.3,3.78,3.78,0,0,1,1.78-2.78l.12-.09c1.49-5.19-.17-11.18-1.78-17a76.62,76.62,0,0,1-2.05-8.66,2.5,2.5,0,0,1,4.94-.76,71.94,71.94,0,0,0,1.93,8.08c1.86,6.69,3.78,13.6,1.57,20.34a3.23,3.23,0,0,1-.73,1.2,3.74,3.74,0,0,1,.63,1.13,7.77,7.77,0,0,1,.32,5.48,70.61,70.61,0,0,1-4.19,12.63,19.26,19.26,0,0,0-1.21,8c1.44,0,2.85,0,4.33-.08a59.92,59.92,0,0,1,10.83.34c2.22.33,4.4.81,6.51,1.27a69.34,69.34,0,0,0,8.18,1.46c3.64.35,7.4.44,11,.53,3.29.08,6.68.16,10.05.43,19.61,1.58,35.68,2.55,50.57,3,12.67.43,25.17-2.26,37.24-4.86,7.23-1.55,12.09-2.88,14.44-3.93a2.5,2.5,0,0,1,2,4.56c-2.71,1.21-7.75,2.6-15.43,4.25C336.44,577.34,324.6,579.89,312.32,579.89Z" transform="translate(-60.79 2.5)"/><path class="cls-2" d="M372,620.83a2.49,2.49,0,0,1-1.73-.69c-1.32-1.27-2.55-2.67-3.74-4a39,39,0,0,0-5.07-5.14,2.5,2.5,0,0,1,3.07-3.94,43.31,43.31,0,0,1,5.76,5.79c1.17,1.33,2.27,2.59,3.43,3.71a2.5,2.5,0,0,1-1.73,4.31Z" transform="translate(-60.79 2.5)"/><path class="cls-2" d="M357,551.65a5.21,5.21,0,0,1-2.67-1c-5.24-3.3-4.58-11.16-4.14-16.36.07-.8.13-1.54.16-2.18.06-1.23.14-2.47.22-3.7.17-2.67.34-5.43.34-8.11,0-.37-.07-1-.15-1.64-.32-2.75-.76-6.51,1.74-8.64a5,5,0,0,1,2.09-1,4.05,4.05,0,0,1,3.34.57,3.84,3.84,0,0,1,.47-.26,2.5,2.5,0,0,1,3.11.82l.07.09a3.77,3.77,0,0,1,5.15,1c1.64,2.09,1.54,5.24,1.47,7.55,0,.38,0,.72,0,1,0,4.07,0,8.45-.34,12.9,0,.57-.06,1.32-.08,2.17-.17,6.18-.56,11.92-3.51,14.29-.94.76-1.91,1.54-3.26,1.25a2.59,2.59,0,0,1-1.34-.75,2.73,2.73,0,0,1-2.64,2Zm-1.41-37.47a16,16,0,0,0,.13,3.87,20.36,20.36,0,0,1,.18,2.21c0,2.84-.18,5.68-.35,8.43-.08,1.21-.15,2.42-.21,3.64,0,.69-.1,1.49-.17,2.34-.28,3.34-.73,8.69,1.06,11l.18-.14a3.3,3.3,0,0,1,3.06-2,2.86,2.86,0,0,1,2.16.91c.92-2.23,1.07-7.73,1.13-9.73,0-.93,0-1.74.09-2.36.28-4.31.32-8.59.33-12.58,0-.35,0-.75,0-1.18a22.32,22.32,0,0,0-.07-3.18,2.63,2.63,0,0,1-3.27.36,2.5,2.5,0,0,1-3.7-.65l-.09-.14C355.94,514.73,355.76,514.44,355.59,514.19Zm4.89,30.51h0Zm-4.74-30.9h0Zm-1.62-1.9h0Z" transform="translate(-60.79 2.5)"/></g><g id="circle"><path class="cls-2" d="M153.52,177.1A349.71,349.71,0,0,1,222,114.31L221,102a6,6,0,0,0-3.76,1,361.7,361.7,0,0,0-75.95,70.06,6,6,0,0,0-1.31,4.4" transform="translate(-60.79 2.5)"/><path class="cls-2" d="M139.38,195.21A344.77,344.77,0,0,0,72.79,400c0,191.91,156.13,348,348,348s348-156.13,348-348c0-121.6-61.55-232-164.86-296l.87-13a6,6,0,0,1,2.24.81A359.84,359.84,0,0,1,780.86,400,360.13,360.13,0,0,1,89.08,540.14,360.53,360.53,0,0,1,134.23,182a6,6,0,0,1,3.74-2.26Z" transform="translate(-60.79 2.5)"/></g><g id="layers"><g class="cls-10"><path class="cls-8" d="M368.81,388.34l-1.1-23.69s8.48-17.33,8.09-18,6.68-6.06,6.68-6.06l13-1,8.29,1.85,9.82,12.28,7.21,15.07L424.21,386l-4.71,21.73-6.39,11.59-8.61,4.11L390.36,422l-5.08-3.31,3.67-3.79v-5.42l-4-6.79-5.56-2.47-1.51-7.57Z" transform="translate(-60.79 2.5)"/></g><g class="cls-10"><polygon class="cls-8" points="226.66 366.6 237.24 361.46 250.18 361.46 265.7 366.6 279.96 384.01 285.01 395.42 287.35 407.55 286.4 422.15 279.23 440.12 268 452.2 253.91 456.94 235.27 454.47 220.17 446.08 208.28 425.94 205.61 398.57 213.7 378.9 226.66 366.6"/></g><path class="cls-2" d="M426,376.14c-2.08-12-7.08-22.86-14.06-30.5-7.32-8-16-11.61-24.38-10.16s-15.34,7.76-19.54,17.76c-3.34,7.95-4.62,17.52-3.76,27.46a26.09,26.09,0,0,0-17.18,6.73c-8.49-20.91-28.27-34.1-48.45-30.6-23.83,4.13-39.32,30-34.53,57.59,4.35,25.11,24,43.19,45.38,43.19a38.08,38.08,0,0,0,6.5-.56c11.63-2,21.63-9.18,28.14-20.17a55,55,0,0,0,6.39-37.42c-.32-1.87-.74-3.7-1.23-5.49a19.71,19.71,0,0,1,15.78-7.13c.22,1.27.63,3.21.91,4.42a3.06,3.06,0,0,0,6-1.36c-.26-1.15-.67-3.1-.87-4.24-1.89-10.9-1-21.56,2.6-30,3.37-8,8.67-13,14.95-14.1s13,1.85,18.82,8.26c6.2,6.78,10.66,16.52,12.54,27.41,3.81,22-4.06,41.81-17.54,44.14a13,13,0,0,1-3.13.12,23.62,23.62,0,0,1-10.67-3.64,11.5,11.5,0,0,0-1.58-1.14c-.49-.19-1.28.36-1.83.46a9.58,9.58,0,0,0-1.67.32,1.45,1.45,0,0,0-1,1.23,2.66,2.66,0,0,0,.7,1.39,13,13,0,0,1,.83,1.85c.22.45.71.67,1.13.94a28.53,28.53,0,0,0,15.33,4.73,17.49,17.49,0,0,0,3-.24C420.27,424.45,430.38,401.47,426,376.14Zm-87.14,57.62c-5.59,9.43-14.08,15.56-23.92,17.26-20.5,3.55-40.6-13.34-44.81-37.64s9-47,29.55-50.52a32.07,32.07,0,0,1,5.48-.47c18.49,0,35.5,16,39.33,38.11A48.84,48.84,0,0,1,338.85,433.76Z" transform="translate(-60.79 2.5)"/><path class="cls-2" d="M309.47,458.61c-22.09,0-42-18.92-46.37-44-4.88-28.17,11-54.53,35.35-58.75,19.89-3.45,39.86,8.82,49,29.93a27.19,27.19,0,0,1,15.71-6,58.73,58.73,0,0,1,3.92-26.87c4.34-10.33,11.55-16.85,20.3-18.36s17.73,2.2,25.29,10.47c7.11,7.77,12.19,18.78,14.3,31h0c4.48,25.87-6,49.37-23.34,52.37a18.5,18.5,0,0,1-3.14.25,29.35,29.35,0,0,1-15.87-4.89l-.23-.14a3,3,0,0,1-1.25-1.2c-.13-.27-.23-.54-.33-.81a4.14,4.14,0,0,0-.42-.92l-.16-.22a2.91,2.91,0,0,1-.72-1.74,2.4,2.4,0,0,1,1.67-2.16,5.81,5.81,0,0,1,1.34-.29l.5-.07a3.31,3.31,0,0,0,.46-.17,2.52,2.52,0,0,1,1.92-.24,4.9,4.9,0,0,1,1.26.85,5.44,5.44,0,0,0,.5.39,21.77,21.77,0,0,0,3.33,1.76,21.47,21.47,0,0,0,6.86,1.72,12,12,0,0,0,2.89-.11c12.94-2.24,20.45-21.52,16.73-43-1.85-10.71-6.22-20.27-12.3-26.91-5.63-6.15-12-9-17.91-7.95s-11,5.82-14.2,13.51c-3.49,8.3-4.39,18.77-2.53,29.48.2,1.14.6,3.06.86,4.19a4.06,4.06,0,1,1-7.91,1.81c-.22-1-.53-2.43-.77-3.66a18.76,18.76,0,0,0-13.84,6.39c.45,1.71.82,3.41,1.11,5.07a56,56,0,0,1-6.51,38.1C338.31,448.64,328.07,456,316.15,458A39.24,39.24,0,0,1,309.47,458.61Zm-4.33-101.34a37.16,37.16,0,0,0-6.35.55c-23.28,4-38.41,29.35-33.72,56.44,4.18,24.15,23.27,42.36,44.4,42.36a37.25,37.25,0,0,0,6.33-.54c11.34-2,21.09-9,27.45-19.69a54,54,0,0,0,6.26-36.74c-.31-1.77-.71-3.58-1.21-5.4l-.14-.5.32-.4a20.76,20.76,0,0,1,16.59-7.5l.81,0,.14.79c.23,1.3.63,3.22.9,4.37a2.06,2.06,0,0,0,2.47,1.55,2.06,2.06,0,0,0,1.55-2.47c-.27-1.16-.68-3.13-.88-4.3-1.92-11.08-1-21.95,2.66-30.59,3.5-8.33,9.08-13.56,15.7-14.7s13.62,1.89,19.73,8.57C414.49,356,419,365.93,420.95,377c3.9,22.55-4.33,42.87-18.36,45.3a14,14,0,0,1-3.37.13,23.47,23.47,0,0,1-7.5-1.87,23.81,23.81,0,0,1-3.64-1.93,7.5,7.5,0,0,1-.69-.53,5.15,5.15,0,0,0-.63-.48,4.85,4.85,0,0,0-.5.19,4.3,4.3,0,0,1-.86.29l-.6.09a4.18,4.18,0,0,0-.89.18.65.65,0,0,0-.38.3,1.91,1.91,0,0,0,.33.55l.19.27a5.89,5.89,0,0,1,.65,1.35c.08.21.16.42.26.63a1.78,1.78,0,0,0,.49.36l.29.18a27.71,27.71,0,0,0,14.78,4.57,16.5,16.5,0,0,0,2.8-.22c16.26-2.82,26-25.27,21.71-50.06h0c-2.05-11.85-7-22.5-13.81-30-7.08-7.75-15.42-11.24-23.47-9.85S373,344,368.94,353.64c-3.27,7.78-4.54,17.11-3.68,27l.09,1.08h-1.09a25.09,25.09,0,0,0-16.52,6.47l-1.06,1-.54-1.33C338.55,369.1,322.28,357.27,305.14,357.27Zm4.32,95.22c-19,0-36.41-16.32-40.32-38.94-4.3-24.85,9.32-48,30.36-51.67a33.19,33.19,0,0,1,5.65-.49c19.14,0,36.48,16.74,40.32,38.94a49.84,49.84,0,0,1-5.75,33.94C334,444,325.23,450.25,315.1,452A33,33,0,0,1,309.46,452.49Zm-4.31-89.1a31.2,31.2,0,0,0-5.31.46c-20,3.46-32.85,25.6-28.73,49.36S294.8,453.49,314.76,450c9.55-1.65,17.8-7.61,23.23-16.79h0a47.84,47.84,0,0,0,5.5-32.58C339.81,379.42,323.32,363.39,305.14,363.39Z" transform="translate(-60.79 2.5)"/><path class="cls-2" d="M371.49,408.63a13.15,13.15,0,0,1-1.43-.08,12.82,12.82,0,0,1-8.47-4.94,9.18,9.18,0,0,1-1.83-7.18c1.23-6.66,9.76-7.66,14.6-7.21h0a9.63,9.63,0,0,1,4.79,1.55,8.4,8.4,0,0,1,3.17,7.19,11.07,11.07,0,0,1-6.4,9.79A11.23,11.23,0,0,1,371.49,408.63Zm.79-14.5c-3.31,0-7.17.89-7.6,3.21a4.26,4.26,0,0,0,.92,3.28,7.71,7.71,0,0,0,5,3,6.7,6.7,0,0,0,3.36-.42,6.08,6.08,0,0,0,3.38-5.35,3.59,3.59,0,0,0-1.08-3,5.2,5.2,0,0,0-2.35-.64h0C373.39,394.15,372.85,394.13,372.29,394.13Z" transform="translate(-60.79 2.5)"/><path class="cls-2" d="M363.66,424.5a11.22,11.22,0,0,1-7.68-3,12.76,12.76,0,0,1-3.34-12.21,15.39,15.39,0,0,1,7.71-9.63,2.5,2.5,0,0,1,2.39,4.39,10.53,10.53,0,0,0-5.24,6.45,7.79,7.79,0,0,0,1.94,7.37,6.05,6.05,0,0,0,6.84,1,13.26,13.26,0,0,0,1.65-1.22,18.82,18.82,0,0,1,2.06-1.53c3.61-2.23,8-2,11.37-1.58,1.91.24,4,.51,5-.3s.89-3.23,0-5c-1.06-2.1-5.27-5.48-8-6.77a2.5,2.5,0,0,1,2.15-4.51c3.08,1.47,8.52,5.54,10.28,9s2,8.39-1.34,11.12c-2.66,2.14-6.14,1.7-8.68,1.37s-5.91-.53-8.19.87a14.67,14.67,0,0,0-1.52,1.14,17.46,17.46,0,0,1-2.31,1.68A10.19,10.19,0,0,1,363.66,424.5Z" transform="translate(-60.79 2.5)"/><path class="cls-2" d="M376.27,435a8.13,8.13,0,0,1-4-1,13,13,0,0,1-3.16-2.74,12,12,0,0,1-1.82-2.39c-1.18-2.18-2.32-5.7-2-8.26a2.5,2.5,0,1,1,5,.56,11.53,11.53,0,0,0,1.46,5.31,8.1,8.1,0,0,0,1.12,1.4,8.88,8.88,0,0,0,1.92,1.75,4,4,0,0,0,4-.44,6.94,6.94,0,0,0,2.53-4.42,20.49,20.49,0,0,0-.59-7,2.5,2.5,0,1,1,4.89-1,24.37,24.37,0,0,1,.62,8.94,11.8,11.8,0,0,1-4.51,7.58A9.3,9.3,0,0,1,376.27,435Z" transform="translate(-60.79 2.5)"/></g></svg>