<svg xmlns="http://www.w3.org/2000/svg" xmlns:xlink="http://www.w3.org/1999/xlink" width="760" height="160" style="background:#4b4b4b"><style>.N{fill:#d8d8d8}.O{stroke:#979797}.P{fill:#00adff}.Q{stroke-width:1}.R{stroke-width:2}.S{stroke:#f9e900}.U{fill:#44d860}.V{fill:#3ecc5f}.W{fill:#806e6e}.X{fill-rule:nonzero}</style><defs><path id="A" d="M0 47h45V25h11v22h47v7H0z"/><path id="B" d="M47 6h7v20h-7z"/></defs><g fill="none" fill-rule="evenodd"><g opacity=".274"><path d="M189 0h192v149H189z" class="W"/><path d="M199 2h84v19h-84z" class="N"/><path d="M269 11h4v3h-4zm6 0h4v3h-4z" class="P"/><path d="M208 8l7.517 7.517M212.667 8l7.517 7.517M222 8l7.517 7.517M217.333 8l7.517 7.517" class="O Q"/><path d="M199 23h84v19h-84z" class="N"/><path d="M269 32h4v3h-4zm6 0h4v3h-4z" class="P"/><path d="M208 29l7.517 7.517M212.667 29l7.517 7.517M222 29l7.517 7.517M217.333 29l7.517 7.517" class="O Q"/><path d="M199 44h84v19h-84z" class="N"/><path d="M269 53h4v3h-4zm6 0h4v3h-4z" class="P"/><path d="M208 50l7.517 7.517M212.667 50l7.517 7.517M222 50l7.517 7.517M217.333 50l7.517 7.517" class="O Q"/><path d="M199 65h84v19h-84z" class="N"/><path d="M269 74h4v3h-4zm6 0h4v3h-4z" class="P"/><path d="M208 71l7.517 7.517M212.667 71l7.517 7.517M222 71l7.517 7.517M217.333 71l7.517 7.517" class="O Q"/><path d="M199 86h84v19h-84z" class="N"/><path d="M269 95h4v3h-4zm6 0h4v3h-4z" class="P"/><path d="M208 92l7.517 7.517M212.667 92l7.517 7.517M222 92l7.517 7.517M217.333 92l7.517 7.517" class="O Q"/><path d="M199 107h84v19h-84z" class="N"/><path d="M269 116h4v3h-4zm6 0h4v3h-4z" class="P"/><path d="M208 113l7.517 7.517m-2.85-7.517l7.517 7.517M222 113l7.517 7.517M217.333 113l7.517 7.517" class="O Q"/><path d="M199 128h84v19h-84z" class="N"/><path d="M269 137h4v3h-4zm6 0h4v3h-4z" class="P"/><path d="M208 134l7.517 7.517m-2.85-7.517l7.517 7.517M222 134l7.517 7.517M217.333 134l7.517 7.517" class="O Q"/><g class="R"><path d="M192 0v149m0-136h7m-7 21h7m-7 21h7m-7 21h7m-7 21h7m-7 21h7m-7 21h7" class="R S"/><path d="M195 0v149m0-140h6m-6 21h6m-6 21h6m-6 21h6m-6 21h6m-6 21h6m-6 21h6"/></g><path d="M294 2h84v19h-84z" class="N"/><path d="M364 11h4v3h-4zm6 0h4v3h-4z" class="P"/><path d="M303 8l7.517 7.517M307.667 8l7.517 7.517M317 8l7.517 7.517M312.333 8l7.517 7.517" class="O Q"/><path d="M294 23h84v19h-84z" class="N"/><path d="M364 32h4v3h-4zm6 0h4v3h-4z" class="P"/><path d="M303 29l7.517 7.517M307.667 29l7.517 7.517M317 29l7.517 7.517M312.333 29l7.517 7.517" class="O Q"/><path d="M294 44h84v19h-84z" class="N"/><path d="M364 53h4v3h-4zm6 0h4v3h-4z" class="P"/><path d="M303 50l7.517 7.517M307.667 50l7.517 7.517M317 50l7.517 7.517M312.333 50l7.517 7.517" class="O Q"/><path d="M294 65h84v19h-84z" class="N"/><path d="M364 74h4v3h-4zm6 0h4v3h-4z" class="P"/><path d="M303 71l7.517 7.517M307.667 71l7.517 7.517M317 71l7.517 7.517M312.333 71l7.517 7.517" class="O Q"/><path d="M294 86h84v19h-84z" class="N"/><path d="M364 95h4v3h-4zm6 0h4v3h-4z" class="P"/><path d="M303 92l7.517 7.517M307.667 92l7.517 7.517M317 92l7.517 7.517M312.333 92l7.517 7.517" class="O Q"/><path d="M294 107h84v19h-84z" class="N"/><path d="M364 116h4v3h-4zm6 0h4v3h-4z" class="P"/><path d="M303 113l7.517 7.517m-2.85-7.517l7.517 7.517M317 113l7.517 7.517M312.333 113l7.517 7.517" class="O Q"/><path d="M294 128h84v19h-84z" class="N"/><path d="M364 137h4v3h-4zm6 0h4v3h-4z" class="P"/><path d="M303 134l7.517 7.517m-2.85-7.517l7.517 7.517M317 134l7.517 7.517M312.333 134l7.517 7.517" class="O Q"/><g class="R"><path d="M287 0v149m0-136h7m-7 21h7m-7 21h7m-7 21h7m-7 21h7m-7 21h7m-7 21h7" class="R S"/><path d="M290 0v149m0-140h6m-6 21h6m-6 21h6m-6 21h6m-6 21h6m-6 21h6m-6 21h6"/></g></g><g opacity=".274"><path d="M378 0h192v149H378z" class="W"/><path d="M388 2h84v19h-84z" class="N"/><path d="M458 11h4v3h-4zm6 0h4v3h-4z" class="P"/><path d="M397 8l7.517 7.517M401.667 8l7.517 7.517M411 8l7.517 7.517M406.333 8l7.517 7.517" class="O Q"/><path d="M388 23h84v19h-84z" class="N"/><path d="M458 32h4v3h-4zm6 0h4v3h-4z" class="P"/><path d="M397 29l7.517 7.517M401.667 29l7.517 7.517M411 29l7.517 7.517M406.333 29l7.517 7.517" class="O Q"/><path d="M388 44h84v19h-84z" class="N"/><path d="M458 53h4v3h-4zm6 0h4v3h-4z" class="P"/><path d="M397 50l7.517 7.517M401.667 50l7.517 7.517M411 50l7.517 7.517M406.333 50l7.517 7.517" class="O Q"/><path d="M388 65h84v19h-84z" class="N"/><path d="M458 74h4v3h-4zm6 0h4v3h-4z" class="P"/><path d="M397 71l7.517 7.517M401.667 71l7.517 7.517M411 71l7.517 7.517M406.333 71l7.517 7.517" class="O Q"/><path d="M388 86h84v19h-84z" class="N"/><path d="M458 95h4v3h-4zm6 0h4v3h-4z" class="P"/><path d="M397 92l7.517 7.517M401.667 92l7.517 7.517M411 92l7.517 7.517M406.333 92l7.517 7.517" class="O Q"/><path d="M388 107h84v19h-84z" class="N"/><path d="M458 116h4v3h-4zm6 0h4v3h-4z" class="P"/><path d="M397 113l7.517 7.517m-2.85-7.517l7.517 7.517M411 113l7.517 7.517M406.333 113l7.517 7.517" class="O Q"/><path d="M388 128h84v19h-84z" class="N"/><path d="M458 137h4v3h-4zm6 0h4v3h-4z" class="P"/><path d="M397 134l7.517 7.517m-2.85-7.517l7.517 7.517M411 134l7.517 7.517M406.333 134l7.517 7.517" class="O Q"/><g class="R"><path d="M381 0v149m0-136h7m-7 21h7m-7 21h7m-7 21h7m-7 21h7m-7 21h7m-7 21h7" class="R S"/><path d="M384 0v149m0-140h6m-6 21h6m-6 21h6m-6 21h6m-6 21h6m-6 21h6m-6 21h6"/></g><path d="M483 2h84v19h-84z" class="N"/><path d="M553 11h4v3h-4zm6 0h4v3h-4z" class="P"/><path d="M492 8l7.517 7.517M496.667 8l7.517 7.517M506 8l7.517 7.517M501.333 8l7.517 7.517" class="O Q"/><path d="M483 23h84v19h-84z" class="N"/><path d="M553 32h4v3h-4zm6 0h4v3h-4z" class="P"/><path d="M492 29l7.517 7.517M496.667 29l7.517 7.517M506 29l7.517 7.517M501.333 29l7.517 7.517" class="O Q"/><path d="M483 44h84v19h-84z" class="N"/><path d="M553 53h4v3h-4zm6 0h4v3h-4z" class="P"/><path d="M492 50l7.517 7.517M496.667 50l7.517 7.517M506 50l7.517 7.517M501.333 50l7.517 7.517" class="O Q"/><path d="M483 65h84v19h-84z" class="N"/><path d="M553 74h4v3h-4zm6 0h4v3h-4z" class="P"/><path d="M492 71l7.517 7.517M496.667 71l7.517 7.517M506 71l7.517 7.517M501.333 71l7.517 7.517" class="O Q"/><path d="M483 86h84v19h-84z" class="N"/><path d="M553 95h4v3h-4zm6 0h4v3h-4z" class="P"/><path d="M492 92l7.517 7.517M496.667 92l7.517 7.517M506 92l7.517 7.517M501.333 92l7.517 7.517" class="O Q"/><path d="M483 107h84v19h-84z" class="N"/><path d="M553 116h4v3h-4zm6 0h4v3h-4z" class="P"/><path d="M492 113l7.517 7.517m-2.85-7.517l7.517 7.517M506 113l7.517 7.517M501.333 113l7.517 7.517" class="O Q"/><path d="M483 128h84v19h-84z" class="N"/><path d="M553 137h4v3h-4zm6 0h4v3h-4z" class="P"/><path d="M492 134l7.517 7.517m-2.85-7.517l7.517 7.517M506 134l7.517 7.517M501.333 134l7.517 7.517" class="O Q"/><g class="R"><path d="M476 0v149m0-136h7m-7 21h7m-7 21h7m-7 21h7m-7 21h7m-7 21h7m-7 21h7" class="R S"/><path d="M479 0v149m0-140h6m-6 21h6m-6 21h6m-6 21h6m-6 21h6m-6 21h6m-6 21h6"/></g></g><path d="M0 0h192v149H0z" class="W"/><path d="M10 2h84v19H10z" class="N"/><path d="M80 11h4v3h-4zm6 0h4v3h-4z" class="P"/><path d="M19 8l7.517 7.517M23.667 8l7.517 7.517M33 8l7.517 7.517M28.333 8l7.517 7.517" class="O Q"/><path d="M10 23h84v19H10z" class="N"/><path d="M80 32h4v3h-4zm6 0h4v3h-4z" class="P"/><path d="M19 29l7.517 7.517M23.667 29l7.517 7.517M33 29l7.517 7.517M28.333 29l7.517 7.517" class="O Q"/><path d="M10 44h84v19H10z" class="N"/><path d="M80 53h4v3h-4zm6 0h4v3h-4z" class="P"/><path d="M19 50l7.517 7.517M23.667 50l7.517 7.517M33 50l7.517 7.517M28.333 50l7.517 7.517" class="O Q"/><path d="M10 65h84v19H10z" class="N"/><path d="M80 74h4v3h-4zm6 0h4v3h-4z" class="P"/><path d="M19 71l7.517 7.517M23.667 71l7.517 7.517M33 71l7.517 7.517M28.333 71l7.517 7.517" class="O Q"/><path d="M10 86h84v19H10z" class="N"/><path d="M80 95h4v3h-4zm6 0h4v3h-4z" class="P"/><path d="M19 92l7.517 7.517M23.667 92l7.517 7.517M33 92l7.517 7.517M28.333 92l7.517 7.517" class="O Q"/><path d="M10 107h84v19H10z" class="N"/><path d="M80 116h4v3h-4zm6 0h4v3h-4z" class="P"/><path d="M19 113l7.517 7.517M23.667 113l7.517 7.517M33 113l7.517 7.517M28.333 113l7.517 7.517" class="O Q"/><path d="M10 128h84v19H10z" class="N"/><path d="M80 137h4v3h-4zm6 0h4v3h-4z" class="P"/><path d="M19 134l7.517 7.517M23.667 134l7.517 7.517M33 134l7.517 7.517M28.333 134l7.517 7.517" class="O Q"/><g class="R"><path d="M3 0v149M3 13h7M3 34h7M3 55h7M3 76h7M3 97h7m-7 21h7m-7 21h7" class="R S"/><path d="M6 0v149M6 9h6M6 30h6M6 51h6M6 72h6M6 93h6m-6 21h6m-6 21h6"/></g><path d="M105 2h84v19h-84z" class="N"/><path d="M175 11h4v3h-4zm6 0h4v3h-4z" class="P"/><path d="M114 8l7.517 7.517M118.667 8l7.517 7.517M128 8l7.517 7.517M123.333 8l7.517 7.517" class="O Q"/><path d="M105 23h84v19h-84z" class="N"/><path d="M175 32h4v3h-4zm6 0h4v3h-4z" class="P"/><path d="M114 29l7.517 7.517M118.667 29l7.517 7.517M128 29l7.517 7.517M123.333 29l7.517 7.517" class="O Q"/><path d="M105 44h84v19h-84z" class="N"/><path d="M175 53h4v3h-4zm6 0h4v3h-4z" class="P"/><path d="M114 50l7.517 7.517M118.667 50l7.517 7.517M128 50l7.517 7.517M123.333 50l7.517 7.517" class="O Q"/><path d="M105 65h84v19h-84z" class="N"/><path d="M175 74h4v3h-4zm6 0h4v3h-4z" class="P"/><path d="M114 71l7.517 7.517M118.667 71l7.517 7.517M128 71l7.517 7.517M123.333 71l7.517 7.517" class="O Q"/><path d="M105 86h84v19h-84z" class="N"/><path d="M175 95h4v3h-4zm6 0h4v3h-4z" class="P"/><path d="M114 92l7.517 7.517M118.667 92l7.517 7.517M128 92l7.517 7.517M123.333 92l7.517 7.517" class="O Q"/><path d="M105 107h84v19h-84z" class="N"/><path d="M175 116h4v3h-4zm6 0h4v3h-4z" class="P"/><path d="M114 113l7.517 7.517m-2.85-7.517l7.517 7.517M128 113l7.517 7.517M123.333 113l7.517 7.517" class="O Q"/><path d="M105 128h84v19h-84z" class="N"/><path d="M175 137h4v3h-4zm6 0h4v3h-4z" class="P"/><path d="M114 134l7.517 7.517m-2.85-7.517l7.517 7.517M128 134l7.517 7.517M123.333 134l7.517 7.517" class="O Q"/><g class="R"><path d="M98 0v149m0-136h7m-7 21h7m-7 21h7m-7 21h7m-7 21h7m-7 21h7m-7 21h7" class="R S"/><path d="M101 0v149m0-140h6m-6 21h6m-6 21h6m-6 21h6m-6 21h6m-6 21h6m-6 21h6"/></g><path d="M568 0h192v149H568z" class="W"/><path d="M578 2h84v19h-84z" class="N"/><path d="M648 11h4v3h-4zm6 0h4v3h-4z" class="P"/><path d="M587 8l7.517 7.517M591.667 8l7.517 7.517M601 8l7.517 7.517M596.333 8l7.517 7.517" class="O Q"/><path d="M578 23h84v19h-84z" class="N"/><path d="M648 32h4v3h-4zm6 0h4v3h-4z" class="P"/><path d="M587 29l7.517 7.517M591.667 29l7.517 7.517M601 29l7.517 7.517M596.333 29l7.517 7.517" class="O Q"/><path d="M578 44h84v19h-84z" class="N"/><path d="M648 53h4v3h-4zm6 0h4v3h-4z" class="P"/><path d="M587 50l7.517 7.517M591.667 50l7.517 7.517M601 50l7.517 7.517M596.333 50l7.517 7.517" class="O Q"/><path d="M578 65h84v19h-84z" class="N"/><path d="M648 74h4v3h-4zm6 0h4v3h-4z" class="P"/><path d="M587 71l7.517 7.517M591.667 71l7.517 7.517M601 71l7.517 7.517M596.333 71l7.517 7.517" class="O Q"/><path d="M578 86h84v19h-84z" class="N"/><path d="M648 95h4v3h-4zm6 0h4v3h-4z" class="P"/><path d="M587 92l7.517 7.517M591.667 92l7.517 7.517M601 92l7.517 7.517M596.333 92l7.517 7.517" class="O Q"/><path d="M578 107h84v19h-84z" class="N"/><path d="M648 116h4v3h-4zm6 0h4v3h-4z" class="P"/><path d="M587 113l7.517 7.517m-2.85-7.517l7.517 7.517M601 113l7.517 7.517M596.333 113l7.517 7.517" class="O Q"/><path d="M578 128h84v19h-84z" class="N"/><path d="M648 137h4v3h-4zm6 0h4v3h-4z" class="P"/><path d="M587 134l7.517 7.517m-2.85-7.517l7.517 7.517M601 134l7.517 7.517M596.333 134l7.517 7.517" class="O Q"/><g class="R"><path d="M571 0v149m0-136h7m-7 21h7m-7 21h7m-7 21h7m-7 21h7m-7 21h7m-7 21h7" class="R S"/><path d="M574 0v149m0-140h6m-6 21h6m-6 21h6m-6 21h6m-6 21h6m-6 21h6m-6 21h6"/></g><path d="M673 2h84v19h-84z" class="N"/><path d="M743 11h4v3h-4zm6 0h4v3h-4z" class="P"/><path d="M682 8l7.517 7.517M686.667 8l7.517 7.517M696 8l7.517 7.517M691.333 8l7.517 7.517" class="O Q"/><path d="M673 23h84v19h-84z" class="N"/><path d="M743 32h4v3h-4zm6 0h4v3h-4z" class="P"/><path d="M682 29l7.517 7.517M686.667 29l7.517 7.517M696 29l7.517 7.517M691.333 29l7.517 7.517" class="O Q"/><path d="M673 44h84v19h-84z" class="N"/><path d="M743 53h4v3h-4zm6 0h4v3h-4z" class="P"/><path d="M682 50l7.517 7.517M686.667 50l7.517 7.517M696 50l7.517 7.517M691.333 50l7.517 7.517" class="O Q"/><path d="M673 65h84v19h-84z" class="N"/><path d="M743 74h4v3h-4zm6 0h4v3h-4z" class="P"/><path d="M682 71l7.517 7.517M686.667 71l7.517 7.517M696 71l7.517 7.517M691.333 71l7.517 7.517" class="O Q"/><path d="M673 86h84v19h-84z" class="N"/><path d="M743 95h4v3h-4zm6 0h4v3h-4z" class="P"/><path d="M682 92l7.517 7.517M686.667 92l7.517 7.517M696 92l7.517 7.517M691.333 92l7.517 7.517" class="O Q"/><path d="M673 107h84v19h-84z" class="N"/><path d="M743 116h4v3h-4zm6 0h4v3h-4z" class="P"/><path d="M682 113l7.517 7.517m-2.85-7.517l7.517 7.517M696 113l7.517 7.517M691.333 113l7.517 7.517" class="O Q"/><path d="M673 128h84v19h-84z" class="N"/><path d="M743 137h4v3h-4zm6 0h4v3h-4z" class="P"/><path d="M682 134l7.517 7.517m-2.85-7.517l7.517 7.517M696 134l7.517 7.517M691.333 134l7.517 7.517" class="O Q"/><g class="R"><path d="M666 0v149m0-136h7m-7 21h7m-7 21h7m-7 21h7m-7 21h7m-7 21h7m-7 21h7" class="R S"/><path d="M669 0v149m0-140h6m-6 21h6m-6 21h6m-6 21h6m-6 21h6m-6 21h6m-6 21h6"/></g><g class="X"><path d="M338 57h59v24h-59z" fill="#fff"/><g class="V"><path d="M285 135c-5.179 0-9.69-2.819-12.112-7a13.92 13.92 0 00-1.888 7c0 7.732 6.268 14 14 14h14v-14h-14z"/><path d="M348.004 60.337L397 57.249v-7.058c0-7.796-6.266-14.116-13.995-14.116h-62.977l-1.749-3.056a2.011 2.011 0 00-3.499 0l-1.749 3.056-1.749-3.056a2.011 2.011 0 00-3.499 0l-1.749 3.056-1.749-3.056a2.011 2.011 0 00-3.499 0l-1.749 3.056-.045.002-2.898-2.923c-1.099-1.109-2.975-.602-3.378.913l-.958 3.602-3.633-.982c-1.503-.406-2.877.98-2.474 2.496l.973 3.665-3.57.965c-1.503.406-2.006 2.3-.907 3.409l2.898 2.923-.002.045-3.03 1.764a2.05 2.05 0 000 3.529l3.03 1.765-3.03 1.764a2.05 2.05 0 000 3.529l3.03 1.764-3.03 1.765a2.05 2.05 0 000 3.529l3.03 1.764-3.03 1.764a2.05 2.05 0 000 3.529l3.03 1.764-3.03 1.764a2.05 2.05 0 000 3.529l3.03 1.764-3.03 1.764a2.05 2.05 0 000 3.529l3.03 1.765-3.03 1.764a2.05 2.05 0 000 3.529l3.03 1.764-3.03 1.765a2.05 2.05 0 000 3.529l3.03 1.764-3.03 1.764a2.05 2.05 0 000 3.529l3.03 1.764-3.03 1.764a2.05 2.05 0 000 3.529l3.03 1.764-3.03 1.764a2.05 2.05 0 000 3.529l3.03 1.765-3.03 1.764a2.05 2.05 0 000 3.529l3.03 1.764c0 7.796 6.266 14.116 13.995 14.116h83.97c7.729 0 13.995-6.32 13.995-14.116V78.422l-48.996-3.088c-3.925-.248-6.983-3.531-6.983-7.498s3.058-7.25 6.983-7.498"/><path d="M369 149h21v-28h-21z"/></g><path d="M404.444 131.222c-.156 0-.304.026-.454.046l-.082-.321a3.557 3.557 0 00-1.369-6.836 3.53 3.53 0 00-2.145.737l-.238-.239a3.522 3.522 0 00.719-2.124 3.556 3.556 0 00-6.826-1.393l-.316-.082c.019-.15.046-.299.046-.454a3.556 3.556 0 10-7.112 0c0 .156.026.304.046.454l-.316.082a3.554 3.554 0 00-6.826 1.393c0 .8.273 1.53.719 2.124a14.175 14.175 0 00-4.289 10.169c0 7.855 6.367 14.222 14.222 14.222 6.641 0 12.203-4.558 13.768-10.712.15.019.299.045.454.045a3.556 3.556 0 100-7.111" class="U"/><path d="M376 107h21V93h-21z" class="V"/><path d="M404.222 101.795c.982 0 1.778-.803 1.778-1.795s-.796-1.795-1.778-1.795c-.078 0-.152.013-.227.023l-.041-.162a1.8 1.8 0 001.055-2.008 1.783 1.783 0 00-1.74-1.443c-.405 0-.774.141-1.072.372l-.119-.121c.223-.299.36-.668.36-1.073a1.79 1.79 0 00-1.422-1.758 1.775 1.775 0 00-1.991 1.055 7.033 7.033 0 00-1.913-.271c-3.927 0-7.111 3.215-7.111 7.179s3.184 7.179 7.111 7.179c.664 0 1.303-.099 1.913-.271a1.774 1.774 0 001.991 1.055 1.79 1.79 0 001.422-1.758c0-.404-.137-.773-.36-1.073l.119-.121c.299.23.668.372 1.072.372.847 0 1.577-.604 1.743-1.442a1.8 1.8 0 00-1.058-2.009l.041-.162c.075.01.149.023.227.023" class="U"/><path d="M313.2 60c-.994 0-1.8-.821-1.8-1.833 0-3.033-2.422-5.5-5.4-5.5s-5.4 2.467-5.4 5.5c0 1.012-.806 1.833-1.8 1.833s-1.8-.821-1.8-1.833c0-5.055 4.037-9.167 9-9.167s9 4.112 9 9.167c0 1.012-.806 1.833-1.8 1.833" fill="#000"/><path d="M341 149h42c7.732 0 14-6.268 14-14V86h-42c-7.732 0-14 6.268-14 14v49z" fill="#FFFF50"/><path d="M387.451 106.873h-35.239a.704.704 0 110-1.406h35.239a.704.704 0 110 1.406zm0 14.063h-35.239a.704.704 0 110-1.406h35.239a.704.704 0 110 1.406zm0 14.063h-35.239a.704.704 0 110-1.406h35.239a.704.704 0 110 1.406zm0-35.028h-35.239a.704.704 0 110-1.406h35.239a.704.704 0 110 1.406zm0 13.933h-35.239a.704.704 0 110-1.406h35.239a.704.704 0 110 1.406zm0 14.063h-35.239a.704.704 0 110-1.406h35.239a.704.704 0 110 1.406zM398 63.004c-.008 0-.016-.004-.024-.004-2.176.074-3.206 2.247-4.114 4.165-.948 2.004-1.681 3.307-2.882 3.268-1.33-.048-2.091-1.548-2.896-3.136-.925-1.824-1.982-3.893-4.199-3.815-2.145.073-3.178 1.965-4.089 3.633-.97 1.778-1.63 2.858-2.902 2.809-1.357-.049-2.078-1.269-2.913-2.681-.93-1.572-2.006-3.34-4.18-3.28-2.108.073-3.144 1.677-4.058 3.094-.967 1.498-1.644 2.41-2.933 2.356-1.389-.049-2.107-1.062-2.937-2.234-.932-1.317-1.983-2.808-4.151-2.735-2.062.07-3.098 1.385-4.011 2.544-.868 1.1-1.545 1.97-2.978 1.915a.705.705 0 10-.051 1.407c2.125.071 3.201-1.266 4.135-2.452.829-1.052 1.544-1.96 2.953-2.008 1.356-.058 1.992.784 2.954 2.141.913 1.29 1.95 2.752 4.036 2.827 2.185.073 3.237-1.558 4.168-3 .832-1.29 1.551-2.403 2.923-2.45 1.263-.047 1.95.949 2.919 2.588.913 1.545 1.948 3.295 4.075 3.372 2.201.076 3.263-1.842 4.189-3.541.802-1.468 1.559-2.855 2.901-2.901 1.263-.03 1.921 1.122 2.895 3.045.91 1.795 1.942 3.829 4.102 3.907l.119.002c2.158 0 3.182-2.162 4.088-4.074.802-1.695 1.561-3.291 2.864-3.356v-1.406z" fill="#000"/><path d="M327 149h28v-28h-28z" class="V"/><path d="M369.444 131.222c-.156 0-.304.026-.454.046l-.082-.321a3.557 3.557 0 00-1.369-6.836 3.53 3.53 0 00-2.145.737l-.238-.239a3.522 3.522 0 00.719-2.124 3.556 3.556 0 00-6.826-1.393l-.316-.082c.019-.15.046-.299.046-.454a3.556 3.556 0 10-7.112 0c0 .156.026.304.046.454l-.316.082a3.554 3.554 0 00-6.826 1.393c0 .8.273 1.53.719 2.124a14.175 14.175 0 00-4.289 10.169c0 7.855 6.367 14.222 14.222 14.222 6.641 0 12.203-4.558 13.768-10.712.15.019.299.045.454.045a3.556 3.556 0 100-7.111" class="U"/><path d="M327 107h28V93h-28z" class="V"/><path d="M362.222 101.795c.982 0 1.778-.803 1.778-1.795s-.796-1.795-1.778-1.795c-.078 0-.152.013-.227.023l-.041-.162a1.8 1.8 0 001.055-2.008 1.783 1.783 0 00-1.74-1.443c-.405 0-.774.141-1.072.372l-.119-.121c.223-.299.36-.668.36-1.073a1.79 1.79 0 00-1.422-1.758 1.775 1.775 0 00-1.991 1.055 7.033 7.033 0 00-1.913-.271c-3.927 0-7.111 3.215-7.111 7.179s3.184 7.179 7.111 7.179c.664 0 1.303-.099 1.913-.271a1.774 1.774 0 001.991 1.055 1.79 1.79 0 001.422-1.758c0-.404-.137-.773-.36-1.073l.119-.121c.299.23.668.372 1.072.372.847 0 1.577-.604 1.743-1.442a1.8 1.8 0 00-1.058-2.009l.041-.162c.075.01.149.023.227.023" class="U"/><path d="M369.8 49a2.18 2.18 0 01-.353-.032 1.99 1.99 0 01-.338-.09 1.95 1.95 0 01-.31-.147 2.67 2.67 0 01-.274-.198c-.078-.077-.158-.154-.222-.243a1.62 1.62 0 01-.166-.275 1.511 1.511 0 01-.136-.614 1.55 1.55 0 01.036-.313 1.7 1.7 0 01.1-.301 1.63 1.63 0 01.166-.275c.065-.083.144-.167.222-.243a2.67 2.67 0 01.274-.198 1.95 1.95 0 01.31-.147 2 2 0 01.338-.09c.23-.045.468-.045.706 0a2.04 2.04 0 01.338.09 1.94 1.94 0 01.31.147c.094.057.186.128.274.198.079.077.158.16.223.243a1.58 1.58 0 01.166.275 1.526 1.526 0 01.137.614c0 .422-.195.838-.526 1.132-.087.07-.18.141-.274.198a1.94 1.94 0 01-.31.147 2.05 2.05 0 01-.691.122m14.4-.8c-.475 0-.936-.173-1.275-.467a2.54 2.54 0 01-.222-.243 1.635 1.635 0 01-.166-.275 1.511 1.511 0 01-.136-.614c0-.422.194-.832.525-1.133.087-.07.18-.141.274-.198a1.97 1.97 0 01.31-.147 1.98 1.98 0 01.338-.089c.23-.045.475-.045.706 0 .115.019.23.051.338.089s.209.09.31.147c.094.058.186.128.274.198.33.301.526.71.526 1.133a1.48 1.48 0 01-.137.614c-.05.096-.101.186-.166.275a2.44 2.44 0 01-.223.243 1.866 1.866 0 01-.584.345 2.068 2.068 0 01-.691.122" fill="#000"/></g><path d="M339.62 92.27L396.61 77l5.694 21.25-56.99 15.27z" fill="#C5C5C5"/><path d="M340.504 92.768l5.462-1.463.404 1.508-5.462 1.463zm6.16-1.65l2.899-.777.517 1.932-2.897.777zm3.851-1.032l2.898-.776.517 1.931-2.897.777zm3.851-1.032l2.898-.776.518 1.932-2.898.776zm3.85-1.031l2.898-.777.518 1.932-2.898.776zm3.852-1.032l2.897-.777.518 1.932-2.898.776zm3.85-1.032l2.897-.776.518 1.931-2.898.777zm3.85-1.032l2.899-.776.517 1.931-2.898.777zm3.851-1.032l2.898-.776.517 1.932-2.897.776zm3.851-1.032l2.898-.776.518 1.932-2.898.776zm3.85-1.031l2.898-.777.518 1.932-2.898.777zm3.852-1.032l2.897-.777.518 1.932-2.898.777zm3.85-1.032l2.897-.776.518 1.932-2.898.776zm3.85-1.032l2.899-.776.517 1.932-2.898.776zm-51.817 16.089l2.898-.777.776 2.898-2.897.777zm3.85-1.032l2.898-.776.777 2.898-2.898.776zm3.852-1.032l2.897-.776.777 2.898-2.898.776zm3.85-1.031l2.898-.777.776 2.898-2.898.777zm3.85-1.032l2.899-.777.776 2.898-2.898.777zm3.851-1.032l2.898-.776.776 2.897-2.897.777zm3.851-1.032l2.898-.776.776 2.898-2.897.776zm3.85-1.031l2.898-.777.777 2.898-2.898.776zm3.852-1.032l2.897-.777.777 2.898-2.898.776zm3.85-1.032l2.897-.776.777 2.897-2.898.777zm3.85-1.032l2.899-.776.776 2.897-2.898.777zm3.851-1.032l2.898-.776.776 2.898-2.897.776zm3.851-1.031l2.898-.777.776 2.898-2.897.776zm3.78-1.013l5.462-1.464.845 3.154-5.461 1.463zm-48.996 17.095l5.796-1.553.776 2.898-5.796 1.553zm6.02-1.613l2.898-.776.777 2.897-2.898.777zm3.852-1.032l2.898-.776.776 2.898-2.898.776zm3.85-1.031l2.898-.777.776 2.898-2.898.776zm3.851-1.032l2.898-.777.776 2.898-2.897.776zm3.85-1.032l2.898-.776.777 2.897-2.898.777zm3.851-1.032l2.898-.776.777 2.897-2.898.777zm3.85-1.032l2.898-.776.777 2.898-2.898.776zm3.852-1.031l2.898-.777.776 2.898-2.898.776zm3.85-1.032l2.898-.777.776 2.898-2.898.777zm3.851-1.032l2.898-.776.776 2.897-2.897.777zm3.85-1.032l2.898-.776.777 2.898-2.898.776zm3.851-1.032l2.898-.776.777 2.898-2.898.776zm3.85-1.031l2.898-.777.777 2.898-2.898.777zm-51.236 17.697l6.762-1.812.776 2.898-6.761 1.812zm49.428-13.245l5.796-1.552.776 2.897-5.795 1.553zm-42.427 11.369l2.898-.777.776 2.898-2.897.777zm3.85-1.032l2.898-.776.777 2.898-2.898.776zm3.851-1.032l2.898-.776.777 2.898-2.898.776zm3.85-1.031l2.898-.777.777 2.898-2.898.776zm3.852-1.032l2.898-.777.776 2.898-2.898.776zm3.85-1.032l2.898-.776.776 2.897-2.898.777zm3.851-1.032l2.898-.776.776 2.897-2.897.777zm3.85-1.031l2.898-.777.777 2.898-2.898.776zm3.851-1.032l2.898-.777.777 2.898-2.898.776zm3.85-1.032l2.898-.777.777 2.898-2.898.777zm3.852-1.032l2.898-.776.776 2.897-2.898.777zM344.03 105.93l8.693-2.33.777 2.899-8.694 2.329zm47.468-12.719l7.728-2.07.776 2.897-7.727 2.07zm-38.506 10.318l2.898-.777.776 2.898-2.898.777zm3.85-1.032l2.898-.776.776 2.898-2.898.776zm3.851-1.032l2.898-.776.776 2.898-2.897.776zm3.85-1.031l2.898-.777.776 2.898-2.897.776zm3.851-1.032l2.898-.777.777 2.898-2.898.777zm3.85-1.032l2.898-.776.777 2.897-2.898.777zm3.852-1.032l2.897-.776.777 2.898-2.898.776zm3.85-1.031l2.898-.777.776 2.898-2.898.776zm3.851-1.032l2.898-.777.776 2.898-2.898.776zm3.85-1.032l2.898-.776.776 2.897-2.897.777zm-26.242 10.999l19.318-5.177.777 2.898-19.319 5.177zm-16.383 4.39l2.897-.777.777 2.898-2.898.776zm3.85-1.032l2.898-.776.776 2.897-2.898.777zm3.851-1.032l2.898-.776.776 2.897-2.898.777zm3.85-1.032l3.864-1.035.776 2.898-3.863 1.035zm24.435-6.547l3.864-1.035.776 2.898-3.863 1.035zm4.621-1.238l2.898-.777.776 2.898-2.897.777zm3.71-.994l2.897-.776.777 2.897-2.898.777zm7.7-2.064l2.898-.776.777 2.898-2.898.776zm-3.85 1.032l2.898-.776.26.966-2.899.776zm.478 1.782l2.898-.776.259.966-2.898.776z" fill="#4A4A4A"/><g class="X"><path d="M327 107h28V93h-28z" class="V"/><path d="M362.222 101.795c.982 0 1.778-.803 1.778-1.795s-.796-1.795-1.778-1.795c-.078 0-.152.013-.227.023l-.041-.162a1.8 1.8 0 001.055-2.008 1.783 1.783 0 00-1.74-1.443c-.405 0-.774.141-1.072.372l-.119-.121c.223-.299.36-.668.36-1.073a1.79 1.79 0 00-1.422-1.758 1.775 1.775 0 00-1.991 1.055 7.033 7.033 0 00-1.913-.271c-3.927 0-7.111 3.215-7.111 7.179s3.184 7.179 7.111 7.179c.664 0 1.303-.099 1.913-.271a1.774 1.774 0 001.991 1.055 1.79 1.79 0 001.422-1.758c0-.404-.137-.773-.36-1.073l.119-.121c.299.23.668.372 1.072.372.847 0 1.577-.604 1.743-1.442a1.8 1.8 0 00-1.058-2.009l.041-.162c.075.01.149.023.227.023" class="U"/></g><path d="M0 149h760v11H0z" class="N"/><g transform="translate(419 29)"><path d="M3 74h12v3H3z" class="N"/><path d="M7 75h1v1H7z" fill="#22EC00"/><path d="M5 75h1v1H5z" fill="red"/><g transform="translate(0 66)"><use xlink:href="#A" class="N"/><path d="M.5 47.5v6h102v-6h-47v-22h-10v22H.5z" class="O"/><use xlink:href="#B" class="N"/><path d="M47.5 6.5h6v19h-6z" class="O"/><path d="M0 0h103v8H0z" fill="#ECECEC"/></g><path d="M15 52h13v14H15z" fill="#fff"/><circle cx="15.5" cy="59.5" r="3.5" stroke="#fff" class="R"/><g fill="#39579A" class="X"><path d="M25.649 59.904l-.229.073.144.198a.53.53 0 01.064.5.504.504 0 01-.38.317l-.23.04.11.216a.53.53 0 01-.008.491.495.495 0 01-.403.26h-2.883a1.05 1.05 0 01-.613-.231.635.635 0 00-.16-.108L21 61.631v-2.753l.3-.266 1.014-1.943a.878.878 0 00.119-.514l-.081-1.09a.45.45 0 01.23-.064c.438 0 .813.723.813 1.315a1.72 1.72 0 01-.018.245l-.177 1.181h2.2a.53.53 0 01.381.166.514.514 0 01-.054.762l-.204.16.223.131a.52.52 0 01.251.505.514.514 0 01-.348.439z"/><path d="M18.014 59c-.007 0-.013.004-.014.01v3.98c0 .006.007.01.014.01h2.972c.007 0 .014-.004.015-.01v-3.98c-.001-.006-.007-.01-.015-.01h-2.972z"/></g><path d="M46 65h32.016L57 27" stroke="#D8D8D8" stroke-width="3"/><path d="M56.539.849l5.977.523-5.055 57.779-5.977-.523z" class="N"/></g></g></svg>