<svg xmlns="http://www.w3.org/2000/svg" viewBox="0 0 188.76 188.99"><defs><style>.cls-1{fill:#bfbfbf}.cls-2{fill:#28aee4}</style></defs><g id="Layer_2" data-name="Layer 2"><g id="Layer_1-2" data-name="Layer 1"><g id="Stacked_-_square" data-name="Stacked - square"><g id="Adapt_Text" data-name="Adapt Text"><path id="_" data-name="&lt;" class="cls-1" d="M18.33 176.52L1.52 169a2.73 2.73 0 01-1.12-.9 2.17 2.17 0 01-.4-1.29v-.34a2.16 2.16 0 01.4-1.28 2.83 2.83 0 011.12-.91l16.81-7.54a1.82 1.82 0 01.68-.13 1.6 1.6 0 011.2.49 1.68 1.68 0 01.17 2.15 1.94 1.94 0 01-.82.65l-15.18 6.71 15.18 6.75a1.86 1.86 0 01.82.65 1.59 1.59 0 01.31 1 1.64 1.64 0 01-1.69 1.63 2 2 0 01-.67-.12z"/><path id="A" class="cls-2" d="M25.52 178.75a1.86 1.86 0 01-.52-1.35 2.32 2.32 0 01.21-.84L36 151.19a3.21 3.21 0 01.95-1.25 2.34 2.34 0 011.49-.48h.43a2.34 2.34 0 011.49.48 3.21 3.21 0 01.95 1.25L52 176.56a2.32 2.32 0 01.21.84 1.86 1.86 0 01-.53 1.35 1.8 1.8 0 01-1.37.55 1.92 1.92 0 01-1.07-.32 2 2 0 01-.74-.86l-2.74-6.58H31.44l-2.74 6.58a2 2 0 01-.7.88 1.92 1.92 0 01-1.07.32 1.8 1.8 0 01-1.41-.57zm7.4-10.7H44.3l-5.69-13.7z"/><path id="d" class="cls-2" d="M61.55 178.18a10 10 0 01-3.79-3.88 13 13 0 010-11.92 10 10 0 013.79-3.88 9.84 9.84 0 015-1.33 9.69 9.69 0 017.2 3.2v-10.32a1.84 1.84 0 01.57-1.39 1.89 1.89 0 011.37-.55 1.78 1.78 0 011.35.57 1.88 1.88 0 01.55 1.37v27.35a1.88 1.88 0 01-1.9 1.9 1.89 1.89 0 01-1.37-.55 1.78 1.78 0 01-.57-1.35v-1.09a9.69 9.69 0 01-7.2 3.2 9.84 9.84 0 01-5-1.33zm9.15-3.12a10.18 10.18 0 003-2.3v-8.85a10.32 10.32 0 00-3-2.29 7.92 7.92 0 00-3.65-.87 6.6 6.6 0 00-5 2A9.23 9.23 0 0062 174a6.6 6.6 0 005 2 7.92 7.92 0 003.7-.94z"/><path id="a-2" data-name="a" class="cls-2" d="M86.25 178.75a6 6 0 01-2.51-2.21 6.17 6.17 0 01-.92-3.35 5.93 5.93 0 012.46-5q2.48-1.85 7.23-1.85h5.1V166a5.13 5.13 0 00-1.37-4 6.27 6.27 0 00-4.24-1.2 14.22 14.22 0 00-2.84.25 23.47 23.47 0 00-2.76.76 2.78 2.78 0 01-.55.08 1.5 1.5 0 01-1.1-.46 1.55 1.55 0 01-.46-1.14 1.61 1.61 0 011.1-1.6 18.5 18.5 0 017.29-1.52 9.5 9.5 0 014.91 1.18 7.46 7.46 0 013 3.06 8.89 8.89 0 011 4.06v11.93a1.78 1.78 0 01-.57 1.35 1.89 1.89 0 01-1.37.55 1.88 1.88 0 01-1.9-1.9v-1.09a10.6 10.6 0 01-7.92 3.2 7.81 7.81 0 01-3.58-.76zm8.45-3.52a9.94 9.94 0 002.91-2.23v-3.54H93q-6.37 0-6.37 3.32a3.16 3.16 0 001 2.45 5.11 5.11 0 003.44.93 7.53 7.53 0 003.63-.93z"/><path id="p" class="cls-2" d="M108.44 188.42a1.91 1.91 0 01-.54-1.37v-27.77a1.86 1.86 0 011.89-1.9 1.89 1.89 0 011.37.55 1.78 1.78 0 01.57 1.35v1.09a9.7 9.7 0 017.21-3.2 9.83 9.83 0 015 1.33 10 10 0 013.79 3.88 12.89 12.89 0 010 11.92 10 10 0 01-3.79 3.88 9.83 9.83 0 01-5 1.33 9.7 9.7 0 01-7.21-3.2v10.74a1.88 1.88 0 01-1.94 1.94 1.81 1.81 0 01-1.35-.57zm15-14.47a9.27 9.27 0 000-11.22 6.64 6.64 0 00-5-2 8 8 0 00-3.65.87 10.45 10.45 0 00-3 2.29v8.85a10.31 10.31 0 003 2.3 8 8 0 003.65.87 6.64 6.64 0 004.97-1.91z"/><path id="t" class="cls-2" d="M135.75 174v-13.12h-3a.79.79 0 01-.8-.8.9.9 0 01.38-.72l5.73-5.6a1 1 0 01.72-.38.75.75 0 01.57.25.88.88 0 01.23.59v3.37h4.76a1.65 1.65 0 011.18 2.8 1.54 1.54 0 01-1.18.49h-4.76v12.73c0 1.09.26 1.79.78 2.08a3.87 3.87 0 002 .45 5.88 5.88 0 001.69-.26l.35-.08a2.25 2.25 0 01.49 0 1.5 1.5 0 011 .44 1.43 1.43 0 01.47 1.07 1.61 1.61 0 01-1 1.48 8.23 8.23 0 01-3.5.76c-4.06-.04-6.11-1.9-6.11-5.55z"/><path id="_2" data-name="/" class="cls-1" d="M149.64 182.59a1.73 1.73 0 01-.48-1.23 2.14 2.14 0 01.12-.63l11.17-32.66a1.8 1.8 0 01.59-.85 1.82 1.82 0 012.3.17 1.72 1.72 0 01.48 1.22 2.26 2.26 0 01-.12.64l-11.17 32.66a1.73 1.73 0 01-.59.84 1.6 1.6 0 01-1.05.34 1.67 1.67 0 01-1.25-.5z"/><path id="_3" data-name="&gt;" class="cls-1" d="M168.55 176.16a1.64 1.64 0 01-.48-1.2 1.53 1.53 0 01.32-1 1.81 1.81 0 01.82-.65l15.17-6.75-15.17-6.74a1.88 1.88 0 01-.82-.65 1.58 1.58 0 01-.32-.95 1.66 1.66 0 011.69-1.69 1.6 1.6 0 01.67.13l16.82 7.54a2.8 2.8 0 011.11.91 2.16 2.16 0 01.4 1.28v.34a2.17 2.17 0 01-.4 1.29 2.7 2.7 0 01-1.11.9l-16.82 7.55a1.78 1.78 0 01-.67.12 1.67 1.67 0 01-1.21-.43z"/></g><g id="Adapt_Logo-_solid_white" data-name="Adapt Logo- solid white"><path id="Hexagon" class="cls-2" d="M157.44 36.4v72.81l-63.06 36.41-63-36.41V36.4l63-36.4z"/><path id="A-3" data-name="A" d="M57.5 109.47a5.28 5.28 0 01-1.48-3.8 6.4 6.4 0 01.59-2.38l30.29-71.5a9.1 9.1 0 012.67-3.51 6.65 6.65 0 014.22-1.36H95a6.62 6.62 0 014.21 1.36 9.23 9.23 0 012.68 3.51l30.28 71.5a6.44 6.44 0 01.6 2.38 5.28 5.28 0 01-1.49 3.8 5.1 5.1 0 01-3.88 1.53 5.38 5.38 0 01-3-.89 5.59 5.59 0 01-2.07-2.43l-7.72-18.53H74.19l-7.72 18.53a5.68 5.68 0 01-2.08 2.43 5.38 5.38 0 01-3 .89 5.11 5.11 0 01-3.89-1.53zM78.35 79.3h32.07l-16-38.6z" fill="#fff"/></g></g></g></g></svg>