<svg version="1.1" id="_1" xmlns="http://www.w3.org/2000/svg" x="0" y="0" viewBox="0 0 866 1000" xml:space="preserve"><style>.st1,.st2{fill:none;stroke:#ac4417;stroke-width:5}.st2{stroke:#000;stroke-width:10}</style><path id="fill" d="M433 184s-48.6-6.6-114 93C205.8 449.5 123.1 820.5 433 822m-1-637.9s48.6-6.6 114.1 93C659.3 449.6 742.1 820.5 432 822" fill="#e67832"/><g id="lines"><path id="_1-2" class="st1" d="M433 186.3v634"/><path id="_2" class="st1" d="M432.7 184.1s-26.1-6.6-61.1 92.7c-60.7 171.9-105 541.7 61.1 543.2m-.5-635.8s26.1-6.6 61.1 92.7C554 448.8 598.4 818.6 432.2 820"/><path id="_3" class="st1" d="M432.9 184.1s-43.4-6.6-101.8 92.8C229.9 449.2 156 819.5 432.9 821m-.9-636.8s43.5-6.6 101.9 92.8C635.1 449.2 709.1 819.5 432 821"/></g><g id="fc"><path id="l" class="st2" d="M286 515l31.5-32 31.5 32"/><path id="r" class="st2" d="M517 515l31.5-32 31.5 32"/><path id="mouth" d="M434.6 549h-58.1s1 37 58.1 37 58.9-37 58.9-37h-58.9z"/></g><path id="cntr" d="M433 184s-48.6-6.6-114 93C205.8 449.5 123.1 820.5 433 822m-1-637.9s48.6-6.6 114.1 93C659.3 449.6 742.1 820.5 432 822" fill="none" stroke="#000" stroke-width="5"/></svg>