<svg xmlns="http://www.w3.org/2000/svg" viewBox="0 0 1638 744"><path d="M1063.3 151.8l-.3-2.9-4.7.4.3 2.9 4.7-.4zm31.6 76l.1 1.6 3.3-.3c-.1-1 .3-2.6 1-4.6l-.3-2.9c-1.4.1-2.8 2.2-4.1 6.2zm-123.3 95.7c-.2-2.7-8.6-13.2-25.2-31.7-.3-3.4 5.4-8.5 17.1-15.2l33.4-29.1c7.5-9.5 11.9-24.9 13.2-46.3l-.4-4.9c-1.3-14.8-12-26.7-32.3-35.8-12-8.1-33.6-12.6-64.8-13.4-25.8 2.2-59.5 11.4-101 27.7-11.4 8.2-24.4 16.4-39 24.6l.2 2.5c.9-.1 2.3-.6 3.9-1.7 1.7-.2 2.7.6 2.8 2.2l2.5-1.3 1.2-.1.1 1.1c.1 1.3-8.9 8.4-27.1 21.1l1.4 2.6-1.2.1-3-1.1c.1.9-1.2 1.5-3.7 1.7l.1 1.1 2.9 3.6c-.9.1-2.3-.3-4.2-1-4.2.4-8.3 2.6-12.4 6.8l1.7-7.4c6.1-26.3 10.3-49.6 12.5-69.8l-.3-1.3c-4.2-2.7-8.3-6.5-12.1-11.3.1-3.1.1-4.9 0-5.3l-.3-1.1-1.2.3c-13.2 19.8-38.6 53.6-76.3 101.4-28.7 34-43.5 52.9-44.4 56.7-11.7 12.1-17.3 19.4-16.7 21.9-3.1 2-4.4 4-3.9 6.2-.9.2-1.5-.1-1.7-1-5 8.1-12.4 13.3-22.3 15.6l-10.4 2.4c-1.4.3-2.1 1.3-2 3l.3 1.3 3.9-.9.3 1.1-8.8 3.4-15.6 3.6-8.2.5c-1.2 1.2 6.5-.1 3.5.6l-10.2 2.4c-6.2 1.4-9.6.9-10.2-1.6l-1.2.3c.2 1.1.3 1.9.1 2.6l-.6-2.5-8.2 1.9c-.6-3.8-11.7-17.6-33.2-41.4-.4-4.6 7.2-11.3 22.7-20l43.8-38.5c9.8-12.6 15.6-32.8 17.5-60.6l-.6-6.5c-1.7-19.6-15.9-35.4-42.6-47.6-15.8-10.7-44.2-16.4-85.2-17.3-34 2.9-78.4 15-133 36.1-15 10.9-32.1 21.7-51.3 32.4l.3 3.4c1.3-.1 3-.8 5.1-2 2.2-.2 3.4.8 3.6 2.8l3.4-1.9 1.7-.1.1 1.6c.1 1.6-11.8 10.9-35.9 27.9l1.9 3-1.7.1-3.7-1.3c.1 1-1.6 1.7-5.1 2l.2 1.8 4 4.4c-1.3.1-3.1-.3-5.4-1.1-7.8.7-15.4 6.3-22.9 16.9l1.9 3c6.5-6 10.3-9 11.4-9.1l.4 4.9c-1.1.1-2.8.8-5.1 2l4.1 6.2c7.9-8.5 16.6-15.8 26.1-21.9 4.7 1.2 7.2 2.7 7.3 4.3l3.6-.3c25.8-19.1 51.3-32.9 76.6-41.4l.3 3.4c-4.7 7-7.9 10.6-9.6 10.8.2 2.4 1 4.5 2.5 6.3.4 4.3-11.1 33.3-34.4 86.9-52.9 124.6-97.3 216.8-133.4 276.4.1 1.2.8 2.8 2.1 4.8 8.9-2.1 14.5-4.3 16.9-6.4l1.9-.2.3 3.4 3.3-.3 3.4-1.9c.1 1 1.2 1.5 3.5 1.3l.3 3.4c.3 3.3-1.6 8.3-5.6 15.2-3.6 4.1-7.5 12.7-11.6 25.8l.1 1.6 3.3-.3c14.4-16.1 25.3-31.9 32.8-47.3 42-12.3 74-24.4 96.2-36.3 22.3-1.9 39.3-7.8 50.9-17.5l-.2-1.8-8.4 2.5-1.9.2-.2-1.8c16.4-2.5 27.7-6.1 34-11.1 31.9-24.6 56-42 72.3-52.3 33.5-24.6 55.3-48.6 65.2-71.9 1.8-.4 3.6-.8 5.6-1.3 4.7-.2 7.3-.3 8-.5-.2-.9.2-1.4 1.1-1.6 7.5-.8 3.9.5 8.7-.6l12.6-2.9c-.8.2-1.1.6-.9 1.4l1.9-1.2c-.4 0-.7-.1-1-.2l2.1-.5-1 .6c1.4.2 2.9.1 4.6-.3l.9 3.7-57.3 91.1-12.7 15.9-6.2 20.8 1.2-.3 6.2-2.6-2 8.1.6 2.4 1.7 2.1c-.8.2-1.1.7-.9 1.6l.3 1.3 2.6-.6c3.8-3.3 5.4-6.3 4.8-9 4.1.7 6.8 1 8.2.6l.3 1.3c-2.5.6-3.8 2.6-4 6l.3 1.3 1.4-.3c20.8-22.7 71.8-100.4 112.7-153.1-1.3-5.7 20-13.6 64-23.8l1.4-.3c1.6 6.9-1.8 23.6-10.2 50.1-5.4 16-8 24.8-7.6 26.2-7 21.3-10.3 32.8-9.9 34.6l-15.6 51.1c-10.1 26.2-17.8 53.7-23.2 82.7.9-.2 2.3-.1 4.3.4l2.2-1.9c.2.9.8 1.2 1.7 1l-.9-3.7 6.8-.2c2-.5 3.7-3 5.1-7.6-.3-6.9 1.1-10.6 4.2-11.4 4.2-16.4 6.8-24.6 7.7-24.9 3.9-16.3 6.8-25.6 8.7-27.9 5.9-21.2 10.2-32.1 13-32.8l.6 2.6-4.3 11.1c-7.5 33.3-15.1 59.6-22.8 78.9l2.2 9.6 1.4-.3c18.6-40 45.4-119.2 80.3-237.6 1-10.4 6-18.5 14.9-24.2l-2-2.1-.3-1.1c4-.9 6.8-2.5 8.4-4.7-.2-.9-3.7-2.2-10.5-4l17.4-74.6c3.8-3.4 6-5.2 6.7-5.2l.3 3.8c-.9.1-2.3.6-3.9 1.7l3.3 4.7c6-6.5 12.5-12.1 19.6-16.8 3.6 1 5.4 2.2 5.6 3.4l2.6-.2c19.8-14.5 39.2-24.9 58.3-31.2l.2 2.5c-3.5 5.3-5.9 8-7.2 8.1.2 1.8.7 3.4 1.6 4.8.3 3.3-8.3 25.3-25.9 66.1-40.2 94.5-73.9 164.4-101.3 209.8.1.9.7 2.1 1.8 3.7 6.7-1.6 11-3.3 12.7-4.9l1.2-.1.2 2.5 2.8-.2 2.5-1.3c.1.7 1 1 2.7.9l.2 2.7c.2 2.4-1.2 6.2-4.3 11.4-2.9 3.1-5.9 9.6-9.1 19.5l.1 1.3 2.6-.2c10.9-12.2 19.2-24.2 24.9-36 31.9-9.4 56.2-18.5 73-27.5 17.1-1.5 30-5.9 38.8-13.3l-.1-1.3-6.5 1.9-1.4.1-.1-1.3c12.4-1.8 21.1-4.6 25.8-8.3 24.2-18.6 42.5-31.9 54.9-39.7 38.6-28.1 56.6-55.1 54.4-81zm-6.6 1.7l.9 10.1c-1.2 2.5-2.5 3.8-3.7 3.9l-1.5-17.2c2.8 1 4.2 2 4.3 3.2zm-757.2-81.4l-1.7.1-.3-3.1 6.9-.6.1 1.6c-1.1.1-2.8.7-5 2zm-33.7 337.1c-4-1.8-7.6-2.5-10.7-2.2l-.4-4.9c-.2-1.9.9-3.2 3.3-3.7 2.2-.2 3.5 1.4 3.7 4.6 5.8-7.1 9-10.7 9.6-10.8l3.7 1.5c-1.2 10-4.3 15.1-9.2 15.5zm360.1-376.7c-1.7.2-5.1-5.1-10-15.6l-.3-3.1c3.2-.3 6.5 4.9 10 15.6l.3 3.1zm-4.8-37.3l-1.4 3.3-48.9-20.4c32.6 1.1 49.4 6.8 50.3 17.1zM322.9 344.2l-6.9.6-.3-3.1 6.9-.6.3 3.1zm-5.6-106.5l1.7-.1.4 4.9c-1.6.1-3.7 2.5-6.3 7.1l-.3-3.4c3.1-3.7 4.7-6.5 4.5-8.5zm-14.5 34.2l.6 6.5-1.7.1-.6-6.5 1.7-.1zm-7.6 12.2l3.3-.3c-.3 5.4-1.8 8.3-4.5 8.5l-1.7.1c2.1-3.6 3.1-6.4 2.9-8.3zm-5.7 17l1.9-.2.1 1.6-3.1 5.2-3.3.3-.1-1.6c3.3-.3 4.8-2 4.5-5.3zm-5.6 15.3l-1 8.2-1.7.1-.7-8.1 3.4-.2zm-56.1 159.5c-2.2 11.2-4.6 16.9-7.1 17.1l-.1-1.6c-.6-5.5 1.8-10.7 7.2-15.5zm-10.3 22.3l.1 1.6c.2 2.2-.8 3.5-3 3.6l-.1-1.6c-.2-1.9.8-3.1 3-3.6zm-3 46.3l5.2-.5.2 1.8c-1.3.1-3 .8-5.1 2l-3.3.3c-.2-1.7.9-3 3-3.6zm148-45.7c-29.2 14.4-46.4 24.2-51.5 29.3-31.6 11-47.3 17.8-47 20.5-28.1 11.1-46.6 19.3-55.5 24.4-2.1.2-5.1-.6-9.1-2.4-.5-5.7 2.1-10.3 7.6-14 4.9-.4 9.6.3 14.1 2.2 5.2-2.7 14.3-5.7 27.2-8.9l-.3-3.4-10.4.9c1.3-1.8 11.3-6.5 30.1-14.1l5.2-.5.1 1.6c-8.9.8-13.8 3.4-14.9 8.1.2 2.1 1.4 3 3.6 2.8 6.7-4.2 10-6.7 9.9-7.4 12.7-2.4 47.8-20.8 105.3-55.1l.3 3.1c.1 1.5-4.8 5.7-14.7 12.9zm-88.2 29c8.4-.7 15.6-4.1 21.6-10 2.4-.2 3.7.7 3.8 2.8-4.1.4-12 3.8-23.5 10.4l-1.7.1-.2-3.3zm142.3-109.3l-44.1 34.9c-32.8 21.5-50.4 32.3-52.9 32.5-52.2 28.7-84.7 43.6-97.3 44.7l-1.9.2c1.6-5.9 24.8-53.4 69.8-142.8 19.8-1.7 51-10.9 93.5-27.7l10.4-.9c21.5-1.9 37.6 2.3 48.2 12.3l.6 6.5c-8 23-16.8 36.4-26.3 40.3zM330.4 370l7.1-.6.1 1.6-7.1.6-.1-1.6zm99.7-16.9l5.2-.5c4.8 2.3 7.3 4.3 7.5 6.1l.1 1.6c-4.6.4-8.9-2-12.8-7.2zm14.1-80.3c-4.6 5.5-17.2 14.9-37.8 28.1-6.8.6-32.1 10.4-75.9 29.6-2.2-1-4.5-1.4-7-1.2l-.3-3.1c-.5-6.3 2.3-14.2 8.5-23.8 3.4-18 7.1-28.3 11.2-30.8l36.5-82.1c-.4-5.1 7.4-9 23.4-11.7l5.2-.5.4 4.7c15.7-2.4 25.5-3.8 29.3-4.1 29-2.5 44.1 3.4 45.3 17.5l3.3-.3-.7-8.3 3.6-.3c8.5 4.7 13.1 10.4 13.7 17.1.4 4.6-2.1 10.3-7.4 17.1-2.2.2-3.5-1.4-3.7-4.6l-3.6.3-.8 10c-14.7 22-25.4 33.3-32 33.9-6 8.3-9.7 12.4-11.2 12.5zm22.4 57.5c-3-2-5.4-2.9-7.2-2.8l-.4-4.9 3.3-.3 7.3 4.3c.3 2.3-.7 3.5-3 3.7zm23.2 27.5c3.2 1.3 5.1 2.7 5.5 4l-1.6.4.1.1c-.3 0-.7.1-1 .2l-2.4 1.9-.6-6.6zm2.2 13.8l-.3-1.3 4.2-1 .3 1.3-4.2 1zm10.1 11.3c4.3-.7 6.4-1 14.4-2.8l.3 1.3-15.2 3.5c.2-.7.4-1.4.5-2zm14.8 6.3c-6.4.6-5-.2-15.2 2.1l-.3-1.3 12.7-4.1 6.1-1.4.6 2.4c-2.7.6-.7.6-3.9 2.3zm13.5-3.2c-1.5.4-2.7-.3-3.4-2l3.9-.9c1.7-.4 2.8.3 3.2 2l-3.7.9zm36.6-39.4l-.3-1.3 6.3-1.5.6 2.4-6.6.4zm39.1 239.8c.4-1.8.5-3.1.3-4l1.4-.3c1.7-.4 2.7.2 3.1 1.8l.3 1.3-5.1 1.2zm27.4-229.5l-2.8-.5c-4.5 1.8-8.3 3.1-11.4 3.8l-2.6.6c-1.5.4-2.7-.2-3.3-1.8l18.3-4.2 6-2.8 2 2.3c-2.9.6-5 1.5-6.2 2.6zm14.1-4.5l-.3-1.3c.9-.2 2.1-.9 3.4-2.2l13-3 .3 1.3c-6.9 1.7-12.4 3.4-16.4 5.2zm2-26.3c-.9.2-2.1 1-3.6 2.2-.2-.9-2-.9-5.4-.1-.6-2.5 9-6 28.9-10.6l2.8-.6.6 2.4c-14 4.1-21.8 6.4-23.3 6.7zm35-37.8c-1.4 15.9-7 24.9-16.9 27.2l-.3-1.3-8.8 3.4-3.9.9c-2 .5-3.8.4-5.4-.1l-.8-3.5c-.3-1.3 12.4-18.9 38.2-52.7l3 .5c1.1 4.6-.6 13.1-5.1 25.6zm61.9-53l-1.2.1-.2-2.5 5.2-.5.1 1.3c-.9.2-2.2.7-3.9 1.6zM721 491.4c-3-1.4-5.7-2-8-1.8l-.3-3.8c-.1-1.3.7-2.2 2.4-2.7 1.7-.2 2.7 1 2.9 3.6 4.3-5.5 6.7-8.3 7.2-8.3l2.7 1.1c-1 7.6-3.3 11.6-6.9 11.9zm273.4-286c-1.3.1-3.8-3.9-7.7-12l-.2-2.5c2.5-.2 5.1 3.7 7.7 11.7l.2 2.8zm-3.6-28.6l-1.2 2.6-37-15.5c24.7.8 37.5 5.1 38.2 12.9zM833.9 311.5l-5.2.5-.2-2.5 5.2-.4.2 2.4zm-4.3-80.9l1.4-.1.3 3.8c-1.3.1-2.9 1.9-4.8 5.4l-.2-2.5c2.3-2.9 3.4-5.1 3.3-6.6zm-10.9 26l.4 4.9-1.4.1-.4-4.9 1.4-.1zm-5.9 9.3l2.6-.2c-.3 4.2-1.4 6.4-3.3 6.6l-1.4.1c1.5-2.8 2.2-5 2.1-6.5zm-4.2 12.8l1.2-.1.1 1.3-2.3 4-2.6.2-.1-1.3c2.7-.2 3.9-1.6 3.7-4.1zm-4.2 11.6l-.9 6.4-1.2.1-.5-6.3 2.6-.2zm-42.7 121.3c-1.7 8.4-3.5 12.7-5.4 12.9l-.1-1.1c-.3-4.2 1.5-8.2 5.5-11.8zm-7.9 16.9l.1 1.1c.2 1.8-.6 2.8-2.4 2.9l-.1-1.3c-.1-1.3.7-2.2 2.4-2.7zm-2.2 35.2l4-.3.1 1.3c-.9.1-2.3.6-3.9 1.5l-2.6.2c-.1-1.4.7-2.3 2.4-2.7zM863.9 429c-22 10.9-35.1 18.3-39.2 22.1-24 8.4-35.9 13.6-35.7 15.7-21.3 8.5-35.3 14.6-41.9 18.5-1.6.1-3.9-.5-6.9-1.9-.4-4.3 1.6-7.8 5.8-10.4 3.8-.3 7.4.2 10.7 1.6 4-2 10.9-4.2 20.7-6.7l-.2-2.5-8.2.6c1-1.4 8.7-5 23-10.8l4-.3.1 1.1c-6.8.6-10.6 2.6-11.4 6.2.1 1.6 1.1 2.4 2.8 2.2 5-3.3 7.4-5.2 7.4-5.8 9.6-1.7 36.2-15.7 79.9-41.9l.2 2.5c.1 1.1-3.6 4.3-11.1 9.8zm-67 22c6.5-.6 12-3.1 16.6-7.5 1.7-.2 2.7.6 2.8 2.2-3 .3-8.9 2.8-17.8 7.6l-1.4.1-.2-2.4zm108.2-83.1l-33.3 26.8c-24.9 16.3-38.4 24.5-40.5 24.7-39.6 21.8-64.2 33.1-73.9 33.9l-1.4.1c1.2-4.5 18.9-40.6 53.1-108.4 14.9-1.3 38.5-8.4 70.9-21.2l8.1-.7c16.3-1.4 28.5 1.8 36.5 9.5l.4 4.9c-6.1 17.2-12.7 27.3-19.9 30.4zm-65.4-36.8l5.2-.5.1 1.3-5.2.5-.1-1.3zm75.7-12.9l4-.3c3.7 1.8 5.6 3.4 5.7 4.7l.1 1.1c-3.5.3-6.8-1.5-9.8-5.5zm10.5-60.9c-3.5 4.2-13 11.4-28.5 21.4-5.2.5-24.4 7.9-57.6 22.3-1.6-.6-3.4-.8-5.3-.7l-.2-2.5c-.4-4.8 1.7-10.8 6.3-18.1 2.6-13.8 5.5-21.5 8.5-23.3L877 194c-.3-3.7 5.6-6.7 17.6-9l4-.3.3 3.8c11.8-1.9 19.2-3 22.2-3.3 22-1.9 33.5 2.5 34.4 13.3l2.6-.2-.5-6 2.6-.2c6.4 3.5 9.8 7.7 10.2 12.7.3 3.6-1.5 8-5.3 13.1-1.7.2-2.7-1-2.9-3.6l-2.6.2-.8 7.5c-11.1 16.9-19.2 25.6-24.3 26-4.5 6.1-7.3 9.2-8.6 9.3zm11.7 41.6l-.3-3.8 2.6-.2 5.6 3.4c.1 1.6-.7 2.5-2.4 2.7-2.4-1.5-4.2-2.2-5.5-2.1zM472.1 541.8l-2.6.6-2.2 1.9c.4 1.6 1.4 2.2 3.1 1.8 1.7-.4 2.4-1.4 2-3l-.3-1.3zm-9.9-19.7l.3 1.3c1.7-.4 2.4-1.4 2-3l-.3-1.3c-1.6.4-2.3 1.4-2 3zm70.4-167.5l3-.7-.6-2.6-3 .7.6 2.6zm907.4 76.2c-30.4 6.8-34.2 5.6-40.6 6.1l.2 2.5 2.8-.2 1.5-.1-.4-.3 3.3-1.3c30.1-3.3 33.6-2.1 33.3-5.5l-.1-1.2zm-163.7 21.7l.2 2.5h.4l-.2-2.5h-.4zm-18.8-65.9l-2.7-.9c-2.2 5.9-3.3 9.4-3.2 10.4l.1 1.1c2.1-.1 4-3.7 5.8-10.6zm188.7 43.7l.2 2.5 4.4.8-.2-2.5-4.4-.8zm-206.9 25.3l-6.8-.8-1.2 2.6.1 1.3 40.5-3.4-.2-2.5-32.4 2.8zm-18.4-88.7l-.1-1.3-1.4.1-2.5 1.6 1.4 2.4c1.9-.2 2.8-1.1 2.6-2.8zm244.5 45l1.9-.2c1.1-.1 1.6-1 1.5-2.6l-1.1-2.4c-6.9.6-10.1.9-15.7 4l-.1-1.3-8.3.8c-.2-2.5-.9-3.8-2-3.7l-4.3.4c-5 .4-7.4.2-9.9 2.1-.1-.9-.4-1.3-.9-1.3l-4.8.4-2.8 1.6c-.1-.9-.4-1.3-.9-1.3l-1.7 1.5-.1-1.3-6.7-.5-1.6.1.2 2.5 3.4.9 3.2-.2c1.1.7 2.3.9 3.7.8l2.8-1.4.1 1.1c-15.7 3.9-15.6 3.2-26.4 5-1.2-.8-2.1-1.2-2.7-1.1l-.2.2c-1.2-.1-1.9-.9-2-2.2l5.6-.7c.4 0 .7.4 3.8 1 4.5-2.2 4.7-3.1 7.1-3.3l-.2-2.5c-15.4 3-9.2 1-28.5 2.7l-.9.1-.2-2.5c24.8-3 16.5-1.3 25-3.7.1.9.4 1.3.9 1.3 1-1 2.1-1.5 3.4-1.7l1.7-.1c8.7-.7 11.6 1 28.8-3.8l.1 1.1 2.8-1.4 2.6-.2c-.2-2.5 3.6-2.9 4.9-3l-.2-2.7c-30.2 6.1-38.1 4.4-46.5 6.8l-.1-1.1c-7.9 1.4-8.2.8-10.2.9-.6.1-1.5.6-2.5 1.6-.1-.9-.4-1.3-1-1.3-.3 0-.4.1-.5.1l-25.6 4.2c-.1-.7-.4-1.1-1-1-13.3 2.8-9.7 3.3-27.5 4.9-.8.1-1.9.5-3.3 1.4-.1-.7-.5-1.1-1.4-1l-10.9.9-7.3 1.8c-.1-.7-.5-1.1-1.4-1-4.1 1.1-7.7 1.8-10.6 2h-.2c-1.8.2.9-.5-.5-1.1l-2.2 1.3c-3.2.3-1.5-.2-12.5-.1-19.3 2.4-17.2 2.7-19.3 2.8l-7.2-.5c.1.7-.3 1.2-1.1 1.2-8.2-1.1-12.4-2.4-12.5-3.9 1.1-7.8 3-11.8 5.7-12l1.4-.1-1.2 2.6 1.4-.1c2.6-1.4 3.8-2.7 3.7-3.9l-.2-2.7-2.6.2-.2-2.5c-.2-1.9.1-3.6.8-5l5.9-9.5.2 2.5 2.8-.2-.2-2.5-1.6-2.3c2.1-1.8 3.7-2.8 5-2.9l-.1-1.3-3.8.3-.3-3.8c7.6-15.8 11.2-25 11-27.6l2.7 1.1c1.7-.1 2.5-1.1 2.4-2.9l-2.6.2-.1-1.1c-.2-1.9.2-3.7 1-5.3 4.1-4.3 6-8.6 5.6-13.1.8-.1 1.2.3 1.3 1.2 3.5-2 6.2-7.3 8.2-16.1 6.2-11.2 15-33.6 26.5-67.1 22-59.2 21.1-65.5 24.2-79.5l-2.6.2c.2 1.8-.2 3.5-1 5.1-1.8-.7-3.2-1.1-4.2-1l-.1-1.1c-.4-5.1 1.7-11.2 6.5-18.4l1.2-.1 2.2 8.6 2.6-.2c-.1-.6.6-4 2-10.3-.1-1.3-1.1-2.1-3.1-2.2l-2.5 1.6c-.2-1.8-.1-6.5.2-14l-1.3.1c-2.2-2.2-3.3-4-3.4-5.5l-14.3 1.4c-.1-1-.6-2.5-1.6-4.4-.1-1.3 3.1-2.6 9.7-3.9l2.9 1.1 2.7-1.6c.1.9.6 1.3 1.6 1.2l2.7-1.6c.1.9.6 1.3 1.6 1.2l1.3-.1-.2-2.9c-2 .2-7.3.2-15.7-.1l-2.7 1.8-.1-1.6c-67.1 5.5-105.2 8.6-114.3 9.5-1.2.1-5.9 0-14.2-.2.1 1.1-.9 1.7-2.9 1.9l-2.9-1.3-9.8 2.5c-2.3.2-6.2.1-11.6-.5-1.5 1.2-3.3 1.9-5.5 2.1-1.2.1 14.3-.8 28.7-1.8-1.5 1.2-3.8 1.9-7 2.2-2.2.2-4.1-.1-5.7-1-2.2 1-9.3 2.6-21.2 5l-2.9-1.1-46.8 7.2c-1.8-.9-3.9-1.2-6.3-1-2.5.2-6.7 1.1-12.5 2.7l-22.6 9.4 1.7 2.8c1.1-.1 2.7-.7 4.6-1.8l8 .7-1 7.5c-7.4 3.3-11.7 8.2-12.9 14.4-11.1 4.9-16.6 8.4-16.6 10.5l.1 1.3 1.7-.1 3-1.6 3.5 4.2.5 5.8c.2 1.8-18.5 41.1-55.9 117.9-32.4 74-49.4 114.5-51 121.8-11.1 3.1-17.5 7.6-19.4 13.6.2 1.9 3.5 3.2 9.9 3.7l.3 2.9-2.9 4.8.5 5.8c.3 3 8.4 5.3 24.3 6.9-.1-1 .4-1.6 1.5-1.7.3 3.6-.7 10.6-3 21l1.7-.1c6.6-9 9.7-15.2 9.4-18.6l1.4-.1c1.6-.1 3.3 1.7 5.3 5.6-2 .8-9 16.7-21 47.8l1.7 2.8 1.7-.1c14.7-37.2 23.9-57.8 27.7-61.7 19.3-1.7 52.7-5.1 100.1-10.2l3-1.8c.1 1 .7 1.5 1.8 1.4l3.1-.3 3-1.8c.1 1 .7 1.5 1.8 1.4l35.9-3.1c9.5-.8 14-3.7 13.6-8.6-.1-1.3 5.5-2.8 16.8-4.4 1.1-.1 2.7.2 4.9.9-.1-.9 5.6-1.8 17-2.8.3-6 2.2-9.2 5.6-9.5l-.3-2.9c-3.2.3-6.8 1.1-11 2.5-7.5-.4-12.3-1-14.3-1.7-2 1.1-3.5 1.7-4.6 1.8l-25 .8-3 1.6c-.1-.9-.7-1.3-1.8-1.2l-1.4.1-3.2 1.6c-.1-.9-2.7-1.6-7.9-2.3l-3.2 1.9-6.2.5-.1-1.6c32.2-3.5 48.1-7.9 47.7-13.1 2.1-.2 3.2.8 3.4 2.9l9.4-2.4-.3-2.9-77.1 2.1c.1 1-.4 1.6-1.5 1.7l-9.4-.8c-2.4.2-4.4.9-6 2.1l-3.5-1.3c-9.7.8-16.9 2-21.7 3.5-6.6-.5-13.9-.4-22 .3l-17.3 1.5-8-.9c-.4-5.1 9.5-30.2 29.9-75.2 5.9-15.2 11.3-24.7 16.5-28.3 1.1-.1 2.7.3 4.9 1.2l12.3-4.2 6.3 1c10.6-.9 22.9-3.9 37-9.1 3.5-.3 6.1-.1 8 .7l9.4-2.2 28-2.4c11.9-1 24.8-3.6 38.8-7.9l-.3-2.9c-5.2.5-7.9-.4-8.1-2.5-.3-3.9-4.1-5.5-11.4-4.9l-.3-2.9 7.7-2.2 20.2-1.7-.3-2.9c-.8.1-4.9 0-12.5-.3l-.3-3.1 7.8-.7c2.1-.2 3-1.2 2.8-3.2-10.5.3-15.8-.2-15.9-1.6-73.2 3.6-109.9 4.3-110.1 2-1.1.1-2.6.8-4.6 2l-1.9-3c19.4-41.2 30.8-62 34.1-62.3.1 1.6-.7 4.2-2.5 7.7l.1 1.3 3.1-.3c7.7-18.4 14.2-27.9 19.6-28.3 23-2-3.2-3.5 46-11.2 2 .9 3.4 1.3 4.4 1.2 19.3-3.9 46.2-8 80.7-12.2l-.2-2.9-18.4 1.7-.2-2.9c2.2-.2 4-.9 5.5-2.1l.1 1.6c1-.1 2.4-.8 4.2-2 3.2-.3 5.6 0 7.3.9 6.4-1.7 11.6-2.7 15.4-3.1l11.5-1.1c2.8-1.8 4.1-3.4 4-4.9l-.1-1.3c-2.9.3-6.2.1-10.1-.6-.1-1.6.7-2.7 2.6-3.2l21.4-2 9.8-2.5c.1 1.1.6 1.5 1.4 1.5 1-.1 2.4-.8 4.2-2 .5.1 1.1.1 1.6.2-1.3 2.7-2.8 6.6-4.3 11.7l-2.8.2c-.2-1.9-.7-3.6-1.6-5.1l-1.4.1c-26 72.4-37.6 106.1-61.6 161.7-4.4 14.2-8.1 22.1-11.3 23.8.1 1.6 1.1 2.4 2.8 2.2.6 7-1 13.9-4.9 20.7-11.1 32-18.5 49.5-22.3 52.7l2.5 15.1c.1 1.6-.7 2.5-2.4 2.7l-2.6.2c-.4-4.2-1.9-6.2-4.6-5.9l-1.4.1c-3.4 5.3-6 11.4-7.7 18.5l2.6-.2c3.5-2.3 5.1-5 4.8-8.1l5.2-.5 3 1.1c-2.4 3.8-3.5 6.8-3.3 9.1l1.4 2.4-3.4 8 .1 1.3c3-.3 6.3.7 9.8 2.8 2.4-.2 5-1.3 7.9-3.2 3-.3 14.2-.4 33.5-.4l9.7-3.3c11.8-.1 13.7.2 23.9-.7l4.2-.4 2.2-1.5.1 1.3c10.7-.9 11.4-.2 19.8.8l.1 1.3-5.9.5.2 2.5c1.8-.2 3.4-.7 4.7-1.8 1.5-.1 2.4.7 2.5 2.5-2.4.2-5.1.8-8.1 1.8l-2.6-.9c-4.1 1.1-3.2 1.4-6 1.6l-4.1-.8c.1.7-.3 1.2-1 1.2.1 1.6 1 2.4 2.5 2.3l4.2-.4 21.9-1.9 8.3-1.8c.1.7.4 1.1 1.1 1l4-1.5 7.5-.6c5.8-.5 5.7-.9 18.3-2.9-.1-.8.2-1.1.8-1.2l.1 1.1c20.5-3.5 21.8-3.7 25.1-4.8l.3.6c5.1-1.2 2.2-.9 3.6-1.9.1.9.4 1.3.9 1.3l3.6-.3-.2-2.7-7.3-.1-.1-.2c-.3.1-.5.1-.8.2h-1v.2c-4.9 1-5 .3-8.2.6l-18.3 1-.1-1.3 10.2-1.4 3.7-.3 2.1-1.5.1 1.3c14.4-1.2 19.5 2.4 86.1-11.8 3.6-.3 3.3-3.3 5.6-9.5-1.2.1-2.4-.2-3.5-.8-5.5 2.1-8.4 1.1-19 2.8-.9.1-1.6-.7-1.9-2.3l-.1-1.1 10.2.3c1.9-.2 5.6-.5 11.1-3.6 0 .9-2 1.4-.8 1.3zM973 419.8l-4.7.4c-.2-1.9 2.3-9.1 7.5-21.4l3.1-.3c.1 2.9-1.8 10-5.9 21.3zm5.7-22.8l-.1-1.3c-.1-1.6.9-2.7 3.1-3.2l.1 1.3c.1 1.9-.9 3-3.1 3.2zm62.5 48.3l.1 1.3-7.8.7-.1-1.3 7.8-.7zm-9.4-.8c.1 1.6-2.3 3.4-7.5 5.2l-9.6-.7-3.1.3-.3-2.9 20.5-1.9zm63.2-290.9l-4.7.4-.1-1.6c-.1-1.6.8-2.7 2.8-3.2l1.7-.1 3.2 1.3c.1 1.9-.8 3-2.9 3.2zm71.5-14l1.5-.1.2 2.9-4.3.4c-.1-1.6.7-2.7 2.6-3.2zm-18 6.3l-7.1-.8-.1-1.3c9.3-.8 12.4-1.8 18.1-3.4.1 1.1 1.1 1.5 2.9 1.3l.2 2.9-2.8.3c-2.2.2-4.1-.1-5.7-1-1.7 1.1-3.5 1.8-5.5 2zm8.9 25.9l-.1-1.3 11.5-1.1.1 1.3-11.5 1.1zm12.3-10l-.1-1.6 5.6-.5.1 1.6-5.6.5zm1.3-19.6l-1.5.1 1.3-3.1 12.8-1.2.1 1.6c-3.3.3-7.6 1.2-12.7 2.6zm6.5 27.6l-.2-2.9 5.6-.5c1.9-.2 2.9.7 3 2.7l-8.4.7zm33.9-46.2l-7.2 2-1.3.1c-3.4.3-7.8.2-13-.3 9.3-.6 18.2-1.3 21.5-1.8zm-7.7 32l.1 1.3-9.9.9-.1-1.3 9.9-.9zm16.2 7.7c-.1-1.2-2-2-5.9-2.4l-9.9 2.8-7.6.3c-1.7-1.2-2.6-2-2.7-2.6l8.8.5 19.8-3.2 10.1.4.1 1.6c-5 .5-9.2 1.4-12.7 2.6zm101.9-26.3c1.2.1 2 .1 2.3.1 3.5-3.4 7.4-6.1 11.9-8-3.6 15.8-9.2 27.5-16.9 35.1l-5.6-3.4c4.7-11.9 7.5-19.8 8.3-23.8zm-17.2 29.5l1.4-.1c-1.9 3.6-3.6 5.5-5 5.6l-.3-3.8c.9 0 2.2-.6 3.9-1.7zm-11.1 26.5c2.7-10.8 5.3-16.9 7.7-18.5l.1 1.3c-1.4 10-3.6 15.3-6.5 15.7l.5 6.3c-2.4 3.4-3.5 6-3.4 8l-1.4.1-.8-8.7c1.6-.2 2.9-1.6 3.8-4.2zm-4.3 14.4c.1 1.5-.9 5-2.9 10.4l-1.4.1-.3-3.8c1.9-4.4 3.5-6.6 4.6-6.7zm-80.7 234.2l-.1-1.1 2.6-.2.3 3.8c-1.4.1-2.4-.7-2.8-2.5zm115.3 3c-.1-.9-.5-1.3-1.4-1.2l-6.5.6-.1-1.3h.6l15.4-1.3.1 1.3c-4.5.2-7.2.9-8.1 1.9zm-7.7-3.2c.6.3.3.6 0 .8-.3-.1-.7-.4 0-.8zm.8-18l-8.6.7-.1-1.3 7.8-.7 6.8-1.7c.1.8.5 1.1 1.4 1 8.1-1.4 7.3-1.8 11.2-2.1 1.3-.1 2.1.7 2.2 2.3l-20.7 1.8zm30.1-2.6c-4.8-.5-5.1-.9-8.5-.6l-.1-1.1 7.7-.7.1 1.1c-.8.1 2.1.3.8 1.3zm.6-1.4l-.1-1.1 4.2-.4.1 1.1-4.2.4zm9.3-.8l-.1-1.1c.7-.1 1.7-.6 3-1.6 2.1-.2 3.2 1.2 3.4 2.8l-6.3-.1zm11.9-1.5l-.1-1.3 5.1-.4.1 1.3-5.1.4zm7.1-.6c-.1-1.5.5-2.4 1.8-2.6l1.7 2.2c-.1-.7.2-1.1.8-1.2l1.3 2.4-5.6-.8zm-75.5 32.6l-.2-2.5-.8.1.2 2.5.8-.1zm175.7-45.5c.8-.5 1.2-1-.7-1.3-.9 1 1 1.3-1 1.4l.1.9c.2-.2.7-.5 1.1-.8l-1.1.9v.1l-2.1 2.7 4.2-1.5h.5l-.2-2.5-.8.1zm7.3 5.7l-.8.1.2 2.5 5.9-.5c-.1-1.6-4-2.1-5.3-2.1zm-9.1-4.4l.1-.1v-.1s-.1.1-.1.2z"/><path fill="#F9DC3E" d="M1090.4 219.8l.1 1.6 3.3-.3c-.1-1 .3-2.6 1-4.6l-.3-2.9c-1.4.1-2.8 2.2-4.1 6.2zm-31.6-76l-.3-2.9-4.7.4.3 2.9 4.7-.4zm-91.7 171.7c-.2-2.7-8.6-13.2-25.2-31.7-.3-3.4 5.4-8.5 17.1-15.2l33.4-29.1c7.5-9.5 11.9-24.9 13.2-46.3l-.4-4.9c-1.3-14.8-12-26.7-32.3-35.8-12-8.1-33.6-12.6-64.8-13.4-25.8 2.2-59.5 11.4-101 27.7-11.4 8.2-24.4 16.4-39 24.6l.2 2.5c.9-.1 2.3-.6 3.9-1.7 1.7-.2 2.7.6 2.8 2.2l2.5-1.3 1.2-.1.1 1.1c.1 1.3-8.9 8.4-27.1 21.1l1.4 2.6-1.2.1-3-1.1c.1.9-1.2 1.5-3.7 1.7l.1 1.1 2.9 3.6c-.9.1-2.3-.3-4.2-1-4.2.4-8.3 2.6-12.4 6.8l1.7-7.4c6.1-26.3 10.3-49.6 12.5-69.8l-.3-1.3c-4.2-2.7-8.3-6.5-12.1-11.3.1-3.1.1-4.9 0-5.3l-.3-1.1-1.2.3c-13.2 19.8-38.6 53.6-76.3 101.4-28.7 34-43.5 52.9-44.4 56.7-11.7 12.1-17.3 19.4-16.7 21.9-3.1 2-4.4 4-3.9 6.2-.9.2-1.5-.1-1.7-1-5 8.1-12.4 13.3-22.3 15.6l-10.4 2.4c-1.4.3-2.1 1.3-2 3l.3 1.3 3.9-.9.3 1.1-8.8 3.4-15.6 3.6-8.2.5c-1.2 1.2 6.5-.1 3.5.6l-10.2 2.4c-6.2 1.4-9.6.9-10.2-1.6l-1.2.3c.2 1.1.3 1.9.1 2.6l-.6-2.5-8.2 1.9c-.6-3.8-11.7-17.6-33.2-41.4-.4-4.6 7.2-11.3 22.7-20l43.8-38.5c9.8-12.6 15.6-32.8 17.5-60.6l-.6-6.5c-1.7-19.6-15.9-35.4-42.6-47.6-15.8-10.7-44.2-16.4-85.2-17.3-34 2.9-78.4 15-133 36.1-15 10.9-32.1 21.7-51.3 32.4l.3 3.4c1.3-.1 3-.8 5.1-2 2.2-.2 3.4.8 3.6 2.8l3.4-1.9 1.7-.1.1 1.6c.1 1.6-11.8 10.9-35.9 27.9l1.9 3-1.7.1-3.7-1.3c.1 1-1.6 1.7-5.1 2l.2 1.8 4 4.4c-1.3.1-3.1-.3-5.4-1.1-7.8.7-15.4 6.3-22.9 16.9l1.9 3c6.5-6 10.3-9 11.4-9.1l.4 4.9c-1.1.1-2.8.8-5.1 2l4.1 6.2c7.9-8.5 16.6-15.8 26.1-21.9 4.7 1.2 7.2 2.7 7.3 4.3l3.6-.3c25.8-19.1 51.3-32.9 76.6-41.4l.3 3.4c-4.7 7-7.9 10.6-9.6 10.8.2 2.4 1 4.5 2.5 6.3.4 4.3-11.1 33.3-34.4 86.9-52.9 124.6-97.3 216.8-133.4 276.4.1 1.2.8 2.8 2.1 4.8 8.9-2.1 14.5-4.3 16.9-6.4l1.9-.2.3 3.4 3.3-.3 3.4-1.9c.1 1 1.2 1.5 3.5 1.3l.3 3.4c.3 3.3-1.6 8.3-5.6 15.2-3.6 4.1-7.5 12.7-11.6 25.8l.1 1.6 3.3-.3c14.4-16.1 25.3-31.9 32.8-47.3 42-12.3 74-24.4 96.2-36.3 22.3-1.9 39.3-7.8 50.9-17.5l-.2-1.8-8.4 2.5-1.9.2-.2-1.8c16.4-2.5 27.7-6.1 34-11.1 31.9-24.6 56-42 72.3-52.3 33.5-24.6 55.3-48.6 65.2-71.9 1.8-.4 3.6-.8 5.6-1.3 4.7-.2 7.3-.3 8-.5-.2-.9.2-1.4 1.1-1.6 7.5-.8 3.9.5 8.7-.6l12.6-2.9 2.1-.5-1 .6c1.4.2 2.9.1 4.6-.3l.9 3.7-57.3 91.1-12.7 15.9-6.2 20.8 1.2-.3 6.2-2.6-2 8.1.6 2.4 1.7 2.1c-.8.2-1.1.7-.9 1.6l.3 1.3 2.6-.6c3.8-3.3 5.4-6.3 4.8-9 4.1.7 6.8 1 8.2.6l.3 1.3c-2.5.6-3.8 2.6-4 6l.3 1.3 1.4-.3c20.8-22.7 71.8-100.4 112.7-153.1-1.3-5.7 20-13.6 64-23.8l1.4-.3c1.6 6.9-1.8 23.6-10.2 50.1-5.4 16-8 24.8-7.6 26.2-7 21.3-10.3 32.8-9.9 34.6l-15.6 51.1c-10.1 26.2-17.8 53.7-23.2 82.7.9-.2 2.3-.1 4.3.4l2.2-1.9c.2.9.8 1.2 1.7 1l-.9-3.7 6.8-.2c2-.5 3.7-3 5.1-7.6-.3-6.9 1.1-10.6 4.2-11.4 4.2-16.4 6.8-24.6 7.7-24.9 3.9-16.3 6.8-25.6 8.7-27.9 5.9-21.2 10.2-32.1 13-32.8l.6 2.6-4.3 11.1c-7.5 33.3-15.1 59.6-22.8 78.9l2.2 9.6 1.4-.3c18.6-40 45.4-119.2 80.3-237.6 1-10.4 6-18.5 14.9-24.2l-2-2.1-.3-1.1c4-.9 6.8-2.5 8.4-4.7-.2-.9-3.7-2.2-10.5-4l17.4-74.6c3.8-3.4 6-5.2 6.7-5.2l.3 3.8c-.9.1-2.3.6-3.9 1.7l3.3 4.7c6-6.5 12.5-12.1 19.6-16.8 3.6 1 5.4 2.2 5.6 3.4l2.6-.2c19.8-14.5 39.2-24.9 58.3-31.2l.2 2.5c-3.5 5.3-5.9 8-7.2 8.1.2 1.8.7 3.4 1.6 4.8.3 3.3-8.3 25.3-25.9 66.1-40.2 94.5-73.9 164.4-101.3 209.8.1.9.7 2.1 1.8 3.7 6.7-1.6 11-3.3 12.7-4.9l1.2-.1.2 2.5 2.8-.2 2.5-1.3c.1.7 1 1 2.7.9l.2 2.7c.2 2.4-1.2 6.2-4.3 11.4-2.9 3.1-5.9 9.6-9.1 19.5l.1 1.3 2.6-.2c10.9-12.2 19.2-24.2 24.9-36 31.9-9.4 56.2-18.5 73-27.5 17.1-1.5 30-5.9 38.8-13.3l-.1-1.3-6.5 1.9-1.4.1-.1-1.3c12.4-1.8 21.1-4.6 25.8-8.3 24.2-18.6 42.5-31.9 54.9-39.7 38.6-28.1 56.6-55.1 54.4-81zm-6.6 1.7l.9 10.1c-1.2 2.5-2.5 3.8-3.7 3.9l-1.5-17.2c2.8 1 4.2 2 4.3 3.2zm-757.2-81.4l-1.7.1-.3-3.1 6.9-.6.1 1.6c-1.1.1-2.8.7-5 2zm-33.7 337.1c-4-1.8-7.6-2.5-10.7-2.2l-.4-4.9c-.2-1.9.9-3.2 3.3-3.7 2.2-.2 3.5 1.4 3.7 4.6 5.8-7.1 9-10.7 9.6-10.8l3.7 1.5c-1.2 10-4.3 15.1-9.2 15.5zm360.1-376.7c-1.7.2-5.1-5.1-10-15.6l-.3-3.1c3.2-.3 6.5 4.9 10 15.6l.3 3.1zm-4.8-37.3l-1.4 3.3-48.9-20.4c32.6 1.1 49.4 6.8 50.3 17.1zM318.4 336.2l-6.9.6-.3-3.1 6.9-.6.3 3.1zm-5.6-106.5l1.7-.1.4 4.9c-1.6.1-3.7 2.5-6.3 7.1l-.3-3.4c3.1-3.7 4.7-6.5 4.5-8.5zm-14.5 34.2l.6 6.5-1.7.1-.6-6.5 1.7-.1zm-7.6 12.2l3.3-.3c-.3 5.4-1.8 8.3-4.5 8.5l-1.7.1c2.1-3.6 3.1-6.4 2.9-8.3zm-5.7 17l1.9-.2.1 1.6-3.1 5.2-3.3.3-.1-1.6c3.3-.3 4.8-2 4.5-5.3zm-5.6 15.3l-1 8.2-1.7.1-.7-8.1 3.4-.2zm-56.1 159.5c-2.2 11.2-4.6 16.9-7.1 17.1l-.1-1.6c-.6-5.5 1.8-10.7 7.2-15.5zM213 490.2l.1 1.6c.2 2.2-.8 3.5-3 3.6l-.1-1.6c-.2-1.9.8-3.1 3-3.6zm-3 46.3l5.2-.5.2 1.8c-1.3.1-3 .8-5.1 2l-3.3.3c-.2-1.7.9-3 3-3.6zm148-45.7c-29.2 14.4-46.4 24.2-51.5 29.3-31.6 11-47.3 17.8-47 20.5-28.1 11.1-46.6 19.3-55.5 24.4-2.1.2-5.1-.6-9.1-2.4-.5-5.7 2.1-10.3 7.6-14 4.9-.4 9.6.3 14.1 2.2 5.2-2.7 14.3-5.7 27.2-8.9l-.3-3.4-10.4.9c1.3-1.8 11.3-6.5 30.1-14.1l5.2-.5.1 1.6c-8.9.8-13.8 3.4-14.9 8.1.2 2.1 1.4 3 3.6 2.8 6.7-4.2 10-6.7 9.9-7.4 12.7-2.4 47.8-20.8 105.3-55.1l.3 3.1c.1 1.5-4.8 5.7-14.7 12.9zm-88.2 29c8.4-.7 15.6-4.1 21.6-10 2.4-.2 3.7.7 3.8 2.8-4.1.4-12 3.8-23.5 10.4l-1.7.1-.2-3.3zm142.3-109.3l-44.1 35c-32.8 21.5-50.4 32.3-53 32.5-52.2 28.7-84.7 43.6-97.3 44.7l-1.9.2c1.6-5.9 24.8-53.4 69.8-142.8 19.8-1.7 51-10.9 93.5-27.7l10.4-.9c21.5-1.9 37.6 2.3 48.2 12.3l.6 6.5c-7.9 22.9-16.7 36.3-26.2 40.2zM325.9 362l7.1-.6.1 1.6-7.1.6-.1-1.6zm99.7-16.9l5.2-.5c4.8 2.3 7.3 4.3 7.5 6.1l.1 1.6c-4.6.4-8.9-2-12.8-7.2zm14.1-80.3c-4.6 5.5-17.2 14.9-37.8 28.1-6.8.6-32.1 10.4-75.9 29.6-2.2-1-4.5-1.4-7-1.2l-.3-3.1c-.5-6.3 2.3-14.2 8.5-23.8 3.4-18 7.1-28.3 11.2-30.8l36.5-82.1c-.4-5.1 7.4-9 23.4-11.7l5.2-.5.4 4.7c15.7-2.4 25.5-3.8 29.3-4.1 29-2.5 44.1 3.4 45.3 17.5l3.3-.3-.7-8.3 3.6-.3c8.5 4.7 13.1 10.4 13.7 17.1.4 4.6-2.1 10.3-7.4 17.1-2.2.2-3.5-1.4-3.7-4.6l-3.6.3-.8 10c-14.7 22-25.4 33.3-32 33.9-6 8.3-9.7 12.4-11.2 12.5zm22.4 57.5c-3-2-5.4-2.9-7.2-2.8l-.4-4.9 3.3-.3 7.3 4.3c.3 2.3-.7 3.5-3 3.7zm23.2 27.5c3.2 1.3 5.1 2.7 5.5 4l-1.6.4.1.1c-.3 0-.7.1-1 .2l-2.4 1.9-.6-6.6zm2.2 13.8l-.3-1.3 4.2-1 .3 1.3-4.2 1zm10.1 11.3c4.3-.7 6.4-1 14.4-2.8l.3 1.3-15.2 3.5c.2-.7.4-1.4.5-2zm14.8 6.3c-6.4.6-5-.2-15.2 2.1l-.3-1.3 12.8-4.1 6.1-1.4.6 2.4c-2.8.6-.8.6-4 2.3zm13.5-3.2c-1.5.4-2.7-.3-3.4-2l3.9-.9c1.7-.4 2.8.3 3.2 2l-3.7.9zm36.6-39.4l-.3-1.3 6.3-1.5.6 2.4-6.6.4zm39.1 239.8c.4-1.8.5-3.1.3-4l1.4-.3c1.7-.4 2.7.2 3.1 1.8l.3 1.3-5.1 1.2zM629 348.9l-2.8-.5c-4.5 1.8-8.3 3.1-11.4 3.8l-2.6.6c-1.5.4-2.7-.2-3.3-1.8l18.3-4.2 6-2.8 2 2.3c-2.9.6-5 1.5-6.2 2.6zm14.1-4.5l-.3-1.3c.9-.2 2.1-.9 3.4-2.2l13-3 .3 1.3c-6.9 1.7-12.4 3.4-16.4 5.2zm2-26.3c-.9.2-2.1 1-3.6 2.2-.2-.9-2-.9-5.4-.1-.6-2.5 9-6 28.9-10.6l2.8-.6.6 2.4c-14 4.1-21.8 6.4-23.3 6.7zm35-37.8c-1.4 15.9-7 24.9-16.9 27.2l-.3-1.3-8.8 3.4-3.9.9c-2 .5-3.8.4-5.4-.1l-.8-3.5c-.3-1.3 12.4-18.9 38.2-52.7l3 .5c1.1 4.6-.6 13.1-5.1 25.6zm61.9-53l-1.2.1-.2-2.5 5.2-.5.1 1.3c-.9.2-2.2.7-3.9 1.6zm-25.5 256.1c-3-1.4-5.7-2-8-1.8l-.3-3.8c-.1-1.3.7-2.2 2.4-2.7 1.7-.2 2.7 1 2.9 3.6 4.3-5.5 6.7-8.3 7.2-8.3l2.7 1.1c-1 7.6-3.3 11.6-6.9 11.9zm273.4-286c-1.3.1-3.8-3.9-7.7-12l-.2-2.5c2.5-.2 5.1 3.7 7.7 11.7l.2 2.8zm-3.6-28.6l-1.2 2.6-37-15.5c24.7.8 37.5 5.1 38.2 12.9zM829.4 303.5l-5.2.5-.2-2.5 5.2-.5.2 2.5zm-4.3-80.9l1.4-.1.3 3.8c-1.3.1-2.9 1.9-4.8 5.4l-.2-2.5c2.3-2.9 3.4-5.1 3.3-6.6zm-10.9 26l.4 4.9-1.4.1-.4-4.9 1.4-.1zm-5.9 9.3l2.6-.2c-.3 4.2-1.4 6.4-3.3 6.6l-1.4.1c1.5-2.8 2.2-5 2.1-6.5zm-4.2 12.8l1.2-.1.1 1.3-2.3 4-2.6.2-.1-1.3c2.7-.2 3.9-1.6 3.7-4.1zm-4.2 11.6l-.9 6.4-1.2.1-.5-6.3 2.6-.2zm-42.7 121.3c-1.7 8.4-3.5 12.7-5.4 12.9l-.1-1.1c-.3-4.2 1.5-8.2 5.5-11.8zm-7.9 16.9l.1 1.1c.2 1.8-.6 2.8-2.4 2.9l-.1-1.3c-.1-1.3.7-2.2 2.4-2.7zm-2.2 35.2l4-.3.1 1.3c-.9.1-2.3.6-3.9 1.5l-2.6.2c-.1-1.4.7-2.3 2.4-2.7zM859.4 421c-22 10.9-35.1 18.3-39.2 22.1-24 8.4-35.9 13.6-35.7 15.7-21.3 8.5-35.3 14.6-41.9 18.5-1.6.1-3.9-.5-6.9-1.9-.4-4.3 1.6-7.8 5.8-10.4 3.8-.3 7.4.2 10.7 1.6 4-2 10.9-4.2 20.7-6.7l-.2-2.5-8.1.7c1-1.4 8.7-5 23-10.8l4-.3.1 1.1c-6.8.6-10.6 2.6-11.4 6.2.1 1.6 1.1 2.4 2.8 2.2 5-3.3 7.4-5.2 7.4-5.8 9.6-1.7 36.2-15.7 79.9-41.9l.2 2.5c0 1-3.7 4.2-11.2 9.7zm-67 22c6.5-.6 12-3.1 16.6-7.5 1.7-.1 2.7.6 2.8 2.2-3 .3-8.9 2.8-17.8 7.6l-1.4.1-.2-2.4zm108.2-83.1l-33.3 26.8c-24.9 16.3-38.4 24.5-40.5 24.7-39.6 21.8-64.2 33.1-73.9 33.9l-1.4.1c1.2-4.5 18.9-40.6 53.1-108.4 14.9-1.3 38.5-8.4 70.9-21.2l8.1-.7c16.3-1.4 28.5 1.8 36.5 9.5l.4 4.9c-6.1 17.2-12.7 27.3-19.9 30.4zm-65.4-36.8l5.2-.5.1 1.3-5.2.5-.1-1.3zm75.7-12.9l4-.3c3.7 1.8 5.6 3.4 5.7 4.7l.1 1.1c-3.5.3-6.8-1.5-9.8-5.5zm10.5-60.9c-3.5 4.2-13 11.4-28.5 21.4-5.2.5-24.4 7.9-57.6 22.3-1.6-.6-3.4-.8-5.3-.7l-.2-2.5c-.4-4.8 1.7-10.8 6.3-18.1 2.6-13.8 5.5-21.5 8.5-23.3l27.9-62.4c-.3-3.7 5.6-6.7 17.6-9l4-.3.3 3.8c11.8-1.9 19.2-3 22.2-3.3 22-1.9 33.5 2.5 34.4 13.3l2.6-.2-.5-6 2.6-.2c6.4 3.5 9.8 7.7 10.2 12.7.3 3.6-1.5 8-5.3 13.1-1.7.2-2.7-1-2.9-3.6l-2.6.2-.8 7.5c-11.1 16.9-19.2 25.6-24.3 26-4.5 6.1-7.3 9.2-8.6 9.3zm11.7 41.6l-.3-3.8 2.6-.2 5.6 3.4c.1 1.6-.7 2.5-2.4 2.7-2.4-1.5-4.2-2.2-5.5-2.1zM467.6 533.8l-2.6.6-2.2 1.9c.4 1.6 1.4 2.2 3.1 1.8 1.7-.4 2.4-1.4 2-3l-.3-1.3zm-9.9-19.7l.3 1.3c1.7-.4 2.4-1.4 2-3l-.3-1.3c-1.6.4-2.3 1.4-2 3zm70.8-133l1.9-1.2c-.4 0-.7-.1-1-.2-.7.2-1 .7-.9 1.4zm-.4-34.5l3-.7-.6-2.6-3 .7.6 2.6zm706.7 101l-6.8-.8-1.2 2.6.1 1.3 40.5-3.4-.2-2.5-32.4 2.8zm37-3.1l.2 2.5h.4l-.2-2.5h-.4zm169.9-22.2l.2 2.5 4.4.8-.2-2.5-4.4-.8zm-6.2.5c-30.4 6.8-34.2 5.6-40.6 6.1l.2 2.5 2.8-.2 1.5-.1-.4-.3 3.3-1.3c30.1-3.3 33.6-2.1 33.3-5.5l-.1-1.2zM1253 378.6l-2.7-.9c-2.2 5.9-3.3 9.4-3.2 10.4l.1 1.1c2.1-.1 4-3.7 5.8-10.6zm-36.6-19.7l-.1-1.3-1.4.1-2.5 1.6 1.4 2.4c1.9-.2 2.8-1.1 2.6-2.8zm79.5 82.2l-.2-2.5-.8.1.2 2.5.8-.1zm165-37.2l1.9-.2c1.1-.1 1.6-1 1.5-2.6l-1.1-2.4c-6.9.6-10.1.9-15.7 4l-.1-1.3-8.3.8c-.2-2.5-.9-3.8-2-3.7l-4.3.4c-5 .4-7.4.2-9.9 2.1-.1-.9-.4-1.3-.9-1.3l-4.8.4-2.8 1.6c-.1-.9-.4-1.3-.9-1.3l-1.7 1.5-.1-1.3-6.7-.5-1.6.1.2 2.5 3.4.9 3.2-.2c1.1.7 2.3.9 3.7.8l2.8-1.4.1 1.1c-15.7 3.9-15.6 3.2-26.4 5-1.2-.8-2.1-1.2-2.7-1.1l-.2.2c-1.2-.1-1.9-.9-2-2.2l5.6-.7c.4 0 .7.4 3.8 1 4.5-2.2 4.7-3.1 7.1-3.3l-.2-2.5c-15.4 3-9.2 1-28.5 2.7l-.9.1-.2-2.5c24.8-3 16.5-1.3 25-3.7.1.9.4 1.3.9 1.3 1-1 2.1-1.5 3.4-1.7l1.7-.1c8.7-.7 11.6 1 28.8-3.8l.1 1.1 2.8-1.4 2.6-.2c-.2-2.5 3.6-2.9 4.9-3l-.2-2.7c-30.2 6.1-38.1 4.4-46.5 6.8l-.1-1.1c-7.9 1.4-8.2.8-10.2.9-.6.1-1.5.6-2.5 1.6-.1-.9-.4-1.3-1-1.3-.3 0-.4.1-.5.1l-25.6 4.2c-.1-.7-.4-1.1-1-1-13.3 2.8-9.7 3.3-27.5 4.9-.8.1-1.9.5-3.3 1.4-.1-.7-.5-1.1-1.4-1l-10.9.9-7.3 1.8c-.1-.7-.5-1.1-1.4-1-4.1 1.1-7.7 1.8-10.6 2h-.2c-1.8.2.9-.5-.5-1.1l-2.2 1.3c-3.2.3-1.5-.2-12.5-.1-19.3 2.4-17.2 2.7-19.3 2.8l-7.2-.5c.1.7-.3 1.2-1.1 1.2-8.2-1.1-12.4-2.4-12.5-3.9 1.1-7.8 3-11.8 5.7-12l1.4-.1-1.2 2.6 1.4-.1c2.6-1.4 3.8-2.7 3.7-3.9l-.2-2.7-2.6.2-.2-2.5c-.2-1.9.1-3.6.8-5l5.9-9.5.2 2.5 2.8-.2-.2-2.5-1.6-2.3c2.1-1.8 3.7-2.8 5-2.9l-.1-1.3-3.8.3-.3-3.8c7.6-15.8 11.2-25 11-27.6l2.7 1.1c1.7-.1 2.5-1.1 2.4-2.9l-2.6.2-.1-1.1c-.2-1.9.2-3.7 1-5.3 4.1-4.3 6-8.6 5.6-13.1.8-.1 1.2.3 1.3 1.2 3.5-2 6.2-7.3 8.2-16.1 6.2-11.2 15-33.6 26.5-67.1 22-59.2 21.1-65.5 24.2-79.5l-2.6.2c.2 1.8-.2 3.5-1 5.1-1.8-.7-3.2-1.1-4.2-1l-.1-1.1c-.4-5.1 1.7-11.2 6.5-18.4l1.2-.1 2.2 8.6 2.6-.2c-.1-.6.6-4 2-10.3-.1-1.3-1.1-2.1-3.1-2.2l-2.5 1.6c-.2-1.8-.1-6.5.2-14l-1.3.1c-2.2-2.2-3.3-4-3.4-5.5l-14.3 1.4c-.1-1-.6-2.5-1.6-4.4-.1-1.3 3.1-2.6 9.7-3.9l2.9 1.1 2.7-1.6c.1.9.6 1.3 1.6 1.2l2.7-1.6c.1.9.6 1.3 1.6 1.2l1.3-.1-.2-2.9c-2 .2-7.3.2-15.7-.1l-2.7 1.8-.1-1.6c-67.1 5.5-105.2 8.6-114.3 9.5-1.2.1-5.9 0-14.2-.2.1 1.1-.9 1.7-2.9 1.9l-2.9-1.3-9.8 2.5c-2.3.2-6.2.1-11.6-.5-1.5 1.2-3.3 1.9-5.5 2.1-1.2.1 14.3-.8 28.7-1.8-1.5 1.2-3.8 1.9-7 2.2-2.2.2-4.1-.1-5.7-1-2.2 1-9.3 2.6-21.2 5l-2.9-1.1-46.8 7.2c-1.8-.9-3.9-1.2-6.3-1-2.5.2-6.7 1.1-12.5 2.7l-22.6 9.4 1.7 2.8c1.1-.1 2.7-.7 4.6-1.8l8 .7-1 7.5c-7.4 3.3-11.7 8.2-12.9 14.4-11.1 4.9-16.6 8.4-16.6 10.5l.1 1.3 1.7-.1 3-1.6 3.5 4.2.5 5.8c.2 1.8-18.5 41.1-55.9 117.9-32.4 74-49.4 114.5-51 121.8-11.1 3.1-17.5 7.6-19.4 13.6.2 1.9 3.5 3.2 9.9 3.7l.3 2.9-2.9 4.8.5 5.8c.3 3 8.4 5.3 24.3 6.9-.1-1 .4-1.6 1.5-1.7.3 3.6-.7 10.6-3 21l1.7-.1c6.6-9 9.7-15.2 9.4-18.6l1.4-.1c1.6-.1 3.3 1.7 5.3 5.6-2 .8-9 16.7-21 47.8l1.7 2.8 1.7-.1c14.7-37.2 23.9-57.8 27.7-61.7 19.3-1.7 52.7-5.1 100.1-10.2l3-1.8c.1 1 .7 1.5 1.8 1.4l3.1-.3 3-1.8c.1 1 .7 1.5 1.8 1.4l35.9-3.1c9.5-.8 14-3.7 13.6-8.6-.1-1.3 5.5-2.8 16.8-4.4 1.1-.1 2.7.2 4.9.9-.1-.9 5.6-1.8 17-2.8.3-6 2.2-9.2 5.6-9.5l-.3-2.9c-3.2.3-6.8 1.1-11 2.5-7.5-.4-12.3-1-14.3-1.7-2 1.1-3.5 1.7-4.6 1.8l-25 .8-3 1.6c-.1-.9-.7-1.3-1.8-1.2l-1.4.1-3.2 1.6c-.1-.9-2.7-1.6-7.9-2.3l-3.2 1.9-6.2.5-.1-1.6c32.2-3.5 48.1-7.9 47.7-13.1 2.1-.2 3.2.8 3.4 2.9l9.4-2.4-.3-2.9-77.1 2.1c.1 1-.4 1.6-1.5 1.7l-9.4-.8c-2.4.2-4.4.9-6 2.1l-3.5-1.3c-9.7.8-16.9 2-21.7 3.5-6.6-.5-13.9-.4-22 .3l-17.3 1.5-8-.9c-.4-5.1 9.5-30.2 29.9-75.2 5.9-15.2 11.3-24.7 16.5-28.3 1.1-.1 2.7.3 4.9 1.2l12.3-4.2 6.3 1c10.6-.9 22.9-3.9 37-9.1 3.5-.3 6.1-.1 8 .7l9.4-2.2 28-2.4c11.9-1 24.8-3.6 38.8-7.9l-.3-2.9c-5.2.5-7.9-.4-8.1-2.5-.3-3.9-4.1-5.5-11.4-4.9l-.3-2.9 7.7-2.2 20.2-1.7-.3-2.9c-.8.1-4.9 0-12.5-.3l-.3-3.1 7.8-.7c2.1-.2 3-1.2 2.8-3.2-10.5.3-15.8-.2-15.9-1.6-73.2 3.6-109.9 4.3-110.1 2-1.1.1-2.6.8-4.6 2l-1.9-3c19.4-41.2 30.8-62 34.1-62.3.1 1.6-.7 4.2-2.4 7.7l.1 1.3 3.1-.3c7.7-18.4 14.2-27.9 19.6-28.3 23-2-3.2-3.5 46-11.2 2 .9 3.4 1.3 4.4 1.2 19.3-3.9 46.2-8 80.7-12.2l-.2-2.9-18.4 1.7-.2-2.9c2.2-.2 4-.9 5.5-2.1l.1 1.6c1-.1 2.4-.8 4.2-2 3.2-.3 5.6 0 7.3.9 6.4-1.7 11.6-2.7 15.4-3.1l11.5-1.1c2.8-1.8 4.1-3.4 4-4.9l-.1-1.3c-2.9.3-6.2.1-10.1-.6-.1-1.6.7-2.7 2.6-3.2l21.4-2 9.8-2.5c.1 1.1.6 1.5 1.4 1.5 1-.1 2.4-.8 4.2-2 .5.1 1.1.1 1.6.2-1.3 2.7-2.8 6.6-4.3 11.7l-2.8.2c-.2-1.9-.7-3.6-1.6-5.1l-1.4.1c-26 72.4-37.6 106.1-61.6 161.7-4.4 14.2-8.1 22.1-11.3 23.8.1 1.6 1.1 2.4 2.8 2.2.6 7-1 13.9-4.9 20.7-11.1 32-18.5 49.5-22.3 52.7l2.5 15.1c.1 1.6-.7 2.5-2.4 2.7l-2.6.2c-.4-4.2-1.9-6.2-4.6-5.9l-1.4.1c-3.4 5.3-6 11.4-7.7 18.5l2.6-.2c3.5-2.3 5.1-5 4.8-8.1l5.2-.5 3 1.1c-2.4 3.8-3.5 6.8-3.3 9.1l1.4 2.4-3.4 8 .1 1.3c3-.3 6.3.7 9.8 2.8 2.4-.2 5-1.3 7.9-3.2 3-.3 14.2-.4 33.5-.4l9.7-3.3c11.8-.1 13.7.2 23.9-.7l4.2-.4 2.2-1.5.1 1.3c10.7-.9 11.4-.2 19.8.8l.1 1.3-5.9.5.2 2.5c1.8-.2 3.4-.7 4.7-1.8 1.5-.1 2.4.7 2.5 2.5-2.4.2-5.1.8-8.1 1.8l-2.6-.9c-4.1 1.1-3.2 1.4-6 1.6l-4.1-.8c.1.7-.3 1.2-1 1.2.1 1.6 1 2.4 2.5 2.3l4.2-.4 21.9-1.9 8.3-1.8c.1.7.4 1.1 1.1 1l4-1.5 7.5-.6c5.8-.5 5.7-.9 18.3-2.9-.1-.8.2-1.1.8-1.2l.1 1.1c20.5-3.5 21.8-3.7 25.1-4.8l.3.6c5.1-1.2 2.2-.9 3.6-1.9.1.9.4 1.3.9 1.3l3.6-.3-.2-2.7-7.3-.1-.1-.2c-.3.1-.5.1-.8.2h-1v.2c-4.9 1-5 .3-8.2.6l-18.3 1-.1-1.3 10.2-1.4 3.7-.3 2.1-1.5.1 1.3c14.4-1.2 19.5 2.4 86.1-11.8 3.6-.3 3.3-3.3 5.6-9.5-1.2.1-2.4-.2-3.5-.8-5.5 2.1-8.4 1.1-19 2.8-.9.1-1.6-.7-1.9-2.3l-.1-1.1 10.2.3c1.9-.2 5.6-.5 11.1-3.6 0 .9-2.1 1.4-.9 1.3zm-492.4 7.9l-4.7.4c-.2-1.9 2.3-9.1 7.5-21.4l3.1-.3c.1 2.9-1.8 10-5.9 21.3zm5.7-22.8l-.1-1.3c-.1-1.6.9-2.7 3.1-3.2l.1 1.3c.1 1.9-.9 3-3.1 3.2zm62.5 48.3l.1 1.3-7.8.7-.1-1.3 7.8-.7zm-9.4-.8c.1 1.6-2.3 3.4-7.5 5.2l-9.6-.7-3.1.3-.3-2.9 20.5-1.9zm63.2-290.9l-4.7.4-.1-1.6c-.1-1.6.8-2.7 2.8-3.2l1.7-.1 3.2 1.3c.1 1.9-.8 3-2.9 3.2zm71.5-14l1.5-.1.2 2.9-4.3.4c-.1-1.6.7-2.7 2.6-3.2zm-18 6.3l-7.1-.8-.1-1.3c9.3-.8 12.4-1.8 18.1-3.4.1 1.1 1.1 1.5 2.9 1.3l.2 2.9-2.8.3c-2.2.2-4.1-.1-5.7-1-1.7 1.1-3.5 1.8-5.5 2zm8.9 25.9l-.1-1.3 11.5-1.1.1 1.3-11.5 1.1zm12.3-10l-.1-1.6 5.6-.5.1 1.6-5.6.5zm1.3-19.6l-1.5.1 1.3-3.1 12.8-1.2.1 1.6c-3.3.3-7.6 1.2-12.7 2.6zm6.5 27.6l-.2-2.9 5.6-.5c1.9-.2 2.9.7 3 2.7l-8.4.7zm33.9-46.2l-7.2 2-1.3.1c-3.4.3-7.8.2-13-.3 9.3-.6 18.2-1.3 21.5-1.8zm-7.7 32l.1 1.3-9.9.9-.1-1.3 9.9-.9zm16.2 7.7c-.1-1.2-2-2-5.9-2.4l-9.9 2.8-7.6.3c-1.7-1.2-2.6-2-2.7-2.6l8.8.5 19.8-3.2 10.1.4.1 1.6c-5 .5-9.2 1.4-12.7 2.6zm101.9-26.3c1.2.1 2 .1 2.3.1 3.5-3.4 7.4-6.1 11.9-8-3.6 15.8-9.2 27.5-16.9 35.1l-5.6-3.4c4.7-11.9 7.5-19.8 8.3-23.8zm-17.2 29.5l1.4-.1c-1.9 3.6-3.6 5.5-5 5.6l-.3-3.8c.9 0 2.2-.6 3.9-1.7zM1289 185c2.7-10.8 5.3-16.9 7.7-18.5l.1 1.3c-1.4 10-3.6 15.3-6.5 15.7l.5 6.3c-2.4 3.4-3.5 6-3.4 8l-1.4.1-.8-8.7c1.6-.2 2.9-1.6 3.8-4.2zm-4.3 14.4c.1 1.5-.9 5-2.9 10.4l-1.4.1-.3-3.8c1.9-4.4 3.5-6.6 4.6-6.7zM1204 433.6l-.1-1.1 2.6-.2.3 3.8c-1.4.1-2.4-.7-2.8-2.5zm115.3 3c-.1-.9-.5-1.3-1.4-1.2l-6.5.6-.1-1.3h.6l15.4-1.3.1 1.3c-4.5.2-7.2.9-8.1 1.9zm-7.7-3.2c.6.3.3.6 0 .8-.3-.1-.7-.4 0-.8zm.8-18l-8.6.7-.1-1.3 7.8-.7 6.8-1.7c.1.8.5 1.1 1.4 1 8.1-1.4 7.3-1.8 11.2-2.1 1.3-.1 2.1.7 2.2 2.3l-20.7 1.8zm30.1-2.6c-4.8-.5-5.1-.9-8.5-.6l-.1-1.1 7.7-.7.1 1.1c-.8.1 2.1.3.8 1.3zm.6-1.4l-.1-1.1 4.2-.4.1 1.1-4.2.4zm9.3-.8l-.1-1.1c.7-.1 1.7-.6 3-1.6 2.1-.2 3.2 1.2 3.4 2.8l-6.3-.1zm11.9-1.5l-.1-1.3 5.1-.4.1 1.3-5.1.4zm7.1-.6c-.1-1.5.5-2.4 1.8-2.6l1.7 2.2c-.1-.7.2-1.1.8-1.2l1.3 2.4-5.6-.8zm98.4-11.6l.1-.1v-.1s-.1.1-.1.2zm1.8-1.3c.8-.5 1.2-1-.7-1.3-.9 1 1 1.3-1 1.4l.1.9c.2-.2.7-.5 1.1-.8l-1.1.9v.1l-2.1 2.7 4.2-1.5h.5l-.2-2.5-.8.1zm7.3 5.7l-.8.1.2 2.5 5.9-.5c-.1-1.6-4-2.1-5.3-2.1z"/></svg>