<svg version="1.1" id="Layer_1" xmlns="http://www.w3.org/2000/svg" x="0" y="0" viewBox="0 0 244.8 210.1" xml:space="preserve"><style>.st0{fill:#ed1c24}.st1{fill:#fff}</style><path class="st0" d="M166 61.3v-60l-60 60H56.1l-40-40v130c0 33.1 26.9 60 60 60h90v-150h-.1z"/><path class="st1" d="M60.1 80.5h62.1c14.3 0 25.8 11.6 25.8 25.8 0 14.3-11.6 25.8-25.8 25.8H60.1c-14.3 0-25.8-11.6-25.8-25.8-.1-14.2 11.5-25.8 25.8-25.8z"/><circle cx="119.9" cy="106.3" r="20" fill="#1a434a"/><path d="M61.9 90.6c8.8 0 16 7.2 16 16s-7.2 16-16 16-16-7.2-16-16 7.2-16 16-16m0-4c-11 0-20 9-20 20s9 20 20 20 20-9 20-20-9-20-20-20z" fill="#e54c5c"/><path class="st1" d="M100.1 147.4c-.8-.8-2-.8-2.8 0l-6.1 6.1-6.1-6.1c-.8-.8-2-.8-2.8 0-.8.8-.8 2 0 2.8l7 7v13.6c0 1.1.9 2 2 2s2-.9 2-2v-13.6l7-7c.6-.8.6-2-.2-2.8zm-91 7.7h40.5c.8 0 1.5-.7 1.5-1.5s-.7-1.5-1.5-1.5H9.1c-.8 0-1.5.7-1.5 1.5s.7 1.5 1.5 1.5zm48.2 4.2H1.5c-.8 0-1.5.7-1.5 1.5s.7 1.5 1.5 1.5h55.8c.8 0 1.5-.7 1.5-1.5s-.7-1.5-1.5-1.5zm-7.6 7.2H9.1c-.8 0-1.5.7-1.5 1.5s.7 1.5 1.5 1.5h40.5c.8 0 1.5-.7 1.5-1.5s-.6-1.5-1.4-1.5zm83.2-12.9h40.5c.8 0 1.5-.7 1.5-1.5s-.7-1.5-1.5-1.5h-40.5c-.8 0-1.5.7-1.5 1.5s.7 1.5 1.5 1.5zm48.2 4.2h-55.8c-.8 0-1.5.7-1.5 1.5s.7 1.5 1.5 1.5h55.8c.8 0 1.5-.7 1.5-1.5s-.7-1.5-1.5-1.5zm-7.7 7.2h-40.5c-.8 0-1.5.7-1.5 1.5s.7 1.5 1.5 1.5h40.5c.8 0 1.5-.7 1.5-1.5s-.7-1.5-1.5-1.5z"/><path class="st0" d="M239.7 99.6c-3.8-10.5-15.4-15.8-25.9-12-10.5 3.8-15.8 15.4-12 25.9.1.3.3.7.4 1 12.2 34.2-5.7 71.7-39.9 83.9-12.6 4.5-26.4 5-39.3 1.5 39.7 21.9 89.6 7.4 111.5-32.3 11.5-20.9 13.4-45.7 5.2-68z"/></svg>