<svg width="1200" height="1090" viewBox="0 0 1200 1090" fill="none" xmlns="http://www.w3.org/2000/svg"><path fill-rule="evenodd" clip-rule="evenodd" d="M234.713 251.289c-35.845 19.016-120.856 77.587-133.724 209.936-6.665 68.965 20.449 133.365 78.577 186.609 43.089 39.345 88.467 59.153 93.126 61.187 5.568 2.049 358.633 1.985 539.307 1.952 19.896-.004 37.701-.007 52.721-.007 82.947-26.116 148.66-66.933 188.18-119.165 35.84-47.411 51.69-103.444 45.95-162.521-4.6-47.666-23.21-92.798-50.55-130.07-31.94-53.068-116.949-93.049-159.454-97.615C829.797 79.641 753.516 6.875 669.653.536c-68.01-5.327-127.516 29.917-168.184 65.922-18.381 16.478-33.086 32.96-42.968 45.889a41.18 41.18 0 0 1-1.315-.62c-.824-.4-1.708-.829-2.592-1.153-31.934-13.439-90.065-24.339-139.925 3.044-53.763 29.411-71.458 88.487-76.971 132.604-.231 2.278-1.379 4.311-2.985 5.067zm57.649 32.614c-31.655 15.976-106.729 59.402-118.093 170.59-5.886 57.939 6.498 112.042 57.832 156.773 38.052 33.054 66.566 38.135 70.68 39.844 4.917 1.721 316.715 1.667 476.27 1.64 17.57-.003 33.293-.006 46.558-.006 73.251-21.941 125.5-44.671 160.4-88.552 31.651-39.831 45.651-81.124 40.581-130.756-4.06-40.045-26.27-77.961-50.42-109.274-28.21-44.583-97.499-66.611-135.036-70.447C788.987 151.259 733.183 78.567 659.122 73.241c-60.06-4.475-106.83 25.134-142.745 55.382-16.232 13.844-34.999 39.252-43.726 50.113a37.64 37.64 0 0 1-1.161-.521c-.727-.336-1.508-.696-2.289-.969-28.201-11.289-79.537-26.227-123.569-3.223-47.479 24.709-45.765 68.56-50.634 105.623-.204 1.914-1.217 3.621-2.636 4.257z" fill="#00BDFF"/><path d="M500.565 398.076l-130.636 66.405v75.213L566.46 436.022c17.342-9.044 17.342-66.848 0-75.892L369.929 256.458v75.213l130.636 66.405zm343.352 170.52c5.78-23.121 5.78-34.682 0-57.803H588.181c-5.839 22.892-5.839 34.338 0 57.803h255.736zM0 859.677h73.895c20.348 0 36.413 1.607 48.193 4.82 11.78 3.034 20.437 8.389 25.97 16.064 5.534 7.675 8.3 18.295 8.3 31.861v70.682c0 13.208-2.588 23.476-7.764 30.786-5.176 7.14-13.655 12.23-25.435 15.26-11.781 2.86-28.113 4.29-48.996 4.29H0V859.677zm72.289 144.043c11.423 0 19.99-.45 25.703-1.34 5.89-1.07 10.084-3.033 12.583-5.889 2.678-2.856 4.016-7.318 4.016-13.387v-71.486c0-8.21-3.302-13.922-9.906-17.135-6.426-3.391-16.778-5.087-31.057-5.087H41.767v114.324h30.522zm181.247 32.4c-45.872 0-68.808-14.02-68.808-42.039v-46.586c0-16.243 5.176-28.023 15.529-35.341 10.531-7.318 26.684-10.977 48.46-10.977 20.526 0 35.52 3.569 44.98 10.709 9.638 6.961 14.457 18.831 14.457 35.609v31.593h-84.069v11.78c0 7.497 2.677 12.852 8.032 16.062 5.355 3.22 14.994 4.82 28.916 4.82 12.851 0 27.309-1.87 43.373-5.62v24.9c-15.886 3.39-32.842 5.09-50.87 5.09zm17.403-79.254v-18.742c0-4.284-1.785-7.496-5.355-9.638-3.391-2.142-9.192-3.213-17.403-3.213-9.46 0-15.796 1.071-19.009 3.213-3.391 2.32-5.087 5.533-5.087 9.638v18.742h46.854zm49.958-53.012h41.499l28.38 89.692 27.31-89.692h39.357l-47.657 129.586h-39.625l-49.264-129.586zm211.449 132.266c-16.599 0-37.126-1.61-61.579-4.82v-31.864c30.343 4.644 51.048 6.964 62.115 6.964 23.204 0 34.806-5.98 34.806-17.941v-11.245c0-5.712-1.696-10.085-5.087-13.119-3.213-3.035-9.103-4.552-17.671-4.552h-20.348c-38.197 0-57.296-15.172-57.296-45.515v-12.851c0-15.172 6.337-26.328 19.01-33.468C498.968 860.57 519.049 857 546.536 857c14.28 0 32.396 1.16 54.351 3.481v31.057c-26.952-3.213-45.515-4.819-55.689-4.819-14.101 0-23.561 1.16-28.38 3.48-5.177 2.499-7.765 6.426-7.765 11.781v12.316c0 9.103 7.675 13.654 23.026 13.654h20.883c19.813 0 34.181 3.659 43.106 10.977 8.924 7.319 13.386 18.474 13.386 33.468v11.512c0 20.703-7.407 34.713-22.222 42.033-7.139 3.75-15.082 6.34-23.828 7.77-8.568 1.6-18.92 2.41-31.058 2.41zm104.537-132.266h36.948v12.851c2.32-5.711 6.871-9.727 13.654-12.048 6.783-2.32 16.868-3.48 30.254-3.48 11.245 0 20.259.892 27.042 2.677 6.961 1.785 12.226 4.641 15.796 8.568 3.392 3.926 5.712 8.299 6.961 13.119 1.25 4.64 1.874 11.066 1.874 19.277v42.57c0 12.852-1.873 22.762-5.622 29.722-3.748 6.96-9.549 11.87-17.403 14.72-7.675 2.86-18.206 4.29-31.593 4.29-12.851 0-22.133-1.08-27.844-3.22-5.712-2.14-9.371-6.33-10.978-12.58v68.81h-39.089V903.854zm65.863 107.896c7.675 0 13.476-.53 17.403-1.6 3.927-1.08 6.604-2.95 8.032-5.63 1.428-2.67 2.142-6.69 2.142-12.045V944.55c0-5.89-.625-10.085-1.874-12.584-1.25-2.677-3.748-4.462-7.497-5.354-3.748-.893-9.906-1.339-18.474-1.339-7.318 0-12.94.625-16.867 1.874-3.748 1.249-6.336 3.213-7.764 5.89-1.25 2.678-1.875 6.515-1.875 11.513v47.925c0 5.355.625 9.375 1.875 12.045 1.428 2.68 4.016 4.55 7.764 5.63 3.748 1.07 9.46 1.6 17.135 1.6zm133.969 24.37c-12.137 0-21.241-1.08-27.309-3.22-5.89-2.32-10.085-6.33-12.584-12.05-2.32-5.89-3.48-14.63-3.48-26.233 0-10.353 1.249-18.474 3.748-24.364 2.677-5.891 6.872-10.085 12.584-12.584 5.89-2.677 13.922-4.016 24.096-4.016h43.909v-8.835c0-5.534-.804-9.639-2.41-12.316-1.428-2.678-4.195-4.552-8.3-5.623-3.927-1.071-9.906-1.606-17.938-1.606-11.067 0-26.239 1.071-45.516 3.213v-24.632c14.101-1.785 30.612-2.677 49.532-2.677 16.599 0 29.362 1.249 38.286 3.748 9.103 2.499 15.618 6.783 19.545 12.851 3.927 6.069 5.89 14.904 5.89 26.506v89.158h-38.286v-11.78c-3.035 5.17-7.14 8.83-12.316 10.98-5.176 2.32-14.993 3.48-29.451 3.48zm15.261-24.37c7.853 0 13.476-.27 16.867-.8 2.499-.36 4.195-.89 5.087-1.61 1.071-.71 1.964-1.87 2.678-3.48.714-1.25 1.071-3.12 1.071-5.62v-25.168h-26.774c-6.069 0-10.353.446-12.851 1.339-2.499.714-4.195 2.32-5.087 4.819-.893 2.32-1.339 6.515-1.339 12.583 0 5.891.446 9.997 1.339 12.317.892 2.32 2.588 3.84 5.087 4.55 2.677.71 7.318 1.07 13.922 1.07zm162.374 24.37c-6.79 0-12.14-.18-16.069-.54-3.926-.18-8.746-.62-14.457-1.34-5.712-.71-10.442-1.96-14.19-3.75-3.57-1.78-7.319-4.46-11.245-8.03-7.319-6.07-10.978-16.42-10.978-31.056v-43.106c0-11.78 2.678-21.597 8.033-29.451 1.963-2.856 4.819-5.444 8.567-7.764 3.927-2.499 7.854-4.462 11.781-5.89 3.212-1.071 7.496-1.964 12.851-2.678s10.085-1.16 14.187-1.338h14.19c10 0 23.12 1.606 39.36 4.819v25.703c-18.38-4.284-32.49-6.426-42.3-6.426-18.03 0-27.044 6.069-27.044 18.206v47.657c0 13.744 9.907 20.614 29.724 20.614 9.63 0 23.47-1.96 41.49-5.89v25.7c-16.24 3.04-30.87 4.56-43.9 4.56zm131.03 0c-45.87 0-68.81-14.02-68.81-42.039v-46.586c0-16.243 5.18-28.023 15.53-35.341 10.53-7.318 26.69-10.977 48.46-10.977 20.53 0 35.52 3.569 44.98 10.709 9.64 6.961 14.46 18.831 14.46 35.609v31.593h-84.07v11.78c0 7.497 2.68 12.852 8.03 16.062 5.36 3.22 15 4.82 28.92 4.82 12.85 0 27.31-1.87 43.37-5.62v24.9c-15.88 3.39-32.84 5.09-50.87 5.09zm17.4-79.254v-18.742c0-4.284-1.78-7.496-5.35-9.638-3.39-2.142-9.19-3.213-17.4-3.213-9.46 0-15.8 1.071-19.01 3.213-3.39 2.32-5.09 5.533-5.09 9.638v18.742h46.85z" fill="#00BDFF"/></svg>