<svg xmlns="http://www.w3.org/2000/svg" width="500" height="500" viewBox="0 0 375 375"><defs><clipPath id="a"><path d="M18.75 18.75h337.5v337.5H18.75zm0 0"/></clipPath></defs><g clip-path="url(#a)"><path d="M356.25 187.5a168.46 168.46 0 01-3.242 32.922 168.41 168.41 0 01-9.602 31.656 168.496 168.496 0 01-15.597 29.176 168.197 168.197 0 01-20.985 25.57 168.197 168.197 0 01-25.57 20.985 168.496 168.496 0 01-29.176 15.597 168.41 168.41 0 01-31.656 9.602 168.449 168.449 0 01-32.922 3.242 168.449 168.449 0 01-32.922-3.242 168.41 168.41 0 01-31.656-9.602 168.496 168.496 0 01-29.176-15.597 168.197 168.197 0 01-25.57-20.985 168.197 168.197 0 01-20.985-25.57 168.496 168.496 0 01-15.597-29.176 168.41 168.41 0 01-9.602-31.656A168.449 168.449 0 0118.75 187.5a168.46 168.46 0 013.242-32.922 168.41 168.41 0 019.602-31.656A168.496 168.496 0 0147.19 93.746a168.197 168.197 0 0120.985-25.57 168.197 168.197 0 0125.57-20.985 168.496 168.496 0 0129.176-15.597 168.41 168.41 0 0131.656-9.602A168.449 168.449 0 01187.5 18.75a168.46 168.46 0 0132.922 3.242 168.41 168.41 0 0131.656 9.602 168.496 168.496 0 0129.176 15.597 168.197 168.197 0 0125.57 20.985 168.197 168.197 0 0120.985 25.57 168.496 168.496 0 0115.597 29.176 168.41 168.41 0 019.602 31.656 168.449 168.449 0 013.242 32.922zm0 0" fill="#9a00ff"/></g><path d="M145.648 303.871l-92.023-92.02 36.664-36.671 55.36 55.351 139.038-139.05 36.68 36.664zm0 0" fill="#fff"/></svg>