<svg data-name="Layer 2" xmlns="http://www.w3.org/2000/svg" viewBox="0 0 212.93 212.93"><rect width="212.93" height="212.93" rx="28.35" ry="28.35" fill="#3b5998"/><circle cx="106.36" cy="105.74" r="71.84" opacity=".17"/><path d="M143.26 97.84l-59.71 59.68-.55-.34 21-41.3H69.94l-.27-.57 58.76-59.89.46.27-20 41.54h34zM33.49 53.67h-5.87q-3.8 0-5.08 2.84t-1.29 9.88v19.39a36.45 36.45 0 01-1.1 9.94 20.26 20.26 0 01-2.57 5.87 10.41 10.41 0 01-2.88 3l-2 1.23a15.53 15.53 0 002 1.61 12.22 12.22 0 012.88 3.15 21.3 21.3 0 012.57 5.93 36.47 36.47 0 011.1 9.94v19.35q0 7 1.29 9.88t5.08 2.84h5.88v4.08h-6.13q-5.14 0-8-3.09T16.6 148v-19.49a71.33 71.33 0 00-.37-7.29 27.67 27.67 0 00-1.35-6.36 12 12 0 00-2.69-4.51 6.38 6.38 0 00-4.41-1.85v-4.69a6.37 6.37 0 004.41-1.81 11.93 11.93 0 002.69-4.51 27.65 27.65 0 001.35-6.36 71.31 71.31 0 00.37-7.29V64.17q0-8.4 2.82-11.49t8-3.09h6.12v4.08zm145.95 104.85h5.88q3.79 0 5.08-2.84t1.29-9.88v-19.39a36.49 36.49 0 011.1-9.94 21.3 21.3 0 012.57-5.93 12.19 12.19 0 012.88-3.15 15.78 15.78 0 002-1.61l-2-1.23a10.38 10.38 0 01-2.88-3 20.26 20.26 0 01-2.57-5.87 36.47 36.47 0 01-1.1-9.94V66.39q0-7-1.29-9.88t-5.08-2.84h-5.88v-4.08h6.12q5.14 0 8 3.09t2.82 11.49V83.8a71.31 71.31 0 00.37 7.29 27.58 27.58 0 001.25 6.36 11.88 11.88 0 002.69 4.51 6.36 6.36 0 004.41 1.85v4.69a6.38 6.38 0 00-4.41 1.85 11.9 11.9 0 00-2.69 4.51 27.59 27.59 0 00-1.35 6.36 71.33 71.33 0 00-.37 7.29V148q0 8.4-2.82 11.49t-8 3.09h-6.12v-4.08z" fill="#fff"/></svg>