<svg xmlns="http://www.w3.org/2000/svg" viewBox="0 0 141.7 141.7"><path fill="#f9cc10" d="M63.4 15.6L27.3 42.3l12.9 43.5h9.5L36.6 44.3l39.6-28.7z"/><path fill="#f45951" d="M71.3 29.7l39.2 27.5-14.1 43.2 9.6-7.5L118.9 55 78 25z"/><path fill="#efb430" d="M27.3 42.3l-4.4 11.3 12.5 40.2h55.4l2.4-8h-53z"/><path fill="#f29e38" d="M36.6 44.3l2.6 8.3L78 25l40.9 30-2.7-11-40-28.4z"/><path fill="#f48837" d="M103.8 52.4l-13 41.4H35.4l10.3 6.9 50.7-.3 14.1-43.2z"/><path d="M61.3 123.9c-1-1.1-1.4-2.5-1.3-4.1.2-2.3 1.6-4.3 3.9-5 .5-.1 1.1-.2 1.6-.2s1 0 1.6.2c2.3.7 3.7 2.6 3.9 5 .1 1.6-.3 2.9-1.3 4.1-1 1.2-2.6 1.9-4.2 1.9s-3.1-.6-4.2-1.9zm4.3-7.8c-.4 0-.8.1-1.1.1-1.8.5-2.8 2.1-2.8 4 0 1 .3 1.9.9 2.7.7.9 1.9 1.4 3 1.4s2.3-.6 3-1.4c.6-.7.9-1.7.9-2.6 0-1.9-1-3.6-2.8-4.1-.3 0-.7-.1-1.1-.1zm9.1 9.7l-.1-15.7h1.5v6.3c.6-1.1 2-1.7 3.4-1.7 3.2 0 5.3 2.3 5.4 5.3.1 2.5-1.1 4.6-3.4 5.5-.7.3-1.4.4-2 .4-1.3 0-2.8-.6-3.5-1.9l.1 1.8h-1.4zm7.2-2.2c1.1-1 1.6-2.2 1.6-3.6 0-.6-.1-1.1-.3-1.6-.6-1.5-2.1-2.3-3.6-2.3-1.9.1-3.4 1.4-3.4 3.3v1.7c0 2.1 1.6 3.3 3.6 3.3.8 0 1.5-.3 2.1-.8zm5.2-7.8l1.4-.6 4.1 8.2 4-8.2 1.4.6-8.2 16.1-1.4-.5 3.3-6.4-4.6-9.2zM51 117.6h4.5c.7 0 .9.4.9.9v4c0 .3 0 .6-.3.8-1.4 1.9-3.8 2.9-6.1 2.9-4.1 0-7.7-3.5-7.6-8 0-3.6 2.7-7 6.4-7.7.4 0 .8-.1 1.2-.1 2.1 0 4.3.7 5.6 2.3l-1.2 1.1c-1.3-1.6-3.6-2.1-5.4-1.7-2.6.6-4.9 3-4.9 6.1 0 3.4 2.8 6.2 5.9 6.3 1.8 0 3.6-.7 4.7-2.2v-3.2h-3.8v-1.5zm22.2-57h7.3c1.1 0 1.5.6 1.5 1.4v6.4c0 .4-.1.9-.4 1.3-2.3 3-6.1 4.7-9.8 4.6-6.6 0-12.3-5.6-12.2-12.8 0-5.9 4.4-11.2 10.3-12.3.6-.1 1.3-.1 2-.1 3.4 0 6.9 1.2 9.1 3.6l-2 1.8c-2.2-2.5-5.7-3.4-8.6-2.7-4.2 1-7.9 4.7-7.9 9.8.1 5.4 4.5 10 9.4 10.1 2.9 0 5.8-1.2 7.5-3.5v-5.1h-6.1v-2.5z" fill="#e72200"/></svg>