<svg id="Layer_1" data-name="Layer 1" xmlns="http://www.w3.org/2000/svg" viewBox="0 0 119.06 119.05"><defs><style>.cls-1{fill:#0b2a35}.cls-2{fill:#2e7de1}</style></defs><path class="cls-1" d="M53.89 43.85c.46-.16.94-.3 1.42-.42-.06-1-.13-1.93-.15-2.9A70 70 0 0157.27 21l.47-1.76a33.34 33.34 0 00-11.32-8.81 50.36 50.36 0 00-6.32 2.15l1.85 4.47zM26.34 26.32l21.95 20.83q.56-.5 1.16-.95c-.42-.85-.84-1.7-1.23-2.57a70.24 70.24 0 01-5.52-18.85L42.47 23a33.35 33.35 0 00-13.8-3.8 51.22 51.22 0 00-5.05 4.41l2.75 2.75zM16.19 41.51l28.18 10.85q.33-.69.72-1.34c-.7-.62-1.4-1.23-2.08-1.87a70.33 70.33 0 01-12.3-15.32l-.87-1.5a33.34 33.34 0 00-14.25 1.77 50.61 50.61 0 00-3 6l3.77 1.56zm-3.55 17.94l30.12-.75q0-.77.15-1.53c-.87-.3-1.73-.59-2.59-.92a70.33 70.33 0 01-17.22-9.47l-1.36-1a33.34 33.34 0 00-12.56 7.07 51 51 0 00-.45 6.67h4.2z"/><path class="cls-2" d="M92.64 26.44L71.71 48.5q.47.53.9 1.1c.92-.46 1.85-.91 2.79-1.33a69.93 69.93 0 0118.84-5.47l1.76-.23a33.34 33.34 0 003.85-13.89 51.22 51.22 0 00-4.41-5.05l-2.85 2.85z"/><path class="cls-1" d="M60.32 43q.74 0 1.45.15c.32-.93.64-1.87 1-2.79a69.9 69.9 0 019.42-17.2l1.11-1.46a33.34 33.34 0 00-7.1-12.52 51 51 0 00-6.67-.45v5.52z"/><path class="cls-2" d="M66.57 44.61q.65.32 1.27.69c.66-.76 1.33-1.51 2-2.25a69.76 69.76 0 0115.32-12.27l1.57-.91A33.34 33.34 0 0085 15.59a50.63 50.63 0 00-6-3l-1.9 4.58z"/><path class="cls-1" d="M102.82 41.66L75 54c.15.44.29.89.41 1.34 1-.07 2.08-.13 3.13-.16A69.31 69.31 0 0198 57.37l1.67.44a33.34 33.34 0 008.9-11.4 50.37 50.37 0 00-2.15-6.32l-3.86 1.6zM65.1 75.08q-.67.25-1.37.44c.07 1 .13 2 .16 3A70 70 0 0161.78 98l-.47 1.76a33.34 33.34 0 0011.32 8.81 50.37 50.37 0 006.37-2.12L77.11 102zm27.61 17.66l-22.15-21c-.34.32-.7.62-1.07.91.46.92.91 1.85 1.33 2.79a70.23 70.23 0 015.52 18.85l.24 1.71a33.34 33.34 0 0013.8 3.8 51.21 51.21 0 005.05-4.41l-2.75-2.75zm10.15-15.2l-28.52-11c-.2.42-.41.83-.64 1.23.79.69 1.57 1.38 2.33 2.11a70.34 70.34 0 0112.32 15.35l.87 1.5A33.34 33.34 0 00103.47 85a50.61 50.61 0 003-6l-3.77-1.56zm3.26-18.01l.29.08-30.52.76c0 .47-.06.93-.12 1.38 1 .34 2 .68 3 1.06A70.32 70.32 0 0196 72.27l1.36 1a33.34 33.34 0 0012.55-7.11 51 51 0 00.45-6.67h-4.2zm-53.7 15.08c-.46-.21-.91-.44-1.35-.69-.62.7-1.24 1.41-1.89 2.09A69.84 69.84 0 0133.9 88.28l-1.57.91a33.34 33.34 0 001.76 14.28 50.62 50.62 0 006 3l1.91-4.58zm-26 18l20.72-21.84q-.52-.56-1-1.17c-.83.4-1.65.81-2.5 1.18a69.93 69.93 0 01-18.84 5.47l-1.75.23a33.34 33.34 0 00-3.85 13.89 51.2 51.2 0 004.41 5.05l2.85-2.85zM16.24 77.39l27.49-12.21q-.26-.72-.46-1.47c-.91.06-1.82.11-2.74.14h-1.92A68.47 68.47 0 0121 61.68l-1.67-.44a33.34 33.34 0 00-8.9 11.4A50.37 50.37 0 0012.6 79l3.86-1.6zm42.5-1.29c-.5 0-1-.05-1.47-.11-.31.91-.62 1.83-1 2.73a69.88 69.88 0 01-9.42 17.2l-1.11 1.46a33.34 33.34 0 007.09 12.49 51 51 0 006.67.45v-5.52z"/><circle class="cls-1" cx="59.33" cy="59.53" r="12.35"/><path class="cls-1" d="M59.53 119.05a59.53 59.53 0 1159.53-59.53 59.59 59.59 0 01-59.53 59.53zm0-115.19a55.66 55.66 0 1055.66 55.66A55.72 55.72 0 0059.53 3.87z"/></svg>