<svg xmlns="http://www.w3.org/2000/svg" xmlns:xlink="http://www.w3.org/1999/xlink" viewBox="0 0 500 500"><style>@media all and (max-width:130px){.only-on-big{opacity:0}#background-color-rect{fill:#40bdf5}#house_big_fill{fill:#fff}}@media all and (max-width:55px){.hide-on-small{opacity:0}}@media all and (max-width:34px){#background{opacity:0}}</style><defs><path id="house-path" d="M97 412.235V279H62.263a9.333 9.333 0 01-6.644-15.889L242.72 73.49c4.526-4.587 11.913-4.636 16.499-.11l.09.09L357 172v-18.222a7.778 7.778 0 017.778-7.778h32.444a7.778 7.778 0 017.778 7.778V220.7l41.541 42.438a9.333 9.333 0 01-6.67 15.862H405v133.235a7.778 7.778 0 01-7.778 7.778H104.778A7.778 7.778 0 0197 412.235z"/><path id="large-tree-path" d="M303.534 250.48l14.462 14.462v-45.783c-5.826-2.059-10-7.615-10-14.146 0-8.285 6.716-15 15-15 8.284 0 15 6.715 15 15 0 6.53-4.174 12.087-10 14.146v45.783l14.462-14.462a14.941 14.941 0 01-1.462-6.467c0-8.285 6.716-15 15-15 8.284 0 15 6.715 15 15 0 8.284-6.716 15-15 15a14.94 14.94 0 01-6.467-1.462l-21.533 21.533v25l-29.929 29.929h41.782c2.06-5.826 7.616-10 14.147-10 8.284 0 15 6.715 15 15 0 8.284-6.716 15-15 15-6.531 0-12.087-4.174-14.147-10h-51.782l-32.071 32.07v32.859l26.929-26.93h30.924c2.06-5.825 7.616-10 14.147-10 8.284 0 15 6.716 15 15 0 8.285-6.716 15-15 15-6.531 0-12.087-4.173-14.147-10h-26.782l-29 29h-14.142l-28-28h-27.783c-2.059 5.827-7.615 10-14.146 10-8.284 0-15-6.715-15-15 0-8.284 6.716-15 15-15 6.531 0 12.087 4.175 14.146 10h17.783l-33.462-33.461a14.941 14.941 0 01-6.467 1.462c-8.284 0-15-6.716-15-15 0-8.285 6.716-15 15-15 8.284 0 15 6.715 15 15 0 2.315-.525 4.509-1.462 6.467l33.462 33.462v-18.783c-5.826-2.059-10-7.615-10-14.146 0-8.285 6.716-15 15-15 8.284 0 15 6.715 15 15 0 6.53-4.174 12.087-10 14.146v28.783l23 23v-74.858l-43.071-43.071h-27.783c-2.059 5.826-7.615 10-14.146 10-8.284 0-15-6.716-15-15 0-8.285 6.716-15 15-15 6.531 0 12.087 4.174 14.146 10h17.783l-30.93-30.93V218.16c-5.825-2.059-10-7.615-10-14.146 0-8.285 6.717-15 15-15 8.285 0 15 6.715 15 15 0 6.53-4.173 12.087-10 14.146v27.783l28 28V255.16c-5.825-2.059-10-7.615-10-14.146 0-8.285 6.717-15 15-15 8.285 0 15 6.715 15 15 0 6.53-4.173 12.087-10 14.146v28.783l36 36V215.084l-20.532-20.533a14.941 14.941 0 01-6.467 1.462c-8.284 0-15-6.716-15-15 0-8.285 6.716-15 15-15 8.284 0 15 6.715 15 15 0 2.315-.525 4.509-1.462 6.467l18.462 18.462 18.462-18.462a14.941 14.941 0 01-1.462-6.467c0-8.285 6.716-15 15-15 8.284 0 15 6.715 15 15 0 8.284-6.716 15-15 15a14.94 14.94 0 01-6.467-1.462l-20.533 20.533v146.858l25-25v-29.783c-5.826-2.059-10-7.615-10-14.146 0-8.285 6.716-15 15-15 8.284 0 15 6.715 15 15 0 6.53-4.174 12.087-10 14.146v19.783l27-27v-20.858l-21.533-21.533a14.941 14.941 0 01-6.467 1.462c-8.284 0-15-6.716-15-15 0-8.285 6.716-15 15-15 8.284 0 15 6.715 15 15 0 2.315-.525 4.509-1.462 6.467zM173.996 394.013a6 6 0 100-12 6 6 0 000 12zm44-45a6 6 0 100-12 6 6 0 000 12zm-52-7a6 6 0 100-12 6 6 0 000 12zm-5-50a6 6 0 100-12 6 6 0 000 12zm125 7a6 6 0 100-12 6 6 0 000 12zm68 46a6 6 0 100-12 6 6 0 000 12zm-26 48a6 6 0 100-12 6 6 0 000 12zm28-143a6 6 0 100-12 6 6 0 000 12zm-33-39a6 6 0 100-12 6 6 0 000 12zm-40-24a6 6 0 100-12 6 6 0 000 12zm-64 0a6 6 0 100-12 6 6 0 000 12zm-52 23a6 6 0 100-12 6 6 0 000 12zm38 37a6 6 0 100-12 6 6 0 000 12zm85 3a6 6 0 100-12 6 6 0 000 12z"/><path id="small-tree-path" d="M210.835 288.621L240 317.787v-88.695c-14.66-5.933-25-20.305-25-37.092 0-22.091 17.909-40 40-40s40 17.909 40 40c0 16.787-10.34 31.159-25 37.092v88.695l29.165-29.166A39.873 39.873 0 01296 273c0-22.091 17.909-40 40-40s40 17.909 40 40-17.909 40-40 40a39.873 39.873 0 01-15.621-3.165L270 360.213V421h-30v-60.787l-50.379-50.378A39.873 39.873 0 01174 313c-22.091 0-40-17.909-40-40s17.909-40 40-40 40 17.909 40 40a39.873 39.873 0 01-3.165 15.621zM255 208c8.837 0 16-7.163 16-16s-7.163-16-16-16-16 7.163-16 16 7.163 16 16 16zm81 81c8.837 0 16-7.163 16-16s-7.163-16-16-16-16 7.163-16 16 7.163 16 16 16zm-162 0c8.837 0 16-7.163 16-16s-7.163-16-16-16-16 7.163-16 16 7.163 16 16 16z"/><linearGradient id="bg-gradient" x1="50%" x2="50%" y1="9.14%" y2="93.686%"><stop offset="0%" stop-color="#6CCCF7"/><stop offset="100%" stop-color="#41BDF5"/></linearGradient><linearGradient id="white-house-gradient" x1="50%" x2="50%" y1="41.751%" y2="100%"><stop offset="0%" stop-color="#FFF"/><stop offset="100%" stop-color="#EDEDED"/></linearGradient><filter id="house-shadow-filter" width="131.6%" height="135.7%" x="-15.8%" y="-13%" filterUnits="objectBoundingBox"><feOffset dy="17" in="SourceAlpha" result="shadowOffsetOuter1"/><feGaussianBlur in="shadowOffsetOuter1" result="shadowBlurOuter1" stdDeviation="18"/><feColorMatrix in="shadowBlurOuter1" values="0 0 0 0 0 0 0 0 0 0 0 0 0 0 0 0 0 0 0.2 0"/></filter><filter id="white-gloss-edge" width="101%" height="101.1%" x="-.5%" y="-.6%" filterUnits="objectBoundingBox"><feGaussianBlur in="SourceAlpha" result="shadowBlurInner1" stdDeviation="1.5"/><feOffset dy="-1" in="shadowBlurInner1" result="shadowOffsetInner1"/><feComposite in="shadowOffsetInner1" in2="SourceAlpha" k2="-1" k3="1" operator="arithmetic" result="shadowInnerInner1"/><feColorMatrix in="shadowInnerInner1" values="0 0 0 0 1 0 0 0 0 1 0 0 0 0 1 0 0 0 1 0"/></filter><mask id="small-tree-mask"><rect width="100%" height="100%" fill="#fff"/><use fill-rule="evenodd" xlink:href="#small-tree-path"/></mask><mask id="big-tree-mask"><rect width="100%" height="100%" fill="#fff"/><use fill-rule="evenodd" xlink:href="#large-tree-path"/></mask></defs><g id="home-assistant-logo-responsive"><g id="background"><rect id="background-color-rect" width="500" height="500" x="0" y="0" fill="url(#bg-gradient)" rx="36"/><g id="depth-borders" class="only-on-big"><path id="top-depth-border" fill="#FFF" fill-opacity=".25" d="M500 252.5V46.15c0-16.047-1.67-21.867-4.808-27.733-3.138-5.867-7.742-10.471-13.609-13.609C475.717 1.671 469.897 0 453.85 0H46.15C30.103 0 24.283 1.67 18.417 4.808 12.55 7.946 7.946 12.55 4.808 18.417 1.671 24.283 0 30.103 0 46.15V252.5 51.15c0-16.047 1.67-21.867 4.808-27.733C7.946 17.55 12.55 12.946 18.417 9.808 24.283 6.671 30.103 5 46.15 5h407.7c16.047 0 21.867 1.67 27.733 4.808 5.867 3.138 10.471 7.742 13.609 13.609C498.329 29.283 500 35.103 500 51.15V252.5z"/><path id="bottom-depth-border" fill="#000" fill-opacity=".15" d="M500 247.5v206.35c0 16.047-1.67 21.867-4.808 27.733-3.138 5.867-7.742 10.471-13.609 13.609-5.866 3.137-11.686 4.808-27.733 4.808H46.15c-16.047 0-21.867-1.67-27.733-4.808-5.867-3.138-10.471-7.742-13.609-13.609C1.671 475.717 0 469.897 0 453.85V247.5v201.35c0 16.047 1.67 21.867 4.808 27.733 3.138 5.867 7.742 10.471 13.609 13.609C24.283 493.329 30.103 495 46.15 495h407.7c16.047 0 21.867-1.67 27.733-4.808 5.867-3.138 10.471-7.742 13.609-13.609 3.137-5.866 4.808-11.686 4.808-27.733V247.5z"/></g></g><g id="house_shadow" class="only-on-big" filter="url(#house-shadow-filter)"><use fill="#FFF" fill-rule="evenodd" xlink:href="#house-path"/></g><g id="house_big_tree" class="hide-on-small"><use id="house_big_fill" fill="url(#white-house-gradient)" fill-rule="evenodd" mask="url(#big-tree-mask)" xlink:href="#house-path"/><use fill-rule="evenodd" class="only-on-big" filter="url(#white-gloss-edge)" mask="url(#big-tree-mask)" xlink:href="#house-path"/></g></g></svg>