<svg data-name="Layer 1" xmlns="http://www.w3.org/2000/svg" viewBox="0 0 70 79.73"><path d="M46.64 10.23H24.87A4.75 4.75 0 0020.1 15v50.34a4.76 4.76 0 004.77 4.77h21.77a4.75 4.75 0 004.76-4.77V15a4.75 4.75 0 00-4.76-4.77zM35.75 67.39a2 2 0 112-2 2.05 2.05 0 01-2 2zm12.93-6.81H22.82V17h25.86z" fill="#19135d"/><path d="M46.32 37.09v2.16l-10 5a1.57 1.57 0 01-1 0l-10.16-5v-2.19l10.67 5.24z" fill="#fe1f4d"/><path d="M46.32 32.26v2.17l-10 5a1.57 1.57 0 01-1 0l-10.16-5v-2.2l10.65 5.24zm0 14.16v2.17l-10 5a1.44 1.44 0 01-1 0l-10.16-5v-2.2l10.65 5.24z" fill="#fe1f4d"/><path d="M46.32 41.6v2.17l-10 5a1.57 1.57 0 01-1 0l-10.16-5v-2.2l10.65 5.24zm-.46-11.85l-8.61 4.33V32l6.12-3.06-6.12-3V23.7l8.61 4.3a1 1 0 010 1.75zm-11.6-3.9l-6.12 3L34.26 32v2.13l-8.62-4.33a1 1 0 010-1.74l8.62-4.31z" fill="#fe1f4d"/></svg>