<svg xmlns="http://www.w3.org/2000/svg" width="800" height="800" viewBox="0 0 211.667 211.667"><g fill="#63ccc1"><path d="M142.976 125.595c-12.928 22.43-41.13 32.007-67.22 24.525a63.899 63.899 0 0011.136 7.474c29.004 15.328 64.715 6.6 79.758-19.49 15.043-26.094 3.725-59.668-25.284-74.994a65.38 65.38 0 00-12.538-5.036c20.518 17.146 27.08 45.095 14.148 67.521z"/><path d="M196.719 127.459a22.224 22.224 0 018.898 30.58c-6.153 10.942-20.113 14.996-31.18 9.047-11.07-5.947-15.055-19.637-8.902-30.579 6.155-10.946 20.114-14.996 31.184-9.048z"/></g><g fill="#ffde4f"><path d="M97.097 135.689c-25.888.019-48.284-19.617-54.849-45.952a63.899 63.899 0 00-.905 13.381c1.228 32.782 26.643 59.345 56.759 59.327 30.118-.019 53.536-26.608 52.304-59.393a65.38 65.38 0 00-1.908-13.377c-4.59 26.343-25.513 46-51.401 46.014z"/><path d="M122.355 183.163a22.224 22.224 0 01-22.035 22.997c-12.553.142-23.043-9.921-23.425-22.48-.384-12.56 9.479-22.857 22.032-22.998 12.557-.143 23.043 9.92 23.428 22.481z"/></g><g fill="#f28123"><path d="M65.708 100.006c-12.96-22.41-7.153-51.624 12.372-70.477a63.899 63.899 0 00-12.041 5.907c-27.777 17.454-38.073 52.745-23 78.818 15.076 26.074 49.812 33.06 77.588 15.6a65.38 65.38 0 0010.63-8.34c-25.107 9.196-52.593.905-65.549-21.508z"/><path d="M37.223 145.617a22.224 22.224 0 01-30.933-7.584c-6.399-10.8-2.93-24.917 7.756-31.527 10.686-6.613 24.534-3.22 30.933 7.58 6.402 10.804 2.93 24.917-7.756 31.53z"/></g><g fill="#d34e24"><path d="M79.907 55.226c12.928-22.429 41.13-32.006 67.22-24.524a63.899 63.899 0 00-11.136-7.474c-29.004-15.328-64.715-6.6-79.758 19.49-15.043 26.093-3.725 59.668 25.283 74.994a65.38 65.38 0 0012.54 5.036c-20.52-17.146-27.082-45.096-14.15-67.522z"/><path d="M26.164 53.363a22.224 22.224 0 01-8.899-30.58C23.42 11.84 37.38 7.787 48.446 13.736c11.07 5.947 15.055 19.637 8.902 30.579-6.155 10.946-20.114 14.995-31.184 9.048z"/></g></svg>