<svg id="Layer_1" data-name="Layer 1" xmlns="http://www.w3.org/2000/svg" viewBox="0 0 142.89 156.99"><defs><style>.cls-1{fill:#ef4242}.cls-2{fill:#fff}</style></defs><path class="cls-1" d="M9.66 53.52C9.66 46 15 36.81 21.47 33.06L69.29 5.45c6.5-3.75 17.13-3.75 23.63 0l47.82 27.61c6.5 3.75 11.82 13 11.82 20.46v55.22c0 7.5-5.32 16.71-11.82 20.46l-47.82 27.61c-6.5 3.75-17.13 3.75-23.63 0L21.47 129.2c-6.49-3.75-11.81-13-11.81-20.46z" transform="translate(-9.66 -2.64)"/><path class="cls-2" d="M81.11 144.3a11.12 11.12 0 0 1-5.52-1.4L31.1 117.21a11.53 11.53 0 0 1-5.51-9.55V56.29a11.53 11.53 0 0 1 5.51-9.55l44.5-25.69a11.75 11.75 0 0 1 11 0l44.49 25.69a11.51 11.51 0 0 1 5.51 9.55v51.37a11.52 11.52 0 0 1-5.5 9.55L86.62 142.9a11.08 11.08 0 0 1-5.51 1.4zm-43.7-37.09l43.7 25.23 43.7-25.23V56.74l-43.7-25.23-43.7 25.23z" transform="translate(-9.66 -2.64)"/><path class="cls-1" d="M81.11 131.14a6.64 6.64 0 0 1-3.32-.89l-49.61-28.64a6.65 6.65 0 0 1-3.33-5.76V38.57A6.65 6.65 0 0 1 35 32.89l46.16 28 46.16-28a6.65 6.65 0 0 1 10.09 5.68v57.28a6.64 6.64 0 0 1-3.32 5.76l-49.66 28.64a6.69 6.69 0 0 1-3.32.89zM38.14 92l43 24.81 43-24.81V50.38l-39.51 24a6.63 6.63 0 0 1-6.9 0l-39.52-24z" transform="translate(-9.66 -2.64)"/><path class="cls-2" d="M136.62 110.62h-11.81V63.83L84.17 88.51a5.88 5.88 0 0 1-6.13 0L37.41 63.83v46.79H25.59V53.33a5.92 5.92 0 0 1 9-5l46.52 28.22 46.54-28.27a5.91 5.91 0 0 1 9 5z" transform="translate(-9.66 -2.64)"/></svg>