<svg xmlns="http://www.w3.org/2000/svg" width="640" height="640" viewBox="0 0 640 640"><g fill="#09BB07" fill-rule="evenodd"><path d="M220.798 202.943l-37.773-25.478-83.747 124.161c-4.823 7.15-9.995 11.38-15.514 12.69-5.52 1.31-10.805.26-15.857-3.148-5.13-3.46-8.128-8.026-8.994-13.7-.867-5.672 1.085-12.045 5.856-19.118l83.748-124.161-37.773-25.479c-5.907-3.984-9.42-8.248-10.54-12.791-1.12-4.543-.237-8.952 2.646-13.227 2.988-4.43 6.843-6.919 11.566-7.465 4.722-.547 9.92 1.094 15.594 4.92l110.054 74.233c5.985 4.037 9.543 8.36 10.676 12.968 1.132 4.609.256 9.05-2.627 13.325-2.884 4.275-6.68 6.718-11.39 7.33-4.71.61-10.018-1.075-15.925-5.06z"/><path fill-rule="nonzero" d="M497.437 338.637c5.131 0 10.103.24 15.074.882C499.2 276.708 431.768 230 355.114 230 269.159 230 199 288.324 199 362.512c0 42.782 23.493 78.113 62.462 105.433l-15.475 46.948 54.523-27.32c19.565 3.846 35.12 7.771 54.684 7.771 4.971 0 9.702-.24 14.673-.64a110.12 110.12 0 01-4.97-32.688c-.081-68.018 58.452-123.379 132.54-123.379zm-83.79-42.381c11.626 0 19.404 7.771 19.404 19.548 0 11.617-7.778 19.388-19.404 19.388-11.867 0-23.494-7.77-23.494-19.388.08-11.777 11.707-19.548 23.494-19.548zm-109.368 38.936c-11.627 0-23.494-7.77-23.494-19.388 0-11.857 11.867-19.548 23.494-19.548 11.867 0 19.564 7.771 19.564 19.548 0 11.697-7.697 19.388-19.564 19.388zM640 460.254c0-62.41-62.462-113.204-132.62-113.204-74.33 0-132.621 50.793-132.621 113.204 0 62.41 58.372 113.203 132.62 113.203 15.475 0 31.191-4.085 46.987-7.931L597.183 589l-11.867-38.936c31.431-23.555 54.684-54.72 54.684-89.81zm-175.678-19.629c-7.778 0-15.475-7.771-15.475-15.703 0-7.77 7.777-15.462 15.475-15.462 11.867 0 19.564 7.771 19.564 15.462 0 8.012-7.778 15.703-19.564 15.703zm85.874 0c-7.777 0-15.475-7.771-15.475-15.703 0-7.77 7.778-15.462 15.475-15.462 11.627 0 19.565 7.771 19.565 15.462.08 8.012-7.938 15.703-19.565 15.703z"/></g></svg>