<svg xmlns="http://www.w3.org/2000/svg" width="170.77" height="238.23" viewBox="0 0 170.77 238.23"><defs><style>.c{fill:#f26643}</style></defs><path d="M5 159.5l.64-114.49a3.71 3.71 0 0 1 2.21-3.36L90.6 5.32a3.7 3.7 0 0 1 5.19 3.41l-.72 114.15a3.72 3.72 0 0 1-2.21 3.37l-82.67 36.66A3.7 3.7 0 0 1 5 159.5z" stroke="#383838" stroke-miterlimit="10" stroke-width="10" fill="#f26643"/><path d="M75 229.5l.62-114.5a3.71 3.71 0 0 1 2.21-3.36l82.75-36.33a3.7 3.7 0 0 1 5.19 3.41l-.72 114.15a3.72 3.72 0 0 1-2.21 3.37L80.19 232.9a3.7 3.7 0 0 1-5.19-3.4z" fill="#f8aa9c" stroke="#383838" stroke-miterlimit="10" stroke-width="10"/><path class="c" d="M93.77 127.85l54.1-23.76"/><path stroke-dasharray="0 14.77" stroke-linecap="round" fill="none" stroke="#383838" stroke-miterlimit="10" stroke-width="10" d="M107.29 121.91l33.81-14.85"/><path class="c" d="M93.77 147.85l30.58-13.43"/><path stroke-dasharray="0 16.7" stroke-linecap="round" fill="none" stroke="#383838" stroke-miterlimit="10" stroke-width="10" d="M109.06 141.13l7.64-3.35"/><path class="c" d="M93.77 167.85l45.55-20"/><path stroke-dasharray="0 16.58" stroke-linecap="round" fill="none" stroke="#383838" stroke-miterlimit="10" stroke-width="10" d="M108.95 161.18l22.78-10"/><path d="M23.77 57.85l54.1-23.76m-54.1 43.76l30.58-13.43M23.77 97.85l45.55-20" stroke-linecap="round" stroke="#383838" stroke-miterlimit="10" stroke-width="10" fill="#f26643"/><path d="M125.5 28.77a44.62 44.62 0 0 1 21.14 25.46M45.5 208.26a44.61 44.61 0 0 1-21.14-25.46" stroke-dasharray="0 13.56" stroke-linecap="round" fill="none" stroke="#383838" stroke-miterlimit="10" stroke-width="10"/></svg>