<svg xmlns="http://www.w3.org/2000/svg" width="296" height="306.14" viewBox="0 0 296 306.14"><path fill="#FED766" d="M148.25 292.409c-8.648 0-16.812-1.957-22.971-5.516L43.74 239.827c-12.67-7.313-22.971-25.168-22.971-39.791V105.9c0-14.626 10.301-32.474 22.971-39.788l81.539-47.072c6.158-3.557 14.322-5.518 22.971-5.518 8.652 0 16.807 1.961 22.971 5.518l81.535 47.072c12.67 7.314 22.979 25.162 22.979 39.788v94.136c0 14.623-10.309 32.478-22.979 39.796l-81.535 47.062c-6.165 3.558-14.319 5.515-22.971 5.515zm0-74.975l55.83-32.234v-64.468l-55.83-32.229-55.836 32.229V185.2l55.836 32.234z"/><path fill="#231F20" d="M254.408 63.39l-81.576-47.068c-6.631-3.834-15.369-5.941-24.564-5.941-9.188 0-17.921 2.107-24.552 5.941L41.876 63.39c-13.759 7.95-24.847 26.626-24.847 42.51v94.136c0 15.893 11.082 34.562 24.842 42.511l81.686 47.068c6.631 3.825 15.43 5.938 24.617 5.938 9.195 0 17.952-2.112 24.583-5.938l81.632-47.068c13.766-7.944 24.641-26.615 24.641-42.511V105.9c-.001-15.894-10.857-34.562-24.622-42.51zM126.849 21.759c5.883-3.398 13.643-5.094 21.4-5.094 7.762 0 15.516 1.695 21.4 5.094l70.029 40.429.209 104.945-32.859 19.253v-67.465l-.076-.101.098-35.164-90.484-55.976 10.283-5.921zm74.18 100.79v60.839l-52.996 30.418-53.004-30.418v-60.839l53.004-30.422 52.996 30.422zm-145 120.898l-10.793-6.344c-11.77-6.794-21.207-23.47-21.207-37.067V116.18l90.285-50.222 33.299 19.233-91.584 50.768v107.488zm216-43.411c0 13.598-9.35 30.273-21.119 37.072l-70.914 40.937-90.967-52.116v-38.904l59.086 34.035.16-.055 30.064 19.89 93.689-53.746v12.887z"/></svg>