<svg width="150" height="150" viewBox="0 0 150 150" fill="none" xmlns="http://www.w3.org/2000/svg"><path d="M65.133 52.969L47.756 39.75l2.356 27.319L42.75 77.35l3.24 9.988c3.534 1.468 6.774 3.23 9.719 5.875.294-2.938.884-7.344 1.473-9.4l-5.596.88c1.767-11.456 6.774-22.03 13.548-31.724zm37.404-13.219c-16.493 12.631-21.795 14.394-27.98 29.963l8.541-1.763c-10.602 11.162-17.082 25.85-18.26 37.306l2.062 4.994h16.493c2.65-5.875 6.48-17.625 20.616-22.912l3.24-9.988-7.363-10.281 2.651-27.319zm-27.39 64.919l-5.302-7.638h10.308l-5.007 7.638zM78.974 79.7l13.548-6.756c-2.945 7.05-4.123 8.225-13.548 6.756zm-7.952 0l-13.548-6.756c3.24 7.05 4.123 8.225 13.548 6.756zm62.03-29.358v16.145c0 4.404 2.338 6.459 6.721 6.165v4.11c-4.383 0-6.721 2.349-6.721 6.458v16.146c0 1.762-.292 3.229-.877 4.404-.292 1.174-1.168 2.348-2.046 3.229-.876 1.174-2.045 1.761-3.213 2.348-1.169.587-2.631.881-4.091.881h-3.507v-4.11h3.507c4.091 0 6.136-2.348 6.136-6.458V83.514c0-.88.292-1.761.584-2.642.292-.88.877-1.761 1.462-2.642a6.833 6.833 0 012.045-2.055c.876-.587 1.754-.88 2.63-1.174-.876-.294-1.754-.587-2.63-1.175a6.833 6.833 0 01-2.045-2.054c-.585-.881-1.17-1.762-1.462-2.643-.292-.88-.584-1.76-.584-2.642V50.342c0-4.404-2.045-6.459-6.136-6.459h-3.507v-4.11h3.507c1.46 0 2.629.294 4.091.588 1.168.587 2.337 1.467 3.213 2.348.878.88 1.754 2.055 2.046 3.523.585 1.174.877 2.642.877 4.11zM19.87 42.709c.877-.88 2.046-1.761 3.214-2.055 1.462-.587 2.63-.88 4.091-.88h3.507v4.11h-3.799c-4.09 0-6.136 2.348-6.136 6.458v15.852c0 .88-.292 1.761-.585 2.642-.292.88-.584 1.761-1.168 2.642a6.842 6.842 0 01-2.046 2.055c-.877.587-1.753.88-2.63 1.174 1.17.294 1.754.587 2.63 1.174a6.844 6.844 0 012.046 2.055c.584.881 1.168 1.762 1.46 2.642.293.881.585 1.762.585 2.642v16.146c0 4.404 2.045 6.459 6.136 6.459h3.507v4.403h-3.507c-1.46 0-2.63-.294-4.09-.587-1.17-.587-2.338-1.468-3.215-2.349-.877-.88-1.46-2.055-1.753-3.229-.585-1.468-.877-2.935-.877-4.403V83.514c0-4.403-2.337-6.458-7.013-6.458v-4.11c4.676 0 7.013-2.349 7.013-6.459V50.342c0-1.468 0-2.936.585-4.404.584-1.174 1.169-2.348 2.045-3.229z" fill="#161326"/></svg>