<svg xmlns="http://www.w3.org/2000/svg" viewBox="0 0 512 512"><path d="M22.1 215h20.5l-1.4 6.9c6.9-6 15.9-9.2 25-9.1 25.9 0 31.5 19.7 28.3 34.4-3.8 18.1-21.8 33-42.6 33-13.1 0-18.1-5.5-20.3-7.9l-1.2 5.7-4.5 21H4.1l18-84zm50.8 31.4c1.6-7.4-3-16-14.9-16-5.1 0-10.1 1.7-14.2 4.8-3.8 2.7-6.6 6.9-7.6 11.5-1 4.1.1 8.2 3 11.2 3.1 3.1 7.5 4.8 11.9 4.7 11.5 0 20-8.1 21.7-16l.1-.2zm96.1 31.7h-21.8l1.4-6.8c-5.2 6.1-15 8.9-23.6 8.9-23.1 0-33.3-15.7-29.3-33.8 4.4-20.6 24.5-33.6 43.9-33.6 11.9 0 17.7 5 19.7 8.8l1.4-6.7h21.8L169 278.1zm-51.6-31.3c-1.2 5.8 1.6 15.7 14.8 15.7 6.3.1 12.5-2.4 16.8-7 2.1-2.3 3.8-5 4.8-8.1.8-2.7.8-5.6-.1-8.3-1.4-4.3-5.4-8.8-14.6-8.8-10.2-.2-19.2 6.6-21.7 16.5zm76.9 28L180.1 215h23.3l7 36.6 21.8-36.6h23.1l-54.6 84h-23.1l16.7-24.2zm61.5-59.8h20.3l-1.4 6.7c3.1-3.1 8.9-8.8 21.9-8.8 24.6 0 23.4 17.3 21.6 25.8l-8.5 39.5H288l7.4-34.5c1.4-6.9 1.1-13.1-8.7-13.1-10.9 0-13.8 6.7-15.3 13.2l-7.4 34.4h-21.8l13.6-63.2zm65.1 31.3c3.3-15.4 19.9-33.4 46.5-33.4s35.5 18.1 32.2 33.5-20 33.5-46.5 33.5-35.5-18.1-32.1-33.5l-.1-.1zm21.7.3c-1.8 9.1 4.8 15.9 14.2 15.9s19-6.7 20.9-16-4.8-15.9-14.2-15.9-18.8 6.7-20.8 15.9l-.1.1zm57.3-31.6h22.7l2.7 39.2 20.4-39.2h18.4l3.9 39.2 19.3-39.2h22.5L474 278.1h-20.3l-3.7-40.8-21 40.8h-20.3l-8.8-63.1z" fill="#175ff8"/></svg>