<svg xmlns="http://www.w3.org/2000/svg" width="561.346" height="412.925"><rect id="backgroundrect" width="100%" height="100%" x="0" y="0" fill="none" stroke="none"/><defs><style>.cls-2{fill:#464e56}</style></defs><g class="currentLayer"><g id="Layer_2" data-name="Layer 2" class="selected"><g id="Layer_1-2" data-name="Layer 1"><path d="M152.086 162.714H114.66c-10.116-24.726-20.81-43.917-35.368-43.917-18.952 0-27.863 21.079-36.473 41.582l-.753 1.79h-43.1v12.187h25.102c8.86 0 10.668 3.807 10.668 3.807-6.953 13.754-15.312 27.348-29.243 27.348h-6.527v12.794h6.577c27.01 0 38.807-27.924 48.27-50.346 8.686-20.663 14.735-33.17 25.479-33.17 11.145 0 22.867 30.9 33.184 58.183 1.506 3.966 3.037 8.029 4.594 12.059-39.56 1.599-58.412 13.402-73.75 23.03-11.22 7.036-20.08 15.769-34.665 15.769h-9.689v12.794H8.58c17.571 0 28.516-6.91 40.163-14.234 16.14-10.107 34.44-21.558 77.564-21.558h24.926v-12.795h-14.082a7.53 9.596 0 0 1-6.2-3.198c-2.46-6.077-4.87-12.475-7.23-18.872l-3.263-8.508s2.335-3.199 8.811-3.199h22.817z" id="svg_1" fill="#188fff"/><path class="cls-2" d="M199.353 162.618h-26.08v11.962h25.503c10.542 0 16.592 6.11 16.592 17.049 0 10.363-6.677 17.048-16.994 17.048h-25.102v41.582h10.041v-29.747h14.885c13.605 0 27.31-9.052 27.31-29.491-.074-17.272-10.316-28.403-26.155-28.403z" id="svg_2"/><path class="cls-2" d="M283.393 213.379c0 16.984-6.677 26.356-18.776 26.356s-19.077-9.82-19.077-26.964v-50.153H235.5v50.761c0 23.638 11.044 38.383 28.841 38.383s29.018-14.618 29.018-39.119v-50.025h-10.04z" id="svg_3"/><path class="cls-2" id="svg_4" d="M318.586 162.618h-9.965v87.769h47.341v-11.995h-37.376v-75.774z"/><path class="cls-2" d="M392.285 200.36c-14.409-3.933-17.044-8.092-17.044-15.16s5.27-12.027 12.801-12.027A27.913 35.568 0 0 1 406.417 182l1.004 1.023 5.924-9.851-.929-.96a35.695 45.484 0 0 0-24.123-10.747c-13.354 0-23.043 10.363-23.043 24.917 0 16.185 9.313 22.102 23.27 25.972s16.29 7.805 16.29 14.778c0 7.549-5.572 12.794-13.58 12.794-8.459 0-14.81-3.198-21.939-11.579l-.953-1.087-6.25 9.436.903 1.023a39.937 50.89 0 0 0 27.963 13.946c14.082 0 23.897-10.491 23.897-25.589.025-13.69-6.727-21.334-22.566-25.716z" id="svg_5"/><path class="cls-2" d="M451.274 162.01l-31.377 88.377h10.392l7.882-22.39h34.54l7.781 22.39h10.769l-31.377-88.377zm-9.062 54.376l13.279-37.744 13.203 37.744z" id="svg_6"/><path class="cls-2" d="M539.104 215.234c10.77-3.198 17.12-12.794 17.12-25.94a19.504 24.853 0 0 0-5.472-17.784 27.612 35.184 0 0 0-19.755-8.924H501.2v87.8h10.04v-32.913h17.12l19.253 32.882h12.3zm-27.963-9.596V174.58h19.253c10.04 0 15.764 5.502 15.764 15.353s-6.225 15.993-15.84 15.993z" id="svg_7"/></g></g></g></svg>