<svg xmlns="http://www.w3.org/2000/svg" xmlns:xlink="http://www.w3.org/1999/xlink" viewBox="0 0 82.43 136.01"><defs><linearGradient id="a" x1="37.48" y1="110.89" x2="67.2" y2="6.42" gradientUnits="userSpaceOnUse"><stop offset="0" stop-color="#feb800"/><stop offset="1" stop-color="#ff4300"/></linearGradient><linearGradient id="b" x1="-4.59" y1="95.33" x2="24.09" y2="-5.5" xlink:href="#a"/></defs><g data-name="Layer 2"><g data-name="Layer 1"><path fill="#543d3b" d="M25.77 58.16H.58l28.94 39.75-27.73 38.1h25.18l15.14-20.8 15.13 20.8h25.19L25.77 58.16z"/><path d="M66 21.63a24.17 24.17 0 01-6.82 17.5A5.94 5.94 0 0157.6 38c-9.18-9.8-5.53-38-5.53-38-18.36 21.13-19.44 41-19.44 45.41-.11 2.7.25 12.19 9.11 24L56.8 90.25l.12-.09C59.34 88.33 97 58.94 66 21.63z" fill="url(#a)"/><path d="M22.41 38.65v-.08a11.26 11.26 0 00-2.13-3.73l-.06-.07C9.46 21.85 18 9 18 9 4.52 15.63.84 27.17.07 35.51c-.79 11.74 3.74 15.87 7.37 17.32a11.92 11.92 0 004.21.76c5.13-.15 8.26-2.61 9.81-5.24a12.09 12.09 0 001.11-9.15 7.2 7.2 0 00-.16-.55z" fill="url(#b)"/></g></g></svg>