<svg width="315" height="315" viewBox="0 0 315 315" xmlns="http://www.w3.org/2000/svg" xmlns:xlink="http://www.w3.org/1999/xlink"><defs><path id="a" d="M276.645.486V159.24H.56V.486h276.085z"/><path id="c" d="M276.645.568v158.754H.56V.568h276.085z"/><path id="e" d="M276.645.65v158.752H.56V.65z"/></defs><g fill="none" fill-rule="evenodd"><path d="M21.56 19.5h272.085a2 2 0 012 2v272.086a2 2 0 01-2 2H21.56a2 2 0 01-2-2V21.5a2 2 0 012-2z" stroke="#2997D3" stroke-width="9"/><g transform="translate(19 100.086)"><mask id="b" fill="#fff"><use xlink:href="#a"/></mask><path d="M2.392 159.186c1.696-.17 3.355-.754 4.622-1.726l43.357-33.235c1.911-1.463 5.08-1.678 7.067-.477l18.28 11.064c1.35.815 3.163 1.204 5.041 1.08 1.881-.123 3.666-.753 4.97-1.748l57.633-43.937c1.902-1.45 5.06-1.627 6.972-.392l14.072 9.076c1.36.88 3.24 1.305 5.192 1.174 1.956-.133 3.8-.805 5.11-1.86l111.478-89.93c2.622-2.118 2.402-5.153-.489-6.783-2.898-1.632-7.37-1.238-9.993.878L172.65 85.507c-1.825 1.473-4.969 1.684-6.864.458l-13.913-8.975c-1.335-.862-3.17-1.288-5.085-1.18-1.912.105-3.746.74-5.075 1.752l-57.779 44.051c-1.919 1.464-5.089 1.673-7.079.47L58.56 111.011c-1.355-.818-3.17-1.205-5.053-1.08-1.875.127-3.672.758-4.973 1.758l-51.736 39.66c-2.7 2.068-2.603 5.113.22 6.804 1.496.895 3.457 1.227 5.374 1.033" fill="#1A97D4" mask="url(#b)"/></g><g transform="translate(19 76.086)"><mask id="d" fill="#fff"><use xlink:href="#c"/></mask><path d="M-.025 159.268c1.695-.17 3.355-.755 4.621-1.727l43.357-33.235c1.911-1.464 5.08-1.679 7.068-.478l18.28 11.065c1.35.82 3.163 1.207 5.041 1.08 1.88-.122 3.665-.75 4.97-1.747l57.632-43.938c1.903-1.45 5.06-1.629 6.973-.392l14.071 9.078c1.361.878 3.24 1.303 5.192 1.172 1.956-.133 3.801-.804 5.11-1.86L283.77 8.357c2.621-2.117 2.4-5.152-.49-6.78-2.898-1.635-7.37-1.24-9.993.876L170.232 85.59c-1.826 1.471-4.97 1.682-6.864.46l-13.913-8.978c-1.336-.86-3.17-1.287-5.086-1.18-1.91.106-3.746.74-5.074 1.752l-57.78 44.052c-1.918 1.464-5.089 1.673-7.078.47l-18.295-11.07c-1.354-.819-3.17-1.209-5.052-1.082-1.876.125-3.672.761-4.974 1.758L-5.62 151.427c-2.7 2.072-2.603 5.117.22 6.805 1.496.896 3.457 1.23 5.375 1.036" fill="#1A97D4" mask="url(#d)"/></g><g transform="translate(19 52.086)"><mask id="f" fill="#fff"><use xlink:href="#e"/></mask><path d="M-2.443 159.349c1.696-.171 3.355-.755 4.622-1.727l43.357-33.231c1.911-1.467 5.08-1.682 7.067-.48l18.28 11.063c1.35.818 3.163 1.204 5.041 1.082 1.881-.123 3.666-.753 4.97-1.748l57.633-43.936c1.902-1.452 5.058-1.63 6.973-.392l14.071 9.074c1.36.88 3.24 1.304 5.192 1.174 1.956-.132 3.8-.801 5.11-1.86L281.35 8.44c2.623-2.116 2.402-5.153-.489-6.785-2.897-1.63-7.37-1.236-9.993.879L167.814 85.672c-1.825 1.473-4.969 1.682-6.863.459l-13.914-8.976c-1.336-.866-3.17-1.29-5.085-1.182-1.912.106-3.746.74-5.075 1.753l-57.78 44.05c-1.918 1.464-5.088 1.675-7.078.473l-18.294-11.074c-1.355-.816-3.172-1.208-5.053-1.08-1.875.125-3.672.76-4.973 1.757L-8.038 151.51c-2.7 2.07-2.602 5.117.221 6.804 1.496.898 3.457 1.229 5.374 1.035" fill="#1A97D4" mask="url(#f)"/></g></g></svg>