<svg version="1.1" id="Layer_1" xmlns="http://www.w3.org/2000/svg" x="0" y="0" viewBox="0 0 1140 594" xml:space="preserve"><style>.st1{fill:#fff}.st2{fill:none}</style><path fill="#f6612c" d="M.5.5h1139v593H.5z"/><path d="M1139 1v592H1V1h1138m1-1H0v594h1140V0z"/><path class="st1" d="M729.3 254.5c0-18.1-22.6-35.2-57.3-45.8 8-35.4 4.4-63.5-11.2-72.5-3.6-2.1-7.8-3.1-12.5-3.1v12.4c2.6 0 4.6.5 6.3 1.4 7.6 4.3 10.8 20.8 8.3 42.1-.6 5.2-1.6 10.7-2.8 16.3-10.9-2.7-22.8-4.7-35.3-6.1-7.5-10.3-15.3-19.6-23.1-27.8 18.1-16.8 35.1-26.1 46.7-26.1V133c-15.3 0-35.3 10.9-55.5 29.8-20.2-18.8-40.3-29.6-55.5-29.6v12.4c11.5 0 28.6 9.2 46.7 25.9-7.8 8.2-15.6 17.5-23 27.7-12.6 1.3-24.5 3.4-35.4 6.1-1.3-5.6-2.2-11-2.9-16.1-2.6-21.2.6-37.7 8.1-42.1 1.7-1 3.8-1.4 6.4-1.4v-12.4c-4.7 0-8.9 1-12.6 3.1-15.6 9-19.1 37.1-11.1 72.3-34.6 10.7-57.1 27.7-57.1 45.8 0 18.1 22.6 35.2 57.3 45.8-8 35.4-4.4 63.5 11.2 72.5 3.6 2.1 7.8 3.1 12.5 3.1 15.3 0 35.3-10.9 55.5-29.8 20.2 18.8 40.3 29.6 55.5 29.6 4.7 0 8.9-1 12.6-3.1 15.6-9 19.1-37.1 11.1-72.3 34.6-10.7 57.1-27.8 57.1-45.8zm-72.4-37.1c-2.1 7.2-4.6 14.6-7.5 22-2.3-4.4-4.7-8.9-7.3-13.3-2.6-4.4-5.3-8.8-8-13 7.9 1.1 15.5 2.5 22.8 4.3zm-25.4 59.2c-4.3 7.5-8.8 14.6-13.4 21.2-8.3.7-16.7 1.1-25.1 1.1-8.4 0-16.8-.4-25-1.1-4.6-6.6-9.1-13.7-13.5-21.1-4.2-7.3-8.1-14.7-11.6-22.1 3.4-7.4 7.3-14.9 11.5-22.2 4.3-7.5 8.8-14.6 13.4-21.2 8.3-.7 16.7-1.1 25.1-1.1 8.4 0 16.8.4 25 1.1 4.6 6.6 9.1 13.7 13.5 21.1 4.2 7.3 8.1 14.7 11.6 22.1-3.5 7.5-7.4 14.9-11.5 22.2zm17.9-7.2c3 7.4 5.6 14.9 7.7 22.1-7.3 1.8-15 3.3-22.9 4.4 2.7-4.3 5.4-8.7 8-13.2 2.5-4.4 4.9-8.9 7.2-13.3zM593 328.7c-5.2-5.3-10.3-11.3-15.5-17.8 5 .2 10.1.4 15.3.4 5.2 0 10.4-.1 15.5-.4-5 6.5-10.2 12.5-15.3 17.8zM551.7 296c-7.9-1.2-15.5-2.6-22.8-4.4 2.1-7.2 4.6-14.6 7.5-22 2.3 4.4 4.7 8.9 7.3 13.3 2.6 4.5 5.2 8.8 8 13.1zm41.1-115.7c5.2 5.3 10.3 11.3 15.5 17.8-5-.2-10.1-.4-15.3-.4-5.2 0-10.4.1-15.5.4 5-6.6 10.1-12.5 15.3-17.8zM551.6 213c-2.7 4.3-5.4 8.7-8 13.2-2.6 4.4-4.9 8.9-7.2 13.3-3-7.4-5.6-14.9-7.7-22.1 7.3-1.7 15-3.2 22.9-4.4zm-50.3 69.6c-19.7-8.4-32.4-19.4-32.4-28.1s12.7-19.8 32.4-28.1c4.8-2.1 10-3.9 15.4-5.6 3.2 10.9 7.3 22.2 12.5 33.9-5.1 11.6-9.2 22.9-12.3 33.7-5.5-1.8-10.8-3.7-15.6-5.8zm29.9 79.5c-7.6-4.3-10.8-20.8-8.3-42.1.6-5.2 1.6-10.7 2.8-16.3 10.9 2.7 22.8 4.7 35.3 6.1 7.5 10.3 15.3 19.6 23.1 27.8-18.1 16.8-35.1 26.1-46.7 26.1-2.4-.2-4.5-.7-6.2-1.6zm131.9-42.4c2.6 21.2-.6 37.7-8.1 42.1-1.7 1-3.8 1.4-6.4 1.4-11.5 0-28.6-9.2-46.7-25.9 7.8-8.2 15.6-17.5 23-27.7 12.6-1.3 24.5-3.4 35.4-6.1 1.2 5.6 2.2 11 2.8 16.2zm21.4-37.1c-4.8 2.1-10 3.9-15.4 5.6-3.2-10.9-7.3-22.2-12.5-33.9 5.1-11.6 9.2-22.9 12.3-33.7 5.5 1.7 10.7 3.6 15.6 5.7 19.7 8.4 32.4 19.4 32.4 28.1 0 8.8-12.7 19.9-32.4 28.2z"/><circle class="st1" cx="592.9" cy="254.5" r="25.4"/><path class="st1" d="M400.6 393.8c-1.1-1.3-2.6-2.6-4.5-3.8-1.9-1.2-4-2.3-6.3-3.3s-4.9-1.8-7.6-2.4c-2.8-.6-5.6-.9-8.6-.9-7.7 0-13.4 1.4-17 4.3-3.6 2.9-5.4 6.9-5.4 11.9 0 2.7.5 4.9 1.5 6.7 1 1.8 2.6 3.3 4.8 4.5 2.2 1.3 4.9 2.4 8.2 3.3 3.3.9 7.1 1.9 11.6 2.9 5.1 1.1 9.8 2.4 13.9 3.9 4.2 1.4 7.7 3.2 10.6 5.4 2.9 2.1 5.2 4.8 6.7 7.8s2.3 6.9 2.3 11.3c0 4.8-.9 8.9-2.8 12.4s-4.4 6.4-7.6 8.7c-3.2 2.3-7 4-11.4 5-4.4 1.1-9.1 1.6-14.3 1.6-7.7 0-14.9-1.2-21.8-3.6-6.9-2.4-13.1-5.9-18.7-10.4l6-10.6c1.5 1.6 3.4 3.2 5.8 4.8 2.4 1.6 5.1 3 8.1 4.3 3 1.3 6.3 2.3 9.8 3.1 3.5.8 7.2 1.2 11 1.2 7.1 0 12.6-1.3 16.5-3.8 3.9-2.5 5.9-6.3 5.9-11.3 0-2.8-.6-5.2-1.9-7.1-1.3-1.9-3.1-3.6-5.5-5s-5.4-2.6-9-3.7c-3.6-1.1-7.7-2.2-12.2-3.3-5-1.2-9.5-2.5-13.3-3.9-3.8-1.4-7-3.1-9.6-5-2.6-2-4.5-4.3-5.8-7.1-1.3-2.8-2-6.2-2-10.1 0-4.8.9-9 2.7-12.6 1.8-3.6 4.2-6.7 7.4-9.2 3.2-2.5 7-4.4 11.3-5.7 4.4-1.3 9.1-1.9 14.3-1.9 6.7 0 12.8 1 18.2 3.1 5.4 2.1 10.2 4.8 14.4 8.3l-5.7 10.2zm57.2 79.9c-5.5 0-10.5-1-15.1-3s-8.5-4.7-11.8-8.2c-3.3-3.5-5.8-7.5-7.6-12.1-1.8-4.6-2.7-9.5-2.7-14.6s.9-10 2.7-14.6c1.8-4.6 4.4-8.6 7.7-12 3.3-3.5 7.3-6.2 11.8-8.2 4.6-2 9.6-3 15.1-3s10.5 1 15.1 3.1c4.5 2.1 8.4 4.8 11.5 8.2 3.2 3.4 5.6 7.4 7.4 11.9 1.7 4.5 2.6 9.2 2.6 14.1 0 1 0 2-.1 2.8 0 .8-.1 1.5-.2 2h-60.6c.3 3.6 1.1 7 2.5 9.9 1.4 3 3.2 5.6 5.5 7.7 2.2 2.1 4.8 3.8 7.6 5 2.8 1.2 5.9 1.8 9 1.8 2.2 0 4.4-.3 6.6-.9 2.1-.6 4.2-1.4 6-2.5 1.9-1 3.5-2.3 5-3.8 1.4-1.5 2.5-3.2 3.3-5l10.6 2.9c-1.2 2.7-2.9 5.2-5 7.4s-4.5 4.2-7.3 5.8c-2.8 1.6-5.8 2.9-9.2 3.9-3.2.9-6.7 1.4-10.4 1.4zm25.1-42.8c-.3-3.5-1.1-6.6-2.6-9.6-1.4-2.9-3.3-5.4-5.5-7.5-2.2-2.1-4.7-3.7-7.6-4.8-2.9-1.2-6-1.8-9.2-1.8-3.3 0-6.3.6-9.2 1.8-2.9 1.2-5.4 2.8-7.6 4.9-2.2 2.1-4 4.6-5.3 7.5-1.4 2.9-2.2 6.1-2.5 9.5h49.5zm88.8 41.4h-12.3v-40.9c0-7.8-1.2-13.5-3.6-17.1-2.4-3.5-6-5.3-10.8-5.3-2.5 0-5 .5-7.6 1.5-2.5 1-4.9 2.3-7.1 4-2.2 1.7-4.2 3.7-5.9 6-1.7 2.3-2.9 4.9-3.8 7.7v44.1h-12.3v-73.1h11.2v15.7c2.9-5.1 7.1-9.2 12.5-12.3 5.5-3.1 11.4-4.6 17.8-4.6 4.2 0 7.7.8 10.5 2.3 2.8 1.5 5 3.7 6.7 6.4 1.7 2.8 2.9 6 3.6 9.7.7 3.7 1.1 7.8 1.1 12.2v43.7zm44.8 1.4c-5.9 0-11.7-.9-17.4-2.7-5.7-1.8-10.6-4.5-14.7-7.9l5.3-8.3c4.3 3.3 8.6 5.7 12.9 7.4 4.3 1.6 8.8 2.4 13.6 2.4 5.3 0 9.5-1 12.7-3.1 3.1-2.1 4.7-5.1 4.7-8.9 0-1.8-.4-3.3-1.3-4.5-.8-1.3-2.1-2.4-3.8-3.3-1.7-.9-3.8-1.8-6.4-2.5-2.6-.7-5.6-1.5-9.1-2.4-4.4-1.1-8.2-2.2-11.3-3.2-3.2-1-5.8-2.2-7.8-3.6-2.1-1.4-3.5-3.1-4.5-5-.9-2-1.4-4.4-1.4-7.3 0-3.6.7-6.9 2.2-9.7 1.4-2.8 3.4-5.2 6-7.1 2.5-1.9 5.5-3.4 8.9-4.3 3.4-1 7.1-1.5 11-1.5 5.5 0 10.6.9 15.4 2.7 4.8 1.8 8.8 4.1 12 7l-5.6 7.4c-3.1-2.7-6.5-4.7-10.4-6.1-3.8-1.4-7.7-2-11.8-2-4.5 0-8.3 1-11.4 2.9-3.1 1.9-4.7 5-4.7 9.2 0 1.7.3 3.1.9 4.2.6 1.1 1.6 2.1 3 2.9 1.4.8 3.2 1.6 5.4 2.2 2.2.7 4.8 1.4 7.9 2.1 4.9 1.1 9.1 2.3 12.7 3.4 3.6 1.2 6.6 2.5 9 4.1 2.4 1.6 4.2 3.5 5.3 5.6 1.2 2.1 1.8 4.8 1.8 7.8 0 6.8-2.6 12.2-7.8 16.2-5.4 3.9-12.5 5.9-21.3 5.9zm166-63.7c-6.2.2-11.6 1.8-16.3 4.8-4.7 3-8 7.1-10 12.5v45.1h-12.3v-73.1h11.5v16.9c2.5-5 5.8-9.1 9.9-12.2 4.1-3.1 8.5-4.9 13.2-5.2h2.4c.7 0 1.2 0 1.7.1V410zm37.8 63.7c-5.9 0-11.7-.9-17.4-2.7-5.7-1.8-10.6-4.5-14.7-7.9l5.3-8.3c4.3 3.3 8.6 5.7 12.9 7.4 4.3 1.6 8.8 2.4 13.6 2.4 5.3 0 9.5-1 12.7-3.1 3.1-2.1 4.7-5.1 4.7-8.9 0-1.8-.4-3.3-1.3-4.5-.8-1.3-2.1-2.4-3.8-3.3-1.7-.9-3.8-1.8-6.4-2.5-2.6-.7-5.6-1.5-9.1-2.4-4.4-1.1-8.2-2.2-11.3-3.2-3.2-1-5.8-2.2-7.8-3.6-2.1-1.4-3.5-3.1-4.5-5-.9-2-1.4-4.4-1.4-7.3 0-3.6.7-6.9 2.2-9.7 1.4-2.8 3.4-5.2 6-7.1 2.5-1.9 5.5-3.4 8.9-4.3 3.4-1 7.1-1.5 11-1.5 5.5 0 10.6.9 15.4 2.7 4.8 1.8 8.8 4.1 12 7l-5.6 7.4c-3.1-2.7-6.5-4.7-10.4-6.1-3.8-1.4-7.7-2-11.8-2-4.5 0-8.3 1-11.4 2.9-3.1 1.9-4.7 5-4.7 9.2 0 1.7.3 3.1.9 4.2.6 1.1 1.6 2.1 3 2.9 1.4.8 3.2 1.6 5.4 2.2 2.2.7 4.8 1.4 7.9 2.1 4.9 1.1 9.1 2.3 12.7 3.4 3.6 1.2 6.6 2.5 9 4.1 2.4 1.6 4.2 3.5 5.3 5.6 1.2 2.1 1.8 4.8 1.8 7.8 0 6.8-2.6 12.2-7.8 16.2-5.4 3.9-12.4 5.9-21.3 5.9z"/><path class="st2" d="M700.4 457.6c1.6-.5 2.7-2.2 3.4-4.7-2 1.7-4.2 3.1-6.3 4.3 1 .5 2 .7 2.9.4z"/><path class="st2" d="M694 403.1c-18.1 0-32.9 14.8-32.9 32.9s14.8 32.9 32.9 32.9 32.9-14.8 32.9-32.9-14.8-32.9-32.9-32.9zm13.5 46.4c-.4.4-.8.8-1.2 1.1-.4 5.5-2 9.4-5 10.3-2 .6-4.3-.3-6.6-2.3-8.9 4.2-17.6 4.2-22.6-.8-7.5-7.5-3.7-23.3 8.3-35.3.4-.4.8-.7 1.1-1.1.3-5.5 2-9.4 5-10.3 3-.9 6.7 1.6 10.1 6.3 2.8 3.9 5.5 9.4 7.3 15.6 1.2 4.1 2 8.1 2.3 11.7-.6.6-1.1 1.2-1.7 1.8l-.2.2c-.1-3.9-.8-8.4-2.2-13.2-1.8-6.2-4.5-11.5-7.2-14.9-.6-.8-1.3-1.5-1.9-2.1-2.5 1.2-5.1 2.8-7.5 4.8.2-1.9.7-3.3 1.2-4.2 1.3-.9 2.5-1.7 3.8-2.4-1-.5-2-.7-3-.4-1.6.5-2.7 2.2-3.4 4.7-.3 1.1-.5 2.4-.5 3.8-.1 1-.1 2.2 0 3.3.2 3.6.9 7.8 2.2 12.1 2 6.7 4.9 12.3 7.9 15.8l-2.1.9c-3-4-5.7-9.6-7.7-16.1-1.2-4-1.9-7.8-2.2-11.4-.1-.9-.1-1.8-.2-2.6-9.9 10.3-12.8 23.6-6.5 29.9 4 4 10.7 4.3 17.6 1.5.7-.3 1.5-.6 2.2-1 3.2-1.5 6.4-3.7 9.4-6.5.5-.4.9-.8 1.4-1.3l.7-.7c9.9-10.3 12.8-23.6 6.5-29.9-3.7-3.6-9.6-4.2-16-2.1-.7-.9-1.4-1.6-2.1-2.3 8.3-3.5 16.3-3.2 21 1.5 7.6 7.7 3.8 23.6-8.2 35.6zm-7.3-13.5c0 3.4-2.8 6.2-6.2 6.2-3.4 0-6.2-2.8-6.2-6.2 0-3.4 2.8-6.2 6.2-6.2 3.4 0 6.2 2.8 6.2 6.2z"/><path class="st1" d="M725.8 407.1c.3.1.7.2 1.1.2 2.3 0 4.1-1.8 4.1-4.1s-1.8-4.1-4.1-4.1-4.1 1.8-4.1 4.1c0 .4.1.7.2 1.1l-4.3 4.3c-6.5-5.9-15.2-9.4-24.7-9.4-20.4 0-37 16.6-37 37 0 9.5 3.6 18.1 9.4 24.7l-4.3 4.3c-.3-.1-.7-.2-1.1-.2-2.3 0-4.1 1.8-4.1 4.1s1.8 4.1 4.1 4.1 4.1-1.8 4.1-4.1c0-.4-.1-.7-.2-1.1l4.3-4.3c6.5 5.9 15.2 9.4 24.7 9.4 20.4 0 37-16.6 37-37 0-9.5-3.6-18.1-9.4-24.7l4.3-4.3zM694 468.9c-18.1 0-32.9-14.8-32.9-32.9s14.8-32.9 32.9-32.9 32.9 14.8 32.9 32.9-14.8 32.9-32.9 32.9z"/><path class="st1" d="M694.8 412.7c.7.7 1.4 1.4 2.1 2.3 6.4-2.1 12.4-1.5 16 2.1 6.3 6.3 3.4 19.6-6.5 29.9l-.7.7c-.4.4-.9.9-1.4 1.3-3 2.7-6.2 4.9-9.4 6.5-.7.4-1.5.7-2.2 1-7 2.7-13.7 2.4-17.6-1.5-6.3-6.3-3.4-19.6 6.5-29.9 0 .8.1 1.7.2 2.6.3 3.5 1.1 7.4 2.2 11.4 1.9 6.5 4.7 12.1 7.7 16.1l2.1-.9c-3-3.4-5.9-9.1-7.9-15.8-1.3-4.3-2-8.5-2.2-12.1-.1-1.2-.1-2.3 0-3.3.1-1.4.3-2.7.5-3.8.6-2.5 1.7-4.2 3.4-4.7.9-.3 1.9-.1 3 .4-1.3.7-2.6 1.5-3.8 2.4-.5.9-1 2.3-1.2 4.2 2.4-2 5-3.6 7.5-4.8.6.6 1.3 1.3 1.9 2.1 2.7 3.5 5.4 8.8 7.2 14.9 1.4 4.7 2.1 9.3 2.2 13.2l.2-.2c.6-.6 1.2-1.2 1.7-1.8-.3-3.6-1.1-7.6-2.3-11.7-1.9-6.2-4.5-11.7-7.3-15.6-3.4-4.7-7.1-7.2-10.1-6.3-2.9.9-4.6 4.8-5 10.3-.4.4-.8.7-1.1 1.1-12 12-15.7 27.9-8.3 35.3 5 5 13.8 5 22.6.8 2.3 2 4.6 2.9 6.6 2.3 2.9-.9 4.6-4.8 5-10.3.4-.4.8-.7 1.2-1.1 12-12 15.7-27.9 8.3-35.3-4.8-5-12.8-5.3-21.1-1.8zm5.6 44.9c-.9.3-1.9.1-2.9-.4 2.1-1.2 4.2-2.6 6.3-4.3-.7 2.5-1.8 4.2-3.4 4.7z"/><circle class="st1" cx="694" cy="436" r="6.2"/></svg>