<svg xmlns="http://www.w3.org/2000/svg" width="300" height="314" viewBox="0 0 300 314"><path opacity=".98" fill-rule="evenodd" d="M396.477-346.72H982.05V90.804H396.477z"/><path d="M67.886 12.267c-.569-.004-1.187.002-1.86.002H40.622c-15.436 0-28.139 11.822-28.139 27.17v262.295h275.034V39.439c0-15.348-11.996-27.17-27.432-27.17h-25.14c-5.381 0-7.322-.175-7.674 6.617-.265 7.057-5.204 11.29-11.731 13.319-2.205.705-4.675 1.234-7.057 1.234H92.49c-2.381 0-4.851-.353-7.056-1.058-6.528-2.03-11.38-6.616-11.733-13.672-.309-5.943-1.833-6.416-5.814-6.442zm114.047.092c-2.117 0-3.883 1.764-3.883 3.88 0 2.118 1.766 3.882 3.883 3.882s3.88-1.764 3.88-3.881-1.763-3.881-3.88-3.881zm-48.604 2.557c-1.5 0-2.646.882-2.646 2.205s1.147 2.205 2.646 2.205h34.4c1.5 0 2.647-.882 2.647-2.205s-1.147-2.205-2.647-2.205h-34.4z" opacity=".98" fill="#416baf"/><g transform="translate(-39.116 -27.201) scale(.89741)"><circle r="25.1" cy="214" cx="211.8" class="st1" fill="#fff"/><path d="M337.7 189c-8.7-7.2-20.9-13.7-35.5-18.7-2.9-1-5.9-2-9-2.8.5-2.1 1-4.2 1.4-6.2 7-33.8 2-60.1-12.9-68.7-7.3-4.2-17.3-4.2-28.8 0-10.6 3.9-22.3 11.3-33.9 21.4-2.3 2-4.7 4.2-7 6.4-1.6-1.5-3.1-2.9-4.7-4.3-25.8-22.9-51.1-31.8-66-23.2-7.3 4.2-12.3 12.9-14.4 25-1.9 11.1-1.3 25 1.6 40.1.6 3 1.3 6.2 2.1 9.3-3.6 1-7.1 2.1-10.4 3.3-30.5 10.6-48.7 26.8-48.7 43.4 0 8.6 5.1 17.6 14.7 25.8 9 7.7 21.7 14.5 36.7 19.6 2.5.8 5 1.6 7.6 2.4-.8 3.4-1.6 6.7-2.2 10-6 31.7-1 55.6 13.3 63.9 3.8 2.2 8.3 3.3 13.4 3.3 4.9 0 10.4-1 16.2-3.1 11.2-3.9 23.4-11.5 35.3-21.9 1.9-1.7 3.9-3.5 5.8-5.4 2.5 2.4 5.1 4.7 7.6 6.9 18 15.5 35.2 23.7 48.8 23.7 4.9 0 9.4-1.1 13.1-3.3 7.5-4.3 12.7-13.2 15-25.6 2.1-11.7 1.6-26.1-1.4-41.6-.5-2.5-1-5-1.7-7.5 1.8-.5 3.5-1.1 5.2-1.6 32.8-10.8 53.1-28.3 53.1-45.5.1-8.5-4.9-17.2-14.3-25.1zM257 103.9c8-2.9 14.6-3.2 18.7-.9 8 4.6 13.7 24.1 7.1 55.9-.4 1.8-.8 3.7-1.3 5.5-11.7-2.7-24.3-4.7-37.6-5.9-7.7-11-15.7-20.9-23.7-29.5 2.1-2.1 4.3-4 6.4-5.9 10.7-9.1 21.2-15.8 30.4-19.2zm-6 133c-4.4 7.6-8.9 14.9-13.4 21.7-8.3.6-16.9.9-25.7.9s-17.3-.3-25.4-.8c-4.8-7-9.4-14.3-13.7-21.7-4.3-7.5-8.3-15.1-12-22.6 3.6-7.6 7.6-15.2 11.9-22.6 4.3-7.5 8.9-14.8 13.6-21.7 8.4-.6 16.9-1 25.5-1 8.7 0 17.2.3 25.6 1 4.6 6.9 9.2 14.1 13.5 21.6 4.4 7.7 8.5 15.2 12.1 22.5-3.6 7.5-7.6 15.1-12 22.7zm18.5-8.9c3.8 8.6 6.9 16.8 9.4 24.7-8.1 1.9-16.9 3.4-26.2 4.5 2.9-4.6 5.8-9.4 8.6-14.3 3-5 5.7-10 8.2-14.9zm-57.2 63.4c-5.7-6.1-11.4-12.9-16.9-20.2 5.3.2 10.8.3 16.4.3 5.7 0 11.4-.1 17-.4-5.5 7.4-11 14.2-16.5 20.3zm-41.1-34.1c-9.2-1-17.9-2.4-25.8-4.2 2.5-8 5.5-16.3 9.1-24.7 2.5 4.8 5.2 9.7 8 14.5 2.7 5 5.6 9.8 8.7 14.4zm-8.8-71.6c-2.8 4.8-5.4 9.7-8 14.5-3.5-8.3-6.5-16.4-8.9-24.3 8-1.8 16.6-3.3 25.5-4.4-3 4.7-5.9 9.4-8.6 14.2zm49.6-48.1c5.5 6 11 12.6 16.5 19.9-5.5-.3-11.1-.4-16.7-.4-5.5 0-11 .1-16.4.4 5.4-7.2 11-13.9 16.6-19.9zm49.3 48c-2.8-4.8-5.6-9.5-8.5-14 8.9 1.1 17.5 2.6 25.6 4.5-2.4 7.8-5.4 15.9-9 24.2-2.5-4.9-5.2-9.8-8.1-14.7zm-121-29.9c-2.7-13.6-3.2-26-1.5-35.7 1.4-8.4 4.5-14.3 8.6-16.7 8-4.6 27.7.2 52 21.8 1.4 1.2 2.8 2.5 4.2 3.9-8.2 8.8-16.2 18.7-23.8 29.5-13.2 1.2-25.8 3.2-37.5 5.8-.8-2.9-1.4-5.7-2-8.6zm-13.6 92.4C97 238 83.5 223.3 83.5 214c0-8.9 12.6-22.3 40.7-32.1 3.1-1.1 6.3-2.1 9.6-3 3.5 11.5 8.1 23.4 13.7 35.5-5.6 12.2-10.3 24.3-13.8 35.9-2.4-.7-4.7-1.5-7-2.2zM155 327c-3 0-5.5-.6-7.4-1.7-7.7-4.4-13-22-7.5-51.2.6-3 1.3-6.1 2-9.3 11.4 2.5 24.1 4.4 37.8 5.5 7.8 10.9 15.9 21 24.1 29.8-1.8 1.7-3.6 3.4-5.3 4.9-18.2 15.7-33.8 22-43.7 22zm128.8-56c6.1 30.8.2 49.8-7.8 54.4-7.7 4.5-25.6.3-48.1-19.1-2.3-2-4.7-4.2-7.1-6.4 7.9-8.6 15.8-18.6 23.5-29.9 13.6-1.2 26.4-3.2 38-5.9.5 2.4 1 4.7 1.5 6.9zm11.5-22.9c-1.5.5-3.1 1-4.7 1.5-3.5-11.2-8.3-23.1-14.2-35.5 5.6-12.1 10.2-23.9 13.7-35.1 2.9.8 5.7 1.7 8.4 2.6 13.1 4.5 24.1 10.3 31.7 16.6 6.5 5.4 10.1 11 10.1 15.8-.1 9.3-14.2 23.9-45 34.1z" class="st1" fill="#fff"/></g></svg>