<svg xmlns="http://www.w3.org/2000/svg" viewBox="0 0 437.886 385.358" height="385.358" width="437.886"><path d="M188.374 375.357c-28.735 0-52.031-23.295-52.031-52.03 0-7.193 1.415-14.065 4.1-20.276 2.45-5.666 3.377-7.651 13.892-20.415 9.71-11.876 20.51-35.607 20.468-63.447.042-27.839-10.758-51.57-20.468-63.447-10.515-12.762-11.443-14.748-13.893-20.415-2.685-6.21-4.1-13.082-4.1-20.275l.003-.457c.161 19.166 10.947 37.517 29.367 46.435a51.827 51.827 0 0 0 20.036 5.145l-.002.001.003-.001c.472.024.945.036 1.416.036 7.046 0 13.931-2.552 21.898-4.362a88.115 88.115 0 0 1 8.882-1.535c-9.874 14.722-17.664 35.491-17.359 58.875-.347 26.698 9.855 49.988 21.665 64.763 5.441 6.807 11.106 12.14 14.054 19.097l.001.002a51.87 51.87 0 0 1 4.099 20.275c0 28.736-23.295 52.031-52.031 52.031" fill="#3972c1"/><path d="M375.806 257.004a51.843 51.843 0 0 1-22.637-5.213 51.87 51.87 0 0 1-16.461-12.525h-.002l-.001-.002c-4.978-5.684-7.309-13.108-11.064-20.972-8.151-17.067-24.666-36.4-48.847-47.72-15.743-7.877-32.148-10.98-46.785-10.98-4.185 0-8.225.253-12.064.722a86.8 86.8 0 0 1 4.306-5.887c5.441-6.807 11.106-12.14 14.054-19.097l.001-.003a51.866 51.866 0 0 0 4.099-20.275c0-28.736-23.295-52.03-52.031-52.03-28.583 0-51.784 23.048-52.029 51.573-.065-7.746 1.606-15.625 5.21-23.07 8.986-18.559 27.545-29.369 46.869-29.369a51.85 51.85 0 0 1 22.636 5.211c6.474 3.135 12.042 7.403 16.462 12.527 4.033 4.675 5.415 6.373 12.322 21.4 6.457 13.915 23.11 33.977 48.185 46.071 16.776 8.154 34.011 11.124 48.048 11.124 6.914-.002 13.053-.722 17.977-1.898 12.672-3.077 16.713-3.709 20.88-3.709 1.117 0 2.245.047 3.548.102 6.76.29 13.562 2.011 20.035 5.146 25.864 12.522 36.68 43.641 24.157 69.505-8.985 18.56-27.544 29.369-46.868 29.369" fill="#3972c1"/><path d="M187.165 166.211c-.471 0-.944-.012-1.416-.036l-.003.001.001-.001a51.827 51.827 0 0 1-20.035-5.145c-18.42-8.918-29.206-27.269-29.367-46.435.245-28.525 23.446-51.574 52.029-51.574 28.736 0 52.031 23.295 52.031 52.031a51.86 51.86 0 0 1-4.099 20.275l-.001.003c-2.947 6.957-8.613 12.29-14.054 19.097a86.8 86.8 0 0 0-4.306 5.887 88.115 88.115 0 0 0-8.883 1.535c-7.966 1.81-14.85 4.362-21.897 4.362" fill="#293c88"/><path d="M63.022 272.211C33.739 272.211 10 248.472 10 219.19c0-29.284 23.739-53.023 53.022-53.023 29.283 0 53.022 23.74 53.022 53.023 0 29.282-23.739 53.021-53.022 53.021m277.44-156.167c-29.283 0-53.022-23.739-53.022-53.023C287.44 33.74 311.179 10 340.463 10c29.282 0 53.02 23.739 53.02 53.021 0 29.284-23.738 53.023-53.02 53.023" fill="#3972c1"/></svg>