<svg fill="none" height="512" viewBox="0 0 512 512" width="512" xmlns="http://www.w3.org/2000/svg"><path d="M38 142h436v260H38z" fill="#131821"/><path d="M38 109h436v33H38z" fill="#4f5259"/><path d="M86 157h107.921v25H86z" fill="#8f9f60"/><path d="M86 197h311v25H86z" fill="#cea2ac"/><path d="M86 296h259.01v25H86z" fill="#457d9a"/><path d="M86 336h259.01v25H86z" fill="#6b958e"/><ellipse cx="61.203" cy="125.5" fill="#ec685b" rx="8.094" ry="7.5"/><path d="M67.832 168.84c-.816.4-1.744.72-2.784.96 1.04.24 1.968.56 2.784.96l6.816 3.696c.432.208.736.472.912.792.192.304.288.64.288 1.008v5.16l-19.44-10.152v-2.904l19.44-10.176v5.16c0 .368-.096.712-.288 1.032-.176.304-.48.568-.912.792zm141.448 16.872a4.176 4.176 0 01-.696 1.152 3.88 3.88 0 01-.936.84 3.846 3.846 0 01-1.104.504 4.097 4.097 0 01-1.152.168h-3.168l13.632-35.784c.32-.816.808-1.44 1.464-1.872s1.416-.648 2.28-.648h3.168zm39.121-17.352v2.904l-19.44 10.152v-5.16c0-.368.088-.704.264-1.008.192-.32.504-.584.936-.792l6.816-3.696c.816-.4 1.744-.72 2.784-.96-1.04-.24-1.968-.56-2.784-.96l-6.816-3.672c-.432-.224-.744-.488-.936-.792a2.108 2.108 0 01-.264-1.032v-5.16zm163.879 57.352a4.176 4.176 0 01-.696 1.152 3.88 3.88 0 01-.936.84 3.846 3.846 0 01-1.104.504 4.097 4.097 0 01-1.152.168h-3.168l13.632-35.784c.32-.816.808-1.44 1.464-1.872s1.416-.648 2.28-.648h3.168zm39.121-17.352v2.904l-19.44 10.152v-5.16c0-.368.088-.704.264-1.008.192-.32.504-.584.936-.792l6.816-3.696c.816-.4 1.744-.72 2.784-.96-1.04-.24-1.968-.56-2.784-.96l-6.816-3.672c-.432-.224-.744-.488-.936-.792a2.108 2.108 0 01-.264-1.032v-5.16zM361.28 323.712a4.176 4.176 0 01-.696 1.152 3.88 3.88 0 01-.936.84 3.846 3.846 0 01-1.104.504 4.097 4.097 0 01-1.152.168h-3.168l13.632-35.784c.32-.816.808-1.44 1.464-1.872s1.416-.648 2.28-.648h3.168zm39.121-17.352v2.904l-19.44 10.152v-5.16c0-.368.088-.704.264-1.008.192-.32.504-.584.936-.792l6.816-3.696c.816-.4 1.744-.72 2.784-.96-1.04-.24-1.968-.56-2.784-.96l-6.816-3.672c-.432-.224-.744-.488-.936-.792a2.108 2.108 0 01-.264-1.032v-5.16zm-39.121 59.352a4.176 4.176 0 01-.696 1.152 3.88 3.88 0 01-.936.84 3.846 3.846 0 01-1.104.504 4.097 4.097 0 01-1.152.168h-3.168l13.632-35.784c.32-.816.808-1.44 1.464-1.872s1.416-.648 2.28-.648h3.168zm39.121-17.352v2.904l-19.44 10.152v-5.16c0-.368.088-.704.264-1.008.192-.32.504-.584.936-.792l6.816-3.696c.816-.4 1.744-.72 2.784-.96-1.04-.24-1.968-.56-2.784-.96l-6.816-3.672c-.432-.224-.744-.488-.936-.792a2.108 2.108 0 01-.264-1.032v-5.16zM67.832 307.84c-.816.4-1.744.72-2.784.96 1.04.24 1.968.56 2.784.96l6.816 3.696c.432.208.736.472.912.792.192.304.288.64.288 1.008v5.16l-19.44-10.152v-2.904l19.44-10.176v5.16c0 .368-.096.712-.288 1.032-.176.304-.48.568-.912.792zm0-99c-.816.4-1.744.72-2.784.96 1.04.24 1.968.56 2.784.96l6.816 3.696c.432.208.736.472.912.792.192.304.288.64.288 1.008v5.16l-19.44-10.152v-2.904l19.44-10.176v5.16c0 .368-.096.712-.288 1.032-.176.304-.48.568-.912.792zm0 139c-.816.4-1.744.72-2.784.96 1.04.24 1.968.56 2.784.96l6.816 3.696c.432.208.736.472.912.792.192.304.288.64.288 1.008v5.16l-19.44-10.152v-2.904l19.44-10.176v5.16c0 .368-.096.712-.288 1.032-.176.304-.48.568-.912.792z" fill="#fff" fill-opacity=".82"/></svg>