<svg width="400" height="400" viewBox="0 0 400 400" xmlns="http://www.w3.org/2000/svg"><g transform="translate(0 22)"><path d="M399.43 177.642c0-26.422-33.089-51.463-83.82-66.992 11.707-51.707 6.504-92.845-16.423-106.016-5.285-3.09-11.463-4.553-18.211-4.553v18.13c3.74 0 6.748.732 9.268 2.114 11.057 6.342 15.854 30.488 12.114 61.545-.895 7.642-2.358 15.691-4.147 23.902-15.935-3.902-33.333-6.91-51.626-8.861-10.975-15.041-22.357-28.7-33.82-40.65 26.503-24.635 51.381-38.13 68.292-38.13V0c-22.358 0-51.626 15.935-81.22 43.577C170.244 16.097 140.976.325 118.617.325v18.13c16.83 0 41.79 13.415 68.294 37.886-11.383 11.952-22.765 25.529-33.578 40.57-18.374 1.95-35.772 4.959-51.707 8.943a245.274 245.274 0 01-4.228-23.578c-3.82-31.056.895-55.203 11.87-61.626 2.44-1.463 5.61-2.113 9.35-2.113V.407c-6.83 0-13.008 1.463-18.374 4.552C77.398 18.13 72.276 59.187 84.065 110.732 33.495 126.342.569 151.3.569 177.642c0 26.423 33.09 51.464 83.821 66.992-11.707 51.707-6.504 92.846 16.423 106.016 5.285 3.09 11.463 4.553 18.293 4.553 22.357 0 51.626-15.935 81.22-43.577 29.593 27.48 58.861 43.252 81.219 43.252 6.829 0 13.008-1.463 18.374-4.553 22.845-13.17 27.967-54.227 16.179-105.772 50.406-15.529 83.333-40.57 83.333-66.91zm-105.853-54.227c-3.008 10.487-6.748 21.3-10.975 32.113-3.334-6.504-6.83-13.008-10.65-19.512-3.74-6.504-7.724-12.845-11.708-19.024 11.545 1.707 22.683 3.821 33.333 6.423zM256.341 210c-6.341 10.976-12.845 21.382-19.593 31.057A423.027 423.027 0 01200 242.683c-12.276 0-24.553-.57-36.585-1.545-6.748-9.675-13.334-20-19.675-30.894-6.179-10.65-11.789-21.464-16.91-32.358 5.04-10.894 10.731-21.788 16.829-32.439 6.341-10.975 12.845-21.382 19.593-31.057A423.026 423.026 0 01200 112.764c12.276 0 24.553.57 36.585 1.545 6.748 9.675 13.334 20 19.675 30.894 6.179 10.65 11.789 21.464 16.91 32.358-5.121 10.894-10.731 21.789-16.829 32.439zm26.26-10.57a348.423 348.423 0 0111.22 32.359c-10.65 2.601-21.87 4.796-33.496 6.504 3.984-6.26 7.968-12.683 11.708-19.269 3.74-6.504 7.235-13.089 10.569-19.593zm-82.438 86.749c-7.561-7.805-15.122-16.504-22.602-26.016 7.317.325 14.797.569 22.358.569 7.642 0 15.203-.163 22.601-.57a317.339 317.339 0 01-22.357 26.017zm-60.488-47.886c-11.545-1.708-22.683-3.821-33.334-6.423 3.009-10.488 6.748-21.3 10.976-32.114 3.333 6.504 6.83 13.008 10.65 19.512a538.46 538.46 0 0011.708 19.025zm60.081-169.187c7.561 7.805 15.122 16.504 22.602 26.016-7.317-.325-14.797-.57-22.358-.57-7.642 0-15.203.163-22.602.57a317.338 317.338 0 0122.358-26.016zm-60.163 47.886c-3.983 6.26-7.967 12.683-11.707 19.268-3.74 6.504-7.236 13.008-10.569 19.512a348.423 348.423 0 01-11.22-32.357 394.836 394.836 0 0133.496-6.423zM66.016 218.78c-28.78-12.276-47.398-28.373-47.398-41.138 0-12.764 18.618-28.943 47.398-41.138 6.992-3.008 14.634-5.691 22.52-8.211 4.635 15.935 10.732 32.52 18.293 49.512-7.48 16.91-13.496 33.415-18.049 49.268-8.048-2.52-15.69-5.284-22.764-8.293zm43.74 116.18c-11.057-6.342-15.854-30.488-12.114-61.545.895-7.643 2.358-15.691 4.147-23.903 15.935 3.903 33.333 6.91 51.626 8.862 10.975 15.04 22.357 28.7 33.82 40.65-26.503 24.635-51.381 38.13-68.292 38.13-3.658-.08-6.748-.813-9.187-2.195zm192.846-61.952c3.82 31.057-.895 55.203-11.87 61.626-2.44 1.464-5.61 2.114-9.35 2.114-16.83 0-41.789-13.415-68.293-37.886 11.383-11.951 22.765-25.529 33.578-40.57 18.374-1.95 35.772-4.959 51.707-8.942 1.87 8.211 3.333 16.097 4.228 23.658zm31.3-54.228c-6.991 3.009-14.634 5.692-22.52 8.212-4.634-15.935-10.732-32.52-18.293-49.512 7.48-16.91 13.496-33.415 18.05-49.269 8.048 2.52 15.69 5.285 22.845 8.293 28.78 12.276 47.398 28.374 47.398 41.138-.081 12.765-18.7 28.943-47.48 41.138z" fill="#639DDA"/><circle fill="#FFF" cx="199.919" cy="177.642" r="37.154"/></g></svg>