<svg width="113" height="112" viewBox="0 0 113 112" xmlns="http://www.w3.org/2000/svg"><g fill="none" fill-rule="evenodd"><path fill="#DD4C39" d="M.422.211h112.089V112H.422z"/><path fill="#FFF" fill-rule="nonzero" d="M73.515 60.08h33.363v8.825H84.555v7.917h20.151v8.764l-20.15.06v7.979h22.925v8.824H73.515zm-18.862 42.369l-6.154-11.725h-8.205v11.725h-11.04V60.08h19.004c5.59 0 9.914 1.31 12.971 3.928 3.097 2.58 4.646 6.226 4.646 10.94 0 3.183-.644 5.943-1.931 8.28-1.287 2.297-3.157 4.09-5.61 5.38l8.808 13.84h-12.49zm-14.359-20.55h8.024c2.252 0 3.982-.564 5.189-1.692 1.247-1.128 1.87-2.76 1.87-4.895 0-2.055-.623-3.627-1.87-4.715-1.207-1.128-2.937-1.692-5.189-1.692h-8.024v12.994z"/></g></svg>