<svg width="196" height="176" viewBox="0 0 196 176" xmlns="http://www.w3.org/2000/svg"><g fill="none" fill-rule="evenodd"><path d="M24.54 62.106v36.157m17.575-52.488l35.118-25.67m47.087-.011l36.788 24.977m17.575 18.063l-45.575 79.968M100.777 40.079l-52.693 78.173m130.599-55.118l-1.323 30.614m.002 36.11l-26.677 29.575m-69.373-.078l34.237.094M24.54 138.231l21.638 21.134m-4.063-112.59l117.67 66.016" stroke="#4FC3F7" stroke-width="4" stroke-linejoin="round"/><path fill="#4285F4" d="M.997 98.262h47.086v39.969H.997z"/><path fill="#34A853" d="M46.163 143.024h35.15v32.662h-35.15z"/><path fill="#4285F4" d="M77.234.11h47.087v39.97H77.234z"/><path fill="#34A853" d="M115.538 143.106h35.15v32.66h-35.15zM6.965 29.444h35.15v32.662H6.965z"/><path fill="#FF9800" d="M161.108 27.008h35.15v36.126h-35.15zm-1.321 67.724h35.15v36.126h-35.15z"/></g></svg>