<svg xmlns="http://www.w3.org/2000/svg" width="700" height="700" viewBox="0 0 700 700"><defs><style>.a{fill:#b9469a}</style></defs><path class="a" d="M351.43 58.24c-157.3 0-284.82 127.51-284.82 284.81s127.52 284.82 284.82 284.82 284.81-127.52 284.81-284.82S508.73 58.24 351.43 58.24zm94.75 444.12h-186.4a68.21 68.21 0 01-68.14-68.14v-186.4a68.22 68.22 0 0168.14-68.14h186.4a68.22 68.22 0 0168.14 68.14v186.4a68.21 68.21 0 01-68.14 68.14z"/><path class="a" d="M446.18 199.68h-186.4a48.28 48.28 0 00-48.14 48.14v186.4a48.28 48.28 0 0048.14 48.14h186.4a48.28 48.28 0 0048.14-48.14v-186.4a48.28 48.28 0 00-48.14-48.14zm-204.67 46.15a10 10 0 1114.15-14.14l25.58 25.58V240a10 10 0 0110-10 10 10 0 0110 10v41.44A11.13 11.13 0 01290.61 292h-41.43a10 10 0 010-20h18.54zm61.29 199a10 10 0 01-10 10 10 10 0 01-10-10v-18.54l-26.21 26.2a10 10 0 01-14.14-14.14L268 412.77h-17.25a10 10 0 010-20h41.44a11.15 11.15 0 0110.62 10.62zM402 238.41a10 10 0 0110-10 10 10 0 0110 10V257l26.21-26.21a10 10 0 0114.14 14.14l-25.58 25.58H454a10 10 0 010 20h-41.41A11.15 11.15 0 01402 279.85zm61.29 213.14a10 10 0 01-14.14 0L423.54 426v17.29a10 10 0 01-10 10 10 10 0 01-10-10v-41.47a11.13 11.13 0 0110.62-10.62h41.44a10 10 0 010 20h-18.55l26.21 26.21a10 10 0 010 14.14z"/></svg>