<svg xmlns="http://www.w3.org/2000/svg" viewBox="0 0 2000 2000"><path d="M1000.5 1959.6l-25.9 14.9 4.7 2.7 21.2-12.2v24l861.7-497.5v-53.8l-861.7 497.5zm0-163.5l-167.4 96.7 8.1 4.7 159.3-91.9v20.2l861.7-497.6v-49.9l-861.7 497.5zm0-163.4l-309 178.4 11.7 6.7 297.3-171.6v16.1l861.7-497.5v-45.9l-861.7 497.5zm861.7-1136.8l-12.7-7.3-690 398.4-89.6-51.7 209.7-121.1v-30.3l454.1-262.2-22.2-12.8-431.9 249.3v-26L998.9 794.3l-96.8-55.9 690-398.4-18.7-10.8-690 398.4-94.2-54.4 153-88.3-28.6-16.5 537.1-310.1-15.2-8.8-537.1 310.1-27.2-15.7-153.4 88.3v31.7l-143.8 83-10.5-6-425.6 245.6v41.8l461.8-266.6-10.6-6.1 128.6-74.2V714l94.6 54.6-100.2 57.8-7-4L137.9 1150v37.8L738 841.3l-7.1-4.1L831 779.4l96.8 55.9-210 121.3v22l-579.9 334.8v33.7l579.9-334.8v25.8l90 51.9L138 1476.7v14.6l13.1 7.6 682.5-394 93.1 53.7L717.9 1278v27.4L267 1565.8l22.2 12.8 428.7-247.5v31.6L999 1200.4l84.9 49-83.3 48.1v8.1l-592.1 341.8 18.7 10.8 573.4-331v8.1l116.1-67 92.1 53.2-150.3 86.8 13.2 7.6-71.1 41v12.2L550 1729.3l15.2 8.8 435.3-251.3v12.1l107.3-62 21.6 12.5 150.3-86.6v-25.1l582.6-336.3v-41.8l-582.6 336.3v-15.3l-92.1-53.2 674.6-389.5v-37.8l-707.4 408.4-84.9-49 209.7-121.1v-27.6l582.6-336.3v-33.7l-582.6 336.3v-20.7l-94.4-54.5 677-390.9v-15.1zm-1073 501.5l209.7-121.1 89.5 51.7-99.9 57.7-109.8 63.4-89.5-51.7zm419.4 0L998 1117.9l-93.4-53.9 96.4-55.7 113.3-65.4 94.3 54.5zM447.4 674.1l861.7-497.5-11.7-6.8-861.7 497.5-14-8-283.8 163.8V869l323.6-186.8zm-141.7-81.6l861.9-497.6-8.2-4.8-861.9 497.7-17.6-10.1-142 82v49.9l185.4-107zm-141.8-81.6L1026 13.1l-4.7-2.7-862.1 497.8-21-12.1-.3.1v54L185 523z" fill="#231f20"/></svg>