<svg xmlns="http://www.w3.org/2000/svg" width="700" height="700" viewBox="0 0 700 700"><defs><style>.c{fill:#414042}</style></defs><circle cx="348.12" cy="348.5" r="261.03" fill="#bbdaf3"/><path d="M563.49 348.5a211.09 211.09 0 00-60.17-147.86m-368 147.86a211.09 211.09 0 0160.17-147.86" fill="none" stroke="#414141" stroke-miterlimit="10" stroke-width="3"/><path class="c" d="M235.6 150.94l-8.66 5.84L248 188l-7.16 4.83-21.06-31.23-8.43 5.68-3.77-5.59 24.25-16.34zm57.13 15.37l-7.93 3.28-7.07-17.13-13.23 5.47 7.08 17.12-8 3.29-17-41.07 8-3.29 7.33 17.74 13.23-5.46-7.33-17.74 7.93-3.28zm27.73-26.06l-13.33 2.62 2.49 12.67 16-3.14 1.3 6.59-24.41 4.8-8.56-43.6 24.34-4.79 1.3 6.62-15.9 3.12 2.19 11.14 13.33-2.61zm35.17 17.19l4.37-44.21 13.64 1.35a14.62 14.62 0 0110.94 6.31q4 5.63 3.21 13.73l-.73 7.32q-.81 8.15-5.84 12.84a14.66 14.66 0 01-12 4zm12.27-36.65l-3 30.82 5.07.5a6.12 6.12 0 005.67-2.75 15.94 15.94 0 002.88-8.27l.73-7.38a15.78 15.78 0 00-1.25-8.61 6.13 6.13 0 00-5-3.81zM403 165l-8.31-2.14 11.1-43 8.31 2.14zm38.45-5.49l-13-5.41-7.13 17.16-7.95-3.3 17-41 23.45 9.74-2.59 6.23-15.5-6.44L431 147.9l13 5.41zm31.95 18.95l-11.86-7.63-10.05 15.63-7.24-4.66 24-37.37 21.35 13.74-3.6 5.67-14.11-9.08-6.71 10.42 11.82 7.63zM136 409.63l-1.35-5.12h-4.74l-1.09-4.13 22 .39 1.09 4.1L133 416.11l-1.1-4.11zm2-5.13l.92 3.49 6.05-3.42v-.09zm7.78 24.72l-7.11 2.86-1.53-3.8 19.64-7.9 2.64 6.57a6.83 6.83 0 01.15 5.38 6.64 6.64 0 01-3.85 3.55 6.57 6.57 0 01-5.23.1 6.82 6.82 0 01-3.6-4zm3-1.19l1.11 2.76a2.44 2.44 0 001.7 1.58 4.15 4.15 0 002.6-.27 4.34 4.34 0 002.11-1.62 2.43 2.43 0 00.16-2.33l-1.11-2.77zm9.31 27.88a7.86 7.86 0 01-6.16.76 8.56 8.56 0 01-5.07-10 7.88 7.88 0 014.25-4.51l5.26-2.67a7.93 7.93 0 016.15-.79 7.54 7.54 0 014.42 4 7.62 7.62 0 01.65 6 7.89 7.89 0 01-4.24 4.53zm3.45-6.34a5.46 5.46 0 002.68-2.41 3.26 3.26 0 00-.17-3 3.17 3.17 0 00-2.27-1.87 5.7 5.7 0 00-3.52.78l-5.3 2.69a5.78 5.78 0 00-2.74 2.41 3.19 3.19 0 00.17 2.94 3.23 3.23 0 002.28 1.88 5.62 5.62 0 003.57-.77zM153.93 464l18-11.21 3.46 5.54a7 7 0 01.79 6 9.3 9.3 0 01-4.24 5.21l-3 1.85a9.22 9.22 0 01-6.54 1.53 7 7 0 01-5-3.34zm17.4-6l-12.51 7.81 1.28 2.06a2.91 2.91 0 002.69 1.34 7.51 7.51 0 004-1.32l3-1.87a7.43 7.43 0 002.9-3 2.9 2.9 0 000-3zm6.67 29.47l-.06.07a6.52 6.52 0 01-5.12 1.66 7.16 7.16 0 01-4.42-3.09 7.3 7.3 0 01-1.64-5.55 7.78 7.78 0 013.38-5l5-3.76a8 8 0 015.75-1.88 6.94 6.94 0 014.77 3 7.66 7.66 0 011.84 5.29 6.37 6.37 0 01-3 4.49h-.09l-2.41-3.21a4.34 4.34 0 001.86-2.28 3.11 3.11 0 00-.79-2.41 2.64 2.64 0 00-2.28-1.19 6 6 0 00-3.19 1.43l-5 3.77a5.72 5.72 0 00-2.25 2.72 2.93 2.93 0 00.61 2.67 2.69 2.69 0 002 1.27 4.58 4.58 0 002.7-1.18zm7.56 11.78l-3.51-4-4.22 2.15-2.83-3.2 19.82-9.54 2.82 3.17-11.86 18.57-2.85-3.2zm-.54-5.46l2.39 2.69 3.86-5.77-.05-.06zm14.18 17.99a2.91 2.91 0 00.92-1.89 6.49 6.49 0 00-.69-2.64 14.85 14.85 0 01-1.74-5.27 5.17 5.17 0 011.63-4.07 5.37 5.37 0 014.29-1.77 7.89 7.89 0 017 6.82 5.9 5.9 0 01-1.93 4.63l-.08.05-2.88-2.76a3.72 3.72 0 001.2-2.31 2.61 2.61 0 00-.93-2.06 2.26 2.26 0 00-1.86-.71 3 3 0 00-1.82.95 2.38 2.38 0 00-.69 1.8 10.33 10.33 0 00.78 2.86 11.78 11.78 0 011.58 5.07 5.57 5.57 0 01-1.76 4.11 5.26 5.26 0 01-4.29 1.81 7.32 7.32 0 01-4.61-2.26 8.12 8.12 0 01-2.56-4.77 5.94 5.94 0 012.05-5.12h.08l2.89 2.76a4.15 4.15 0 00-1.4 2.63 3.06 3.06 0 001.11 2.27 2.57 2.57 0 001.94.85 2.77 2.77 0 001.77-.98zm24.3 4.35l-3.85-3.13-11.36 13.9-3.19-2.6 11.36-13.91-3.75-3.06 2-2.49 10.79 8.81zM236.6 536l-5.6-3.6-4.79 7.45-3.45-2.22 11.46-17.8 10.17 6.55-1.74 2.7-6.72-4.33-3.2 5 5.65 3.63zm7.98 5.05l-4 7.47-3.58-1.94L247 528l5.58 3a7.1 7.1 0 013.59 3.8 5.84 5.84 0 01-.57 4.89 5 5 0 01-4.87 2.79 4.07 4.07 0 011.23 2.74 6.41 6.41 0 01-.88 3.17l-.73 1.35a9.16 9.16 0 00-.7 1.74 2.52 2.52 0 000 1.6l-.14.27-3.74-2a2.43 2.43 0 01.15-1.64 16.65 16.65 0 01.88-1.92l.7-1.3a4 4 0 00.59-2.52 2.24 2.24 0 00-1.26-1.69zm1.51-2.82l1.95 1a2.55 2.55 0 002.15.26 3.34 3.34 0 001.67-1.66 3.73 3.73 0 00.52-2.39 2.39 2.39 0 00-1.34-1.71l-2-1.07zm24.14 15.96a7.79 7.79 0 01-4.23 4.51 8.53 8.53 0 01-10.29-4.44 7.88 7.88 0 01.39-6.19l2.34-5.41a8 8 0 014.23-4.53 7.49 7.49 0 016 .27 7.57 7.57 0 014.32 4.18 7.87 7.87 0 01-.37 6.19zm-1.39-7.08a5.48 5.48 0 00.53-3.57 3.27 3.27 0 00-2-2.16 3.2 3.2 0 00-2.94 0 5.58 5.58 0 00-2.21 2.85l-2.36 5.46a5.78 5.78 0 00-.57 3.6 3.21 3.21 0 002 2.15 3.25 3.25 0 003 0 5.66 5.66 0 002.25-2.88zm13.94 13.66h.08L291.4 547l5.11 1.63-6.42 20.17-3.87-1.24 4-12.7h-.08l-7.69 11.56-2.62-.84.4-13.77h-.09l-4 12.61-3.89-1.24L278.7 543l5.08 1.62zm33.55 4.49l-6.61-1.19-1.57 8.72-4-.73 3.75-20.83 11.9 2.14-.56 3.16-7.87-1.41-1.05 5.8 6.61 1.19zm12.95 5.86l-5.26-.55-1.66 4.43-4.26-.44 8.18-20.43 4.22.44 3.77 21.68-4.27-.45zm-4.09-3.67l3.59.38-1-6.87h-.09zm26.99 2.73v.08a6.53 6.53 0 01-1.85 5.06 7.18 7.18 0 01-5.16 1.58 7.37 7.37 0 01-5.38-2.14 7.75 7.75 0 01-1.87-5.76l.14-6.28a8 8 0 012.07-5.69 6.93 6.93 0 015.29-1.91 7.66 7.66 0 015.29 1.8 6.4 6.4 0 011.69 5.15v.08l-4-.09a4.26 4.26 0 00-.65-2.86 3.07 3.07 0 00-2.39-.87 2.63 2.63 0 00-2.33 1.06 6 6 0 00-.85 3.39l-.14 6.31a5.66 5.66 0 00.75 3.44 2.93 2.93 0 002.47 1.17 2.68 2.68 0 002.21-.76 4.58 4.58 0 00.74-2.85zm14.69-3.48l-6.46.35.33 6.14 7.74-.42.17 3.2-11.83.64-1.14-21.14 11.8-.64.18 3.21-7.71.42.29 5.4 6.46-.35zm6.6 8.84l-2.78-21 6-.79a8.19 8.19 0 015.3.75 5.85 5.85 0 012.08 6.78 4.11 4.11 0 01-1.75 2 3.93 3.93 0 012.84 1.33 5.68 5.68 0 011.27 3 5.83 5.83 0 01-1.15 4.79 7.3 7.3 0 01-4.79 2.21zm2.46-12.65l2.13-.28a2.51 2.51 0 002.33-3.14 2.56 2.56 0 00-3.27-2.53l-1.95.26zm.37 2.81l.81 6.13 3-.4a2.59 2.59 0 001.91-1 3.23 3.23 0 00.38-2.29 3.83 3.83 0 00-.92-2.24 2.43 2.43 0 00-2.05-.61h-.14zm29.08-3.6a7.89 7.89 0 01-.79 6.15 8.54 8.54 0 01-10.94 2.44 7.9 7.9 0 01-3.32-5.23l-1.28-5.76a8 8 0 01.77-6.16 7.52 7.52 0 015-3.28 7.64 7.64 0 015.95.85 7.89 7.89 0 013.33 5.23zm-5.28-4.91a5.56 5.56 0 00-1.68-3.2 3.25 3.25 0 00-2.9-.56 3.18 3.18 0 00-2.37 1.73 5.61 5.61 0 00-.12 3.6l1.29 5.81a5.76 5.76 0 001.66 3.25 3.2 3.2 0 002.89.56 3.25 3.25 0 002.39-1.74 5.68 5.68 0 00.13-3.65zm24.08-.9a7.85 7.85 0 01-.23 6.19 8.55 8.55 0 01-10.68 3.42 7.88 7.88 0 01-3.77-4.9l-1.8-5.62a8 8 0 01.21-6.2 7.46 7.46 0 014.68-3.72 7.6 7.6 0 016 .3 7.9 7.9 0 013.8 4.92zm-5.71-4.42a5.55 5.55 0 00-2-3 3.29 3.29 0 00-2.94-.29 3.2 3.2 0 00-2.21 1.93 5.75 5.75 0 00.21 3.61l1.81 5.66a5.75 5.75 0 001.94 3.09 3.69 3.69 0 005.15-1.65 5.64 5.64 0 00-.19-3.65zm14.36-.41l-1 .43 3.43 8.19-3.78 1.59-8.19-19.52 3.78-1.59 3.36 8 .77-.32.79-9.73 4.7-2-1.89 11.28 10.49 8.07-4.83 2zM465.91 536a7.85 7.85 0 011.08 6.1 8.58 8.58 0 01-9.71 5.6 7.92 7.92 0 01-4.73-4l-2.94-5.11a8 8 0 01-1.11-6.1 7.45 7.45 0 013.79-4.62 7.56 7.56 0 015.92-1 7.92 7.92 0 014.75 4zm-6.51-3.12a5.57 5.57 0 00-2.56-2.55 3.26 3.26 0 00-2.94.33 3.19 3.19 0 00-1.74 2.36 5.69 5.69 0 001 3.48l3 5.15a5.78 5.78 0 002.56 2.61 3.17 3.17 0 002.92-.33 3.24 3.24 0 001.76-2.37 5.68 5.68 0 00-1-3.52zm13.72-1.75l4.39 6.28-3.36 2.35L462 522.41l5.8-4.06A6.83 6.83 0 01473 517a7.36 7.36 0 015.6 8 6.87 6.87 0 01-3.08 4.41zm-1.84-2.63l2.44-1.71a2.41 2.41 0 001.16-2 4.17 4.17 0 00-.85-2.48 4.37 4.37 0 00-2.06-1.69 2.43 2.43 0 00-2.3.38l-2.44 1.7zm20.4-13.67l-5 4.11 3.9 4.75 6-4.92 2 2.47-9.15 7.52L476 512.41l9.13-7.51 2 2.49-6 4.9 3.43 4.18 5-4.11zM513 507.6l-2.94 2.85-14.22-5-.05.08 9.38 9.69-2.9 2.78-14.73-15.21 2.95-2.85 14.23 5v-.07l-9.4-9.7 2.95-2.85zm11.26-21.39a2.91 2.91 0 00-2-.75 6.36 6.36 0 00-2.57.91 14.85 14.85 0 01-5.1 2.18 5.11 5.11 0 01-4.2-1.27 5.37 5.37 0 01-2.13-4.11 7.86 7.86 0 016.19-7.53 6 6 0 014.79 1.52l.05.08-2.5 3.1a3.79 3.79 0 00-2.4-1 2.64 2.64 0 00-2 1.11 2.23 2.23 0 00-.54 1.91 2.88 2.88 0 001.1 1.73 2.33 2.33 0 001.84.53 9.78 9.78 0 002.79-1 11.87 11.87 0 014.91-2 5.59 5.59 0 014.31 1.38 5.29 5.29 0 012.18 4.12 7.29 7.29 0 01-1.86 4.79 8.07 8.07 0 01-4.53 3 5.93 5.93 0 01-5.28-1.59v-.08l2.51-3.12a4.12 4.12 0 002.73 1.17 3 3 0 002.17-1.31 2.52 2.52 0 00.68-2 2.73 2.73 0 00-1.14-1.77zm11.96-20.6a7.83 7.83 0 013.66 5 8.55 8.55 0 01-6.25 9.31 7.93 7.93 0 01-6-1.52l-4.9-3.29a8 8 0 01-3.68-5 8.49 8.49 0 016.26-9.3 7.92 7.92 0 016 1.5zm-7.22.08a5.49 5.49 0 00-3.41-1.17 3.26 3.26 0 00-2.49 1.59 3.18 3.18 0 00-.53 2.89 5.63 5.63 0 002.4 2.69l4.93 3.31a5.76 5.76 0 003.44 1.22 3.7 3.7 0 003-4.49 5.72 5.72 0 00-2.42-2.74zm4.83-23.49l12.17 6.65a7.53 7.53 0 013.94 4.53 8.19 8.19 0 01-5.2 9.44 7.51 7.51 0 01-5.92-.89l-12.12-6.66 2-3.58 12.12 6.66a5.27 5.27 0 003.33.8 3.25 3.25 0 002.38-4.32 5.23 5.23 0 00-2.47-2.38l-12.12-6.66zm14.87-1.99l7.77 3.43-1.66 3.75-19.35-8.54 2.56-5.8a7.18 7.18 0 013.5-3.88 5.9 5.9 0 014.93.2 5.17 5.17 0 012.29 1.84 5.35 5.35 0 01.87 2.79 4.09 4.09 0 012.64-1.44 6.37 6.37 0 013.22.63l1.41.62a8.43 8.43 0 001.78.56 2.47 2.47 0 001.6-.09l.28.13-1.71 3.88a2.39 2.39 0 01-1.65 0 16.67 16.67 0 01-2-.72l-1.36-.6a4.11 4.11 0 00-2.56-.4 2.25 2.25 0 00-1.58 1.4zm-2.93-1.29l.9-2a2.53 2.53 0 00.08-2.16 3.27 3.27 0 00-1.75-1.56 3.66 3.66 0 00-2.43-.32 2.39 2.39 0 00-1.61 1.46l-.9 2.05zM560.43 415h.09a6.51 6.51 0 014.25 3.3 7.2 7.2 0 01-.07 5.4 7.35 7.35 0 01-3.68 4.47 7.8 7.8 0 01-6.06 0l-5.96-1.99a7.93 7.93 0 01-4.78-3.7 6.9 6.9 0 01-.22-5.62 7.66 7.66 0 013.34-4.49 6.37 6.37 0 015.41 0l.07.06-1.3 3.76a4.37 4.37 0 00-2.92-.25 3.11 3.11 0 00-1.56 2 2.6 2.6 0 00.3 2.55 6 6 0 003 1.84l6 2.06a5.78 5.78 0 003.51.34 2.91 2.91 0 001.86-2 2.68 2.68 0 000-2.34 4.61 4.61 0 00-2.5-1.57zm1.17-15.09l-1.6 6.26 5.95 1.54 2-7.5 3.1.8-3 11.47-20.49-5.31 3-11.44 3.11.8-2.03 7.47 5.24 1.35 1.62-6.26zm-215.04 4.61a19.77 19.77 0 00-14.06-5.81 19.83 19.83 0 00-14.11 5.85l-.14.14c-.33.33-.64.68-.94 1a58.66 58.66 0 01-23.92-14.55 59.46 59.46 0 01-9.2-11.89 19.93 19.93 0 00-17.86-28.76 19.83 19.83 0 00-14.11 5.85l-.14.14a19.93 19.93 0 000 28.18 20.23 20.23 0 004.5 3.36v67.77a19.88 19.88 0 00-4.41 3.34l-.14.14a19.92 19.92 0 1028.22 28.12l.14-.14a19.92 19.92 0 00-.05-28.17 20 20 0 00-4.49-3.37v-55.1q1.85 2.13 3.86 4.16a77.76 77.76 0 0033.57 19.86 19.92 19.92 0 0033.14 8.16l.14-.14a19.92 19.92 0 00-.05-28.17zM259.31 369a7 7 0 01.67-1.8 5.92 5.92 0 01.45-.7l.12-.17a7.92 7.92 0 01.6-.7l.14-.14a7.07 7.07 0 0110 10l-.14.14a7.07 7.07 0 01-5 2.08h-.66l-.37-.06h-.28l-.5-.11h-.13a5.62 5.62 0 01-.58-.19 7.18 7.18 0 01-2.27-1.43c-.05-.05-.11-.09-.16-.15a7 7 0 01-1.89-6.77zm12 109.21l-.14.14a7.07 7.07 0 11-10-10l.14-.14a7.07 7.07 0 0110 10zm68.19-58.84v.05a5.2 5.2 0 01-.11.67v.18a4.61 4.61 0 01-.15.53 1.43 1.43 0 01-.08.22 3.85 3.85 0 01-.19.47 2.56 2.56 0 01-.11.24c-.07.15-.15.29-.23.44l-.14.23c-.09.15-.2.29-.3.43l-.14.2c-.16.2-.34.39-.52.58l-.14.14a7.07 7.07 0 01-10-10l.14-.14a7.06 7.06 0 0110 0 6.64 6.64 0 01.56.63 7 7 0 011.47 3.59 7.21 7.21 0 01-.03 1.55z"/><path class="c" d="M436.85 247.72a78.23 78.23 0 00-110.64 0l-46.45 46.44a77.7 77.7 0 00-22.59 48.17 29.56 29.56 0 019.16-1.45 29.58 29.58 0 0110.19 1.8 58.54 58.54 0 0116.87-34.89L311.18 290q26.6 54.84 83.29 83.48l-17.7 17.69a58.7 58.7 0 01-18.69 12.63 29.39 29.39 0 014 14.77 30.7 30.7 0 01-.34 4.51 78 78 0 0028.68-18.28l46.45-46.45a78.33 78.33 0 00-.02-110.63zM404 271.53a6.26 6.26 0 118.84 8.87l-.12.13a6.26 6.26 0 01-8.84-8.88zm-12.4-15.29l.12-.12a6.26 6.26 0 118.87 8.84l-.12.12a6.26 6.26 0 11-8.87-8.84zm7.4 38l-.13.12a6.26 6.26 0 01-8.87-8.86l.12-.12a6.26 6.26 0 018.85 8.87zM377.85 270a6.26 6.26 0 118.84 8.87l-.12.12a6.26 6.26 0 01-8.84-8.87zm-11.62-16.07l.12-.13a6.26 6.26 0 118.87 8.85l-.12.12a6.26 6.26 0 11-8.87-8.84zm-13.86 13.85l.12-.12a6.27 6.27 0 118.89 8.83l-.12.12a6.27 6.27 0 01-8.89-8.83zm-5.24 23a6.27 6.27 0 01-8.89-8.83l.12-.12a6.27 6.27 0 118.89 8.83zm11.46 16.23a6.26 6.26 0 01-8.84-8.87l.12-.12a6.26 6.26 0 118.84 8.87zM371 322.22l-.12.13a6.26 6.26 0 01-8.86-8.86l.13-.12a6.26 6.26 0 018.85 8.85zm1.74-29.43a6.26 6.26 0 01-8.84-8.87l.12-.12a6.26 6.26 0 118.84 8.87zm3.42 6.57l.12-.13a6.26 6.26 0 118.86 8.86l-.13.12a6.26 6.26 0 11-8.85-8.85zm10.28 35.12l-.12.12a6.26 6.26 0 11-8.87-8.84l.12-.12a6.26 6.26 0 118.87 8.84zm3.31-18.43a6.23 6.23 0 011.83-4.42l.12-.12a6.26 6.26 0 118.87 8.84l-.12.12a6.27 6.27 0 01-10.7-4.42zM402.62 346l-.12.12a6.26 6.26 0 01-8.86-8.85l.13-.12a6.26 6.26 0 018.85 8.85zm1-43.77a6.27 6.27 0 011.83-4.43l.13-.12a6.26 6.26 0 118.85 8.86l-.12.12a6.26 6.26 0 01-10.69-4.43zm13.17 29.64l-.12.12a6.26 6.26 0 11-8.85-8.85l.12-.13a6.26 6.26 0 118.85 8.86zm.68-43.49a6.22 6.22 0 011.84-4.43l.12-.12a6.26 6.26 0 118.84 8.87l-.12.12a6.26 6.26 0 01-10.68-4.44zM430.6 318l-.12.12a6.26 6.26 0 01-8.86-8.85l.13-.12a6.26 6.26 0 018.85 8.85z"/></svg>