<svg viewBox="0 0 161 148" xmlns="http://www.w3.org/2000/svg" fill-rule="evenodd" clip-rule="evenodd" stroke-linejoin="round" stroke-miterlimit="1.414"><path d="M38.864 73.864a33.346 33.346 0 00-14.265-8.3c.232.064-3.253-21.963 5.265-22.178 2.264-1.335 34.523 1.75 34.787 8.043a33.154 33.154 0 001.494 8.544 25.424 25.424 0 00-4.131 3.236c-1.029.981-1.133 1.055-1.653 1.503-6.01 5.172-13.586 8.232-21.497 9.152z" fill="#2980b9"/><path d="M86.729 72.575a25.361 25.361 0 004.866 1.96c1.492.439 1.672.516 2.428.787 7.351 2.635 13.693 7.577 18.4 13.84a33.34 33.34 0 00-.08 16.598c-.061-.232-13.8-1.562-13.8-1.562-11.896 1.094-33.129-16.751-18.468-26.057a33.092 33.092 0 006.654-5.566z" fill="#ffbe53"/><path d="M88.387 18.031a33.322 33.322 0 0014.894-8.357c-.17.169 16.876 17.196 16.944 22.971.025 2.629-15.515 23.599-24.728 18.783a33.102 33.102 0 00-8.146-2.978 25.435 25.435 0 00-.737-5.196l-.148-.622c-1.841-8.158-1.146-16.832 1.921-24.601z" fill="#ff6138"/><path d="M80.075 78.141c4.395-2.79 8.2-6.65 10.981-11.468 4.56-7.899 5.52-16.894 3.388-25.082a33.15 33.15 0 01-1.023-8.076 33.183 33.183 0 014.45-16.798l.002-.004.001-.003.016-.028.016-.028a33.164 33.164 0 014.485-6.06l.006-.007.018-.02.064-.069.027-.028.032-.034.046-.048.013-.014.012-.013a33.16 33.16 0 018.13-6.249A33.176 33.176 0 01126.595 0a33.19 33.19 0 0116.871 4.47 33.191 33.191 0 0112.307 12.376 33.172 33.172 0 014.367 15.79 33.186 33.186 0 01-1.347 10.163l-.005.018-.006.018-.018.064-.014.045-.01.036-.028.09-.008.027-.003.008a33.165 33.165 0 01-3.006 6.914l-.016.027-.016.028-.002.003-.003.005a33.187 33.187 0 01-12.341 12.263 33.144 33.144 0 01-7.487 3.14c-8.156 2.25-15.468 7.577-20.028 15.476-4.507 7.807-5.496 16.687-3.46 24.799a27.513 27.513 0 00-.192-.696l-.024-.084-.01-.034-.004-.014-.006-.02a33.137 33.137 0 00-3.122-7.298l-.016-.027-.019-.034A33.187 33.187 0 0096.45 85.198a33.143 33.143 0 00-7.328-3.05 33.49 33.49 0 01-9.046-4.007z" fill="#ffbe53"/><path d="M64.652 51.428a33.2 33.2 0 004.44 15.244c4.56 7.899 11.872 13.227 20.029 15.476a33.177 33.177 0 017.505 3.152 33.184 33.184 0 0112.323 12.252l.02.035.016.027a33.165 33.165 0 013.006 6.914l.003.008.008.027.027.09.011.036.014.045.019.064.005.018.006.018a33.186 33.186 0 011.347 10.164 33.172 33.172 0 01-4.368 15.789 33.191 33.191 0 01-12.307 12.377 33.19 33.19 0 01-16.87 4.47 33.176 33.176 0 01-15.858-4.113 33.16 33.16 0 01-8.13-6.249l-.012-.013-.013-.013-.046-.05-.032-.033-.026-.028-.064-.069-.019-.02-.006-.007a33.164 33.164 0 01-4.484-6.06l-.016-.027-.016-.028-.002-.004-.003-.004a33.194 33.194 0 01-4.449-16.82c.01-2.689.347-5.393 1.024-8.054 2.13-8.187 1.172-17.183-3.389-25.082-4.507-7.807-11.703-13.104-19.745-15.396.231.063.463.124.698.182l.084.021.034.008.014.004.021.005c2.606.636 5.252.946 7.88.945h.074a33.196 33.196 0 0016.949-4.649 33.154 33.154 0 006.305-4.82 33.509 33.509 0 017.994-5.832z" fill="#2980b9"/><path d="M95.497 51.427a33.196 33.196 0 00-15.422-3.775c-9.12 0-17.39 3.667-23.416 9.607a33.135 33.135 0 01-6.482 4.924 33.18 33.18 0 01-16.772 4.545h-.073c-2.498 0-5.011-.279-7.49-.853l-.009-.002-.027-.006-.091-.021-.037-.01-.046-.01-.065-.015-.018-.005-.018-.004a33.163 33.163 0 01-9.476-3.916A33.18 33.18 0 014.565 50.21 33.19 33.19 0 010 33.364a33.177 33.177 0 014.565-16.846A33.177 33.177 0 0116.055 4.84 33.143 33.143 0 0125.53.926l.02-.006.018-.004.065-.016.046-.01.037-.01.091-.02.027-.007.009-.002A33.167 33.167 0 0133.332 0h.074a33.195 33.195 0 0116.79 4.557 33.123 33.123 0 016.463 4.913c6.026 5.939 14.296 9.606 23.416 9.606 9.016 0 17.2-3.583 23.207-9.402-.17.17-.34.34-.507.514l-.06.063-.025.025-.01.01-.014.016a33.173 33.173 0 00-4.76 6.352l-.016.028-.02.034a33.18 33.18 0 00-4.448 17.004c.025 2.628.36 5.27 1.022 7.87a33.496 33.496 0 011.053 9.838z" fill="#ff6138"/><path d="M38.864 73.864a33.346 33.346 0 00-14.265-8.3c.232.064.464.124.698.182l.085.021.048.012.02.005c2.606.636 5.252.947 7.882.946h.071a33.19 33.19 0 0016.95-4.649 33.222 33.222 0 006.305-4.821 33.496 33.496 0 017.993-5.831 33.154 33.154 0 001.494 8.544 25.424 25.424 0 00-4.131 3.236c-1.029.981-1.133 1.055-1.653 1.503-6.01 5.172-13.586 8.232-21.497 9.152zm49.523-55.833a33.322 33.322 0 0014.894-8.357c-.17.169-.339.34-.506.513l-.061.063-.024.026-.01.01-.014.015a33.177 33.177 0 00-4.76 6.353l-.016.028-.02.033a33.192 33.192 0 00-4.448 17.004 33.12 33.12 0 001.022 7.871 33.527 33.527 0 011.053 9.838 33.102 33.102 0 00-8.146-2.978 25.435 25.435 0 00-.737-5.196l-.148-.622c-1.841-8.158-1.146-16.832 1.921-24.601zm-1.658 54.544a25.361 25.361 0 004.866 1.96c1.492.439 1.672.516 2.428.787 7.351 2.635 13.693 7.577 18.4 13.84a33.34 33.34 0 00-.08 16.598 34.047 34.047 0 00-.191-.695l-.024-.084-.01-.034-.004-.014-.006-.02a33.154 33.154 0 00-3.122-7.298l-.016-.028-.02-.034a33.178 33.178 0 00-12.501-12.354 33.136 33.136 0 00-7.327-3.05 33.485 33.485 0 01-9.047-4.008 33.092 33.092 0 006.654-5.566z" fill-opacity=".078"/></svg>