<svg width="250" height="250" viewBox="0 0 250 250" xmlns="http://www.w3.org/2000/svg" xmlns:xlink="http://www.w3.org/1999/xlink" style="background:#2e3440"><defs><path d="M10.977 29c.855 0 1.573.29 2.153.87.58.58.87 1.283.87 2.107 0 .855-.29 1.573-.87 2.153-.58.58-1.298.87-2.153.87s-1.565-.29-2.13-.87C8.282 33.55 8 32.832 8 31.977c0-.824.282-1.527.847-2.107.565-.58 1.275-.87 2.13-.87z" id="b"/><path d="M114 42.938c0-1.358.476-2.52 1.429-3.487.952-.967 2.132-1.451 3.54-1.451 1.45 0 2.65.484 3.602 1.45.953.968 1.429 2.13 1.429 3.488 0 1.4-.476 2.593-1.429 3.58-.952.988-2.153 1.482-3.602 1.482-1.408 0-2.588-.494-3.54-1.481-.953-.988-1.429-2.182-1.429-3.58z" id="h"/><path id="c" d="M57 40H32v-5h25z"/><path id="d" d="M57 29H32v-5h25z"/><path d="M89 4.412c-5.84 0-8.585 1.755-8.234 5.267l1.318 13.498c.044.395.066.966.066 1.712 0 2.107-.505 3.72-1.515 4.84-1.01 1.119-2.57 1.876-4.677 2.271 2.152.395 3.722 1.13 4.71 2.206.988 1.075 1.482 2.688 1.482 4.84 0 .745-.022 1.338-.066 1.777l-1.318 13.498c-.175 1.931.483 3.292 1.977 4.082 1.493.79 3.578 1.185 6.257 1.185V64c-3.952 0-7.18-.68-9.683-2.041-2.503-1.36-3.754-3.665-3.754-6.914 0-.57.022-1.01.066-1.317l1.383-12.51c.044-.307.066-.746.066-1.317 0-1.931-.725-3.358-2.174-4.28C73.455 34.7 70.82 34.24 67 34.24v-4.48c3.82 0 6.455-.45 7.904-1.35 1.45-.9 2.174-2.315 2.174-4.246 0-.527-.022-.944-.066-1.251l-1.383-12.642c-.044-.308-.066-.747-.066-1.317 0-3.249 1.251-5.553 3.754-6.914C81.82.681 85.047 0 89 0v4.412z" id="e"/><path d="M94 42.938c0-1.358.476-2.52 1.429-3.487.952-.967 2.132-1.451 3.54-1.451 1.45 0 2.65.484 3.602 1.45.953.968 1.429 2.13 1.429 3.488 0 1.4-.476 2.593-1.429 3.58-.952.988-2.153 1.482-3.602 1.482-1.408 0-2.588-.494-3.54-1.481-.953-.988-1.429-2.182-1.429-3.58z" id="f"/><path d="M94 21c0-1.358.476-2.53 1.429-3.519.952-.987 2.132-1.481 3.54-1.481 1.45 0 2.65.484 3.602 1.45.953.968 1.429 2.15 1.429 3.55 0 1.44-.476 2.634-1.429 3.58-.952.947-2.153 1.42-3.602 1.42-1.408 0-2.588-.473-3.54-1.42C94.476 23.634 94 22.44 94 21z" id="g"/><path d="M11 15c3.585 0 6.315 1.458 8.189 4.376C21.063 22.293 22 26.493 22 31.976c0 5.515-.937 9.731-2.811 12.648C17.315 47.542 14.585 49 11 49s-6.315-1.458-8.189-4.376C.937 41.707 0 37.491 0 31.976c0-5.483.937-9.683 2.811-12.6C4.685 16.458 7.415 15 11 15zm0 4c-4.667 0-7 4.326-7 12.977C4 40.66 6.333 45 11 45s7-4.34 7-13.023C18 23.326 15.667 19 11 19z" id="a"/><path d="M114 21c0-1.358.476-2.53 1.429-3.519.952-.987 2.132-1.481 3.54-1.481 1.45 0 2.65.484 3.602 1.45.953.968 1.429 2.15 1.429 3.55 0 1.44-.476 2.634-1.429 3.58-.952.947-2.153 1.42-3.602 1.42-1.408 0-2.588-.473-3.54-1.42-.953-.946-1.429-2.14-1.429-3.58z" id="i"/><path d="M134 42.938c0-1.358.476-2.52 1.429-3.487.952-.967 2.132-1.451 3.54-1.451 1.45 0 2.65.484 3.602 1.45.953.968 1.429 2.13 1.429 3.488 0 1.4-.476 2.593-1.429 3.58-.952.988-2.153 1.482-3.602 1.482-1.408 0-2.588-.494-3.54-1.481-.953-.988-1.429-2.182-1.429-3.58z" id="j"/><path d="M134 21c0-1.358.476-2.53 1.429-3.519.952-.987 2.132-1.481 3.54-1.481 1.45 0 2.65.484 3.602 1.45.953.968 1.429 2.15 1.429 3.55 0 1.44-.476 2.634-1.429 3.58-.952.947-2.153 1.42-3.602 1.42-1.408 0-2.588-.473-3.54-1.42-.953-.946-1.429-2.14-1.429-3.58z" id="k"/><path d="M154 42.938c0-1.358.476-2.52 1.429-3.487.952-.967 2.132-1.451 3.54-1.451 1.45 0 2.65.484 3.602 1.45.953.968 1.429 2.13 1.429 3.488 0 1.4-.476 2.593-1.429 3.58-.952.988-2.153 1.482-3.602 1.482-1.408 0-2.588-.494-3.54-1.481-.953-.988-1.429-2.182-1.429-3.58z" id="l"/><path d="M154 21c0-1.358.476-2.53 1.429-3.519.952-.987 2.132-1.481 3.54-1.481 1.45 0 2.65.484 3.602 1.45.953.968 1.429 2.15 1.429 3.55 0 1.44-.476 2.634-1.429 3.58-.952.947-2.153 1.42-3.602 1.42-1.408 0-2.588-.473-3.54-1.42-.953-.946-1.429-2.14-1.429-3.58z" id="m"/><path id="n" d="M198 29.576v4.905L176.541 48 174 44.463l19.934-12.434L174 19.65l2.315-3.65z"/></defs><g fill="none" fill-rule="evenodd"><g transform="rotate(90 65.5 91.5)"><use fill="#4D566A" xlink:href="#a"/><use fill="#8FBCBB" xlink:href="#a"/></g><g transform="rotate(90 65.5 91.5)"><use fill="#4D566A" xlink:href="#b"/><use fill="#8FBCBB" xlink:href="#b"/></g><g transform="rotate(90 65.5 91.5)"><use fill="#4D566A" xlink:href="#c"/><use fill="#8FBCBB" xlink:href="#c"/></g><g transform="rotate(90 65.5 91.5)"><use fill="#4D566A" xlink:href="#d"/><use fill="#8FBCBB" xlink:href="#d"/></g><g transform="rotate(90 65.5 91.5)"><use fill="#4D566A" xlink:href="#e"/><use fill="#8FBCBB" xlink:href="#e"/></g><g transform="rotate(90 65.5 91.5)"><use fill="#4D566A" xlink:href="#f"/><use fill="#8FBCBB" xlink:href="#f"/></g><g transform="rotate(90 65.5 91.5)"><use fill="#4D566A" xlink:href="#g"/><use fill="#8FBCBB" xlink:href="#g"/></g><g transform="rotate(90 65.5 91.5)"><use fill="#4D566A" xlink:href="#h"/><use fill="#8FBCBB" xlink:href="#h"/></g><g transform="rotate(90 65.5 91.5)"><use fill="#4D566A" xlink:href="#i"/><use fill="#8FBCBB" xlink:href="#i"/></g><g transform="rotate(90 65.5 91.5)"><use fill="#4D566A" xlink:href="#j"/><use fill="#8FBCBB" xlink:href="#j"/></g><g transform="rotate(90 65.5 91.5)"><use fill="#4D566A" xlink:href="#k"/><use fill="#8FBCBB" xlink:href="#k"/></g><g transform="rotate(90 65.5 91.5)"><use fill="#4D566A" xlink:href="#l"/><use fill="#8FBCBB" xlink:href="#l"/></g><g transform="rotate(90 65.5 91.5)"><use fill="#4D566A" xlink:href="#m"/><use fill="#8FBCBB" xlink:href="#m"/></g><g transform="rotate(90 65.5 91.5)"><use fill="#4D566A" xlink:href="#n"/><use fill="#8FBCBB" xlink:href="#n"/></g></g></svg>