<svg id="a11dcf94-02e4-448c-aa1e-cfae5c49b9a0" data-name="Layer 1" xmlns="http://www.w3.org/2000/svg" width="1137" height="776.59021" viewBox="0 0 1137 776.59021"><title>around the world</title><path d="M1166.12391,499.639c-5.07857,43.50989-15.63075,78.44306-30.1148,106.30283-19.27353,37.12073-52.24082,52.0769-81.69069,67.727a186.25463,186.25463,0,0,1-26.46244,11.50627C974.26605,703.774,914.287,698.84,867.17306,689.02014a633.41922,633.41922,0,0,0-100.30882-12.682q-14.42616-.65042-28.88127-.64565c-14.85989.0193-282.42383,5.09782-347.5682-126.79054-16.08371-32.53363-27.10814-72.27552-31.06883-120.71941C348.13841,291.22527,409.73642,201.276,489.19132,142.48227,639.49552,31.26473,845.51928,35.92887,993.607,150.076,1092.24866,226.1099,1184.60711,341.18214,1166.12391,499.639Z" transform="translate(-31.5 -61.7049)" fill="#3f3d56"/><path d="M973.1596,376.40167c-41.6969-31.172-107.00463-60.6524-179.17724-80.88119-65.71334-18.41881-129.808-27.31147-180.49087-25.04056l-.26388-5.89406c51.28671-2.29684,116.04622,6.67043,182.34724,25.25373,72.84556,20.41749,138.86081,50.24589,181.11773,81.83674Z" transform="translate(-31.5 -61.7049)" fill="#f2f2f2"/><path d="M968.831,400.41206A196.3374,196.3374,0,0,1,951.83946,480.573q-1.40714,3.16823-2.93223,6.27742A197.06862,197.06862,0,0,1,771.77678,597.46623c-108.8282,0-197.05417-88.226-197.05417-197.05417q0-6.84088.46607-13.57551.22124-3.42485.5723-6.80838c10.20079-99.25279,94.07273-176.67029,196.0158-176.67029C880.605,203.35788,968.831,291.58386,968.831,400.41206Z" transform="translate(-31.5 -61.7049)" fill="#38d39f"/><path d="M951.83946,480.573q-1.40714,3.16823-2.93223,6.27742-8.63736.93807-18.18327,1.36286c-5.26854.236-10.69048.354-16.23039.354-48.39038,0-106.62757-8.93235-166.12139-25.60526-66.30224-18.58445-126.28576-44.57908-168.90613-73.1991q-2.177-1.46023-4.27737-2.92633.22124-3.42485.5723-6.80838,3.38946,2.416,6.99128,4.83782c42.11886,28.27786,101.50062,53.99522,167.21288,72.41449,58.97463,16.53129,116.66314,25.38693,164.4989,25.38693q8.20372,0,15.99446-.3481Q941.80387,481.80606,951.83946,480.573Z" transform="translate(-31.5 -61.7049)" opacity="0.1"/><path d="M914.49436,483.84849c-48.38894.00116-106.62955-8.93212-166.1207-25.60662C682.07206,439.65857,622.086,413.663,579.46522,385.0437c-43.51034-29.21652-63.91314-58.00525-57.45041-81.063,6.46244-23.05771,38.85588-37.04848,91.2128-39.39487l.26388,5.89406c-24.45,1.09556-44.37573,4.72966-59.22353,10.80118-14.81179,6.05654-23.752,14.22958-26.57226,24.29213-2.82028,10.06225.56981,21.69107,10.07579,34.56381,9.52931,12.90385,24.66375,26.36456,44.98271,40.00848,42.114,28.27912,101.49774,53.99694,167.212,72.41546,58.97607,16.52988,116.65954,25.38769,164.4994,25.38884q8.199,0,15.99118-.34857c24.45028-1.09585,44.376-4.72966,59.22411-10.80118,14.81179-6.05654,23.752-14.22929,26.57226-24.29184,5.06382-18.06821-10.24-41.54537-43.0935-66.10656l3.533-4.72505c16.90611,12.63911,29.42077,25.09759,37.19656,37.02861,8.3358,12.79121,11.04258,24.70033,8.04485,35.39549-6.46273,23.05772-38.85646,37.04791-91.2128,39.39459C925.45283,483.73153,920.03409,483.84849,914.49436,483.84849Z" transform="translate(-31.5 -61.7049)" fill="#f2f2f2"/><circle cx="745.48964" cy="103.85603" r="2.25805" fill="#f2f2f2"/><circle cx="445.92198" cy="200.21356" r="2.25805" fill="#f2f2f2"/><circle cx="437.64247" cy="352.25544" r="2.25805" fill="#f2f2f2"/><circle cx="898.28421" cy="117.40431" r="1.50537" fill="#f2f2f2"/><circle cx="1079.68071" cy="329.67497" r="1.50537" fill="#f2f2f2"/><circle cx="996.88562" cy="260.42817" r="1.50537" fill="#f2f2f2"/><circle cx="582.15753" cy="151.27503" r="1.50537" fill="#f2f2f2"/><circle cx="991.61685" cy="309.35254" r="1.50537" fill="#f2f2f2"/><circle cx="455.70685" cy="460.64174" r="1.50537" fill="#f2f2f2"/><circle cx="545.27608" cy="522.36171" r="1.50537" fill="#f2f2f2"/><polygon points="675.49 40.826 673.413 40.826 673.413 38.749 672.299 38.749 672.299 40.826 670.221 40.826 670.221 41.941 672.299 41.941 672.299 44.018 673.413 44.018 673.413 41.941 675.49 41.941 675.49 40.826" fill="#f2f2f2"/><polygon points="899.79 552.65 897.712 552.65 897.712 550.573 896.598 550.573 896.598 552.65 894.521 552.65 894.521 553.765 896.598 553.765 896.598 555.842 897.712 555.842 897.712 553.765 899.79 553.765 899.79 552.65" fill="#f2f2f2"/><polygon points="1039.036 521.79 1036.959 521.79 1036.959 519.713 1035.844 519.713 1035.844 521.79 1033.767 521.79 1033.767 522.905 1035.844 522.905 1035.844 524.982 1036.959 524.982 1036.959 522.905 1039.036 522.905 1039.036 521.79" fill="#f2f2f2"/><circle cx="743.2316" cy="184.40723" r="16.55902" fill="#3f3d56"/><circle cx="616.02824" cy="305.58912" r="16.55902" fill="#3f3d56"/><circle cx="798.93011" cy="471.93197" r="16.55902" fill="#3f3d56"/><circle cx="743.2316" cy="331.18033" r="16.55902" fill="#3f3d56"/><circle cx="624.30775" cy="422.25492" r="16.55902" fill="#3f3d56"/><circle cx="832.04814" cy="242.36379" r="16.55902" fill="#3f3d56"/><circle cx="886.99397" cy="354.51349" r="16.55902" fill="#3f3d56"/><circle cx="743.2316" cy="258.92281" r="21.82779" fill="#fff"/><path d="M774.7316,289.015a30.86,30.86,0,0,0-30.86,30.86c0,17.0435,30.86,73.01021,30.86,73.01021s30.86-55.96671,30.86-73.01021A30.86,30.86,0,0,0,774.7316,289.015Zm0,45.91364a14.301,14.301,0,1,1,14.301-14.301A14.301,14.301,0,0,1,774.7316,334.92867Z" transform="translate(-31.5 -61.7049)" fill="#ff6584"/><circle cx="624.30775" cy="352.25544" r="21.82779" fill="#fff"/><path d="M655.80775,382.34767a30.86,30.86,0,0,0-30.86,30.86c0,17.0435,30.86,73.01021,30.86,73.01021s30.86-55.96671,30.86-73.01021A30.86,30.86,0,0,0,655.80775,382.34767Zm0,45.91364a14.301,14.301,0,1,1,14.301-14.301A14.301,14.301,0,0,1,655.80775,428.26131Z" transform="translate(-31.5 -61.7049)" fill="#ff6584"/><circle cx="886.99397" cy="284.51401" r="21.82779" fill="#fff"/><path d="M918.494,314.60624a30.86,30.86,0,0,0-30.86,30.86c0,17.0435,30.86,73.01021,30.86,73.01021s30.86-55.96671,30.86-73.01021A30.86,30.86,0,0,0,918.494,314.60624Zm0,45.91364a14.301,14.301,0,1,1,14.301-14.301A14.301,14.301,0,0,1,918.494,360.51988Z" transform="translate(-31.5 -61.7049)" fill="#ff6584"/><circle cx="743.2316" cy="112.1497" r="21.82779" fill="#fff"/><path d="M774.7316,142.24193a30.86,30.86,0,0,0-30.86,30.86c0,17.0435,30.86,73.01021,30.86,73.01021s30.86-55.96671,30.86-73.01021A30.86,30.86,0,0,0,774.7316,142.24193Zm0,45.91364a14.301,14.301,0,1,1,14.301-14.301A14.301,14.301,0,0,1,774.7316,188.15557Z" transform="translate(-31.5 -61.7049)" fill="#ff6584"/><circle cx="798.93011" cy="401.93249" r="21.82779" fill="#fff"/><path d="M830.43011,432.02472a30.86,30.86,0,0,0-30.86,30.86c0,17.0435,30.86,73.01021,30.86,73.01021s30.86-55.96671,30.86-73.01021A30.86,30.86,0,0,0,830.43011,432.02472Zm0,45.91364a14.301,14.301,0,1,1,14.301-14.301A14.301,14.301,0,0,1,830.43011,477.93836Z" transform="translate(-31.5 -61.7049)" fill="#ff6584"/><circle cx="616.02824" cy="234.08428" r="21.82779" fill="#fff"/><path d="M647.52824,264.17651a30.86,30.86,0,0,0-30.86,30.86c0,17.0435,30.86,73.0102,30.86,73.0102s30.86-55.9667,30.86-73.0102A30.86,30.86,0,0,0,647.52824,264.17651Zm0,45.91364a14.301,14.301,0,1,1,14.301-14.301A14.301,14.301,0,0,1,647.52824,310.09015Z" transform="translate(-31.5 -61.7049)" fill="#ff6584"/><circle cx="832.04814" cy="173.11699" r="21.82779" fill="#fff"/><path d="M863.54814,203.20922a30.86,30.86,0,0,0-30.86,30.86c0,17.0435,30.86,73.01021,30.86,73.01021s30.86-55.96671,30.86-73.01021A30.86,30.86,0,0,0,863.54814,203.20922Zm0,45.91364a14.301,14.301,0,1,1,14.301-14.301A14.301,14.301,0,0,1,863.54814,249.12286Z" transform="translate(-31.5 -61.7049)" fill="#ff6584"/><path d="M446.5,818.92034c0,10.70039-92.90091,19.37476-207.5,19.37476S31.5,829.62073,31.5,818.92034s85.4138-34.71311,200.01289-34.71311S446.5,808.22,446.5,818.92034Z" transform="translate(-31.5 -61.7049)" fill="#3f3d56"/><rect x="137.38901" y="128.48212" width="81.44248" height="67.40067" fill="#2f2e41"/><polygon points="277.255 692.495 284.285 719.443 265.538 722.372 256.751 694.252 277.255 692.495" fill="#a0616a"/><polygon points="144.27 688.394 144.27 717.1 124.352 717.1 127.281 688.394 144.27 688.394" fill="#a0616a"/><path d="M293.52308,778.80475s14.06-6.44419,22.26173,0,12.30253,21.09006,12.30253,21.09006,21.09007,26.94841-3.515,25.77674-25.77674-4.10085-25.77674-8.20169,1.17167-8.78753-2.92917-10.545-5.85835-9.9592-4.68668-12.30254S293.52308,778.80475,293.52308,778.80475Z" transform="translate(-31.5 -61.7049)" fill="#2f2e41"/><path d="M179.28524,774.11807s-19.33256-12.36712-23.4334-2.66855-9.9592,22.0011-9.9592,22.0011-16.40338,25.77674,4.10085,26.36258,24.01923-2.34334,25.77674-7.61586,0-9.37336,3.515-9.37336,5.27252-7.61585,3.515-11.13086S179.28524,774.11807,179.28524,774.11807Z" transform="translate(-31.5 -61.7049)" fill="#2f2e41"/><path d="M234.93957,229.8773s-4.68668,26.36258,7.61586,28.12008,24.60507,7.03,25.1909,10.545-48.03847,41.00845-48.03847,41.00845l-29.87759-9.37336s-29.87759-7.61586-28.70592-13.47421,3.515-14.06,3.515-14.06,33.97844-7.03,34.56427-17.57505,4.68668-27.53425,4.68668-27.53425Z" transform="translate(-31.5 -61.7049)" fill="#a0616a"/><path d="M234.93957,229.8773s-4.68668,26.36258,7.61586,28.12008,24.60507,7.03,25.1909,10.545-48.03847,41.00845-48.03847,41.00845l-29.87759-9.37336s-29.87759-7.61586-28.70592-13.47421,3.515-14.06,3.515-14.06,33.97844-7.03,34.56427-17.57505,4.68668-27.53425,4.68668-27.53425Z" transform="translate(-31.5 -61.7049)" opacity="0.1"/><path d="M157.60934,395.08279s21.21954,20.26435,63.33493,18.33387S259.54464,426.132,259.54464,426.132l-1.7575,23.43341s22.26173,97.83445,19.33255,149.38793c0,0,1.17167,24.60508,9.37337,38.07928s30.46342,113.06617,26.94841,120.682-29.29176,4.68668-29.29176,4.68668-24.01923-90.80443-35.73593-111.30866-12.88837-32.22092-12.88837-32.22092L195.68862,502.87644l-5.27251,50.38181s.58583,39.83678.58583,43.35179-.58583,31.6351-2.92917,37.49345-11.13087,99.592-5.85835,115.4095-27.53425,7.03-27.53425,7.03-9.9592-101.9353-7.03-121.85369-4.68668-55.65433-4.68668-55.65433-22.26173-108.96532-9.9592-126.54037c0,0,8.20169-59.75517,12.30254-59.16934Z" transform="translate(-31.5 -61.7049)" fill="#2f2e41"/><circle cx="186.74327" cy="148.54693" r="32.22093" fill="#a0616a"/><path d="M135.93345,413.82951c.59756,1.79269,7.58657-1.8981,14.30021-5.94624,6.45592-3.89,12.6482-8.1138,12.6482-8.1138,7.03,22.26173,51.55348,13.4742,51.55348,13.4742s.11131.15819.31634.43938c1.47045,1.99765,7.81506,10.32827,15.50121,15.964,8.78753,6.44419,29.29175-8.78752,29.29175-8.78752S291.42578,344.5076,295.5032,304.0616c.89631-8.89887.45107-16.06363-1.98012-20.28747-13.47421-23.43341-32.43182-20.48077-32.43182-20.48077-3.146,8.23094-28.495,20.48077-28.495,20.48077l-25.19091,4.68668c-25.1909,4.68668-32.80676-21.6759-32.80676-21.6759-7.03-1.17167-19.91839,11.7167-19.91839,11.7167-12.30254,3.515-18.74672,44.52347-18.74672,44.52347s1.22441,1.52315,3.1342,3.95438c1.078,1.365,2.37266,3.017,3.79037,4.85073.49208.63268.99593,1.28881,1.51147,1.95667,6.49689,8.47115,14.70444,19.60788,16.75486,24.38832,3.515,8.20169-3.515,20.50423-11.7167,19.91839S134.76178,410.3145,135.93345,413.82951Z" transform="translate(-31.5 -61.7049)" fill="#38d39f"/><path d="M218.53619,445.4646s-27.53425,34.56427-39.83678,22.26173,35.73593-41.00845,35.73593-41.00845Z" transform="translate(-31.5 -61.7049)" fill="#a0616a"/><path d="M148.82182,434.91957s24.01923,36.32177,10.545,37.49344-29.87759-24.01923-29.87759-24.01923Z" transform="translate(-31.5 -61.7049)" fill="#a0616a"/><path d="M145.48412,261.13566c3.09041-6.81934,7.24342-13.21912,9.22244-20.43972,2.372-8.65451,1.44828-17.81147,1.16609-26.78078-.24947-7.92873.02889-15.94971,2.00748-23.63168s5.76341-15.05407,11.68116-20.33681c15.09129-13.472,42.71053-14.43938,61.13806-8.83108,7.26469,2.211,15.00344,6.42137,16.80478,13.79834.27193,1.11371.39389,2.26132.69754,3.36676,1.50871,5.49246,7.1276,8.96778,9.15492,14.29064,2.62217,6.88474-1.421,14.37173-1.94955,21.71991-.617,8.57893,3.60022,16.68364,7.757,24.21354,2.4711,4.47636,5.04042,9.24478,4.79517,14.352a18.13218,18.13218,0,0,1-2.48126,7.9112c-4.98485,8.88093-15.16184,14.25885-25.34258,14.527-3.30537.0871-6.76929-.36587-9.49265-2.24108-4.49717-3.09666-5.81433-9.33224-4.87747-14.71146s3.66744-10.24446,5.80686-15.268c.65652-1.54154,1.249-3.10925,1.79519-4.69269a32.22421,32.22421,0,1,0-21.25619,3.60554,43.65116,43.65116,0,0,1-2.11385,24.27183c-2.48208,6.3781-6.35319,12.10487-10.192,17.771-1.8351,2.70863-3.74471,5.49149-6.49306,7.26652a23.04025,23.04025,0,0,1-5.53129,2.36229c-8.134,2.61595-16.69937,4.72086-25.16219,3.544s-16.84412-6.28113-19.72785-14.32406C140.364,275.83131,142.39372,267.955,145.48412,261.13566Z" transform="translate(-31.5 -61.7049)" fill="#2f2e41"/><ellipse cx="184.39993" cy="128.62854" rx="35.1501" ry="19.91839" fill="#2f2e41"/><path d="M214.75168,413.68305c1.47045,1.99765,7.81506,10.32827,15.50121,15.964,8.78753,6.44419,29.29175-8.78752,29.29175-8.78752S291.42578,344.5076,295.5032,304.0616A180.944,180.944,0,0,0,287.66473,284.36l6.7371,27.24133s-30.17051,24.31216-36.61469,34.27135-.58584,43.3518,0,48.62431-11.7167,7.03-17.57505,6.44419-7.03,4.68668-12.30254,4.68668C225.36118,405.62782,219.81331,409.58807,214.75168,413.68305Z" transform="translate(-31.5 -61.7049)" opacity="0.1"/><path d="M284.73555,284.36h8.78753s21.67589,43.93763,19.33255,93.73361-26.36257,69.71437-53.89682,76.15856-39.83679,10.545-43.3518,6.44418S210.3345,422.617,210.3345,422.617s18.16088-16.98921,23.4334-16.98921,6.44419-5.27252,12.30254-4.68668,18.16088-1.17167,17.57505-6.44419-6.44419-38.66511,0-48.62431S284.73555,284.36,284.73555,284.36Z" transform="translate(-31.5 -61.7049)" fill="#38d39f"/><path d="M139.06765,326.97946c1.078,1.365,2.37266,3.017,3.79037,4.85073l-3.40956-7.04761S139.30786,325.57931,139.06765,326.97946Z" transform="translate(-31.5 -61.7049)" opacity="0.1"/><path d="M135.93345,413.82951c.59756,1.79269,7.58657-1.8981,14.30021-5.94624-.07029-.35149-.14645-.7147-.24017-1.08378-1.75751-7.03,10.545-24.01924,10.545-24.01924l8.20169-22.26173-1.75751-29.87759-22.61321,3.14593c6.49689,8.47115,14.70444,19.60788,16.75486,24.38832,3.515,8.20169-3.515,20.50423-11.7167,19.91839S134.76178,410.3145,135.93345,413.82951Z" transform="translate(-31.5 -61.7049)" opacity="0.1"/><path d="M147.65015,311.30837l-11.7167,11.71671s-8.20169,47.45263-8.20169,50.38181-14.06,21.6759-10.545,34.56427,5.85836,29.87759,2.92918,33.3926-7.03,13.4742,0,18.16088,15.81755-26.94841,36.90761-18.74672c0,0-12.88837-20.50423-12.30254-22.26173s3.515-6.44419,1.75751-13.47421,10.545-24.01923,10.545-24.01923L165.2252,358.761l-1.75751-29.87758Z" transform="translate(-31.5 -61.7049)" fill="#38d39f"/></svg>