<svg xmlns="http://www.w3.org/2000/svg" width="1149" height="784.079" viewBox="0 0 1149 784.079">
  <g id="Group_10" data-name="Group 10" transform="translate(-26 25)">
    <g id="Group_9" data-name="Group 9" transform="translate(26 -25)">
      <path id="Path_63" data-name="Path 63" d="M460.5,805.04c0,20.43-95.81,37-214,37s-214-16.57-214-37c0-5.11,5.98-9.97,16.8-14.39,31.5-12.89,104.03-22.05,189.28-22.58q3.945-.03,7.92-.03C364.69,768.04,460.5,784.61,460.5,805.04Z" transform="translate(-25.5 -57.96)" fill="#3f3d56"/>
      <path id="Path_64" data-name="Path 64" d="M238.58,768.07A121.5,121.5,0,0,1,49.3,790.65C80.8,777.76,153.33,768.6,238.58,768.07Z" transform="translate(-25.5 -57.96)" opacity="0.1"/>
      <ellipse id="Ellipse_9" data-name="Ellipse 9" cx="112" cy="120" rx="112" ry="120" transform="translate(0 508.079)" fill="#3f3d56"/>
      <path id="Path_65" data-name="Path 65" d="M274.927,141.3c15.88,61.177,67.109,100.718,114.538,88.407" transform="translate(-25.5 -57.96)" fill="#3f3d56"/>
      <path id="Path_66" data-name="Path 66" d="M389.465,229.7c-16.058-61.864,13.776-123.041,66.7-136.78" transform="translate(-25.5 -57.96)" fill="#3ecc5f"/>
      <path id="Path_67" data-name="Path 67" d="M307.456,138.773c15.084,58.111,51.764,98.782,82.008,90.931" transform="translate(-25.5 -57.96)" fill="#3ecc5f"/>
      <path id="Path_68" data-name="Path 68" d="M389.465,229.7C368.946,150.655,401.846,73.84,463.022,57.96" transform="translate(-25.5 -57.96)" fill="#3f3d56"/>
      <path id="Path_69" data-name="Path 69" d="M371.616,235.17s12.072-3.534,15.061-7.1,17.232-10.589,19.229-6.637S429.6,237.52,415.89,241.2s-32.478,6.146-36.717,4.867S371.616,235.17,371.616,235.17Z" transform="translate(-25.5 -57.96)" fill="#a8a8a8"/>
      <path id="Path_70" data-name="Path 70" d="M415.757,239.675c-13.71,3.677-32.478,6.146-36.717,4.867-3.228-.974-5.921-6.779-7.022-9.494-.255.078-.4.121-.4.121s3.318,9.614,7.557,10.894,23.007-1.19,36.717-4.867c3.958-1.061,4.961-2.828,4.343-4.9C420.011,237.7,418.7,238.885,415.757,239.675Z" transform="translate(-25.5 -57.96)" opacity="0.2"/>
      <rect id="Rectangle_86" data-name="Rectangle 86" width="806" height="467" transform="translate(343 126.079)" fill="#f2f2f2"/>
      <rect id="Rectangle_87" data-name="Rectangle 87" width="442" height="231.5" transform="translate(362 267.829)" fill="#3ecc5f" opacity="0.3"/>
      <rect id="Rectangle_88" data-name="Rectangle 88" width="177.281" height="9.807" transform="translate(838 257.737)" fill="#3f3d56"/>
      <rect id="Rectangle_89" data-name="Rectangle 89" width="258" height="9.807" transform="translate(838 275.842)" fill="#3f3d56"/>
      <rect id="Rectangle_90" data-name="Rectangle 90" width="177.281" height="9.807" transform="translate(838 319.597)" fill="#3f3d56"/>
      <rect id="Rectangle_91" data-name="Rectangle 91" width="177.281" height="9.807" transform="translate(838 392.018)" fill="#3f3d56"/>
      <rect id="Rectangle_92" data-name="Rectangle 92" width="258" height="9.807" transform="translate(838 337.702)" fill="#3f3d56"/>
      <rect id="Rectangle_93" data-name="Rectangle 93" width="258" height="9.807" transform="translate(838 355.807)" fill="#3f3d56"/>
      <rect id="Rectangle_94" data-name="Rectangle 94" width="258" height="9.807" transform="translate(838 373.913)" fill="#3f3d56"/>
      <rect id="Rectangle_95" data-name="Rectangle 95" width="92.789" height="25.649" transform="translate(838 435.772)" fill="#3ecc5f"/>
      <path id="Path_71" data-name="Path 71" d="M339.988,465.874s16.657-47.195,28.687-32.388-18.508,39.791-18.508,39.791Z" transform="translate(-25.5 -57.96)" fill="#a0616a"/>
      <path id="Path_72" data-name="Path 72" d="M261.33,419.6l10.02,3.714s4.786,21.272,2.935,24.973-2.776.925,0,8.328,11.1,26.836,12.03,29.612,53.672-17.582,53.672-27.761c0,0,11.1,12.955,16.657,15.732,0,0-61.075,44.418-69.4,49.971s-12.955,2.776-20.358-3.7-38.866-60.15-38.866-60.15Z" transform="translate(-25.5 -57.96)" fill="#575a89"/>
      <path id="Path_73" data-name="Path 73" d="M288.166,748.116s-.925,10.179-2.776,11.1-15.732,24.06,0,28.687,24.985,2.776,28.687,4.627,68.478,5.552,69.4-4.627-31.463-12.03-31.463-12.03-29.612-19.433-34.239-29.612S288.166,748.116,288.166,748.116Z" transform="translate(-25.5 -57.96)" fill="#2f2e41"/>
      <path id="Path_74" data-name="Path 74" d="M100.313,766.623S78.1,804.564,83.657,809.191s59.625,21.488,67.553,22.209c10.179.925,17.582-7.4,9.254-12.03s-25.911-24.06-25.911-30.538V772.176Z" transform="translate(-25.5 -57.96)" fill="#2f2e41"/>
      <path id="Path_75" data-name="Path 75" d="M79.03,518.621s-19.433,24.06,11.1,62.926l50.9,64.777s-31.463,49.971-32.388,75.881-7.4,20.358-9.254,31.463-10.179,5.552-3.7,13.881,30.538,15.732,37.941,9.254,7.4-14.806,7.4-18.508,12.955-24.985,13.881-31.463,35.165-59.224,35.165-59.224,11.1-31.463-1.851-49.045-21.516-42.519-21.516-42.519,38.173,46.22,65.009,57.325c0,0,10.179,1.851,8.328,6.478s0,7.4,2.776,12.03,22.209,58.3,28.687,72.18,3.7,22.209,11.1,26.836,40.717.925,40.717-3.7-4.627-16.657-7.4-23.135-24.985-81.434-23.135-94.389-.925-30.538-14.806-37.941-84.21-67.553-87.911-67.553S79.03,518.621,79.03,518.621Z" transform="translate(-25.5 -57.96)" fill="#2f2e41"/>
      <circle id="Ellipse_10" data-name="Ellipse 10" cx="38.866" cy="38.866" r="38.866" transform="translate(200.665 237.643)" fill="#a0616a"/>
      <path id="Path_76" data-name="Path 76" d="M233.569,338.171s-12.03,21.284-26.836,24.06S245.6,407.575,245.6,407.575s12.955-40.717,24.06-42.568S233.569,338.171,233.569,338.171Z" transform="translate(-25.5 -57.96)" fill="#a0616a"/>
      <path id="Path_77" data-name="Path 77" d="M271.509,425.157c0,12.03-36.09,46.269-36.09,46.269L201.18,500.113s-.925,10.179-4.627,11.1-8.328.925-4.627,6.478,12.955,17.582,4.627,19.433a68.023,68.023,0,0,1-7.579.722c-2.221.13-4.83.25-7.764.361-6.848.241-15.417.4-24.7.333q-3.956-.014-8.051-.093c-34.989-.694-75.521-4.719-72.208-17.98,5.552-22.209,1.851-29.612,13.881-41.642S121.6,425.157,121.6,425.157s38.866-65.7,71.254-65.7l6.728-1.768a15.406,15.406,0,0,1,16.814,6.459c6.5,9.892,16.74,24.754,22.727,29.547,9.254,7.4,10.7,2.091,10.7,2.091S271.509,413.127,271.509,425.157Z" transform="translate(-25.5 -57.96)" fill="#575a89"/>
      <path id="Path_78" data-name="Path 78" d="M189.15,565.815s26.836,41.642,10.179,49.045-25.911-43.493-25.911-43.493Z" transform="translate(-25.5 -57.96)" fill="#a0616a"/>
      <path id="Path_79" data-name="Path 79" d="M239.623,330.08c1.492-.188,1.963-2.07,2.214-3.553,1.344-7.938,7.26-15.466,15.209-16.747a21.535,21.535,0,0,1,9.062.73,34.382,34.382,0,0,1,11.627,5.723c1.836,1.388,3.6,3,5.81,3.649,1.458.428,7.651,3.181,9.1,3.647,3.181,1.024,5.813,4.354,9.09,3.694,3.134-.631,4.325-4.416,4.829-7.573,1.148-7.193-2.969-17.925-7.063-23.95-3.106-4.572-8.363-7.2-13.618-8.915a97.844,97.844,0,0,0-18.887-3.753c-8.645-1.021-17.6-1.563-25.884,1.109s-15.829,9.209-17.375,17.776c-.322,1.784-.383,3.612-.777,5.382-.963,4.318-3.82,7.947-5.486,12.044a23.193,23.193,0,0,0,.708,18.8c2.308,4.64,6.32,9.1,5.454,14.209l7.141-5.631a5.186,5.186,0,0,0,2.384-6.07l-1.038-8.942c-.19-1.637-.356-3.4.463-4.834C235.756,321.334,237.136,330.393,239.623,330.08Z" transform="translate(-25.5 -57.96)" fill="#2f2e41"/>
      <path id="Path_80" data-name="Path 80" d="M172.493,501.964l8.717,36.247c-8.791.315-20.423.481-32.749.241-3.109-9.328-6.08-19.054-8.356-28.159-8.328-33.314,5.552-84.21,12.955-108.27s25.911-30.538,25.911-30.538,9.254,2.776,21.284,11.1S172.493,501.964,172.493,501.964Z" transform="translate(-25.5 -57.96)" opacity="0.1"/>
      <path id="Path_81" data-name="Path 81" d="M179.9,500.113l9.078,37.737c-2.221.13-4.83.25-7.764.361-6.848.241-15.417.4-24.7.333-3.34-9.911-6.57-20.368-9-30.1-8.328-33.314,5.552-84.21,12.955-108.27s23.6,2.313,23.6,2.313-6.478-15.732,5.552-7.4S179.9,500.113,179.9,500.113Z" transform="translate(-25.5 -57.96)" opacity="0.1"/>
      <path id="Path_82" data-name="Path 82" d="M182.672,369.634s-18.508,6.478-25.911,30.538-21.284,74.956-12.955,108.27S169.717,583.4,169.717,583.4s17.582-12.955,24.06-10.179l-17.582-73.105s39.791-111.046,27.761-119.374S182.672,369.634,182.672,369.634Z" transform="translate(-25.5 -57.96)" fill="#575a89"/>
      <rect id="Rectangle_96" data-name="Rectangle 96" width="442" height="231.5" transform="translate(343 243.829)" fill="#3f3d56"/>
    </g>
    <g id="docusaurus_keytar" transform="translate(523.271 269.586)">
      <path id="Path_40" data-name="Path 40" d="M99,52h66.023V78.724H99Z" transform="translate(-23.545 -24.668)" fill="#fff" fill-rule="evenodd"/>
      <path id="Path_41" data-name="Path 41" d="M18.72,160.86A15.7,15.7,0,0,1,5.12,153a15.7,15.7,0,0,0,13.6,23.58H34.44V160.86Z" transform="translate(-3 -46.283)" fill="#3ecc5f" fill-rule="evenodd"/>
      <path id="Path_42" data-name="Path 42" d="M92.488,48.783l55.035-3.439v-7.86a15.719,15.719,0,0,0-15.72-15.72H61.064l-1.965-3.4a2.269,2.269,0,0,0-3.93,0l-1.965,3.4-1.965-3.4a2.269,2.269,0,0,0-3.93,0l-1.965,3.4-1.965-3.4a2.269,2.269,0,0,0-3.93,0l-1.965,3.4-.051,0-3.256-3.255a2.268,2.268,0,0,0-3.795,1.017l-1.076,4.012-4.081-1.094a2.268,2.268,0,0,0-2.778,2.779l1.093,4.082-4.01,1.074a2.269,2.269,0,0,0-1.019,3.8l3.256,3.256c0,.017,0,.033,0,.05l-3.4,1.965a2.269,2.269,0,0,0,0,3.93l3.4,1.965-3.4,1.965a2.269,2.269,0,0,0,0,3.93l3.4,1.965-3.4,1.965a2.269,2.269,0,0,0,0,3.93l3.4,1.965-3.4,1.965a2.269,2.269,0,0,0,0,3.93l3.4,1.965-3.4,1.965a2.269,2.269,0,0,0,0,3.93l3.4,1.965-3.4,1.965a2.269,2.269,0,0,0,0,3.93l3.4,1.965-3.4,1.965a2.269,2.269,0,0,0,0,3.93l3.4,1.965-3.4,1.965a2.269,2.269,0,0,0,0,3.93l3.4,1.965-3.4,1.965a2.269,2.269,0,0,0,0,3.93l3.4,1.965-3.4,1.965a2.269,2.269,0,0,0,0,3.93l3.4,1.965-3.4,1.965a2.269,2.269,0,0,0,0,3.93l3.4,1.965-3.4,1.965a2.269,2.269,0,0,0,0,3.93l3.4,1.965a15.719,15.719,0,0,0,15.72,15.72H131.8a15.719,15.719,0,0,0,15.72-15.72V68.924L92.488,65.484a8.367,8.367,0,0,1,0-16.7" transform="translate(-6.045 -17.226)" fill="#3ecc5f" fill-rule="evenodd"/>
      <path id="Path_43" data-name="Path 43" d="M143,174.44h23.58V143H143Z" transform="translate(-32.962 -44.143)" fill="#3ecc5f" fill-rule="evenodd"/>
      <path id="Path_44" data-name="Path 44" d="M184.44,153.72a3.91,3.91,0,0,0-.5.05c-.03-.118-.058-.237-.091-.354a3.925,3.925,0,1,0-3.884-6.741q-.13-.133-.263-.264a3.923,3.923,0,1,0-6.75-3.887c-.116-.033-.233-.061-.35-.09a3.932,3.932,0,1,0-7.759,0c-.116.03-.233.057-.35.09a3.925,3.925,0,1,0-6.75,3.887,15.712,15.712,0,1,0,26.2,15.119,3.921,3.921,0,1,0,.5-7.81" transform="translate(-35.102 -43.073)" fill="#44d860" fill-rule="evenodd"/>
      <path id="Path_45" data-name="Path 45" d="M153,118.72h23.58V103H153Z" transform="translate(-35.102 -35.583)" fill="#3ecc5f" fill-rule="evenodd"/>
      <path id="Path_46" data-name="Path 46" d="M188.72,112.58a1.965,1.965,0,0,0,0-3.93,2.024,2.024,0,0,0-.251.025c-.016-.059-.029-.118-.046-.177a1.966,1.966,0,0,0-.757-3.778,1.944,1.944,0,0,0-1.185.407q-.065-.067-.132-.132a1.944,1.944,0,0,0,.4-1.174,1.965,1.965,0,0,0-3.773-.769,7.86,7.86,0,1,0,0,15.127,1.965,1.965,0,0,0,3.773-.769,1.944,1.944,0,0,0-.4-1.174q.067-.065.132-.132a1.944,1.944,0,0,0,1.185.407,1.965,1.965,0,0,0,.757-3.778c.016-.058.03-.118.046-.177a2.024,2.024,0,0,0,.251.025" transform="translate(-39.382 -35.338)" fill="#44d860" fill-rule="evenodd"/>
      <path id="Path_47" data-name="Path 47" d="M58.185,52.29a1.965,1.965,0,0,1-1.965-1.965,5.895,5.895,0,0,0-11.79,0,1.965,1.965,0,0,1-3.93,0,9.825,9.825,0,0,1,19.65,0,1.965,1.965,0,0,1-1.965,1.965" transform="translate(-11.025 -22.207)" fill-rule="evenodd"/>
      <path id="Path_48" data-name="Path 48" d="M103,163.739h47.159a15.719,15.719,0,0,0,15.72-15.72V93H118.72A15.719,15.719,0,0,0,103,108.72Z" transform="translate(-24.401 -33.443)" fill="#ffff50" fill-rule="evenodd"/>
      <path id="Path_49" data-name="Path 49" d="M156.031,110.647H116.7a.786.786,0,1,1,0-1.572h39.331a.786.786,0,0,1,0,1.572m0,15.72H116.7a.786.786,0,1,1,0-1.572h39.331a.786.786,0,0,1,0,1.572m0,15.72H116.7a.786.786,0,1,1,0-1.572h39.331a.786.786,0,0,1,0,1.572m0-39.153H116.7a.786.786,0,1,1,0-1.572h39.331a.786.786,0,0,1,0,1.572m0,15.574H116.7a.786.786,0,1,1,0-1.572h39.331a.786.786,0,0,1,0,1.572m0,15.72H116.7a.786.786,0,1,1,0-1.572h39.331a.786.786,0,0,1,0,1.572M167.805,61.61c-.009,0-.017,0-.027,0-2.429.083-3.578,2.512-4.592,4.655-1.058,2.24-1.876,3.7-3.217,3.652-1.485-.053-2.334-1.731-3.233-3.506-1.033-2.039-2.212-4.351-4.687-4.265-2.394.082-3.547,2.2-4.564,4.061-1.082,1.987-1.819,3.2-3.239,3.139-1.515-.055-2.319-1.419-3.251-3-1.038-1.757-2.238-3.733-4.666-3.666-2.353.081-3.509,1.875-4.53,3.458-1.079,1.674-1.835,2.694-3.274,2.634-1.551-.055-2.352-1.187-3.278-2.5-1.041-1.472-2.213-3.138-4.633-3.057-2.3.079-3.458,1.548-4.477,2.844-.968,1.229-1.724,2.2-3.324,2.141a.787.787,0,0,0-.057,1.572c2.371.079,3.572-1.415,4.615-2.741.925-1.176,1.724-2.191,3.3-2.244,1.514-.064,2.224.876,3.3,2.393,1.019,1.442,2.176,3.076,4.5,3.16,2.439.082,3.612-1.741,4.651-3.354.929-1.441,1.731-2.686,3.262-2.738,1.409-.053,2.176,1.061,3.258,2.893,1.019,1.727,2.174,3.683,4.549,3.77,2.456.085,3.642-2.059,4.676-3.957.9-1.641,1.74-3.191,3.237-3.243,1.409-.033,2.144,1.254,3.231,3.4,1.016,2.007,2.167,4.28,4.578,4.367l.133,0c2.408,0,3.551-2.417,4.563-4.554.9-1.894,1.743-3.678,3.2-3.752Z" transform="translate(-26.327 -26.724)" fill-rule="evenodd"/>
      <path id="Path_50" data-name="Path 50" d="M83,174.44h31.44V143H83Z" transform="translate(-20.121 -44.143)" fill="#3ecc5f" fill-rule="evenodd"/>
      <g id="Group_8" data-name="Group 8" transform="matrix(0.966, -0.259, 0.259, 0.966, 78.637, 65.516)">
        <rect id="Rectangle_3" data-name="Rectangle 3" width="66.433" height="26.226" rx="2" transform="translate(0 0)" fill="#d8d8d8"/>
        <g id="Group_2" data-name="Group 2" transform="translate(1.101 16.565)">
          <rect id="Rectangle_4" data-name="Rectangle 4" width="3.838" height="3.838" rx="1" transform="translate(12.081 0)" fill="#4a4a4a"/>
          <rect id="Rectangle_5" data-name="Rectangle 5" width="3.838" height="3.838" rx="1" transform="translate(16.63 0)" fill="#4a4a4a"/>
          <rect id="Rectangle_6" data-name="Rectangle 6" width="3.838" height="3.838" rx="1" transform="translate(21.178 0)" fill="#4a4a4a"/>
          <rect id="Rectangle_7" data-name="Rectangle 7" width="3.838" height="3.838" rx="1" transform="translate(25.727 0)" fill="#4a4a4a"/>
          <rect id="Rectangle_8" data-name="Rectangle 8" width="3.838" height="3.838" rx="1" transform="translate(30.275 0)" fill="#4a4a4a"/>
          <rect id="Rectangle_9" data-name="Rectangle 9" width="3.838" height="3.838" rx="1" transform="translate(34.824 0)" fill="#4a4a4a"/>
          <rect id="Rectangle_10" data-name="Rectangle 10" width="3.838" height="3.838" rx="1" transform="translate(39.373 0)" fill="#4a4a4a"/>
          <rect id="Rectangle_11" data-name="Rectangle 11" width="3.838" height="3.838" rx="1" transform="translate(43.921 0)" fill="#4a4a4a"/>
          <rect id="Rectangle_12" data-name="Rectangle 12" width="3.838" height="3.838" rx="1" transform="translate(48.47 0)" fill="#4a4a4a"/>
          <path id="Path_51" data-name="Path 51" d="M.786,0h9.657a.786.786,0,0,1,.786.786V3.052a.786.786,0,0,1-.786.786H.786A.786.786,0,0,1,0,3.052V.786A.786.786,0,0,1,.786,0Zm53.16,0H63.6a.786.786,0,0,1,.786.786V3.052a.786.786,0,0,1-.786.786H53.945a.786.786,0,0,1-.786-.786V.786A.786.786,0,0,1,53.945,0Z" transform="translate(0 0)" fill="#4a4a4a" fill-rule="evenodd"/>
        </g>
        <g id="Group_3" data-name="Group 3" transform="translate(1.101 7.38)">
          <path id="Path_52" data-name="Path 52" d="M.786,0H4.472a.786.786,0,0,1,.786.786V3.051a.786.786,0,0,1-.786.786H.786A.786.786,0,0,1,0,3.051V.786A.786.786,0,0,1,.786,0Z" transform="translate(0 0)" fill="#4a4a4a" fill-rule="evenodd"/>
          <rect id="Rectangle_13" data-name="Rectangle 13" width="3.838" height="3.838" rx="1" transform="translate(5.97 0)" fill="#4a4a4a"/>
          <rect id="Rectangle_14" data-name="Rectangle 14" width="3.838" height="3.838" rx="1" transform="translate(10.518 0)" fill="#4a4a4a"/>
          <rect id="Rectangle_15" data-name="Rectangle 15" width="3.838" height="3.838" rx="1" transform="translate(15.067 0)" fill="#4a4a4a"/>
          <rect id="Rectangle_16" data-name="Rectangle 16" width="3.838" height="3.838" rx="1" transform="translate(19.615 0)" fill="#4a4a4a"/>
          <rect id="Rectangle_17" data-name="Rectangle 17" width="3.838" height="3.838" rx="1" transform="translate(24.164 0)" fill="#4a4a4a"/>
          <rect id="Rectangle_18" data-name="Rectangle 18" width="3.838" height="3.838" rx="1" transform="translate(28.712 0)" fill="#4a4a4a"/>
          <rect id="Rectangle_19" data-name="Rectangle 19" width="3.838" height="3.838" rx="1" transform="translate(33.261 0)" fill="#4a4a4a"/>
          <rect id="Rectangle_20" data-name="Rectangle 20" width="3.838" height="3.838" rx="1" transform="translate(37.809 0)" fill="#4a4a4a"/>
          <rect id="Rectangle_21" data-name="Rectangle 21" width="3.838" height="3.838" rx="1" transform="translate(42.357 0)" fill="#4a4a4a"/>
          <rect id="Rectangle_22" data-name="Rectangle 22" width="3.838" height="3.838" rx="1" transform="translate(46.905 0)" fill="#4a4a4a"/>
          <rect id="Rectangle_23" data-name="Rectangle 23" width="3.838" height="3.838" rx="1" transform="translate(51.454 0)" fill="#4a4a4a"/>
          <rect id="Rectangle_24" data-name="Rectangle 24" width="3.838" height="3.838" rx="1" transform="translate(56.002 0)" fill="#4a4a4a"/>
          <rect id="Rectangle_25" data-name="Rectangle 25" width="3.838" height="3.838" rx="1" transform="translate(60.551 0)" fill="#4a4a4a"/>
        </g>
        <g id="Group_4" data-name="Group 4" transform="translate(65.49 6.866) rotate(180)">
          <path id="Path_53" data-name="Path 53" d="M.786,0H4.473a.786.786,0,0,1,.786.786V3.052a.786.786,0,0,1-.786.786H.786A.786.786,0,0,1,0,3.052V.786A.786.786,0,0,1,.786,0Z" fill="#4a4a4a" fill-rule="evenodd"/>
          <rect id="Rectangle_26" data-name="Rectangle 26" width="3.838" height="3.838" rx="1" transform="translate(5.97 0)" fill="#4a4a4a"/>
          <rect id="Rectangle_27" data-name="Rectangle 27" width="3.838" height="3.838" rx="1" transform="translate(10.518 0)" fill="#4a4a4a"/>
          <rect id="Rectangle_28" data-name="Rectangle 28" width="3.838" height="3.838" rx="1" transform="translate(15.067 0)" fill="#4a4a4a"/>
          <rect id="Rectangle_29" data-name="Rectangle 29" width="3.838" height="3.838" rx="1" transform="translate(19.615 0)" fill="#4a4a4a"/>
          <rect id="Rectangle_30" data-name="Rectangle 30" width="3.838" height="3.838" rx="1" transform="translate(24.164 0)" fill="#4a4a4a"/>
          <rect id="Rectangle_31" data-name="Rectangle 31" width="3.838" height="3.838" rx="1" transform="translate(28.712 0)" fill="#4a4a4a"/>
          <rect id="Rectangle_32" data-name="Rectangle 32" width="3.838" height="3.838" rx="1" transform="translate(33.261 0)" fill="#4a4a4a"/>
          <rect id="Rectangle_33" data-name="Rectangle 33" width="3.838" height="3.838" rx="1" transform="translate(37.809 0)" fill="#4a4a4a"/>
          <rect id="Rectangle_34" data-name="Rectangle 34" width="3.838" height="3.838" rx="1" transform="translate(42.358 0)" fill="#4a4a4a"/>
          <rect id="Rectangle_35" data-name="Rectangle 35" width="3.838" height="3.838" rx="1" transform="translate(46.906 0)" fill="#4a4a4a"/>
          <rect id="Rectangle_36" data-name="Rectangle 36" width="3.838" height="3.838" rx="1" transform="translate(51.455 0)" fill="#4a4a4a"/>
          <rect id="Rectangle_37" data-name="Rectangle 37" width="3.838" height="3.838" rx="1" transform="translate(56.003 0)" fill="#4a4a4a"/>
          <rect id="Rectangle_38" data-name="Rectangle 38" width="3.838" height="3.838" rx="1" transform="translate(60.551 0)" fill="#4a4a4a"/>
          <rect id="Rectangle_39" data-name="Rectangle 39" width="3.838" height="3.838" rx="1" transform="translate(5.97 0)" fill="#4a4a4a"/>
          <rect id="Rectangle_40" data-name="Rectangle 40" width="3.838" height="3.838" rx="1" transform="translate(10.518 0)" fill="#4a4a4a"/>
          <rect id="Rectangle_41" data-name="Rectangle 41" width="3.838" height="3.838" rx="1" transform="translate(15.067 0)" fill="#4a4a4a"/>
          <rect id="Rectangle_42" data-name="Rectangle 42" width="3.838" height="3.838" rx="1" transform="translate(19.615 0)" fill="#4a4a4a"/>
          <rect id="Rectangle_43" data-name="Rectangle 43" width="3.838" height="3.838" rx="1" transform="translate(24.164 0)" fill="#4a4a4a"/>
          <rect id="Rectangle_44" data-name="Rectangle 44" width="3.838" height="3.838" rx="1" transform="translate(28.712 0)" fill="#4a4a4a"/>
          <rect id="Rectangle_45" data-name="Rectangle 45" width="3.838" height="3.838" rx="1" transform="translate(33.261 0)" fill="#4a4a4a"/>
          <rect id="Rectangle_46" data-name="Rectangle 46" width="3.838" height="3.838" rx="1" transform="translate(37.809 0)" fill="#4a4a4a"/>
          <rect id="Rectangle_47" data-name="Rectangle 47" width="3.838" height="3.838" rx="1" transform="translate(42.358 0)" fill="#4a4a4a"/>
          <rect id="Rectangle_48" data-name="Rectangle 48" width="3.838" height="3.838" rx="1" transform="translate(46.906 0)" fill="#4a4a4a"/>
          <rect id="Rectangle_49" data-name="Rectangle 49" width="3.838" height="3.838" rx="1" transform="translate(51.455 0)" fill="#4a4a4a"/>
          <rect id="Rectangle_50" data-name="Rectangle 50" width="3.838" height="3.838" rx="1" transform="translate(56.003 0)" fill="#4a4a4a"/>
          <rect id="Rectangle_51" data-name="Rectangle 51" width="3.838" height="3.838" rx="1" transform="translate(60.551 0)" fill="#4a4a4a"/>
        </g>
        <g id="Group_6" data-name="Group 6" transform="translate(1.101 11.928)">
          <path id="Path_54" data-name="Path 54" d="M.786,0h5.25a.786.786,0,0,1,.786.786V3.052a.786.786,0,0,1-.786.786H.786A.786.786,0,0,1,0,3.052V.787A.786.786,0,0,1,.786,0Z" fill="#4a4a4a" fill-rule="evenodd"/>
          <g id="Group_5" data-name="Group 5" transform="translate(7.675 0)">
            <rect id="Rectangle_52" data-name="Rectangle 52" width="3.838" height="3.838" rx="1" fill="#4a4a4a"/>
            <rect id="Rectangle_53" data-name="Rectangle 53" width="3.838" height="3.838" rx="1" transform="translate(4.549 0)" fill="#4a4a4a"/>
            <rect id="Rectangle_54" data-name="Rectangle 54" width="3.838" height="3.838" rx="1" transform="translate(9.097 0)" fill="#4a4a4a"/>
            <rect id="Rectangle_55" data-name="Rectangle 55" width="3.838" height="3.838" rx="1" transform="translate(13.646 0)" fill="#4a4a4a"/>
            <rect id="Rectangle_56" data-name="Rectangle 56" width="3.838" height="3.838" rx="1" transform="translate(18.194 0)" fill="#4a4a4a"/>
            <rect id="Rectangle_57" data-name="Rectangle 57" width="3.838" height="3.838" rx="1" transform="translate(22.743 0)" fill="#4a4a4a"/>
            <rect id="Rectangle_58" data-name="Rectangle 58" width="3.838" height="3.838" rx="1" transform="translate(27.291 0)" fill="#4a4a4a"/>
            <rect id="Rectangle_59" data-name="Rectangle 59" width="3.838" height="3.838" rx="1" transform="translate(31.839 0)" fill="#4a4a4a"/>
            <rect id="Rectangle_60" data-name="Rectangle 60" width="3.838" height="3.838" rx="1" transform="translate(36.387 0)" fill="#4a4a4a"/>
            <rect id="Rectangle_61" data-name="Rectangle 61" width="3.838" height="3.838" rx="1" transform="translate(40.936 0)" fill="#4a4a4a"/>
            <rect id="Rectangle_62" data-name="Rectangle 62" width="3.838" height="3.838" rx="1" transform="translate(45.484 0)" fill="#4a4a4a"/>
          </g>
          <path id="Path_55" data-name="Path 55" d="M.787,0H5.753a.786.786,0,0,1,.786.786V3.052a.786.786,0,0,1-.786.786H.786A.786.786,0,0,1,0,3.052V.787A.786.786,0,0,1,.786,0Z" transform="translate(57.85 0)" fill="#4a4a4a" fill-rule="evenodd"/>
        </g>
        <g id="Group_7" data-name="Group 7" transform="translate(1.101 21.31)">
          <rect id="Rectangle_63" data-name="Rectangle 63" width="3.838" height="3.838" rx="1" transform="translate(0 0)" fill="#4a4a4a"/>
          <rect id="Rectangle_64" data-name="Rectangle 64" width="3.838" height="3.838" rx="1" transform="translate(4.549 0)" fill="#4a4a4a"/>
          <rect id="Rectangle_65" data-name="Rectangle 65" width="3.838" height="3.838" rx="1" transform="translate(9.097 0)" fill="#4a4a4a"/>
          <rect id="Rectangle_66" data-name="Rectangle 66" width="3.838" height="3.838" rx="1" transform="translate(13.646 0)" fill="#4a4a4a"/>
          <path id="Path_56" data-name="Path 56" d="M.786,0H22.668a.786.786,0,0,1,.786.786V3.053a.786.786,0,0,1-.786.786H.786A.786.786,0,0,1,0,3.053V.786A.786.786,0,0,1,.786,0ZM24.95,0h2.835a.786.786,0,0,1,.786.786V3.053a.786.786,0,0,1-.786.786H24.95a.786.786,0,0,1-.786-.786V.786A.786.786,0,0,1,24.95,0Z" transform="translate(18.193 0)" fill="#4a4a4a" fill-rule="evenodd"/>
          <rect id="Rectangle_67" data-name="Rectangle 67" width="3.838" height="3.838" rx="1" transform="translate(47.474 0)" fill="#4a4a4a"/>
          <rect id="Rectangle_68" data-name="Rectangle 68" width="3.838" height="3.838" rx="1" transform="translate(52.023 0)" fill="#4a4a4a"/>
          <rect id="Rectangle_69" data-name="Rectangle 69" width="3.838" height="3.838" rx="1" transform="translate(60.551 0)" fill="#4a4a4a"/>
          <path id="Path_57" data-name="Path 57" d="M3.838,0V.849a.786.786,0,0,1-.786.786H.786A.786.786,0,0,1,0,.849V0Z" transform="translate(60.124 1.635) rotate(180)" fill="#4a4a4a"/>
          <path id="Path_58" data-name="Path 58" d="M3.838,0V.849a.786.786,0,0,1-.786.786H.786A.786.786,0,0,1,0,.849V0Z" transform="translate(56.287 2.203)" fill="#4a4a4a"/>
        </g>
        <rect id="Rectangle_70" data-name="Rectangle 70" width="63.963" height="1.706" rx="0.853" transform="translate(1.385 0.842)" fill="#4a4a4a"/>
        <rect id="Rectangle_71" data-name="Rectangle 71" width="3.586" height="1.137" rx="0.569" transform="translate(2.949 1.126)" fill="#d8d8d8" opacity="0.136"/>
        <rect id="Rectangle_72" data-name="Rectangle 72" width="3.586" height="1.137" rx="0.569" transform="translate(7.857 1.126)" fill="#d8d8d8" opacity="0.136"/>
        <rect id="Rectangle_73" data-name="Rectangle 73" width="3.586" height="1.137" rx="0.569" transform="translate(11.633 1.126)" fill="#d8d8d8" opacity="0.136"/>
        <rect id="Rectangle_74" data-name="Rectangle 74" width="3.586" height="1.137" rx="0.569" transform="translate(15.408 1.126)" fill="#d8d8d8" opacity="0.136"/>
        <rect id="Rectangle_75" data-name="Rectangle 75" width="3.586" height="1.137" rx="0.569" transform="translate(19.184 1.126)" fill="#d8d8d8" opacity="0.136"/>
        <rect id="Rectangle_76" data-name="Rectangle 76" width="3.586" height="1.137" rx="0.569" transform="translate(23.903 1.126)" fill="#d8d8d8" opacity="0.136"/>
        <rect id="Rectangle_77" data-name="Rectangle 77" width="3.586" height="1.137" rx="0.569" transform="translate(27.678 1.126)" fill="#d8d8d8" opacity="0.136"/>
        <rect id="Rectangle_78" data-name="Rectangle 78" width="3.586" height="1.137" rx="0.569" transform="translate(31.454 1.126)" fill="#d8d8d8" opacity="0.136"/>
        <rect id="Rectangle_79" data-name="Rectangle 79" width="3.586" height="1.137" rx="0.569" transform="translate(35.229 1.126)" fill="#d8d8d8" opacity="0.136"/>
        <rect id="Rectangle_80" data-name="Rectangle 80" width="3.586" height="1.137" rx="0.569" transform="translate(39.949 1.126)" fill="#d8d8d8" opacity="0.136"/>
        <rect id="Rectangle_81" data-name="Rectangle 81" width="3.586" height="1.137" rx="0.569" transform="translate(43.724 1.126)" fill="#d8d8d8" opacity="0.136"/>
        <rect id="Rectangle_82" data-name="Rectangle 82" width="3.586" height="1.137" rx="0.569" transform="translate(47.5 1.126)" fill="#d8d8d8" opacity="0.136"/>
        <rect id="Rectangle_83" data-name="Rectangle 83" width="3.586" height="1.137" rx="0.569" transform="translate(52.219 1.126)" fill="#d8d8d8" opacity="0.136"/>
        <rect id="Rectangle_84" data-name="Rectangle 84" width="3.586" height="1.137" rx="0.569" transform="translate(55.994 1.126)" fill="#d8d8d8" opacity="0.136"/>
        <rect id="Rectangle_85" data-name="Rectangle 85" width="3.586" height="1.137" rx="0.569" transform="translate(59.77 1.126)" fill="#d8d8d8" opacity="0.136"/>
      </g>
      <path id="Path_59" data-name="Path 59" d="M134.44,153.72a3.91,3.91,0,0,0-.5.05c-.03-.118-.058-.237-.091-.354a3.925,3.925,0,1,0-3.884-6.741q-.13-.133-.263-.264a3.923,3.923,0,1,0-6.75-3.887c-.116-.033-.233-.061-.35-.09a3.932,3.932,0,1,0-7.759,0c-.116.03-.233.057-.35.09a3.925,3.925,0,1,0-6.75,3.887,15.712,15.712,0,1,0,26.2,15.119,3.921,3.921,0,1,0,.5-7.81" transform="translate(-24.401 -43.073)" fill="#44d860" fill-rule="evenodd"/>
      <path id="Path_60" data-name="Path 60" d="M83,118.72h31.44V103H83Z" transform="translate(-20.121 -35.583)" fill="#3ecc5f" fill-rule="evenodd"/>
      <path id="Path_61" data-name="Path 61" d="M128.72,112.58a1.965,1.965,0,1,0,0-3.93,2.022,2.022,0,0,0-.251.025c-.016-.059-.029-.118-.046-.177a1.966,1.966,0,0,0-.757-3.778,1.944,1.944,0,0,0-1.185.407q-.065-.067-.132-.132a1.944,1.944,0,0,0,.4-1.174,1.965,1.965,0,0,0-3.773-.769,7.86,7.86,0,1,0,0,15.127,1.965,1.965,0,0,0,3.773-.769,1.944,1.944,0,0,0-.4-1.174q.067-.065.132-.132a1.944,1.944,0,0,0,1.185.407,1.965,1.965,0,0,0,.757-3.778c.016-.058.03-.118.046-.177a2.022,2.022,0,0,0,.251.025" transform="translate(-26.541 -35.338)" fill="#44d860" fill-rule="evenodd"/>
      <path id="Path_62" data-name="Path 62" d="M142.465,40.412a2.134,2.134,0,0,1-.385-.039,1.981,1.981,0,0,1-.369-.11,2.041,2.041,0,0,1-.339-.181,2.978,2.978,0,0,1-.3-.244,2.3,2.3,0,0,1-.243-.3,1.94,1.94,0,0,1-.33-1.093,2.135,2.135,0,0,1,.039-.385,2.267,2.267,0,0,1,.109-.369,2.067,2.067,0,0,1,.182-.338,1.894,1.894,0,0,1,.542-.542,2.041,2.041,0,0,1,.339-.181,1.98,1.98,0,0,1,.369-.11,1.818,1.818,0,0,1,.77,0,1.909,1.909,0,0,1,.707.291,2.978,2.978,0,0,1,.3.244,2.891,2.891,0,0,1,.244.3,2,2,0,0,1,.181.338,2.06,2.06,0,0,1,.149.755,1.992,1.992,0,0,1-.574,1.391,2.977,2.977,0,0,1-.3.244,1.958,1.958,0,0,1-1.093.33m15.72-.982a2.006,2.006,0,0,1-1.392-.574,2.994,2.994,0,0,1-.243-.3,1.94,1.94,0,0,1-.33-1.093,2.006,2.006,0,0,1,.573-1.391,2.977,2.977,0,0,1,.3-.244,2.042,2.042,0,0,1,.339-.181,1.98,1.98,0,0,1,.369-.11,1.818,1.818,0,0,1,.77,0,1.909,1.909,0,0,1,.707.291,2.977,2.977,0,0,1,.3.244,2.007,2.007,0,0,1,.574,1.391,2.207,2.207,0,0,1-.039.385,2,2,0,0,1-.11.369,2.793,2.793,0,0,1-.181.338,2.892,2.892,0,0,1-.244.3,2.976,2.976,0,0,1-.3.244,1.958,1.958,0,0,1-1.093.33" transform="translate(-32.427 -21.137)" fill-rule="evenodd"/>
    </g>
  </g>
</svg>
