<svg xmlns="http://www.w3.org/2000/svg" width="863" height="826.714" viewBox="0 0 863 826.714">
  <g id="Group_21" data-name="Group 21" transform="translate(-529 -127)">
    <g id="Group_17" data-name="Group 17" transform="translate(529 127)">
      <path id="Path_197" data-name="Path 197" d="M908.585,346.03C863.668,169.408,708.468,41.912,526.3,36.8,429.988,34.1,328.644,66.036,254.859,177.81c-131.9,199.808,8.106,337.882,105.714,403.492A610.759,610.759,0,0,1,486.813,694.768C552.744,773.005,679.58,870.227,830.637,717.9,940.122,607.486,938.5,463.677,908.585,346.03Z" transform="translate(-168.5 -36.643)" fill="#f2f2f2"/>
      <path id="Path_198" data-name="Path 198" d="M1030.5,739.357c0,43.354-189.189,124-427.5,124s-434.5-75.646-434.5-119,196.189-38,434.5-38S1030.5,696,1030.5,739.357Z" transform="translate(-168.5 -36.643)" fill="#3f3d56"/>
      <path id="Path_199" data-name="Path 199" d="M1030.5,739.357c0,43.354-189.189,124-427.5,124s-434.5-75.646-434.5-119,196.189-38,434.5-38S1030.5,696,1030.5,739.357Z" transform="translate(-168.5 -36.643)" opacity="0.1"/>
      <ellipse id="Ellipse_55" data-name="Ellipse 55" cx="431.5" cy="78.5" rx="431.5" ry="78.5" transform="translate(0 628.714)" fill="#3f3d56"/>
      <path id="Path_200" data-name="Path 200" d="M594.859,440.238V650.182l35.117,57.231,2.673,4.353H771.212l2.8-271.528Z" fill="#2f2e41"/>
      <path id="Path_201" data-name="Path 201" d="M594.859,440.238V650.182l35.117,57.231,2.155-267.175Z" opacity="0.1"/>
      <path id="Path_202" data-name="Path 202" d="M260.348,434.639V644.583l-35.117,57.231-2.673,4.353H83.994l-2.8-271.528Z" fill="#2f2e41"/>
      <path id="Path_203" data-name="Path 203" d="M260.348,434.639V644.583l-35.117,57.231-2.156-267.175Z" opacity="0.1"/>
      <path id="Path_204" data-name="Path 204" d="M816,430.44v12.6H63V424.842l69.981-36.39H754.416Z" fill="#2f2e41"/>
      <path id="Path_205" data-name="Path 205" d="M816,430.44v12.6H63V424.842Z" opacity="0.1"/>
      <path id="Path_206" data-name="Path 206" d="M170.771,493.424H137.18l-14-9.8h62.983Z" opacity="0.1"/>
      <path id="Path_207" data-name="Path 207" d="M170.771,534.013H137.18l-14-9.8h62.983Z" opacity="0.1"/>
      <path id="Path_208" data-name="Path 208" d="M170.771,591.4H137.18l-14-9.8h62.983Z" opacity="0.1"/>
      <path id="Path_209" data-name="Path 209" d="M170.771,648.782H137.18l-14-9.8h62.983Z" opacity="0.1"/>
      <path id="Path_210" data-name="Path 210" d="M684.435,499.022h33.591l14-9.8H669.039Z" opacity="0.1"/>
      <path id="Path_211" data-name="Path 211" d="M684.435,539.611h33.591l14-9.8H669.039Z" opacity="0.1"/>
      <path id="Path_212" data-name="Path 212" d="M684.435,597h33.591l14-9.8H669.039Z" opacity="0.1"/>
      <path id="Path_213" data-name="Path 213" d="M684.435,654.381h33.591l14-9.8H669.039Z" opacity="0.1"/>
      <path id="Path_214" data-name="Path 214" d="M701.016,390.069l-4.669,29.808s-22.984,12.21-6.823,12.569,92.3,0,92.3,0,14.724,0-8.619-12.929l-4.669-31.244Z" transform="translate(-168.5 -36.643)" fill="#3f3d56"/>
      <path id="Path_215" data-name="Path 215" d="M686.273,432.123a63.569,63.569,0,0,1,10.074-6.669l4.669-29.808,67.516.064L773.2,425.1a61.3,61.3,0,0,1,10.788,7.1c3-.684,6.275-3.226-10.788-12.676l-4.669-31.244-67.516,1.8-4.669,29.808S677.034,430.139,686.273,432.123Z" transform="translate(-168.5 -36.643)" opacity="0.1"/>
      <rect id="Rectangle_119" data-name="Rectangle 119" width="304.18" height="211.885" rx="10.695" transform="translate(413.824 145.672)" fill="#3f3d56"/>
      <rect id="Rectangle_120" data-name="Rectangle 120" width="283.71" height="158.734" transform="translate(424.059 156.984)" fill="#f2f2f2"/>
      <circle id="Ellipse_56" data-name="Ellipse 56" cx="1.796" cy="1.796" r="1.796" transform="translate(564.119 150.161)" fill="#f2f2f2"/>
      <path id="Path_216" data-name="Path 216" d="M886.5,364.931V383.5a10.694,10.694,0,0,1-10.7,10.695H593.019a10.694,10.694,0,0,1-10.695-10.7V364.931Z" transform="translate(-168.5 -36.643)" fill="#3f3d56"/>
      <circle id="Ellipse_57" data-name="Ellipse 57" cx="6.823" cy="6.823" r="6.823" transform="translate(559.091 336.189)" fill="#f2f2f2"/>
      <path id="Path_217" data-name="Path 217" d="M555.281,415.2v3.592H362.071v-2.873l.266-.719,4.762-12.928H551.331Z" fill="#3f3d56"/>
      <path id="Path_218" data-name="Path 218" d="M798.135,448.323c-.352,1.5-1.681,3.092-4.683,4.593-10.774,5.387-32.681-1.436-32.681-1.436s-16.879-2.873-16.879-10.415a13.472,13.472,0,0,1,1.48-.88c4.53-2.4,19.548-8.31,46.178.25a11.106,11.106,0,0,1,5.062,3.317,5.3,5.3,0,0,1,1.523,4.57Z" transform="translate(-168.5 -36.643)" fill="#3f3d56"/>
      <path id="Path_219" data-name="Path 219" d="M798.135,448.323c-13.187,5.053-24.941,5.43-37-2.948-6.084-4.223-11.611-5.268-15.758-5.189,4.53-2.4,19.548-8.31,46.178.25a11.106,11.106,0,0,1,5.062,3.317,5.3,5.3,0,0,1,1.523,4.57Z" transform="translate(-168.5 -36.643)" opacity="0.1"/>
      <ellipse id="Ellipse_58" data-name="Ellipse 58" cx="4.669" cy="1.437" rx="4.669" ry="1.437" transform="translate(608.432 405.859)" fill="#f2f2f2"/>
      <path id="Path_220" data-name="Path 220" d="M555.281,415.2v3.592H362.071v-2.873l.266-.719Z" opacity="0.1"/>
      <circle id="Ellipse_59" data-name="Ellipse 59" cx="38.247" cy="38.247" r="38.247" transform="translate(356.392 117.648)" fill="#ffb9b9"/>
      <path id="Path_222" data-name="Path 222" d="M534.957,211.661V272.05h62.4s-8.052-50.325-4.026-65.422Z" transform="translate(-168.5 -36.643)" fill="#ffb9b9"/>
      <path id="Path_223" data-name="Path 223" d="M658.756,293.187s-59.383-29.188-59.383-31.2-6.039-15.1-10.065-15.1-38.247-11.071-57.37,5.032L529.925,265l-73.474,48.312,20.13,73.474s13.084,14.091,9.058,24.156,3.019,61.4,3.019,61.4l158.019-5.032V398.868s5.032-16.1,8.052-21.136,0-20.13,0-20.13l24.156-30.195S675.866,299.225,658.756,293.187Z" transform="translate(-168.5 -36.643)" fill="#d0cde1"/>
      <path id="Path_224" data-name="Path 224" d="M458.967,337.975l4.529-24.659S437.328,427.05,440.347,440.134s25.162,33.214,28.182,34.221,31.2-86.558,31.2-86.558Z" transform="translate(-168.5 -36.643)" opacity="0.1"/>
      <path id="Path_225" data-name="Path 225" d="M473.561,310.3l-17.11,3.019S430.282,427.05,433.3,440.134s25.162,33.214,28.182,34.221,31.2-86.558,31.2-86.558Z" transform="translate(-168.5 -36.643)" fill="#d0cde1"/>
      <path id="Path_226" data-name="Path 226" d="M664.291,344.014l8.555-16.607s12.078,113.734,4.026,124.8-39.9,15.214-39.9,15.214l-.357-82.649Z" transform="translate(-168.5 -36.643)" opacity="0.1"/>
      <path id="Path_227" data-name="Path 227" d="M665.8,314.323l13.084,13.084s12.078,113.734,4.026,124.8-39.9,15.214-39.9,15.214l-.357-82.649Z" transform="translate(-168.5 -36.643)" fill="#d0cde1"/>
      <path id="Path_228" data-name="Path 228" d="M470.542,487.439s-29.188-11.071-34.221,10.065S448.4,613.251,448.4,613.251s11.071,71.461,18.117,73.474,38.247,3.019,43.279-6.039S494.7,579.03,494.7,579.03l116.753-2.013s-7.045,80.519-11.071,87.565-4.026,31.2,0,31.2,48.312-2.013,51.331-8.052,20.13-141.915,20.13-141.915,14.091-47.305-2.013-44.286S470.542,487.439,470.542,487.439Z" transform="translate(-168.5 -36.643)" fill="#3f3d56"/>
      <path id="Path_229" data-name="Path 229" d="M642.652,683.705s10.065-7.045,15.1,0,7.045,15.1-15.1,27.175-39.253,9.058-39.253,7.045V688.738Z" transform="translate(-168.5 -36.643)" fill="#2f2e41"/>
      <path id="Path_230" data-name="Path 230" d="M468.529,680.686s-10.065-7.045-15.1,0-7.045,15.1,15.1,27.175,39.253,9.058,39.253,7.045V685.718Z" transform="translate(-168.5 -36.643)" fill="#2f2e41"/>
      <path id="Path_231" data-name="Path 231" d="M563.387,144.312a32.347,32.347,0,0,0-11.234,1.6,43.428,43.428,0,0,0-8,4.234l-16.885,10.5a7.908,7.908,0,0,0-4.766,7.37l-2.11,15.8c-.532,3.988-1.023,8.252.762,11.858,1.49,3.009,4.331,5.069,6.668,7.48a27.456,27.456,0,0,1,7.236,14.061c1.208,6.6.435,14.542,5.656,18.753,2.827,2.28,6.68,2.711,10.306,2.923a153.787,153.787,0,0,0,29.7-1.143,11.819,11.819,0,0,0,4.487-1.257c1.775-1.05,2.892-2.9,3.937-4.681,3.771-6.42,7.657-13.249,7.616-20.694-.02-3.683-.963-7.639.806-10.87A42.5,42.5,0,0,1,600.6,196.3c2.19-3.077,2.616-7.03,2.973-10.79,1.14-12.009-.052-21.147-8.9-29.606C586.41,148.011,574.654,144.385,563.387,144.312Z" transform="translate(-168.5 -36.643)" fill="#2f2e41"/>
      <path id="Path_232" data-name="Path 232" d="M300.937,569.7,267.346,740.458h16.795L316.333,572.5Z" fill="#2f2e41"/>
      <path id="Path_233" data-name="Path 233" d="M408.708,583.7,429.7,779.648h14L431.1,578.1Z" fill="#2f2e41"/>
      <path id="Path_234" data-name="Path 234" d="M466.093,578.1l29.392,130.166h14L481.489,575.3Z" fill="#2f2e41"/>
      <path id="Path_235" data-name="Path 235" d="M354.123,578.1l-4.2,103.573h11.2l8.4-103.573Z" fill="#2f2e41"/>
      <path id="Path_236" data-name="Path 236" d="M445.643,588.151s-22.394-149.76,40.589-153.959,152.56,0,152.56,0,51.786-4.2,36.39,153.959c0,0,14,46.188-111.97,41.989S445.643,588.151,445.643,588.151Z" transform="translate(-168.5 -36.643)" fill="#4267b2"/>
      <path id="Path_237" data-name="Path 237" d="M1019.5,649.308c0,26.115-15.525,35.234-34.676,35.234s-34.676-9.118-34.676-35.234,34.676-59.338,34.676-59.338S1019.5,623.193,1019.5,649.308Z" transform="translate(-168.5 -36.643)" fill="#3ecc5f"/>
      <path id="Path_238" data-name="Path 238" d="M815.416,622.048,830.2,595.009l-14.724,23.61.16-9.827,10.186-19.563-10.144,16.962.287-17.675,10.908-15.574-10.863,12.795.18-32.41-1.079,41.067L804.06,577.487l10.912,20.372-1.033,19.74-.031-.524-12.785-17.863,12.746,19.714-.129,2.469-.023.037.011.2-2.622,26.342h3.5l.42-2.128,12.715-19.667L815.06,643.9Z" fill="#3f3d56"/>
      <path id="Path_239" data-name="Path 239" d="M838.47,704.549H797.129l-10.684-60.386h60.386Z" fill="#2f2e41"/>
      <rect id="Rectangle_121" data-name="Rectangle 121" width="86" height="100.828" transform="translate(145 296.3)" fill="#3f3d56"/>
      <rect id="Rectangle_122" data-name="Rectangle 122" width="59.31" height="69.536" transform="translate(158.345 311.946)" fill="#f2f2f2"/>
    </g>
    <g id="docusaurus_keytar" transform="translate(694.271 454.762)">
      <path id="Path_40" data-name="Path 40" d="M99,52h19.822v8.023H99Z" transform="translate(-76.346 -43.794)" fill="#fff" fill-rule="evenodd"/>
      <path id="Path_41" data-name="Path 41" d="M7.72,155.36A4.714,4.714,0,0,1,3.636,153a4.714,4.714,0,0,0,4.083,7.079h4.72v-4.72Z" transform="translate(-3 -120.96)" fill="#3ecc5f" fill-rule="evenodd"/>
      <path id="Path_42" data-name="Path 42" d="M39.822,26.7l16.523-1.033v-2.36a4.72,4.72,0,0,0-4.72-4.72H30.388l-.59-1.022a.681.681,0,0,0-1.18,0l-.59,1.022-.59-1.022a.681.681,0,0,0-1.18,0l-.59,1.022-.59-1.022a.681.681,0,0,0-1.18,0l-.59,1.022h-.015l-.977-.977a.681.681,0,0,0-1.139.305l-.323,1.2-1.225-.328a.681.681,0,0,0-.834.834l.328,1.225-1.2.323a.681.681,0,0,0-.306,1.14l.977.977s0,.01,0,.015l-1.022.59a.681.681,0,0,0,0,1.18l1.022.59-1.022.59a.681.681,0,0,0,0,1.18l1.022.59-1.022.59a.681.681,0,0,0,0,1.18l1.022.59-1.022.59a.681.681,0,0,0,0,1.18l1.022.59-1.022.59a.681.681,0,0,0,0,1.18l1.022.59-1.022.59a.681.681,0,0,0,0,1.18l1.022.59-1.022.59a.681.681,0,0,0,0,1.18l1.022.59-1.022.59a.681.681,0,0,0,0,1.18l1.022.59-1.022.59a.681.681,0,0,0,0,1.18l1.022.59-1.022.59a.681.681,0,0,0,0,1.18l1.022.59-1.022.59a.681.681,0,0,0,0,1.18l1.022.59-1.022.59a.681.681,0,0,0,0,1.18l1.022.59a4.72,4.72,0,0,0,4.72,4.72H51.626a4.719,4.719,0,0,0,4.72-4.72V32.748L39.822,31.715a2.512,2.512,0,0,1,0-5.014" transform="translate(-13.869 -17.226)" fill="#3ecc5f" fill-rule="evenodd"/>
      <path id="Path_43" data-name="Path 43" d="M143,152.439h7.079V143H143Z" transform="translate(-109.963 -113.32)" fill="#3ecc5f" fill-rule="evenodd"/>
      <path id="Path_44" data-name="Path 44" d="M162.439,142.72a1.173,1.173,0,0,0-.151.015c-.009-.035-.017-.071-.027-.106A1.178,1.178,0,1,0,161.1,140.6l-.079-.079a1.178,1.178,0,1,0-2.027-1.167l-.1-.027a1.181,1.181,0,1,0-2.33,0l-.105.027a1.179,1.179,0,1,0-2.027,1.167,4.717,4.717,0,1,0,7.865,4.539,1.177,1.177,0,1,0,.151-2.345" transform="translate(-117.603 -109.5)" fill="#44d860" fill-rule="evenodd"/>
      <path id="Path_45" data-name="Path 45" d="M153,107.72h7.079V103H153Z" transform="translate(-117.603 -82.759)" fill="#3ecc5f" fill-rule="evenodd"/>
      <path id="Path_46" data-name="Path 46" d="M177.72,105.076a.59.59,0,1,0,0-1.18.607.607,0,0,0-.075.008c0-.018-.009-.035-.014-.053a.59.59,0,0,0-.227-1.134.583.583,0,0,0-.356.122l-.04-.04a.584.584,0,0,0,.119-.353.59.59,0,0,0-1.133-.231,2.36,2.36,0,1,0,0,4.542.59.59,0,0,0,1.133-.231.584.584,0,0,0-.119-.353l.04-.04a.583.583,0,0,0,.356.122.59.59,0,0,0,.227-1.134c0-.017.009-.035.014-.053a.607.607,0,0,0,.075.008" transform="translate(-132.883 -81.885)" fill="#44d860" fill-rule="evenodd"/>
      <path id="Path_47" data-name="Path 47" d="M45.81,44.04a.59.59,0,0,1-.59-.59,1.77,1.77,0,1,0-3.54,0,.59.59,0,0,1-1.18,0,2.95,2.95,0,1,1,5.9,0,.59.59,0,0,1-.59.59" transform="translate(-31.651 -35.008)" fill-rule="evenodd"/>
      <path id="Path_48" data-name="Path 48" d="M103,114.238h14.159a4.72,4.72,0,0,0,4.72-4.72V93H107.72A4.72,4.72,0,0,0,103,97.72Z" transform="translate(-79.402 -75.119)" fill="#ffff50" fill-rule="evenodd"/>
      <path id="Path_49" data-name="Path 49" d="M125.219,76.33H113.411a.236.236,0,1,1,0-.472h11.808a.236.236,0,0,1,0,.472m0,4.72H113.411a.236.236,0,1,1,0-.472h11.808a.236.236,0,0,1,0,.472m0,4.72H113.411a.236.236,0,1,1,0-.472h11.808a.236.236,0,0,1,0,.472m0-11.755H113.411a.236.236,0,1,1,0-.472h11.808a.236.236,0,0,1,0,.472m0,4.676H113.411a.236.236,0,1,1,0-.472h11.808a.236.236,0,0,1,0,.472m0,4.72H113.411a.236.236,0,1,1,0-.472h11.808a.236.236,0,0,1,0,.472m3.535-21.8h-.008c-.729.025-1.074.754-1.379,1.4-.318.673-.563,1.11-.966,1.1-.446-.016-.7-.52-.971-1.052-.31-.612-.664-1.306-1.407-1.28-.719.025-1.065.659-1.37,1.219-.325.6-.546.959-.972.942-.455-.017-.7-.426-.976-.9-.312-.528-.672-1.121-1.4-1.1-.707.024-1.054.563-1.36,1.038-.324.5-.551.809-.983.791-.466-.017-.706-.356-.984-.75a1.614,1.614,0,0,0-1.391-.918,1.733,1.733,0,0,0-1.344.854c-.291.369-.518.661-1,.643a.236.236,0,1,0-.017.472,1.63,1.63,0,0,0,1.386-.823c.278-.353.518-.658.989-.674.455-.019.668.263.99.719a1.729,1.729,0,0,0,1.352.949c.732.025,1.085-.523,1.4-1.007.279-.433.52-.806.979-.822.423-.016.653.319.978.869.306.518.653,1.106,1.366,1.132.737.025,1.094-.618,1.4-1.188.269-.493.522-.958.972-.974.423-.01.644.376.97,1.022.3.6.651,1.285,1.375,1.311h.04c.723,0,1.066-.726,1.37-1.367.269-.569.523-1.1.96-1.126Z" transform="translate(-86.278 -51.133)" fill-rule="evenodd"/>
      <path id="Path_50" data-name="Path 50" d="M83,152.439h9.439V143H83Z" transform="translate(-64.122 -113.32)" fill="#3ecc5f" fill-rule="evenodd"/>
      <g id="Group_8" data-name="Group 8" transform="matrix(0.966, -0.259, 0.259, 0.966, 23.609, 19.67)">
        <rect id="Rectangle_3" data-name="Rectangle 3" width="19.946" height="7.874" rx="2" transform="translate(0 0)" fill="#d8d8d8"/>
        <g id="Group_2" data-name="Group 2" transform="translate(0.331 4.973)">
          <rect id="Rectangle_4" data-name="Rectangle 4" width="1.152" height="1.152" rx="0.576" transform="translate(3.627 0)" fill="#4a4a4a"/>
          <rect id="Rectangle_5" data-name="Rectangle 5" width="1.152" height="1.152" rx="0.576" transform="translate(4.993 0)" fill="#4a4a4a"/>
          <rect id="Rectangle_6" data-name="Rectangle 6" width="1.152" height="1.152" rx="0.576" transform="translate(6.358 0)" fill="#4a4a4a"/>
          <rect id="Rectangle_7" data-name="Rectangle 7" width="1.152" height="1.152" rx="0.576" transform="translate(7.724 0)" fill="#4a4a4a"/>
          <rect id="Rectangle_8" data-name="Rectangle 8" width="1.152" height="1.152" rx="0.576" transform="translate(9.09 0)" fill="#4a4a4a"/>
          <rect id="Rectangle_9" data-name="Rectangle 9" width="1.152" height="1.152" rx="0.576" transform="translate(10.455 0)" fill="#4a4a4a"/>
          <rect id="Rectangle_10" data-name="Rectangle 10" width="1.152" height="1.152" rx="0.576" transform="translate(11.821 0)" fill="#4a4a4a"/>
          <rect id="Rectangle_11" data-name="Rectangle 11" width="1.152" height="1.152" rx="0.576" transform="translate(13.187 0)" fill="#4a4a4a"/>
          <rect id="Rectangle_12" data-name="Rectangle 12" width="1.152" height="1.152" rx="0.576" transform="translate(14.552 0)" fill="#4a4a4a"/>
          <path id="Path_51" data-name="Path 51" d="M.236,0h2.9a.236.236,0,0,1,.236.236v.68a.236.236,0,0,1-.236.236H.236A.236.236,0,0,1,0,.916V.236A.236.236,0,0,1,.236,0ZM16.2,0h2.9a.236.236,0,0,1,.236.236v.68a.236.236,0,0,1-.236.236H16.2A.236.236,0,0,1,15.96.916V.236A.236.236,0,0,1,16.2,0Z" transform="translate(0 0)" fill="#4a4a4a" fill-rule="evenodd"/>
        </g>
        <g id="Group_3" data-name="Group 3" transform="translate(0.331 2.216)">
          <path id="Path_52" data-name="Path 52" d="M.236,0H1.343a.236.236,0,0,1,.236.236v.68a.236.236,0,0,1-.236.236H.236A.236.236,0,0,1,0,.916V.236A.236.236,0,0,1,.236,0Z" transform="translate(0 0)" fill="#4a4a4a" fill-rule="evenodd"/>
          <rect id="Rectangle_13" data-name="Rectangle 13" width="1.152" height="1.152" rx="0.576" transform="translate(1.792 0)" fill="#4a4a4a"/>
          <rect id="Rectangle_14" data-name="Rectangle 14" width="1.152" height="1.152" rx="0.576" transform="translate(3.158 0)" fill="#4a4a4a"/>
          <rect id="Rectangle_15" data-name="Rectangle 15" width="1.152" height="1.152" rx="0.576" transform="translate(4.524 0)" fill="#4a4a4a"/>
          <rect id="Rectangle_16" data-name="Rectangle 16" width="1.152" height="1.152" rx="0.576" transform="translate(5.889 0)" fill="#4a4a4a"/>
          <rect id="Rectangle_17" data-name="Rectangle 17" width="1.152" height="1.152" rx="0.576" transform="translate(7.255 0)" fill="#4a4a4a"/>
          <rect id="Rectangle_18" data-name="Rectangle 18" width="1.152" height="1.152" rx="0.576" transform="translate(8.62 0)" fill="#4a4a4a"/>
          <rect id="Rectangle_19" data-name="Rectangle 19" width="1.152" height="1.152" rx="0.576" transform="translate(9.986 0)" fill="#4a4a4a"/>
          <rect id="Rectangle_20" data-name="Rectangle 20" width="1.152" height="1.152" rx="0.576" transform="translate(11.352 0)" fill="#4a4a4a"/>
          <rect id="Rectangle_21" data-name="Rectangle 21" width="1.152" height="1.152" rx="0.576" transform="translate(12.717 0)" fill="#4a4a4a"/>
          <rect id="Rectangle_22" data-name="Rectangle 22" width="1.152" height="1.152" rx="0.576" transform="translate(14.083 0)" fill="#4a4a4a"/>
          <rect id="Rectangle_23" data-name="Rectangle 23" width="1.152" height="1.152" rx="0.576" transform="translate(15.448 0)" fill="#4a4a4a"/>
          <rect id="Rectangle_24" data-name="Rectangle 24" width="1.152" height="1.152" rx="0.576" transform="translate(16.814 0)" fill="#4a4a4a"/>
          <rect id="Rectangle_25" data-name="Rectangle 25" width="1.152" height="1.152" rx="0.576" transform="translate(18.179 0)" fill="#4a4a4a"/>
        </g>
        <g id="Group_4" data-name="Group 4" transform="translate(19.662 2.062) rotate(180)">
          <path id="Path_53" data-name="Path 53" d="M.236,0H1.343a.236.236,0,0,1,.236.236v.68a.236.236,0,0,1-.236.236H.236A.236.236,0,0,1,0,.916V.236A.236.236,0,0,1,.236,0Z" transform="translate(0 0)" fill="#4a4a4a" fill-rule="evenodd"/>
          <rect id="Rectangle_26" data-name="Rectangle 26" width="1.152" height="1.152" rx="0.576" transform="translate(1.792 0)" fill="#4a4a4a"/>
          <rect id="Rectangle_27" data-name="Rectangle 27" width="1.152" height="1.152" rx="0.576" transform="translate(3.158 0)" fill="#4a4a4a"/>
          <rect id="Rectangle_28" data-name="Rectangle 28" width="1.152" height="1.152" rx="0.576" transform="translate(4.524 0)" fill="#4a4a4a"/>
          <rect id="Rectangle_29" data-name="Rectangle 29" width="1.152" height="1.152" rx="0.576" transform="translate(5.889 0)" fill="#4a4a4a"/>
          <rect id="Rectangle_30" data-name="Rectangle 30" width="1.152" height="1.152" rx="0.576" transform="translate(7.255 0)" fill="#4a4a4a"/>
          <rect id="Rectangle_31" data-name="Rectangle 31" width="1.152" height="1.152" rx="0.576" transform="translate(8.62 0)" fill="#4a4a4a"/>
          <rect id="Rectangle_32" data-name="Rectangle 32" width="1.152" height="1.152" rx="0.576" transform="translate(9.986 0)" fill="#4a4a4a"/>
          <rect id="Rectangle_33" data-name="Rectangle 33" width="1.152" height="1.152" rx="0.576" transform="translate(11.352 0)" fill="#4a4a4a"/>
          <rect id="Rectangle_34" data-name="Rectangle 34" width="1.152" height="1.152" rx="0.576" transform="translate(12.717 0)" fill="#4a4a4a"/>
          <rect id="Rectangle_35" data-name="Rectangle 35" width="1.152" height="1.152" rx="0.576" transform="translate(14.083 0)" fill="#4a4a4a"/>
          <rect id="Rectangle_36" data-name="Rectangle 36" width="1.152" height="1.152" rx="0.576" transform="translate(15.448 0)" fill="#4a4a4a"/>
          <rect id="Rectangle_37" data-name="Rectangle 37" width="1.152" height="1.152" rx="0.576" transform="translate(16.814 0)" fill="#4a4a4a"/>
          <rect id="Rectangle_38" data-name="Rectangle 38" width="1.152" height="1.152" rx="0.576" transform="translate(18.179 0)" fill="#4a4a4a"/>
          <rect id="Rectangle_39" data-name="Rectangle 39" width="1.152" height="1.152" rx="0.576" transform="translate(1.792 0)" fill="#4a4a4a"/>
          <rect id="Rectangle_40" data-name="Rectangle 40" width="1.152" height="1.152" rx="0.576" transform="translate(3.158 0)" fill="#4a4a4a"/>
          <rect id="Rectangle_41" data-name="Rectangle 41" width="1.152" height="1.152" rx="0.576" transform="translate(4.524 0)" fill="#4a4a4a"/>
          <rect id="Rectangle_42" data-name="Rectangle 42" width="1.152" height="1.152" rx="0.576" transform="translate(5.889 0)" fill="#4a4a4a"/>
          <rect id="Rectangle_43" data-name="Rectangle 43" width="1.152" height="1.152" rx="0.576" transform="translate(7.255 0)" fill="#4a4a4a"/>
          <rect id="Rectangle_44" data-name="Rectangle 44" width="1.152" height="1.152" rx="0.576" transform="translate(8.62 0)" fill="#4a4a4a"/>
          <rect id="Rectangle_45" data-name="Rectangle 45" width="1.152" height="1.152" rx="0.576" transform="translate(9.986 0)" fill="#4a4a4a"/>
          <rect id="Rectangle_46" data-name="Rectangle 46" width="1.152" height="1.152" rx="0.576" transform="translate(11.352 0)" fill="#4a4a4a"/>
          <rect id="Rectangle_47" data-name="Rectangle 47" width="1.152" height="1.152" rx="0.576" transform="translate(12.717 0)" fill="#4a4a4a"/>
          <rect id="Rectangle_48" data-name="Rectangle 48" width="1.152" height="1.152" rx="0.576" transform="translate(14.083 0)" fill="#4a4a4a"/>
          <rect id="Rectangle_49" data-name="Rectangle 49" width="1.152" height="1.152" rx="0.576" transform="translate(15.448 0)" fill="#4a4a4a"/>
          <rect id="Rectangle_50" data-name="Rectangle 50" width="1.152" height="1.152" rx="0.576" transform="translate(16.814 0)" fill="#4a4a4a"/>
          <rect id="Rectangle_51" data-name="Rectangle 51" width="1.152" height="1.152" rx="0.576" transform="translate(18.179 0)" fill="#4a4a4a"/>
        </g>
        <g id="Group_6" data-name="Group 6" transform="translate(0.331 3.581)">
          <path id="Path_54" data-name="Path 54" d="M.236,0H1.812a.236.236,0,0,1,.236.236v.68a.236.236,0,0,1-.236.236H.236A.236.236,0,0,1,0,.916V.236A.236.236,0,0,1,.236,0Z" transform="translate(0 0)" fill="#4a4a4a" fill-rule="evenodd"/>
          <g id="Group_5" data-name="Group 5" transform="translate(2.304 0)">
            <rect id="Rectangle_52" data-name="Rectangle 52" width="1.152" height="1.152" rx="0.576" transform="translate(0 0)" fill="#4a4a4a"/>
            <rect id="Rectangle_53" data-name="Rectangle 53" width="1.152" height="1.152" rx="0.576" transform="translate(1.366 0)" fill="#4a4a4a"/>
            <rect id="Rectangle_54" data-name="Rectangle 54" width="1.152" height="1.152" rx="0.576" transform="translate(2.731 0)" fill="#4a4a4a"/>
            <rect id="Rectangle_55" data-name="Rectangle 55" width="1.152" height="1.152" rx="0.576" transform="translate(4.097 0)" fill="#4a4a4a"/>
            <rect id="Rectangle_56" data-name="Rectangle 56" width="1.152" height="1.152" rx="0.576" transform="translate(5.462 0)" fill="#4a4a4a"/>
            <rect id="Rectangle_57" data-name="Rectangle 57" width="1.152" height="1.152" rx="0.576" transform="translate(6.828 0)" fill="#4a4a4a"/>
            <rect id="Rectangle_58" data-name="Rectangle 58" width="1.152" height="1.152" rx="0.576" transform="translate(8.194 0)" fill="#4a4a4a"/>
            <rect id="Rectangle_59" data-name="Rectangle 59" width="1.152" height="1.152" rx="0.576" transform="translate(9.559 0)" fill="#4a4a4a"/>
            <rect id="Rectangle_60" data-name="Rectangle 60" width="1.152" height="1.152" rx="0.576" transform="translate(10.925 0)" fill="#4a4a4a"/>
            <rect id="Rectangle_61" data-name="Rectangle 61" width="1.152" height="1.152" rx="0.576" transform="translate(12.29 0)" fill="#4a4a4a"/>
            <rect id="Rectangle_62" data-name="Rectangle 62" width="1.152" height="1.152" rx="0.576" transform="translate(13.656 0)" fill="#4a4a4a"/>
          </g>
          <path id="Path_55" data-name="Path 55" d="M.236,0H1.727a.236.236,0,0,1,.236.236v.68a.236.236,0,0,1-.236.236H.236A.236.236,0,0,1,0,.916V.236A.236.236,0,0,1,.236,0Z" transform="translate(17.369 0)" fill="#4a4a4a" fill-rule="evenodd"/>
        </g>
        <g id="Group_7" data-name="Group 7" transform="translate(0.331 6.398)">
          <rect id="Rectangle_63" data-name="Rectangle 63" width="1.152" height="1.152" rx="0.576" transform="translate(0 0)" fill="#4a4a4a"/>
          <rect id="Rectangle_64" data-name="Rectangle 64" width="1.152" height="1.152" rx="0.576" transform="translate(1.366 0)" fill="#4a4a4a"/>
          <rect id="Rectangle_65" data-name="Rectangle 65" width="1.152" height="1.152" rx="0.576" transform="translate(2.731 0)" fill="#4a4a4a"/>
          <rect id="Rectangle_66" data-name="Rectangle 66" width="1.152" height="1.152" rx="0.576" transform="translate(4.097 0)" fill="#4a4a4a"/>
          <path id="Path_56" data-name="Path 56" d="M.236,0h6.57a.236.236,0,0,1,.236.236V.917a.236.236,0,0,1-.236.236H.236A.236.236,0,0,1,0,.917V.236A.236.236,0,0,1,.236,0ZM7.491,0h.851a.236.236,0,0,1,.236.236V.917a.236.236,0,0,1-.236.236H7.491A.236.236,0,0,1,7.255.917V.236A.236.236,0,0,1,7.491,0Z" transform="translate(5.462 0)" fill="#4a4a4a" fill-rule="evenodd"/>
          <rect id="Rectangle_67" data-name="Rectangle 67" width="1.152" height="1.152" rx="0.576" transform="translate(14.253 0)" fill="#4a4a4a"/>
          <rect id="Rectangle_68" data-name="Rectangle 68" width="1.152" height="1.152" rx="0.576" transform="translate(15.619 0)" fill="#4a4a4a"/>
          <rect id="Rectangle_69" data-name="Rectangle 69" width="1.152" height="1.152" rx="0.576" transform="translate(18.179 0)" fill="#4a4a4a"/>
          <path id="Path_57" data-name="Path 57" d="M1.152,0V.255A.236.236,0,0,1,.916.491H.236A.236.236,0,0,1,0,.255V0Z" transform="translate(18.051 0.491) rotate(180)" fill="#4a4a4a"/>
          <path id="Path_58" data-name="Path 58" d="M1.152,0V.255A.236.236,0,0,1,.916.491H.236A.236.236,0,0,1,0,.255V0Z" transform="translate(16.899 0.661)" fill="#4a4a4a"/>
        </g>
        <rect id="Rectangle_70" data-name="Rectangle 70" width="19.204" height="0.512" rx="0.256" transform="translate(0.416 0.253)" fill="#4a4a4a"/>
        <rect id="Rectangle_71" data-name="Rectangle 71" width="1.077" height="0.341" rx="0.171" transform="translate(0.885 0.338)" fill="#d8d8d8" opacity="0.136"/>
        <rect id="Rectangle_72" data-name="Rectangle 72" width="1.077" height="0.341" rx="0.171" transform="translate(2.359 0.338)" fill="#d8d8d8" opacity="0.136"/>
        <rect id="Rectangle_73" data-name="Rectangle 73" width="1.077" height="0.341" rx="0.171" transform="translate(3.493 0.338)" fill="#d8d8d8" opacity="0.136"/>
        <rect id="Rectangle_74" data-name="Rectangle 74" width="1.077" height="0.341" rx="0.171" transform="translate(4.626 0.338)" fill="#d8d8d8" opacity="0.136"/>
        <rect id="Rectangle_75" data-name="Rectangle 75" width="1.077" height="0.341" rx="0.171" transform="translate(5.76 0.338)" fill="#d8d8d8" opacity="0.136"/>
        <rect id="Rectangle_76" data-name="Rectangle 76" width="1.077" height="0.341" rx="0.171" transform="translate(7.176 0.338)" fill="#d8d8d8" opacity="0.136"/>
        <rect id="Rectangle_77" data-name="Rectangle 77" width="1.077" height="0.341" rx="0.171" transform="translate(8.31 0.338)" fill="#d8d8d8" opacity="0.136"/>
        <rect id="Rectangle_78" data-name="Rectangle 78" width="1.077" height="0.341" rx="0.171" transform="translate(9.443 0.338)" fill="#d8d8d8" opacity="0.136"/>
        <rect id="Rectangle_79" data-name="Rectangle 79" width="1.077" height="0.341" rx="0.171" transform="translate(10.577 0.338)" fill="#d8d8d8" opacity="0.136"/>
        <rect id="Rectangle_80" data-name="Rectangle 80" width="1.077" height="0.341" rx="0.171" transform="translate(11.994 0.338)" fill="#d8d8d8" opacity="0.136"/>
        <rect id="Rectangle_81" data-name="Rectangle 81" width="1.077" height="0.341" rx="0.171" transform="translate(13.127 0.338)" fill="#d8d8d8" opacity="0.136"/>
        <rect id="Rectangle_82" data-name="Rectangle 82" width="1.077" height="0.341" rx="0.171" transform="translate(14.261 0.338)" fill="#d8d8d8" opacity="0.136"/>
        <rect id="Rectangle_83" data-name="Rectangle 83" width="1.077" height="0.341" rx="0.171" transform="translate(15.678 0.338)" fill="#d8d8d8" opacity="0.136"/>
        <rect id="Rectangle_84" data-name="Rectangle 84" width="1.077" height="0.341" rx="0.171" transform="translate(16.811 0.338)" fill="#d8d8d8" opacity="0.136"/>
        <rect id="Rectangle_85" data-name="Rectangle 85" width="1.077" height="0.341" rx="0.171" transform="translate(17.945 0.338)" fill="#d8d8d8" opacity="0.136"/>
      </g>
      <path id="Path_59" data-name="Path 59" d="M112.439,142.72a1.173,1.173,0,0,0-.151.015c-.009-.035-.017-.071-.027-.106A1.178,1.178,0,1,0,111.1,140.6l-.079-.079a1.178,1.178,0,1,0-2.027-1.167l-.105-.027a1.181,1.181,0,1,0-2.33,0l-.105.027a1.179,1.179,0,1,0-2.027,1.167,4.717,4.717,0,1,0,7.865,4.539,1.177,1.177,0,1,0,.151-2.345" transform="translate(-79.402 -109.5)" fill="#44d860" fill-rule="evenodd"/>
      <path id="Path_60" data-name="Path 60" d="M83,107.72h9.439V103H83Z" transform="translate(-64.122 -82.759)" fill="#3ecc5f" fill-rule="evenodd"/>
      <path id="Path_61" data-name="Path 61" d="M117.72,105.076a.59.59,0,1,0,0-1.18.607.607,0,0,0-.075.008c0-.018-.009-.035-.014-.053a.59.59,0,0,0-.227-1.134.584.584,0,0,0-.356.122l-.04-.04a.584.584,0,0,0,.119-.353.59.59,0,0,0-1.133-.231,2.36,2.36,0,1,0,0,4.542.59.59,0,0,0,1.133-.231.584.584,0,0,0-.119-.353l.04-.04a.584.584,0,0,0,.356.122.59.59,0,0,0,.227-1.134c0-.017.009-.035.014-.053a.6.6,0,0,0,.075.008" transform="translate(-87.042 -81.885)" fill="#44d860" fill-rule="evenodd"/>
      <path id="Path_62" data-name="Path 62" d="M141.09,36.973a.641.641,0,0,1-.116-.012.6.6,0,0,1-.111-.033.612.612,0,0,1-.1-.054.893.893,0,0,1-.09-.073.693.693,0,0,1-.073-.09.582.582,0,0,1-.1-.328.642.642,0,0,1,.012-.116.68.68,0,0,1,.033-.111.621.621,0,0,1,.054-.1.569.569,0,0,1,.163-.163.612.612,0,0,1,.1-.054.593.593,0,0,1,.111-.033.546.546,0,0,1,.231,0,.573.573,0,0,1,.212.087.894.894,0,0,1,.09.073.87.87,0,0,1,.073.09.6.6,0,0,1,.054.1.618.618,0,0,1,.045.227.6.6,0,0,1-.172.418.9.9,0,0,1-.09.073.588.588,0,0,1-.328.1m4.72-.295a.6.6,0,0,1-.418-.172.894.894,0,0,1-.073-.09.583.583,0,0,1-.1-.328.6.6,0,0,1,.172-.418.894.894,0,0,1,.09-.073.613.613,0,0,1,.1-.054.594.594,0,0,1,.111-.033.546.546,0,0,1,.231,0,.573.573,0,0,1,.212.087.893.893,0,0,1,.09.073.6.6,0,0,1,.172.418.662.662,0,0,1-.012.116.6.6,0,0,1-.033.111.836.836,0,0,1-.054.1.866.866,0,0,1-.073.09.893.893,0,0,1-.09.073.588.588,0,0,1-.328.1" transform="translate(-108.053 -31.186)" fill-rule="evenodd"/>
    </g>
    <g id="flogo_RGB_HEX-72" transform="translate(1048 326)">
      <path id="Path_240" data-name="Path 240" d="M68,0H4A4,4,0,0,0,0,4V68a4,4,0,0,0,4,4H38.46V44.16H29.11V33.26h9.35v-8c0-9.3,5.68-14.37,14-14.37a77.458,77.458,0,0,1,8.38.43V21H55.1c-4.51,0-5.39,2.15-5.39,5.3v6.94H60.5l-1.4,10.9H49.71V72H68a4,4,0,0,0,4-4V4A4,4,0,0,0,68,0Z" fill="#4267b2"/>
      <path id="f" d="M49.71,72V44.16H59.1l1.4-10.9H49.71V26.32c0-3.15.88-5.3,5.39-5.3h5.72V11.3a77.456,77.456,0,0,0-8.38-.43c-8.3,0-14,5.07-14,14.37v8H29.11v10.9h9.35V72Z" fill="#fff"/>
    </g>
  </g>
</svg>
