<svg xmlns="http://www.w3.org/2000/svg" width="1126.194" height="855" viewBox="0 0 1126.194 855">
  <g id="Group_1" data-name="Group 1" transform="translate(0)">
    <path id="Path_1" data-name="Path 1" d="M581.768,778.438C339.369,759.991,50.3,572.172,65.014,378.781S359.7,5.358,602.1,23.805,984.031,403.667,969.314,597.058,824.166,796.885,581.768,778.438Z" transform="translate(-36.903 -22.5)" fill="#f2f2f2"/>
    <ellipse id="Ellipse_1" data-name="Ellipse 1" cx="506" cy="31" rx="506" ry="31" transform="translate(59.194 725)" fill="#3f3d56"/>
    <ellipse id="Ellipse_2" data-name="Ellipse 2" cx="431" cy="20.5" rx="431" ry="20.5" transform="translate(134.194 735)" opacity="0.1"/>
    <ellipse id="Ellipse_3" data-name="Ellipse 3" cx="212.194" cy="18.5" rx="212.194" ry="18.5" transform="translate(0 818)" fill="#3f3d56"/>
    <ellipse id="Ellipse_4" data-name="Ellipse 4" cx="180.742" cy="12.234" rx="180.742" ry="12.234" transform="translate(31.452 823.968)" opacity="0.1"/>
    <rect id="Rectangle_1" data-name="Rectangle 1" width="752" height="590" transform="translate(196.194 162)" fill="#3f3d56"/>
    <path id="Path_2" data-name="Path 2" d="M600.541,265.129H415.024a2.251,2.251,0,1,1,0-4.5H600.541a2.251,2.251,0,0,1,0,4.5Z" transform="translate(-36.903 -22.5)" fill="#f2f2f2"/>
    <path id="Path_3" data-name="Path 3" d="M803.62,289.895H511.835a2.251,2.251,0,0,1,0-4.5H803.62a2.251,2.251,0,0,1,0,4.5Z" transform="translate(-36.903 -22.5)" fill="#f2f2f2"/>
    <path id="Path_4" data-name="Path 4" d="M601.442,314.661H415.924a2.251,2.251,0,1,1,0-4.5H601.442a2.251,2.251,0,1,1,0,4.5Z" transform="translate(-36.903 -22.5)" fill="#f2f2f2"/>
    <path id="Path_5" data-name="Path 5" d="M803.62,315.111H618.1a2.251,2.251,0,0,1,0-4.5H803.62a2.251,2.251,0,0,1,0,4.5Z" transform="translate(-36.903 -22.5)" fill="#f2f2f2"/>
    <path id="Path_6" data-name="Path 6" d="M601.892,339.426H416.374a2.251,2.251,0,1,1,0-4.5H601.892a2.251,2.251,0,1,1,0,4.5Z" transform="translate(-36.903 -22.5)" fill="#f2f2f2"/>
    <path id="Path_7" data-name="Path 7" d="M602.342,364.192H416.825a2.251,2.251,0,0,1,0-4.5H602.342a2.251,2.251,0,1,1,0,4.5Z" transform="translate(-36.903 -22.5)" fill="#f2f2f2"/>
    <path id="Path_8" data-name="Path 8" d="M686.546,265.579H633.412a2.251,2.251,0,1,1,0-4.5h53.134a2.251,2.251,0,0,1,0,4.5Z" transform="translate(-36.903 -22.5)" fill="#f2f2f2"/>
    <path id="Path_9" data-name="Path 9" d="M686.546,339.426H633.412a2.251,2.251,0,1,1,0-4.5h53.134a2.251,2.251,0,0,1,0,4.5Z" transform="translate(-36.903 -22.5)" fill="#f2f2f2"/>
    <path id="Path_10" data-name="Path 10" d="M686.546,363.742H633.412a2.251,2.251,0,0,1,0-4.5h53.134a2.251,2.251,0,0,1,0,4.5Z" transform="translate(-36.903 -22.5)" fill="#f2f2f2"/>
    <path id="Path_11" data-name="Path 11" d="M775.7,363.742H722.569a2.251,2.251,0,0,1,0-4.5H775.7a2.251,2.251,0,0,1,0,4.5Z" transform="translate(-36.903 -22.5)" fill="#f2f2f2"/>
    <path id="Path_12" data-name="Path 12" d="M467.707,289.895H414.573a2.251,2.251,0,1,1,0-4.5h53.134a2.251,2.251,0,0,1,0,4.5Z" transform="translate(-36.903 -22.5)" fill="#f2f2f2"/>
    <path id="Path_13" data-name="Path 13" d="M600.766,629.861H415.249a2.251,2.251,0,1,1,0-4.5H600.766a2.251,2.251,0,1,1,0,4.5Z" transform="translate(-36.903 -22.5)" fill="#f2f2f2"/>
    <path id="Path_14" data-name="Path 14" d="M599.866,679.392H414.348a2.251,2.251,0,1,1,0-4.5H599.866a2.251,2.251,0,0,1,0,4.5Z" transform="translate(-36.903 -22.5)" fill="#f2f2f2"/>
    <path id="Path_15" data-name="Path 15" d="M600.316,704.158H414.8a2.251,2.251,0,1,1,0-4.5H600.316a2.251,2.251,0,0,1,0,4.5Z" transform="translate(-36.903 -22.5)" fill="#f2f2f2"/>
    <path id="Path_16" data-name="Path 16" d="M679.566,679.842H626.433a2.251,2.251,0,0,1,0-4.5h53.134a2.251,2.251,0,1,1,0,4.5Z" transform="translate(-36.903 -22.5)" fill="#f2f2f2"/>
    <path id="Path_17" data-name="Path 17" d="M679.566,704.158H626.433a2.251,2.251,0,0,1,0-4.5h53.134a2.251,2.251,0,1,1,0,4.5Z" transform="translate(-36.903 -22.5)" fill="#f2f2f2"/>
    <path id="Path_18" data-name="Path 18" d="M768.723,679.842H715.589a2.251,2.251,0,0,1,0-4.5h53.134a2.251,2.251,0,0,1,0,4.5Z" transform="translate(-36.903 -22.5)" fill="#f2f2f2"/>
    <path id="Path_19" data-name="Path 19" d="M803.845,654.626H512.06a2.251,2.251,0,1,1,0-4.5H803.845a2.251,2.251,0,1,1,0,4.5Z" transform="translate(-36.903 -22.5)" fill="#f2f2f2"/>
    <path id="Path_20" data-name="Path 20" d="M467.932,654.626H414.8a2.251,2.251,0,1,1,0-4.5h53.134a2.251,2.251,0,1,1,0,4.5Z" transform="translate(-36.903 -22.5)" fill="#f2f2f2"/>
    <path id="Path_21" data-name="Path 21" d="M803.845,729.374H512.06a2.251,2.251,0,1,1,0-4.5H803.845a2.251,2.251,0,1,1,0,4.5Z" transform="translate(-36.903 -22.5)" fill="#f2f2f2"/>
    <path id="Path_22" data-name="Path 22" d="M467.932,729.374H414.8a2.251,2.251,0,1,1,0-4.5h53.134a2.251,2.251,0,1,1,0,4.5Z" transform="translate(-36.903 -22.5)" fill="#f2f2f2"/>
    <circle id="Ellipse_5" data-name="Ellipse 5" cx="9" cy="9" r="9" transform="translate(207.194 168)" fill="#3ecc5f"/>
    <circle id="Ellipse_6" data-name="Ellipse 6" cx="9" cy="9" r="9" transform="translate(231.194 168)" fill="#3ecc5f"/>
    <circle id="Ellipse_7" data-name="Ellipse 7" cx="9" cy="9" r="9" transform="translate(255.194 168)" fill="#3ecc5f"/>
    <rect id="Rectangle_2" data-name="Rectangle 2" width="752" height="3" transform="translate(196.194 192)" opacity="0.1"/>
    <path id="Path_25" data-name="Path 25" d="M1163.1,629.954c0,63.771-37.911,86.038-84.676,86.038s-84.676-22.266-84.676-86.038,84.676-144.9,84.676-144.9S1163.1,566.182,1163.1,629.954Z" transform="translate(-36.903 -22.5)" fill="#3ecc5f"/>
    <path id="Path_26" data-name="Path 26" d="M1038.433,683.736l.867-53.371,36.091-66.027-35.955,57.655.39-24,24.873-47.769-24.77,41.419h0l.7-43.161,26.635-38.031L1040.74,541.7l.438-79.141-2.753,104.769.226-4.322-27.08-41.451,26.646,49.748-2.523,48.2-.075-1.28L1004.4,574.6l31.124,48.141-.315,6.028-.057.091.026.495-6.4,122.3h8.553l1.026-63.168,31.049-48.024Z" fill="#3f3d56"/>
    <path id="Path_27" data-name="Path 27" d="M159.525,773.591a43.118,43.118,0,0,1-8.178,3.5c-5.079,1.387-10.507.878-15.637,2.063-2.1.485-4.386,1.5-5.054,3.549-.49,1.5.043,3.127.553,4.623,5.669,16.62,9.085,34.266,18.125,49.32a74.64,74.64,0,0,0,13.993,16.988c2.055,1.852,4.384,3.664,7.135,3.955a7.248,7.248,0,0,0,7.371-10.182c-.811-1.8-2.317-3.2-3.289-4.916a18.757,18.757,0,0,1-1.819-6.991c-.893-7.108-1.753-14.538.709-21.265,1.652-4.512,4.682-8.359,7.206-12.448s4.622-8.772,4.06-13.544c-.383-3.257-1.972-6.237-3.65-9.054s-5-10.408-8.383-11.35C169.16,766.864,162.583,772.024,159.525,773.591Z" transform="translate(-36.903 -22.5)" fill="#2f2e41"/>
    <path id="Path_28" data-name="Path 28" d="M251.96,831a14.019,14.019,0,0,1-.663,4.745c-1.058,2.793-3.681,4.706-5.036,7.367-1.885,3.7-1.031,8.174.218,12.135.783,2.483,1.81,5.067,3.912,6.6a12.894,12.894,0,0,0,5.954,1.907c18.036,2.5,36.358,1.064,54.559,1.587,3.317.1,6.829.211,9.725-1.41s4.686-5.7,2.717-8.368c-1.769-2.4-5.265-2.376-8.242-2.518a33.912,33.912,0,0,1-20.913-8.615,15.11,15.11,0,0,1-2.933-3.377,20.753,20.753,0,0,1-1.534-3.518,156.8,156.8,0,0,0-9.084-20.119c-.979-1.815-2.087-3.7-3.906-4.676a10.322,10.322,0,0,0-4.239-.926c-4.536-.294-16.283-1.838-19.791,1.69C249.461,816.768,252.032,826.86,251.96,831Z" transform="translate(-36.903 -22.5)" fill="#2f2e41"/>
    <circle id="Ellipse_8" data-name="Ellipse 8" cx="28.975" cy="28.975" r="28.975" transform="translate(213.996 347.745)" fill="#fbbebe"/>
    <path id="Path_29" data-name="Path 29" d="M253.709,423.146c-1.723,4.614-4.647,8.947-8.9,11.43l40.075,8.175a42.453,42.453,0,0,1-.562-17.869,10.3,10.3,0,0,0,.24-4.409c-.754-2.907-4.026-4.307-6.955-4.974-7.314-1.667-13.782-2.561-20.579-5.792C254.95,413.263,255.241,419.045,253.709,423.146Z" transform="translate(-36.903 -22.5)" fill="#fbbebe"/>
    <path id="Path_30" data-name="Path 30" d="M244.474,423.727a31.338,31.338,0,0,1,27.313.714c5.138,2.707,9.392,6.794,13.572,10.826,3.853,3.717,7.962,7.972,8.236,13.319.132,2.59-.676,5.123-1.084,7.684a25.766,25.766,0,0,0,13.78,26.469c3.184,5.3,3.841,11.729,3.889,17.914.185,23.436-7.209,47.161-1.93,70,1.239,5.361,3.162,10.554,4.232,15.951,1.387,6.991,1.318,14.18,2.044,21.27a95.267,95.267,0,0,0,5.113,22.5c-1.744,2.774-5.374,3.837-8.642,3.613s-6.325-1.643-9.242-3.136c-14.123-7.227-27.059-16.757-41.687-22.9-9.678-4.064-19.987-6.595-29.376-11.288s-18.12-12.142-20.99-22.238c-1.241-4.365-1.318-8.965-1.385-13.5-.285-19.114-.55-38.436,3.61-57.094,3.669-16.454,10.741-32.194,12.284-48.981.5-5.464.513-11.314,3.566-15.873C232.091,432.52,241.409,430.851,244.474,423.727Z" transform="translate(-36.903 -22.5)" fill="#2f2e41"/>
    <path id="Path_31" data-name="Path 31" d="M263.395,399.629c1.707-2.227,5-2.531,7.728-1.872s5.243,2.064,8,2.6a4.675,4.675,0,0,0,3.743-.526,5.444,5.444,0,0,0,1.615-3.57,68.164,68.164,0,0,0,.671-17.38,5.146,5.146,0,0,1,.159-2.437c.682-1.643,2.763-2.035,4.462-2.562a13.316,13.316,0,0,0,9.013-13.633,5.421,5.421,0,0,0-1.657-3.741c-1.175-.958-2.82-1.016-4.336-1.029q-11.683-.094-23.367.006c-2.883.025-5.91.1-8.409,1.533-1.848,1.063-3.222,2.773-4.88,4.112-4.326,3.491-10.178,4.2-15.441,5.991a15.308,15.308,0,0,0-6.768,4.036c-1.75,2-2.592,4.973-1.493,7.393a26.248,26.248,0,0,0,1.887,2.9c3.1,4.964,1.038,11.4,1.5,17.24.579,7.288,11.365,19.112,18.679,20.836C266.308,422.311,259.486,404.414,263.395,399.629Z" transform="translate(-36.903 -22.5)" fill="#2f2e41"/>
    <path id="Path_32" data-name="Path 32" d="M247.038,719.183c.745,5.322,1.7,10.662,1.445,16.029-.357,7.494-3.059,14.714-3.559,22.2-.373,5.591.49,11.242-.287,16.791-.5,3.553-1.656,6.979-2.373,10.494a43.4,43.4,0,0,0,6.973,33.265,5.448,5.448,0,0,0,2.023,1.961,5.715,5.715,0,0,0,2.508.332,179.954,179.954,0,0,0,25.17-2.287,2.415,2.415,0,0,0,1.616-.713,2.266,2.266,0,0,0,.351-.954c1.544-7.936-1.977-15.893-2.872-23.928-.956-8.58,1.1-17.177,3.146-25.565a113.554,113.554,0,0,1,3.467-12.228c.988-2.7,2.181-5.321,3.037-8.063a61.463,61.463,0,0,0,2.2-13.2q.892-10.575.945-21.2a88.956,88.956,0,0,0-1.665-20.01c-1.878-8.338-5.724-16.081-9.536-23.73a15.029,15.029,0,0,0-5.618,2.67,125.379,125.379,0,0,1-15.35,8.481c-3.567,1.657-10.522,2.833-12.786,6.286-2.232,3.4-.792,10.351-.621,14.106Q245.694,709.584,247.038,719.183Z" transform="translate(-36.903 -22.5)" fill="#2f2e41"/>
    <path id="Path_33" data-name="Path 33" d="M247.038,719.183c.745,5.322,1.7,10.662,1.445,16.029-.357,7.494-3.059,14.714-3.559,22.2-.373,5.591.49,11.242-.287,16.791-.5,3.553-1.656,6.979-2.373,10.494a43.4,43.4,0,0,0,6.973,33.265,5.448,5.448,0,0,0,2.023,1.961,5.715,5.715,0,0,0,2.508.332,179.954,179.954,0,0,0,25.17-2.287,2.415,2.415,0,0,0,1.616-.713,2.266,2.266,0,0,0,.351-.954c1.544-7.936-1.977-15.893-2.872-23.928-.956-8.58,1.1-17.177,3.146-25.565a113.554,113.554,0,0,1,3.467-12.228c.988-2.7,2.181-5.321,3.037-8.063a61.463,61.463,0,0,0,2.2-13.2q.892-10.575.945-21.2a88.956,88.956,0,0,0-1.665-20.01c-1.878-8.338-5.724-16.081-9.536-23.73a15.029,15.029,0,0,0-5.618,2.67,125.379,125.379,0,0,1-15.35,8.481c-3.567,1.657-10.522,2.833-12.786,6.286-2.232,3.4-.792,10.351-.621,14.106Q245.694,709.584,247.038,719.183Z" transform="translate(-36.903 -22.5)" opacity="0.1"/>
    <path id="Path_34" data-name="Path 34" d="M207.864,605.518c-3.848,10.359,1.808,21.554,6.722,31.452,12.106,24.386,20.513,50.407,28.874,76.317.626,1.941,1.252,4.058.554,5.974a7.825,7.825,0,0,1-2.822,3.347c-5.765,4.379-13.107,5.939-19.975,8.23a90.183,90.183,0,0,0-18.943,8.88c-4.977,3.084-9.639,6.644-14.292,10.2l-14.812,11.313a9.9,9.9,0,0,0-2.476,2.4c-1.429,2.241-.843,5.167-.132,7.728a131.434,131.434,0,0,0,7.252,19.792,6.911,6.911,0,0,0,2.63,3.447c2.312,1.242,5.14-.405,6.905-2.347s3.292-4.359,5.781-5.193,5.222.176,7.818-.189c4.2-.589,6.986-4.457,10.013-7.427,12.365-12.131,33.01-11.251,46.612-21.977a59.227,59.227,0,0,1,6.231-4.868c2.3-1.359,4.907-2.105,7.293-3.307,7.257-3.654,11.819-11.209,14.262-18.957s3.141-15.928,4.9-23.861c.908-4.1,2.1-8.158,2.507-12.338a66.09,66.09,0,0,0-.253-11.666L287.6,621.748c-.4-4.943-.8-9.892-1.576-14.791-14.577.521-29.143,1.108-43.728,1.28C230.695,608.374,218.876,609.186,207.864,605.518Z" transform="translate(-36.903 -22.5)" fill="#2f2e41"/>
    <path id="Path_35" data-name="Path 35" d="M202.506,619.721c1.977,3.18,6.79,3.114,10.1,1.371s5.889-4.673,9.211-6.4c4.464-2.323,9.746-2.235,14.776-2.093,7.964.225,16.025.464,23.687,2.647,7.925,2.257,15.64,6.6,23.834,5.736,1.426-.151,2.985-.56,3.761-1.766a5.545,5.545,0,0,0,.62-2.836l.268-7.159a6.464,6.464,0,0,0-.57-3.625,6.081,6.081,0,0,0-2.716-2.079c-11.663-5.646-24.965-6.7-37.915-7.141q-9.875-.338-19.757-.278c-5.591.034-12.3-.775-17.739.719C202.774,598.82,198.8,613.769,202.506,619.721Z" transform="translate(-36.903 -22.5)" fill="#2f2e41"/>
    <path id="Path_36" data-name="Path 36" d="M275.742,432.226c-15.282-.135-29.131-10.223-44.412-10.468a11.516,11.516,0,0,0-5.393.931c-2.129,1.073-3.529,3.147-5.147,4.9-4.518,4.893-11.061,7.505-15.7,12.281-4.352,4.478-6.773,11.15-5.055,17.153s8.2,10.608,14.279,9.165a36.8,36.8,0,0,1,14.337-19.479,72.885,72.885,0,0,1,11.205-5.882c6.868-3.112,14.548-6.283,21.718-3.95a30.637,30.637,0,0,1,7.409,4.04l11.954,8.03C279.543,443.45,278.29,437.288,275.742,432.226Z" transform="translate(-36.903 -22.5)" fill="#3ecc5f"/>
    <path id="Path_37" data-name="Path 37" d="M212.552,460.874c-2.029,2.532.894,6.2.447,9.413-.3,2.135-2.054,3.765-2.786,5.793-.758,2.1-.356,4.427-.643,6.641a28.488,28.488,0,0,1-1.275,4.73,84.975,84.975,0,0,0-2.686,14.026l-2.675,19.976a75.681,75.681,0,0,0-.846,9.078,27.107,27.107,0,0,1-.452,6.787c-.592,2.183-1.9,4.093-2.786,6.176s-1.291,4.6-.1,6.524c-3.991,3.325-5.178,9.854-2.387,14.235a7.9,7.9,0,0,1,1.23,2.265,5.82,5.82,0,0,1-.542,3.34l-2.7,7.207c-.692,1.845-.911,4.653,1.014,5.074a17.006,17.006,0,0,0-3.651,5.767,6.866,6.866,0,0,0,.972,6.506,8.29,8.29,0,0,1,1.694,2.056,5.473,5.473,0,0,1-.2,3.243,11.906,11.906,0,0,0,1.473,9.333,8.372,8.372,0,0,0,8.418,3.609c5.41-1.22,10.272-3.147,15.728-2.146,11.746,2.155,23.53,4.32,34.906,7.952,12.984,4.145,25.556,10.224,39.126,11.5a3.8,3.8,0,0,0,2.617-.407,3.931,3.931,0,0,0,1.21-2.488l4.194-19.665a202.362,202.362,0,0,0,3.855-22.028c.477-4.781.613-9.589.749-14.392l1.081-38.231a38.2,38.2,0,0,0-2.2-16.62l-6.217-19.848c-3.548-11.327-11.688-21.371-14.586-32.882-1.834-7.285-3.189-15.1-8.108-20.781-7.012-8.095-19.145-9.354-29.764-7.962-4.8.629-9.636,1.714-13.785,4.2-4.8,2.877-8.333,7.409-11.753,11.836C218.3,454.343,215.436,457.276,212.552,460.874Z" transform="translate(-36.903 -22.5)" fill="#3ecc5f"/>
    <path id="Path_38" data-name="Path 38" d="M237.347,573.323c.875,3.773,2.712,7.251,3.837,10.957,1.884,6.209,1.724,12.9,3.605,19.106.789,2.606,1.933,5.109,2.5,7.773,1.321,6.211-.608,12.636-3,18.516s-5.313,11.678-6.091,17.98c-.548,4.438.239,9.45,3.66,12.331,3.552,2.99,8.713,2.788,13.339,2.39a14.016,14.016,0,0,0,4.841-1.008c3.538-1.674,5.028-5.86,5.855-9.685,2.771-12.819,1.98-26.106,1.174-39.2l-2.106-34.234c-.405-6.591-.84-13.318-2.871-19.646-.739-2.3-2.026-6.954-4.129-8.424-2.083-1.456-8.03-1.521-10.609-1.642C235.251,547.97,235.387,564.856,237.347,573.323Z" transform="translate(-36.903 -22.5)" fill="#fbbebe"/>
    <path id="Path_39" data-name="Path 39" d="M250.751,446.923c-2.471-1.294-5.584-.736-7.972.7a24.568,24.568,0,0,0-5.972,5.8c-5.339,6.517-10.991,13.995-10.2,22.382.3,3.145,1.5,6.121,2.317,9.172,3.579,13.38-.379,27.53.075,41.373.262,8,2,15.866,3.736,23.679.354,1.594.92,3.44,2.463,3.977,1.159.4,2.41-.115,3.557-.551a28.371,28.371,0,0,1,25.963,3.272c2.865-1.529,1.791-6.363,1.149-9.546-1.908-9.458.682-19.214,3.828-28.335s6.911-18.23,7.432-27.865c.591-10.916-3.029-21.571-6.6-31.9-.779-2.255-1.631-4.62-3.439-6.178a13.665,13.665,0,0,0-5.2-2.377C258.1,449.406,254.255,448.758,250.751,446.923Z" transform="translate(-36.903 -22.5)" fill="#2f2e41"/>
    <g id="docusaurus_keytar" transform="translate(463 367.774)">
      <path id="Path_40" data-name="Path 40" d="M99,52h84V86H99Z" fill="#fff" fill-rule="evenodd"/>
      <path id="Path_41" data-name="Path 41" d="M23,163A19.976,19.976,0,0,1,5.7,153,19.976,19.976,0,0,0,23,183H43V163Z" fill="#3ecc5f" fill-rule="evenodd"/>
      <path id="Path_42" data-name="Path 42" d="M112.98,57.376,183,53V43a20,20,0,0,0-20-20H73l-2.5-4.33a2.886,2.886,0,0,0-5,0L63,23l-2.5-4.33a2.886,2.886,0,0,0-5,0L53,23l-2.5-4.33a2.886,2.886,0,0,0-5,0L43,23c-.022,0-.042,0-.065,0l-4.142-4.141a2.886,2.886,0,0,0-4.828,1.294L32.6,25.26,27.4,23.868A2.886,2.886,0,0,0,23.869,27.4l1.39,5.193-5.1,1.367a2.887,2.887,0,0,0-1.3,4.83L23,42.936c0,.021,0,.042,0,.064l-4.33,2.5a2.886,2.886,0,0,0,0,5L23,53l-4.33,2.5a2.886,2.886,0,0,0,0,5L23,63l-4.33,2.5a2.886,2.886,0,0,0,0,5L23,73l-4.33,2.5a2.886,2.886,0,0,0,0,5L23,83l-4.33,2.5a2.886,2.886,0,0,0,0,5L23,93l-4.33,2.5a2.886,2.886,0,0,0,0,5L23,103l-4.33,2.5a2.886,2.886,0,0,0,0,5L23,113l-4.33,2.5a2.886,2.886,0,0,0,0,5L23,123l-4.33,2.5a2.886,2.886,0,0,0,0,5L23,133l-4.33,2.5a2.886,2.886,0,0,0,0,5L23,143l-4.33,2.5a2.886,2.886,0,0,0,0,5L23,153l-4.33,2.5a2.886,2.886,0,0,0,0,5L23,163a20,20,0,0,0,20,20H163a20,20,0,0,0,20-20V83l-70.02-4.376a10.645,10.645,0,0,1,0-21.248" fill="#3ecc5f" fill-rule="evenodd"/>
      <path id="Path_43" data-name="Path 43" d="M143,183h30V143H143Z" fill="#3ecc5f" fill-rule="evenodd"/>
      <path id="Path_44" data-name="Path 44" d="M193,158a4.976,4.976,0,0,0-.639.064c-.038-.15-.074-.3-.116-.451a4.993,4.993,0,1,0-4.941-8.577q-.166-.169-.335-.336a4.992,4.992,0,1,0-8.588-4.946c-.148-.042-.3-.077-.445-.115a5,5,0,1,0-9.872,0c-.148.038-.3.073-.445.115a4.994,4.994,0,1,0-8.588,4.946,19.99,19.99,0,1,0,33.33,19.236A4.989,4.989,0,1,0,193,158" fill="#44d860" fill-rule="evenodd"/>
      <path id="Path_45" data-name="Path 45" d="M153,123h30V103H153Z" fill="#3ecc5f" fill-rule="evenodd"/>
      <path id="Path_46" data-name="Path 46" d="M193,115.5a2.5,2.5,0,1,0,0-5,2.572,2.572,0,0,0-.319.032c-.02-.075-.037-.15-.058-.225a2.5,2.5,0,0,0-.963-4.807,2.473,2.473,0,0,0-1.508.518q-.083-.085-.168-.168a2.473,2.473,0,0,0,.506-1.494,2.5,2.5,0,0,0-4.8-.979,10,10,0,1,0,0,19.246,2.5,2.5,0,0,0,4.8-.979,2.473,2.473,0,0,0-.506-1.494q.086-.083.168-.168a2.473,2.473,0,0,0,1.508.518,2.5,2.5,0,0,0,.963-4.807c.021-.074.038-.15.058-.225a2.572,2.572,0,0,0,.319.032" fill="#44d860" fill-rule="evenodd"/>
      <path id="Path_47" data-name="Path 47" d="M63,55.5A2.5,2.5,0,0,1,60.5,53a7.5,7.5,0,0,0-15,0,2.5,2.5,0,0,1-5,0,12.5,12.5,0,0,1,25,0A2.5,2.5,0,0,1,63,55.5" fill-rule="evenodd"/>
      <path id="Path_48" data-name="Path 48" d="M103,183h60a20,20,0,0,0,20-20V93H123a20,20,0,0,0-20,20Z" fill="#ffff50" fill-rule="evenodd"/>
      <path id="Path_49" data-name="Path 49" d="M168.02,124H117.98a1,1,0,0,1,0-2h50.04a1,1,0,1,1,0,2m0,20H117.98a1,1,0,0,1,0-2h50.04a1,1,0,1,1,0,2m0,20H117.98a1,1,0,0,1,0-2h50.04a1,1,0,1,1,0,2m0-49.814H117.98a1,1,0,0,1,0-2h50.04a1,1,0,0,1,0,2m0,19.814H117.98a1,1,0,0,1,0-2h50.04a1,1,0,1,1,0,2m0,20H117.98a1,1,0,0,1,0-2h50.04a1,1,0,1,1,0,2M183,61.611c-.012,0-.022-.006-.034-.005-3.09.1-4.552,3.2-5.842,5.923-1.346,2.85-2.387,4.7-4.093,4.647-1.889-.068-2.969-2.2-4.113-4.46-1.314-2.594-2.814-5.536-5.963-5.426-3.046.1-4.513,2.794-5.807,5.167-1.377,2.528-2.314,4.065-4.121,3.994-1.927-.07-2.951-1.805-4.136-3.813-1.321-2.236-2.848-4.75-5.936-4.664-2.994.1-4.465,2.385-5.763,4.4-1.373,2.13-2.335,3.428-4.165,3.351-1.973-.07-2.992-1.51-4.171-3.177-1.324-1.873-2.816-3.993-5.895-3.89-2.928.1-4.4,1.97-5.7,3.618-1.232,1.564-2.194,2.8-4.229,2.724a1,1,0,0,0-.072,2c3.017.1,4.545-1.8,5.872-3.487,1.177-1.5,2.193-2.787,4.193-2.855,1.926-.082,2.829,1.115,4.195,3.045,1.3,1.834,2.769,3.914,5.731,4.021,3.1.1,4.6-2.215,5.918-4.267,1.182-1.834,2.2-3.417,4.15-3.484,1.793-.067,2.769,1.35,4.145,3.681,1.3,2.2,2.766,4.686,5.787,4.8,3.125.108,4.634-2.62,5.949-5.035,1.139-2.088,2.214-4.06,4.119-4.126,1.793-.042,2.728,1.6,4.111,4.33,1.292,2.553,2.757,5.445,5.825,5.556l.169,0c3.064,0,4.518-3.075,5.8-5.794,1.139-2.41,2.217-4.68,4.067-4.773v-2Z" fill-rule="evenodd"/>
      <path id="Path_50" data-name="Path 50" d="M83,183h40V143H83Z" fill="#3ecc5f" fill-rule="evenodd"/>
      <g id="Group_8" data-name="Group 8" transform="matrix(0.966, -0.259, 0.259, 0.966, 103, 100.579)">
        <rect id="Rectangle_3" data-name="Rectangle 3" width="84.522" height="33.367" rx="2" transform="translate(0.046 0.014)" fill="#d8d8d8"/>
        <g id="Group_2" data-name="Group 2" transform="translate(1 20.75)">
          <rect id="Rectangle_4" data-name="Rectangle 4" width="4.883" height="4.883" rx="1" transform="translate(15.818 0.339)" fill="#4a4a4a"/>
          <rect id="Rectangle_5" data-name="Rectangle 5" width="4.883" height="4.883" rx="1" transform="translate(21.605 0.339)" fill="#4a4a4a"/>
          <rect id="Rectangle_6" data-name="Rectangle 6" width="4.883" height="4.883" rx="1" transform="translate(27.392 0.339)" fill="#4a4a4a"/>
          <rect id="Rectangle_7" data-name="Rectangle 7" width="4.883" height="4.883" rx="1" transform="translate(33.179 0.339)" fill="#4a4a4a"/>
          <rect id="Rectangle_8" data-name="Rectangle 8" width="4.883" height="4.883" rx="1" transform="translate(38.966 0.339)" fill="#4a4a4a"/>
          <rect id="Rectangle_9" data-name="Rectangle 9" width="4.883" height="4.883" rx="1" transform="translate(44.753 0.339)" fill="#4a4a4a"/>
          <rect id="Rectangle_10" data-name="Rectangle 10" width="4.883" height="4.883" rx="1" transform="translate(50.54 0.339)" fill="#4a4a4a"/>
          <rect id="Rectangle_11" data-name="Rectangle 11" width="4.883" height="4.883" rx="1" transform="translate(56.327 0.339)" fill="#4a4a4a"/>
          <rect id="Rectangle_12" data-name="Rectangle 12" width="4.883" height="4.883" rx="1" transform="translate(62.114 0.339)" fill="#4a4a4a"/>
          <path id="Path_51" data-name="Path 51" d="M1.447.34H13.733a1,1,0,0,1,1,1V4.222a1,1,0,0,1-1,1H1.447a1,1,0,0,1-1-1V1.339a1,1,0,0,1,1-1Zm67.634,0H81.368a1,1,0,0,1,1,1V4.222a1,1,0,0,1-1,1H69.08a1,1,0,0,1-1-1V1.339a1,1,0,0,1,1-1Z" fill="#4a4a4a" fill-rule="evenodd"/>
        </g>
        <g id="Group_3" data-name="Group 3" transform="translate(1 9)">
          <path id="Path_52" data-name="Path 52" d="M1.447.4h4.69a1,1,0,0,1,1,1V4.286a1,1,0,0,1-1,1H1.447a1,1,0,0,1-1-1V1.4a1,1,0,0,1,1-1Z" fill="#4a4a4a" fill-rule="evenodd"/>
          <rect id="Rectangle_13" data-name="Rectangle 13" width="4.883" height="4.883" rx="1" transform="translate(8.042 0.404)" fill="#4a4a4a"/>
          <rect id="Rectangle_14" data-name="Rectangle 14" width="4.883" height="4.883" rx="1" transform="translate(13.829 0.404)" fill="#4a4a4a"/>
          <rect id="Rectangle_15" data-name="Rectangle 15" width="4.883" height="4.883" rx="1" transform="translate(19.616 0.404)" fill="#4a4a4a"/>
          <rect id="Rectangle_16" data-name="Rectangle 16" width="4.883" height="4.883" rx="1" transform="translate(25.403 0.404)" fill="#4a4a4a"/>
          <rect id="Rectangle_17" data-name="Rectangle 17" width="4.883" height="4.883" rx="1" transform="translate(31.19 0.404)" fill="#4a4a4a"/>
          <rect id="Rectangle_18" data-name="Rectangle 18" width="4.883" height="4.883" rx="1" transform="translate(36.977 0.404)" fill="#4a4a4a"/>
          <rect id="Rectangle_19" data-name="Rectangle 19" width="4.883" height="4.883" rx="1" transform="translate(42.764 0.404)" fill="#4a4a4a"/>
          <rect id="Rectangle_20" data-name="Rectangle 20" width="4.883" height="4.883" rx="1" transform="translate(48.551 0.404)" fill="#4a4a4a"/>
          <rect id="Rectangle_21" data-name="Rectangle 21" width="4.883" height="4.883" rx="1" transform="translate(54.337 0.404)" fill="#4a4a4a"/>
          <rect id="Rectangle_22" data-name="Rectangle 22" width="4.883" height="4.883" rx="1" transform="translate(60.124 0.404)" fill="#4a4a4a"/>
          <rect id="Rectangle_23" data-name="Rectangle 23" width="4.883" height="4.883" rx="1" transform="translate(65.911 0.404)" fill="#4a4a4a"/>
          <rect id="Rectangle_24" data-name="Rectangle 24" width="4.883" height="4.883" rx="1" transform="translate(71.698 0.404)" fill="#4a4a4a"/>
          <rect id="Rectangle_25" data-name="Rectangle 25" width="4.883" height="4.883" rx="1" transform="translate(77.485 0.404)" fill="#4a4a4a"/>
        </g>
        <g id="Group_4" data-name="Group 4" transform="translate(83.368 8.75) rotate(180)">
          <path id="Path_53" data-name="Path 53" d="M1,0H5.691a1,1,0,0,1,1,1V3.883a1,1,0,0,1-1,1H1a1,1,0,0,1-1-1V1A1,1,0,0,1,1,0Z" fill="#4a4a4a" fill-rule="evenodd"/>
          <rect id="Rectangle_26" data-name="Rectangle 26" width="4.883" height="4.883" rx="1" transform="translate(7.595)" fill="#4a4a4a"/>
          <rect id="Rectangle_27" data-name="Rectangle 27" width="4.883" height="4.883" rx="1" transform="translate(13.382)" fill="#4a4a4a"/>
          <rect id="Rectangle_28" data-name="Rectangle 28" width="4.883" height="4.883" rx="1" transform="translate(19.169)" fill="#4a4a4a"/>
          <rect id="Rectangle_29" data-name="Rectangle 29" width="4.883" height="4.883" rx="1" transform="translate(24.956)" fill="#4a4a4a"/>
          <rect id="Rectangle_30" data-name="Rectangle 30" width="4.883" height="4.883" rx="1" transform="translate(30.743)" fill="#4a4a4a"/>
          <rect id="Rectangle_31" data-name="Rectangle 31" width="4.883" height="4.883" rx="1" transform="translate(36.53)" fill="#4a4a4a"/>
          <rect id="Rectangle_32" data-name="Rectangle 32" width="4.883" height="4.883" rx="1" transform="translate(42.317)" fill="#4a4a4a"/>
          <rect id="Rectangle_33" data-name="Rectangle 33" width="4.883" height="4.883" rx="1" transform="translate(48.104)" fill="#4a4a4a"/>
          <rect id="Rectangle_34" data-name="Rectangle 34" width="4.883" height="4.883" rx="1" transform="translate(53.891)" fill="#4a4a4a"/>
          <rect id="Rectangle_35" data-name="Rectangle 35" width="4.883" height="4.883" rx="1" transform="translate(59.678)" fill="#4a4a4a"/>
          <rect id="Rectangle_36" data-name="Rectangle 36" width="4.883" height="4.883" rx="1" transform="translate(65.465)" fill="#4a4a4a"/>
          <rect id="Rectangle_37" data-name="Rectangle 37" width="4.883" height="4.883" rx="1" transform="translate(71.252)" fill="#4a4a4a"/>
          <rect id="Rectangle_38" data-name="Rectangle 38" width="4.883" height="4.883" rx="1" transform="translate(77.038)" fill="#4a4a4a"/>
          <rect id="Rectangle_39" data-name="Rectangle 39" width="4.883" height="4.883" rx="1" transform="translate(7.595)" fill="#4a4a4a"/>
          <rect id="Rectangle_40" data-name="Rectangle 40" width="4.883" height="4.883" rx="1" transform="translate(13.382)" fill="#4a4a4a"/>
          <rect id="Rectangle_41" data-name="Rectangle 41" width="4.883" height="4.883" rx="1" transform="translate(19.169)" fill="#4a4a4a"/>
          <rect id="Rectangle_42" data-name="Rectangle 42" width="4.883" height="4.883" rx="1" transform="translate(24.956)" fill="#4a4a4a"/>
          <rect id="Rectangle_43" data-name="Rectangle 43" width="4.883" height="4.883" rx="1" transform="translate(30.743)" fill="#4a4a4a"/>
          <rect id="Rectangle_44" data-name="Rectangle 44" width="4.883" height="4.883" rx="1" transform="translate(36.53)" fill="#4a4a4a"/>
          <rect id="Rectangle_45" data-name="Rectangle 45" width="4.883" height="4.883" rx="1" transform="translate(42.317)" fill="#4a4a4a"/>
          <rect id="Rectangle_46" data-name="Rectangle 46" width="4.883" height="4.883" rx="1" transform="translate(48.104)" fill="#4a4a4a"/>
          <rect id="Rectangle_47" data-name="Rectangle 47" width="4.883" height="4.883" rx="1" transform="translate(53.891)" fill="#4a4a4a"/>
          <rect id="Rectangle_48" data-name="Rectangle 48" width="4.883" height="4.883" rx="1" transform="translate(59.678)" fill="#4a4a4a"/>
          <rect id="Rectangle_49" data-name="Rectangle 49" width="4.883" height="4.883" rx="1" transform="translate(65.465)" fill="#4a4a4a"/>
          <rect id="Rectangle_50" data-name="Rectangle 50" width="4.883" height="4.883" rx="1" transform="translate(71.252)" fill="#4a4a4a"/>
          <rect id="Rectangle_51" data-name="Rectangle 51" width="4.883" height="4.883" rx="1" transform="translate(77.038)" fill="#4a4a4a"/>
        </g>
        <g id="Group_6" data-name="Group 6">
          <path id="Path_54" data-name="Path 54" d="M2.447,15.19h6.68a1,1,0,0,1,1,1v2.883a1,1,0,0,1-1,1H2.447a1,1,0,0,1-1-1V16.191a1,1,0,0,1,1-1Z" fill="#4a4a4a" fill-rule="evenodd"/>
          <g id="Group_5" data-name="Group 5" transform="translate(11.212 15.19)">
            <rect id="Rectangle_52" data-name="Rectangle 52" width="4.883" height="4.883" rx="1" fill="#4a4a4a"/>
            <rect id="Rectangle_53" data-name="Rectangle 53" width="4.883" height="4.883" rx="1" transform="translate(5.787)" fill="#4a4a4a"/>
            <rect id="Rectangle_54" data-name="Rectangle 54" width="4.883" height="4.883" rx="1" transform="translate(11.574)" fill="#4a4a4a"/>
            <rect id="Rectangle_55" data-name="Rectangle 55" width="4.883" height="4.883" rx="1" transform="translate(17.361)" fill="#4a4a4a"/>
            <rect id="Rectangle_56" data-name="Rectangle 56" width="4.883" height="4.883" rx="1" transform="translate(23.148)" fill="#4a4a4a"/>
            <rect id="Rectangle_57" data-name="Rectangle 57" width="4.883" height="4.883" rx="1" transform="translate(28.935)" fill="#4a4a4a"/>
            <rect id="Rectangle_58" data-name="Rectangle 58" width="4.883" height="4.883" rx="1" transform="translate(34.722)" fill="#4a4a4a"/>
            <rect id="Rectangle_59" data-name="Rectangle 59" width="4.883" height="4.883" rx="1" transform="translate(40.508)" fill="#4a4a4a"/>
            <rect id="Rectangle_60" data-name="Rectangle 60" width="4.883" height="4.883" rx="1" transform="translate(46.295)" fill="#4a4a4a"/>
            <rect id="Rectangle_61" data-name="Rectangle 61" width="4.883" height="4.883" rx="1" transform="translate(52.082)" fill="#4a4a4a"/>
            <rect id="Rectangle_62" data-name="Rectangle 62" width="4.883" height="4.883" rx="1" transform="translate(57.869)" fill="#4a4a4a"/>
          </g>
          <path id="Path_55" data-name="Path 55" d="M76.05,15.19h6.318a1,1,0,0,1,1,1v2.883a1,1,0,0,1-1,1H76.049a1,1,0,0,1-1-1V16.191a1,1,0,0,1,1-1Z" fill="#4a4a4a" fill-rule="evenodd"/>
        </g>
        <g id="Group_7" data-name="Group 7" transform="translate(1 26)">
          <rect id="Rectangle_63" data-name="Rectangle 63" width="4.883" height="4.883" rx="1" transform="translate(0.447 1.126)" fill="#4a4a4a"/>
          <rect id="Rectangle_64" data-name="Rectangle 64" width="4.883" height="4.883" rx="1" transform="translate(6.234 1.126)" fill="#4a4a4a"/>
          <rect id="Rectangle_65" data-name="Rectangle 65" width="4.883" height="4.883" rx="1" transform="translate(12.021 1.126)" fill="#4a4a4a"/>
          <rect id="Rectangle_66" data-name="Rectangle 66" width="4.883" height="4.883" rx="1" transform="translate(17.808 1.126)" fill="#4a4a4a"/>
          <path id="Path_56" data-name="Path 56" d="M24.594,1.126h27.84a1,1,0,0,1,1,1V5.01a1,1,0,0,1-1,1H24.594a1,1,0,0,1-1-1V2.126a1,1,0,0,1,1-1Zm30.743,0h3.607a1,1,0,0,1,1,1V5.01a1,1,0,0,1-1,1H55.337a1,1,0,0,1-1-1V2.126a1,1,0,0,1,1-1Z" fill="#4a4a4a" fill-rule="evenodd"/>
          <rect id="Rectangle_67" data-name="Rectangle 67" width="4.883" height="4.883" rx="1" transform="translate(60.848 1.126)" fill="#4a4a4a"/>
          <rect id="Rectangle_68" data-name="Rectangle 68" width="4.883" height="4.883" rx="1" transform="translate(66.635 1.126)" fill="#4a4a4a"/>
          <rect id="Rectangle_69" data-name="Rectangle 69" width="4.883" height="4.883" rx="1" transform="translate(77.485 1.126)" fill="#4a4a4a"/>
          <path id="Path_57" data-name="Path 57" d="M4.883.09V1.17a1,1,0,0,1-1,1H1a1,1,0,0,1-1-1V.09Z" transform="translate(76.942 3.296) rotate(180)" fill="#4a4a4a"/>
          <path id="Path_58" data-name="Path 58" d="M4.883.09V1.17a1,1,0,0,1-1,1H1a1,1,0,0,1-1-1V.09Z" transform="translate(72.06 3.839)" fill="#4a4a4a"/>
        </g>
        <rect id="Rectangle_70" data-name="Rectangle 70" width="81.379" height="2.17" rx="1.085" transform="translate(1.808 1.085)" fill="#4a4a4a"/>
        <rect id="Rectangle_71" data-name="Rectangle 71" width="4.563" height="1.447" rx="0.723" transform="translate(3.798 1.447)" fill="#d8d8d8" opacity="0.136"/>
        <rect id="Rectangle_72" data-name="Rectangle 72" width="4.563" height="1.447" rx="0.723" transform="translate(10.042 1.447)" fill="#d8d8d8" opacity="0.136"/>
        <rect id="Rectangle_73" data-name="Rectangle 73" width="4.563" height="1.447" rx="0.723" transform="translate(14.846 1.447)" fill="#d8d8d8" opacity="0.136"/>
        <rect id="Rectangle_74" data-name="Rectangle 74" width="4.563" height="1.447" rx="0.723" transform="translate(19.649 1.447)" fill="#d8d8d8" opacity="0.136"/>
        <rect id="Rectangle_75" data-name="Rectangle 75" width="4.563" height="1.447" rx="0.723" transform="translate(24.453 1.447)" fill="#d8d8d8" opacity="0.136"/>
        <rect id="Rectangle_76" data-name="Rectangle 76" width="4.563" height="1.447" rx="0.723" transform="translate(30.457 1.447)" fill="#d8d8d8" opacity="0.136"/>
        <rect id="Rectangle_77" data-name="Rectangle 77" width="4.563" height="1.447" rx="0.723" transform="translate(35.26 1.447)" fill="#d8d8d8" opacity="0.136"/>
        <rect id="Rectangle_78" data-name="Rectangle 78" width="4.563" height="1.447" rx="0.723" transform="translate(40.064 1.447)" fill="#d8d8d8" opacity="0.136"/>
        <rect id="Rectangle_79" data-name="Rectangle 79" width="4.563" height="1.447" rx="0.723" transform="translate(44.867 1.447)" fill="#d8d8d8" opacity="0.136"/>
        <rect id="Rectangle_80" data-name="Rectangle 80" width="4.563" height="1.447" rx="0.723" transform="translate(50.872 1.447)" fill="#d8d8d8" opacity="0.136"/>
        <rect id="Rectangle_81" data-name="Rectangle 81" width="4.563" height="1.447" rx="0.723" transform="translate(55.675 1.447)" fill="#d8d8d8" opacity="0.136"/>
        <rect id="Rectangle_82" data-name="Rectangle 82" width="4.563" height="1.447" rx="0.723" transform="translate(60.479 1.447)" fill="#d8d8d8" opacity="0.136"/>
        <rect id="Rectangle_83" data-name="Rectangle 83" width="4.563" height="1.447" rx="0.723" transform="translate(66.483 1.447)" fill="#d8d8d8" opacity="0.136"/>
        <rect id="Rectangle_84" data-name="Rectangle 84" width="4.563" height="1.447" rx="0.723" transform="translate(71.286 1.447)" fill="#d8d8d8" opacity="0.136"/>
        <rect id="Rectangle_85" data-name="Rectangle 85" width="4.563" height="1.447" rx="0.723" transform="translate(76.09 1.447)" fill="#d8d8d8" opacity="0.136"/>
      </g>
      <path id="Path_59" data-name="Path 59" d="M143,158a4.976,4.976,0,0,0-.639.064c-.038-.15-.074-.3-.116-.451a4.993,4.993,0,1,0-4.941-8.577q-.166-.169-.335-.336a4.992,4.992,0,1,0-8.588-4.946c-.148-.042-.3-.077-.445-.115a5,5,0,1,0-9.872,0c-.148.038-.3.073-.445.115a4.994,4.994,0,1,0-8.588,4.946,19.99,19.99,0,1,0,33.33,19.236A4.989,4.989,0,1,0,143,158" fill="#44d860" fill-rule="evenodd"/>
      <path id="Path_60" data-name="Path 60" d="M83,123h40V103H83Z" fill="#3ecc5f" fill-rule="evenodd"/>
      <path id="Path_61" data-name="Path 61" d="M133,115.5a2.5,2.5,0,0,0,0-5,2.572,2.572,0,0,0-.319.032c-.02-.075-.037-.15-.058-.225a2.5,2.5,0,0,0-.963-4.807,2.473,2.473,0,0,0-1.508.518q-.083-.085-.168-.168a2.473,2.473,0,0,0,.506-1.494,2.5,2.5,0,0,0-4.8-.979,10,10,0,1,0,0,19.246,2.5,2.5,0,0,0,4.8-.979,2.473,2.473,0,0,0-.506-1.494q.086-.083.168-.168a2.473,2.473,0,0,0,1.508.518,2.5,2.5,0,0,0,.963-4.807c.021-.074.038-.15.058-.225a2.572,2.572,0,0,0,.319.032" fill="#44d860" fill-rule="evenodd"/>
      <path id="Path_62" data-name="Path 62" d="M143,41.75a2.715,2.715,0,0,1-.49-.05,2.52,2.52,0,0,1-.47-.14,2.6,2.6,0,0,1-.431-.23,3.787,3.787,0,0,1-.38-.31,2.929,2.929,0,0,1-.309-.38,2.468,2.468,0,0,1-.42-1.39,2.715,2.715,0,0,1,.05-.49,2.884,2.884,0,0,1,.139-.47,2.629,2.629,0,0,1,.231-.43,2.409,2.409,0,0,1,.689-.69,2.6,2.6,0,0,1,.431-.23,2.519,2.519,0,0,1,.47-.14,2.313,2.313,0,0,1,.98,0,2.429,2.429,0,0,1,.9.37,3.787,3.787,0,0,1,.38.31,3.677,3.677,0,0,1,.31.38,2.549,2.549,0,0,1,.23.43,2.621,2.621,0,0,1,.19.96,2.535,2.535,0,0,1-.73,1.77,3.787,3.787,0,0,1-.38.31,2.491,2.491,0,0,1-1.39.42m20-1.25a2.553,2.553,0,0,1-1.771-.73,3.806,3.806,0,0,1-.309-.38A2.468,2.468,0,0,1,160.5,38a2.552,2.552,0,0,1,.729-1.77,3.787,3.787,0,0,1,.38-.31,2.6,2.6,0,0,1,.431-.23,2.519,2.519,0,0,1,.47-.14,2.313,2.313,0,0,1,.98,0,2.429,2.429,0,0,1,.9.37,3.787,3.787,0,0,1,.38.31A2.553,2.553,0,0,1,165.5,38a2.808,2.808,0,0,1-.05.49,2.542,2.542,0,0,1-.14.47,3.552,3.552,0,0,1-.23.43,3.678,3.678,0,0,1-.31.38,3.787,3.787,0,0,1-.38.31,2.491,2.491,0,0,1-1.39.42" fill-rule="evenodd"/>
    </g>
  </g>
</svg>
