<svg width="32" height="32" viewBox="0 0 32 32" xmlns="http://www.w3.org/2000/svg" xmlns:xlink="http://www.w3.org/1999/xlink"><defs><linearGradient x1="50%" y1="0%" x2="50%" y2="100%" id="a"><stop stop-color="#6F4824" offset="0%"/><stop stop-color="#8F5D2F" offset="100%"/></linearGradient><linearGradient x1="2.734%" y1="39.021%" y2="39.021%" id="b"><stop stop-color="#BF9155" offset="0%"/><stop stop-color="#8B582B" offset="100%"/></linearGradient><path d="M24 21.172L22.172 23 24 24.828V29a1 1 0 0 1-1 1H8V16h15a1 1 0 0 1 1 1v4.172zM10 18v10h12V18H10zm2 4h10v2H12v-2z" id="d"/><filter x="-9.4%" y="-10.7%" width="118.8%" height="121.4%" filterUnits="objectBoundingBox" id="c"><feMorphology radius=".5" operator="dilate" in="SourceAlpha" result="shadowSpreadOuter1"/><feOffset in="shadowSpreadOuter1" result="shadowOffsetOuter1"/><feColorMatrix values="0 0 0 0 0 0 0 0 0 0 0 0 0 0 0 0 0 0 0.137879303 0" in="shadowOffsetOuter1"/></filter></defs><g fill="none" fill-rule="evenodd"><ellipse fill="url(#a)" cx="16" cy="7" rx="16" ry="6"/><path d="M.91 21H0v4c0 3.314 7.163 6 16 6s16-2.686 16-6v-4h-.91c.59.626.91 1.299.91 2 0 3.314-7.163 6-16 6S0 26.314 0 23c0-.701.32-1.374.91-2z" fill="#000" opacity=".066"/><path fill="#644222" d="M22 21h2v2h-2z"/><path d="M32 8v17c0 3.314-7.163 6-16 6S0 28.314 0 25V9c0 3.314 7.163 6 16 6s16-2.686 16-6V8z" fill="url(#b)"/><ellipse fill="#794E27" cx="16" cy="7.5" rx="16" ry="6.5"/><use fill="#000" filter="url(#c)" xlink:href="#d"/><use fill="#FFF" xlink:href="#d"/><ellipse fill-opacity=".237" fill="#000" cx="5.5" cy="22" rx="1" ry="1"/><ellipse fill-opacity=".237" fill="#000" cx="3.5" cy="21" rx="1" ry="1"/><ellipse fill-opacity=".237" fill="#000" cx="1.5" cy="20" rx="1" ry="1"/></g></svg>