<?xml version="1.0" encoding="utf-8"?>
<!-- Generator: Adobe Illustrator 22.1.0, SVG Export Plug-In . SVG Version: 6.00 Build 0)  -->
<svg version="1.1" id="Layer_1" xmlns="http://www.w3.org/2000/svg" xmlns:xlink="http://www.w3.org/1999/xlink" x="0px" y="0px"
	 viewBox="0 0 244.8 210.1" style="enable-background:new 0 0 244.8 210.1;" xml:space="preserve">
<style type="text/css">
	.st0{fill:#ED1C24;}
	.st1{fill:#FFFFFF;}
	.st2{fill:#1A434A;}
	.st3{fill:#E54C5C;}
</style>
<title>cat</title>
<path class="st0" d="M166,61.3v-60l-60,60H56.1l-40-40v130c0,33.1,26.9,60,60,60h90v-150H166z"/>
<path class="st1" d="M60.1,80.5h62.1c14.3,0,25.8,11.6,25.8,25.8v0c0,14.3-11.6,25.8-25.8,25.8H60.1c-14.3,0-25.8-11.6-25.8-25.8v0
	C34.2,92.1,45.8,80.5,60.1,80.5z"/>
<circle class="st2" cx="119.9" cy="106.3" r="20"/>
<path class="st3" d="M61.9,90.6c8.8,0,16,7.2,16,16s-7.2,16-16,16s-16-7.2-16-16S53.1,90.6,61.9,90.6 M61.9,86.6c-11,0-20,9-20,20
	s9,20,20,20s20-9,20-20S72.9,86.6,61.9,86.6z"/>
<path class="st1" d="M100.1,147.4c-0.8-0.8-2-0.8-2.8,0c0,0,0,0,0,0l-6.1,6.1l-6.1-6.1c-0.8-0.8-2-0.8-2.8,0c-0.8,0.8-0.8,2,0,2.8
	l7,7v13.6c0,1.1,0.9,2,2,2s2-0.9,2-2v-13.6l7-7C100.9,149.4,100.9,148.2,100.1,147.4C100.1,147.4,100.1,147.4,100.1,147.4z"/>
<path class="st1" d="M9.1,155.1h40.5c0.8,0,1.5-0.7,1.5-1.5s-0.7-1.5-1.5-1.5H9.1c-0.8,0-1.5,0.7-1.5,1.5S8.3,155.1,9.1,155.1z"/>
<path class="st1" d="M57.3,159.3H1.5c-0.8,0-1.5,0.7-1.5,1.5s0.7,1.5,1.5,1.5h55.8c0.8,0,1.5-0.7,1.5-1.5S58.1,159.3,57.3,159.3z"/>
<path class="st1" d="M49.7,166.5H9.1c-0.8,0-1.5,0.7-1.5,1.5s0.7,1.5,1.5,1.5h40.5c0.8,0,1.5-0.7,1.5-1.5S50.5,166.5,49.7,166.5z"/>
<path class="st1" d="M132.9,153.6h40.5c0.8,0,1.5-0.7,1.5-1.5s-0.7-1.5-1.5-1.5h-40.5c-0.8,0-1.5,0.7-1.5,1.5
	S132.1,153.6,132.9,153.6z"/>
<path class="st1" d="M181.1,157.8h-55.8c-0.8,0-1.5,0.7-1.5,1.5s0.7,1.5,1.5,1.5h55.8c0.8,0,1.5-0.7,1.5-1.5
	S181.9,157.8,181.1,157.8L181.1,157.8z"/>
<path class="st1" d="M173.4,165h-40.5c-0.8,0-1.5,0.7-1.5,1.5s0.7,1.5,1.5,1.5h40.5c0.8,0,1.5-0.7,1.5-1.5S174.2,165,173.4,165z"/>
<path class="st0" d="M239.7,99.6L239.7,99.6c-3.8-10.5-15.4-15.8-25.9-12c-10.5,3.8-15.8,15.4-12,25.9c0.1,0.3,0.3,0.7,0.4,1
	c12.2,34.2-5.7,71.7-39.9,83.9c-12.6,4.5-26.4,5-39.3,1.5c39.7,21.9,89.6,7.4,111.5-32.3C246,146.7,247.9,121.9,239.7,99.6z"/>
</svg>
