<svg xmlns="http://www.w3.org/2000/svg" viewBox="0 0 150 106" width="150" height="106"><path d="M55.1 58.2l-8-5.2 8-5.2c1.7-1.1 3.1-2.6 4.1-4.4 1-1.8 1.5-3.8 1.5-5.8 0-3.7-1.6-7.1-4.6-9.5-2.2-1.7-4.9-2.6-7.6-2.6H33.2c-3.7 0-7.3.7-10.7 2.2-3.3 1.4-6.2 3.4-8.7 5.9-2.5 2.5-4.5 5.4-5.8 8.7-1.4 3.4-2.2 7-2.2 10.7 0 3.7.7 7.3 2.2 10.7 1.4 3.3 3.4 6.2 5.9 8.7 2.5 2.5 5.4 4.5 8.7 5.9 3.4 1.4 7 2.2 10.7 2.2h15.3c3.2 0 6.3-1.3 8.6-3.5 2.3-2.3 3.5-5.3 3.5-8.6 0-2-.5-4-1.5-5.8-1-1.8-2.4-3.4-4.1-4.4zm-6.6 17.2H33.2c-3 0-5.9-.6-8.7-1.8-2.7-1.1-5.1-2.7-7.1-4.8-2.1-2.1-3.7-4.4-4.8-7.1-1.2-2.8-1.8-5.7-1.8-8.7 0-3 .6-5.9 1.8-8.7 1.1-2.7 2.7-5.1 4.8-7.1 2.1-2.1 4.4-3.7 7.1-4.8 2.8-1.2 5.7-1.8 8.7-1.8h15.3c3 0 6.1 2.3 6.8 5.2.8 3.1-.5 6.1-3 7.7L42.5 50l-7.1-4.6c-.1-.1-.2-.1-.4-.2-2.6-1.2-5.6-.9-8 .7-2.4 1.6-3.8 4.2-3.8 7.1 0 2.9 1.4 5.5 3.8 7.1s5.4 1.8 8 .7c.1-.1.2-.1.4-.2l7.1-4.6 9.9 6.4c2.5 1.6 3.8 4.7 3 7.7-.8 2.9-3.9 5.3-6.9 5.3zm-15-19.6l-.2.1c-.8.5-1.8.7-2.7.4-.4-.1-.9-.4-1.2-.7-.7-.6-1.1-1.4-1.2-2.3-.1-1.3.5-2.5 1.5-3.2.6-.4 1.2-.6 1.9-.6.6 0 1.1.2 1.6.5l.3.2c2 1.3 2 4.3 0 5.6z" fill="#004aff"/><path d="M80.9 38.1c1.3 0 2.4-.3 3.5-.9 1-.6 1.8-1.4 2.4-2.4v-3.6h-5.9v2.2h3.4v1c-.7 1-1.8 1.5-3.2 1.5-1.2 0-2.2-.4-2.9-1.2-.7-.8-1.1-1.7-1.1-2.9s.4-2.1 1.1-2.9c.7-.8 1.7-1.1 2.8-1.1 1.4 0 2.5.6 3.4 1.8l1.8-1.5c-1.2-1.8-3-2.7-5.2-2.7-1.8 0-3.4.6-4.7 1.8-1.3 1.2-1.9 2.7-1.9 4.5 0 1.8.6 3.3 1.9 4.5 1.2 1.3 2.7 1.9 4.6 1.9zm15.8-2.6h-5.3v-9.9h-2.5v12.2h7.8zm7.4 2.6c1.8 0 3.3-.6 4.6-1.8s1.9-2.7 1.9-4.5c0-1.8-.6-3.3-1.9-4.5-1.3-1.2-2.8-1.8-4.6-1.8-1.8 0-3.3.6-4.6 1.8-1.3 1.2-1.9 2.7-1.9 4.5 0 1.8.6 3.3 1.9 4.5 1.3 1.2 2.8 1.8 4.6 1.8zm-2.8-9.3c.7-.8 1.7-1.1 2.8-1.1 1.1 0 2.1.4 2.8 1.1.7.8 1.1 1.7 1.1 2.9s-.4 2.1-1.1 2.9c-.7.8-1.7 1.1-2.8 1.1-1.2 0-2.1-.4-2.8-1.1-.7-.7-1.1-1.7-1.1-2.9s.3-2.1 1.1-2.9zm18.8 2.4c.6-.6.9-1.3.9-2.2 0-1-.4-1.8-1.1-2.4s-1.6-.9-2.8-.9h-4.3v12.2h5.5c1.2 0 2.2-.3 2.9-1 .7-.7 1.1-1.5 1.1-2.6 0-.7-.2-1.4-.6-1.9-.4-.6-1-1-1.6-1.2zm-5-3.5h1.7c.5 0 .9.1 1.2.4.3.2.4.6.4 1s-.1.8-.4 1c-.3.3-.7.4-1.2.4h-1.7v-2.8zm4.2 7.6c-.3.3-.7.4-1.3.4h-2.9v-3.1h2.9c.5 0 1 .1 1.3.4.3.3.5.6.5 1.1-.1.5-.2.9-.5 1.2zm7 .9h5l.7 1.6h2.7l-5.4-12.5h-.8L123 37.8h2.7l.6-1.6zm2.5-6.2l1.6 4.1h-3.2l1.6-4.1zm10 5.5v-9.9h-2.5v12.2h7.9v-2.3zM86.2 56.3L84.4 55c-.9 1.4-2 2.1-3.5 2.1-1.2 0-2.1-.4-2.8-1.1-.7-.7-1.1-1.7-1.1-2.9s.4-2.2 1.1-2.9c.7-.8 1.7-1.1 2.8-1.1 1.5 0 2.6.7 3.5 2.1l1.9-1.3c-.5-.9-1.3-1.7-2.2-2.2-.9-.5-2-.9-3.2-.9-1.8 0-3.4.6-4.6 1.8-1.3 1.2-1.9 2.7-1.9 4.5 0 1.8.6 3.3 1.9 4.5 1.3 1.2 2.8 1.8 4.6 1.8 1.2 0 2.2-.3 3.2-.8.9-.6 1.6-1.3 2.1-2.3zm1-7.2h3.9v10h2.5v-10h4v-2.2H87.2zm17.5 10.3c1.8 0 3.3-.6 4.6-1.8 1.3-1.2 1.9-2.7 1.9-4.5 0-1.8-.6-3.3-1.9-4.5-1.3-1.2-2.8-1.8-4.6-1.8-1.8 0-3.3.6-4.6 1.8-1.3 1.2-1.9 2.7-1.9 4.5 0 1.8.6 3.3 1.9 4.5 1.3 1.1 2.8 1.8 4.6 1.8zm-2.8-9.3c.7-.8 1.7-1.1 2.8-1.1 1.1 0 2.1.4 2.8 1.1.7.8 1.1 1.7 1.1 2.9s-.4 2.1-1.1 2.9c-.7.8-1.7 1.1-2.8 1.1-1.2 0-2.1-.4-2.8-1.1-.7-.7-1.1-1.7-1.1-2.9s.4-2.1 1.1-2.9zM75 80.4h2.5v-4.7h4.6v-2.2h-4.6v-3.1h5.6v-2.2H75zm15.6-12.5c-1.8 0-3.3.6-4.6 1.8-1.3 1.2-1.9 2.7-1.9 4.5 0 1.8.6 3.3 1.9 4.5 1.3 1.2 2.8 1.8 4.6 1.8 1.8 0 3.3-.6 4.6-1.8 1.3-1.2 1.9-2.7 1.9-4.5 0-1.8-.6-3.3-1.9-4.5-1.2-1.2-2.8-1.8-4.6-1.8zm2.9 9.3c-.7.8-1.7 1.1-2.8 1.1-1.2 0-2.1-.4-2.8-1.1-.7-.7-1.1-1.7-1.1-2.9s.4-2.1 1.1-2.9c.7-.8 1.7-1.1 2.8-1.1 1.1 0 2.1.4 2.8 1.1.7.8 1.1 1.7 1.1 2.9 0 1.1-.4 2.1-1.1 2.9zm14.2-3c.4-.6.6-1.3.6-2.1 0-1.2-.4-2.1-1.2-2.9-.8-.7-1.9-1.1-3.2-1.1h-4.6v12.2h2.5V76h1.8l3.2 4.3h2.8l-3.5-4.8c.7-.3 1.2-.7 1.6-1.3zm-2.4-.8c-.3.3-.8.5-1.4.5h-2.1v-3.5h2.1c.6 0 1 .2 1.4.5.3.3.5.7.5 1.3 0 .5-.2.9-.5 1.2zm13.3 2.1c0 .9-.2 1.6-.7 2.1-.5.5-1.2.7-1.9.7-.8 0-1.4-.2-1.9-.7-.5-.5-.8-1.2-.8-2.1v-7.4h-2.5v7.2c0 1.6.5 2.9 1.4 3.9 1 1 2.2 1.4 3.7 1.4s2.8-.5 3.7-1.4c1-1 1.4-2.2 1.4-3.9l.1-7.2h-2.5v7.4zm11.1-.9l-5.1-6.7h-.8v12.5h2.5v-6.5l3 3.8h.9l3-3.8v6.5h2.5V67.9h-.8z"/></svg>