<?xml version="1.0" encoding="utf-8"?>
<!-- Generator: Adobe Illustrator 21.1.0, SVG Export Plug-In . SVG Version: 6.00 Build 0)  -->
<svg version="1.1" id="圖層_1" xmlns="http://www.w3.org/2000/svg" xmlns:xlink="http://www.w3.org/1999/xlink" x="0px" y="0px"
	 viewBox="0 0 141.7 141.7" style="enable-background:new 0 0 141.7 141.7;" xml:space="preserve">
<style type="text/css">
	.st0{fill:#F9CC10;}
	.st1{fill:#F45951;}
	.st2{fill:#EFB430;}
	.st3{fill:#F29E38;}
	.st4{fill:#F48837;}
	.st5{fill:#E72200;}
</style>
<polygon id="XMLID_238_" class="st0" points="63.4,15.6 27.3,42.3 40.2,85.8 49.7,85.8 36.6,44.3 76.2,15.6 "/>
<polygon id="XMLID_237_" class="st1" points="71.3,29.7 110.5,57.2 96.4,100.4 106,92.9 118.9,55 78,25 "/>
<polygon id="XMLID_236_" class="st2" points="27.3,42.3 22.9,53.6 35.4,93.8 90.8,93.8 93.2,85.8 40.2,85.8 "/>
<polygon id="XMLID_235_" class="st3" points="36.6,44.3 39.2,52.6 78,25 118.9,55 116.2,44 76.2,15.6 "/>
<polygon id="XMLID_234_" class="st4" points="103.8,52.4 90.8,93.8 35.4,93.8 45.7,100.7 96.4,100.4 110.5,57.2 "/>
<path class="st5" d="M61.3,123.9c-1-1.1-1.4-2.5-1.3-4.1c0.2-2.3,1.6-4.3,3.9-5c0.5-0.1,1.1-0.2,1.6-0.2c0.5,0,1,0,1.6,0.2
	c2.3,0.7,3.7,2.6,3.9,5c0.1,1.6-0.3,2.9-1.3,4.1c-1,1.2-2.6,1.9-4.2,1.9C63.9,125.8,62.4,125.2,61.3,123.9z M65.6,116.1
	c-0.4,0-0.8,0.1-1.1,0.1c-1.8,0.5-2.8,2.1-2.8,4c0,1,0.3,1.9,0.9,2.7c0.7,0.9,1.9,1.4,3,1.4c1.1,0,2.3-0.6,3-1.4
	c0.6-0.7,0.9-1.7,0.9-2.6c0-1.9-1-3.6-2.8-4.1C66.4,116.2,66,116.1,65.6,116.1z"/>
<path class="st5" d="M74.7,125.8l-0.1-15.7h1.5v6.3c0.6-1.1,2-1.7,3.4-1.7c3.2,0,5.3,2.3,5.4,5.3c0.1,2.5-1.1,4.6-3.4,5.5l0,0
	c-0.7,0.3-1.4,0.4-2,0.4c-1.3,0-2.8-0.6-3.5-1.9l0.1,1.8H74.7z M81.9,123.6c1.1-1,1.6-2.2,1.6-3.6c0-0.6-0.1-1.1-0.3-1.6
	c-0.6-1.5-2.1-2.3-3.6-2.3c-1.9,0.1-3.4,1.4-3.4,3.3v1.7c0,2.1,1.6,3.3,3.6,3.3C80.6,124.4,81.3,124.1,81.9,123.6z"/>
<path class="st5" d="M87.1,115.8l1.4-0.6l4.1,8.2l4-8.2l1.4,0.6l-8.2,16.1l-1.4-0.5l3.3-6.4L87.1,115.8z"/>
<g>
	<path class="st5" d="M51,117.6l4.5,0c0.7,0,0.9,0.4,0.9,0.9v4c0,0.3,0,0.6-0.3,0.8c-1.4,1.9-3.8,2.9-6.1,2.9c-4.1,0-7.7-3.5-7.6-8
		c0-3.6,2.7-7,6.4-7.7c0.4,0,0.8-0.1,1.2-0.1c2.1,0,4.3,0.7,5.6,2.3l-1.2,1.1c-1.3-1.6-3.6-2.1-5.4-1.7c-2.6,0.6-4.9,3-4.9,6.1
		c0,3.4,2.8,6.2,5.9,6.3c1.8,0,3.6-0.7,4.7-2.2v-3.2l-3.8,0V117.6z"/>
</g>
<g>
	<path class="st5" d="M73.2,60.6l7.3,0c1.1,0,1.5,0.6,1.5,1.4v6.4c0,0.4-0.1,0.9-0.4,1.3c-2.3,3-6.1,4.7-9.8,4.6
		c-6.6,0-12.3-5.6-12.2-12.8c0-5.9,4.4-11.2,10.3-12.3c0.6-0.1,1.3-0.1,2-0.1c3.4,0,6.9,1.2,9.1,3.6l-2,1.8
		c-2.2-2.5-5.7-3.4-8.6-2.7c-4.2,1-7.9,4.7-7.9,9.8c0.1,5.4,4.5,10,9.4,10.1c2.9,0,5.8-1.2,7.5-3.5v-5.1l-6.1,0V60.6z"/>
</g>
</svg>
