<svg xmlns="http://www.w3.org/2000/svg" width="400" height="400"><rect width="100%" height="100%" fill="none"/><g class="currentLayer" fill="#E535AB"><path d="M208.926 39.27v320.3h-16.6V39.27z"/><path d="M342.264 128.169L64.557 287.765l-8.271-14.393 277.707-159.596z"/><path d="M334.122 287.252L57.417 125.926l8.36-14.34 276.706 161.326zm-127.774 86.774l-160.21-92.5 8.3-14.376 160.21 92.5zm139.174-241.079l-160.21-92.5 8.3-14.376 160.21 92.5z"/><path d="M54.482 132.883l-8.3-14.375 160.21-92.5 8.3 14.376z"/><path d="M52.5 107.5h16.6v185H52.5zm278.4 0h16.6v185h-16.6z"/><path d="M203.522 367l-7.25-12.558 139.34-80.45 7.25 12.557z"/><path d="M369.5 297.9c-9.6 16.7-31 22.4-47.7 12.8-16.7-9.6-22.4-31-12.8-47.7 9.6-16.7 31-22.4 47.7-12.8 16.8 9.7 22.5 31 12.8 47.7M90.9 137c-9.6 16.7-31 22.4-47.7 12.8-16.7-9.6-22.4-31-12.8-47.7 9.6-16.7 31-22.4 47.7-12.8 16.7 9.7 22.4 31 12.8 47.7M30.5 297.9c-9.6-16.7-3.9-38 12.8-47.7 16.7-9.6 38-3.9 47.7 12.8 9.6 16.7 3.9 38-12.8 47.7-16.8 9.6-38.1 3.9-47.7-12.8M309.1 137c-9.6-16.7-3.9-38 12.8-47.7 16.7-9.6 38-3.9 47.7 12.8 9.6 16.7 3.9 38-12.8 47.7-16.7 9.6-38.1 3.9-47.7-12.8M200 395.8c-19.3 0-34.9-15.6-34.9-34.9 0-19.3 15.6-34.9 34.9-34.9 19.3 0 34.9 15.6 34.9 34.9 0 19.2-15.6 34.9-34.9 34.9M200 74c-19.3 0-34.9-15.6-34.9-34.9 0-19.3 15.6-34.9 34.9-34.9 19.3 0 34.9 15.6 34.9 34.9 0 19.3-15.6 34.9-34.9 34.9"/></g></svg>