<svg id="Layer_1" data-name="Layer 1" xmlns="http://www.w3.org/2000/svg" viewBox="0 0 70 79.73"><title>idb_Final</title><path d="M46.64,10.23H24.87A4.75,4.75,0,0,0,20.1,15V65.34a4.76,4.76,0,0,0,4.77,4.77H46.64a4.75,4.75,0,0,0,4.76-4.77V15A4.75,4.75,0,0,0,46.64,10.23ZM35.75,67.39a2,2,0,1,1,2-2A2.05,2.05,0,0,1,35.75,67.39Zm12.93-6.81H22.82V17H48.68Z" style="fill:#19135d"/><path d="M46.32,37.09v2.16l-10,5a1.57,1.57,0,0,1-1,0l-10.16-5V37.06L35.83,42.3Z" style="fill:#fe1f4d"/><path d="M46.32,32.26v2.17l-10,5a1.57,1.57,0,0,1-1,0l-10.16-5V32.23l10.65,5.24Z" style="fill:#fe1f4d"/><path d="M46.32,46.42v2.17l-10,5a1.44,1.44,0,0,1-1,0l-10.16-5V46.39l10.65,5.24Z" style="fill:#fe1f4d"/><path d="M46.32,41.6v2.17l-10,5a1.57,1.57,0,0,1-1,0l-10.16-5V41.57l10.65,5.24Z" style="fill:#fe1f4d"/><path d="M45.86,29.75l-8.61,4.33V32l6.12-3.06-6.12-3V23.7L45.86,28A1,1,0,0,1,45.86,29.75Z" style="fill:#fe1f4d"/><path d="M34.26,25.85l-6.12,3L34.26,32v2.13l-8.62-4.33a1,1,0,0,1,0-1.74l8.62-4.31Z" style="fill:#fe1f4d"/></svg>