<svg width="108" height="133" viewBox="0 0 108 133" xmlns="http://www.w3.org/2000/svg"><g fill="none" fill-rule="evenodd"><path d="M70.584 6.99c.356-2.146 3.766-5.2 6.995-4.3 3.232.893 6.283 3.944 4.67 8.072-1.618 4.128-5.747 3.23-5.747 3.23-.356 2.333-1.903 5.292-1.903 5.292a41.768 41.768 0 00-1.964-.765l1.178-5.063c-1.077-.361-3.586-4.306-3.229-6.465zM23.497 18.596c2.255-2.48 6.767-1.719 8.216-.086 1.454 1.633 1.43 6.313.71 7.19l3.7 3.654.086.06a44.568 44.568 0 00-1.23 1.71l-.112-.077s-2.889-1.678-4.435-3.459c0 0-3.01 2.96-6.577.326-3.567-2.632-2.614-6.838-.358-9.318z" fill="#FFF"/><path d="M70.844 133c.412-16.063-.297-27.23-.297-27.23-8.567 1.507-15.625.26-21.421-3.03-.026.333-1.155 14.182-3.658 24.023-1 3.933-3.958 4.463-7.72 6.237M84.556 25.199c2.383 1.872 4.735 4.087 7.026 6.684 2 2.261 3.95 4.812 5.827 7.681 8.64 13.185 12.244 27.826 8.166 40.211.036-.576 1.26-21.697-18.126-26.214-19.647-4.577-42.8 9.691-46.295 20.188-3.5 10.502-.643 20.887 6.68 28.21-9.803-6.277-15.814-18.642-19.336-33.324-1.536-6.408-1.751-12.389-1.03-17.839a45.077 45.077 0 012.27-9.385l-.142-.05C13.368 28.34.442 30.149.442 30.149c5.695-6.485 31.363 6.026 31.363 6.026l.148.078a45.76 45.76 0 013.026-5.13c.403-.588.81-1.158 1.23-1.71 4.302-5.699 9.395-9.553 13.559-11.114 6.144-2.307 14.314-2.83 22.867.22a40.275 40.275 0 017.287 3.475c.033-.052 15.057-24.267 23.32-21.82 0 0-11.894 5.364-18.686 25.025zM31.358 37.475l.064-.136z" fill="#F9970E"/><path d="M84.556 25.199C91.348 5.538 103.243.174 103.243.174c4.848 1.439 1.787 26.918-11.661 31.71-2.291-2.597-4.643-4.812-7.026-6.685zM.442 30.149s12.926-1.807 29.154 11.212l.142.05a45.146 45.146 0 00-2.27 9.385l-.255-.036C13.282 53.878-2.89 33.946.442 30.149zm48.683 72.59a20.301 20.301 0 01-1.29-.78c-7.324-7.323-10.182-17.707-6.682-28.21 3.496-10.496 26.65-24.765 46.296-20.188 19.387 4.518 18.161 25.639 18.126 26.214v.012c-3.164 9.608-10.947 17.865-24.588 23.035-3.709 1.403-7.184 2.378-10.44 2.949-8.568 1.506-15.625.26-21.422-3.031z" fill="#F0DDB3"/><path d="M90.408 62.603a1.532 1.532 0 112.841-1.148 1.532 1.532 0 01-2.84 1.148zM43.784 83.886a1.53 1.53 0 111.993.846 1.53 1.53 0 01-1.993-.846zm25.214 13.397a38.12 38.12 0 01-6.237-.533 1 1 0 01-.824-1.15.993.993 0 011.15-.823c20.524 3.402 27.765-11.448 27.836-11.6a.999.999 0 111.808.854c-.069.148-6.468 13.252-23.733 13.252zm-.154-49.139c-.621-1.621-.094-3.332 1.179-3.82 1.272-.488 2.806.435 3.427 2.056.622 1.623.095 3.334-1.177 3.823-1.273.485-2.807-.436-3.43-2.059zM47.92 55.799c-.621-1.623-.094-3.333 1.179-3.82 1.271-.488 2.806.433 3.428 2.056.622 1.623.094 3.333-1.178 3.822-1.272.486-2.808-.435-3.429-2.058z" fill="#594A42"/><path d="M29.737 41.412a44.706 44.706 0 012.216-5.16 45.754 45.754 0 013.025-5.128c.404-.588.812-1.158 1.231-1.71 3.475-4.604 7.466-8.002 11.067-9.961 4.464 4.27 8.571 8.102 7.014 15.845-1.616 8.045-13.279 10.958-17.154 17.793-2.289 4.037-2.703 6.574-8.144 7.465-.62.102-1.205.147-1.764.153a46.997 46.997 0 01.24-9.912 45.14 45.14 0 012.27-9.385zm18.518 69.695c5.562 1.256 8.671 3.761 6.527 10.518-1.372 4.326-5.069 10.778-10.212 10.498-1.206-.065-2.162-.32-3-.834.914-.444 1.442-.837 2.003-1.278 2.26-2.582 3.807-11.877 4.682-18.904zm13.38 12.552c2.839 2.373.615 6.956-3.02 6.104-5.184-1.218.099-5.541 3.02-6.104z" fill="#8E4208"/></g></svg>