<svg xmlns="http://www.w3.org/2000/svg" viewBox="0 0 338.13 330.24" fill="#42318c"><path d="M314.82,292.65a192,192,0,0,0,23.31-32.92l-39.45-19.64A120.78,120.78,0,0,1,278,266c-11,10.21-22.7,16.16-34.61,17.68-23,2.94-39.07-4.17-62.51-19.21-24.63-15.8-52.54-33.71-92.15-28.65-24,3.08-46.06,15.66-65.44,37.39A191.89,191.89,0,0,0,0,306.13l39.44,19.64a121.7,121.7,0,0,1,20.64-25.93c10.88-10.07,22.52-16,34.62-17.51a79.51,79.51,0,0,1,10-.66c18.14,0,32.71,7,52.52,19.71,23,14.77,51.66,33.15,92.17,28C273.87,326.22,295.89,313.87,314.82,292.65Zm0-117.48a192,192,0,0,0,23.31-32.92l-39.45-19.64A121,121,0,0,1,278,148.53c-11,10.21-22.7,16.16-34.61,17.68-23,2.93-39.07-4.17-62.51-19.21-24.63-15.8-52.54-33.71-92.15-28.65-24,3.08-46.06,15.65-65.44,37.39A191.5,191.5,0,0,0,0,188.65l39.44,19.64a122,122,0,0,1,20.64-25.94C71,172.29,82.6,166.4,94.7,164.85a79.51,79.51,0,0,1,10-.66c18.14,0,32.71,7,52.52,19.71,23,14.77,51.66,33.15,92.17,28C273.87,208.74,295.89,196.39,314.82,175.17Zm0-117.48a192,192,0,0,0,23.31-32.92L298.68,5.13A121,121,0,0,1,278,31.05c-11,10.21-22.7,16.16-34.61,17.68-23,2.93-39.07-4.17-62.51-19.21C156.28,13.72,128.37-4.19,88.76.87,64.72,4,42.7,16.52,23.32,38.26A191.5,191.5,0,0,0,0,71.17L39.44,90.81A122,122,0,0,1,60.08,64.87C71,54.81,82.6,48.92,94.7,47.37a79.51,79.51,0,0,1,10-.66c18.14,0,32.71,7,52.52,19.71,23,14.77,51.64,33.14,92.17,28C273.87,91.26,295.89,78.91,314.82,57.69Z"></path></svg>
