<svg xmlns="http://www.w3.org/2000/svg" width="640" height="640" viewBox="0 0 640 640">
  <g fill="#09BB07" fill-rule="evenodd">
    <path d="M192.764774,153.872576 L147.202274,153.872576 L147.202274,303.638201 C147.202274,312.263244 145.280418,318.661617 141.436649,322.833513 C137.592879,327.005409 132.624179,329.091326 126.530399,329.091326 C120.342868,329.091326 115.303856,326.981972 111.413211,322.763201 C107.522567,318.54443 105.577274,312.169493 105.577274,303.638201 L105.577274,153.872576 L60.0147737,153.872576 C52.8897381,153.872576 47.592916,152.302279 44.1241487,149.161638 C40.6553813,146.020997 38.9210237,141.872601 38.9210237,136.716326 C38.9210237,131.372549 40.7256931,127.153841 44.3350862,124.060076 C47.9444792,120.96631 53.1709895,119.419451 60.0147737,119.419451 L192.764774,119.419451 C199.98356,119.419451 205.350694,121.013185 208.866336,124.200701 C212.381979,127.388217 214.139774,131.56005 214.139774,136.716326 C214.139774,141.872601 212.358542,146.020997 208.796024,149.161638 C205.233506,152.302279 199.889809,153.872576 192.764774,153.872576 Z" transform="rotate(34 126.53 224.255)"/>
    <path fill-rule="nonzero" d="M497.436727,338.637358 C502.568364,338.637358 507.539636,338.877706 512.510909,339.518634 C499.200727,276.707655 431.767818,230 355.114,230 C269.159091,230 199,288.324481 199,362.511939 C199,405.293908 222.493273,440.625084 261.461636,467.944655 L245.986545,514.892658 L300.510182,487.573086 C320.074545,491.418657 335.629818,495.344343 355.194182,495.344343 C360.165455,495.344343 364.896182,495.103995 369.867455,494.703414 C366.660182,484.368445 364.896182,473.392546 364.896182,462.016068 C364.816,393.997545 423.348727,338.637358 497.436727,338.637358 Z M413.646727,296.25597 C425.273091,296.25597 433.050727,304.027226 433.050727,315.804285 C433.050727,327.421111 425.273091,335.192368 413.646727,335.192368 C401.779818,335.192368 390.153455,327.421111 390.153455,315.804285 C390.233636,304.027226 401.86,296.25597 413.646727,296.25597 Z M304.278727,335.192368 C292.652364,335.192368 280.785455,327.421111 280.785455,315.804285 C280.785455,303.94711 292.652364,296.25597 304.278727,296.25597 C316.145636,296.25597 323.843091,304.027226 323.843091,315.804285 C323.843091,327.501227 316.145636,335.192368 304.278727,335.192368 Z M640,460.253515 C640,397.843115 577.538364,347.049543 507.379273,347.049543 C433.050727,347.049543 374.758545,397.843115 374.758545,460.253515 C374.758545,522.663914 433.130909,573.457487 507.379273,573.457487 C522.854364,573.457487 538.57,569.371569 554.365818,565.525999 L597.182909,589 L585.316,550.063602 C616.747273,526.509484 640,495.344343 640,460.253515 Z M464.321636,440.625084 C456.544,440.625084 448.846545,432.853827 448.846545,424.922339 C448.846545,417.151082 456.624182,409.459942 464.321636,409.459942 C476.188545,409.459942 483.886,417.231198 483.886,424.922339 C483.886,432.933943 476.108364,440.625084 464.321636,440.625084 Z M550.196364,440.625084 C542.418727,440.625084 534.721273,432.853827 534.721273,424.922339 C534.721273,417.151082 542.498909,409.459942 550.196364,409.459942 C561.822727,409.459942 569.760727,417.231198 569.760727,424.922339 C569.840909,432.933943 561.822727,440.625084 550.196364,440.625084 Z"/>
  </g>
</svg>
