<svg xmlns="http://www.w3.org/2000/svg" width="170.77" height="238.23" viewBox="0 0 170.77 238.23"><defs><style>.a,.c,.h{fill:#f26643;}.a,.b,.d,.e,.f,.g,.h,.i,.j{stroke:#383838;stroke-miterlimit:10;stroke-width:10px;}.b{fill:#f8aa9c;}.d,.e,.f,.g,.i,.j{fill:none;}.d,.e,.f,.g,.h,.i,.j{stroke-linecap:round;}.e{stroke-dasharray:0 14.77;}.f{stroke-dasharray:0 16.7;}.g{stroke-dasharray:0 16.58;}.i{stroke-dasharray:0 13.56;}.j{stroke-dasharray:0 13.56;}</style></defs><title>netconsd_FullColor</title><path class="a" d="M55.36,376,56,261.51a3.71,3.71,0,0,1,2.21-3.36l82.75-36.33a3.7,3.7,0,0,1,5.19,3.41l-.72,114.15a3.72,3.72,0,0,1-2.21,3.37L60.55,379.41A3.7,3.7,0,0,1,55.36,376Z" transform="translate(-50.36 -216.5)"/><path class="b" d="M125.36,446l.62-114.5a3.71,3.71,0,0,1,2.21-3.36l82.75-36.33a3.7,3.7,0,0,1,5.19,3.41l-.72,114.15a3.72,3.72,0,0,1-2.21,3.37l-82.65,36.66A3.7,3.7,0,0,1,125.36,446Z" transform="translate(-50.36 -216.5)"/><line class="c" x1="93.77" y1="127.85" x2="147.87" y2="104.09"/><line class="d" x1="93.77" y1="127.85" x2="93.77" y2="127.85"/><line class="e" x1="107.29" y1="121.91" x2="141.1" y2="107.06"/><line class="d" x1="147.87" y1="104.09" x2="147.87" y2="104.09"/><line class="c" x1="93.77" y1="147.85" x2="124.35" y2="134.42"/><line class="d" x1="93.77" y1="147.85" x2="93.77" y2="147.85"/><line class="f" x1="109.06" y1="141.13" x2="116.7" y2="137.78"/><line class="d" x1="124.35" y1="134.42" x2="124.35" y2="134.42"/><line class="c" x1="93.77" y1="167.85" x2="139.32" y2="147.85"/><line class="d" x1="93.77" y1="167.85" x2="93.77" y2="167.85"/><line class="g" x1="108.95" y1="161.18" x2="131.73" y2="151.18"/><line class="d" x1="139.32" y1="147.85" x2="139.32" y2="147.85"/><line class="h" x1="23.77" y1="57.85" x2="77.87" y2="34.09"/><line class="h" x1="23.77" y1="77.85" x2="54.35" y2="64.42"/><line class="h" x1="23.77" y1="97.85" x2="69.32" y2="77.85"/><line class="d" x1="112.78" y1="24.21" x2="112.78" y2="24.21"/><path class="i" d="M175.86,245.27A44.62,44.62,0,0,1,197,270.73" transform="translate(-50.36 -216.5)"/><line class="d" x1="148.22" y1="60.82" x2="148.22" y2="60.82"/><line class="d" x1="58.22" y1="212.82" x2="58.22" y2="212.82"/><path class="j" d="M95.86,424.76A44.61,44.61,0,0,1,74.72,399.3" transform="translate(-50.36 -216.5)"/><line class="d" x1="22.78" y1="176.21" x2="22.78" y2="176.21"/></svg>