<svg width="150" height="150" viewBox="0 0 150 150" fill="none" xmlns="http://www.w3.org/2000/svg">
<path d="M65.1327 52.9688L47.756 39.75L50.1121 67.0688L42.749 77.35L45.9888 87.3375C49.523 88.8063 52.7628 90.5688 55.708 93.2125C56.0025 90.275 56.5915 85.8688 57.1806 83.8125L51.5847 84.6938C53.3519 73.2375 58.3587 62.6625 65.1327 52.9688ZM102.537 39.75C86.0436 52.3813 80.7422 54.1438 74.5573 69.7125L83.0983 67.95C72.4956 79.1125 66.0162 93.8 64.8381 105.256L66.8997 110.25H83.3929C86.0436 104.375 89.8723 92.625 104.009 87.3375L107.249 77.35L99.8861 67.0688L102.537 39.75ZM75.1463 104.669L69.8449 97.0313H80.1532L75.1463 104.669ZM78.975 79.7L92.523 72.9438C89.5778 79.9938 88.3997 81.1688 78.975 79.7ZM71.023 79.7L57.475 72.9438C60.7148 79.9938 61.5983 81.1688 71.023 79.7Z" fill="#161326"/>
<path d="M133.052 50.3416V66.4874C133.052 70.8908 135.39 72.9458 139.773 72.6522V76.7621C135.39 76.7621 133.052 79.1106 133.052 83.2204V99.3663C133.052 101.128 132.76 102.595 132.175 103.77C131.883 104.944 131.007 106.118 130.129 106.999C129.253 108.173 128.084 108.76 126.916 109.347C125.747 109.934 124.285 110.228 122.825 110.228H119.318V106.118H122.825C126.916 106.118 128.961 103.77 128.961 99.6598V83.514C128.961 82.6333 129.253 81.7526 129.545 80.872C129.837 79.9913 130.422 79.1106 131.007 78.2299C131.591 77.3492 132.175 76.7621 133.052 76.1749C133.928 75.5879 134.806 75.2942 135.682 75.0007C134.806 74.7072 133.928 74.4136 133.052 73.8265C132.175 73.2393 131.591 72.6522 131.007 71.7715C130.422 70.8908 129.837 70.0101 129.545 69.1295C129.253 68.2488 128.961 67.3681 128.961 66.4874V50.3416C128.961 45.9382 126.916 43.8833 122.825 43.8833H119.318V39.7734H122.825C124.285 39.7734 125.454 40.067 126.916 40.3606C128.084 40.9476 129.253 41.8283 130.129 42.709C131.007 43.5897 131.883 44.764 132.175 46.2317C132.76 47.4061 133.052 48.8738 133.052 50.3416Z" fill="#161326"/>
<path d="M19.8701 42.709C20.7467 41.8283 21.9156 40.9476 23.0845 40.6541C24.5455 40.067 25.7143 39.7734 27.1754 39.7734H30.6818V43.8833H26.8831C22.7922 43.8833 20.7467 46.2317 20.7467 50.3416V66.1939C20.7467 67.0746 20.4546 67.9553 20.1624 68.8359C19.8701 69.7166 19.578 70.5973 18.9935 71.478C18.4091 72.3587 17.8247 72.9458 16.9481 73.5329C16.0715 74.12 15.1948 74.4136 14.3182 74.7072C15.4871 75.0007 16.0715 75.2942 16.9481 75.8814C17.8247 76.4686 18.4091 77.0556 18.9935 77.9363C19.578 78.817 20.1624 79.6976 20.4546 80.5783C20.7467 81.459 21.039 82.3397 21.039 83.2204V91.2933V99.3663C21.039 103.77 23.0845 105.825 27.1754 105.825H30.6818V110.228H27.1754C25.7143 110.228 24.5455 109.934 23.0845 109.641C21.9156 109.054 20.7467 108.173 19.8701 107.292C18.9935 106.412 18.4091 105.237 18.117 104.063C17.5325 102.595 17.2402 101.128 17.2402 99.6598V83.514C17.2402 79.1106 14.9026 77.0556 10.2273 77.0556V72.9458C14.9026 72.9458 17.2402 70.5973 17.2402 66.4874V50.3416C17.2402 48.8738 17.2402 47.4061 17.8247 45.9382C18.4091 44.764 18.9935 43.5897 19.8701 42.709Z" fill="#161326"/>
</svg>
