<?xml version="1.0" encoding="utf-8"?>
<!-- Generator: Adobe Illustrator 19.2.1, SVG Export Plug-In . SVG Version: 6.00 Build 0)  -->
<svg version="1.1" id="Layer_1" xmlns="http://www.w3.org/2000/svg" xmlns:xlink="http://www.w3.org/1999/xlink" x="0px" y="0px"
	 viewBox="0 0 512 512" style="enable-background:new 0 0 512 512;" xml:space="preserve">
<style type="text/css">
	.st0{fill:#175FF8;}
</style>
<path class="st0" d="M22.1,215h20.5l-1.4,6.9c6.9-6,15.9-9.2,25-9.1c25.9,0,31.5,19.7,28.3,34.4c-3.8,18.1-21.8,33-42.6,33
	c-13.1,0-18.1-5.5-20.3-7.9l-1.2,5.7l-4.5,21H4.1L22.1,215z M72.9,246.4c1.6-7.4-3-16-14.9-16c-5.1,0-10.1,1.7-14.2,4.8
	c-3.8,2.7-6.6,6.9-7.6,11.5c-1,4.1,0.1,8.2,3,11.2c3.1,3.1,7.5,4.8,11.9,4.7c11.5,0,20-8.1,21.7-16L72.9,246.4z M169,278.1h-21.8
	l1.4-6.8c-5.2,6.1-15,8.9-23.6,8.9c-23.1,0-33.3-15.7-29.3-33.8c4.4-20.6,24.5-33.6,43.9-33.6c11.9,0,17.7,5,19.7,8.8l1.4-6.7h21.8
	L169,278.1z M117.4,246.8c-1.2,5.8,1.6,15.7,14.8,15.7c6.3,0.1,12.5-2.4,16.8-7c2.1-2.3,3.8-5,4.8-8.1c0.8-2.7,0.8-5.6-0.1-8.3
	c-1.4-4.3-5.4-8.8-14.6-8.8C128.9,230.1,119.9,236.9,117.4,246.8L117.4,246.8L117.4,246.8z M194.3,274.8L180.1,215h23.3l7,36.6
	l21.8-36.6h23.1L200.7,299h-23.1L194.3,274.8z M255.8,215h20.3l-1.4,6.7c3.1-3.1,8.9-8.8,21.9-8.8c24.6,0,23.4,17.3,21.6,25.8
	l-8.5,39.5H288l7.4-34.5c1.4-6.9,1.1-13.1-8.7-13.1c-10.9,0-13.8,6.7-15.3,13.2l-7.4,34.4h-21.8L255.8,215z M320.9,246.3
	c3.3-15.4,19.9-33.4,46.5-33.4c26.6,0,35.5,18.1,32.2,33.5s-20,33.5-46.5,33.5s-35.5-18.1-32.1-33.5L320.9,246.3L320.9,246.3z
	 M342.6,246.6c-1.8,9.1,4.8,15.9,14.2,15.9s19-6.7,20.9-16s-4.8-15.9-14.2-15.9s-18.8,6.7-20.8,15.9L342.6,246.6z M399.9,215h22.7
	l2.7,39.2l20.4-39.2h18.4l3.9,39.2l19.3-39.2h22.5l-35.8,63.1h-20.3l-3.7-40.8l-21,40.8h-20.3L399.9,215z"/>
</svg>
