<svg xmlns="http://www.w3.org/2000/svg" width="561.3458537441888" height="412.9248000936465"><rect id="backgroundrect" width="100%" height="100%" x="0" y="0" fill="none" stroke="none"/><defs><style>.cls-1{fill:#188fff;}.cls-2{fill:#464e56;}</style></defs><title>Asset 2</title><g class="currentLayer" style=""><title>Layer 1</title><g id="Layer_2" data-name="Layer 2" class="selected"><g id="Layer_1-2" data-name="Layer 1"><path class="cls-1" d="M152.0864696408687,162.71350612801234 H114.65983556751696 C104.54385063689274,137.98847773358645 93.85052661593508,118.7969938569299 79.2915408597017,118.7969938569299 c-18.951783182683137,0 -27.862886533481163,21.07864645786111 -36.472769489322644,41.58154839942253 l-0.7530509873913837,1.7912051618212783 H-1.033897795379145 v12.186592261676909 H24.067801784333618 c8.860899951638606,0 10.668222321377925,3.806310968870216 10.668222321377925,3.806310968870216 c-6.953170783580435,13.753896778270526 -15.312036743624786,27.347864524235586 -29.243480010365374,27.347864524235586 H-1.033897795379145 v12.794322584437701 H5.54274749450561 c27.00942874777094,0 38.807227550235936,-27.923609040535283 48.27056829178764,-50.34565936976235 C62.49850384087385,147.29634741376486 68.54801343958465,134.78989708747704 79.2915408597017,134.78989708747704 c11.145154613392467,0 22.867648317118327,30.898289041417048 33.184446844380275,58.182181952730446 c1.5061019747827664,3.966240001175687 3.0373056491452446,8.028437421734656 4.593611023087436,12.058649035832532 c-39.56027853762732,1.5992903230547126 -58.411654921991605,13.402052907198492 -73.7487933651961,23.029780651987863 c-11.220459712131603,7.036877421440736 -20.08135966377021,15.769002585319466 -34.66544711958333,15.769002585319466 H-1.033897795379145 v12.794322584437701 H8.580053143650852 c17.571189705798936,0 28.5155307225537,-6.908934195596359 40.16271932754042,-14.233683875186944 c16.140392829755307,-10.107514841705784 34.43953182336592,-21.558433554777526 77.56425170131243,-21.558433554777526 h24.925987682654778 v-12.794322584437701 H137.15095839093962 a7.53050987391383,9.595741938328276 0 0 1 -6.200119796189052,-3.1985806461094253 C128.49087203593868,198.76151000966553 126.08110887628628,192.3643487174467 123.7215491157933,185.96718742522785 L120.45832817043068,177.4589629065768 s2.334458060913288,-3.1985806461094253 8.810696552479179,-3.1985806461094253 H152.0864696408687 z" id="svg_1"/><path class="cls-2" d="M199.3529699494678,162.61754870862907 H173.27230408614633 v11.96269161644925 H198.77563085913442 c10.542713823479362,0 16.592223422190138,6.109289034069002 16.592223422190138,17.048434843763236 c0,10.363401293394539 -6.677052088203596,17.048434843763236 -16.99385061546554,17.048434843763236 h-25.101699579712765 v41.58154839942253 h10.040679831885106 V220.51185840320954 h14.885307850769669 c13.605121172204319,0 27.31064914272749,-9.051983228489673 27.31064914272749,-29.490913557128902 C225.4336358127894,173.74860935708983 215.1921423842666,162.61754870862907 199.3529699494678,162.61754870862907 z" id="svg_2"/><path class="cls-2" d="M283.39346014234616,213.37902356238567 c0,16.984463230841047 -6.677052088203596,26.356304523941663 -18.77607128562515,26.356304523941663 s-19.077291680581695,-9.819642583555934 -19.077291680581695,-26.964034846702457 V162.61754870862907 h-10.040679831885106 V213.37902356238567 c0,23.63751097474865 11.044747815073617,38.3829677533131 28.841852817089965,38.3829677533131 S293.3588348754921,237.14447776297862 293.3588348754921,212.64335001378043 V162.61754870862907 h-10.040679831885106 z" id="svg_3"/><polygon class="cls-2" points="318.5860500266786,162.6175537109375 308.6206542356445,162.6175537109375 308.6206542356445,250.38662719726562 355.9624813426704,250.38662719726562 355.9624813426704,238.39190673828125 318.5860500266786,238.39190673828125 318.5860500266786,162.6175537109375 " id="svg_4"/><path class="cls-2" d="M392.28463291914017,200.36080033272023 c-14.408375558755129,-3.934254194714593 -17.04405401462497,-8.092409034656848 -17.04405401462497,-15.161272262558676 S380.5119358162549,173.17286484079014 388.04244569016873,173.17286484079014 a27.913089932640595,35.56821678473681 0 0 1 18.374444092349744,8.828082583262015 l1.0040679831885106,1.0235458067550176 L413.3449588665192,173.17286484079014 l-0.9287628844493724,-0.9595741938328285 a35.69461680235155,45.48381678767603 0 0 0 -24.122733296103966,-10.747230970927667 c-13.354104176407192,0 -23.043360214176317,10.363401293394539 -23.043360214176317,24.91694323319242 c0,16.18481806931369 9.312730544073435,22.10219226461613 23.26927551039373,25.97247484640853 s16.291003027233586,7.804536776506997 16.291003027233586,14.777442585025545 c0,7.548650324818243 -5.572577306696234,12.794322584437701 -13.580019472624604,12.794322584437701 c-8.459272758363204,0 -14.810002752030531,-3.1985806461094253 -21.938885432668954,-11.578861938916122 l-0.9538645840290847,-1.0875174196772057 l-6.250323195348477,9.435812906022804 l0.9036611848696602,1.0235458067550176 a39.93680403132301,50.88941807960096 0 0 0 27.96329333180002,13.945811617037094 c14.08205346421886,0 23.896817999886547,-10.491344519238915 23.896817999886547,-25.588645168875402 C414.8761625408817,212.38746356209177 408.12380535393896,204.74285581789016 392.28463291914017,200.36080033272023 z" id="svg_5"/><path class="cls-2" d="M451.2736269314652,162.00981838586827 l-31.377124474640954,88.3767832520034 h10.392103626001084 l7.881933668029809,-22.390064522765975 h34.53993862168476 l7.781526869710958,22.390064522765975 h10.768629119696774 l-31.377124474640954,-88.3767832520034 zm-9.061713548276307,54.37587098386023 l13.278799077668051,-37.743251624091215 l13.203493978928913,37.743251624091215 z" id="svg_6"/><path class="cls-2" d="M539.1044737608802,215.234200337129 c10.768629119696774,-3.1985806461094253 17.119359113364105,-12.794322584437701 17.119359113364105,-25.940489039947437 a19.504020573436815,24.85297162027023 0 0 0 -5.472170508377383,-17.784108392368406 a27.61186953768404,35.184387107203676 0 0 0 -19.755037569233945,-8.924040002645297 H501.200907395514 V250.38660163787165 h10.040679831885106 V217.47320678940574 h17.119359113364105 l19.253003577639692,32.88140904200489 h12.299832794059256 zm-27.96329333180002,-9.595741938328276 V174.58024032507828 h19.253003577639692 c10.040679831885106,0 15.763867336059619,5.501558711308212 15.763867336059619,15.353187101325238 s-6.225221495768766,15.992903230547126 -15.839172434798755,15.992903230547126 z" id="svg_7"/></g></g></g></svg>