<svg xmlns="http://www.w3.org/2000/svg" width="240" height="120" viewBox="0 0 240 120"><g fill="none" fill-rule="evenodd"><path fill="#FFF" d="M0 0h240v120H0z"/><path d="M0 0h240v120H0z"/><path d="M122.416 67.76h-4.705l-3.612-6.148h-2.08v6.15h-4.377V49.047h7.66c1.833 0 3.366.615 4.651 1.87 1.286 1.258 1.915 2.755 1.915 4.546 0 2.272-1.423 4.357-3.528 5.426l4.076 6.871zm-7.113-14.702h-3.283v4.812h3.283c1.204 0 2.188-1.042 2.188-2.406s-.984-2.406-2.188-2.406zm17.982 2.594v-1.257h4.104V67.76h-4.104v-1.255c-.957 1.096-2.326 1.63-4.076 1.63-1.806 0-3.337-.668-4.624-2.032-1.286-1.363-1.914-3.046-1.914-5.025 0-1.98.628-3.636 1.914-4.999 1.285-1.363 2.818-2.058 4.624-2.058 1.75 0 3.118.534 4.076 1.63v.001zm-5.609 7.805c.601.588 1.395.882 2.353.882.957 0 1.751-.294 2.353-.882.602-.588.903-1.39.903-2.38 0-.989-.301-1.79-.903-2.378-.6-.589-1.396-.882-2.353-.882-.957 0-1.75.293-2.353.88-.6.59-.903 1.392-.903 2.38 0 .99.302 1.792.903 2.38zm22.36-7.806v-6.603h4.103V67.76h-4.104v-1.256c-.957 1.096-2.325 1.63-4.075 1.63-1.806 0-3.337-.668-4.624-2.032-1.286-1.363-1.914-3.046-1.914-5.025 0-1.98.628-3.636 1.914-4.999 1.285-1.363 2.818-2.058 4.624-2.058 1.75 0 3.118.534 4.075 1.63zm-5.609 7.806c.601.588 1.395.882 2.353.882.957 0 1.751-.294 2.352-.882.603-.588.903-1.39.903-2.38 0-.989-.3-1.79-.903-2.378-.601-.589-1.395-.882-2.352-.882-.957 0-1.75.293-2.353.88-.6.59-.903 1.392-.903 2.38 0 .99.3 1.792.903 2.38zm16.204-10.933c-.957.934-2.49.934-3.474 0-.957-.963-.957-2.461 0-3.395.984-.963 2.516-.963 3.474 0 .984.935.984 2.432 0 3.394v.001zm.328 15.237h-4.104V54.395h4.104V67.76zm10.732-13.366v3.85h-2.818v4.73c0 1.07.822 1.257 2.818 1.15v3.636c-2.598.267-4.404.027-5.416-.721-1.013-.776-1.506-2.112-1.506-4.064v-4.732h-2.188v-3.85h2.188v-2.54l4.104-1.202v3.743h2.818zm8.352 8.18l2.572-8.181h4.377l-4.678 12.966c-1.532 4.198-3.94 5.935-7.798 5.748v-3.743c1.888 0 2.791-.587 3.42-2.219l-5.444-12.751h4.515l3.036 8.18zM78.444 77.124a2.341 2.341 0 012.341 2.342v.42a2.341 2.341 0 01-2.341 2.342H42.34A2.341 2.341 0 0140 79.886v-.42a2.341 2.341 0 012.341-2.342h36.103zM73.28 69.3a2.341 2.341 0 012.342 2.341v.42a2.341 2.341 0 01-2.342 2.342H42.34A2.341 2.341 0 0140 72.062v-.42a2.341 2.341 0 012.341-2.342h30.94zm-5.162-7.825a2.341 2.341 0 012.341 2.342v.42a2.341 2.341 0 01-2.341 2.341H42.34A2.341 2.341 0 0140 64.237v-.42a2.341 2.341 0 012.341-2.342H68.12zm13.767-7.826a2.341 2.341 0 012.342 2.342v.42a2.341 2.341 0 01-2.342 2.342H42.341A2.341 2.341 0 0140 56.41v-.42a2.341 2.341 0 012.341-2.342h39.545zm0-7.824a2.341 2.341 0 012.342 2.341v.42a2.341 2.341 0 01-2.342 2.342H42.341A2.341 2.341 0 0140 48.587v-.42a2.341 2.341 0 012.341-2.342h39.545zM71.56 38a2.341 2.341 0 012.341 2.341v.42a2.341 2.341 0 01-2.341 2.342H42.34A2.341 2.341 0 0140 40.762v-.42A2.341 2.341 0 0142.341 38H71.56z" fill="#02072F"/></g></svg>