<svg fill="none" height="512" viewBox="0 0 512 512" width="512" xmlns="http://www.w3.org/2000/svg"><path d="m38 142h436v260h-436z" fill="#131821"/><path d="m38 109h436v33h-436z" fill="#4f5259"/><path d="m86 157h107.921v25h-107.921z" fill="#8f9f60"/><path d="m86 197h311v25h-311z" fill="#cea2ac"/><path d="m86 296h259.01v25h-259.01z" fill="#457d9a"/><path d="m86 336h259.01v25h-259.01z" fill="#6b958e"/><ellipse cx="61.2029" cy="125.5" fill="#ec685b" rx="8.09406" ry="7.5"/><g fill="#fff" fill-opacity=".82"><path d="m67.832 168.84c-.816.4-1.744.72-2.784.96 1.04.24 1.968.56 2.784.96l6.816 3.696c.432.208.736.472.912.792.192.304.288.64.288 1.008v5.16l-19.44-10.152v-2.904l19.44-10.176v5.16c0 .368-.096.712-.288 1.032-.176.304-.48.568-.912.792z"/><path d="m209.28 185.712c-.176.432-.408.816-.696 1.152-.272.336-.584.616-.936.84-.336.224-.704.392-1.104.504-.384.112-.768.168-1.152.168h-3.168l13.632-35.784c.32-.816.808-1.44 1.464-1.872s1.416-.648 2.28-.648h3.168zm39.121-17.352v2.904l-19.44 10.152v-5.16c0-.368.088-.704.264-1.008.192-.32.504-.584.936-.792l6.816-3.696c.816-.4 1.744-.72 2.784-.96-1.04-.24-1.968-.56-2.784-.96l-6.816-3.672c-.432-.224-.744-.488-.936-.792-.176-.32-.264-.664-.264-1.032v-5.16z"/><path d="m412.28 225.712c-.176.432-.408.816-.696 1.152-.272.336-.584.616-.936.84-.336.224-.704.392-1.104.504-.384.112-.768.168-1.152.168h-3.168l13.632-35.784c.32-.816.808-1.44 1.464-1.872s1.416-.648 2.28-.648h3.168zm39.121-17.352v2.904l-19.44 10.152v-5.16c0-.368.088-.704.264-1.008.192-.32.504-.584.936-.792l6.816-3.696c.816-.4 1.744-.72 2.784-.96-1.04-.24-1.968-.56-2.784-.96l-6.816-3.672c-.432-.224-.744-.488-.936-.792-.176-.32-.264-.664-.264-1.032v-5.16z"/><path d="m361.28 323.712c-.176.432-.408.816-.696 1.152-.272.336-.584.616-.936.84-.336.224-.704.392-1.104.504-.384.112-.768.168-1.152.168h-3.168l13.632-35.784c.32-.816.808-1.44 1.464-1.872s1.416-.648 2.28-.648h3.168zm39.121-17.352v2.904l-19.44 10.152v-5.16c0-.368.088-.704.264-1.008.192-.32.504-.584.936-.792l6.816-3.696c.816-.4 1.744-.72 2.784-.96-1.04-.24-1.968-.56-2.784-.96l-6.816-3.672c-.432-.224-.744-.488-.936-.792-.176-.32-.264-.664-.264-1.032v-5.16z"/><path d="m361.28 365.712c-.176.432-.408.816-.696 1.152-.272.336-.584.616-.936.84-.336.224-.704.392-1.104.504-.384.112-.768.168-1.152.168h-3.168l13.632-35.784c.32-.816.808-1.44 1.464-1.872s1.416-.648 2.28-.648h3.168zm39.121-17.352v2.904l-19.44 10.152v-5.16c0-.368.088-.704.264-1.008.192-.32.504-.584.936-.792l6.816-3.696c.816-.4 1.744-.72 2.784-.96-1.04-.24-1.968-.56-2.784-.96l-6.816-3.672c-.432-.224-.744-.488-.936-.792-.176-.32-.264-.664-.264-1.032v-5.16z"/><path d="m67.832 307.84c-.816.4-1.744.72-2.784.96 1.04.24 1.968.56 2.784.96l6.816 3.696c.432.208.736.472.912.792.192.304.288.64.288 1.008v5.16l-19.44-10.152v-2.904l19.44-10.176v5.16c0 .368-.096.712-.288 1.032-.176.304-.48.568-.912.792z"/><path d="m67.832 208.84c-.816.4-1.744.72-2.784.96 1.04.24 1.968.56 2.784.96l6.816 3.696c.432.208.736.472.912.792.192.304.288.64.288 1.008v5.16l-19.44-10.152v-2.904l19.44-10.176v5.16c0 .368-.096.712-.288 1.032-.176.304-.48.568-.912.792z"/><path d="m67.832 347.84c-.816.4-1.744.72-2.784.96 1.04.24 1.968.56 2.784.96l6.816 3.696c.432.208.736.472.912.792.192.304.288.64.288 1.008v5.16l-19.44-10.152v-2.904l19.44-10.176v5.16c0 .368-.096.712-.288 1.032-.176.304-.48.568-.912.792z"/></g></svg>