<svg width="630" height="630" viewBox="0 0 630 630" xmlns="http://www.w3.org/2000/svg"><g fill="none" fill-rule="evenodd"><path d="M0 0h630v630H0z" fill="#F7DF1E" fill-rule="nonzero"/><g fill="#2E2E2C"><path d="M358.27 569h178.54c5.122 0 9.267 4.235 9.267 9.46 0 5.227-4.145 9.462-9.267 9.462H358.27c-5.119 0-9.27-4.235-9.27-9.462 0-5.222 4.151-9.46 9.27-9.46zm30 27h119.756c5.122 0 9.27 4.238 9.27 9.466 0 5.227-4.148 9.46-9.27 9.46H388.27c-5.119 0-9.27-4.233-9.27-9.46 0-5.228 4.151-9.466 9.27-9.466zm80.435-261.732c0-10.641-8.179-19.268-18.606-19.268C439.68 315 432 323.627 432 334.268c0 6.616 3.003 12.45 9.015 15.92v32.785c0 5.618 3.52 10.169 9.017 10.169 5.504 0 9.018-4.551 9.018-10.17v-32.238c6.012-3.378 9.655-9.477 9.655-16.466z"/><path d="M341.43 556.28c-12.134-4.68-26.105-17.37-31.49-28.603-4.214-8.793-16.94-72.544-16.94-84.862 0-13.736 8.912-28.042 21.744-34.904l10.317-3.577L448.858 404h124.464l9.65 3.911c13.485 5.466 21.744 21.168 21.744 34.904 0 9.613-12.669 75.763-15.942 83.24-4.85 11.081-20.582 25.675-32.472 30.123-9.555 3.575-12.63 3.677-107.95 3.588-92.547-.087-98.616-.284-106.922-3.487z" fill-rule="nonzero"/></g><text transform="translate(342 428)" fill="#F7DF1E" font-family="Futura-Medium, Futura" font-size="80" font-weight="400"><tspan x="0" y="83">IOIOI</tspan></text></g></svg>