<svg xmlns="http://www.w3.org/2000/svg" viewBox="0 0 1000 1000"><defs><style>.cls-1{fill:#fff}.cls-5{fill:#cecece}</style><mask id="mask" x="50.66" y="50.17" width="900" height="900" maskUnits="userSpaceOnUse"><g id="mask-2"><path id="path-1" class="cls-1" d="M950.66 950.17v-900h-900v900h900z"/></g></mask></defs><g mask="url(#mask)" id="Logo_background" data-name="Logo background"><path id="Fill-1" d="M950.66 500.17c0-248.53-201.47-450-450-450s-450 201.47-450 450 201.47 450 450 450 450-201.47 450-450" fill="#01f"/></g><g id="Logo"><path id="Fill-4" d="M583.06 478.33l113.13-186.26a3.45 3.45 0 0 0-3.77-5.14L372.83 365a8.2 8.2 0 0 0-6 5.89l-45.1 170.52a8.18 8.18 0 0 0 4.24 9.42l253.36 127.52a2.42 2.42 0 0 1-1.63 4.52l-74.74-17L435 777.11a3.83 3.83 0 0 0 5 5.39l165.85-86.59a15.2 15.2 0 0 0 5.36-4.72l77.11-110.44a7 7 0 0 0-2-9.89L422.89 402.11a2.18 2.18 0 0 1 2.16-3.77z" fill="#0515a5"/><path id="Fill-6" class="cls-5" d="M478.6 676.92l97.57-9.46-74.63-62.63-59.53 98.31 36.59-26.22z"/><path id="Fill-8" class="cls-5" d="M545.96 440.99L383.57 368.9l-7.28 16.75 160.2 107.04 96.12-160.2-86.65 108.5z"/><path id="Fill-10" class="cls-1" d="M557 458.14l113.17-186.26a3.45 3.45 0 0 0-3.77-5.14L346.81 344.8a8.2 8.2 0 0 0-6 5.89l-45.1 170.52a8.19 8.19 0 0 0 4.24 9.43l253.36 127.51a2.42 2.42 0 0 1-1.63 4.52l-74.74-17L409 756.92a3.82 3.82 0 0 0 5 5.38l165.85-86.58a15.2 15.2 0 0 0 5.35-4.72l77.11-110.45a7 7 0 0 0-2-9.88L396.87 381.92a2.18 2.18 0 0 1 2.16-3.78z"/></g></svg>