<?xml version="1.0" encoding="utf-8"?>
<!-- Generator: Adobe Illustrator 22.1.0, SVG Export Plug-In . SVG Version: 6.00 Build 0)  -->
<svg version="1.1" id="Layer_1" xmlns="http://www.w3.org/2000/svg" xmlns:xlink="http://www.w3.org/1999/xlink" x="0px" y="0px"
	 viewBox="0 0 2000 2000" style="enable-background:new 0 0 2000 2000;" xml:space="preserve">
<style type="text/css">
	.st0{fill:#231F20;}
</style>
<g>
	<polygon class="st0" points="1000.5,1959.6 974.6,1974.5 979.3,1977.2 1000.5,1965 1000.5,1989 1862.2,1491.5 1862.2,1437.7 
		1000.5,1935.2 	"/>
	<polygon class="st0" points="1000.5,1796.1 833.1,1892.8 841.2,1897.5 1000.5,1805.6 1000.5,1825.8 1862.2,1328.2 1862.2,1278.3 
		1000.5,1775.8 	"/>
	<polygon class="st0" points="1000.5,1632.7 691.5,1811.1 703.2,1817.8 1000.5,1646.2 1000.5,1662.3 1862.2,1164.8 1862.2,1118.9 
		1000.5,1616.4 	"/>
	<path class="st0" d="M1862.2,495.9l-12.7-7.3l-690,398.4l-89.6-51.7l209.7-121.1v-30.3l454.1-262.2l-22.2-12.8l-431.9,249.3v-26
		L998.9,794.3l-96.8-55.9l690-398.4l-18.7-10.8l-690,398.4l-94.2-54.4l153-88.3l-28.6-16.5l537.1-310.1l-15.2-8.8L898.4,559.6
		l-27.2-15.7l-153.4,88.3v31.7l-143.8,83l-10.5-6L137.9,986.5v41.8l461.8-266.6l-10.6-6.1l128.6-74.2V714l94.6,54.6l-100.2,57.8
		l-7-4L137.9,1150v37.8L738,841.3l-7.1-4.1l100.1-57.8l96.8,55.9L717.8,956.6v22l-579.9,334.8v33.7l579.9-334.8v25.8l90,51.9
		l-669.8,386.7v14.6l13.1,7.6l682.5-394l93.1,53.7l-208.8,119.4v27.4l-450.9,260.4l22.2,12.8l428.7-247.5v31.6l281.1-162.3l84.9,49
		l-83.3,48.1v8.1l-592.1,341.8l18.7,10.8l573.4-331v8.1l116.1-67l92.1,53.2l-150.3,86.8l13.2,7.6l-71.1,41v12.2L550,1729.3l15.2,8.8
		l435.3-251.3v12.1l107.3-62l21.6,12.5l150.3-86.6v-25.1l582.6-336.3v-41.8l-582.6,336.3v-15.3l-92.1-53.2l674.6-389.5v-37.8
		l-707.4,408.4l-84.9-49l209.7-121.1v-27.6l582.6-336.3v-33.7l-582.6,336.3v-20.7l-94.4-54.5l677-390.9V495.9z M789.2,997.4
		l209.7-121.1l89.5,51.7l-99.9,57.7l0,0l-109.8,63.4L789.2,997.4z M1208.6,997.4L998,1117.9l-93.4-53.9l96.4-55.7v0l113.3-65.4
		L1208.6,997.4z"/>
	<polygon class="st0" points="447.4,674.1 1309.1,176.6 1297.4,169.8 435.7,667.3 421.7,659.3 137.9,823.1 137.9,869 461.5,682.2 	
		"/>
	<polygon class="st0" points="305.7,592.5 1167.6,94.9 1159.4,90.1 297.5,587.8 279.9,577.7 137.9,659.7 137.9,709.6 323.3,602.6 	
		"/>
	<polygon class="st0" points="163.9,510.9 1026,13.1 1021.3,10.4 159.2,508.2 138.2,496.1 137.9,496.2 137.9,550.2 185,523 	"/>
</g>
</svg>
