<?xml version="1.0" encoding="UTF-8" standalone="no"?>
<!DOCTYPE svg PUBLIC "-//W3C//DTD SVG 1.1//EN" "http://www.w3.org/Graphics/SVG/1.1/DTD/svg11.dtd">
<svg width="100%" height="100%" viewBox="0 0 161 148" version="1.1" xmlns="http://www.w3.org/2000/svg" xmlns:xlink="http://www.w3.org/1999/xlink" xml:space="preserve" xmlns:serif="http://www.serif.com/" style="fill-rule:evenodd;clip-rule:evenodd;stroke-linejoin:round;stroke-miterlimit:1.41421;">
    <g transform="matrix(1,0,0,1,-559.925,-326.183)">
        <path d="M598.789,400.047C594.752,396.071 589.822,393.257 584.524,391.747C584.756,391.811 581.271,369.784 589.789,369.569C592.053,368.234 624.312,371.319 624.576,377.612C624.697,380.477 625.188,383.349 626.07,386.156C624.592,387.087 623.204,388.168 621.939,389.392C620.91,390.373 620.806,390.447 620.286,390.895C614.276,396.067 606.7,399.127 598.789,400.047Z" style="fill:rgb(41,128,185);"/>
        <path d="M646.654,398.758C648.202,399.575 649.833,400.236 651.52,400.718C653.012,401.157 653.192,401.234 653.948,401.505C661.299,404.14 667.641,409.082 672.348,415.345C670.898,420.858 670.919,426.569 672.268,431.943C672.207,431.711 658.468,430.381 658.468,430.381C646.572,431.475 625.339,413.63 640,404.324C642.422,402.788 644.663,400.926 646.654,398.758Z" style="fill:rgb(255,190,83);"/>
        <path d="M648.312,344.214C654.005,342.752 659.112,339.824 663.206,335.857C663.036,336.026 680.082,353.053 680.15,358.828C680.175,361.457 664.635,382.427 655.422,377.611C652.881,376.283 650.148,375.272 647.276,374.633C647.209,372.887 646.966,371.144 646.539,369.437C646.464,369.126 646.464,369.126 646.391,368.815C644.55,360.657 645.245,351.983 648.312,344.214Z" style="fill:rgb(255,97,56);"/>
        <g transform="matrix(0.667292,0,0,0.667292,357.911,195.006)">
            <path d="M422.737,313.683C429.324,309.502 435.025,303.716 439.193,296.497C446.027,284.66 447.464,271.179 444.271,258.909C443.253,254.911 442.75,250.847 442.737,246.806C442.687,238.252 444.833,229.573 449.405,221.633L449.409,221.627L449.411,221.622L449.435,221.58L449.459,221.539C451.33,218.296 453.577,215.244 456.179,212.457L456.188,212.447L456.216,212.417L456.312,212.314L456.352,212.272L456.4,212.221L456.469,212.148L456.488,212.128L456.507,212.108C460.106,208.322 464.227,205.184 468.689,202.744C476.224,198.607 484.385,196.617 492.453,196.581C501.045,196.522 509.764,198.676 517.736,203.279C525.709,207.882 531.934,214.356 536.179,221.827C540.182,228.831 542.539,236.894 542.724,245.488C542.841,250.572 542.184,255.71 540.705,260.72L540.697,260.747L540.689,260.773L540.661,260.869L540.64,260.937L540.624,260.991L540.583,261.126L540.571,261.166L540.567,261.178C539.454,264.826 537.935,268.297 536.062,271.539L536.038,271.58L536.014,271.621L536.011,271.626L536.006,271.634C531.41,279.573 524.957,285.776 517.512,290.011C514.015,292.012 510.253,293.603 506.293,294.717C494.07,298.087 483.113,306.072 476.279,317.909C469.524,329.609 468.042,342.916 471.093,355.072C471.002,354.724 470.906,354.376 470.806,354.03L470.77,353.904L470.755,353.853L470.749,353.832L470.74,353.802C469.614,349.944 468.034,346.277 466.062,342.865L466.038,342.824L466.009,342.773C461.364,334.748 454.821,328.497 447.275,324.259C443.845,322.321 440.164,320.777 436.294,319.688C431.526,318.374 426.95,316.357 422.737,313.683Z" style="fill:rgb(255,190,83);"/>
        </g>
        <g transform="matrix(0.667292,0,0,0.667292,459.831,133.498)">
            <path d="M246.887,365.827C247.214,373.622 249.375,381.452 253.542,388.671C260.376,400.508 271.333,408.493 283.556,411.863C287.527,412.981 291.298,414.577 294.804,416.586C302.237,420.82 308.68,427.018 313.27,434.947L313.301,435L313.325,435.041C315.198,438.283 316.717,441.754 317.83,445.402L317.834,445.414L317.846,445.454L317.887,445.589L317.903,445.643L317.924,445.711L317.952,445.807L317.96,445.833L317.968,445.86C319.447,450.87 320.104,456.008 319.987,461.092C319.802,469.686 317.445,477.749 313.442,484.753C309.197,492.224 302.972,498.698 294.999,503.301C287.027,507.904 278.308,510.058 269.716,509.999C261.648,509.963 253.487,507.973 245.952,503.836C241.49,501.396 237.369,498.258 233.77,494.472L233.751,494.452L233.732,494.432L233.663,494.359L233.615,494.308L233.575,494.266L233.479,494.163L233.451,494.133L233.442,494.123C230.84,491.336 228.593,488.284 226.722,485.041L226.698,485L226.675,484.958L226.672,484.953L226.667,484.946C222.09,476.995 219.945,468.305 220,459.74C220.015,455.711 220.519,451.658 221.534,447.671C224.727,435.401 223.29,421.92 216.456,410.083C209.701,398.383 198.917,390.446 186.865,387.01C187.212,387.105 187.56,387.196 187.911,387.283L188.038,387.315L188.089,387.327L188.11,387.332L188.141,387.34C192.046,388.293 196.011,388.758 199.951,388.757L199.999,388.757L200.058,388.757C209.33,388.746 218.015,386.206 225.459,381.79C228.851,379.788 232.029,377.373 234.907,374.565C238.43,371.093 242.464,368.139 246.887,365.827Z" style="fill:rgb(41,128,185);"/>
        </g>
        <g transform="matrix(0.667292,0,0,0.667292,459.831,133.498)">
            <path d="M293.112,365.825C286.198,362.211 278.336,360.167 270,360.167C256.333,360.167 243.939,365.663 234.909,374.564C231.956,377.444 228.688,379.912 225.195,381.943C217.812,386.264 209.223,388.744 200.061,388.755L200.053,388.755L200.048,388.755L200,388.755L199.952,388.755C196.208,388.756 192.442,388.337 188.727,387.477L188.714,387.474L188.673,387.464L188.536,387.433L188.481,387.419L188.412,387.403L188.315,387.38L188.288,387.373L188.261,387.367C183.182,386.143 178.404,384.143 174.06,381.499C166.71,377.042 160.906,370.969 156.841,364.001C152.493,356.589 150,347.961 150,338.755C150,329.549 152.493,320.921 156.841,313.51C160.906,306.541 166.71,300.468 174.06,296.011C178.404,293.367 183.182,291.367 188.261,290.144L188.288,290.137L188.315,290.131L188.412,290.107L188.481,290.091L188.536,290.078L188.673,290.046L188.714,290.037L188.727,290.034C192.442,289.174 196.208,288.754 199.952,288.755L200,288.755L200.047,288.755L200.053,288.755L200.062,288.755C209.236,288.767 217.834,291.254 225.224,295.584C228.706,297.612 231.964,300.074 234.909,302.947C243.939,311.847 256.333,317.343 270,317.343C283.511,317.343 295.776,311.973 304.778,303.253C304.522,303.506 304.269,303.763 304.019,304.023L303.928,304.117L303.891,304.155L303.876,304.171L303.855,304.193C301.076,307.099 298.691,310.3 296.722,313.713L296.698,313.755L296.669,313.806C292.041,321.841 289.899,330.632 290.002,339.287C290.039,343.226 290.542,347.185 291.534,351.082C292.78,355.868 293.321,360.84 293.112,365.825Z" style="fill:rgb(255,97,56);"/>
        </g>
        <path d="M598.789,400.047C594.752,396.071 589.822,393.257 584.524,391.747C584.756,391.811 584.988,391.871 585.222,391.929L585.307,391.95L585.355,391.962L585.375,391.967C587.981,392.603 590.627,392.914 593.257,392.913L593.289,392.913L593.328,392.913C599.515,392.906 605.311,391.211 610.278,388.264C612.541,386.928 614.662,385.316 616.583,383.443C618.933,381.126 621.625,379.155 624.576,377.612C624.697,380.477 625.188,383.349 626.07,386.156C624.592,387.087 623.204,388.168 621.939,389.392C620.91,390.373 620.806,390.447 620.286,390.895C614.276,396.067 606.7,399.127 598.789,400.047Z" style="fill-opacity:0.0784314;"/>
        <path d="M648.312,344.214C654.005,342.752 659.112,339.824 663.206,335.857C663.036,336.026 662.867,336.197 662.7,336.37L662.639,336.433L662.615,336.459L662.605,336.469L662.591,336.484C660.737,338.423 659.145,340.559 657.831,342.837L657.815,342.865L657.795,342.898C654.708,348.26 653.278,354.127 653.347,359.902C653.371,362.53 653.707,365.173 654.369,367.773C655.2,370.967 655.561,374.284 655.422,377.611C652.881,376.283 650.148,375.272 647.276,374.633C647.209,372.887 646.966,371.144 646.539,369.437C646.464,369.126 646.464,369.126 646.391,368.815C644.55,360.657 645.245,351.983 648.312,344.214Z" style="fill-opacity:0.0784314;"/>
        <path d="M646.654,398.758C648.202,399.575 649.833,400.236 651.52,400.718C653.012,401.157 653.192,401.234 653.948,401.505C661.299,404.14 667.641,409.082 672.348,415.345C670.898,420.858 670.919,426.569 672.268,431.943C672.207,431.711 672.143,431.479 672.077,431.248L672.053,431.164L672.043,431.13L672.039,431.116L672.033,431.096C671.281,428.521 670.227,426.075 668.911,423.798L668.895,423.77L668.875,423.736C665.776,418.381 661.41,414.21 656.374,411.382C654.086,410.089 651.63,409.059 649.047,408.332C645.865,407.455 642.812,406.109 640,404.324C642.422,402.788 644.663,400.926 646.654,398.758Z" style="fill-opacity:0.0784314;"/>
    </g>
</svg>
