<svg xmlns="http://www.w3.org/2000/svg" width="404.5" height="435.9"><path fill="#9ecff0" d="M201.8 430.9c-30.8 0-177.2-172.2-177.2-345 0-14.4 18-19.9 33.8-24.8 7.3-2.3 14-4.4 18.3-7 27.7-17 94-29.4 125-29.4 31.2 0 97.4 12.4 125.2 29.5 4.1 2.5 11 4.6 18.2 6.9C361 66 378.9 71.6 378.9 86c0 179.7-152 344.9-177.1 344.9z"/><path fill="#4c6fb5" d="M201.8 29.7c31.4 0 96.2 12.5 122.5 28.7C338.2 67 374 69.7 374 86c0 175.5-149.5 340-172.2 340-24.9 0-172.2-165.3-172.2-340 0-16.3 35.8-19 49.7-27.6 26.2-16.2 91-28.7 122.5-28.7m0-10c-31.7 0-99.3 12.7-127.7 30.2-3.7 2.3-10.5 4.4-17.1 6.5-16.7 5-37.3 11.5-37.3 29.6 0 179.7 149.5 349.9 182 349.9 31.7 0 182.2-174.7 182.2-349.9 0-18.1-20.7-24.5-37.3-29.6-6.6-2.1-13.5-4.2-17.1-6.5-28.5-17.5-96-30.1-127.7-30.1z"/><path fill="#7fc2eb" d="M201.8 42.9c31.5 0 93.2 12.9 115.5 26.6 6.2 3.8 14 6.3 22.5 8.9 6.3 2 17.9 5.5 21 8.4-.6 162.8-134 312.5-159.2 325.3-25-11.9-158.2-159-158.8-325.3a79 79 0 0 1 21-8.4c8.4-2.6 16.3-5 22.4-8.9 22.4-13.7 84-26.7 115.6-26.7m0-13.2c-31.5 0-96.2 12.5-122.5 28.7-14 8.5-49.7 11.3-49.7 27.6 0 174.6 147.3 339.9 172.2 339.9 22.7 0 172.2-164.4 172.2-340 0-16.2-35.8-19-49.7-27.5-26.3-16.2-91-28.7-122.5-28.7z"/><path fill="#c4de8d" d="M316 47.3l12.4 19.9 69.2 20.7 1.7-28L329 37.5z"/><path fill="#78c25c" d="M402.2 94.4l-77-23-15.8-25.3L328.1 32l76.4 24.4zM331.7 63l61.4 18.3 1-17.8L330 43l-7.4 5.6 9 14.4z"/><path fill="#c4de8d" d="M88.5 47L76.1 66.9 6.9 87.5 5.2 59.7l70.3-22.5z"/><path fill="#78c25c" d="M2.3 94.1L0 56.1l76.4-24.4 18.7 14.1-15.8 25.4zm8-30.9L11.5 81l61.4-18.3 9-14.4-7.4-5.6-64.1 20.5z"/><path fill="#4c6fb5" d="M201.8 0l-86.2 7.7 86.2 64.2 86.1-64.2z"/><path fill="#4c6fb5" d="M242.5 200.3c-.8-9.9-6.3-21.4-11.5-32.6-5.6-12-11.5-24.5-10.2-32.3.4-2.3 3.5-6.6 6-10 4.1-5.9 8.5-12 8.2-17.7-.6-14-24.7-41.3-29.5-46.6l-3.7-4-3.7 4c-4.8 5.3-29 32.5-29.6 46.6-.2 5.8 4.1 11.8 8.3 17.7a37 37 0 0 1 6 10c1.2 7.8-4.6 20.3-10.3 32.3-5.2 11.2-10.6 22.7-11.4 32.6-3.2 39.3-3.6 133.3-3.5 192.4V390c1.7 1.9 3.7 6.4 5.3 8.1 1.7 1.8 3 .8 4.6 2.5v1.4c-.2-58 .1-159.5 3.5-200.9.6-8 5.7-18.8 10.5-29.1 6.6-14 12.8-27.4 11-38.2a36 36 0 0 0-7.6-14.2c-2.8-3.9-6.5-9.1-6.4-11.5.3-6.9 12.8-24 23.3-36.2 10.5 12.2 23 29.3 23.3 36.2.1 2.4-3.7 7.7-6.4 11.5-3.6 5-7 9.6-7.7 14.2-1.8 10.8 4.4 24.1 11 38.2a101 101 0 0 1 10.6 29.1c3.3 41.3 3.6 140.4 3.4 198.6l.8 2.3c1.6-1.6 2.8-2.3 4.5-4 1.7-1.9 3-7 4.6-8.9v5c.1-59-.3-154.7-3.4-193.8z"/><path fill="#fff" d="M232.6 201.1A101 101 0 0 0 222 172c-6.6-14.1-12.8-27.4-11-38.2.8-4.6 4.1-9.3 7.7-14.2 2.7-3.8 6.5-9.1 6.4-11.5-.3-6.9-12.8-24-23.3-36.2-10.5 12.2-23 29.3-23.3 36.2-.1 2.4 3.6 7.6 6.4 11.5 3.5 5 6.9 9.6 7.6 14.2 1.8 10.8-4.4 24.1-11 38.2-4.8 10.3-9.9 21-10.5 29.1-3.4 41.4-3.6 141.3-3.5 199.4 15.8 16.1 28.4 25.3 34.3 25.3 5.4 0 18-9.5 34.2-26.1.2-58.2 0-157.3-3.4-198.6z"/><path fill="#7fc2eb" d="M118.2 14.9l-12.7 33.6 60 73.6 36.3-58z"/><path fill="#4c6fb5" d="M166.1 130.6L99.8 48.8l15.8-41.1 93.1 54.7zm-55-83l53.9 66 29.9-47.8-74.2-43.6z"/><path fill="#7fc2eb" d="M285.4 14.9l12.7 33.6-60.1 73.6-36.2-58z"/><path fill="#4c6fb5" d="M237.5 130.6l-42.6-68.2 93-54.7 15.8 41.1zm-28.8-64.8l29.8 47.8 54-66-9.7-25.4z"/></svg>
