<?xml version="1.0" encoding="utf-8"?>
<!-- Generator: Adobe Illustrator 16.0.0, SVG Export Plug-In . SVG Version: 6.00 Build 0)  -->
<!DOCTYPE svg PUBLIC "-//W3C//DTD SVG 1.1//EN" "http://www.w3.org/Graphics/SVG/1.1/DTD/svg11.dtd">
<svg version="1.1" id="Layer_1" xmlns="http://www.w3.org/2000/svg" xmlns:xlink="http://www.w3.org/1999/xlink" x="0px" y="0px"
	 width="296px" height="306.14px" viewBox="0 0 296 306.14" enable-background="new 0 0 296 306.14" xml:space="preserve">
<g>
	<g>
		<g>
			<path fill="#FED766" d="M148.25,292.409c-8.648,0-16.812-1.957-22.971-5.516L43.74,239.827
				c-12.67-7.313-22.971-25.168-22.971-39.791V105.9c0-14.626,10.301-32.474,22.971-39.788l81.539-47.072
				c6.158-3.557,14.322-5.518,22.971-5.518c8.652,0,16.807,1.961,22.971,5.518l81.535,47.072
				c12.67,7.314,22.979,25.162,22.979,39.788v94.136c0,14.623-10.309,32.478-22.979,39.796l-81.535,47.062
				C165.056,290.452,156.902,292.409,148.25,292.409z M148.25,217.434l55.83-32.234v-64.468l-55.83-32.229l-55.836,32.229v64.468
				L148.25,217.434z"/>
		</g>
	</g>
	<g>
		<path fill="#231F20" d="M254.408,63.39l-81.576-47.068c-6.631-3.834-15.369-5.941-24.564-5.941
			c-9.188,0-17.921,2.107-24.552,5.941L41.876,63.39C28.117,71.34,17.029,90.016,17.029,105.9v94.136
			c0,15.893,11.082,34.562,24.842,42.511l81.686,47.068c6.631,3.825,15.43,5.938,24.617,5.938c9.195,0,17.952-2.112,24.583-5.938
			l81.632-47.068c13.766-7.944,24.641-26.615,24.641-42.511V105.9C279.029,90.006,268.173,71.338,254.408,63.39z M126.849,21.759
			c5.883-3.398,13.643-5.094,21.4-5.094c7.762,0,15.516,1.695,21.4,5.094l70.029,40.429l0.209,104.945l-32.859,19.253v-67.465
			l-0.076-0.101l0.098-35.164l-90.484-55.976L126.849,21.759z M201.029,122.549v60.839l-52.996,30.418l-53.004-30.418v-60.839
			l53.004-30.422L201.029,122.549z M56.029,243.447l-10.793-6.344c-11.77-6.794-21.207-23.47-21.207-37.067V116.18l90.285-50.222
			l33.299,19.233l-91.584,50.768V243.447z M272.029,200.036c0,13.598-9.35,30.273-21.119,37.072l-70.914,40.937l-90.967-52.116
			v-37.905v-0.999l59.086,34.035l0.16-0.055l30.064,19.89l93.689-53.746V200.036z"/>
	</g>
</g>
</svg>
