<?xml version="1.0" encoding="UTF-8"?>
<svg width="315px" height="315px" viewBox="0 0 315 315" version="1.1" xmlns="http://www.w3.org/2000/svg" xmlns:xlink="http://www.w3.org/1999/xlink">
    <!-- Generator: Sketch 46.2 (44496) - http://www.bohemiancoding.com/sketch -->
    <title>Square Logo</title>
    <desc>Created with Sketch.</desc>
    <defs>
        <polygon id="path-1" points="276.645 0.485512601 276.645 159.239734 0.56 159.239734 0.56 0.485512601 276.645 0.485512601"></polygon>
        <polygon id="path-3" points="276.645 0.568083255 276.645 159.321651 0.56 159.321651 0.56 0.568083255 276.645 0.568083255"></polygon>
        <polygon id="path-5" points="276.645 0.649641742 276.645 159.402404 0.56 159.402404 0.56 0.649641742"></polygon>
    </defs>
    <g id="Logos" stroke="none" stroke-width="1" fill="none" fill-rule="evenodd">
        <g id="Square-Logo">
            <path d="M21.5593,19.4999 L293.6453,19.4999 C294.7493,19.4999 295.6453,20.3959 295.6453,21.4999 L295.6453,293.5859 C295.6453,294.6909 294.7493,295.5859 293.6453,295.5859 L21.5593,295.5859 C20.4553,295.5859 19.5593,294.6909 19.5593,293.5859 L19.5593,21.4999 C19.5593,20.3959 20.4553,19.4999 21.5593,19.4999 Z" id="Stroke-11" stroke="#2997D3" stroke-width="9"></path>
            <g id="Flow-Lines" transform="translate(19.000000, 52.086000)">
                <g id="Bottom" transform="translate(0.000000, 48.000000)">
                    <mask id="mask-2" fill="white">
                        <use xlink:href="#path-1"></use>
                    </mask>
                    <g id="Clip-2"></g>
                    <path d="M2.3923,159.1863 C4.0883,159.0153 5.7473,158.4323 7.0143,157.4603 L50.3713,124.2253 C52.2823,122.7623 55.4503,122.5473 57.4383,123.7483 L75.7183,134.8123 C77.0673,135.6273 78.8813,136.0163 80.7593,135.8923 C82.6403,135.7693 84.4253,135.1393 85.7293,134.1443 L143.3623,90.2073 C145.2643,88.7573 148.4213,88.5803 150.3343,89.8153 L164.4063,98.8913 C165.7663,99.7703 167.6453,100.1963 169.5983,100.0653 C171.5543,99.9323 173.3983,99.2603 174.7073,98.2053 L286.1863,8.2753 C288.8083,6.1573 288.5883,3.1223 285.6973,1.4923 C282.7993,-0.1397 278.3273,0.2543 275.7043,2.3703 L172.6493,85.5073 C170.8243,86.9803 167.6803,87.1913 165.7853,85.9653 L151.8723,76.9903 C150.5373,76.1283 148.7023,75.7023 146.7873,75.8103 C144.8753,75.9153 143.0413,76.5503 141.7123,77.5623 L83.9333,121.6133 C82.0143,123.0773 78.8443,123.2863 76.8543,122.0833 L58.5603,111.0113 C57.2053,110.1933 55.3893,109.8063 53.5073,109.9303 C51.6323,110.0583 49.8353,110.6893 48.5343,111.6893 L-3.2017,151.3483 C-5.9027,153.4173 -5.8047,156.4623 -2.9817,158.1533 C-1.4857,159.0483 0.4753,159.3803 2.3923,159.1863" id="Fill-1" fill="#1A97D4" mask="url(#mask-2)"></path>
                </g>
                <g id="Middle" transform="translate(0.000000, 24.000000)">
                    <mask id="mask-4" fill="white">
                        <use xlink:href="#path-3"></use>
                    </mask>
                    <g id="Clip-5"></g>
                    <path d="M-0.0247,159.2684 C1.6703,159.0974 3.3303,158.5134 4.5963,157.5414 L47.9533,124.3064 C49.8643,122.8424 53.0333,122.6274 55.0213,123.8284 L73.3013,134.8934 C74.6503,135.7124 76.4643,136.1004 78.3423,135.9724 C80.2223,135.8514 82.0073,135.2234 83.3113,134.2264 L140.9443,90.2884 C142.8473,88.8374 146.0033,88.6594 147.9173,89.8964 L161.9883,98.9744 C163.3493,99.8524 165.2283,100.2774 167.1803,100.1464 C169.1363,100.0134 170.9813,99.3424 172.2903,98.2864 L283.7693,8.3574 C286.3913,6.2404 286.1703,3.2054 283.2793,1.5764 C280.3823,-0.0576 275.9103,0.3364 273.2873,2.4534 L170.2323,85.5894 C168.4063,87.0604 165.2623,87.2714 163.3683,86.0484 L149.4553,77.0714 C148.1193,76.2104 146.2853,75.7844 144.3693,75.8914 C142.4583,75.9974 140.6233,76.6314 139.2953,77.6434 L81.5153,121.6954 C79.5973,123.1594 76.4263,123.3684 74.4373,122.1644 L56.1423,111.0944 C54.7883,110.2764 52.9713,109.8864 51.0903,110.0134 C49.2143,110.1384 47.4183,110.7744 46.1163,111.7714 L-5.6197,151.4274 C-8.3197,153.4994 -8.2227,156.5444 -5.3997,158.2324 C-3.9037,159.1284 -1.9427,159.4624 -0.0247,159.2684" id="Fill-4" fill="#1A97D4" mask="url(#mask-4)"></path>
                </g>
                <g id="Top">
                    <mask id="mask-6" fill="white">
                        <use xlink:href="#path-5"></use>
                    </mask>
                    <g id="Clip-8"></g>
                    <path d="M-2.4426,159.3489 C-0.7466,159.1779 0.9124,158.5939 2.1794,157.6219 L45.5364,124.3909 C47.4474,122.9239 50.6154,122.7089 52.6034,123.9119 L70.8834,134.9739 C72.2324,135.7919 74.0464,136.1779 75.9244,136.0559 C77.8054,135.9329 79.5904,135.3029 80.8944,134.3079 L138.5274,90.3719 C140.4294,88.9199 143.5854,88.7429 145.5004,89.9799 L159.5714,99.0539 C160.9314,99.9349 162.8104,100.3579 164.7634,100.2279 C166.7194,100.0959 168.5634,99.4269 169.8724,98.3679 L281.3514,8.4399 C283.9744,6.3239 283.7534,3.2869 280.8624,1.6549 C277.9654,0.0249 273.4924,0.4189 270.8694,2.5339 L167.8144,85.6719 C165.9894,87.1449 162.8454,87.3539 160.9514,86.1309 L147.0374,77.1549 C145.7014,76.2889 143.8674,75.8659 141.9524,75.9729 C140.0404,76.0789 138.2064,76.7139 136.8774,77.7259 L79.0974,121.7759 C77.1794,123.2399 74.0094,123.4509 72.0194,122.2489 L53.7254,111.1749 C52.3704,110.3589 50.5534,109.9669 48.6724,110.0959 C46.7974,110.2199 45.0004,110.8549 43.6994,111.8519 L-8.0376,151.5099 C-10.7376,153.5799 -10.6396,156.6269 -7.8166,158.3139 C-6.3206,159.2119 -4.3596,159.5429 -2.4426,159.3489" id="Fill-7" fill="#1A97D4" mask="url(#mask-6)"></path>
                </g>
            </g>
        </g>
    </g>
</svg>
