<?xml version="1.0" encoding="utf-8"?>
<!-- Generator: Adobe Illustrator 21.1.0, SVG Export Plug-In . SVG Version: 6.00 Build 0)  -->
<svg version="1.1" id="Layer_1" xmlns="http://www.w3.org/2000/svg" xmlns:xlink="http://www.w3.org/1999/xlink" x="0px" y="0px"
	 viewBox="0 0 1140 594" style="enable-background:new 0 0 1140 594;" xml:space="preserve">
<style type="text/css">
	.st0{fill:#F6612C;}
	.st1{fill:#FFFFFF;}
	.st2{fill:none;}
</style>
<g>
	<rect x="0.5" y="0.5" class="st0" width="1139" height="593"/>
	<path d="M1139,1v592H1V1H1139 M1140,0H0v594h1140V0L1140,0z"/>
</g>
<g>
	<path class="st1" d="M729.3,254.5c0-18.1-22.6-35.2-57.3-45.8c8-35.4,4.4-63.5-11.2-72.5c-3.6-2.1-7.8-3.1-12.5-3.1v12.4
		c2.6,0,4.6,0.5,6.3,1.4c7.6,4.3,10.8,20.8,8.3,42.1c-0.6,5.2-1.6,10.7-2.8,16.3c-10.9-2.7-22.8-4.7-35.3-6.1
		c-7.5-10.3-15.3-19.6-23.1-27.8c18.1-16.8,35.1-26.1,46.7-26.1V133l0,0c-15.3,0-35.3,10.9-55.5,29.8
		c-20.2-18.8-40.3-29.6-55.5-29.6v12.4c11.5,0,28.6,9.2,46.7,25.9c-7.8,8.2-15.6,17.5-23,27.7c-12.6,1.3-24.5,3.4-35.4,6.1
		c-1.3-5.6-2.2-11-2.9-16.1c-2.6-21.2,0.6-37.7,8.1-42.1c1.7-1,3.8-1.4,6.4-1.4v-12.4l0,0c-4.7,0-8.9,1-12.6,3.1
		c-15.6,9-19.1,37.1-11.1,72.3c-34.6,10.7-57.1,27.7-57.1,45.8c0,18.1,22.6,35.2,57.3,45.8c-8,35.4-4.4,63.5,11.2,72.5
		c3.6,2.1,7.8,3.1,12.5,3.1c15.3,0,35.3-10.9,55.5-29.8c20.2,18.8,40.3,29.6,55.5,29.6c4.7,0,8.9-1,12.6-3.1
		c15.6-9,19.1-37.1,11.1-72.3C706.8,289.6,729.3,272.5,729.3,254.5z M656.9,217.4c-2.1,7.2-4.6,14.6-7.5,22
		c-2.3-4.4-4.7-8.9-7.3-13.3c-2.6-4.4-5.3-8.8-8-13C642,214.2,649.6,215.6,656.9,217.4z M631.5,276.6c-4.3,7.5-8.8,14.6-13.4,21.2
		c-8.3,0.7-16.7,1.1-25.1,1.1c-8.4,0-16.8-0.4-25-1.1c-4.6-6.6-9.1-13.7-13.5-21.1c-4.2-7.3-8.1-14.7-11.6-22.1
		c3.4-7.4,7.3-14.9,11.5-22.2c4.3-7.5,8.8-14.6,13.4-21.2c8.3-0.7,16.7-1.1,25.1-1.1c8.4,0,16.8,0.4,25,1.1
		c4.6,6.6,9.1,13.7,13.5,21.1c4.2,7.3,8.1,14.7,11.6,22.1C639.5,261.9,635.6,269.3,631.5,276.6z M649.4,269.4
		c3,7.4,5.6,14.9,7.7,22.1c-7.3,1.8-15,3.3-22.9,4.4c2.7-4.3,5.4-8.7,8-13.2C644.7,278.3,647.1,273.8,649.4,269.4z M593,328.7
		c-5.2-5.3-10.3-11.3-15.5-17.8c5,0.2,10.1,0.4,15.3,0.4c5.2,0,10.4-0.1,15.5-0.4C603.3,317.4,598.1,323.4,593,328.7z M551.7,296
		c-7.9-1.2-15.5-2.6-22.8-4.4c2.1-7.2,4.6-14.6,7.5-22c2.3,4.4,4.7,8.9,7.3,13.3C546.3,287.4,548.9,291.7,551.7,296z M592.8,180.3
		c5.2,5.3,10.3,11.3,15.5,17.8c-5-0.2-10.1-0.4-15.3-0.4c-5.2,0-10.4,0.1-15.5,0.4C582.5,191.5,587.6,185.6,592.8,180.3z M551.6,213
		c-2.7,4.3-5.4,8.7-8,13.2c-2.6,4.4-4.9,8.9-7.2,13.3c-3-7.4-5.6-14.9-7.7-22.1C536,215.7,543.7,214.2,551.6,213z M501.3,282.6
		c-19.7-8.4-32.4-19.4-32.4-28.1s12.7-19.8,32.4-28.1c4.8-2.1,10-3.9,15.4-5.6c3.2,10.9,7.3,22.2,12.5,33.9
		c-5.1,11.6-9.2,22.9-12.3,33.7C511.4,286.6,506.1,284.7,501.3,282.6z M531.2,362.1c-7.6-4.3-10.8-20.8-8.3-42.1
		c0.6-5.2,1.6-10.7,2.8-16.3c10.9,2.7,22.8,4.7,35.3,6.1c7.5,10.3,15.3,19.6,23.1,27.8c-18.1,16.8-35.1,26.1-46.7,26.1
		C535,363.5,532.9,363,531.2,362.1z M663.1,319.7c2.6,21.2-0.6,37.7-8.1,42.1c-1.7,1-3.8,1.4-6.4,1.4c-11.5,0-28.6-9.2-46.7-25.9
		c7.8-8.2,15.6-17.5,23-27.7c12.6-1.3,24.5-3.4,35.4-6.1C661.5,309.1,662.5,314.5,663.1,319.7z M684.5,282.6
		c-4.8,2.1-10,3.9-15.4,5.6c-3.2-10.9-7.3-22.2-12.5-33.9c5.1-11.6,9.2-22.9,12.3-33.7c5.5,1.7,10.7,3.6,15.6,5.7
		c19.7,8.4,32.4,19.4,32.4,28.1C716.9,263.2,704.2,274.3,684.5,282.6z"/>
	<circle class="st1" cx="592.9" cy="254.5" r="25.4"/>
</g>
<g>
	<path class="st1" d="M400.6,393.8c-1.1-1.3-2.6-2.6-4.5-3.8c-1.9-1.2-4-2.3-6.3-3.3c-2.3-1-4.9-1.8-7.6-2.4
		c-2.8-0.6-5.6-0.9-8.6-0.9c-7.7,0-13.4,1.4-17,4.3c-3.6,2.9-5.4,6.9-5.4,11.9c0,2.7,0.5,4.9,1.5,6.7c1,1.8,2.6,3.3,4.8,4.5
		c2.2,1.3,4.9,2.4,8.2,3.3c3.3,0.9,7.1,1.9,11.6,2.9c5.1,1.1,9.8,2.4,13.9,3.9c4.2,1.4,7.7,3.2,10.6,5.4c2.9,2.1,5.2,4.8,6.7,7.8
		s2.3,6.9,2.3,11.3c0,4.8-0.9,8.9-2.8,12.4c-1.9,3.5-4.4,6.4-7.6,8.7c-3.2,2.3-7,4-11.4,5c-4.4,1.1-9.1,1.6-14.3,1.6
		c-7.7,0-14.9-1.2-21.8-3.6c-6.9-2.4-13.1-5.9-18.7-10.4l6-10.6c1.5,1.6,3.4,3.2,5.8,4.8c2.4,1.6,5.1,3,8.1,4.3
		c3,1.3,6.3,2.3,9.8,3.1c3.5,0.8,7.2,1.2,11,1.2c7.1,0,12.6-1.3,16.5-3.8c3.9-2.5,5.9-6.3,5.9-11.3c0-2.8-0.6-5.2-1.9-7.1
		c-1.3-1.9-3.1-3.6-5.5-5c-2.4-1.4-5.4-2.6-9-3.7c-3.6-1.1-7.7-2.2-12.2-3.3c-5-1.2-9.5-2.5-13.3-3.9c-3.8-1.4-7-3.1-9.6-5
		c-2.6-2-4.5-4.3-5.8-7.1c-1.3-2.8-2-6.2-2-10.1c0-4.8,0.9-9,2.7-12.6c1.8-3.6,4.2-6.7,7.4-9.2c3.2-2.5,7-4.4,11.3-5.7
		c4.4-1.3,9.1-1.9,14.3-1.9c6.7,0,12.8,1,18.2,3.1c5.4,2.1,10.2,4.8,14.4,8.3L400.6,393.8z"/>
	<path class="st1" d="M457.8,473.7c-5.5,0-10.5-1-15.1-3c-4.6-2-8.5-4.7-11.8-8.2c-3.3-3.5-5.8-7.5-7.6-12.1
		c-1.8-4.6-2.7-9.5-2.7-14.6c0-5.1,0.9-10,2.7-14.6c1.8-4.6,4.4-8.6,7.7-12c3.3-3.5,7.3-6.2,11.8-8.2c4.6-2,9.6-3,15.1-3
		c5.5,0,10.5,1,15.1,3.1c4.5,2.1,8.4,4.8,11.5,8.2c3.2,3.4,5.6,7.4,7.4,11.9c1.7,4.5,2.6,9.2,2.6,14.1c0,1,0,2-0.1,2.8
		c0,0.8-0.1,1.5-0.2,2h-60.6c0.3,3.6,1.1,7,2.5,9.9c1.4,3,3.2,5.6,5.5,7.7c2.2,2.1,4.8,3.8,7.6,5c2.8,1.2,5.9,1.8,9,1.8
		c2.2,0,4.4-0.3,6.6-0.9c2.1-0.6,4.2-1.4,6-2.5c1.9-1,3.5-2.3,5-3.8c1.4-1.5,2.5-3.2,3.3-5l10.6,2.9c-1.2,2.7-2.9,5.2-5,7.4
		c-2.1,2.2-4.5,4.2-7.3,5.8c-2.8,1.6-5.8,2.9-9.2,3.9C465,473.2,461.5,473.7,457.8,473.7z M482.9,430.9c-0.3-3.5-1.1-6.6-2.6-9.6
		c-1.4-2.9-3.3-5.4-5.5-7.5c-2.2-2.1-4.7-3.7-7.6-4.8c-2.9-1.2-6-1.8-9.2-1.8c-3.3,0-6.3,0.6-9.2,1.8c-2.9,1.2-5.4,2.8-7.6,4.9
		c-2.2,2.1-4,4.6-5.3,7.5c-1.4,2.9-2.2,6.1-2.5,9.5H482.9z"/>
	<path class="st1" d="M571.7,472.3h-12.3v-40.9c0-7.8-1.2-13.5-3.6-17.1c-2.4-3.5-6-5.3-10.8-5.3c-2.5,0-5,0.5-7.6,1.5
		c-2.5,1-4.9,2.3-7.1,4c-2.2,1.7-4.2,3.7-5.9,6c-1.7,2.3-2.9,4.9-3.8,7.7v44.1h-12.3v-73.1h11.2v15.7c2.9-5.1,7.1-9.2,12.5-12.3
		c5.5-3.1,11.4-4.6,17.8-4.6c4.2,0,7.7,0.8,10.5,2.3c2.8,1.5,5,3.7,6.7,6.4c1.7,2.8,2.9,6,3.6,9.7c0.7,3.7,1.1,7.8,1.1,12.2V472.3z"
		/>
	<path class="st1" d="M616.5,473.7c-5.9,0-11.7-0.9-17.4-2.7c-5.7-1.8-10.6-4.5-14.7-7.9l5.3-8.3c4.3,3.3,8.6,5.7,12.9,7.4
		c4.3,1.6,8.8,2.4,13.6,2.4c5.3,0,9.5-1,12.7-3.1c3.1-2.1,4.7-5.1,4.7-8.9c0-1.8-0.4-3.3-1.3-4.5c-0.8-1.3-2.1-2.4-3.8-3.3
		c-1.7-0.9-3.8-1.8-6.4-2.5c-2.6-0.7-5.6-1.5-9.1-2.4c-4.4-1.1-8.2-2.2-11.3-3.2c-3.2-1-5.8-2.2-7.8-3.6c-2.1-1.4-3.5-3.1-4.5-5
		c-0.9-2-1.4-4.4-1.4-7.3c0-3.6,0.7-6.9,2.2-9.7c1.4-2.8,3.4-5.2,6-7.1c2.5-1.9,5.5-3.4,8.9-4.3c3.4-1,7.1-1.5,11-1.5
		c5.5,0,10.6,0.9,15.4,2.7c4.8,1.8,8.8,4.1,12,7l-5.6,7.4c-3.1-2.7-6.5-4.7-10.4-6.1c-3.8-1.4-7.7-2-11.8-2c-4.5,0-8.3,1-11.4,2.9
		c-3.1,1.9-4.7,5-4.7,9.2c0,1.7,0.3,3.1,0.9,4.2c0.6,1.1,1.6,2.1,3,2.9c1.4,0.8,3.2,1.6,5.4,2.2c2.2,0.7,4.8,1.4,7.9,2.1
		c4.9,1.1,9.1,2.3,12.7,3.4c3.6,1.2,6.6,2.5,9,4.1c2.4,1.6,4.2,3.5,5.3,5.6c1.2,2.1,1.8,4.8,1.8,7.8c0,6.8-2.6,12.2-7.8,16.2
		C632.4,471.7,625.3,473.7,616.5,473.7z"/>
	<path class="st1" d="M782.5,410c-6.2,0.2-11.6,1.8-16.3,4.8c-4.7,3-8,7.1-10,12.5v45.1h-12.3v-73.1h11.5v16.9
		c2.5-5,5.8-9.1,9.9-12.2c4.1-3.1,8.5-4.9,13.2-5.2c0.9,0,1.7,0,2.4,0c0.7,0,1.2,0,1.7,0.1V410z"/>
	<path class="st1" d="M820.3,473.7c-5.9,0-11.7-0.9-17.4-2.7c-5.7-1.8-10.6-4.5-14.7-7.9l5.3-8.3c4.3,3.3,8.6,5.7,12.9,7.4
		c4.3,1.6,8.8,2.4,13.6,2.4c5.3,0,9.5-1,12.7-3.1c3.1-2.1,4.7-5.1,4.7-8.9c0-1.8-0.4-3.3-1.3-4.5c-0.8-1.3-2.1-2.4-3.8-3.3
		c-1.7-0.9-3.8-1.8-6.4-2.5c-2.6-0.7-5.6-1.5-9.1-2.4c-4.4-1.1-8.2-2.2-11.3-3.2c-3.2-1-5.8-2.2-7.8-3.6c-2.1-1.4-3.5-3.1-4.5-5
		c-0.9-2-1.4-4.4-1.4-7.3c0-3.6,0.7-6.9,2.2-9.7c1.4-2.8,3.4-5.2,6-7.1c2.5-1.9,5.5-3.4,8.9-4.3c3.4-1,7.1-1.5,11-1.5
		c5.5,0,10.6,0.9,15.4,2.7c4.8,1.8,8.8,4.1,12,7l-5.6,7.4c-3.1-2.7-6.5-4.7-10.4-6.1c-3.8-1.4-7.7-2-11.8-2c-4.5,0-8.3,1-11.4,2.9
		c-3.1,1.9-4.7,5-4.7,9.2c0,1.7,0.3,3.1,0.9,4.2c0.6,1.1,1.6,2.1,3,2.9c1.4,0.8,3.2,1.6,5.4,2.2c2.2,0.7,4.8,1.4,7.9,2.1
		c4.9,1.1,9.1,2.3,12.7,3.4c3.6,1.2,6.6,2.5,9,4.1c2.4,1.6,4.2,3.5,5.3,5.6c1.2,2.1,1.8,4.8,1.8,7.8c0,6.8-2.6,12.2-7.8,16.2
		C836.2,471.7,829.2,473.7,820.3,473.7z"/>
</g>
<path class="st2" d="M700.4,457.6c1.6-0.5,2.7-2.2,3.4-4.7c-2,1.7-4.2,3.1-6.3,4.3C698.5,457.7,699.5,457.9,700.4,457.6z"/>
<path class="st2" d="M694,403.1c-18.1,0-32.9,14.8-32.9,32.9s14.8,32.9,32.9,32.9s32.9-14.8,32.9-32.9S712.1,403.1,694,403.1z
	 M707.5,449.5c-0.4,0.4-0.8,0.8-1.2,1.1c-0.4,5.5-2,9.4-5,10.3c-2,0.6-4.3-0.3-6.6-2.3c-8.9,4.2-17.6,4.2-22.6-0.8
	c-7.5-7.5-3.7-23.3,8.3-35.3c0.4-0.4,0.8-0.7,1.1-1.1c0.3-5.5,2-9.4,5-10.3c3-0.9,6.7,1.6,10.1,6.3c2.8,3.9,5.5,9.4,7.3,15.6
	c1.2,4.1,2,8.1,2.3,11.7c-0.6,0.6-1.1,1.2-1.7,1.8c-0.1,0.1-0.1,0.1-0.2,0.2c-0.1-3.9-0.8-8.4-2.2-13.2c-1.8-6.2-4.5-11.5-7.2-14.9
	c-0.6-0.8-1.3-1.5-1.9-2.1c-2.5,1.2-5.1,2.8-7.5,4.8c0.2-1.9,0.7-3.3,1.2-4.2c1.3-0.9,2.5-1.7,3.8-2.4c-1-0.5-2-0.7-3-0.4
	c-1.6,0.5-2.7,2.2-3.4,4.7c0,0,0,0,0,0c-0.3,1.1-0.5,2.4-0.5,3.8c0,0,0,0,0,0c-0.1,1-0.1,2.2,0,3.3c0.2,3.6,0.9,7.8,2.2,12.1
	c2,6.7,4.9,12.3,7.9,15.8c-0.7,0.3-1.4,0.6-2.1,0.9c-3-4-5.7-9.6-7.7-16.1c-1.2-4-1.9-7.8-2.2-11.4c-0.1-0.9-0.1-1.8-0.2-2.6
	c-9.9,10.3-12.8,23.6-6.5,29.9c4,4,10.7,4.3,17.6,1.5c0,0,0,0,0,0c0.7-0.3,1.5-0.6,2.2-1c3.2-1.5,6.4-3.7,9.4-6.5
	c0.5-0.4,0.9-0.8,1.4-1.3c0.2-0.2,0.5-0.5,0.7-0.7c9.9-10.3,12.8-23.6,6.5-29.9c-3.7-3.6-9.6-4.2-16-2.1c-0.7-0.9-1.4-1.6-2.1-2.3
	c8.3-3.5,16.3-3.2,21,1.5C723.3,421.6,719.5,437.5,707.5,449.5z M700.2,436c0,3.4-2.8,6.2-6.2,6.2c-3.4,0-6.2-2.8-6.2-6.2
	c0-3.4,2.8-6.2,6.2-6.2C697.4,429.8,700.2,432.6,700.2,436z"/>
<path class="st1" d="M725.8,407.1c0.3,0.1,0.7,0.2,1.1,0.2c2.3,0,4.1-1.8,4.1-4.1c0-2.3-1.8-4.1-4.1-4.1c-2.3,0-4.1,1.8-4.1,4.1
	c0,0.4,0.1,0.7,0.2,1.1l-4.3,4.3c-6.5-5.9-15.2-9.4-24.7-9.4c-20.4,0-37,16.6-37,37c0,9.5,3.6,18.1,9.4,24.7l-4.3,4.3
	c-0.3-0.1-0.7-0.2-1.1-0.2c-2.3,0-4.1,1.8-4.1,4.1c0,2.3,1.8,4.1,4.1,4.1c2.3,0,4.1-1.8,4.1-4.1c0-0.4-0.1-0.7-0.2-1.1l4.3-4.3
	c6.5,5.9,15.2,9.4,24.7,9.4c20.4,0,37-16.6,37-37c0-9.5-3.6-18.1-9.4-24.7L725.8,407.1z M694,468.9c-18.1,0-32.9-14.8-32.9-32.9
	s14.8-32.9,32.9-32.9s32.9,14.8,32.9,32.9S712.1,468.9,694,468.9z"/>
<path class="st1" d="M694.8,412.7c0.7,0.7,1.4,1.4,2.1,2.3c6.4-2.1,12.4-1.5,16,2.1c6.3,6.3,3.4,19.6-6.5,29.9
	c-0.2,0.2-0.5,0.5-0.7,0.7c-0.4,0.4-0.9,0.9-1.4,1.3c-3,2.7-6.2,4.9-9.4,6.5c-0.7,0.4-1.5,0.7-2.2,1c0,0,0,0,0,0
	c-7,2.7-13.7,2.4-17.6-1.5c-6.3-6.3-3.4-19.6,6.5-29.9c0,0.8,0.1,1.7,0.2,2.6c0.3,3.5,1.1,7.4,2.2,11.4c1.9,6.5,4.7,12.1,7.7,16.1
	c0.7-0.3,1.4-0.6,2.1-0.9c-3-3.4-5.9-9.1-7.9-15.8c-1.3-4.3-2-8.5-2.2-12.1c-0.1-1.2-0.1-2.3,0-3.3c0,0,0,0,0,0
	c0.1-1.4,0.3-2.7,0.5-3.8c0,0,0,0,0,0c0.6-2.5,1.7-4.2,3.4-4.7c0.9-0.3,1.9-0.1,3,0.4c-1.3,0.7-2.6,1.5-3.8,2.4
	c-0.5,0.9-1,2.3-1.2,4.2c2.4-2,5-3.6,7.5-4.8c0.6,0.6,1.3,1.3,1.9,2.1c2.7,3.5,5.4,8.8,7.2,14.9c1.4,4.7,2.1,9.3,2.2,13.2
	c0.1-0.1,0.1-0.1,0.2-0.2c0.6-0.6,1.2-1.2,1.7-1.8c-0.3-3.6-1.1-7.6-2.3-11.7c-1.9-6.2-4.5-11.7-7.3-15.6c-3.4-4.7-7.1-7.2-10.1-6.3
	c-2.9,0.9-4.6,4.8-5,10.3c-0.4,0.4-0.8,0.7-1.1,1.1c-12,12-15.7,27.9-8.3,35.3c5,5,13.8,5,22.6,0.8c2.3,2,4.6,2.9,6.6,2.3
	c2.9-0.9,4.6-4.8,5-10.3c0.4-0.4,0.8-0.7,1.2-1.1c12-12,15.7-27.9,8.3-35.3C711.1,409.5,703.1,409.2,694.8,412.7z M700.4,457.6
	c-0.9,0.3-1.9,0.1-2.9-0.4c2.1-1.2,4.2-2.6,6.3-4.3C703.1,455.4,702,457.1,700.4,457.6z"/>
<circle class="st1" cx="694" cy="436" r="6.2"/>
</svg>
