<svg id="5315dcf4-9ab7-45f5-a3d8-2e76525705db" data-name="Layer 1" xmlns="http://www.w3.org/2000/svg" width="813.15" height="752" viewBox="0 0 813.15 752"><title>tweetstorm</title><polygon points="559.73 403.7 347.86 352.67 347.86 752 559.73 696.54 559.73 403.7" fill="#e0e0e0"/><polygon points="559.73 403.7 347.86 352.67 347.86 752 559.73 696.54 559.73 403.7" opacity="0.1"/><polygon points="135.99 403.7 347.86 352.67 347.86 752 135.99 697.65 135.99 403.7" fill="#e0e0e0"/><polygon points="135.99 401.93 347.86 350.91 347.86 752 135.99 697.65 135.99 401.93" opacity="0.17"/><polygon points="346.09 354.44 457.68 261.71 669.54 316.07 557.96 405.46 346.09 354.44" fill="#e0e0e0"/><polygon points="29.05 318.94 137.76 405.46 349.62 354.44 242.03 263.48 29.05 318.94" fill="#e0e0e0"/><polygon points="27.29 317.18 138.64 405.46 350.51 354.44 240.26 261.71 27.29 317.18" opacity="0.05"/><polygon points="135.99 403.7 135.99 697.65 347.86 752 350.72 460.27 135.99 403.7" fill="#e0e0e0"/><polygon points="559.73 696.54 347.86 752 347.86 460.27 559.73 403.7 559.73 696.54" fill="#e0e0e0"/><polygon points="559.73 696.54 347.86 752 347.86 460.27 559.73 403.7 559.73 696.54" opacity="0.07"/><polygon points="475.42 598.92 475.42 695.43 559.73 672.13 559.73 575.63 475.42 598.92" opacity="0.07"/><polygon points="133.22 556.22 251.91 586.17 347.31 508.52 347.31 460.82 135.44 407.58 133.22 556.22" opacity="0.1"/><polygon points="561.39 556.22 442.7 586.17 347.31 508.52 347.31 460.82 559.17 407.58 561.39 556.22" opacity="0.1"/><path d="M452.66,473.1l8.21-1.64s-6.9,7.72-8.21,8.21h0a33.05,33.05,0,0,0,0,4.93c-15.77,67.69-73.93,37.79-73.93,37.79,21.19.49,23-8.21,23-8.21-12.32-1.81-14.79-9.86-14.79-9.86a5.08,5.08,0,0,0,6.57-1.64c-13.31-3.45-11.5-16.43-11.5-16.43,2.3,2,5.91,2.79,8.05,3.12-1.48-1.81-14-16.76-6.41-24.48,0,0,9.2,16.43,33.35,17.91l1.64-.33a12.89,12.89,0,0,1-.33-3.61,17.25,17.25,0,0,1,17.25-17.25c11.5,0,14,6.57,14,6.57l8.21-4.93C457.59,463.24,456.77,471.46,452.66,473.1Z" transform="translate(-193.43 -74)" fill="#00aced"/><polygon points="135.99 403.7 27.29 493.55 239.15 546.79 347.86 460.27 135.99 403.7" fill="#e0e0e0"/><path d="M618.25,470.91l4.06-5.65s.18,8.6-.34,9.65h0a27.47,27.47,0,0,0,2.79,3c28.77,50.08-23.53,64.86-23.53,64.86,13.16-11.71,9.33-18,9.33-18C602,530.62,596,527.12,596,527.12a4.22,4.22,0,0,0,3.06-4.72c-10,5.44-16.3-3.47-16.3-3.47,2.52-.1,5.18-1.65,6.66-2.66-1.92-.26-18-2.27-17.77-11.25,0,0,14.9,4.77,30.42-8l.81-1.13a10.71,10.71,0,0,1-2.25-2,14.33,14.33,0,0,1,.71-20.26c7-6.52,12.21-3.92,12.21-3.92l2.2-7.65C615.66,462.13,619.81,467.58,618.25,470.91Z" transform="translate(-193.43 -74)" fill="{{primaryColor}}"/><polygon points="559.73 403.7 669.54 493.55 458.78 546.79 347.86 460.27 559.73 403.7" fill="#e0e0e0"/><polygon points="559.73 403.7 669.54 493.55 458.78 546.79 347.86 460.27 559.73 403.7" opacity="0.07"/><path d="M610.52,196.35l7.51-3.61s-4.74,9.15-5.89,9.95h0a32.88,32.88,0,0,0,1.22,4.75c1.53,69.12-61.9,54.68-61.9,54.68,20.54-4.76,20.13-13.6,20.13-13.6-12.32,1.3-16.68-5.84-16.68-5.84a5,5,0,0,0,5.93-3.21c-13.68,0-15.14-13-15.14-13,2.7,1.33,6.39,1.23,8.53,1-1.87-1.38-17.6-12.7-12.22-22,0,0,12.93,13.56,36.56,9l1.5-.72a12.82,12.82,0,0,1-1.21-3.4,17.16,17.16,0,0,1,12.36-20.89c11.08-2.84,15.08,2.88,15.08,2.88l6.7-6.78C612.83,185.63,614.07,193.75,610.52,196.35Z" transform="translate(-193.43 -74)" fill="#00aced"/><path d="M267,249l8.17-1.63s-6.86,7.68-8.17,8.17h0a32.88,32.88,0,0,0,0,4.9c-15.69,67.33-73.54,37.59-73.54,37.59,21.08.49,22.88-8.17,22.88-8.17-12.26-1.8-14.71-9.81-14.71-9.81a5,5,0,0,0,6.54-1.63C194.9,275,196.7,262.12,196.7,262.12c2.29,2,5.88,2.78,8,3.11-1.47-1.8-13.89-16.67-6.37-24.35,0,0,9.15,16.34,33.18,17.81l1.63-.33a12.82,12.82,0,0,1-.33-3.6A17.16,17.16,0,0,1,250,237.61c11.44,0,13.89,6.54,13.89,6.54l8.17-4.9C271.87,239.24,271.06,247.41,267,249Z" transform="translate(-193.43 -74)" fill="#00aced"/><path d="M993.24,103.71l13.33-2.67s-11.2,12.53-13.33,13.33h0a53.64,53.64,0,0,0,0,8c-25.6,109.85-120,61.32-120,61.32,34.39.8,37.33-13.33,37.33-13.33-20-2.93-24-16-24-16a8.24,8.24,0,0,0,10.66-2.67c-21.6-5.6-18.66-26.66-18.66-26.66,3.73,3.2,9.6,4.53,13.06,5.07-2.4-2.93-22.66-27.2-10.4-39.73,0,0,14.93,26.66,54.12,29.06l2.67-.53a20.92,20.92,0,0,1-.53-5.87,28,28,0,0,1,28-28c18.66,0,22.66,10.66,22.66,10.66l13.33-8C1001.24,87.71,999.91,101,993.24,103.71Z" transform="translate(-193.43 -74)" fill="#00aced"/><path d="M775.38,81.73l5.52-1.1s-4.64,5.19-5.52,5.52h0a22.21,22.21,0,0,0,0,3.31c-10.6,45.5-49.69,25.4-49.69,25.4,14.25.33,15.46-5.52,15.46-5.52-8.28-1.21-9.94-6.63-9.94-6.63a3.41,3.41,0,0,0,4.42-1.1c-8.94-2.32-7.73-11-7.73-11a11.48,11.48,0,0,0,5.41,2.1c-1-1.21-9.39-11.26-4.31-16.45,0,0,6.18,11,22.42,12l1.1-.22a8.66,8.66,0,0,1-.22-2.43A11.59,11.59,0,0,1,763.9,74c7.73,0,9.39,4.42,9.39,4.42l5.52-3.31C778.69,75.1,778.14,80.63,775.38,81.73Z" transform="translate(-193.43 -74)" fill="#00aced"/><path d="M524.71,302.58l5.52-1.1s-4.64,5.19-5.52,5.52h0a22.21,22.21,0,0,0,0,3.31c-10.6,45.5-49.69,25.4-49.69,25.4,14.25.33,15.46-5.52,15.46-5.52-8.28-1.21-9.94-6.63-9.94-6.63a3.41,3.41,0,0,0,4.42-1.1c-8.94-2.32-7.73-11-7.73-11a11.48,11.48,0,0,0,5.41,2.1c-1-1.21-9.39-11.26-4.31-16.45,0,0,6.18,11,22.42,12l1.1-.22a8.66,8.66,0,0,1-.22-2.43,11.59,11.59,0,0,1,11.59-11.59c7.73,0,9.39,4.42,9.39,4.42l5.52-3.31C528,296,527.47,301.48,524.71,302.58Z" transform="translate(-193.43 -74)" fill="#535461" opacity="0.3"/><path d="M740,199.89l5.52-1.1S740.93,204,740,204.3h0a22.21,22.21,0,0,0,0,3.31c-10.6,45.5-49.69,25.4-49.69,25.4,14.25.33,15.46-5.52,15.46-5.52-8.28-1.21-9.94-6.63-9.94-6.63a3.41,3.41,0,0,0,4.42-1.1c-8.94-2.32-7.73-11-7.73-11a11.48,11.48,0,0,0,5.41,2.1c-1-1.21-9.39-11.26-4.31-16.45,0,0,6.18,11,22.42,12l1.1-.22a8.66,8.66,0,0,1-.22-2.43,11.59,11.59,0,0,1,11.59-11.59c7.73,0,9.39,4.42,9.39,4.42l5.52-3.31C743.36,193.26,742.8,198.78,740,199.89Z" transform="translate(-193.43 -74)" fill="#00aced" opacity="0.3"/><path d="M635.8,384.76l11.48-2.3s-9.65,10.8-11.48,11.48h0a46.21,46.21,0,0,0,0,6.89c-22.05,94.63-103.36,52.83-103.36,52.83,29.63.69,32.16-11.48,32.16-11.48-17.23-2.53-20.67-13.78-20.67-13.78a7.1,7.1,0,0,0,9.19-2.3c-18.6-4.82-16.08-23-16.08-23,3.22,2.76,8.27,3.9,11.25,4.36-2.07-2.53-19.52-23.43-9-34.22,0,0,12.86,23,46.63,25l2.3-.46a18,18,0,0,1-.46-5.05,24.11,24.11,0,0,1,24.12-24.12c16.08,0,19.52,9.19,19.52,9.19L642.92,371C642.69,371,641.54,382.47,635.8,384.76Z" transform="translate(-193.43 -74)" fill="{{primaryColor}}"/><path d="M554.52,100.5,560,99.4s-4.64,5.19-5.52,5.52h0a22.21,22.21,0,0,0,0,3.31c-10.6,45.5-49.69,25.4-49.69,25.4,14.25.33,15.46-5.52,15.46-5.52-8.28-1.21-9.94-6.63-9.94-6.63a3.41,3.41,0,0,0,4.42-1.1c-8.94-2.32-7.73-11-7.73-11a11.48,11.48,0,0,0,5.41,2.1c-1-1.21-9.39-11.26-4.31-16.45,0,0,6.18,11,22.42,12l1.1-.22a8.66,8.66,0,0,1-.22-2.43A11.59,11.59,0,0,1,543,92.77c7.73,0,9.39,4.42,9.39,4.42l5.52-3.31C557.84,93.88,557.29,99.4,554.52,100.5Z" transform="translate(-193.43 -74)" fill="{{primaryColor}}"/><path d="M385.57,223.08l5.52-1.1s-4.64,5.19-5.52,5.52h0a22.21,22.21,0,0,0,0,3.31c-10.6,45.5-49.69,25.4-49.69,25.4,14.25.33,15.46-5.52,15.46-5.52-8.28-1.21-9.94-6.63-9.94-6.63a3.41,3.41,0,0,0,4.42-1.1c-8.94-2.32-7.73-11-7.73-11a11.48,11.48,0,0,0,5.41,2.1c-1-1.21-9.39-11.26-4.31-16.45,0,0,6.18,11,22.42,12l1.1-.22a8.66,8.66,0,0,1-.22-2.43,11.59,11.59,0,0,1,11.59-11.59c7.73,0,9.39,4.42,9.39,4.42l5.52-3.31C388.88,216.45,388.33,222,385.57,223.08Z" transform="translate(-193.43 -74)" fill="{{primaryColor}}"/><path d="M339.19,143.57l5.52-1.1s-4.64,5.19-5.52,5.52h0a22.21,22.21,0,0,0,0,3.31c-10.6,45.5-49.69,25.4-49.69,25.4,14.25.33,15.46-5.52,15.46-5.52-8.28-1.21-9.94-6.63-9.94-6.63a3.41,3.41,0,0,0,4.42-1.1c-8.94-2.32-7.73-11-7.73-11a11.48,11.48,0,0,0,5.41,2.1c-1-1.21-9.39-11.26-4.31-16.45,0,0,6.18,11,22.42,12l1.1-.22a8.66,8.66,0,0,1-.22-2.43,11.59,11.59,0,0,1,11.59-11.59c7.73,0,9.39,4.42,9.39,4.42l5.52-3.31C342.5,136.94,342,142.47,339.19,143.57Z" transform="translate(-193.43 -74)" fill="{{primaryColor}}" opacity="0.3"/><path d="M533.54,480.37l5.52-1.1s-4.64,5.19-5.52,5.52h0a22.21,22.21,0,0,0,0,3.31c-10.6,45.5-49.69,25.4-49.69,25.4,14.25.33,15.46-5.52,15.46-5.52-8.28-1.21-9.94-6.63-9.94-6.63a3.41,3.41,0,0,0,4.42-1.1c-8.94-2.32-7.73-11-7.73-11a11.48,11.48,0,0,0,5.41,2.1c-1-1.21-9.39-11.26-4.31-16.45,0,0,6.18,11,22.42,12l1.1-.22a8.66,8.66,0,0,1-.22-2.43,11.59,11.59,0,0,1,11.59-11.59c7.73,0,9.39,4.42,9.39,4.42l5.52-3.31C536.86,473.75,536.3,479.27,533.54,480.37Z" transform="translate(-193.43 -74)" fill="#535461"/><path d="M855.77,240.7,867,238.45s-9.46,10.59-11.26,11.26h0a45.32,45.32,0,0,0,0,6.76c-21.63,92.81-101.37,51.81-101.37,51.81C783.46,309,785.94,297,785.94,297c-16.9-2.48-20.27-13.52-20.27-13.52a7,7,0,0,0,9-2.25c-18.25-4.73-15.77-22.53-15.77-22.53,3.15,2.7,8.11,3.83,11,4.28-2-2.48-19.15-23-8.79-33.57,0,0,12.62,22.53,45.73,24.55l2.25-.45a17.67,17.67,0,0,1-.45-5,23.65,23.65,0,0,1,23.65-23.65c15.77,0,19.15,9,19.15,9l11.26-6.76C862.53,227.18,861.4,238.45,855.77,240.7Z" transform="translate(-193.43 -74)" fill="#535461"/><path d="M408.54,331.25,419.8,329s-9.46,10.59-11.26,11.26h0a45.32,45.32,0,0,0,0,6.76c-21.63,92.81-101.37,51.81-101.37,51.81,29.06.68,31.54-11.26,31.54-11.26-16.9-2.48-20.27-13.52-20.27-13.52a7,7,0,0,0,9-2.25c-18.25-4.73-15.77-22.53-15.77-22.53,3.15,2.7,8.11,3.83,11,4.28-2-2.48-19.15-23-8.79-33.57,0,0,12.62,22.53,45.73,24.55l2.25-.45a17.67,17.67,0,0,1-.45-5,23.65,23.65,0,0,1,23.65-23.65c15.77,0,19.15,9,19.15,9l11.26-6.76C415.3,317.73,414.17,329,408.54,331.25Z" transform="translate(-193.43 -74)" fill="#535461"/></svg>
