<svg width="1805" height="741" xmlns="http://www.w3.org/2000/svg" xmlns:xlink="http://www.w3.org/1999/xlink"><defs><filter x="-3.2%" y="-29.6%" width="106.3%" height="169.9%" filterUnits="objectBoundingBox" id="b"><feOffset dy="5" in="SourceAlpha" result="shadowOffsetOuter1"/><feGaussianBlur stdDeviation="10" in="shadowOffsetOuter1" result="shadowBlurOuter1"/><feColorMatrix values="0 0 0 0 0 0 0 0 0 0 0 0 0 0 0 0 0 0 0.164799345 0" in="shadowBlurOuter1"/></filter><filter x="-3.8%" y="-29.6%" width="107.5%" height="169.9%" filterUnits="objectBoundingBox" id="d"><feOffset dy="5" in="SourceAlpha" result="shadowOffsetOuter1"/><feGaussianBlur stdDeviation="10" in="shadowOffsetOuter1" result="shadowBlurOuter1"/><feColorMatrix values="0 0 0 0 0 0 0 0 0 0 0 0 0 0 0 0 0 0 0.164799345 0" in="shadowBlurOuter1"/></filter><filter x="-10.5%" y="-74.3%" width="121.2%" height="275.7%" filterUnits="objectBoundingBox" id="f"><feOffset dy="5" in="SourceAlpha" result="shadowOffsetOuter1"/><feGaussianBlur stdDeviation="10" in="shadowOffsetOuter1" result="shadowBlurOuter1"/><feColorMatrix values="0 0 0 0 0 0 0 0 0 0 0 0 0 0 0 0 0 0 0.164799345 0" in="shadowBlurOuter1"/></filter><text id="c" font-family="ArialRoundedMTBold, Arial Rounded MT Bold" font-size="80" font-weight="normal" fill="#FFF"><tspan x="390" y="119">Docusaurus makes 1 year!</tspan></text><text id="e" font-family="ArialRoundedMTBold, Arial Rounded MT Bold" font-size="80" font-weight="normal" fill="#FFF"><tspan x="471" y="675">Happy Birthday Slash!</tspan></text><text id="g" font-family="ArialRoundedMTBold, Arial Rounded MT Bold" font-size="32" font-weight="normal" fill="#FFF"><tspan x="1472" y="614">From your friends at</tspan></text><linearGradient x1="50%" y1="60.357%" x2="50%" y2="120.795%" id="a"><stop stop-color="#41A4FF" offset="0%"/><stop stop-color="#5348C8" offset="100%"/></linearGradient></defs><g fill="none" fill-rule="evenodd"><path stroke="#979797" fill="url(#a)" d="M.5.5h1804v741H.5z"/><g transform="translate(491 171)"><path fill="#FFF" d="M204 54h195v114H204z"/><path d="M44.5 323c-16.46 0-30.8-8.86-38.5-22-3.793 6.477-6 13.977-6 22 0 24.301 19.923 44 44.5 44H89v-44H44.5z" fill="#3ECC5F"/><path d="M399 79.198V57.06c0-24.454-19.88-44.277-44.398-44.277h-199.79l-5.55-9.586c-2.468-4.261-8.633-4.261-11.099 0l-5.55 9.586-5.55-9.586c-2.468-4.261-8.633-4.261-11.099 0l-5.55 9.586-5.55-9.586c-2.468-4.261-8.633-4.261-11.099 0l-5.55 9.586c-.032 0-3.145-3.053-9.339-9.16-3.487-3.479-9.44-1.89-10.72 2.864l-3.036 11.3-11.528-3.082c-4.766-1.273-9.126 3.075-7.847 7.828l3.087 11.497-11.328 3.026c-4.766 1.275-6.362 7.215-2.874 10.693l9.192 9.17c0 .03-3.206 1.923-9.619 5.676-4.27 2.46-4.27 8.61 0 11.07l9.615 5.534-9.615 5.535c-4.27 2.46-4.27 8.61 0 11.07l9.615 5.534-9.615 5.534c-4.27 2.46-4.27 8.61 0 11.07l9.615 5.534-9.615 5.535c-4.27 2.46-4.27 8.61 0 11.07l9.615 5.534-9.615 5.535c-4.27 2.46-4.27 8.61 0 11.069l9.615 5.535-9.615 5.534c-4.27 2.46-4.27 8.61 0 11.07l9.615 5.534-9.615 5.535c-4.27 2.46-4.27 8.61 0 11.07l9.615 5.534-9.615 5.534c-4.27 2.46-4.27 8.61 0 11.07l9.615 5.534-9.615 5.535c-4.27 2.46-4.27 8.61 0 11.07l9.615 5.534-9.615 5.535c-4.27 2.46-4.27 8.61 0 11.069l9.615 5.535-9.615 5.534c-4.27 2.46-4.27 8.61 0 11.07l9.615 5.534-9.615 5.535c-4.27 2.46-4.27 8.61 0 11.07l9.615 5.534c0 24.454 19.877 44.277 44.397 44.277h266.387C379.121 367 399 347.177 399 322.723v-177.11l-155.437-9.687c-12.453-.777-22.154-11.076-22.154-23.52 0-12.444 9.7-22.743 22.154-23.52L399 79.198z" fill="#3ECC5F"/><path fill="#3ECC5F" d="M311 367h66v-89h-66z"/><path d="M421.889 311.444c-.487 0-.951.083-1.42.143-.085-.334-.165-.67-.258-1.003 4.013-1.675 6.833-5.63 6.833-10.25 0-6.138-4.973-11.112-11.11-11.112-2.53 0-4.834.88-6.703 2.302-.247-.25-.493-.5-.744-.746 1.393-1.858 2.246-4.138 2.246-6.638 0-6.138-4.973-11.111-11.11-11.111-4.59 0-8.527 2.784-10.22 6.758-.33-.094-.66-.171-.99-.256.06-.469.143-.933.143-1.42 0-6.138-4.974-11.111-11.112-11.111-6.137 0-11.11 4.973-11.11 11.111 0 .487.082.951.142 1.42-.33.085-.66.162-.99.256-1.693-3.974-5.63-6.758-10.22-6.758-6.137 0-11.11 4.973-11.11 11.111 0 2.5.853 4.78 2.246 6.638-8.26 8.07-13.402 19.318-13.402 31.778C333 347.102 352.898 367 377.444 367c20.754 0 38.134-14.244 43.025-33.476.469.06.933.143 1.42.143 6.138 0 11.111-4.974 11.111-11.111 0-6.138-4.973-11.112-11.111-11.112" fill="#44D860"/><path fill="#3ECC5F" d="M333 233h66v-44h-66z"/><path d="M421.444 217.996c3.07 0 5.556-2.46 5.556-5.496 0-3.036-2.487-5.496-5.556-5.496-.242 0-.475.042-.708.07-.045-.165-.083-.33-.13-.495 2.005-.828 3.416-2.787 3.416-5.071 0-3.037-2.486-5.497-5.555-5.497a5.533 5.533 0 00-3.351 1.14 14.707 14.707 0 00-.374-.37 5.4 5.4 0 001.125-3.285c0-3.034-2.487-5.496-5.556-5.496a5.557 5.557 0 00-5.111 3.344 22.417 22.417 0 00-5.978-.829c-12.27 0-22.222 9.845-22.222 21.985 0 12.14 9.951 21.985 22.222 21.985 2.076 0 4.074-.303 5.978-.829a5.557 5.557 0 005.111 3.344c3.069 0 5.556-2.462 5.556-5.496a5.4 5.4 0 00-1.125-3.285c.127-.12.251-.244.374-.37a5.533 5.533 0 003.35 1.14c3.07 0 5.556-2.46 5.556-5.497 0-2.284-1.41-4.243-3.415-5.071.046-.163.084-.33.129-.495.233.028.466.07.708.07" fill="#44D860"/><path d="M134.4 84c-3.093 0-5.6-2.462-5.6-5.5 0-9.1-7.535-16.5-16.8-16.5s-16.8 7.4-16.8 16.5c0 3.038-2.507 5.5-5.6 5.5-3.093 0-5.6-2.462-5.6-5.5C84 63.335 96.56 51 112 51s28 12.335 28 27.5c0 3.038-2.507 5.5-5.6 5.5" fill="#000"/><path d="M222 367h133.5c24.577 0 44.5-19.798 44.5-44.222V168H266.5c-24.577 0-44.5 19.798-44.5 44.222V367z" fill="#FFFF50"/><path d="M366.77 236H255.23c-1.234 0-2.23-.894-2.23-2 0-1.106.996-2 2.23-2h111.54c1.234 0 2.23.894 2.23 2 0 1.106-.996 2-2.23 2m0 44H255.23c-1.234 0-2.23-.894-2.23-2 0-1.106.996-2 2.23-2h111.54c1.234 0 2.23.894 2.23 2 0 1.106-.996 2-2.23 2m0 44H255.23c-1.234 0-2.23-.894-2.23-2 0-1.106.996-2 2.23-2h111.54c1.234 0 2.23.894 2.23 2 0 1.106-.996 2-2.23 2m0-110H255.23c-1.234 0-2.23-.896-2.23-2 0-1.106.996-2 2.23-2h111.54c1.234 0 2.23.894 2.23 2 0 1.104-.996 2-2.23 2m0 44H255.23c-1.234 0-2.23-.894-2.23-2 0-1.106.996-2 2.23-2h111.54c1.234 0 2.23.894 2.23 2 0 1.106-.996 2-2.23 2m0 44H255.23c-1.234 0-2.23-.894-2.23-2 0-1.106.996-2 2.23-2h111.54c1.234 0 2.23.894 2.23 2 0 1.106-.996 2-2.23 2M399 98.011c-.027 0-.049-.013-.075-.01-6.833.233-10.066 7.117-12.918 13.19-2.977 6.346-5.279 10.475-9.051 10.35-4.177-.151-6.565-4.904-9.095-9.935-2.906-5.775-6.223-12.327-13.186-12.082-6.736.231-9.98 6.222-12.84 11.507-3.046 5.63-5.118 9.054-9.114 8.896-4.26-.156-6.525-4.02-9.145-8.493-2.922-4.98-6.298-10.579-13.127-10.387-6.62.23-9.873 5.312-12.743 9.8-3.036 4.743-5.163 7.634-9.21 7.463-4.363-.158-6.616-3.363-9.223-7.076-2.928-4.171-6.227-8.893-13.036-8.664-6.474.223-9.727 4.386-12.595 8.058-2.725 3.483-4.852 6.24-9.352 6.067-1.22-.049-2.244.915-2.288 2.147a2.222 2.222 0 002.13 2.307c6.67.225 10.05-4.01 12.984-7.766 2.602-3.332 4.849-6.207 9.272-6.358 4.258-.183 6.255 2.483 9.276 6.781 2.868 4.085 6.123 8.717 12.673 8.956 6.861.231 10.163-4.933 13.086-9.504 2.614-4.084 4.87-7.61 9.177-7.759 3.965-.15 6.123 3.007 9.166 8.198 2.868 4.893 6.116 10.437 12.796 10.682 6.91.24 10.247-5.838 13.155-11.214 2.519-4.65 4.896-9.045 9.108-9.19 3.965-.093 6.033 3.553 9.09 9.644 2.858 5.686 6.097 12.127 12.882 12.374.126.005.25.007.373.007 6.776 0 9.99-6.848 12.837-12.904 2.518-5.368 4.902-10.425 8.993-10.63V98.01z" fill="#000"/><path fill="#3ECC5F" d="M178 367h89v-89h-89z"/><path d="M310.889 311.444c-.487 0-.951.083-1.42.143-.085-.334-.165-.67-.258-1.003 4.013-1.675 6.833-5.63 6.833-10.25 0-6.138-4.973-11.112-11.11-11.112-2.53 0-4.834.88-6.703 2.302-.247-.25-.493-.5-.744-.746 1.393-1.858 2.246-4.138 2.246-6.638 0-6.138-4.973-11.111-11.11-11.111-4.59 0-8.527 2.784-10.22 6.758-.33-.094-.66-.171-.99-.256.06-.469.143-.933.143-1.42 0-6.138-4.974-11.111-11.112-11.111-6.137 0-11.11 4.973-11.11 11.111 0 .487.082.951.142 1.42-.33.085-.66.162-.99.256-1.693-3.974-5.63-6.758-10.22-6.758-6.137 0-11.11 4.973-11.11 11.111 0 2.5.853 4.78 2.246 6.638-8.26 8.07-13.402 19.318-13.402 31.778C222 347.102 241.898 367 266.444 367c20.754 0 38.134-14.244 43.025-33.476.469.06.933.143 1.42.143 6.138 0 11.111-4.974 11.111-11.111 0-6.138-4.973-11.112-11.111-11.112" fill="#44D860"/><path fill="#3ECC5F" d="M178 232h89v-43h-89z"/><path d="M291.444 215.996c3.07 0 5.556-2.46 5.556-5.496 0-3.036-2.487-5.496-5.556-5.496-.242 0-.475.042-.708.07-.045-.165-.083-.33-.13-.495 2.005-.828 3.416-2.787 3.416-5.071 0-3.037-2.486-5.497-5.555-5.497a5.533 5.533 0 00-3.351 1.14 14.707 14.707 0 00-.374-.37 5.4 5.4 0 001.125-3.285c0-3.034-2.487-5.496-5.556-5.496a5.557 5.557 0 00-5.111 3.344 22.417 22.417 0 00-5.978-.829c-12.27 0-22.222 9.845-22.222 21.985 0 12.14 9.951 21.985 22.222 21.985 2.076 0 4.074-.303 5.978-.829a5.557 5.557 0 005.111 3.344c3.069 0 5.556-2.462 5.556-5.496a5.4 5.4 0 00-1.125-3.285c.127-.12.251-.244.374-.37a5.533 5.533 0 003.35 1.14c3.07 0 5.556-2.46 5.556-5.497 0-2.284-1.41-4.243-3.415-5.071.046-.163.084-.33.129-.495.233.028.466.07.708.07" fill="#44D860"/><path d="M310.5 54c-.352 0-.726-.044-1.078-.11a5.545 5.545 0 01-1.034-.308 5.713 5.713 0 01-.948-.506 8.332 8.332 0 01-.836-.681c-.24-.264-.482-.528-.68-.836a5.779 5.779 0 01-.508-.945 5.756 5.756 0 01-.416-2.111c0-.352.044-.726.11-1.078a6.34 6.34 0 01.306-1.033c.134-.33.31-.638.508-.946.198-.286.44-.571.68-.835a8.31 8.31 0 01.836-.682c.31-.198.618-.374.948-.506a5.545 5.545 0 011.034-.308 5.09 5.09 0 012.156 0c.35.066.704.176 1.034.308.328.132.638.308.946.506.286.198.57.44.836.682.242.264.484.55.682.835.198.308.374.616.506.946.132.352.242.681.308 1.033.064.352.11.726.11 1.078 0 1.451-.596 2.88-1.606 3.892-.266.242-.55.484-.836.681a5.694 5.694 0 01-.946.506 5.64 5.64 0 01-1.034.308c-.352.066-.726.11-1.078.11m44-3a5.617 5.617 0 01-3.896-1.605 8.362 8.362 0 01-.68-.836 5.779 5.779 0 01-.508-.945 5.756 5.756 0 01-.416-2.111 5.61 5.61 0 011.604-3.892 8.31 8.31 0 01.836-.682c.31-.198.618-.374.948-.506a5.545 5.545 0 011.034-.308 5.09 5.09 0 012.156 0c.35.066.704.176 1.034.308.328.132.638.308.946.506.286.198.57.44.836.682A5.612 5.612 0 01360 45.503c0 .352-.046.725-.11 1.077a5.588 5.588 0 01-.308 1.034c-.154.33-.308.637-.506.945-.198.286-.44.572-.682.836-.266.242-.55.484-.836.681a5.694 5.694 0 01-.946.506 5.64 5.64 0 01-1.034.308c-.352.066-.726.11-1.078.11" fill="#000"/><path d="M397.746 59.164c-8.263-.662-16.538-2.786-24.788-1.987-46.195 4.475-23.044 9.142-55.485 7.04-11.825-.768-33.295-.768-64.41 0-14.883 2.594-25.22 7.217-31.014 13.867-4.342 4.985-12.33 15.79-15.388 21.114-9.625 16.755-15.227 41.548 5.269 54.425 11.493 7.22 30.769 6.01 40.927 5.957 20.201-.102 56.513 3.293 95.068.116s45.406 4.511 51.202 1.655c2.252-1.11 1.285-14.913 1.063-15.465-3-7.44-161.12-9.935-162.376-17.857-1.607-10.137-2.654-20.666-.886-30.776 1.046-5.982 159.191-11.59 161.778-17.086 1.527-3.243 2.711-6.708 3.242-10.253.271-1.808-.596-3.608-.894-5.412l-3.308-5.338z" fill="#FF9C9C"/><g transform="translate(497 239)"><ellipse stroke="#979797" fill="#FFF" cx="163" cy="64" rx="163" ry="64"/><ellipse stroke="#D9D9D9" stroke-width="2" cx="163" cy="64" rx="95" ry="37"/></g><g transform="translate(603 99)"><path stroke="#EDE66C" fill="#FFF9A9" d="M99.773 226L3 193.227V62.477L99.773 94z"/><path d="M3 62.477V192.5" stroke="#FF9C9C" stroke-width="6" stroke-linecap="round" stroke-linejoin="bevel"/><path stroke="#FF9C9C" stroke-width="6" fill="#FFB5B5" stroke-linecap="round" stroke-linejoin="round" d="M3 62.477l95.773-7.739V95z"/><path d="M99.362 148.602c-.016-.004-.027-.015-.043-.017-4.103-.801-6.97 2.826-9.498 6.027-2.64 3.344-4.576 5.47-6.806 4.878-2.468-.664-3.242-3.805-4.062-7.129-.942-3.816-2.024-8.148-6.206-8.961-4.045-.79-6.796 2.308-9.222 5.041-2.583 2.912-4.285 4.652-6.644 4.01-2.518-.68-3.34-3.277-4.29-6.283-1.06-3.348-2.307-7.124-6.401-7.95-3.976-.775-6.608 1.784-8.931 4.044-2.457 2.389-4.12 3.806-6.507 3.148-2.577-.693-3.482-2.9-4.528-5.454-1.175-2.87-2.496-6.118-6.584-6.918-3.888-.76-6.394 1.256-8.604 3.034-2.1 1.686-3.743 3.024-6.4 2.303a1.353 1.353 0 00-.703 2.613c3.943 1.05 6.535-.99 8.796-2.808 2.006-1.613 3.737-3.005 6.393-2.487 2.562.478 3.387 2.33 4.6 5.288 1.151 2.811 2.458 6 6.327 7.041 4.057 1.081 6.73-1.52 9.095-3.822 2.115-2.057 3.94-3.832 6.527-3.328 2.383.457 3.238 2.621 4.341 6.11 1.04 3.29 2.22 7.016 6.166 8.08 4.084 1.093 6.902-2.044 9.369-4.824 2.136-2.405 4.152-4.678 6.682-4.184 2.375.49 3.108 2.931 4.099 6.956.925 3.756 1.976 8.012 5.984 9.092.074.02.148.038.222.055 4.036.932 6.887-2.677 9.41-5.868 2.233-2.83 4.344-5.493 6.81-5.052l.608-2.635z" fill="#FF9C9C"/><path d="M99.362 150.602c-.016-.004-.027-.015-.043-.017-4.103-.801-6.97 2.826-9.498 6.027-2.64 3.344-4.576 5.47-6.806 4.878-2.468-.664-3.242-3.805-4.062-7.129-.942-3.816-2.024-8.148-6.206-8.961-4.045-.79-6.796 2.308-9.222 5.041-2.583 2.912-4.285 4.652-6.644 4.01-2.518-.68-3.34-3.277-4.29-6.283-1.06-3.348-2.307-7.124-6.401-7.95-3.976-.775-6.608 1.784-8.931 4.044-2.457 2.389-4.12 3.806-6.507 3.148-2.577-.693-3.482-2.9-4.528-5.454-1.175-2.87-2.496-6.118-6.584-6.918-3.888-.76-6.394 1.256-8.604 3.034-2.1 1.686-3.743 3.024-6.4 2.303a1.353 1.353 0 00-.703 2.613c3.943 1.05 6.535-.99 8.796-2.808 2.006-1.613 3.737-3.005 6.393-2.487 2.562.478 3.387 2.33 4.6 5.288 1.151 2.811 2.458 6 6.327 7.041 4.057 1.081 6.73-1.52 9.095-3.822 2.115-2.057 3.94-3.832 6.527-3.328 2.383.457 3.238 2.621 4.341 6.11 1.04 3.29 2.22 7.016 6.166 8.08 4.084 1.093 6.902-2.044 9.369-4.824 2.136-2.405 4.152-4.678 6.682-4.184 2.375.49 3.108 2.931 4.099 6.956.925 3.756 1.976 8.012 5.984 9.092.074.02.148.038.222.055 4.036.932 6.887-2.677 9.41-5.868 2.233-2.83 4.344-5.493 6.81-5.052l.608-2.635z" fill="#FF9C9C"/><path d="M99.362 152.602c-.016-.004-.027-.015-.043-.017-4.103-.801-6.97 2.826-9.498 6.027-2.64 3.344-4.576 5.47-6.806 4.878-2.468-.664-3.242-3.805-4.062-7.129-.942-3.816-2.024-8.148-6.206-8.961-4.045-.79-6.796 2.308-9.222 5.041-2.583 2.912-4.285 4.652-6.644 4.01-2.518-.68-3.34-3.277-4.29-6.283-1.06-3.348-2.307-7.124-6.401-7.95-3.976-.775-6.608 1.784-8.931 4.044-2.457 2.389-4.12 3.806-6.507 3.148-2.577-.693-3.482-2.9-4.528-5.454-1.175-2.87-2.496-6.118-6.584-6.918-3.888-.76-6.394 1.256-8.604 3.034-2.1 1.686-3.743 3.024-6.4 2.303a1.353 1.353 0 00-.703 2.613c3.943 1.05 6.535-.99 8.796-2.808 2.006-1.613 3.737-3.005 6.393-2.487 2.562.478 3.387 2.33 4.6 5.288 1.151 2.811 2.458 6 6.327 7.041 4.057 1.081 6.73-1.52 9.095-3.822 2.115-2.057 3.94-3.832 6.527-3.328 2.383.457 3.238 2.621 4.341 6.11 1.04 3.29 2.22 7.016 6.166 8.08 4.084 1.093 6.902-2.044 9.369-4.824 2.136-2.405 4.152-4.678 6.682-4.184 2.375.49 3.108 2.931 4.099 6.956.925 3.756 1.976 8.012 5.984 9.092.074.02.148.038.222.055 4.036.932 6.887-2.677 9.41-5.868 2.233-2.83 4.344-5.493 6.81-5.052l.608-2.635z" fill="#FF9C9C"/><path d="M97.362 152.602c-.016-.004-.027-.015-.043-.017-4.103-.801-6.97 2.826-9.498 6.027-2.64 3.344-4.576 5.47-6.806 4.878-2.468-.664-3.242-3.805-4.062-7.129-.942-3.816-2.024-8.148-6.206-8.961-4.045-.79-6.796 2.308-9.222 5.041-2.583 2.912-4.285 4.652-6.644 4.01-2.518-.68-3.34-3.277-4.29-6.283-1.06-3.348-2.307-7.124-6.401-7.95-3.976-.775-6.608 1.784-8.931 4.044-2.457 2.389-4.12 3.806-6.507 3.148-2.577-.693-3.482-2.9-4.528-5.454-1.175-2.87-2.496-6.118-6.584-6.918-3.888-.76-6.394 1.256-8.604 3.034-2.1 1.686-3.743 3.024-6.4 2.303a1.353 1.353 0 00-.703 2.613c3.943 1.05 6.535-.99 8.796-2.808 2.006-1.613 3.737-3.005 6.393-2.487 2.562.478 3.387 2.33 4.6 5.288 1.151 2.811 2.458 6 6.327 7.041 4.057 1.081 6.73-1.52 9.095-3.822 2.115-2.057 3.94-3.832 6.527-3.328 2.383.457 3.238 2.621 4.341 6.11 1.04 3.29 2.22 7.016 6.166 8.08 4.084 1.093 6.902-2.044 9.369-4.824 2.136-2.405 4.152-4.678 6.682-4.184 2.375.49 3.108 2.931 4.099 6.956.925 3.756 1.976 8.012 5.984 9.092.074.02.148.038.222.055 4.036.932 6.887-2.677 9.41-5.868 2.233-2.83 4.344-5.493 6.81-5.052l.608-2.635z" fill="#FF9C9C"/><path d="M97.362 152.602c-.016-.004-.027-.015-.043-.017-4.103-.801-6.97 2.826-9.498 6.027-2.64 3.344-4.576 5.47-6.806 4.878-2.468-.664-3.242-3.805-4.062-7.129-.942-3.816-2.024-8.148-6.206-8.961-4.045-.79-6.796 2.308-9.222 5.041-2.583 2.912-4.285 4.652-6.644 4.01-2.518-.68-3.34-3.277-4.29-6.283-1.06-3.348-2.307-7.124-6.401-7.95-3.976-.775-6.608 1.784-8.931 4.044-2.457 2.389-4.12 3.806-6.507 3.148-2.577-.693-3.482-2.9-4.528-5.454-1.175-2.87-2.496-6.118-6.584-6.918-3.888-.76-6.394 1.256-8.604 3.034-2.1 1.686-3.743 3.024-6.4 2.303a1.353 1.353 0 00-.703 2.613c3.943 1.05 6.535-.99 8.796-2.808 2.006-1.613 3.737-3.005 6.393-2.487 2.562.478 3.387 2.33 4.6 5.288 1.151 2.811 2.458 6 6.327 7.041 4.057 1.081 6.73-1.52 9.095-3.822 2.115-2.057 3.94-3.832 6.527-3.328 2.383.457 3.238 2.621 4.341 6.11 1.04 3.29 2.22 7.016 6.166 8.08 4.084 1.093 6.902-2.044 9.369-4.824 2.136-2.405 4.152-4.678 6.682-4.184 2.375.49 3.108 2.931 4.099 6.956.925 3.756 1.976 8.012 5.984 9.092.074.02.148.038.222.055 4.036.932 6.887-2.677 9.41-5.868 2.233-2.83 4.344-5.493 6.81-5.052l.608-2.635z" fill="#FF9C9C"/><ellipse fill="#F2E864" cx="86.5" cy="110.5" rx="2.5" ry="3.5"/><ellipse fill="#F2E864" cx="48.5" cy="117.5" rx="2.5" ry="3.5"/><ellipse fill="#F2E864" cx="31.5" cy="93.5" rx="2.5" ry="3.5"/><path d="M50.997 66.895a.879.879 0 01-.097-.395.85.85 0 01.065-.323l-1.98-43.772h17.583v43.869a.831.831 0 010 .452v.228h-.097C65.8 68.118 62.599 69 58.75 69s-7.05-.882-7.72-2.046H51l-.003-.06z" fill="#D0021B"/><ellipse fill="#EA364C" cx="57.75" cy="22.5" rx="8.75" ry="2.5"/><path d="M58.669 22.334c-3.29-3.382-2.296-1.265-.472-6.665" stroke="#7D7D7D"/><path d="M58.13 18.67c-1.936-.072-3.422-.837-3.257-6.226.11-3.593 1.374-7.41 3.796-11.454-.345 1.89.086 4.013 1.292 6.37 1.808 3.534 3.579 3.002 3.061 6.202-.518 3.2-2.957 5.178-4.892 5.107z" fill="#F8E71C"/><ellipse fill="#F2E864" cx="71.5" cy="189.5" rx="2.5" ry="3.5"/></g><path stroke="#FF9C9C" fill="#D8D8D8" d="M660.5 242.5h1v6h-1z"/><circle fill="#FFF9A9" cx="714" cy="311" r="3"/><circle fill="#FFF9A9" cx="613" cy="324" r="3"/><circle fill="#FFF9A9" cx="597" cy="315" r="3"/><circle fill="#FFF9A9" cx="622" cy="306" r="3"/><circle fill="#FFF9A9" cx="638" cy="320" r="3"/><path d="M408.78 197.66a4.501 4.501 0 011.72-8.66 4.5 4.5 0 013.545 7.272c.751.268 1.468.727 2.136 1.351.823-.997 2.005-1.623 3.319-1.623 2.485 0 4.5 2.239 4.5 5 0 2.459-1.598 4.503-3.702 4.922.256 1.144.448 2.356.566 3.618.641-.944 1.584-1.54 2.636-1.54 1.933 0 3.5 2.015 3.5 4.5s-1.567 4.5-3.5 4.5c-1.052 0-1.995-.596-2.636-1.54a28.68 28.68 0 01-.608 3.8c2.177.666 3.744 2.537 3.744 4.74 0 2.761-2.462 5-5.5 5a5.856 5.856 0 01-3.187-.925c-.88.6-1.827.925-2.813.925-4.694 0-8.5-7.387-8.5-16.5 0-6.523 1.95-12.162 4.78-14.84zM410.5 237c-2.485 0-4.5-1.79-4.5-4s2.015-4 4.5-4 4.5 1.79 4.5 4-2.015 4-4.5 4zm-66.971 149.51c4.07 1.402 6.471 3.126 6.471 4.99 0 4.694-15.222 8.5-34 8.5s-34-3.806-34-8.5c0-4.064 11.41-7.462 26.658-8.301-7.366-1.346-11.658-2.962-11.658-4.699 0-4.694 31.34-8.5 70-8.5s70 3.806 70 8.5-31.34 8.5-70 8.5a546.99 546.99 0 01-23.471-.49zM459.5 375c-15.188 0-27.5-3.358-27.5-7.5 0-4.142 12.312-7.5 27.5-7.5s27.5 3.358 27.5 7.5c0 4.142-12.312 7.5-27.5 7.5z" fill="#FF9C9C"/><path d="M267 190.148c4.067.487 6.498-.022 8.018-.087 2.868-.123 2.868-4.715 7.856-2.42 3.326 1.531 3.8 4.19 1.421 7.976 2.826-.563 4.898-.637 6.217-.22 5.337 1.686 5.472 5.125.403 10.316 4.057.532 6.085 2.145 6.085 4.839 0 2.693-2.292 4.67-6.875 5.932 3.637 2.864 4.58 5.618 2.83 8.263-1.75 2.644-4.623 2.988-8.621 1.03 2.023 5 1.278 7.96-2.233 8.88-3.512.919-5.55-.008-6.116-2.781" stroke="#FF9C9C" stroke-width="3"/><ellipse fill="#FF9C9C" cx="541.5" cy="380" rx="52.5" ry="9"/></g><g fill="#FFF"><use filter="url(#b)" xlink:href="#c"/><use xlink:href="#c"/></g><g fill="#FFF"><use filter="url(#d)" xlink:href="#e"/><use xlink:href="#e"/></g><g fill="#FFF"><use filter="url(#f)" xlink:href="#g"/><use xlink:href="#g"/></g><path fill="#000" d="M1450 742h355V631h-355z"/><path fill="#FFF" d="M1594.857 682.227v-23.381h11.795v2.457h-8.785v8.146h8.05v2.456h-8.05v10.322zm23.87-7.337c-.98-.316-2.87-.738-4.62-.738-2.345 0-2.94 1.123-2.94 3.054 0 2.142.7 3.16 2.73 3.16 2.1 0 3.85-.807 4.83-1.475v-4.001zm2.94 7.337h-2.484l-.176-1.44c-.98.773-3.36 1.79-5.529 1.79-3.71 0-5.18-2.176-5.18-5.44 0-3.441 1.714-5.232 5.39-5.232 2.17 0 4.094.562 5.039.983v-2.668c0-2.246-.7-3.194-3.29-3.194-1.54 0-3.079.21-4.62.667l-.454-2.423c1.504-.49 3.605-.806 5.39-.806 4.025 0 5.915 1.755 5.915 5.58v12.183zm14.98-17.027l-.385 2.282c-.945-.316-2.484-.632-3.675-.632-3.92 0-4.234 2.563-4.234 6.67 0 4.108.314 6.67 4.234 6.67 1.19 0 2.73-.316 3.675-.631l.385 2.281c-.98.386-2.59.737-4.13.737-5.669 0-7.105-3.686-7.105-9.057 0-5.37 1.436-9.057 7.105-9.057 1.54 0 3.15.35 4.13.737m5.671 7.302h7.873v-.631c0-3.23-1.014-5.196-3.885-5.196-3.254 0-3.954 2.35-3.988 5.827zm0 2.318c.174 3.685 1.084 5.44 4.619 5.44 1.855 0 3.78-.455 5.11-.983l.455 2.247c-1.435.598-3.71 1.054-5.6 1.054-6.265 0-7.525-4.283-7.525-9.163 0-5.02 1.645-8.952 6.965-8.952 4.725 0 6.684 3.335 6.684 7.513v2.844h-10.708zm17.777 3.65c1.331 1.16 2.766 1.72 4.095 1.72 3.326 0 3.956-2.598 3.956-6.634 0-3.862-.735-6.74-4.096-6.74-1.784 0-2.904.702-3.955 1.544v10.11zm4.55 4.107c-1.96 0-3.815-.947-4.76-2.105l-.244 1.755h-2.485V657.44h2.94v8.778c.84-.878 2.52-1.791 4.34-1.791 4.899 0 6.65 3.65 6.65 9.092 0 5.091-1.47 9.057-6.44 9.057zm16.765-15.727c-3.638 0-4.373 2.985-4.373 6.67 0 3.686.735 6.671 4.374 6.671 3.64 0 4.374-2.985 4.374-6.67 0-3.686-.734-6.671-4.374-6.671m0 15.728c-5.04 0-7.315-3.792-7.315-9.057 0-5.267 2.276-9.058 7.315-9.058 5.04 0 7.315 3.791 7.315 9.058 0 5.265-2.275 9.057-7.315 9.057m17.569-15.728c-3.639 0-4.373 2.985-4.373 6.67 0 3.686.734 6.671 4.373 6.671 3.64 0 4.375-2.985 4.375-6.67 0-3.686-.735-6.671-4.375-6.671m0 15.728c-5.039 0-7.314-3.792-7.314-9.057 0-5.267 2.275-9.058 7.314-9.058 5.04 0 7.316 3.791 7.316 9.058 0 5.265-2.276 9.057-7.316 9.057m11.41-.351V657.44h2.94v15.412l6.055-8.039h3.43l-6.65 8.6 6.93 8.813h-3.465l-6.3-8.25v8.25zM1602.492 694.3c-4.97 0-6.02 3.756-6.02 9.654s1.05 9.654 6.02 9.654 6.02-3.756 6.02-9.654-1.05-9.654-6.02-9.654m-9.03 9.654c0-7.092 2.345-12.112 9.03-12.112 6.686 0 9.03 5.02 9.03 12.112 0 7.092-2.344 12.112-9.03 12.112-6.685 0-9.03-5.02-9.03-12.112m25.375 8.32a6.395 6.395 0 003.92 1.369c3.396 0 4.13-2.668 4.13-6.74 0-4.073-.63-6.635-3.92-6.635-1.75 0-3.15.842-4.13 1.72v10.286zm4.34 3.756c-1.82 0-3.499-.737-4.34-1.439v7.372h-2.94v-23.732h2.486l.244 1.755c.806-1.123 2.696-2.105 4.76-2.105 5.11 0 6.44 4.142 6.44 9.056 0 5.478-1.82 9.093-6.65 9.093zm12.53-10.11h7.874v-.632c0-3.23-1.015-5.195-3.884-5.195-3.255 0-3.955 2.35-3.99 5.827zm0 2.317c.174 3.686 1.084 5.441 4.62 5.441 1.855 0 3.779-.456 5.109-.983l.455 2.246c-1.436.598-3.709 1.054-5.6 1.054-6.264 0-7.525-4.283-7.525-9.162 0-5.02 1.646-8.952 6.965-8.952 4.724 0 6.686 3.335 6.686 7.512v2.844h-10.71zm25.059 7.407V702.97c0-1.579-.665-2.386-2.38-2.386-1.819 0-3.64.596-4.9 1.159v13.901h-2.94v-17.412h2.381l.245 1.544c1.4-.947 3.605-1.895 5.949-1.895 2.975 0 4.585 1.684 4.585 4.773v12.99h-2.94zm21.105.421c-1.96 0-4.934-.491-6.44-1.228l.491-2.423c1.54.633 3.64 1.229 5.844 1.229 3.255 0 4.796-1.158 4.796-3.826 0-2.773-1.261-3.687-4.865-4.775-4.271-1.299-6.44-2.703-6.44-6.74 0-4.39 2.274-6.46 7.28-6.46 2.134 0 4.13.386 5.635 1.018l-.492 2.352c-1.399-.492-3.253-.947-5.039-.947-3.464 0-4.41 1.192-4.41 3.861 0 2.739.874 3.125 4.165 4.248 4.34 1.474 7.14 2.563 7.14 7.056 0 4.529-3.045 6.635-7.665 6.635m17.849-15.798c-3.638 0-4.373 2.985-4.373 6.671 0 3.686.735 6.67 4.374 6.67 3.64 0 4.374-2.984 4.374-6.67s-.734-6.67-4.374-6.67m0 15.727c-5.04 0-7.315-3.792-7.315-9.057 0-5.266 2.276-9.057 7.315-9.057 5.04 0 7.315 3.79 7.315 9.057 0 5.265-2.275 9.057-7.315 9.057m14.175-17.763v12.673c0 1.58.664 2.387 2.38 2.387 1.749 0 3.534-.597 4.76-1.16v-13.9h2.94v17.412h-2.38l-.246-1.544c-1.364.947-3.535 1.895-5.81 1.895-2.975 0-4.585-1.685-4.585-4.774v-12.99h2.941zm23.694 2.458c-1.96.384-3.956 1.052-5.425 1.825v13.13h-2.94v-17.413h2.414l.316 2.035c1.05-1.053 2.975-2.07 5.25-2.281l.385 2.703zm12.914-2.072l-.385 2.281c-.944-.316-2.484-.632-3.674-.632-3.92 0-4.234 2.563-4.234 6.67 0 4.108.313 6.67 4.234 6.67 1.19 0 2.73-.315 3.674-.631l.385 2.281c-.98.387-2.589.737-4.13.737-5.668 0-7.104-3.685-7.104-9.057 0-5.37 1.436-9.056 7.104-9.056 1.541 0 3.15.35 4.13.737m5.671 7.302h7.874v-.632c0-3.23-1.015-5.195-3.886-5.195-3.253 0-3.955 2.35-3.988 5.827zm0 2.317c.174 3.686 1.084 5.441 4.619 5.441 1.856 0 3.78-.456 5.11-.983l.455 2.246c-1.436.598-3.71 1.054-5.6 1.054-6.265 0-7.525-4.283-7.525-9.162 0-5.02 1.646-8.952 6.965-8.952 4.724 0 6.684 3.335 6.684 7.512v2.844h-10.708z"/><path d="M1494.148 707.414l34.384 19.914 34.385-19.913v-39.829l-34.385-19.914-34.384 19.914v39.828zm34.384 24.582l-38.415-22.248v-44.496l38.415-22.248 38.416 22.249v44.495l-38.416 22.248z" fill="#4265A6"/><path d="M1528.531 665.652c-1.235 0-2.41.27-3.22.74l-13.383 7.75c-1.717.994-3.222 3.609-3.222 5.596v15.502c0 1.988 1.505 4.603 3.222 5.596l13.382 7.752c1.623.94 4.82.94 6.443 0l13.382-7.75c1.716-.995 3.221-3.61 3.221-5.597V679.74c0-1.987-1.505-4.603-3.22-5.596l-13.383-7.752c-.812-.47-1.986-.739-3.222-.739m0 47.718c-1.95 0-3.81-.455-5.236-1.28l-13.383-7.752c-2.937-1.7-5.236-5.696-5.236-9.098v-15.502c0-3.4 2.3-7.397 5.236-9.098l13.383-7.75c1.427-.826 3.287-1.28 5.236-1.28 1.95 0 3.81.454 5.236 1.28l13.384 7.752c2.937 1.7 5.236 5.696 5.236 9.097v15.502c0 3.4-2.3 7.397-5.236 9.098l-13.384 7.75c-1.426.826-3.286 1.281-5.236 1.281" fill="#00CEFF"/><path d="M1528.532 680.935c-3.616 0-6.56 2.95-6.56 6.58 0 3.626 2.944 6.578 6.56 6.578 3.616 0 6.56-2.952 6.56-6.579 0-3.628-2.944-6.58-6.56-6.58m0 17.202c-5.839 0-10.59-4.765-10.59-10.622 0-5.858 4.751-10.622 10.59-10.622 5.838 0 10.59 4.764 10.59 10.622 0 5.857-4.752 10.622-10.59 10.622" fill="#FFF"/><text font-family="ArialRoundedMTBold, Arial Rounded MT Bold" font-size="22" fill="#FFF" fill-opacity=".528"><tspan x="749.945" y="716">Learn more at </tspan> <tspan x="904.031" y="716" text-decoration="underline">docusaurus.io</tspan></text><path d="M823.288 353.588c-11.129.433-17.44 12.78-17.622 18.525-.181 5.746 13.328 5.878 15.291 14.764 1.963 8.886-12.728 14.409-7.143 22.115 5.586 7.707 17.973-6.23 25.756 3.567 10.814 13.61-21.275 54.116 18.944 48.634 5.007-.682 10.966-7.184 13.224-9.974 13.69-16.92-3.428-18.799 1.932-31.393 3.079-7.234 15.379-30.972 11.818-39.056-3.56-8.084-9.49-2.956-12.83-6.368-5.254-5.366 10.71-15.533 1.012-24.315-9.697-8.783-22.1-6.22-31.58-3.368-9.479 2.851-7.673 6.436-18.802 6.869z" fill="#FF9C9C"/><path d="M833.51 430.427c-6.218 8.13-16.68-.936-12.585-9.846 9.15-11.067 19.97.187 12.584 9.846z" fill="#FF9C9C"/></g></svg>