<svg width="200" height="200" xmlns="http://www.w3.org/2000/svg"><defs><rect id="k" x="0" width="4.883" height="4.883" rx="1"/><rect id="fn" x="0" y="1.447" width="4.563" height="1.447" rx=".723"/><path d="M4.883.09v1.08a1 1 0 01-1 1H1a1 1 0 01-1-1V.09h4.883z" id="a"/></defs><g fill="#3ECC5F"><path d="M23 163c-7.4 0-14-4-17.3-10A20 20 0 003 163c0 11 9 20 20 20h20v-20H23zM164 183h9v-4h-8z"/><path d="M183 53V43c0-11-9-20-20-20H73c-4-8-6-8-10 0-4-8-6-8-10 0-4-8-6-8-10 0-7-9-9-5-10.3 2.3-9-3-10.3-1.7-7.3 7.3-9 2-10 3-2.4 10.4-8 4-8 6 0 10-8 4-8 6 0 10-8 4-8 6 0 10-8 4-8 6 0 10-8 4-8 6 0 10-8 4-8 6 0 10-8 4-8 6 0 10-8 4-8 6 0 10-8 4-8 6 0 10-8 4-8 6 0 10-8 4-8 6 0 10-8 4-8 6 0 10 0 11 9 20 20 20h120c11 0 20-9 20-20"/></g><path fill="#FFF" d="M183 83l-70-4.3c-13.3-1.5-13.3-19.8 0-21.3l70-4.4"/><use href="#h" x="60"/><use href="#f" x="50"/><path d="M103 183h60c11 0 20-9 20-20V93h-60c-11 0-20 9-20 20v70z" fill="#FFFF50"/><g fill="none" stroke="#000" stroke-width="2" stroke-linecap="round"><path d="M63 53a1 1 0 10-20 0" stroke-width="5"/><path d="M183 62.6c-5 0-5 10-10 10.7-5 0-5-10-10-10s-5 9-10 9-5-8.5-10-8.5-5 8-10 8-5-7.25-10-7.25-5 6.5-10 6.5" stroke-linecap="butt"/><path d="M168 113h-50m50 10h-50m50 10h-50m50 10h-50m50 10h-50m50 10h-50"/></g><circle cx="143" cy="39.3" r="2.5"/><circle cx="163" cy="38" r="2.5"/><circle cx="113" cy="71" r="1"/><g transform="rotate(-15 433.487 -340.892)"><rect fill="#D8D8D8" width="84.522" height="33.367" rx="2"/><rect fill="#4A4A4A" x="1.808" y="1.085" width="81.379" height="2.17" rx="1.085"/><g fill="#D8D8D8" opacity=".136"><use href="#fn" x="3.798"/><use href="#fn" x="10.042"/><use href="#fn" x="14.846"/><use href="#fn" x="19.649"/><use href="#fn" x="24.453"/><use href="#fn" x="30.457"/><use href="#fn" x="35.26"/><use href="#fn" x="40.064"/><use href="#fn" x="44.867"/><use href="#fn" x="50.872"/><use href="#fn" x="55.675"/><use href="#fn" x="60.479"/><use href="#fn" x="66.483"/><use href="#fn" x="71.286"/><use href="#fn" x="76.09"/></g><g transform="rotate(-180 41.684 4.375)" fill="#4A4A4A"><use href="#k" x="7.595"/><use href="#k" x="13.382"/><use href="#k" x="19.169"/><use href="#k" x="24.956"/><use href="#k" x="30.743"/><use href="#k" x="36.53"/><use href="#k" x="42.317"/><use href="#k" x="48.104"/><use href="#k" x="53.891"/><use href="#k" x="59.678"/><use href="#k" x="65.465"/><use href="#k" x="71.252"/><use href="#k" x="77.038"/><use href="#k" x="7.595"/><use href="#k" x="13.382"/><use href="#k" x="19.169"/><use href="#k" x="24.956"/><use href="#k" x="30.743"/><use href="#k" x="36.53"/><use href="#k" x="42.317"/><use href="#k" x="48.104"/><use href="#k" x="53.891"/><use href="#k" x="59.678"/><use href="#k" x="65.465"/><use href="#k" x="71.252"/><use href="#k" x="77.038"/><rect rx="1" width="6.7" height="4.883"/></g><g transform="translate(1 9.5)" fill="#4A4A4A"><use href="#k" x="8.042"/><use href="#k" x="13.829"/><use href="#k" x="19.616"/><use href="#k" x="25.403"/><use href="#k" x="31.19"/><use href="#k" x="36.977"/><use href="#k" x="42.764"/><use href="#k" x="48.551"/><use href="#k" x="54.337"/><use href="#k" x="60.124"/><use href="#k" x="65.911"/><use href="#k" x="71.698"/><use href="#k" x="77.485"/></g><g fill="#4A4A4A"><g transform="translate(11.212 15.19)"><use href="#k"/><use href="#k" x="5.787"/><use href="#k" x="11.574"/><use href="#k" x="17.361"/><use href="#k" x="23.148"/><use href="#k" x="28.935"/><use href="#k" x="34.722"/><use href="#k" x="40.508"/><use href="#k" x="46.295"/><use href="#k" x="52.082"/><use href="#k" x="57.869"/></g><rect x="75" y="15.2" rx="1" width="8.4" height="4.883"/></g><g transform="translate(1 21.144)" fill="#4A4A4A"><use href="#k" x="15.818"/><use href="#k" x="21.605"/><use href="#k" x="27.392"/><use href="#k" x="33.179"/><use href="#k" x="38.966"/><use href="#k" x="44.753"/><use href="#k" x="50.54"/><use href="#k" x="56.327"/><use href="#k" x="62.114"/><rect x=".5" rx="1" width="14.3" height="4.883"/><rect x="68" rx="1" width="14.3" height="4.883"/></g><g transform="translate(1 27.126)" fill="#4A4A4A"><use href="#k" x=".447"/><use href="#k" x="6.234"/><use href="#k" x="12.021"/><use href="#k" x="17.808"/><rect x="23.5" rx="1" width="30" height="4.883"/><rect x="54.4" rx="1" width="5.6" height="4.883"/><use href="#k" x="60.848"/><use href="#k" x="66.635"/><use href="#k" x="77.485"/><use href="#a" transform="rotate(-180 38.471 1.074)"/><use href="#a" transform="translate(72.06 2.713)"/></g></g><g fill="#3ECC5F"><path d="M83 123h40v-20H83zM83 183h40v-40H83z"/></g><g id="h" fill="#44D860"><circle cx="123" cy="113" r="10"/><circle cx="128" cy="104.3" r="2.4"/><circle cx="131.7" cy="108" r="2.4"/><circle cx="133" cy="113" r="2.4"/><circle cx="131.7" cy="118" r="2.4"/><circle cx="128" cy="121.7" r="2.4"/></g><g id="f" fill="#44D860"><circle cx="123" cy="163" r="20"/><circle cx="113" cy="145.7" r="5"/><circle cx="123" cy="143" r="5"/><circle cx="133" cy="145.7" r="5"/><circle cx="140.3" cy="153" r="5"/><circle cx="143" cy="163" r="5"/></g></svg>