<?xml version="1.0" encoding="UTF-8"?>
<svg width="200px" height="200px" viewBox="0 0 200 200" version="1.1" xmlns="http://www.w3.org/2000/svg" xmlns:xlink="http://www.w3.org/1999/xlink">
    <!-- Generator: Sketch 46.1 (44463) - http://www.bohemiancoding.com/sketch -->
    <title>docusaurus</title>
    <desc>Created with Sketch.</desc>
    <defs></defs>
    <g id="Page-1" stroke="none" stroke-width="1" fill="none" fill-rule="evenodd">
        <g id="docusaurus">
            <rect id="Rectangle" fill="#FFFFFF" x="99" y="52" width="84" height="34"></rect>
            <g id="Group-2" transform="translate(3.000000, 17.000000)">
                <path d="M20,146 C12.602,146 6.157,141.973 2.697,136 C0.992,138.944 0,142.353 0,146 C0,157.046 8.954,166 20,166 L40,166 L40,146 L20,146 Z" id="Fill-1" fill="#3ECC5F"></path>
                <path d="M109.9805,40.376 L180.0005,36 L180.0005,26 C180.0005,14.954 171.0455,6 160.0005,6 L70.0005,6 L67.5005,1.67 C66.3885,-0.255 63.6115,-0.255 62.5005,1.67 L60.0005,6 L57.5005,1.67 C56.3885,-0.255 53.6115,-0.255 52.5005,1.67 L50.0005,6 L47.5005,1.67 C46.3885,-0.255 43.6115,-0.255 42.5005,1.67 L40.0005,6 C39.9785,6 39.9575,6.003 39.9355,6.003 L35.7935,1.862 C34.2225,0.291 31.5405,1.009 30.9645,3.156 L29.5965,8.26 L24.4035,6.868 C22.2565,6.293 20.2925,8.257 20.8685,10.404 L22.2595,15.597 L17.1565,16.964 C15.0095,17.54 14.2905,20.223 15.8615,21.794 L20.0025,25.936 C20.0025,25.957 20.0005,25.978 20.0005,26 L15.6695,28.5 C13.7455,29.611 13.7455,32.389 15.6695,33.5 L20.0005,36 L15.6695,38.5 C13.7455,39.611 13.7455,42.389 15.6695,43.5 L20.0005,46 L15.6695,48.5 C13.7455,49.611 13.7455,52.389 15.6695,53.5 L20.0005,56 L15.6695,58.5 C13.7455,59.611 13.7455,62.389 15.6695,63.5 L20.0005,66 L15.6695,68.5 C13.7455,69.611 13.7455,72.389 15.6695,73.5 L20.0005,76 L15.6695,78.5 C13.7455,79.611 13.7455,82.389 15.6695,83.5 L20.0005,86 L15.6695,88.5 C13.7455,89.611 13.7455,92.389 15.6695,93.5 L20.0005,96 L15.6695,98.5 C13.7455,99.611 13.7455,102.389 15.6695,103.5 L20.0005,106 L15.6695,108.5 C13.7455,109.611 13.7455,112.389 15.6695,113.5 L20.0005,116 L15.6695,118.5 C13.7455,119.611 13.7455,122.389 15.6695,123.5 L20.0005,126 L15.6695,128.5 C13.7455,129.611 13.7455,132.389 15.6695,133.5 L20.0005,136 L15.6695,138.5 C13.7455,139.611 13.7455,142.389 15.6695,143.5 L20.0005,146 C20.0005,157.046 28.9545,166 40.0005,166 L160.0005,166 C171.0455,166 180.0005,157.046 180.0005,146 L180.0005,66 L109.9805,61.624 C104.3705,61.273 100.0005,56.621 100.0005,51 C100.0005,45.379 104.3705,40.727 109.9805,40.376" id="Fill-3" fill="#3ECC5F"></path>
                <polygon id="Fill-5" fill="#3ECC5F" points="140 166 170 166 170 126 140 126"></polygon>
                <path d="M190,141 C189.781,141 189.572,141.037 189.361,141.064 C189.323,140.914 189.287,140.763 189.245,140.613 C191.051,139.859 192.32,138.079 192.32,136 C192.32,133.238 190.082,131 187.32,131 C186.182,131 185.145,131.396 184.304,132.036 C184.193,131.923 184.082,131.811 183.969,131.7 C184.596,130.864 184.98,129.838 184.98,128.713 C184.98,125.951 182.742,123.713 179.98,123.713 C177.915,123.713 176.143,124.966 175.381,126.754 C175.233,126.712 175.084,126.677 174.936,126.639 C174.963,126.428 175,126.219 175,126 C175,123.238 172.762,121 170,121 C167.238,121 165,123.238 165,126 C165,126.219 165.037,126.428 165.064,126.639 C164.916,126.677 164.767,126.712 164.619,126.754 C163.857,124.966 162.085,123.713 160.02,123.713 C157.258,123.713 155.02,125.951 155.02,128.713 C155.02,129.838 155.404,130.864 156.031,131.7 C152.314,135.332 150,140.393 150,146 C150,157.046 158.954,166 170,166 C179.339,166 187.16,159.59 189.361,150.936 C189.572,150.963 189.781,151 190,151 C192.762,151 195,148.762 195,146 C195,143.238 192.762,141 190,141" id="Fill-7" fill="#44D860"></path>
                <polygon id="Fill-8" fill="#3ECC5F" points="150 106 180 106 180 86 150 86"></polygon>
                <path d="M190,98.5 C191.381,98.5 192.5,97.381 192.5,96 C192.5,94.619 191.381,93.5 190,93.5 C189.891,93.5 189.786,93.519 189.681,93.532 C189.661,93.457 189.644,93.382 189.623,93.307 C190.525,92.93 191.16,92.039 191.16,91 C191.16,89.619 190.041,88.5 188.66,88.5 C188.091,88.5 187.572,88.697 187.152,89.018 C187.097,88.961 187.041,88.905 186.984,88.85 C187.298,88.433 187.49,87.919 187.49,87.356 C187.49,85.976 186.371,84.856 184.99,84.856 C183.957,84.856 183.071,85.483 182.69,86.377 C181.833,86.138 180.934,86 180,86 C174.478,86 170,90.478 170,96 C170,101.522 174.478,106 180,106 C180.934,106 181.833,105.862 182.69,105.623 C183.071,106.517 183.957,107.144 184.99,107.144 C186.371,107.144 187.49,106.024 187.49,104.644 C187.49,104.081 187.298,103.567 186.984,103.15 C187.041,103.095 187.097,103.039 187.152,102.982 C187.572,103.303 188.091,103.5 188.66,103.5 C190.041,103.5 191.16,102.381 191.16,101 C191.16,99.961 190.525,99.07 189.623,98.693 C189.644,98.619 189.661,98.543 189.681,98.468 C189.786,98.481 189.891,98.5 190,98.5" id="Fill-9" fill="#44D860"></path>
                <path d="M60,38.5 C58.619,38.5 57.5,37.381 57.5,36 C57.5,31.864 54.136,28.5 50,28.5 C45.864,28.5 42.5,31.864 42.5,36 C42.5,37.381 41.381,38.5 40,38.5 C38.619,38.5 37.5,37.381 37.5,36 C37.5,29.107 43.107,23.5 50,23.5 C56.893,23.5 62.5,29.107 62.5,36 C62.5,37.381 61.381,38.5 60,38.5" id="Fill-10" fill="#000000"></path>
                <path d="M100,166 L160,166 C171.046,166 180,157.046 180,146 L180,76 L120,76 C108.954,76 100,84.954 100,96 L100,166 Z" id="Fill-11" fill="#FFFF50"></path>
                <path d="M165.0195,107 L114.9805,107 C114.4275,107 113.9805,106.553 113.9805,106 C113.9805,105.447 114.4275,105 114.9805,105 L165.0195,105 C165.5725,105 166.0195,105.447 166.0195,106 C166.0195,106.553 165.5725,107 165.0195,107" id="Fill-12" fill="#000000"></path>
                <path d="M165.0195,127 L114.9805,127 C114.4275,127 113.9805,126.553 113.9805,126 C113.9805,125.447 114.4275,125 114.9805,125 L165.0195,125 C165.5725,125 166.0195,125.447 166.0195,126 C166.0195,126.553 165.5725,127 165.0195,127" id="Fill-13" fill="#000000"></path>
                <path d="M165.0195,147 L114.9805,147 C114.4275,147 113.9805,146.553 113.9805,146 C113.9805,145.447 114.4275,145 114.9805,145 L165.0195,145 C165.5725,145 166.0195,145.447 166.0195,146 C166.0195,146.553 165.5725,147 165.0195,147" id="Fill-14" fill="#000000"></path>
                <path d="M165.0195,97.1855 L114.9805,97.1855 C114.4275,97.1855 113.9805,96.7375 113.9805,96.1855 C113.9805,95.6325 114.4275,95.1855 114.9805,95.1855 L165.0195,95.1855 C165.5725,95.1855 166.0195,95.6325 166.0195,96.1855 C166.0195,96.7375 165.5725,97.1855 165.0195,97.1855" id="Fill-15" fill="#000000"></path>
                <path d="M165.0195,117 L114.9805,117 C114.4275,117 113.9805,116.553 113.9805,116 C113.9805,115.447 114.4275,115 114.9805,115 L165.0195,115 C165.5725,115 166.0195,115.447 166.0195,116 C166.0195,116.553 165.5725,117 165.0195,117" id="Fill-16" fill="#000000"></path>
                <path d="M165.0195,137 L114.9805,137 C114.4275,137 113.9805,136.553 113.9805,136 C113.9805,135.447 114.4275,135 114.9805,135 L165.0195,135 C165.5725,135 166.0195,135.447 166.0195,136 C166.0195,136.553 165.5725,137 165.0195,137" id="Fill-17" fill="#000000"></path>
                <path d="M180,44.6113 C179.988,44.6113 179.978,44.6053 179.966,44.6063 C176.876,44.7113 175.414,47.8023 174.124,50.5293 C172.778,53.3783 171.737,55.2323 170.031,55.1763 C168.142,55.1083 167.062,52.9743 165.918,50.7153 C164.604,48.1223 163.104,45.1803 159.955,45.2903 C156.909,45.3943 155.442,48.0843 154.148,50.4573 C152.771,52.9853 151.834,54.5223 150.027,54.4513 C148.1,54.3813 147.076,52.6463 145.891,50.6383 C144.57,48.4023 143.043,45.8883 139.955,45.9743 C136.961,46.0773 135.49,48.3593 134.192,50.3743 C132.819,52.5043 131.857,53.8023 130.027,53.7253 C128.054,53.6543 127.035,52.2153 125.856,50.5483 C124.532,48.6753 123.04,46.5553 119.961,46.6583 C117.033,46.7583 115.562,48.6273 114.265,50.2763 C113.033,51.8403 112.071,53.0783 110.036,53.0003 C109.484,52.9783 109.021,53.4113 109.001,53.9643 C108.98,54.5153 109.412,54.9793 109.964,55.0003 C112.981,55.1013 114.509,53.1993 115.836,51.5133 C117.013,50.0173 118.029,48.7263 120.029,48.6583 C121.955,48.5763 122.858,49.7733 124.224,51.7033 C125.521,53.5373 126.993,55.6173 129.955,55.7243 C133.058,55.8283 134.551,53.5093 135.873,51.4573 C137.055,49.6233 138.075,48.0403 140.023,47.9733 C141.816,47.9063 142.792,49.3233 144.168,51.6543 C145.465,53.8513 146.934,56.3403 149.955,56.4503 C153.08,56.5583 154.589,53.8293 155.904,51.4153 C157.043,49.3273 158.118,47.3543 160.023,47.2893 C161.816,47.2473 162.751,48.8843 164.134,51.6193 C165.426,54.1723 166.891,57.0643 169.959,57.1753 C170.016,57.1773 170.072,57.1783 170.128,57.1783 C173.192,57.1783 174.646,54.1033 175.933,51.3843 C177.072,48.9743 178.15,46.7033 180,46.6113 L180,44.6113 Z" id="Fill-24" fill="#000000"></path>
                <polygon id="Fill-18" fill="#3ECC5F" points="80 166 120 166 120 126 80 126"></polygon>
                <path d="M140,141 C139.781,141 139.572,141.037 139.361,141.064 C139.323,140.914 139.287,140.763 139.245,140.613 C141.051,139.859 142.32,138.079 142.32,136 C142.32,133.238 140.082,131 137.32,131 C136.182,131 135.145,131.396 134.304,132.036 C134.193,131.923 134.082,131.811 133.969,131.7 C134.596,130.864 134.98,129.838 134.98,128.713 C134.98,125.951 132.742,123.713 129.98,123.713 C127.915,123.713 126.143,124.966 125.381,126.754 C125.233,126.712 125.084,126.677 124.936,126.639 C124.963,126.428 125,126.219 125,126 C125,123.238 122.762,121 120,121 C117.238,121 115,123.238 115,126 C115,126.219 115.037,126.428 115.064,126.639 C114.916,126.677 114.767,126.712 114.619,126.754 C113.857,124.966 112.085,123.713 110.02,123.713 C107.258,123.713 105.02,125.951 105.02,128.713 C105.02,129.838 105.404,130.864 106.031,131.7 C102.314,135.332 100,140.393 100,146 C100,157.046 108.954,166 120,166 C129.339,166 137.16,159.59 139.361,150.936 C139.572,150.963 139.781,151 140,151 C142.762,151 145,148.762 145,146 C145,143.238 142.762,141 140,141" id="Fill-19" fill="#44D860"></path>
                <polygon id="Fill-20" fill="#3ECC5F" points="80 106 120 106 120 86 80 86"></polygon>
                <path d="M130,98.5 C131.381,98.5 132.5,97.381 132.5,96 C132.5,94.619 131.381,93.5 130,93.5 C129.891,93.5 129.786,93.519 129.681,93.532 C129.661,93.457 129.644,93.382 129.623,93.307 C130.525,92.93 131.16,92.039 131.16,91 C131.16,89.619 130.041,88.5 128.66,88.5 C128.091,88.5 127.572,88.697 127.152,89.018 C127.097,88.961 127.041,88.905 126.984,88.85 C127.298,88.433 127.49,87.919 127.49,87.356 C127.49,85.976 126.371,84.856 124.99,84.856 C123.957,84.856 123.071,85.483 122.69,86.377 C121.833,86.138 120.934,86 120,86 C114.478,86 110,90.478 110,96 C110,101.522 114.478,106 120,106 C120.934,106 121.833,105.862 122.69,105.623 C123.071,106.517 123.957,107.144 124.99,107.144 C126.371,107.144 127.49,106.024 127.49,104.644 C127.49,104.081 127.298,103.567 126.984,103.15 C127.041,103.095 127.097,103.039 127.152,102.982 C127.572,103.303 128.091,103.5 128.66,103.5 C130.041,103.5 131.16,102.381 131.16,101 C131.16,99.961 130.525,99.07 129.623,98.693 C129.644,98.619 129.661,98.543 129.681,98.468 C129.786,98.481 129.891,98.5 130,98.5" id="Fill-21" fill="#44D860"></path>
                <path d="M140,24.75 C139.84,24.75 139.67,24.73 139.51,24.7 C139.35,24.67 139.189,24.62 139.04,24.56 C138.89,24.5 138.75,24.42 138.609,24.33 C138.479,24.24 138.35,24.13 138.229,24.02 C138.12,23.9 138.01,23.78 137.92,23.64 C137.83,23.5 137.75,23.36 137.689,23.21 C137.63,23.06 137.58,22.9 137.55,22.74 C137.52,22.58 137.5,22.41 137.5,22.25 C137.5,22.09 137.52,21.92 137.55,21.76 C137.58,21.6 137.63,21.45 137.689,21.29 C137.75,21.14 137.83,21 137.92,20.86 C138.01,20.73 138.12,20.6 138.229,20.48 C138.35,20.37 138.479,20.26 138.609,20.17 C138.75,20.08 138.89,20 139.04,19.94 C139.189,19.88 139.35,19.83 139.51,19.8 C139.83,19.73 140.16,19.73 140.49,19.8 C140.649,19.83 140.81,19.88 140.96,19.94 C141.109,20 141.25,20.08 141.39,20.17 C141.52,20.26 141.649,20.37 141.77,20.48 C141.88,20.6 141.99,20.73 142.08,20.86 C142.17,21 142.25,21.14 142.31,21.29 C142.37,21.45 142.42,21.6 142.45,21.76 C142.479,21.92 142.5,22.09 142.5,22.25 C142.5,22.91 142.229,23.56 141.77,24.02 C141.649,24.13 141.52,24.24 141.39,24.33 C141.25,24.42 141.109,24.5 140.96,24.56 C140.81,24.62 140.649,24.67 140.49,24.7 C140.33,24.73 140.16,24.75 140,24.75" id="Fill-22" fill="#000000"></path>
                <path d="M160,23.5 C159.34,23.5 158.7,23.23 158.229,22.77 C158.12,22.65 158.01,22.52 157.92,22.39 C157.83,22.25 157.75,22.11 157.689,21.96 C157.63,21.81 157.58,21.65 157.55,21.49 C157.52,21.33 157.5,21.16 157.5,21 C157.5,20.34 157.77,19.7 158.229,19.23 C158.35,19.12 158.479,19.01 158.609,18.92 C158.75,18.83 158.89,18.75 159.04,18.69 C159.189,18.63 159.35,18.58 159.51,18.55 C159.83,18.48 160.17,18.48 160.49,18.55 C160.649,18.58 160.81,18.63 160.96,18.69 C161.109,18.75 161.25,18.83 161.39,18.92 C161.52,19.01 161.649,19.12 161.77,19.23 C162.229,19.7 162.5,20.34 162.5,21 C162.5,21.16 162.479,21.33 162.45,21.49 C162.42,21.65 162.37,21.81 162.31,21.96 C162.24,22.11 162.17,22.25 162.08,22.39 C161.99,22.52 161.88,22.65 161.77,22.77 C161.649,22.88 161.52,22.99 161.39,23.08 C161.25,23.17 161.109,23.25 160.96,23.31 C160.81,23.37 160.649,23.42 160.49,23.45 C160.33,23.48 160.16,23.5 160,23.5" id="Fill-23" fill="#000000"></path>
            </g>
        </g>
    </g>
</svg>