<?xml version="1.0" encoding="UTF-8"?>
<svg width="113px" height="112px" viewBox="0 0 113 112" version="1.1" xmlns="http://www.w3.org/2000/svg" xmlns:xlink="http://www.w3.org/1999/xlink">
    <!-- Generator: Sketch 48.2 (47327) - http://www.bohemiancoding.com/sketch -->
    <title>Group</title>
    <desc>Created with Sketch.</desc>
    <defs></defs>
    <g id="logo" stroke="none" stroke-width="1" fill="none" fill-rule="evenodd" transform="translate(-497.000000, -251.000000)">
        <g id="Group" transform="translate(497.000000, 251.000000)">
            <rect id="Rectangle" fill="#DD4C39" x="0.422334439" y="0.21146349" width="112.088711" height="111.788537"></rect>
            <polygon id="path12_fill" fill="#FFFFFF" fill-rule="nonzero" points="73.5146244 60.0807842 106.878115 60.0807842 106.878115 68.904941 84.5553314 68.904941 84.5553314 76.8224822 104.706053 76.8224822 104.706053 85.5862387 84.5553314 85.6466656 84.5553314 93.6246071 107.48134 93.6246071 107.48134 102.448791 73.5146244 102.448791"></polygon>
            <path d="M54.6529308,102.448791 L48.4991311,90.7235858 L48.2577614,90.7235858 L40.2940206,90.7235858 L40.2940206,102.448791 L29.2533137,102.448791 L29.2533137,60.0807842 L48.2577614,60.0807842 C53.8484978,60.0807842 58.1723417,61.3903037 61.2291605,64.0093413 C64.3261414,66.5880949 65.8746981,70.2345979 65.8746981,74.9488506 C65.8746981,78.1319526 65.2311782,80.8920664 63.9440059,83.2290593 C62.6569661,85.5258119 60.7867158,87.31883 58.3332548,88.6082466 L67.1415906,102.448791 L54.6529308,102.448791 Z M40.2940206,81.8994024 L48.3180707,81.8994024 C50.5704566,81.8994024 52.3000736,81.3353739 53.5066568,80.2070514 C54.7535346,79.0788617 55.3769072,77.4470704 55.3769072,75.3115447 C55.3769072,73.2565793 54.7535346,71.6851485 53.5066568,70.5972389 C52.3000736,69.4690359 50.5704566,68.904941 48.3180707,68.904941 L40.2940206,68.904941 L40.2940206,81.8994024 Z" id="path11_fill" fill="#FFFFFF" fill-rule="nonzero"></path>
        </g>
    </g>
</svg>