<svg xmlns="http://www.w3.org/2000/svg" width="600" height="600" viewBox="0 0 600 600"><g fill="#F26B00"><path d="M142.536 198.858c0 26.36-21.368 47.72-47.72 47.72-26.36 0-47.722-21.36-47.722-47.72s21.36-47.72 47.72-47.72c26.355 0 47.722 21.36 47.722 47.72"/><path d="M505.18 414.225H238.124c-35.25 0-63.926-28.674-63.926-63.923s28.678-63.926 63.926-63.926h120.78c20.816 0 37.753-16.938 37.753-37.756s-16.938-37.756-37.753-37.756H94.81c-7.227 0-13.086-5.86-13.086-13.085 0-7.227 5.86-13.086 13.085-13.086h264.093c35.25 0 63.923 28.678 63.923 63.926s-28.674 63.923-63.923 63.923h-120.78c-20.82 0-37.756 16.938-37.756 37.76 0 20.816 16.938 37.753 37.756 37.753H505.18c7.227 0 13.086 5.86 13.086 13.085 0 7.226-5.858 13.085-13.085 13.085z"/><path d="M457.464 401.142c0-26.36 21.36-47.72 47.72-47.72s47.72 21.36 47.72 47.72-21.36 47.72-47.72 47.72-47.72-21.36-47.72-47.72"/></g></svg>