<svg width="50" height="50" viewBox="0 0 50 50" xmlns="http://www.w3.org/2000/svg"><path d="M0 0h50v50H0z" fill="none"/><path d="M18.623 4.256c-7.913 0-14.367 6.454-14.367 14.367 0 7.913 6.454 14.367 14.367 14.367 3.241 0 6.228-1.095 8.637-2.918a2 2 0 0 0 .15.166l14.898 14.898a2 2 0 1 0 2.828-2.828L30.238 27.41a2 2 0 0 0-.166-.15c1.823-2.409 2.918-5.396 2.918-8.637 0-7.913-6.454-14.367-14.367-14.367zm0 3.59A10.75 10.75 0 0 1 29.4 18.623c0 5.973-4.804 10.777-10.777 10.777S7.846 24.595 7.846 18.623A10.75 10.75 0 0 1 18.623 7.846z" color="#000" fill="#555" style="block-progression:tb;isolation:auto;mix-blend-mode:normal;text-decoration-color:#000;text-decoration-line:none;text-decoration-style:solid;text-indent:0;text-transform:none"/></svg>