<svg xmlns="http://www.w3.org/2000/svg" width="1149" height="784.079" viewBox="0 0 1149 784.079"><g data-name="Group 10"><g data-name="Group 9"><path data-name="Path 63" d="M435 747.08c0 20.43-95.81 37-214 37s-214-16.57-214-37c0-5.11 5.98-9.97 16.8-14.39 31.5-12.89 104.03-22.05 189.28-22.58q3.945-.03 7.92-.03c118.19 0 214 16.57 214 37z" fill="#3f3d56"/><path data-name="Path 64" d="M213.08 710.11A121.5 121.5 0 0123.8 732.69c31.5-12.89 104.03-22.05 189.28-22.58z" opacity=".1"/><ellipse data-name="Ellipse 9" cx="112" cy="120" rx="112" ry="120" transform="translate(0 508.079)" fill="#3f3d56"/><path data-name="Path 65" d="M249.427 83.34c15.88 61.177 67.109 100.718 114.538 88.407" fill="#3f3d56"/><path data-name="Path 66" d="M363.965 171.74c-16.058-61.864 13.776-123.041 66.7-136.78" fill="#3ecc5f"/><path data-name="Path 67" d="M281.956 80.813c15.084 58.111 51.764 98.782 82.008 90.931" fill="#3ecc5f"/><path data-name="Path 68" d="M363.965 171.74C343.446 92.695 376.346 15.88 437.522 0" fill="#3f3d56"/><path data-name="Path 69" d="M346.116 177.21s12.072-3.534 15.061-7.1 17.232-10.589 19.229-6.637 23.694 16.087 9.984 19.767-32.478 6.146-36.717 4.867-7.557-10.897-7.557-10.897z" fill="#a8a8a8"/><path data-name="Path 70" d="M390.257 181.715c-13.71 3.677-32.478 6.146-36.717 4.867-3.228-.974-5.921-6.779-7.022-9.494l-.4.121s3.318 9.614 7.557 10.894 23.007-1.19 36.717-4.867c3.958-1.061 4.961-2.828 4.343-4.9-.224 1.404-1.535 2.589-4.478 3.379z" opacity=".2"/><path data-name="Rectangle 86" fill="#f2f2f2" d="M343 126.079h806v467H343z"/><path data-name="Rectangle 87" fill="#3ecc5f" opacity=".3" d="M362 267.829h442v231.5H362z"/><path data-name="Rectangle 88" fill="#3f3d56" d="M838 257.737h177.281v9.807H838z"/><path data-name="Rectangle 89" fill="#3f3d56" d="M838 275.842h258v9.807H838z"/><path data-name="Rectangle 90" fill="#3f3d56" d="M838 319.597h177.281v9.807H838z"/><path data-name="Rectangle 91" fill="#3f3d56" d="M838 392.018h177.281v9.807H838z"/><path data-name="Rectangle 92" fill="#3f3d56" d="M838 337.702h258v9.807H838z"/><path data-name="Rectangle 93" fill="#3f3d56" d="M838 355.807h258v9.807H838z"/><path data-name="Rectangle 94" fill="#3f3d56" d="M838 373.913h258v9.807H838z"/><path data-name="Rectangle 95" fill="#3ecc5f" d="M838 435.772h92.789v25.649H838z"/><path data-name="Path 71" d="M314.488 407.914s16.657-47.195 28.687-32.388-18.508 39.791-18.508 39.791z" fill="#a0616a"/><path data-name="Path 72" d="M235.83 361.64l10.02 3.714s4.786 21.272 2.935 24.973-2.776.925 0 8.328 11.1 26.836 12.03 29.612 53.672-17.582 53.672-27.761c0 0 11.1 12.955 16.657 15.732 0 0-61.075 44.418-69.4 49.971s-12.955 2.776-20.358-3.7-38.866-60.15-38.866-60.15z" fill="#575a89"/><path data-name="Path 73" d="M262.666 690.156s-.925 10.179-2.776 11.1-15.732 24.06 0 28.687 24.985 2.776 28.687 4.627 68.478 5.552 69.4-4.627-31.463-12.03-31.463-12.03-29.612-19.433-34.239-29.612-29.609 1.855-29.609 1.855z" fill="#2f2e41"/><path data-name="Path 74" d="M74.813 708.663S52.6 746.604 58.157 751.231s59.625 21.488 67.553 22.209c10.179.925 17.582-7.4 9.254-12.03s-25.911-24.06-25.911-30.538v-16.656z" fill="#2f2e41"/><path data-name="Path 75" d="M53.53 460.661s-19.433 24.06 11.1 62.926l50.9 64.777s-31.463 49.971-32.388 75.881-7.4 20.358-9.254 31.463-10.179 5.552-3.7 13.881 30.538 15.732 37.941 9.254 7.4-14.806 7.4-18.508 12.955-24.985 13.881-31.463 35.165-59.224 35.165-59.224 11.1-31.463-1.851-49.045-21.516-42.519-21.516-42.519 38.173 46.22 65.009 57.325c0 0 10.179 1.851 8.328 6.478s0 7.4 2.776 12.03 22.209 58.3 28.687 72.18 3.7 22.209 11.1 26.836 40.717.925 40.717-3.7-4.627-16.657-7.4-23.135-24.985-81.434-23.135-94.389-.925-30.538-14.806-37.941-84.21-67.553-87.911-67.553-111.043-5.554-111.043-5.554z" fill="#2f2e41"/><circle data-name="Ellipse 10" cx="38.866" cy="38.866" r="38.866" transform="translate(200.665 237.643)" fill="#a0616a"/><path data-name="Path 76" d="M208.069 280.211s-12.03 21.284-26.836 24.06 38.867 45.344 38.867 45.344 12.955-40.717 24.06-42.568-36.091-26.836-36.091-26.836z" fill="#a0616a"/><path data-name="Path 77" d="M246.009 367.197c0 12.03-36.09 46.269-36.09 46.269l-34.239 28.687s-.925 10.179-4.627 11.1-8.328.925-4.627 6.478 12.955 17.582 4.627 19.433a68.023 68.023 0 01-7.579.722c-2.221.13-4.83.25-7.764.361-6.848.241-15.417.4-24.7.333q-3.956-.014-8.051-.093c-34.989-.694-75.521-4.719-72.208-17.98 5.552-22.209 1.851-29.612 13.881-41.642S96.1 367.197 96.1 367.197s38.866-65.7 71.254-65.7l6.728-1.768a15.406 15.406 0 0116.814 6.459c6.5 9.892 16.74 24.754 22.727 29.547 9.254 7.4 10.7 2.091 10.7 2.091s21.686 17.341 21.686 29.371z" fill="#575a89"/><path data-name="Path 78" d="M163.65 507.855s26.836 41.642 10.179 49.045-25.911-43.493-25.911-43.493z" fill="#a0616a"/><path data-name="Path 79" d="M214.123 272.12c1.492-.188 1.963-2.07 2.214-3.553 1.344-7.938 7.26-15.466 15.209-16.747a21.535 21.535 0 019.062.73 34.382 34.382 0 0111.627 5.723c1.836 1.388 3.6 3 5.81 3.649 1.458.428 7.651 3.181 9.1 3.647 3.181 1.024 5.813 4.354 9.09 3.694 3.134-.631 4.325-4.416 4.829-7.573 1.148-7.193-2.969-17.925-7.063-23.95-3.106-4.572-8.363-7.2-13.618-8.915a97.844 97.844 0 00-18.887-3.753c-8.645-1.021-17.6-1.563-25.884 1.109s-15.829 9.209-17.375 17.776c-.322 1.784-.383 3.612-.777 5.382-.963 4.318-3.82 7.947-5.486 12.044a23.193 23.193 0 00.708 18.8c2.308 4.64 6.32 9.1 5.454 14.209l7.141-5.631a5.186 5.186 0 002.384-6.07l-1.038-8.942c-.19-1.637-.356-3.4.463-4.834 3.17-5.541 4.55 3.518 7.037 3.205z" fill="#2f2e41"/><path data-name="Path 80" d="M146.993 444.004l8.717 36.247c-8.791.315-20.423.481-32.749.241-3.109-9.328-6.08-19.054-8.356-28.159-8.328-33.314 5.552-84.21 12.955-108.27s25.911-30.538 25.911-30.538 9.254 2.776 21.284 11.1-27.762 119.379-27.762 119.379z" opacity=".1"/><path data-name="Path 81" d="M154.4 442.153l9.078 37.737c-2.221.13-4.83.25-7.764.361-6.848.241-15.417.4-24.7.333-3.34-9.911-6.57-20.368-9-30.1-8.328-33.314 5.552-84.21 12.955-108.27s23.6 2.313 23.6 2.313-6.478-15.732 5.552-7.4-9.721 105.026-9.721 105.026z" opacity=".1"/><path data-name="Path 82" d="M157.172 311.674s-18.508 6.478-25.911 30.538-21.284 74.956-12.955 108.27 25.911 74.958 25.911 74.958 17.582-12.955 24.06-10.179l-17.582-73.105s39.791-111.046 27.761-119.374-21.284-11.108-21.284-11.108z" fill="#575a89"/><path data-name="Rectangle 96" fill="#3f3d56" d="M343 243.829h442v231.5H343z"/></g><path data-name="Path 40" d="M572.726 321.918h66.023v26.724h-66.023z" fill="#fff" fill-rule="evenodd"/><path data-name="Path 41" d="M512.991 409.163a15.7 15.7 0 01-13.6-7.86 15.7 15.7 0 0013.6 23.58h15.72v-15.72z" fill="#3ecc5f" fill-rule="evenodd"/><path data-name="Path 42" d="M583.714 326.143l55.035-3.439v-7.86a15.719 15.719 0 00-15.72-15.72H552.29l-1.965-3.4a2.269 2.269 0 00-3.93 0l-1.965 3.4-1.965-3.4a2.269 2.269 0 00-3.93 0l-1.965 3.4-1.965-3.4a2.269 2.269 0 00-3.93 0l-1.965 3.4h-.051l-3.256-3.255a2.268 2.268 0 00-3.795 1.017l-1.076 4.012-4.081-1.094a2.268 2.268 0 00-2.778 2.779l1.093 4.082-4.01 1.074a2.269 2.269 0 00-1.019 3.8l3.256 3.256v.05l-3.4 1.965a2.269 2.269 0 000 3.93l3.4 1.965-3.4 1.965a2.269 2.269 0 000 3.93l3.4 1.965-3.4 1.965a2.269 2.269 0 000 3.93l3.4 1.965-3.4 1.965a2.269 2.269 0 000 3.93l3.4 1.965-3.4 1.965a2.269 2.269 0 000 3.93l3.4 1.965-3.4 1.965a2.269 2.269 0 000 3.93l3.4 1.965-3.4 1.965a2.269 2.269 0 000 3.93l3.4 1.965-3.4 1.965a2.269 2.269 0 000 3.93l3.4 1.965-3.4 1.965a2.269 2.269 0 000 3.93l3.4 1.965-3.4 1.965a2.269 2.269 0 000 3.93l3.4 1.965-3.4 1.965a2.269 2.269 0 000 3.93l3.4 1.965-3.4 1.965a2.269 2.269 0 000 3.93l3.4 1.965a15.719 15.719 0 0015.72 15.72h94.313a15.719 15.719 0 0015.72-15.72v-62.881l-55.032-3.44a8.367 8.367 0 010-16.7" fill="#3ecc5f" fill-rule="evenodd"/><path data-name="Path 43" d="M607.309 424.883h23.58v-31.44h-23.58z" fill="#3ecc5f" fill-rule="evenodd"/><path data-name="Path 44" d="M646.609 405.233a3.91 3.91 0 00-.5.05c-.03-.118-.058-.237-.091-.354a3.925 3.925 0 10-3.884-6.741q-.13-.133-.263-.264a3.923 3.923 0 10-6.75-3.887c-.116-.033-.233-.061-.35-.09a3.932 3.932 0 10-7.759 0c-.116.03-.233.057-.35.09a3.925 3.925 0 10-6.75 3.887 15.712 15.712 0 1026.2 15.119 3.921 3.921 0 10.5-7.81" fill="#44d860" fill-rule="evenodd"/><path data-name="Path 45" d="M615.169 377.723h23.58v-15.72h-23.58z" fill="#3ecc5f" fill-rule="evenodd"/><path data-name="Path 46" d="M646.609 371.828a1.965 1.965 0 000-3.93 2.024 2.024 0 00-.251.025c-.016-.059-.029-.118-.046-.177a1.966 1.966 0 00-.757-3.778 1.944 1.944 0 00-1.185.407q-.065-.067-.132-.132a1.944 1.944 0 00.4-1.174 1.965 1.965 0 00-3.773-.769 7.86 7.86 0 100 15.127 1.965 1.965 0 003.773-.769 1.944 1.944 0 00-.4-1.174q.067-.065.132-.132a1.944 1.944 0 001.185.407 1.965 1.965 0 00.757-3.778l.046-.177a2.024 2.024 0 00.251.025" fill="#44d860" fill-rule="evenodd"/><path data-name="Path 47" d="M544.431 324.669a1.965 1.965 0 01-1.965-1.965 5.895 5.895 0 00-11.79 0 1.965 1.965 0 01-3.93 0 9.825 9.825 0 0119.65 0 1.965 1.965 0 01-1.965 1.965" fill-rule="evenodd"/><path data-name="Path 48" d="M575.87 424.882h47.159a15.719 15.719 0 0015.72-15.72v-55.019H591.59a15.719 15.719 0 00-15.72 15.72z" fill="#ffff50" fill-rule="evenodd"/><path data-name="Path 49" d="M626.975 378.509h-39.331a.786.786 0 110-1.572h39.331a.786.786 0 010 1.572m0 15.72h-39.331a.786.786 0 110-1.572h39.331a.786.786 0 010 1.572m0 15.72h-39.331a.786.786 0 110-1.572h39.331a.786.786 0 010 1.572m0-39.153h-39.331a.786.786 0 110-1.572h39.331a.786.786 0 010 1.572m0 15.574h-39.331a.786.786 0 110-1.572h39.331a.786.786 0 010 1.572m0 15.72h-39.331a.786.786 0 110-1.572h39.331a.786.786 0 010 1.572m11.774-72.618h-.027c-2.429.083-3.578 2.512-4.592 4.655-1.058 2.24-1.876 3.7-3.217 3.652-1.485-.053-2.334-1.731-3.233-3.506-1.033-2.039-2.212-4.351-4.687-4.265-2.394.082-3.547 2.2-4.564 4.061-1.082 1.987-1.819 3.2-3.239 3.139-1.515-.055-2.319-1.419-3.251-3-1.038-1.757-2.238-3.733-4.666-3.666-2.353.081-3.509 1.875-4.53 3.458-1.079 1.674-1.835 2.694-3.274 2.634-1.551-.055-2.352-1.187-3.278-2.5-1.041-1.472-2.213-3.138-4.633-3.057-2.3.079-3.458 1.548-4.477 2.844-.968 1.229-1.724 2.2-3.324 2.141a.787.787 0 00-.057 1.572c2.371.079 3.572-1.415 4.615-2.741.925-1.176 1.724-2.191 3.3-2.244 1.514-.064 2.224.876 3.3 2.393 1.019 1.442 2.176 3.076 4.5 3.16 2.439.082 3.612-1.741 4.651-3.354.929-1.441 1.731-2.686 3.262-2.738 1.409-.053 2.176 1.061 3.258 2.893 1.019 1.727 2.174 3.683 4.549 3.77 2.456.085 3.642-2.059 4.676-3.957.9-1.641 1.74-3.191 3.237-3.243 1.409-.033 2.144 1.254 3.231 3.4 1.016 2.007 2.167 4.28 4.578 4.367h.133c2.408 0 3.551-2.417 4.563-4.554.9-1.894 1.743-3.678 3.2-3.752z" fill-rule="evenodd"/><path data-name="Path 50" d="M560.15 424.883h31.44v-31.44h-31.44z" fill="#3ecc5f" fill-rule="evenodd"/><g data-name="Group 8" transform="rotate(-14.98 1653.755 -2006.488)"><rect data-name="Rectangle 3" width="66.433" height="26.226" rx="2" fill="#d8d8d8"/><g data-name="Group 2" transform="translate(1.101 16.565)" fill="#4a4a4a"><rect data-name="Rectangle 4" width="3.838" height="3.838" rx="1" transform="translate(12.081)"/><rect data-name="Rectangle 5" width="3.838" height="3.838" rx="1" transform="translate(16.63)"/><rect data-name="Rectangle 6" width="3.838" height="3.838" rx="1" transform="translate(21.178)"/><rect data-name="Rectangle 7" width="3.838" height="3.838" rx="1" transform="translate(25.727)"/><rect data-name="Rectangle 8" width="3.838" height="3.838" rx="1" transform="translate(30.275)"/><rect data-name="Rectangle 9" width="3.838" height="3.838" rx="1" transform="translate(34.824)"/><rect data-name="Rectangle 10" width="3.838" height="3.838" rx="1" transform="translate(39.373)"/><rect data-name="Rectangle 11" width="3.838" height="3.838" rx="1" transform="translate(43.921)"/><rect data-name="Rectangle 12" width="3.838" height="3.838" rx="1" transform="translate(48.47)"/><path data-name="Path 51" d="M.786 0h9.657a.786.786 0 01.786.786v2.266a.786.786 0 01-.786.786H.786A.786.786 0 010 3.052V.786A.786.786 0 01.786 0zm53.16 0H63.6a.786.786 0 01.786.786v2.266a.786.786 0 01-.786.786h-9.655a.786.786 0 01-.786-.786V.786A.786.786 0 0153.945 0z" fill-rule="evenodd"/></g><g data-name="Group 3" transform="translate(1.101 7.38)" fill="#4a4a4a"><path data-name="Path 52" d="M.786 0h3.686a.786.786 0 01.786.786v2.265a.786.786 0 01-.786.786H.786A.786.786 0 010 3.051V.786A.786.786 0 01.786 0z" fill-rule="evenodd"/><rect data-name="Rectangle 13" width="3.838" height="3.838" rx="1" transform="translate(5.97)"/><rect data-name="Rectangle 14" width="3.838" height="3.838" rx="1" transform="translate(10.518)"/><rect data-name="Rectangle 15" width="3.838" height="3.838" rx="1" transform="translate(15.067)"/><rect data-name="Rectangle 16" width="3.838" height="3.838" rx="1" transform="translate(19.615)"/><rect data-name="Rectangle 17" width="3.838" height="3.838" rx="1" transform="translate(24.164)"/><rect data-name="Rectangle 18" width="3.838" height="3.838" rx="1" transform="translate(28.712)"/><rect data-name="Rectangle 19" width="3.838" height="3.838" rx="1" transform="translate(33.261)"/><rect data-name="Rectangle 20" width="3.838" height="3.838" rx="1" transform="translate(37.809)"/><rect data-name="Rectangle 21" width="3.838" height="3.838" rx="1" transform="translate(42.357)"/><rect data-name="Rectangle 22" width="3.838" height="3.838" rx="1" transform="translate(46.905)"/><rect data-name="Rectangle 23" width="3.838" height="3.838" rx="1" transform="translate(51.454)"/><rect data-name="Rectangle 24" width="3.838" height="3.838" rx="1" transform="translate(56.002)"/><rect data-name="Rectangle 25" width="3.838" height="3.838" rx="1" transform="translate(60.551)"/></g><g data-name="Group 4" transform="rotate(180 32.745 3.433)" fill="#4a4a4a"><path data-name="Path 53" d="M.786 0h3.687a.786.786 0 01.786.786v2.266a.786.786 0 01-.786.786H.786A.786.786 0 010 3.052V.786A.786.786 0 01.786 0z" fill-rule="evenodd"/><rect data-name="Rectangle 26" width="3.838" height="3.838" rx="1" transform="translate(5.97)"/><rect data-name="Rectangle 27" width="3.838" height="3.838" rx="1" transform="translate(10.518)"/><rect data-name="Rectangle 28" width="3.838" height="3.838" rx="1" transform="translate(15.067)"/><rect data-name="Rectangle 29" width="3.838" height="3.838" rx="1" transform="translate(19.615)"/><rect data-name="Rectangle 30" width="3.838" height="3.838" rx="1" transform="translate(24.164)"/><rect data-name="Rectangle 31" width="3.838" height="3.838" rx="1" transform="translate(28.712)"/><rect data-name="Rectangle 32" width="3.838" height="3.838" rx="1" transform="translate(33.261)"/><rect data-name="Rectangle 33" width="3.838" height="3.838" rx="1" transform="translate(37.809)"/><rect data-name="Rectangle 34" width="3.838" height="3.838" rx="1" transform="translate(42.358)"/><rect data-name="Rectangle 35" width="3.838" height="3.838" rx="1" transform="translate(46.906)"/><rect data-name="Rectangle 36" width="3.838" height="3.838" rx="1" transform="translate(51.455)"/><rect data-name="Rectangle 37" width="3.838" height="3.838" rx="1" transform="translate(56.003)"/><rect data-name="Rectangle 38" width="3.838" height="3.838" rx="1" transform="translate(60.551)"/><rect data-name="Rectangle 39" width="3.838" height="3.838" rx="1" transform="translate(5.97)"/><rect data-name="Rectangle 40" width="3.838" height="3.838" rx="1" transform="translate(10.518)"/><rect data-name="Rectangle 41" width="3.838" height="3.838" rx="1" transform="translate(15.067)"/><rect data-name="Rectangle 42" width="3.838" height="3.838" rx="1" transform="translate(19.615)"/><rect data-name="Rectangle 43" width="3.838" height="3.838" rx="1" transform="translate(24.164)"/><rect data-name="Rectangle 44" width="3.838" height="3.838" rx="1" transform="translate(28.712)"/><rect data-name="Rectangle 45" width="3.838" height="3.838" rx="1" transform="translate(33.261)"/><rect data-name="Rectangle 46" width="3.838" height="3.838" rx="1" transform="translate(37.809)"/><rect data-name="Rectangle 47" width="3.838" height="3.838" rx="1" transform="translate(42.358)"/><rect data-name="Rectangle 48" width="3.838" height="3.838" rx="1" transform="translate(46.906)"/><rect data-name="Rectangle 49" width="3.838" height="3.838" rx="1" transform="translate(51.455)"/><rect data-name="Rectangle 50" width="3.838" height="3.838" rx="1" transform="translate(56.003)"/><rect data-name="Rectangle 51" width="3.838" height="3.838" rx="1" transform="translate(60.551)"/></g><g data-name="Group 6" fill="#4a4a4a"><path data-name="Path 54" d="M1.887 11.928h5.25a.786.786 0 01.786.786v2.266a.786.786 0 01-.786.786h-5.25a.786.786 0 01-.786-.786v-2.265a.786.786 0 01.786-.787z" fill-rule="evenodd"/><g data-name="Group 5" transform="translate(8.776 11.928)"><rect data-name="Rectangle 52" width="3.838" height="3.838" rx="1"/><rect data-name="Rectangle 53" width="3.838" height="3.838" rx="1" transform="translate(4.549)"/><rect data-name="Rectangle 54" width="3.838" height="3.838" rx="1" transform="translate(9.097)"/><rect data-name="Rectangle 55" width="3.838" height="3.838" rx="1" transform="translate(13.646)"/><rect data-name="Rectangle 56" width="3.838" height="3.838" rx="1" transform="translate(18.194)"/><rect data-name="Rectangle 57" width="3.838" height="3.838" rx="1" transform="translate(22.743)"/><rect data-name="Rectangle 58" width="3.838" height="3.838" rx="1" transform="translate(27.291)"/><rect data-name="Rectangle 59" width="3.838" height="3.838" rx="1" transform="translate(31.839)"/><rect data-name="Rectangle 60" width="3.838" height="3.838" rx="1" transform="translate(36.387)"/><rect data-name="Rectangle 61" width="3.838" height="3.838" rx="1" transform="translate(40.936)"/><rect data-name="Rectangle 62" width="3.838" height="3.838" rx="1" transform="translate(45.484)"/></g><path data-name="Path 55" d="M59.738 11.928h4.966a.786.786 0 01.786.786v2.266a.786.786 0 01-.786.786h-4.967a.786.786 0 01-.786-.786v-2.265a.786.786 0 01.786-.787z" fill-rule="evenodd"/></g><g data-name="Group 7" transform="translate(1.101 21.31)" fill="#4a4a4a"><rect data-name="Rectangle 63" width="3.838" height="3.838" rx="1"/><rect data-name="Rectangle 64" width="3.838" height="3.838" rx="1" transform="translate(4.549)"/><rect data-name="Rectangle 65" width="3.838" height="3.838" rx="1" transform="translate(9.097)"/><rect data-name="Rectangle 66" width="3.838" height="3.838" rx="1" transform="translate(13.646)"/><path data-name="Path 56" d="M18.979 0h21.882a.786.786 0 01.786.786v2.267a.786.786 0 01-.786.786H18.979a.786.786 0 01-.786-.786V.786A.786.786 0 0118.979 0zm24.164 0h2.835a.786.786 0 01.786.786v2.267a.786.786 0 01-.786.786h-2.835a.786.786 0 01-.786-.786V.786A.786.786 0 0143.143 0z" fill-rule="evenodd"/><rect data-name="Rectangle 67" width="3.838" height="3.838" rx="1" transform="translate(47.474)"/><rect data-name="Rectangle 68" width="3.838" height="3.838" rx="1" transform="translate(52.023)"/><rect data-name="Rectangle 69" width="3.838" height="3.838" rx="1" transform="translate(60.551)"/><path data-name="Path 57" d="M56.286 1.635V.786A.786.786 0 0157.072 0h2.266a.786.786 0 01.786.786v.849z"/><path data-name="Path 58" d="M60.125 2.203v.849a.786.786 0 01-.786.786h-2.266a.786.786 0 01-.786-.786v-.849z"/></g><rect data-name="Rectangle 70" width="63.963" height="1.706" rx=".853" transform="translate(1.385 .842)" fill="#4a4a4a"/><rect data-name="Rectangle 71" width="3.586" height="1.137" rx=".569" transform="translate(2.949 1.126)" fill="#d8d8d8" opacity=".136"/><rect data-name="Rectangle 72" width="3.586" height="1.137" rx=".569" transform="translate(7.857 1.126)" fill="#d8d8d8" opacity=".136"/><rect data-name="Rectangle 73" width="3.586" height="1.137" rx=".569" transform="translate(11.633 1.126)" fill="#d8d8d8" opacity=".136"/><rect data-name="Rectangle 74" width="3.586" height="1.137" rx=".569" transform="translate(15.408 1.126)" fill="#d8d8d8" opacity=".136"/><rect data-name="Rectangle 75" width="3.586" height="1.137" rx=".569" transform="translate(19.184 1.126)" fill="#d8d8d8" opacity=".136"/><rect data-name="Rectangle 76" width="3.586" height="1.137" rx=".569" transform="translate(23.903 1.126)" fill="#d8d8d8" opacity=".136"/><rect data-name="Rectangle 77" width="3.586" height="1.137" rx=".569" transform="translate(27.678 1.126)" fill="#d8d8d8" opacity=".136"/><rect data-name="Rectangle 78" width="3.586" height="1.137" rx=".569" transform="translate(31.454 1.126)" fill="#d8d8d8" opacity=".136"/><rect data-name="Rectangle 79" width="3.586" height="1.137" rx=".569" transform="translate(35.229 1.126)" fill="#d8d8d8" opacity=".136"/><rect data-name="Rectangle 80" width="3.586" height="1.137" rx=".569" transform="translate(39.949 1.126)" fill="#d8d8d8" opacity=".136"/><rect data-name="Rectangle 81" width="3.586" height="1.137" rx=".569" transform="translate(43.724 1.126)" fill="#d8d8d8" opacity=".136"/><rect data-name="Rectangle 82" width="3.586" height="1.137" rx=".569" transform="translate(47.5 1.126)" fill="#d8d8d8" opacity=".136"/><rect data-name="Rectangle 83" width="3.586" height="1.137" rx=".569" transform="translate(52.219 1.126)" fill="#d8d8d8" opacity=".136"/><rect data-name="Rectangle 84" width="3.586" height="1.137" rx=".569" transform="translate(55.994 1.126)" fill="#d8d8d8" opacity=".136"/><rect data-name="Rectangle 85" width="3.586" height="1.137" rx=".569" transform="translate(59.77 1.126)" fill="#d8d8d8" opacity=".136"/></g><path data-name="Path 59" d="M607.31 405.233a3.91 3.91 0 00-.5.05c-.03-.118-.058-.237-.091-.354a3.925 3.925 0 10-3.884-6.741q-.13-.133-.263-.264a3.923 3.923 0 10-6.75-3.887c-.116-.033-.233-.061-.35-.09a3.932 3.932 0 10-7.759 0c-.116.03-.233.057-.35.09a3.925 3.925 0 10-6.75 3.887 15.712 15.712 0 1026.2 15.119 3.921 3.921 0 10.5-7.81" fill="#44d860" fill-rule="evenodd"/><path data-name="Path 60" d="M560.15 377.723h31.44v-15.72h-31.44z" fill="#3ecc5f" fill-rule="evenodd"/><path data-name="Path 61" d="M599.45 371.828a1.965 1.965 0 100-3.93 2.022 2.022 0 00-.251.025c-.016-.059-.029-.118-.046-.177a1.966 1.966 0 00-.757-3.778 1.944 1.944 0 00-1.185.407q-.065-.067-.132-.132a1.944 1.944 0 00.4-1.174 1.965 1.965 0 00-3.773-.769 7.86 7.86 0 100 15.127 1.965 1.965 0 003.773-.769 1.944 1.944 0 00-.4-1.174q.067-.065.132-.132a1.944 1.944 0 001.185.407 1.965 1.965 0 00.757-3.778l.046-.177a2.022 2.022 0 00.251.025" fill="#44d860" fill-rule="evenodd"/><path data-name="Path 62" d="M607.309 313.861a2.134 2.134 0 01-.385-.039 1.981 1.981 0 01-.369-.11 2.041 2.041 0 01-.339-.181 2.978 2.978 0 01-.3-.244 2.3 2.3 0 01-.243-.3 1.94 1.94 0 01-.33-1.093 2.135 2.135 0 01.039-.385 2.267 2.267 0 01.109-.369 2.067 2.067 0 01.182-.338 1.894 1.894 0 01.542-.542 2.041 2.041 0 01.339-.181 1.98 1.98 0 01.369-.11 1.818 1.818 0 01.77 0 1.909 1.909 0 01.707.291 2.978 2.978 0 01.3.244 2.891 2.891 0 01.244.3 2 2 0 01.181.338 2.06 2.06 0 01.149.755 1.992 1.992 0 01-.574 1.391 2.977 2.977 0 01-.3.244 1.958 1.958 0 01-1.093.33m15.72-.982a2.006 2.006 0 01-1.392-.574 2.994 2.994 0 01-.243-.3 1.94 1.94 0 01-.33-1.093 2.006 2.006 0 01.573-1.391 2.977 2.977 0 01.3-.244 2.042 2.042 0 01.339-.181 1.98 1.98 0 01.369-.11 1.818 1.818 0 01.77 0 1.909 1.909 0 01.707.291 2.977 2.977 0 01.3.244 2.007 2.007 0 01.574 1.391 2.207 2.207 0 01-.039.385 2 2 0 01-.11.369 2.793 2.793 0 01-.181.338 2.892 2.892 0 01-.244.3 2.976 2.976 0 01-.3.244 1.958 1.958 0 01-1.093.33" fill-rule="evenodd"/></g></svg>