<svg xmlns="http://www.w3.org/2000/svg" width="1088" height="687.962" viewBox="0 0 1088 687.962"><g data-name="Group 12"><g data-name="Group 11"><path data-name="Path 83" d="M961.81 454.442c-5.27 45.15-16.22 81.4-31.25 110.31-20 38.52-54.21 54.04-84.77 70.28a193.275 193.275 0 0 1-27.46 11.94c-55.61 19.3-117.85 14.18-166.74 3.99a657.282 657.282 0 0 0-104.09-13.16q-14.97-.675-29.97-.67c-15.42.02-293.07 5.29-360.67-131.57-16.69-33.76-28.13-75-32.24-125.27-11.63-142.12 52.29-235.46 134.74-296.47 155.97-115.41 369.76-110.57 523.43 7.88 102.36 78.9 198.2 198.31 179.02 362.74z" fill="#3f3d56"/><path data-name="Path 84" d="M930.56 564.752c-20 38.52-47.21 64.04-77.77 80.28a193.272 193.272 0 0 1-27.46 11.94c-55.61 19.3-117.85 14.18-166.74 3.99a657.3 657.3 0 0 0-104.09-13.16q-14.97-.675-29.97-.67-23.13.03-46.25 1.72c-100.17 7.36-253.82-6.43-321.42-143.29L326 177.962l62.95 161.619 20.09 51.59 55.37-75.98L493 275.962l130.2 149.27 36.8-81.27 254.78 207.919 14.21 11.59z" fill="#f2f2f2"/><path data-name="Path 85" d="M302 282.962l26-57 36 83-31-60z" opacity=".1"/><path data-name="Path 86" d="M554.5 647.802q-14.97-.675-29.97-.67l-115.49-255.96z" opacity=".1"/><path data-name="Path 87" d="M464.411 315.191L493 292.962l130 150-132-128z" opacity=".1"/><path data-name="Path 88" d="M852.79 645.032a193.265 193.265 0 0 1-27.46 11.94L623.2 425.232z" opacity=".1"/><circle data-name="Ellipse 11" cx="3" cy="3" r="3" transform="translate(479 98.962)" fill="#f2f2f2"/><circle data-name="Ellipse 12" cx="3" cy="3" r="3" transform="translate(396 201.962)" fill="#f2f2f2"/><circle data-name="Ellipse 13" cx="2" cy="2" r="2" transform="translate(600 220.962)" fill="#f2f2f2"/><circle data-name="Ellipse 14" cx="2" cy="2" r="2" transform="translate(180 265.962)" fill="#f2f2f2"/><circle data-name="Ellipse 15" cx="2" cy="2" r="2" transform="translate(612 96.962)" fill="#f2f2f2"/><circle data-name="Ellipse 16" cx="2" cy="2" r="2" transform="translate(736 192.962)" fill="#f2f2f2"/><circle data-name="Ellipse 17" cx="2" cy="2" r="2" transform="translate(858 344.962)" fill="#f2f2f2"/><path data-name="Path 89" d="M306 121.222h-2.76v-2.76h-1.48v2.76H299v1.478h2.76v2.759h1.48V122.7H306z" fill="#f2f2f2"/><path data-name="Path 90" d="M848 424.222h-2.76v-2.76h-1.48v2.76H841v1.478h2.76v2.759h1.48V425.7H848z" fill="#f2f2f2"/><path data-name="Path 91" d="M1088 613.962c0 16.569-243.557 74-544 74s-544-57.431-544-74 243.557 14 544 14 544-30.568 544-14z" fill="#3f3d56"/><path data-name="Path 92" d="M1088 613.962c0 16.569-243.557 74-544 74s-544-57.431-544-74 243.557 14 544 14 544-30.568 544-14z" opacity=".1"/><ellipse data-name="Ellipse 18" cx="544" cy="30" rx="544" ry="30" transform="translate(0 583.962)" fill="#3f3d56"/><path data-name="Path 93" d="M568 571.962c0 33.137-14.775 24-33 24s-33 9.137-33-24 33-96 33-96 33 62.863 33 96z" fill="#ff6584"/><path data-name="Path 94" d="M550 584.641c0 15.062-6.716 10.909-15 10.909s-15 4.153-15-10.909 15-43.636 15-43.636 15 28.576 15 43.636z" opacity=".1"/><rect data-name="Rectangle 97" width="92" height="18" rx="9" transform="translate(489 604.962)" fill="#2f2e41"/><rect data-name="Rectangle 98" width="92" height="18" rx="9" transform="translate(489 586.962)" fill="#2f2e41"/><path data-name="Path 95" d="M137 490.528c0 55.343 34.719 100.126 77.626 100.126" fill="#3f3d56"/><path data-name="Path 96" d="M214.626 590.654c0-55.965 38.745-101.251 86.626-101.251" fill="#6c63ff"/><path data-name="Path 97" d="M165.125 495.545c0 52.57 22.14 95.109 49.5 95.109" fill="#6c63ff"/><path data-name="Path 98" d="M214.626 590.654c0-71.511 44.783-129.377 100.126-129.377" fill="#3f3d56"/><path data-name="Path 99" d="M198.3 591.36s11.009-.339 14.326-2.7 16.934-5.183 17.757-1.395 16.544 18.844 4.115 18.945-28.879-1.936-32.19-3.953-4.008-10.897-4.008-10.897z" fill="#a8a8a8"/><path data-name="Path 100" d="M234.716 604.89c-12.429.1-28.879-1.936-32.19-3.953-2.522-1.536-3.527-7.048-3.863-9.591l-.368.014s.7 8.879 4.009 10.9 19.761 4.053 32.19 3.953c3.588-.029 4.827-1.305 4.759-3.2-.498 1.142-1.867 1.855-4.537 1.877z" opacity=".2"/><path data-name="Path 101" d="M721.429 527.062c0 38.029 23.857 68.8 53.341 68.8" fill="#3f3d56"/><path data-name="Path 102" d="M774.769 595.863c0-38.456 26.623-69.575 59.525-69.575" fill="#6c63ff"/><path data-name="Path 103" d="M740.755 530.509c0 36.124 15.213 65.354 34.014 65.354" fill="#6c63ff"/><path data-name="Path 104" d="M774.769 595.863c0-49.139 30.773-88.9 68.8-88.9" fill="#3f3d56"/><path data-name="Path 105" d="M763.548 596.348s7.565-.233 9.844-1.856 11.636-3.562 12.2-.958 11.368 12.949 2.828 13.018-19.844-1.33-22.119-2.716-2.753-7.488-2.753-7.488z" fill="#a8a8a8"/><path data-name="Path 106" d="M788.574 605.645c-8.54.069-19.844-1.33-22.119-2.716-1.733-1.056-2.423-4.843-2.654-6.59l-.253.01s.479 6.1 2.755 7.487 13.579 2.785 22.119 2.716c2.465-.02 3.317-.9 3.27-2.2-.343.788-1.283 1.278-3.118 1.293z" opacity=".2"/><path data-name="Path 107" d="M893.813 618.699s11.36-1.729 14.5-4.591 16.89-7.488 18.217-3.667 19.494 17.447 6.633 19.107-30.153 1.609-33.835-.065-5.515-10.784-5.515-10.784z" fill="#a8a8a8"/><path data-name="Path 108" d="M933.228 628.154c-12.86 1.659-30.153 1.609-33.835-.065-2.8-1.275-4.535-6.858-5.2-9.45l-.379.061s1.833 9.109 5.516 10.783 20.975 1.725 33.835.065c3.712-.479 4.836-1.956 4.529-3.906-.375 1.246-1.703 2.156-4.466 2.512z" opacity=".2"/><path data-name="Path 109" d="M614.26 617.881s9.587-1.459 12.237-3.875 14.255-6.32 15.374-3.095 16.452 14.725 5.6 16.125-25.448 1.358-28.555-.055-4.656-9.1-4.656-9.1z" fill="#a8a8a8"/><path data-name="Path 110" d="M647.524 625.856c-10.853 1.4-25.448 1.358-28.555-.055-2.367-1.076-3.827-5.788-4.39-7.976l-.32.051s1.547 7.687 4.655 9.1 17.7 1.456 28.555.055c3.133-.4 4.081-1.651 3.822-3.3-.314 1.057-1.435 1.825-3.767 2.125z" opacity=".2"/><path data-name="Path 111" d="M122.389 613.09s7.463-1.136 9.527-3.016 11.1-4.92 11.969-2.409 12.808 11.463 4.358 12.553-19.811 1.057-22.23-.043-3.624-7.085-3.624-7.085z" fill="#a8a8a8"/><path data-name="Path 112" d="M148.285 619.302c-8.449 1.09-19.811 1.057-22.23-.043-1.842-.838-2.979-4.506-3.417-6.209l-.249.04s1.2 5.984 3.624 7.085 13.781 1.133 22.23.043c2.439-.315 3.177-1.285 2.976-2.566-.246.818-1.119 1.416-2.934 1.65z" opacity=".2"/><path data-name="Path 113" d="M383.7 601.318c0 30.22-42.124 20.873-93.7 20.873s-93.074 9.347-93.074-20.873 42.118-36.793 93.694-36.793 93.08 6.573 93.08 36.793z" opacity=".1"/><path data-name="Path 114" d="M383.7 593.881c0 30.22-42.124 20.873-93.7 20.873s-93.074 9.347-93.074-20.873 42.114-36.8 93.69-36.8 93.084 6.576 93.084 36.8z" fill="#3f3d56"/></g><path data-name="Path 40" d="M360.175 475.732h91.791v37.153h-91.791z" fill="#fff" fill-rule="evenodd"/><path data-name="Path 41" d="M277.126 597.026a21.828 21.828 0 0 1-18.908-10.927 21.829 21.829 0 0 0 18.908 32.782h21.855v-21.855z" fill="#3ecc5f" fill-rule="evenodd"/><path data-name="Path 42" d="M375.451 481.607l76.514-4.782v-10.928a21.854 21.854 0 0 0-21.855-21.855h-98.347l-2.732-4.735a3.154 3.154 0 0 0-5.464 0l-2.732 4.732-2.732-4.732a3.154 3.154 0 0 0-5.464 0l-2.732 4.732-2.731-4.732a3.154 3.154 0 0 0-5.464 0l-2.732 4.735h-.071l-4.526-4.525a3.153 3.153 0 0 0-5.276 1.414l-1.5 5.577-5.674-1.521a3.154 3.154 0 0 0-3.863 3.864l1.52 5.679-5.575 1.494a3.155 3.155 0 0 0-1.416 5.278l4.526 4.526v.07l-4.735 2.731a3.154 3.154 0 0 0 0 5.464l4.732 2.732-4.732 2.732a3.154 3.154 0 0 0 0 5.464l4.732 2.732-4.732 2.731a3.154 3.154 0 0 0 0 5.464l4.732 2.732-4.732 2.727a3.154 3.154 0 0 0 0 5.464l4.735 2.736-4.735 2.732a3.154 3.154 0 0 0 0 5.464l4.732 2.732-4.732 2.732a3.154 3.154 0 0 0 0 5.464l4.732 2.732-4.732 2.731a3.154 3.154 0 0 0 0 5.464l4.732 2.732-4.732 2.732a3.154 3.154 0 0 0 0 5.464l4.732 2.732-4.732 2.731a3.154 3.154 0 0 0 0 5.464l4.732 2.732-4.732 2.731a3.154 3.154 0 0 0 0 5.464l4.732 2.732-4.732 2.735a3.154 3.154 0 0 0 0 5.464l4.732 2.732-4.732 2.728a3.154 3.154 0 0 0 0 5.464l4.732 2.732a21.854 21.854 0 0 0 21.858 21.855h131.13a21.854 21.854 0 0 0 21.855-21.855v-87.42l-76.514-4.782a11.632 11.632 0 0 1 0-23.219" fill="#3ecc5f" fill-rule="evenodd"/><path data-name="Path 43" d="M408.255 618.882h32.782v-43.71h-32.782z" fill="#3ecc5f" fill-rule="evenodd"/><path data-name="Path 44" d="M462.893 591.563a5.438 5.438 0 0 0-.7.07c-.042-.164-.081-.329-.127-.493a5.457 5.457 0 1 0-5.4-9.372q-.181-.185-.366-.367a5.454 5.454 0 1 0-9.384-5.4c-.162-.046-.325-.084-.486-.126a5.467 5.467 0 1 0-10.788 0c-.162.042-.325.08-.486.126a5.457 5.457 0 1 0-9.384 5.4 21.843 21.843 0 1 0 36.421 21.02 5.452 5.452 0 1 0 .7-10.858" fill="#44d860" fill-rule="evenodd"/><path data-name="Path 45" d="M419.183 553.317h32.782v-21.855h-32.782z" fill="#3ecc5f" fill-rule="evenodd"/><path data-name="Path 46" d="M462.893 545.121a2.732 2.732 0 1 0 0-5.464 2.811 2.811 0 0 0-.349.035c-.022-.082-.04-.164-.063-.246a2.733 2.733 0 0 0-1.052-5.253 2.7 2.7 0 0 0-1.648.566q-.09-.093-.184-.184a2.7 2.7 0 0 0 .553-1.633 2.732 2.732 0 0 0-5.245-1.07 10.928 10.928 0 1 0 0 21.031 2.732 2.732 0 0 0 5.245-1.07 2.7 2.7 0 0 0-.553-1.633q.093-.09.184-.184a2.7 2.7 0 0 0 1.648.566 2.732 2.732 0 0 0 1.052-5.253c.023-.081.042-.164.063-.246a2.814 2.814 0 0 0 .349.035" fill="#44d860" fill-rule="evenodd"/><path data-name="Path 47" d="M320.836 479.556a2.732 2.732 0 0 1-2.732-2.732 8.2 8.2 0 0 0-16.391 0 2.732 2.732 0 0 1-5.464 0 13.66 13.66 0 0 1 27.319 0 2.732 2.732 0 0 1-2.732 2.732" fill-rule="evenodd"/><path data-name="Path 48" d="M364.546 618.881h65.565a21.854 21.854 0 0 0 21.855-21.855v-76.492h-65.565a21.854 21.854 0 0 0-21.855 21.855z" fill="#ffff50" fill-rule="evenodd"/><path data-name="Path 49" d="M435.596 554.41h-54.681a1.093 1.093 0 1 1 0-2.185h54.681a1.093 1.093 0 0 1 0 2.185m0 21.855h-54.681a1.093 1.093 0 1 1 0-2.186h54.681a1.093 1.093 0 0 1 0 2.186m0 21.855h-54.681a1.093 1.093 0 1 1 0-2.185h54.681a1.093 1.093 0 0 1 0 2.185m0-54.434h-54.681a1.093 1.093 0 1 1 0-2.185h54.681a1.093 1.093 0 0 1 0 2.185m0 21.652h-54.681a1.093 1.093 0 1 1 0-2.186h54.681a1.093 1.093 0 0 1 0 2.186m0 21.855h-54.681a1.093 1.093 0 1 1 0-2.186h54.681a1.093 1.093 0 0 1 0 2.186m16.369-100.959c-.013 0-.024-.007-.037-.005-3.377.115-4.974 3.492-6.384 6.472-1.471 3.114-2.608 5.139-4.473 5.078-2.064-.074-3.244-2.406-4.494-4.874-1.436-2.835-3.075-6.049-6.516-5.929-3.329.114-4.932 3.053-6.346 5.646-1.5 2.762-2.529 4.442-4.5 4.364-2.106-.076-3.225-1.972-4.52-4.167-1.444-2.443-3.112-5.191-6.487-5.1-3.272.113-4.879 2.606-6.3 4.808-1.5 2.328-2.552 3.746-4.551 3.662-2.156-.076-3.27-1.65-4.558-3.472-1.447-2.047-3.077-4.363-6.442-4.251-3.2.109-4.807 2.153-6.224 3.954-1.346 1.709-2.4 3.062-4.621 2.977a1.094 1.094 0 0 0-.079 2.186c3.3.11 4.967-1.967 6.417-3.81 1.286-1.635 2.4-3.045 4.582-3.12 2.1-.09 3.091 1.218 4.584 3.327 1.417 2 3.026 4.277 6.263 4.394 3.391.114 5.022-2.42 6.467-4.663 1.292-2 2.406-3.734 4.535-3.807 1.959-.073 3.026 1.475 4.529 4.022 1.417 2.4 3.023 5.121 6.324 5.241 3.415.118 5.064-2.863 6.5-5.5 1.245-2.282 2.419-4.437 4.5-4.509 1.959-.046 2.981 1.743 4.492 4.732 1.412 2.79 3.013 5.95 6.365 6.071h.185c3.348 0 4.937-3.36 6.343-6.331 1.245-2.634 2.423-5.114 4.444-5.216z" fill-rule="evenodd"/><path data-name="Path 50" d="M342.691 618.882h43.71v-43.71h-43.71z" fill="#3ecc5f" fill-rule="evenodd"/><g data-name="Group 8" transform="rotate(-14.98 2188.845 -1120.376)"><rect data-name="Rectangle 3" width="92.361" height="36.462" rx="2" fill="#d8d8d8"/><g data-name="Group 2" transform="translate(1.531 23.03)" fill="#4a4a4a"><rect data-name="Rectangle 4" width="5.336" height="5.336" rx="1" transform="translate(16.797)"/><rect data-name="Rectangle 5" width="5.336" height="5.336" rx="1" transform="translate(23.12)"/><rect data-name="Rectangle 6" width="5.336" height="5.336" rx="1" transform="translate(29.444)"/><rect data-name="Rectangle 7" width="5.336" height="5.336" rx="1" transform="translate(35.768)"/><rect data-name="Rectangle 8" width="5.336" height="5.336" rx="1" transform="translate(42.091)"/><rect data-name="Rectangle 9" width="5.336" height="5.336" rx="1" transform="translate(48.415)"/><rect data-name="Rectangle 10" width="5.336" height="5.336" rx="1" transform="translate(54.739)"/><rect data-name="Rectangle 11" width="5.336" height="5.336" rx="1" transform="translate(61.063)"/><rect data-name="Rectangle 12" width="5.336" height="5.336" rx="1" transform="translate(67.386)"/><path data-name="Path 51" d="M1.093 0h13.425a1.093 1.093 0 0 1 1.093 1.093v3.15a1.093 1.093 0 0 1-1.093 1.093H1.093A1.093 1.093 0 0 1 0 4.243v-3.15A1.093 1.093 0 0 1 1.093 0zM75 0h13.426a1.093 1.093 0 0 1 1.093 1.093v3.15a1.093 1.093 0 0 1-1.093 1.093H75a1.093 1.093 0 0 1-1.093-1.093v-3.15A1.093 1.093 0 0 1 75 0z" fill-rule="evenodd"/></g><g data-name="Group 3" transform="translate(1.531 10.261)" fill="#4a4a4a"><path data-name="Path 52" d="M1.093 0h5.125A1.093 1.093 0 0 1 7.31 1.093v3.149a1.093 1.093 0 0 1-1.092 1.093H1.093A1.093 1.093 0 0 1 0 4.242V1.093A1.093 1.093 0 0 1 1.093 0z" fill-rule="evenodd"/><rect data-name="Rectangle 13" width="5.336" height="5.336" rx="1" transform="translate(8.299)"/><rect data-name="Rectangle 14" width="5.336" height="5.336" rx="1" transform="translate(14.623)"/><rect data-name="Rectangle 15" width="5.336" height="5.336" rx="1" transform="translate(20.947)"/><rect data-name="Rectangle 16" width="5.336" height="5.336" rx="1" transform="translate(27.271)"/><rect data-name="Rectangle 17" width="5.336" height="5.336" rx="1" transform="translate(33.594)"/><rect data-name="Rectangle 18" width="5.336" height="5.336" rx="1" transform="translate(39.918)"/><rect data-name="Rectangle 19" width="5.336" height="5.336" rx="1" transform="translate(46.242)"/><rect data-name="Rectangle 20" width="5.336" height="5.336" rx="1" transform="translate(52.565)"/><rect data-name="Rectangle 21" width="5.336" height="5.336" rx="1" transform="translate(58.888)"/><rect data-name="Rectangle 22" width="5.336" height="5.336" rx="1" transform="translate(65.212)"/><rect data-name="Rectangle 23" width="5.336" height="5.336" rx="1" transform="translate(71.536)"/><rect data-name="Rectangle 24" width="5.336" height="5.336" rx="1" transform="translate(77.859)"/><rect data-name="Rectangle 25" width="5.336" height="5.336" rx="1" transform="translate(84.183)"/></g><g data-name="Group 4" transform="rotate(180 45.525 4.773)" fill="#4a4a4a"><path data-name="Path 53" d="M1.093 0h5.126a1.093 1.093 0 0 1 1.093 1.093v3.15a1.093 1.093 0 0 1-1.093 1.093H1.093A1.093 1.093 0 0 1 0 4.243v-3.15A1.093 1.093 0 0 1 1.093 0z" fill-rule="evenodd"/><rect data-name="Rectangle 26" width="5.336" height="5.336" rx="1" transform="translate(8.299)"/><rect data-name="Rectangle 27" width="5.336" height="5.336" rx="1" transform="translate(14.623)"/><rect data-name="Rectangle 28" width="5.336" height="5.336" rx="1" transform="translate(20.947)"/><rect data-name="Rectangle 29" width="5.336" height="5.336" rx="1" transform="translate(27.271)"/><rect data-name="Rectangle 30" width="5.336" height="5.336" rx="1" transform="translate(33.594)"/><rect data-name="Rectangle 31" width="5.336" height="5.336" rx="1" transform="translate(39.918)"/><rect data-name="Rectangle 32" width="5.336" height="5.336" rx="1" transform="translate(46.242)"/><rect data-name="Rectangle 33" width="5.336" height="5.336" rx="1" transform="translate(52.565)"/><rect data-name="Rectangle 34" width="5.336" height="5.336" rx="1" transform="translate(58.889)"/><rect data-name="Rectangle 35" width="5.336" height="5.336" rx="1" transform="translate(65.213)"/><rect data-name="Rectangle 36" width="5.336" height="5.336" rx="1" transform="translate(71.537)"/><rect data-name="Rectangle 37" width="5.336" height="5.336" rx="1" transform="translate(77.86)"/><rect data-name="Rectangle 38" width="5.336" height="5.336" rx="1" transform="translate(84.183)"/><rect data-name="Rectangle 39" width="5.336" height="5.336" rx="1" transform="translate(8.299)"/><rect data-name="Rectangle 40" width="5.336" height="5.336" rx="1" transform="translate(14.623)"/><rect data-name="Rectangle 41" width="5.336" height="5.336" rx="1" transform="translate(20.947)"/><rect data-name="Rectangle 42" width="5.336" height="5.336" rx="1" transform="translate(27.271)"/><rect data-name="Rectangle 43" width="5.336" height="5.336" rx="1" transform="translate(33.594)"/><rect data-name="Rectangle 44" width="5.336" height="5.336" rx="1" transform="translate(39.918)"/><rect data-name="Rectangle 45" width="5.336" height="5.336" rx="1" transform="translate(46.242)"/><rect data-name="Rectangle 46" width="5.336" height="5.336" rx="1" transform="translate(52.565)"/><rect data-name="Rectangle 47" width="5.336" height="5.336" rx="1" transform="translate(58.889)"/><rect data-name="Rectangle 48" width="5.336" height="5.336" rx="1" transform="translate(65.213)"/><rect data-name="Rectangle 49" width="5.336" height="5.336" rx="1" transform="translate(71.537)"/><rect data-name="Rectangle 50" width="5.336" height="5.336" rx="1" transform="translate(77.86)"/><rect data-name="Rectangle 51" width="5.336" height="5.336" rx="1" transform="translate(84.183)"/></g><g data-name="Group 6" fill="#4a4a4a"><path data-name="Path 54" d="M2.624 16.584h7.3a1.093 1.093 0 0 1 1.092 1.093v3.15a1.093 1.093 0 0 1-1.093 1.093h-7.3a1.093 1.093 0 0 1-1.092-1.093v-3.149a1.093 1.093 0 0 1 1.093-1.094z" fill-rule="evenodd"/><g data-name="Group 5" transform="translate(12.202 16.584)"><rect data-name="Rectangle 52" width="5.336" height="5.336" rx="1"/><rect data-name="Rectangle 53" width="5.336" height="5.336" rx="1" transform="translate(6.324)"/><rect data-name="Rectangle 54" width="5.336" height="5.336" rx="1" transform="translate(12.647)"/><rect data-name="Rectangle 55" width="5.336" height="5.336" rx="1" transform="translate(18.971)"/><rect data-name="Rectangle 56" width="5.336" height="5.336" rx="1" transform="translate(25.295)"/><rect data-name="Rectangle 57" width="5.336" height="5.336" rx="1" transform="translate(31.619)"/><rect data-name="Rectangle 58" width="5.336" height="5.336" rx="1" transform="translate(37.942)"/><rect data-name="Rectangle 59" width="5.336" height="5.336" rx="1" transform="translate(44.265)"/><rect data-name="Rectangle 60" width="5.336" height="5.336" rx="1" transform="translate(50.589)"/><rect data-name="Rectangle 61" width="5.336" height="5.336" rx="1" transform="translate(56.912)"/><rect data-name="Rectangle 62" width="5.336" height="5.336" rx="1" transform="translate(63.236)"/></g><path data-name="Path 55" d="M83.053 16.584h6.906a1.093 1.093 0 0 1 1.091 1.093v3.15a1.093 1.093 0 0 1-1.091 1.093h-6.907a1.093 1.093 0 0 1-1.093-1.093v-3.149a1.093 1.093 0 0 1 1.093-1.094z" fill-rule="evenodd"/></g><g data-name="Group 7" transform="translate(1.531 29.627)" fill="#4a4a4a"><rect data-name="Rectangle 63" width="5.336" height="5.336" rx="1"/><rect data-name="Rectangle 64" width="5.336" height="5.336" rx="1" transform="translate(6.324)"/><rect data-name="Rectangle 65" width="5.336" height="5.336" rx="1" transform="translate(12.647)"/><rect data-name="Rectangle 66" width="5.336" height="5.336" rx="1" transform="translate(18.971)"/><path data-name="Path 56" d="M26.387 0h30.422a1.093 1.093 0 0 1 1.093 1.093v3.151a1.093 1.093 0 0 1-1.093 1.093H26.387a1.093 1.093 0 0 1-1.093-1.093V1.093A1.093 1.093 0 0 1 26.387 0zm33.594 0h3.942a1.093 1.093 0 0 1 1.093 1.093v3.151a1.093 1.093 0 0 1-1.093 1.093h-3.942a1.093 1.093 0 0 1-1.093-1.093V1.093A1.093 1.093 0 0 1 59.981 0z" fill-rule="evenodd"/><rect data-name="Rectangle 67" width="5.336" height="5.336" rx="1" transform="translate(66.003)"/><rect data-name="Rectangle 68" width="5.336" height="5.336" rx="1" transform="translate(72.327)"/><rect data-name="Rectangle 69" width="5.336" height="5.336" rx="1" transform="translate(84.183)"/><path data-name="Path 57" d="M78.254 2.273v-1.18A1.093 1.093 0 0 1 79.347 0h3.15a1.093 1.093 0 0 1 1.093 1.093v1.18z"/><path data-name="Path 58" d="M83.591 3.063v1.18a1.093 1.093 0 0 1-1.093 1.093h-3.15a1.093 1.093 0 0 1-1.093-1.093v-1.18z"/></g><rect data-name="Rectangle 70" width="88.927" height="2.371" rx="1.085" transform="translate(1.925 1.17)" fill="#4a4a4a"/><rect data-name="Rectangle 71" width="4.986" height="1.581" rx=".723" transform="translate(4.1 1.566)" fill="#d8d8d8" opacity=".136"/><rect data-name="Rectangle 72" width="4.986" height="1.581" rx=".723" transform="translate(10.923 1.566)" fill="#d8d8d8" opacity=".136"/><rect data-name="Rectangle 73" width="4.986" height="1.581" rx=".723" transform="translate(16.173 1.566)" fill="#d8d8d8" opacity=".136"/><rect data-name="Rectangle 74" width="4.986" height="1.581" rx=".723" transform="translate(21.421 1.566)" fill="#d8d8d8" opacity=".136"/><rect data-name="Rectangle 75" width="4.986" height="1.581" rx=".723" transform="translate(26.671 1.566)" fill="#d8d8d8" opacity=".136"/><rect data-name="Rectangle 76" width="4.986" height="1.581" rx=".723" transform="translate(33.232 1.566)" fill="#d8d8d8" opacity=".136"/><rect data-name="Rectangle 77" width="4.986" height="1.581" rx=".723" transform="translate(38.48 1.566)" fill="#d8d8d8" opacity=".136"/><rect data-name="Rectangle 78" width="4.986" height="1.581" rx=".723" transform="translate(43.73 1.566)" fill="#d8d8d8" opacity=".136"/><rect data-name="Rectangle 79" width="4.986" height="1.581" rx=".723" transform="translate(48.978 1.566)" fill="#d8d8d8" opacity=".136"/><rect data-name="Rectangle 80" width="4.986" height="1.581" rx=".723" transform="translate(55.54 1.566)" fill="#d8d8d8" opacity=".136"/><rect data-name="Rectangle 81" width="4.986" height="1.581" rx=".723" transform="translate(60.788 1.566)" fill="#d8d8d8" opacity=".136"/><rect data-name="Rectangle 82" width="4.986" height="1.581" rx=".723" transform="translate(66.038 1.566)" fill="#d8d8d8" opacity=".136"/><rect data-name="Rectangle 83" width="4.986" height="1.581" rx=".723" transform="translate(72.599 1.566)" fill="#d8d8d8" opacity=".136"/><rect data-name="Rectangle 84" width="4.986" height="1.581" rx=".723" transform="translate(77.847 1.566)" fill="#d8d8d8" opacity=".136"/><rect data-name="Rectangle 85" width="4.986" height="1.581" rx=".723" transform="translate(83.097 1.566)" fill="#d8d8d8" opacity=".136"/></g><path data-name="Path 59" d="M408.256 591.563a5.439 5.439 0 0 0-.7.07c-.042-.164-.081-.329-.127-.493a5.457 5.457 0 1 0-5.4-9.372q-.181-.185-.366-.367a5.454 5.454 0 1 0-9.384-5.4c-.162-.046-.325-.084-.486-.126a5.467 5.467 0 1 0-10.788 0c-.162.042-.325.08-.486.126a5.457 5.457 0 1 0-9.384 5.4 21.843 21.843 0 1 0 36.421 21.02 5.452 5.452 0 1 0 .7-10.858" fill="#44d860" fill-rule="evenodd"/><path data-name="Path 60" d="M342.691 553.317h43.71v-21.855h-43.71z" fill="#3ecc5f" fill-rule="evenodd"/><path data-name="Path 61" d="M397.328 545.121a2.732 2.732 0 1 0 0-5.464 2.811 2.811 0 0 0-.349.035c-.022-.082-.04-.164-.063-.246a2.733 2.733 0 0 0-1.052-5.253 2.7 2.7 0 0 0-1.648.566q-.09-.093-.184-.184a2.7 2.7 0 0 0 .553-1.633 2.732 2.732 0 0 0-5.245-1.07 10.928 10.928 0 1 0 0 21.031 2.732 2.732 0 0 0 5.245-1.07 2.7 2.7 0 0 0-.553-1.633q.093-.09.184-.184a2.7 2.7 0 0 0 1.648.566 2.732 2.732 0 0 0 1.052-5.253c.023-.081.042-.164.063-.246a2.811 2.811 0 0 0 .349.035" fill="#44d860" fill-rule="evenodd"/><path data-name="Path 62" d="M408.256 464.531a2.967 2.967 0 0 1-.535-.055 2.754 2.754 0 0 1-.514-.153 2.838 2.838 0 0 1-.471-.251 4.139 4.139 0 0 1-.415-.339 3.2 3.2 0 0 1-.338-.415 2.7 2.7 0 0 1-.459-1.517 2.968 2.968 0 0 1 .055-.535 3.152 3.152 0 0 1 .152-.514 2.874 2.874 0 0 1 .252-.47 2.633 2.633 0 0 1 .753-.754 2.837 2.837 0 0 1 .471-.251 2.753 2.753 0 0 1 .514-.153 2.527 2.527 0 0 1 1.071 0 2.654 2.654 0 0 1 .983.4 4.139 4.139 0 0 1 .415.339 4.019 4.019 0 0 1 .339.415 2.786 2.786 0 0 1 .251.47 2.864 2.864 0 0 1 .208 1.049 2.77 2.77 0 0 1-.8 1.934 4.139 4.139 0 0 1-.415.339 2.722 2.722 0 0 1-1.519.459m21.855-1.366a2.789 2.789 0 0 1-1.935-.8 4.162 4.162 0 0 1-.338-.415 2.7 2.7 0 0 1-.459-1.519 2.789 2.789 0 0 1 .8-1.934 4.139 4.139 0 0 1 .415-.339 2.838 2.838 0 0 1 .471-.251 2.752 2.752 0 0 1 .514-.153 2.527 2.527 0 0 1 1.071 0 2.654 2.654 0 0 1 .983.4 4.139 4.139 0 0 1 .415.339 2.79 2.79 0 0 1 .8 1.934 3.069 3.069 0 0 1-.055.535 2.779 2.779 0 0 1-.153.514 3.885 3.885 0 0 1-.251.47 4.02 4.02 0 0 1-.339.415 4.138 4.138 0 0 1-.415.339 2.722 2.722 0 0 1-1.519.459" fill-rule="evenodd"/></g></svg>