<svg xmlns="http://www.w3.org/2000/svg" width="863" height="826.714" viewBox="0 0 863 826.714"><g data-name="Group 21"><g data-name="Group 17"><path data-name="Path 197" d="M740.085 309.387C695.168 132.765 539.968 5.269 357.8.157c-96.312-2.7-197.656 29.236-271.441 141.01-131.9 199.808 8.106 337.882 105.714 403.492a610.759 610.759 0 01126.24 113.466c65.931 78.237 192.767 175.459 343.824 23.132C771.622 570.843 770 427.034 740.085 309.387z" fill="#f2f2f2"/><path data-name="Path 198" d="M862 702.714c0 43.354-189.189 124-427.5 124S0 751.068 0 707.714s196.189-38 434.5-38 427.5-10.357 427.5 33z" fill="#3f3d56"/><path data-name="Path 199" d="M862 702.714c0 43.354-189.189 124-427.5 124S0 751.068 0 707.714s196.189-38 434.5-38 427.5-10.357 427.5 33z" opacity=".1"/><ellipse data-name="Ellipse 55" cx="431.5" cy="78.5" rx="431.5" ry="78.5" transform="translate(0 628.714)" fill="#3f3d56"/><path data-name="Path 200" d="M594.859 440.238v209.944l35.117 57.231 2.673 4.353h138.563l2.8-271.528z" fill="#2f2e41"/><path data-name="Path 201" d="M594.859 440.238v209.944l35.117 57.231 2.155-267.175z" opacity=".1"/><path data-name="Path 202" d="M260.348 434.639v209.944l-35.117 57.231-2.673 4.353H83.994l-2.8-271.528z" fill="#2f2e41"/><path data-name="Path 203" d="M260.348 434.639v209.944l-35.117 57.231-2.156-267.175z" opacity=".1"/><path data-name="Path 204" d="M816 430.44v12.6H63v-18.198l69.981-36.39h621.435z" fill="#2f2e41"/><path data-name="Path 205" d="M816 430.44v12.6H63v-18.198z" opacity=".1"/><path data-name="Path 206" d="M170.771 493.424H137.18l-14-9.8h62.983z" opacity=".1"/><path data-name="Path 207" d="M170.771 534.013H137.18l-14-9.8h62.983z" opacity=".1"/><path data-name="Path 208" d="M170.771 591.4H137.18l-14-9.8h62.983z" opacity=".1"/><path data-name="Path 209" d="M170.771 648.782H137.18l-14-9.8h62.983z" opacity=".1"/><path data-name="Path 210" d="M684.435 499.022h33.591l14-9.8h-62.987z" opacity=".1"/><path data-name="Path 211" d="M684.435 539.611h33.591l14-9.8h-62.987z" opacity=".1"/><path data-name="Path 212" d="M684.435 597h33.591l14-9.8h-62.987z" opacity=".1"/><path data-name="Path 213" d="M684.435 654.381h33.591l14-9.8h-62.987z" opacity=".1"/><path data-name="Path 214" d="M532.516 353.426l-4.669 29.808s-22.984 12.21-6.823 12.569 92.3 0 92.3 0 14.724 0-8.619-12.929l-4.669-31.244z" fill="#3f3d56"/><path data-name="Path 215" d="M517.773 395.48a63.569 63.569 0 0110.074-6.669l4.669-29.808 67.516.064 4.668 29.39a61.3 61.3 0 0110.788 7.1c3-.684 6.275-3.226-10.788-12.676l-4.669-31.244-67.516 1.8-4.669 29.808s-19.312 10.251-10.073 12.235z" opacity=".1"/><rect data-name="Rectangle 119" width="304.18" height="211.885" rx="10.695" transform="translate(413.824 145.672)" fill="#3f3d56"/><path data-name="Rectangle 120" fill="#f2f2f2" d="M424.059 156.984h283.71v158.734h-283.71z"/><circle data-name="Ellipse 56" cx="1.796" cy="1.796" r="1.796" transform="translate(564.119 150.161)" fill="#f2f2f2"/><path data-name="Path 216" d="M718 328.288v18.569a10.694 10.694 0 01-10.7 10.695H424.519a10.694 10.694 0 01-10.695-10.7v-18.564z" fill="#3f3d56"/><circle data-name="Ellipse 57" cx="6.823" cy="6.823" r="6.823" transform="translate(559.091 336.189)" fill="#f2f2f2"/><path data-name="Path 217" d="M555.281 415.2v3.592h-193.21v-2.873l.266-.719 4.762-12.928h184.232z" fill="#3f3d56"/><path data-name="Path 218" d="M629.635 411.68c-.352 1.5-1.681 3.092-4.683 4.593-10.774 5.387-32.681-1.436-32.681-1.436s-16.879-2.873-16.879-10.415a13.472 13.472 0 011.48-.88c4.53-2.4 19.548-8.31 46.178.25a11.106 11.106 0 015.062 3.317 5.3 5.3 0 011.523 4.57z" fill="#3f3d56"/><path data-name="Path 219" d="M629.635 411.68c-13.187 5.053-24.941 5.43-37-2.948-6.084-4.223-11.611-5.268-15.758-5.189 4.53-2.4 19.548-8.31 46.178.25a11.106 11.106 0 015.062 3.317 5.3 5.3 0 011.523 4.57z" opacity=".1"/><ellipse data-name="Ellipse 58" cx="4.669" cy="1.437" rx="4.669" ry="1.437" transform="translate(608.432 405.859)" fill="#f2f2f2"/><path data-name="Path 220" d="M555.281 415.2v3.592h-193.21v-2.873l.266-.719z" opacity=".1"/><circle data-name="Ellipse 59" cx="38.247" cy="38.247" r="38.247" transform="translate(356.392 117.648)" fill="#ffb9b9"/><path data-name="Path 222" d="M366.457 175.018v60.389h62.4s-8.052-50.325-4.026-65.422z" fill="#ffb9b9"/><path data-name="Path 223" d="M490.256 256.544s-59.383-29.188-59.383-31.2-6.039-15.1-10.065-15.1-38.247-11.071-57.37 5.032l-2.013 13.081-73.474 48.312 20.13 73.474s13.084 14.091 9.058 24.156 3.019 61.4 3.019 61.4l158.019-5.032v-68.442s5.032-16.1 8.052-21.136 0-20.13 0-20.13l24.156-30.195s-3.019-28.182-20.129-34.22z" fill="#d0cde1"/><path data-name="Path 224" d="M290.467 301.332l4.529-24.659s-26.168 113.734-23.149 126.818 25.162 33.214 28.182 34.221 31.2-86.558 31.2-86.558z" opacity=".1"/><path data-name="Path 225" d="M305.061 273.657l-17.11 3.019S261.782 390.407 264.8 403.491s25.162 33.214 28.182 34.221 31.2-86.558 31.2-86.558z" fill="#d0cde1"/><path data-name="Path 226" d="M495.791 307.371l8.555-16.607s12.078 113.734 4.026 124.8-39.9 15.214-39.9 15.214l-.357-82.649z" opacity=".1"/><path data-name="Path 227" d="M497.3 277.68l13.084 13.084s12.078 113.734 4.026 124.8-39.9 15.214-39.9 15.214l-.357-82.649z" fill="#d0cde1"/><path data-name="Path 228" d="M302.042 450.796s-29.188-11.071-34.221 10.065S279.9 576.608 279.9 576.608s11.071 71.461 18.117 73.474 38.247 3.019 43.279-6.039S326.2 542.387 326.2 542.387l116.753-2.013s-7.045 80.519-11.071 87.565-4.026 31.2 0 31.2 48.312-2.013 51.331-8.052 20.13-141.915 20.13-141.915 14.091-47.305-2.013-44.286-199.288-14.09-199.288-14.09z" fill="#3f3d56"/><path data-name="Path 229" d="M474.152 647.062s10.065-7.045 15.1 0 7.045 15.1-15.1 27.175-39.253 9.058-39.253 7.045v-29.187z" fill="#2f2e41"/><path data-name="Path 230" d="M300.029 644.043s-10.065-7.045-15.1 0-7.045 15.1 15.1 27.175 39.253 9.058 39.253 7.045v-29.188z" fill="#2f2e41"/><path data-name="Path 231" d="M394.887 107.669a32.347 32.347 0 00-11.234 1.6 43.428 43.428 0 00-8 4.234l-16.885 10.5a7.908 7.908 0 00-4.766 7.37l-2.11 15.8c-.532 3.988-1.023 8.252.762 11.858 1.49 3.009 4.331 5.069 6.668 7.48a27.456 27.456 0 017.236 14.061c1.208 6.6.435 14.542 5.656 18.753 2.827 2.28 6.68 2.711 10.306 2.923a153.787 153.787 0 0029.7-1.143 11.819 11.819 0 004.487-1.257c1.775-1.05 2.892-2.9 3.937-4.681 3.771-6.42 7.657-13.249 7.616-20.694-.02-3.683-.963-7.639.806-10.87a42.5 42.5 0 013.034-3.946c2.19-3.077 2.616-7.03 2.973-10.79 1.14-12.009-.052-21.147-8.9-29.606-8.263-7.893-20.019-11.519-31.286-11.592z" fill="#2f2e41"/><path data-name="Path 232" d="M300.937 569.7l-33.591 170.758h16.795L316.333 572.5z" fill="#2f2e41"/><path data-name="Path 233" d="M408.708 583.7L429.7 779.648h14L431.1 578.1z" fill="#2f2e41"/><path data-name="Path 234" d="M466.093 578.1l29.392 130.166h14L481.489 575.3z" fill="#2f2e41"/><path data-name="Path 235" d="M354.123 578.1l-4.2 103.573h11.2l8.4-103.573z" fill="#2f2e41"/><path data-name="Path 236" d="M277.143 551.508s-22.394-149.76 40.589-153.959 152.56 0 152.56 0 51.786-4.2 36.39 153.959c0 0 14 46.188-111.97 41.989s-117.569-41.989-117.569-41.989z" fill="#4267b2"/><path data-name="Path 237" d="M851 612.665c0 26.115-15.525 35.234-34.676 35.234s-34.676-9.118-34.676-35.234 34.676-59.338 34.676-59.338S851 586.55 851 612.665z" fill="#3ecc5f"/><path data-name="Path 238" d="M815.416 622.048l14.784-27.039-14.724 23.61.16-9.827 10.186-19.563-10.144 16.962.287-17.675 10.908-15.574-10.863 12.795.18-32.41-1.079 41.067-11.051-16.907 10.912 20.372-1.033 19.74-.031-.524-12.785-17.863 12.746 19.714-.129 2.469-.023.037.011.2-2.622 26.342h3.5l.42-2.128 12.715-19.667L815.06 643.9z" fill="#3f3d56"/><path data-name="Path 239" d="M838.47 704.549h-41.341l-10.684-60.386h60.386z" fill="#2f2e41"/><path data-name="Rectangle 121" fill="#3f3d56" d="M145 296.3h86v100.828h-86z"/><path data-name="Rectangle 122" fill="#f2f2f2" d="M158.345 311.946h59.31v69.536h-59.31z"/></g><path data-name="Path 40" d="M187.925 335.968h19.822v8.023h-19.822z" fill="#fff" fill-rule="evenodd"/><path data-name="Path 41" d="M169.991 362.162a4.714 4.714 0 01-4.084-2.36 4.714 4.714 0 004.083 7.079h4.72v-4.72z" fill="#3ecc5f" fill-rule="evenodd"/><path data-name="Path 42" d="M191.224 337.236l16.523-1.033v-2.36a4.72 4.72 0 00-4.72-4.72H181.79l-.59-1.022a.681.681 0 00-1.18 0l-.59 1.022-.59-1.022a.681.681 0 00-1.18 0l-.59 1.022-.59-1.022a.681.681 0 00-1.18 0l-.59 1.022h-.015l-.977-.977a.681.681 0 00-1.139.305l-.323 1.2-1.225-.328a.681.681 0 00-.834.834l.328 1.225-1.2.323a.681.681 0 00-.306 1.14l.977.977v.015l-1.022.59a.681.681 0 000 1.18l1.022.59-1.022.59a.681.681 0 000 1.18l1.022.59-1.022.59a.681.681 0 000 1.18l1.022.59-1.022.59a.681.681 0 000 1.18l1.022.59-1.022.59a.681.681 0 000 1.18l1.022.59-1.022.59a.681.681 0 000 1.18l1.022.59-1.022.59a.681.681 0 000 1.18l1.022.59-1.022.59a.681.681 0 000 1.18l1.022.59-1.022.59a.681.681 0 000 1.18l1.022.59-1.022.59a.681.681 0 000 1.18l1.022.59-1.022.59a.681.681 0 000 1.18l1.022.59-1.022.59a.681.681 0 000 1.18l1.022.59a4.72 4.72 0 004.72 4.72h28.312a4.719 4.719 0 004.72-4.72v-18.873l-16.524-1.033a2.512 2.512 0 010-5.014" fill="#3ecc5f" fill-rule="evenodd"/><path data-name="Path 43" d="M198.308 366.881h7.079v-9.439h-7.079z" fill="#3ecc5f" fill-rule="evenodd"/><path data-name="Path 44" d="M210.107 360.982a1.173 1.173 0 00-.151.015c-.009-.035-.017-.071-.027-.106a1.178 1.178 0 10-1.161-2.029l-.079-.079a1.178 1.178 0 10-2.027-1.167l-.1-.027a1.181 1.181 0 10-2.33 0l-.105.027a1.179 1.179 0 10-2.027 1.167 4.717 4.717 0 107.865 4.539 1.177 1.177 0 10.151-2.345" fill="#44d860" fill-rule="evenodd"/><path data-name="Path 45" d="M200.668 352.723h7.079v-4.72h-7.079z" fill="#3ecc5f" fill-rule="evenodd"/><path data-name="Path 46" d="M210.108 350.953a.59.59 0 100-1.18.607.607 0 00-.075.008c0-.018-.009-.035-.014-.053a.59.59 0 00-.227-1.134.583.583 0 00-.356.122l-.04-.04a.584.584 0 00.119-.353.59.59 0 00-1.133-.231 2.36 2.36 0 100 4.542.59.59 0 001.133-.231.584.584 0 00-.119-.353l.04-.04a.583.583 0 00.356.122.59.59 0 00.227-1.134c0-.017.009-.035.014-.053a.607.607 0 00.075.008" fill="#44d860" fill-rule="evenodd"/><path data-name="Path 47" d="M179.43 336.794a.59.59 0 01-.59-.59 1.77 1.77 0 10-3.54 0 .59.59 0 01-1.18 0 2.95 2.95 0 115.9 0 .59.59 0 01-.59.59" fill-rule="evenodd"/><path data-name="Path 48" d="M188.869 366.881h14.159a4.72 4.72 0 004.72-4.72v-16.518h-14.159a4.72 4.72 0 00-4.72 4.72z" fill="#ffff50" fill-rule="evenodd"/><path data-name="Path 49" d="M204.212 352.959h-11.808a.236.236 0 110-.472h11.808a.236.236 0 010 .472m0 4.72h-11.808a.236.236 0 110-.472h11.808a.236.236 0 010 .472m0 4.72h-11.808a.236.236 0 110-.472h11.808a.236.236 0 010 .472m0-11.755h-11.808a.236.236 0 110-.472h11.808a.236.236 0 010 .472m0 4.676h-11.808a.236.236 0 110-.472h11.808a.236.236 0 010 .472m0 4.72h-11.808a.236.236 0 110-.472h11.808a.236.236 0 010 .472m3.535-21.8h-.008c-.729.025-1.074.754-1.379 1.4-.318.673-.563 1.11-.966 1.1-.446-.016-.7-.52-.971-1.052-.31-.612-.664-1.306-1.407-1.28-.719.025-1.065.659-1.37 1.219-.325.6-.546.959-.972.942-.455-.017-.7-.426-.976-.9-.312-.528-.672-1.121-1.4-1.1-.707.024-1.054.563-1.36 1.038-.324.5-.551.809-.983.791-.466-.017-.706-.356-.984-.75a1.614 1.614 0 00-1.391-.918 1.733 1.733 0 00-1.344.854c-.291.369-.518.661-1 .643a.236.236 0 10-.017.472 1.63 1.63 0 001.386-.823c.278-.353.518-.658.989-.674.455-.019.668.263.99.719a1.729 1.729 0 001.352.949c.732.025 1.085-.523 1.4-1.007.279-.433.52-.806.979-.822.423-.016.653.319.978.869.306.518.653 1.106 1.366 1.132.737.025 1.094-.618 1.4-1.188.269-.493.522-.958.972-.974.423-.01.644.376.97 1.022.3.6.651 1.285 1.375 1.311h.04c.723 0 1.066-.726 1.37-1.367.269-.569.523-1.1.96-1.126z" fill-rule="evenodd"/><path data-name="Path 50" d="M184.149 366.881h9.439v-9.439h-9.439z" fill="#3ecc5f" fill-rule="evenodd"/><g data-name="Group 8" transform="rotate(-14.98 1412.823 -543.8)"><rect data-name="Rectangle 3" width="19.946" height="7.874" rx="2" fill="#d8d8d8"/><g data-name="Group 2" transform="translate(.331 4.973)" fill="#4a4a4a"><rect data-name="Rectangle 4" width="1.152" height="1.152" rx=".576" transform="translate(3.627)"/><rect data-name="Rectangle 5" width="1.152" height="1.152" rx=".576" transform="translate(4.993)"/><rect data-name="Rectangle 6" width="1.152" height="1.152" rx=".576" transform="translate(6.358)"/><rect data-name="Rectangle 7" width="1.152" height="1.152" rx=".576" transform="translate(7.724)"/><rect data-name="Rectangle 8" width="1.152" height="1.152" rx=".576" transform="translate(9.09)"/><rect data-name="Rectangle 9" width="1.152" height="1.152" rx=".576" transform="translate(10.455)"/><rect data-name="Rectangle 10" width="1.152" height="1.152" rx=".576" transform="translate(11.821)"/><rect data-name="Rectangle 11" width="1.152" height="1.152" rx=".576" transform="translate(13.187)"/><rect data-name="Rectangle 12" width="1.152" height="1.152" rx=".576" transform="translate(14.552)"/><path data-name="Path 51" d="M.236 0h2.9a.236.236 0 01.236.236v.68a.236.236 0 01-.236.236h-2.9A.236.236 0 010 .916v-.68A.236.236 0 01.236 0zM16.2 0h2.9a.236.236 0 01.236.236v.68a.236.236 0 01-.236.236h-2.9a.236.236 0 01-.24-.236v-.68A.236.236 0 0116.2 0z" fill-rule="evenodd"/></g><g data-name="Group 3" transform="translate(.331 2.216)" fill="#4a4a4a"><path data-name="Path 52" d="M.236 0h1.107a.236.236 0 01.236.236v.68a.236.236 0 01-.236.236H.236A.236.236 0 010 .916v-.68A.236.236 0 01.236 0z" fill-rule="evenodd"/><rect data-name="Rectangle 13" width="1.152" height="1.152" rx=".576" transform="translate(1.792)"/><rect data-name="Rectangle 14" width="1.152" height="1.152" rx=".576" transform="translate(3.158)"/><rect data-name="Rectangle 15" width="1.152" height="1.152" rx=".576" transform="translate(4.524)"/><rect data-name="Rectangle 16" width="1.152" height="1.152" rx=".576" transform="translate(5.889)"/><rect data-name="Rectangle 17" width="1.152" height="1.152" rx=".576" transform="translate(7.255)"/><rect data-name="Rectangle 18" width="1.152" height="1.152" rx=".576" transform="translate(8.62)"/><rect data-name="Rectangle 19" width="1.152" height="1.152" rx=".576" transform="translate(9.986)"/><rect data-name="Rectangle 20" width="1.152" height="1.152" rx=".576" transform="translate(11.352)"/><rect data-name="Rectangle 21" width="1.152" height="1.152" rx=".576" transform="translate(12.717)"/><rect data-name="Rectangle 22" width="1.152" height="1.152" rx=".576" transform="translate(14.083)"/><rect data-name="Rectangle 23" width="1.152" height="1.152" rx=".576" transform="translate(15.448)"/><rect data-name="Rectangle 24" width="1.152" height="1.152" rx=".576" transform="translate(16.814)"/><rect data-name="Rectangle 25" width="1.152" height="1.152" rx=".576" transform="translate(18.179)"/></g><g data-name="Group 4" transform="rotate(180 9.831 1.031)" fill="#4a4a4a"><path data-name="Path 53" d="M.236 0h1.107a.236.236 0 01.236.236v.68a.236.236 0 01-.236.236H.236A.236.236 0 010 .916v-.68A.236.236 0 01.236 0z" fill-rule="evenodd"/><rect data-name="Rectangle 26" width="1.152" height="1.152" rx=".576" transform="translate(1.792)"/><rect data-name="Rectangle 27" width="1.152" height="1.152" rx=".576" transform="translate(3.158)"/><rect data-name="Rectangle 28" width="1.152" height="1.152" rx=".576" transform="translate(4.524)"/><rect data-name="Rectangle 29" width="1.152" height="1.152" rx=".576" transform="translate(5.889)"/><rect data-name="Rectangle 30" width="1.152" height="1.152" rx=".576" transform="translate(7.255)"/><rect data-name="Rectangle 31" width="1.152" height="1.152" rx=".576" transform="translate(8.62)"/><rect data-name="Rectangle 32" width="1.152" height="1.152" rx=".576" transform="translate(9.986)"/><rect data-name="Rectangle 33" width="1.152" height="1.152" rx=".576" transform="translate(11.352)"/><rect data-name="Rectangle 34" width="1.152" height="1.152" rx=".576" transform="translate(12.717)"/><rect data-name="Rectangle 35" width="1.152" height="1.152" rx=".576" transform="translate(14.083)"/><rect data-name="Rectangle 36" width="1.152" height="1.152" rx=".576" transform="translate(15.448)"/><rect data-name="Rectangle 37" width="1.152" height="1.152" rx=".576" transform="translate(16.814)"/><rect data-name="Rectangle 38" width="1.152" height="1.152" rx=".576" transform="translate(18.179)"/><rect data-name="Rectangle 39" width="1.152" height="1.152" rx=".576" transform="translate(1.792)"/><rect data-name="Rectangle 40" width="1.152" height="1.152" rx=".576" transform="translate(3.158)"/><rect data-name="Rectangle 41" width="1.152" height="1.152" rx=".576" transform="translate(4.524)"/><rect data-name="Rectangle 42" width="1.152" height="1.152" rx=".576" transform="translate(5.889)"/><rect data-name="Rectangle 43" width="1.152" height="1.152" rx=".576" transform="translate(7.255)"/><rect data-name="Rectangle 44" width="1.152" height="1.152" rx=".576" transform="translate(8.62)"/><rect data-name="Rectangle 45" width="1.152" height="1.152" rx=".576" transform="translate(9.986)"/><rect data-name="Rectangle 46" width="1.152" height="1.152" rx=".576" transform="translate(11.352)"/><rect data-name="Rectangle 47" width="1.152" height="1.152" rx=".576" transform="translate(12.717)"/><rect data-name="Rectangle 48" width="1.152" height="1.152" rx=".576" transform="translate(14.083)"/><rect data-name="Rectangle 49" width="1.152" height="1.152" rx=".576" transform="translate(15.448)"/><rect data-name="Rectangle 50" width="1.152" height="1.152" rx=".576" transform="translate(16.814)"/><rect data-name="Rectangle 51" width="1.152" height="1.152" rx=".576" transform="translate(18.179)"/></g><g data-name="Group 6" fill="#4a4a4a"><path data-name="Path 54" d="M.567 3.581h1.576a.236.236 0 01.236.236v.68a.236.236 0 01-.236.236H.567a.236.236 0 01-.236-.236v-.68a.236.236 0 01.236-.236z" fill-rule="evenodd"/><g data-name="Group 5" transform="translate(2.635 3.581)"><rect data-name="Rectangle 52" width="1.152" height="1.152" rx=".576"/><rect data-name="Rectangle 53" width="1.152" height="1.152" rx=".576" transform="translate(1.366)"/><rect data-name="Rectangle 54" width="1.152" height="1.152" rx=".576" transform="translate(2.731)"/><rect data-name="Rectangle 55" width="1.152" height="1.152" rx=".576" transform="translate(4.097)"/><rect data-name="Rectangle 56" width="1.152" height="1.152" rx=".576" transform="translate(5.462)"/><rect data-name="Rectangle 57" width="1.152" height="1.152" rx=".576" transform="translate(6.828)"/><rect data-name="Rectangle 58" width="1.152" height="1.152" rx=".576" transform="translate(8.194)"/><rect data-name="Rectangle 59" width="1.152" height="1.152" rx=".576" transform="translate(9.559)"/><rect data-name="Rectangle 60" width="1.152" height="1.152" rx=".576" transform="translate(10.925)"/><rect data-name="Rectangle 61" width="1.152" height="1.152" rx=".576" transform="translate(12.29)"/><rect data-name="Rectangle 62" width="1.152" height="1.152" rx=".576" transform="translate(13.656)"/></g><path data-name="Path 55" d="M17.936 3.581h1.491a.236.236 0 01.236.236v.68a.236.236 0 01-.236.236h-1.491a.236.236 0 01-.236-.236v-.68a.236.236 0 01.236-.236z" fill-rule="evenodd"/></g><g data-name="Group 7" transform="translate(.331 6.398)" fill="#4a4a4a"><rect data-name="Rectangle 63" width="1.152" height="1.152" rx=".576"/><rect data-name="Rectangle 64" width="1.152" height="1.152" rx=".576" transform="translate(1.366)"/><rect data-name="Rectangle 65" width="1.152" height="1.152" rx=".576" transform="translate(2.731)"/><rect data-name="Rectangle 66" width="1.152" height="1.152" rx=".576" transform="translate(4.097)"/><path data-name="Path 56" d="M5.698 0h6.57a.236.236 0 01.236.236v.681a.236.236 0 01-.236.236h-6.57a.236.236 0 01-.236-.236V.236A.236.236 0 015.698 0zm7.255 0h.851a.236.236 0 01.236.236v.681a.236.236 0 01-.236.236h-.851a.236.236 0 01-.236-.236V.236A.236.236 0 0112.953 0z" fill-rule="evenodd"/><rect data-name="Rectangle 67" width="1.152" height="1.152" rx=".576" transform="translate(14.253)"/><rect data-name="Rectangle 68" width="1.152" height="1.152" rx=".576" transform="translate(15.619)"/><rect data-name="Rectangle 69" width="1.152" height="1.152" rx=".576" transform="translate(18.179)"/><path data-name="Path 57" d="M16.899.491V.236A.236.236 0 0117.135 0h.68a.236.236 0 01.236.236v.255z"/><path data-name="Path 58" d="M18.051.661v.255a.236.236 0 01-.236.236h-.68a.236.236 0 01-.236-.236V.661z"/></g><rect data-name="Rectangle 70" width="19.204" height=".512" rx=".256" transform="translate(.416 .253)" fill="#4a4a4a"/><rect data-name="Rectangle 71" width="1.077" height=".341" rx=".171" transform="translate(.885 .338)" fill="#d8d8d8" opacity=".136"/><rect data-name="Rectangle 72" width="1.077" height=".341" rx=".171" transform="translate(2.359 .338)" fill="#d8d8d8" opacity=".136"/><rect data-name="Rectangle 73" width="1.077" height=".341" rx=".171" transform="translate(3.493 .338)" fill="#d8d8d8" opacity=".136"/><rect data-name="Rectangle 74" width="1.077" height=".341" rx=".171" transform="translate(4.626 .338)" fill="#d8d8d8" opacity=".136"/><rect data-name="Rectangle 75" width="1.077" height=".341" rx=".171" transform="translate(5.76 .338)" fill="#d8d8d8" opacity=".136"/><rect data-name="Rectangle 76" width="1.077" height=".341" rx=".171" transform="translate(7.176 .338)" fill="#d8d8d8" opacity=".136"/><rect data-name="Rectangle 77" width="1.077" height=".341" rx=".171" transform="translate(8.31 .338)" fill="#d8d8d8" opacity=".136"/><rect data-name="Rectangle 78" width="1.077" height=".341" rx=".171" transform="translate(9.443 .338)" fill="#d8d8d8" opacity=".136"/><rect data-name="Rectangle 79" width="1.077" height=".341" rx=".171" transform="translate(10.577 .338)" fill="#d8d8d8" opacity=".136"/><rect data-name="Rectangle 80" width="1.077" height=".341" rx=".171" transform="translate(11.994 .338)" fill="#d8d8d8" opacity=".136"/><rect data-name="Rectangle 81" width="1.077" height=".341" rx=".171" transform="translate(13.127 .338)" fill="#d8d8d8" opacity=".136"/><rect data-name="Rectangle 82" width="1.077" height=".341" rx=".171" transform="translate(14.261 .338)" fill="#d8d8d8" opacity=".136"/><rect data-name="Rectangle 83" width="1.077" height=".341" rx=".171" transform="translate(15.678 .338)" fill="#d8d8d8" opacity=".136"/><rect data-name="Rectangle 84" width="1.077" height=".341" rx=".171" transform="translate(16.811 .338)" fill="#d8d8d8" opacity=".136"/><rect data-name="Rectangle 85" width="1.077" height=".341" rx=".171" transform="translate(17.945 .338)" fill="#d8d8d8" opacity=".136"/></g><path data-name="Path 59" d="M198.308 360.982a1.173 1.173 0 00-.151.015c-.009-.035-.017-.071-.027-.106a1.178 1.178 0 10-1.161-2.029l-.079-.079a1.178 1.178 0 10-2.027-1.167l-.105-.027a1.181 1.181 0 10-2.33 0l-.105.027a1.179 1.179 0 10-2.027 1.167 4.717 4.717 0 107.865 4.539 1.177 1.177 0 10.151-2.345" fill="#44d860" fill-rule="evenodd"/><path data-name="Path 60" d="M184.149 352.723h9.439v-4.72h-9.439z" fill="#3ecc5f" fill-rule="evenodd"/><path data-name="Path 61" d="M195.949 350.953a.59.59 0 100-1.18.607.607 0 00-.075.008c0-.018-.009-.035-.014-.053a.59.59 0 00-.227-1.134.584.584 0 00-.356.122l-.04-.04a.584.584 0 00.119-.353.59.59 0 00-1.133-.231 2.36 2.36 0 100 4.542.59.59 0 001.133-.231.584.584 0 00-.119-.353l.04-.04a.584.584 0 00.356.122.59.59 0 00.227-1.134c0-.017.009-.035.014-.053a.6.6 0 00.075.008" fill="#44d860" fill-rule="evenodd"/><path data-name="Path 62" d="M198.308 333.549a.641.641 0 01-.116-.012.6.6 0 01-.111-.033.612.612 0 01-.1-.054.893.893 0 01-.09-.073.693.693 0 01-.073-.09.582.582 0 01-.1-.328.642.642 0 01.012-.116.68.68 0 01.033-.111.621.621 0 01.054-.1.569.569 0 01.163-.163.612.612 0 01.1-.054.593.593 0 01.111-.033.546.546 0 01.231 0 .573.573 0 01.212.087.894.894 0 01.09.073.87.87 0 01.073.09.6.6 0 01.054.1.618.618 0 01.045.227.6.6 0 01-.172.418.9.9 0 01-.09.073.588.588 0 01-.328.1m4.72-.295a.6.6 0 01-.418-.172.894.894 0 01-.073-.09.583.583 0 01-.1-.328.6.6 0 01.172-.418.894.894 0 01.09-.073.613.613 0 01.1-.054.594.594 0 01.111-.033.546.546 0 01.231 0 .573.573 0 01.212.087.893.893 0 01.09.073.6.6 0 01.172.418.662.662 0 01-.012.116.6.6 0 01-.033.111.836.836 0 01-.054.1.866.866 0 01-.073.09.893.893 0 01-.09.073.588.588 0 01-.328.1" fill-rule="evenodd"/><path data-name="Path 240" d="M587 199h-64a4 4 0 00-4 4v64a4 4 0 004 4h34.46v-27.84h-9.35v-10.9h9.35v-8c0-9.3 5.68-14.37 14-14.37a77.458 77.458 0 018.38.43V220h-5.74c-4.51 0-5.39 2.15-5.39 5.3v6.94h10.79l-1.4 10.9h-9.39V271H587a4 4 0 004-4v-64a4 4 0 00-4-4z" fill="#4267b2"/><path d="M568.71 271v-27.84h9.39l1.4-10.9h-10.79v-6.94c0-3.15.88-5.3 5.39-5.3h5.72v-9.72a77.456 77.456 0 00-8.38-.43c-8.3 0-14 5.07-14 14.37v8h-9.33v10.9h9.35V271z" fill="#fff"/></g></svg>