<svg xmlns="http://www.w3.org/2000/svg" width="930" height="788" viewBox="0 0 930 788"><g data-name="Group 14"><g data-name="Group 13"><ellipse data-name="Ellipse 22" cx="157" cy="23" rx="157" ry="23" transform="translate(0 742)" fill="#f1f1f1"/><path data-name="Path 115" d="M239.936 598.976l39.415-12.348a144.461 144.461 0 00-14.722-46.995l-39.415 12.348a88.611 88.611 0 0114.722 46.995z" fill="#3ecc5f"/><circle data-name="Ellipse 23" cx="36.8" cy="36.8" r="36.8" transform="translate(108.4 229.553)" fill="#2f2e41"/><path data-name="Path 116" d="M105.5 727.5l-7 30h17l7-34z" fill="#9f616a"/><path data-name="Path 117" d="M187.5 727.5v28l17 2v-30z" fill="#9f616a"/><path data-name="Path 118" d="M100.5 409.5s2 43 4 46 20 46 20 46l9-28s-14-23-12-36 .74-29 .74-29z" fill="#9f616a"/><circle data-name="Ellipse 24" cx="28" cy="28" r="28" transform="translate(129.5 249.5)" fill="#9f616a"/><path data-name="Path 119" d="M134.5 280.5s1 40-6 46 40 1 40 1-10-28-2-34-32-13-32-13z" fill="#9f616a"/><path data-name="Path 120" d="M171.5 325.5s-6-11-14-10-34 3-35 5-4 9-6 11-17 5-18 17 36 85 36 85-5 17-4 21-5 16-4 21-15 35-7 74v63s-27 109-19 117 35 3 40 0 26-154 26-154l10-51 1 112s-2 94 5 97 34 4 36-2c1.56-4.68 9.2-129.189 12.491-183.766a203.9 203.9 0 00-4.4-56.175c-4.162-18.878-10.2-41.057-17.088-50.058-13-17-21-71-21-71l17-31s-10-10-16-10S171.5 325.5 171.5 325.5z" fill="#2f2e41"/><path data-name="Path 121" d="M104.5 341.5l-5.274 3.589S95.5 409.5 98.5 413.5s23.857 2.048 25.429-1.476S104.5 341.5 104.5 341.5z" fill="#2f2e41"/><path data-name="Path 122" d="M186.5 401.5s1 42 7 54 28 62 28 62-1.277 55.031 9.861 41.516S235.5 513.5 235.5 513.5l-19-74s-10-33-9-43-21 5-21 5z" fill="#9f616a"/><path data-name="Path 123" d="M204.5 739.3s1-.8 4 2.2 11 7 10 18-7 13-7 13v-3h-3v5s-5 16-28 6c0 0-1-8 0-13s1-29 4-28 11 2 13 6 8 2.6 7-6.2z" fill="#2f2e41"/><path data-name="Path 124" d="M101.5 740.3s-1-.8-4 2.2-11 7-10 18 7 13 7 13v-3h3v5s5 16 28 6c0 0 1-8 0-13s-1-29-4-28-11 2-13 6-8 2.6-7-6.2z" fill="#2f2e41"/><path data-name="Path 125" d="M191.5 336.5l14 3s0 22 4 31 11 30 8 31-31 15-33 7-7-72 7-72z" fill="#2f2e41"/><circle data-name="Ellipse 25" cx="36.8" cy="36.8" r="36.8" transform="translate(68.534 181.1)" fill="#2f2e41"/><path data-name="Path 126" d="M73.592 248.372a36.8 36.8 0 0056.829-19.323 36.8 36.8 0 11-71.787-15.091 36.788 36.788 0 0014.958 34.414z" fill="#2f2e41"/><circle data-name="Ellipse 26" cx="26.987" cy="26.987" r="26.987" transform="translate(108.4 245.5)" fill="#2f2e41"/><ellipse data-name="Ellipse 27" cx="23.92" cy="18.707" rx="23.92" ry="18.707" transform="translate(134.16 243.66)" fill="#2f2e41"/><ellipse data-name="Ellipse 28" cx="4.54" cy="8.032" rx="4.54" ry="8.032" transform="translate(159.92 273.503)" fill="#a0616a"/><path data-name="Rectangle 99" fill="#f1f1f1" d="M406.204 21.664l511.572 153.792-123.552 410.982-511.572-153.792z"/><path data-name="Line 1" fill="none" stroke="#3f3d56" stroke-miterlimit="10" stroke-width="2" d="M611.165 141.893l121.14 48.965"/><path data-name="Path 127" d="M614.244 151.96l1.814-.847-4.182-8.931 9.214-3.518-.716-1.869-11.221 4.287z" fill="#3f3d56"/><path data-name="Path 128" d="M723.1 195.958l-.716-1.869 9.213-3.517-4.181-8.932 1.814-.847 5.09 10.88z" fill="#3f3d56"/><circle data-name="Ellipse 29" cx="11" cy="11" r="11" transform="translate(660.735 155.375)" fill="#3f3d56"/><path data-name="Line 2" fill="none" stroke="#3f3d56" stroke-miterlimit="10" stroke-width="2" d="M601.934 481.351L713.537 413.4"/><path data-name="Path 129" d="M611.848 484.891l.4-1.961-9.661-1.977 2.678-9.492-1.927-.542-3.259 11.561z" fill="#3f3d56"/><path data-name="Path 130" d="M712.13 423.833l-1.927-.542 2.679-9.49-9.662-1.979.4-1.96 11.767 2.412z" fill="#3f3d56"/><circle data-name="Ellipse 30" cx="11" cy="11" r="11" transform="translate(646.735 436.375)" fill="#3f3d56"/><path data-name="Line 3" fill="none" stroke="#3f3d56" stroke-miterlimit="10" stroke-width="2" d="M461.716 266.044l.04 130.662"/><path data-name="Path 131" d="M453.538 272.674l1.462 1.364 6.711-7.226 6.717 7.222 1.464-1.365-8.182-8.794z" fill="#3f3d56"/><path data-name="Path 132" d="M453.573 390.082l1.465-1.365 6.715 7.222 6.713-7.226 1.465 1.364-8.177 8.8z" fill="#3f3d56"/><circle data-name="Ellipse 31" cx="11" cy="11" r="11" transform="translate(450.735 320.375)" fill="#3f3d56"/><path data-name="Rectangle 100" fill="#3f3d56" d="M369 0h182v226H369z"/><path data-name="Rectangle 101" fill="#3f3d56" d="M748 215h182v226H748z"/><path data-name="Rectangle 102" fill="#3ecc5f" d="M774 263h130v6H774z"/><path data-name="Rectangle 103" fill="#3ecc5f" d="M774 284h130v6H774z"/><path data-name="Rectangle 104" fill="#3ecc5f" d="M774 305h130v6H774z"/><path data-name="Rectangle 105" fill="#3ecc5f" d="M774 326h130v6H774z"/><path data-name="Rectangle 106" fill="#3ecc5f" d="M774 347h130v6H774z"/><path data-name="Rectangle 107" fill="#3ecc5f" d="M805 369h68v24h-68z"/><path data-name="Rectangle 108" fill="#3f3d56" d="M385 447h182v226H385z"/><path data-name="Rectangle 109" fill="#3ecc5f" d="M411.297 572.806h130v6h-130z"/><path data-name="Rectangle 110" fill="#3ecc5f" d="M411.297 593.806h130v6h-130z"/><path data-name="Rectangle 111" fill="#3ecc5f" d="M411.297 614.806h130v6h-130z"/><path data-name="Rectangle 112" fill="#3ecc5f" d="M411.297 635.806h130v6h-130z"/><path data-name="Path 136" d="M451.121 527.441h-41.3a144.46 144.46 0 010-49.247h41.3a88.612 88.612 0 000 49.247z" fill="#3ecc5f" opacity=".3"/><path data-name="Rectangle 113" fill="#3ecc5f" opacity=".3" d="M468.297 482.806h76v5h-76z"/><path data-name="Rectangle 114" fill="#3ecc5f" opacity=".3" d="M468.297 500.806h76v5h-76z"/><path data-name="Rectangle 115" fill="#3ecc5f" opacity=".3" d="M468.297 518.806h76v5h-76z"/><path data-name="Rectangle 116" fill="#3ecc5f" opacity=".3" d="M468.297 536.806h76v5h-76z"/></g><path data-name="Path 40" d="M458.432 75.048h64.016v25.911h-64.016z" fill="#fff" fill-rule="evenodd"/><path data-name="Path 41" d="M400.513 159.64a15.223 15.223 0 01-13.187-7.621 15.224 15.224 0 0013.186 22.863h15.243V159.64z" fill="#3ecc5f" fill-rule="evenodd"/><path data-name="Path 42" d="M469.086 79.145l53.362-3.335v-7.621a15.242 15.242 0 00-15.242-15.242h-68.589l-1.905-3.3a2.2 2.2 0 00-3.81 0l-1.905 3.3-1.905-3.3a2.2 2.2 0 00-3.81 0l-1.905 3.3-1.905-3.3a2.2 2.2 0 00-3.81 0l-1.905 3.3h-.05l-3.157-3.156a2.2 2.2 0 00-3.679.986l-1.043 3.89-3.957-1.061a2.2 2.2 0 00-2.694 2.695l1.059 3.958-3.89 1.044a2.2 2.2 0 00-.988 3.681l3.157 3.157v.049l-3.3 1.905a2.2 2.2 0 000 3.81l3.3 1.905-3.3 1.905a2.2 2.2 0 000 3.81l3.3 1.905-3.3 1.905a2.2 2.2 0 000 3.81l3.3 1.905-3.3 1.905a2.2 2.2 0 000 3.81l3.3 1.905-3.3 1.905a2.2 2.2 0 000 3.81l3.3 1.905-3.3 1.905a2.2 2.2 0 000 3.81l3.3 1.905-3.3 1.905a2.2 2.2 0 000 3.81l3.3 1.905-3.3 1.905a2.2 2.2 0 000 3.81l3.3 1.905-3.3 1.905a2.2 2.2 0 000 3.81l3.3 1.905-3.3 1.905a2.2 2.2 0 000 3.81l3.3 1.905-3.3 1.905a2.2 2.2 0 000 3.81l3.3 1.905-3.3 1.905a2.2 2.2 0 000 3.81l3.3 1.905a15.242 15.242 0 0015.242 15.242h91.451a15.242 15.242 0 0015.242-15.242V98.673l-53.364-3.335a8.112 8.112 0 010-16.193" fill="#3ecc5f" fill-rule="evenodd"/><path data-name="Path 43" d="M491.964 174.882h22.863v-30.484h-22.863z" fill="#3ecc5f" fill-rule="evenodd"/><path data-name="Path 44" d="M530.069 155.83a3.79 3.79 0 00-.487.049c-.029-.114-.056-.229-.088-.344a3.805 3.805 0 10-3.765-6.536q-.127-.129-.255-.256a3.8 3.8 0 10-6.545-3.769c-.113-.032-.226-.059-.339-.088a3.813 3.813 0 10-7.523 0c-.113.029-.226.056-.339.088a3.806 3.806 0 10-6.545 3.769 15.234 15.234 0 1025.4 14.66 3.8 3.8 0 10.487-7.572" fill="#44d860" fill-rule="evenodd"/><path data-name="Path 45" d="M499.585 129.156h22.863v-15.242h-22.863z" fill="#3ecc5f" fill-rule="evenodd"/><path data-name="Path 46" d="M530.069 123.441a1.905 1.905 0 100-3.81 1.958 1.958 0 00-.243.024c-.015-.057-.028-.114-.044-.171a1.906 1.906 0 00-.734-3.663 1.885 1.885 0 00-1.149.395q-.063-.065-.128-.128a1.885 1.885 0 00.386-1.139 1.905 1.905 0 00-3.658-.746 7.621 7.621 0 100 14.667 1.905 1.905 0 003.658-.746 1.885 1.885 0 00-.386-1.139q.065-.063.128-.128a1.885 1.885 0 001.149.395 1.905 1.905 0 00.734-3.663c.016-.056.029-.114.044-.171a1.964 1.964 0 00.243.024" fill="#44d860" fill-rule="evenodd"/><path data-name="Path 47" d="M430.996 77.715a1.905 1.905 0 01-1.905-1.905 5.716 5.716 0 00-11.431 0 1.905 1.905 0 01-3.81 0 9.526 9.526 0 0119.052 0 1.905 1.905 0 01-1.905 1.905" fill-rule="evenodd"/><path data-name="Path 48" d="M461.48 174.882h45.726a15.242 15.242 0 0015.242-15.242v-53.346h-45.726a15.242 15.242 0 00-15.242 15.242z" fill="#ffff50" fill-rule="evenodd"/><path data-name="Path 49" d="M511.031 129.918h-38.135a.762.762 0 110-1.524h38.135a.762.762 0 010 1.524m0 15.242h-38.135a.762.762 0 110-1.524h38.135a.762.762 0 010 1.524m0 15.242h-38.135a.762.762 0 110-1.524h38.135a.762.762 0 010 1.524m0-37.963h-38.135a.762.762 0 110-1.524h38.135a.762.762 0 010 1.524m0 15.1h-38.135a.762.762 0 110-1.524h38.135a.762.762 0 010 1.524m0 15.242h-38.135a.762.762 0 110-1.524h38.135a.762.762 0 010 1.524m11.416-70.409h-.026c-2.355.08-3.469 2.436-4.452 4.514-1.026 2.172-1.819 3.584-3.119 3.541-1.44-.052-2.263-1.678-3.134-3.4-1-1.977-2.145-4.219-4.544-4.135-2.321.079-3.439 2.129-4.425 3.938-1.049 1.927-1.763 3.1-3.141 3.044-1.469-.053-2.249-1.376-3.152-2.906-1.007-1.7-2.17-3.62-4.524-3.554-2.282.078-3.4 1.818-4.392 3.353-1.046 1.623-1.779 2.612-3.174 2.554-1.5-.053-2.28-1.151-3.179-2.421-1.009-1.427-2.146-3.043-4.493-2.965-2.231.076-3.352 1.5-4.341 2.757-.939 1.192-1.672 2.135-3.223 2.076a.763.763 0 10-.055 1.524c2.3.077 3.464-1.372 4.475-2.657.9-1.14 1.671-2.124 3.2-2.176 1.468-.062 2.156.85 3.2 2.321.988 1.4 2.11 2.983 4.368 3.064 2.365.079 3.5-1.688 4.51-3.252.9-1.4 1.678-2.6 3.163-2.655 1.366-.051 2.11 1.029 3.159 2.805.988 1.674 2.108 3.571 4.41 3.655 2.382.082 3.531-2 4.534-3.837.868-1.591 1.687-3.094 3.139-3.144 1.366-.032 2.079 1.216 3.133 3.3.985 1.946 2.1 4.15 4.439 4.234h.129c2.335 0 3.443-2.343 4.424-4.416.868-1.837 1.69-3.567 3.1-3.637z" fill-rule="evenodd"/><path data-name="Path 50" d="M446.238 174.882h30.484v-30.484h-30.484z" fill="#3ecc5f" fill-rule="evenodd"/><g data-name="Group 8" transform="rotate(-14.98 655.333 -1695.89)"><rect data-name="Rectangle 3" width="64.414" height="25.429" rx="2" fill="#d8d8d8"/><g data-name="Group 2" transform="translate(1.068 16.061)" fill="#4a4a4a"><rect data-name="Rectangle 4" width="3.721" height="3.721" rx="1" transform="translate(11.714)"/><rect data-name="Rectangle 5" width="3.721" height="3.721" rx="1" transform="translate(16.124)"/><rect data-name="Rectangle 6" width="3.721" height="3.721" rx="1" transform="translate(20.535)"/><rect data-name="Rectangle 7" width="3.721" height="3.721" rx="1" transform="translate(24.945)"/><rect data-name="Rectangle 8" width="3.721" height="3.721" rx="1" transform="translate(29.355)"/><rect data-name="Rectangle 9" width="3.721" height="3.721" rx="1" transform="translate(33.765)"/><rect data-name="Rectangle 10" width="3.721" height="3.721" rx="1" transform="translate(38.175)"/><rect data-name="Rectangle 11" width="3.721" height="3.721" rx="1" transform="translate(42.586)"/><rect data-name="Rectangle 12" width="3.721" height="3.721" rx="1" transform="translate(46.996)"/><path data-name="Path 51" d="M.762 0h9.363a.762.762 0 01.762.762v2.2a.762.762 0 01-.762.762H.762A.762.762 0 010 2.959V.762A.762.762 0 01.762 0zm51.543 0h9.364a.762.762 0 01.762.762v2.2a.762.762 0 01-.762.762H52.3a.762.762 0 01-.762-.762v-2.2A.762.762 0 0152.3 0z" fill-rule="evenodd"/></g><g data-name="Group 3" transform="translate(1.068 7.156)" fill="#4a4a4a"><path data-name="Path 52" d="M.762 0h3.574A.762.762 0 015.1.762v2.2a.762.762 0 01-.762.762H.762A.762.762 0 010 2.958V.762A.762.762 0 01.762 0z" fill-rule="evenodd"/><rect data-name="Rectangle 13" width="3.721" height="3.721" rx="1" transform="translate(5.788)"/><rect data-name="Rectangle 14" width="3.721" height="3.721" rx="1" transform="translate(10.198)"/><rect data-name="Rectangle 15" width="3.721" height="3.721" rx="1" transform="translate(14.609)"/><rect data-name="Rectangle 16" width="3.721" height="3.721" rx="1" transform="translate(19.019)"/><rect data-name="Rectangle 17" width="3.721" height="3.721" rx="1" transform="translate(23.429)"/><rect data-name="Rectangle 18" width="3.721" height="3.721" rx="1" transform="translate(27.839)"/><rect data-name="Rectangle 19" width="3.721" height="3.721" rx="1" transform="translate(32.249)"/><rect data-name="Rectangle 20" width="3.721" height="3.721" rx="1" transform="translate(36.66)"/><rect data-name="Rectangle 21" width="3.721" height="3.721" rx="1" transform="translate(41.069)"/><rect data-name="Rectangle 22" width="3.721" height="3.721" rx="1" transform="translate(45.479)"/><rect data-name="Rectangle 23" width="3.721" height="3.721" rx="1" transform="translate(49.89)"/><rect data-name="Rectangle 24" width="3.721" height="3.721" rx="1" transform="translate(54.3)"/><rect data-name="Rectangle 25" width="3.721" height="3.721" rx="1" transform="translate(58.71)"/></g><g data-name="Group 4" transform="rotate(180 31.75 3.329)" fill="#4a4a4a"><path data-name="Path 53" d="M.762 0h3.575A.762.762 0 015.1.762v2.2a.762.762 0 01-.762.762H.762A.762.762 0 010 2.959V.762A.762.762 0 01.762 0z" fill-rule="evenodd"/><rect data-name="Rectangle 26" width="3.721" height="3.721" rx="1" transform="translate(5.788)"/><rect data-name="Rectangle 27" width="3.721" height="3.721" rx="1" transform="translate(10.198)"/><rect data-name="Rectangle 28" width="3.721" height="3.721" rx="1" transform="translate(14.609)"/><rect data-name="Rectangle 29" width="3.721" height="3.721" rx="1" transform="translate(19.019)"/><rect data-name="Rectangle 30" width="3.721" height="3.721" rx="1" transform="translate(23.429)"/><rect data-name="Rectangle 31" width="3.721" height="3.721" rx="1" transform="translate(27.839)"/><rect data-name="Rectangle 32" width="3.721" height="3.721" rx="1" transform="translate(32.249)"/><rect data-name="Rectangle 33" width="3.721" height="3.721" rx="1" transform="translate(36.66)"/><rect data-name="Rectangle 34" width="3.721" height="3.721" rx="1" transform="translate(41.07)"/><rect data-name="Rectangle 35" width="3.721" height="3.721" rx="1" transform="translate(45.48)"/><rect data-name="Rectangle 36" width="3.721" height="3.721" rx="1" transform="translate(49.89)"/><rect data-name="Rectangle 37" width="3.721" height="3.721" rx="1" transform="translate(54.301)"/><rect data-name="Rectangle 38" width="3.721" height="3.721" rx="1" transform="translate(58.71)"/><rect data-name="Rectangle 39" width="3.721" height="3.721" rx="1" transform="translate(5.788)"/><rect data-name="Rectangle 40" width="3.721" height="3.721" rx="1" transform="translate(10.198)"/><rect data-name="Rectangle 41" width="3.721" height="3.721" rx="1" transform="translate(14.609)"/><rect data-name="Rectangle 42" width="3.721" height="3.721" rx="1" transform="translate(19.019)"/><rect data-name="Rectangle 43" width="3.721" height="3.721" rx="1" transform="translate(23.429)"/><rect data-name="Rectangle 44" width="3.721" height="3.721" rx="1" transform="translate(27.839)"/><rect data-name="Rectangle 45" width="3.721" height="3.721" rx="1" transform="translate(32.249)"/><rect data-name="Rectangle 46" width="3.721" height="3.721" rx="1" transform="translate(36.66)"/><rect data-name="Rectangle 47" width="3.721" height="3.721" rx="1" transform="translate(41.07)"/><rect data-name="Rectangle 48" width="3.721" height="3.721" rx="1" transform="translate(45.48)"/><rect data-name="Rectangle 49" width="3.721" height="3.721" rx="1" transform="translate(49.89)"/><rect data-name="Rectangle 50" width="3.721" height="3.721" rx="1" transform="translate(54.301)"/><rect data-name="Rectangle 51" width="3.721" height="3.721" rx="1" transform="translate(58.71)"/></g><g data-name="Group 6" fill="#4a4a4a"><path data-name="Path 54" d="M1.83 11.566h5.091a.762.762 0 01.762.762v2.2a.762.762 0 01-.762.762H1.83a.762.762 0 01-.762-.765v-2.196a.762.762 0 01.762-.763z" fill-rule="evenodd"/><g data-name="Group 5" transform="translate(8.51 11.566)"><rect data-name="Rectangle 52" width="3.721" height="3.721" rx="1"/><rect data-name="Rectangle 53" width="3.721" height="3.721" rx="1" transform="translate(4.41)"/><rect data-name="Rectangle 54" width="3.721" height="3.721" rx="1" transform="translate(8.82)"/><rect data-name="Rectangle 55" width="3.721" height="3.721" rx="1" transform="translate(13.231)"/><rect data-name="Rectangle 56" width="3.721" height="3.721" rx="1" transform="translate(17.641)"/><rect data-name="Rectangle 57" width="3.721" height="3.721" rx="1" transform="translate(22.051)"/><rect data-name="Rectangle 58" width="3.721" height="3.721" rx="1" transform="translate(26.461)"/><rect data-name="Rectangle 59" width="3.721" height="3.721" rx="1" transform="translate(30.871)"/><rect data-name="Rectangle 60" width="3.721" height="3.721" rx="1" transform="translate(35.281)"/><rect data-name="Rectangle 61" width="3.721" height="3.721" rx="1" transform="translate(39.691)"/><rect data-name="Rectangle 62" width="3.721" height="3.721" rx="1" transform="translate(44.101)"/></g><path data-name="Path 55" d="M57.922 11.566h4.815a.762.762 0 01.762.762v2.2a.762.762 0 01-.762.762h-4.816a.762.762 0 01-.762-.765v-2.196a.762.762 0 01.762-.763z" fill-rule="evenodd"/></g><g data-name="Group 7" transform="translate(1.068 20.662)" fill="#4a4a4a"><rect data-name="Rectangle 63" width="3.721" height="3.721" rx="1"/><rect data-name="Rectangle 64" width="3.721" height="3.721" rx="1" transform="translate(4.41)"/><rect data-name="Rectangle 65" width="3.721" height="3.721" rx="1" transform="translate(8.82)"/><rect data-name="Rectangle 66" width="3.721" height="3.721" rx="1" transform="translate(13.231)"/><path data-name="Path 56" d="M18.402 0h21.217a.762.762 0 01.762.762v2.2a.762.762 0 01-.762.762H18.402a.762.762 0 01-.762-.764V.762A.762.762 0 0118.402 0zm23.429 0h2.749a.762.762 0 01.76.762v2.2a.762.762 0 01-.762.762h-2.747a.762.762 0 01-.762-.762v-2.2A.762.762 0 0141.831 0z" fill-rule="evenodd"/><rect data-name="Rectangle 67" width="3.721" height="3.721" rx="1" transform="translate(46.031)"/><rect data-name="Rectangle 68" width="3.721" height="3.721" rx="1" transform="translate(50.441)"/><rect data-name="Rectangle 69" width="3.721" height="3.721" rx="1" transform="translate(58.71)"/><path data-name="Path 57" d="M54.575 1.585V.762A.762.762 0 0155.337 0h2.197a.762.762 0 01.762.762v.823z"/><path data-name="Path 58" d="M58.297 2.136v.823a.762.762 0 01-.762.762h-2.197a.762.762 0 01-.762-.762v-.823z"/></g><rect data-name="Rectangle 70" width="62.018" height="1.654" rx=".827" transform="translate(1.343 .816)" fill="#4a4a4a"/><rect data-name="Rectangle 71" width="3.477" height="1.103" rx=".551" transform="translate(2.859 1.092)" fill="#d8d8d8" opacity=".136"/><rect data-name="Rectangle 72" width="3.477" height="1.103" rx=".551" transform="translate(7.618 1.092)" fill="#d8d8d8" opacity=".136"/><rect data-name="Rectangle 73" width="3.477" height="1.103" rx=".551" transform="translate(11.279 1.092)" fill="#d8d8d8" opacity=".136"/><rect data-name="Rectangle 74" width="3.477" height="1.103" rx=".551" transform="translate(14.939 1.092)" fill="#d8d8d8" opacity=".136"/><rect data-name="Rectangle 75" width="3.477" height="1.103" rx=".551" transform="translate(18.6 1.092)" fill="#d8d8d8" opacity=".136"/><rect data-name="Rectangle 76" width="3.477" height="1.103" rx=".551" transform="translate(23.176 1.092)" fill="#d8d8d8" opacity=".136"/><rect data-name="Rectangle 77" width="3.477" height="1.103" rx=".551" transform="translate(26.836 1.092)" fill="#d8d8d8" opacity=".136"/><rect data-name="Rectangle 78" width="3.477" height="1.103" rx=".551" transform="translate(30.497 1.092)" fill="#d8d8d8" opacity=".136"/><rect data-name="Rectangle 79" width="3.477" height="1.103" rx=".551" transform="translate(34.158 1.092)" fill="#d8d8d8" opacity=".136"/><rect data-name="Rectangle 80" width="3.477" height="1.103" rx=".551" transform="translate(38.734 1.092)" fill="#d8d8d8" opacity=".136"/><rect data-name="Rectangle 81" width="3.477" height="1.103" rx=".551" transform="translate(42.394 1.092)" fill="#d8d8d8" opacity=".136"/><rect data-name="Rectangle 82" width="3.477" height="1.103" rx=".551" transform="translate(46.055 1.092)" fill="#d8d8d8" opacity=".136"/><rect data-name="Rectangle 83" width="3.477" height="1.103" rx=".551" transform="translate(50.631 1.092)" fill="#d8d8d8" opacity=".136"/><rect data-name="Rectangle 84" width="3.477" height="1.103" rx=".551" transform="translate(54.291 1.092)" fill="#d8d8d8" opacity=".136"/><rect data-name="Rectangle 85" width="3.477" height="1.103" rx=".551" transform="translate(57.952 1.092)" fill="#d8d8d8" opacity=".136"/></g><path data-name="Path 59" d="M491.964 155.83a3.79 3.79 0 00-.487.049c-.029-.114-.056-.229-.088-.344a3.805 3.805 0 10-3.765-6.536q-.127-.129-.255-.256a3.8 3.8 0 10-6.545-3.769c-.113-.032-.226-.059-.339-.088a3.813 3.813 0 10-7.523 0c-.113.029-.226.056-.339.088a3.806 3.806 0 10-6.545 3.769 15.234 15.234 0 1025.4 14.66 3.8 3.8 0 10.487-7.572" fill="#44d860" fill-rule="evenodd"/><path data-name="Path 60" d="M446.238 129.156h30.484v-15.242h-30.484z" fill="#3ecc5f" fill-rule="evenodd"/><path data-name="Path 61" d="M484.343 123.44a1.905 1.905 0 000-3.81 1.962 1.962 0 00-.243.024c-.015-.057-.028-.114-.044-.171a1.906 1.906 0 00-.734-3.663 1.885 1.885 0 00-1.149.395q-.063-.065-.128-.128a1.885 1.885 0 00.386-1.139 1.905 1.905 0 00-3.658-.746 7.621 7.621 0 100 14.667 1.905 1.905 0 003.658-.746 1.885 1.885 0 00-.386-1.139q.065-.063.128-.128a1.885 1.885 0 001.149.395 1.905 1.905 0 00.734-3.663c.016-.056.029-.114.044-.171a1.959 1.959 0 00.243.024" fill="#44d860" fill-rule="evenodd"/><path data-name="Path 62" d="M491.964 67.236a2.069 2.069 0 01-.373-.038 1.921 1.921 0 01-.358-.107 1.98 1.98 0 01-.328-.175 2.886 2.886 0 01-.29-.236 2.232 2.232 0 01-.235-.29 1.881 1.881 0 01-.32-1.059 2.07 2.07 0 01.038-.373 2.2 2.2 0 01.106-.358 2 2 0 01.176-.328 1.836 1.836 0 01.525-.526 1.979 1.979 0 01.328-.175 1.92 1.92 0 01.358-.107 1.762 1.762 0 01.747 0 1.852 1.852 0 01.686.282 2.885 2.885 0 01.29.236 2.8 2.8 0 01.236.29 1.942 1.942 0 01.175.328 2 2 0 01.145.732 1.932 1.932 0 01-.556 1.349 2.886 2.886 0 01-.29.236 1.9 1.9 0 01-1.059.32m15.242-.953a1.945 1.945 0 01-1.35-.556 2.9 2.9 0 01-.236-.29 1.882 1.882 0 01-.32-1.059 1.945 1.945 0 01.556-1.349 2.889 2.889 0 01.29-.236 1.981 1.981 0 01.328-.175 1.919 1.919 0 01.358-.107 1.763 1.763 0 01.747 0 1.852 1.852 0 01.686.282 2.882 2.882 0 01.29.236 1.946 1.946 0 01.556 1.349 2.142 2.142 0 01-.038.373 1.94 1.94 0 01-.107.358 2.708 2.708 0 01-.175.328 2.8 2.8 0 01-.236.29 2.882 2.882 0 01-.29.236 1.9 1.9 0 01-1.059.32" fill-rule="evenodd"/></g></svg>