<svg data-name="Layer 1" xmlns="http://www.w3.org/2000/svg" width="1129" height="663" viewBox="0 0 1129 663"><circle cx="321" cy="321" r="321" fill="#f2f2f2"/><ellipse cx="559" cy="635.5" rx="514" ry="27.5" fill="#3f3d56"/><ellipse cx="558" cy="627" rx="460" ry="22" opacity=".2"/><path fill="#3f3d56" d="M131 152.5h840v50H131z"/><path d="M131 608.83a21.67 21.67 0 0 0 21.67 21.67h796.66A21.67 21.67 0 0 0 971 608.83V177.5H131zM949.33 117.5H152.67A21.67 21.67 0 0 0 131 139.17v38.33h840v-38.33a21.67 21.67 0 0 0-21.67-21.67z" fill="#3f3d56"/><path d="M949.33 117.5H152.67A21.67 21.67 0 0 0 131 139.17v38.33h840v-38.33a21.67 21.67 0 0 0-21.67-21.67z" opacity=".2"/><circle cx="181" cy="147.5" r="13" fill="#3f3d56"/><circle cx="217" cy="147.5" r="13" fill="#3f3d56"/><circle cx="253" cy="147.5" r="13" fill="#3f3d56"/><rect x="168" y="213.5" width="337" height="386" rx="5.335" fill="#606060"/><rect x="603" y="272.5" width="284" height="22" rx="5.476" fill="#2e8555"/><rect x="537" y="352.5" width="416" height="15" rx="5.476" fill="#2e8555"/><rect x="537" y="396.5" width="416" height="15" rx="5.476" fill="#2e8555"/><rect x="537" y="440.5" width="416" height="15" rx="5.476" fill="#2e8555"/><rect x="537" y="484.5" width="416" height="15" rx="5.476" fill="#2e8555"/><rect x="865" y="552.5" width="88" height="26" rx="7.028" fill="#3ecc5f"/><path d="M1053.103 506.116a30.114 30.114 0 0 0 3.983-15.266c0-13.797-8.544-24.98-19.083-24.98s-19.082 11.183-19.082 24.98a30.114 30.114 0 0 0 3.983 15.266 31.248 31.248 0 0 0 0 30.532 31.248 31.248 0 0 0 0 30.532 31.248 31.248 0 0 0 0 30.532 30.114 30.114 0 0 0-3.983 15.266c0 13.797 8.543 24.981 19.082 24.981s19.083-11.184 19.083-24.98a30.114 30.114 0 0 0-3.983-15.267 31.248 31.248 0 0 0 0-30.532 31.248 31.248 0 0 0 0-30.532 31.248 31.248 0 0 0 0-30.532z" fill="#3f3d56"/><ellipse cx="1038.003" cy="460.318" rx="19.083" ry="24.981" fill="#3f3d56"/><ellipse cx="1038.003" cy="429.786" rx="19.083" ry="24.981" fill="#3f3d56"/><path d="M1109.439 220.845a91.61 91.61 0 0 0 7.106-10.461l-50.14-8.235 54.228.403a91.566 91.566 0 0 0 1.746-72.426l-72.755 37.742 67.097-49.321A91.413 91.413 0 1 0 965.75 220.845a91.458 91.458 0 0 0-10.425 16.67l65.087 33.814-69.4-23.292a91.46 91.46 0 0 0 14.738 85.837 91.406 91.406 0 1 0 143.689 0 91.418 91.418 0 0 0 0-113.03z" fill="#3ecc5f" fill-rule="evenodd"/><path d="M946.188 277.36a91.013 91.013 0 0 0 19.562 56.514 91.406 91.406 0 1 0 143.689 0c12.25-15.553-163.25-66.774-163.25-56.515z" opacity=".1"/><path d="M330.12 342.936h111.474v45.12H330.12z" fill="#fff" fill-rule="evenodd"/><path d="M229.263 490.241a26.51 26.51 0 0 1-22.963-13.27 26.51 26.51 0 0 0 22.963 39.812h26.541V490.24z" fill="#3ecc5f" fill-rule="evenodd"/><path d="M348.672 350.07l92.922-5.807v-13.27a26.54 26.54 0 0 0-26.541-26.542H295.616l-3.318-5.746a3.83 3.83 0 0 0-6.635 0l-3.318 5.746-3.317-5.746a3.83 3.83 0 0 0-6.636 0l-3.317 5.746-3.318-5.746a3.83 3.83 0 0 0-6.635 0l-3.318 5.746c-.03 0-.056.004-.086.004l-5.497-5.495a3.83 3.83 0 0 0-6.407 1.717l-1.817 6.773-6.89-1.847a3.83 3.83 0 0 0-4.691 4.693l1.844 6.891-6.77 1.814a3.832 3.832 0 0 0-1.72 6.41l5.497 5.497c0 .028-.004.055-.004.085l-5.747 3.317a3.83 3.83 0 0 0 0 6.636l5.747 3.317-5.747 3.318a3.83 3.83 0 0 0 0 6.635l5.747 3.318-5.747 3.318a3.83 3.83 0 0 0 0 6.635l5.747 3.318-5.747 3.317a3.83 3.83 0 0 0 0 6.636l5.747 3.317-5.747 3.318a3.83 3.83 0 0 0 0 6.636l5.747 3.317-5.747 3.318a3.83 3.83 0 0 0 0 6.635l5.747 3.318-5.747 3.318a3.83 3.83 0 0 0 0 6.635l5.747 3.318-5.747 3.317a3.83 3.83 0 0 0 0 6.636l5.747 3.317-5.747 3.318a3.83 3.83 0 0 0 0 6.635l5.747 3.318-5.747 3.318a3.83 3.83 0 0 0 0 6.635l5.747 3.318-5.747 3.317a3.83 3.83 0 0 0 0 6.636l5.747 3.317-5.747 3.318a3.83 3.83 0 0 0 0 6.635l5.747 3.318a26.54 26.54 0 0 0 26.541 26.542h159.249a26.54 26.54 0 0 0 26.541-26.542V384.075l-92.922-5.807a14.126 14.126 0 0 1 0-28.197" fill="#3ecc5f" fill-rule="evenodd"/><path d="M388.511 516.783h39.812V463.7h-39.812z" fill="#3ecc5f" fill-rule="evenodd"/><path d="M454.865 483.606a6.602 6.602 0 0 0-.848.085c-.05-.2-.099-.4-.154-.599a6.627 6.627 0 1 0-6.557-11.382q-.22-.225-.445-.446a6.624 6.624 0 1 0-11.397-6.564c-.196-.055-.394-.102-.59-.152a6.64 6.64 0 1 0-13.101 0c-.197.05-.394.097-.59.152a6.628 6.628 0 1 0-11.398 6.564 26.528 26.528 0 1 0 44.232 25.528 6.621 6.621 0 1 0 .848-13.186" fill="#44d860" fill-rule="evenodd"/><path d="M401.782 437.158h39.812v-26.541h-39.812z" fill="#3ecc5f" fill-rule="evenodd"/><path d="M454.865 427.205a3.318 3.318 0 0 0 0-6.635 3.411 3.411 0 0 0-.424.042c-.026-.1-.049-.199-.077-.298a3.319 3.319 0 0 0-1.278-6.38 3.282 3.282 0 0 0-2 .688q-.11-.113-.224-.223a3.282 3.282 0 0 0 .672-1.983 3.318 3.318 0 0 0-6.37-1.299 13.27 13.27 0 1 0 0 25.541 3.318 3.318 0 0 0 6.37-1.3 3.282 3.282 0 0 0-.672-1.982q.114-.11.223-.223a3.282 3.282 0 0 0 2.001.688 3.318 3.318 0 0 0 1.278-6.38c.028-.098.05-.199.077-.298a3.413 3.413 0 0 0 .424.042" fill="#44d860" fill-rule="evenodd"/><path d="M282.345 347.581a3.318 3.318 0 0 1-3.317-3.318 9.953 9.953 0 1 0-19.906 0 3.318 3.318 0 1 1-6.636 0 16.588 16.588 0 1 1 33.177 0 3.318 3.318 0 0 1-3.318 3.318" fill-rule="evenodd"/><path d="M335.428 516.783h79.625a26.54 26.54 0 0 0 26.541-26.542v-92.895H361.97a26.54 26.54 0 0 0-26.542 26.542z" fill="#ffff50" fill-rule="evenodd"/><path d="M421.714 438.485h-66.406a1.327 1.327 0 0 1 0-2.654h66.406a1.327 1.327 0 0 1 0 2.654m0 26.542h-66.406a1.327 1.327 0 1 1 0-2.654h66.406a1.327 1.327 0 0 1 0 2.654m0 26.541h-66.406a1.327 1.327 0 1 1 0-2.654h66.406a1.327 1.327 0 0 1 0 2.654m0-66.106h-66.406a1.327 1.327 0 0 1 0-2.655h66.406a1.327 1.327 0 0 1 0 2.655m0 26.294h-66.406a1.327 1.327 0 0 1 0-2.654h66.406a1.327 1.327 0 0 1 0 2.654m0 26.542h-66.406a1.327 1.327 0 0 1 0-2.655h66.406a1.327 1.327 0 0 1 0 2.655m19.88-122.607c-.016 0-.03-.008-.045-.007-4.1.14-6.04 4.241-7.753 7.86-1.786 3.783-3.168 6.242-5.432 6.167-2.506-.09-3.94-2.922-5.458-5.918-1.744-3.443-3.734-7.347-7.913-7.201-4.042.138-5.99 3.708-7.706 6.857-1.828 3.355-3.071 5.394-5.47 5.3-2.557-.093-3.916-2.395-5.488-5.06-1.753-2.967-3.78-6.304-7.878-6.19-3.973.137-5.925 3.166-7.648 5.84-1.822 2.826-3.098 4.549-5.527 4.447-2.618-.093-3.97-2.004-5.535-4.216-1.757-2.486-3.737-5.3-7.823-5.163-3.886.133-5.838 2.615-7.56 4.802-1.634 2.075-2.91 3.718-5.611 3.615a1.328 1.328 0 1 0-.096 2.654c4.004.134 6.032-2.389 7.793-4.628 1.562-1.985 2.91-3.698 5.564-3.789 2.556-.108 3.754 1.48 5.567 4.041 1.721 2.434 3.675 5.195 7.606 5.337 4.118.138 6.099-2.94 7.853-5.663 1.569-2.434 2.923-4.535 5.508-4.624 2.38-.088 3.674 1.792 5.5 4.885 1.722 2.916 3.671 6.22 7.68 6.365 4.147.143 6.15-3.477 7.895-6.682 1.511-2.77 2.938-5.388 5.466-5.475 2.38-.056 3.62 2.116 5.456 5.746 1.714 3.388 3.658 7.226 7.73 7.373l.224.004c4.066 0 5.996-4.08 7.704-7.689 1.511-3.198 2.942-6.21 5.397-6.334z" fill-rule="evenodd"/><path d="M308.887 516.783h53.083V463.7h-53.083z" fill="#3ecc5f" fill-rule="evenodd"/><path d="M388.511 483.606a6.602 6.602 0 0 0-.848.085c-.05-.2-.098-.4-.154-.599a6.627 6.627 0 1 0-6.557-11.382q-.22-.225-.444-.446a6.624 6.624 0 1 0-11.397-6.564c-.197-.055-.394-.102-.59-.152a6.64 6.64 0 1 0-13.102 0c-.196.05-.394.097-.59.152a6.628 6.628 0 1 0-11.397 6.564 26.528 26.528 0 1 0 44.231 25.528 6.621 6.621 0 1 0 .848-13.186" fill="#44d860" fill-rule="evenodd"/><path d="M308.887 437.158h53.083v-26.541h-53.083z" fill="#3ecc5f" fill-rule="evenodd"/><path d="M375.24 427.205a3.318 3.318 0 1 0 0-6.635 3.411 3.411 0 0 0-.423.042c-.026-.1-.05-.199-.077-.298a3.319 3.319 0 0 0-1.278-6.38 3.282 3.282 0 0 0-2.001.688q-.11-.113-.223-.223a3.282 3.282 0 0 0 .671-1.983 3.318 3.318 0 0 0-6.37-1.299 13.27 13.27 0 1 0 0 25.541 3.318 3.318 0 0 0 6.37-1.3 3.282 3.282 0 0 0-.671-1.982q.113-.11.223-.223a3.282 3.282 0 0 0 2.001.688 3.318 3.318 0 0 0 1.278-6.38c.028-.098.05-.199.077-.298a3.413 3.413 0 0 0 .423.042" fill="#44d860" fill-rule="evenodd"/><path d="M388.511 329.334a3.603 3.603 0 0 1-.65-.067 3.344 3.344 0 0 1-.624-.185 3.447 3.447 0 0 1-.572-.306 5.027 5.027 0 0 1-.504-.411 3.887 3.887 0 0 1-.41-.504 3.275 3.275 0 0 1-.558-1.845 3.602 3.602 0 0 1 .067-.65 3.826 3.826 0 0 1 .184-.624 3.489 3.489 0 0 1 .307-.57 3.197 3.197 0 0 1 .914-.916 3.447 3.447 0 0 1 .572-.305 3.344 3.344 0 0 1 .624-.186 3.07 3.07 0 0 1 1.3 0 3.223 3.223 0 0 1 1.195.49 5.028 5.028 0 0 1 .504.412 4.88 4.88 0 0 1 .411.504 3.382 3.382 0 0 1 .306.571 3.478 3.478 0 0 1 .252 1.274 3.364 3.364 0 0 1-.969 2.349 5.027 5.027 0 0 1-.504.411 3.306 3.306 0 0 1-1.845.558m26.542-1.66a3.388 3.388 0 0 1-2.35-.968 5.042 5.042 0 0 1-.41-.504 3.275 3.275 0 0 1-.558-1.845 3.387 3.387 0 0 1 .967-2.349 5.026 5.026 0 0 1 .505-.411 3.447 3.447 0 0 1 .572-.305 3.343 3.343 0 0 1 .623-.186 3.07 3.07 0 0 1 1.3 0 3.224 3.224 0 0 1 1.195.49 5.026 5.026 0 0 1 .504.412 3.388 3.388 0 0 1 .97 2.35 3.726 3.726 0 0 1-.067.65 3.374 3.374 0 0 1-.186.623 4.715 4.715 0 0 1-.305.57 4.88 4.88 0 0 1-.412.505 5.026 5.026 0 0 1-.504.412 3.305 3.305 0 0 1-1.844.557" fill-rule="evenodd"/></svg>