<svg xmlns="http://www.w3.org/2000/svg" width="1126.194" height="855" viewBox="0 0 1126.194 855"><g data-name="Group 1"><path data-name="Path 1" d="M544.865 755.938C302.466 737.491 13.397 549.672 28.111 356.281S322.797-17.142 565.197 1.305s381.931 379.862 367.214 573.253-145.148 199.827-387.546 181.38z" fill="#f2f2f2"/><ellipse data-name="Ellipse 1" cx="506" cy="31" rx="506" ry="31" transform="translate(59.194 725)" fill="#3f3d56"/><ellipse data-name="Ellipse 2" cx="431" cy="20.5" rx="431" ry="20.5" transform="translate(134.194 735)" opacity=".1"/><ellipse data-name="Ellipse 3" cx="212.194" cy="18.5" rx="212.194" ry="18.5" transform="translate(0 818)" fill="#3f3d56"/><ellipse data-name="Ellipse 4" cx="180.742" cy="12.234" rx="180.742" ry="12.234" transform="translate(31.452 823.968)" opacity=".1"/><path data-name="Rectangle 1" fill="#3f3d56" d="M196.194 162h752v590h-752z"/><path data-name="Path 2" d="M563.638 242.629H378.121a2.251 2.251 0 110-4.5h185.517a2.251 2.251 0 010 4.5z" fill="#f2f2f2"/><path data-name="Path 3" d="M766.717 267.395H474.932a2.251 2.251 0 010-4.5h291.785a2.251 2.251 0 010 4.5z" fill="#f2f2f2"/><path data-name="Path 4" d="M564.539 292.161H379.021a2.251 2.251 0 110-4.5h185.518a2.251 2.251 0 110 4.5z" fill="#f2f2f2"/><path data-name="Path 5" d="M766.717 292.611h-185.52a2.251 2.251 0 010-4.5h185.52a2.251 2.251 0 010 4.5z" fill="#f2f2f2"/><path data-name="Path 6" d="M564.989 316.926H379.471a2.251 2.251 0 110-4.5h185.518a2.251 2.251 0 110 4.5z" fill="#f2f2f2"/><path data-name="Path 7" d="M565.439 341.692H379.922a2.251 2.251 0 010-4.5h185.517a2.251 2.251 0 110 4.5z" fill="#f2f2f2"/><path data-name="Path 8" d="M649.643 243.079h-53.134a2.251 2.251 0 110-4.5h53.134a2.251 2.251 0 010 4.5z" fill="#f2f2f2"/><path data-name="Path 9" d="M649.643 316.926h-53.134a2.251 2.251 0 110-4.5h53.134a2.251 2.251 0 010 4.5z" fill="#f2f2f2"/><path data-name="Path 10" d="M649.643 341.242h-53.134a2.251 2.251 0 010-4.5h53.134a2.251 2.251 0 010 4.5z" fill="#f2f2f2"/><path data-name="Path 11" d="M738.797 341.242h-53.131a2.251 2.251 0 010-4.5h53.131a2.251 2.251 0 010 4.5z" fill="#f2f2f2"/><path data-name="Path 12" d="M430.804 267.395H377.67a2.251 2.251 0 110-4.5h53.134a2.251 2.251 0 010 4.5z" fill="#f2f2f2"/><path data-name="Path 13" d="M563.863 607.361H378.346a2.251 2.251 0 110-4.5h185.517a2.251 2.251 0 110 4.5z" fill="#f2f2f2"/><path data-name="Path 14" d="M562.963 656.892H377.445a2.251 2.251 0 110-4.5h185.518a2.251 2.251 0 010 4.5z" fill="#f2f2f2"/><path data-name="Path 15" d="M563.413 681.658H377.897a2.251 2.251 0 110-4.5h185.516a2.251 2.251 0 010 4.5z" fill="#f2f2f2"/><path data-name="Path 16" d="M642.663 657.342H589.53a2.251 2.251 0 010-4.5h53.134a2.251 2.251 0 110 4.5z" fill="#f2f2f2"/><path data-name="Path 17" d="M642.663 681.658H589.53a2.251 2.251 0 010-4.5h53.134a2.251 2.251 0 110 4.5z" fill="#f2f2f2"/><path data-name="Path 18" d="M731.82 657.342h-53.134a2.251 2.251 0 010-4.5h53.134a2.251 2.251 0 010 4.5z" fill="#f2f2f2"/><path data-name="Path 19" d="M766.942 632.126H475.157a2.251 2.251 0 110-4.5h291.785a2.251 2.251 0 110 4.5z" fill="#f2f2f2"/><path data-name="Path 20" d="M431.029 632.126h-53.132a2.251 2.251 0 110-4.5h53.134a2.251 2.251 0 110 4.5z" fill="#f2f2f2"/><path data-name="Path 21" d="M766.942 706.874H475.157a2.251 2.251 0 110-4.5h291.785a2.251 2.251 0 110 4.5z" fill="#f2f2f2"/><path data-name="Path 22" d="M431.029 706.874h-53.132a2.251 2.251 0 110-4.5h53.134a2.251 2.251 0 110 4.5z" fill="#f2f2f2"/><circle data-name="Ellipse 5" cx="9" cy="9" r="9" transform="translate(207.194 168)" fill="#3ecc5f"/><circle data-name="Ellipse 6" cx="9" cy="9" r="9" transform="translate(231.194 168)" fill="#3ecc5f"/><circle data-name="Ellipse 7" cx="9" cy="9" r="9" transform="translate(255.194 168)" fill="#3ecc5f"/><path data-name="Rectangle 2" opacity=".1" d="M196.194 192h752v3h-752z"/><path data-name="Path 25" d="M1126.197 607.454c0 63.771-37.911 86.038-84.676 86.038s-84.676-22.266-84.676-86.038 84.676-144.9 84.676-144.9 84.676 81.128 84.676 144.9z" fill="#3ecc5f"/><path data-name="Path 26" d="M1038.433 683.736l.867-53.371 36.091-66.027-35.955 57.655.39-24 24.873-47.769-24.77 41.419.7-43.161 26.635-38.031-26.524 31.249.438-79.141-2.753 104.769.226-4.322-27.08-41.451 26.646 49.748-2.523 48.2-.075-1.28L1004.4 574.6l31.124 48.141-.315 6.028-.057.091.026.495-6.4 122.3h8.553l1.026-63.168 31.049-48.024z" fill="#3f3d56"/><path data-name="Path 27" d="M122.622 751.091a43.118 43.118 0 01-8.178 3.5c-5.079 1.387-10.507.878-15.637 2.063-2.1.485-4.386 1.5-5.054 3.549-.49 1.5.043 3.127.553 4.623 5.669 16.62 9.085 34.266 18.125 49.32a74.64 74.64 0 0013.993 16.988c2.055 1.852 4.384 3.664 7.135 3.955a7.248 7.248 0 007.371-10.182c-.811-1.8-2.317-3.2-3.289-4.916a18.757 18.757 0 01-1.819-6.991c-.893-7.108-1.753-14.538.709-21.265 1.652-4.512 4.682-8.359 7.206-12.448s4.622-8.772 4.06-13.544c-.383-3.257-1.972-6.237-3.65-9.054s-5-10.408-8.383-11.35c-3.507-.975-10.084 4.185-13.142 5.752z" fill="#2f2e41"/><path data-name="Path 28" d="M215.057 808.5a14.019 14.019 0 01-.663 4.745c-1.058 2.793-3.681 4.706-5.036 7.367-1.885 3.7-1.031 8.174.218 12.135.783 2.483 1.81 5.067 3.912 6.6a12.894 12.894 0 005.954 1.907c18.036 2.5 36.358 1.064 54.559 1.587 3.317.1 6.829.211 9.725-1.41s4.686-5.7 2.717-8.368c-1.769-2.4-5.265-2.376-8.242-2.518a33.912 33.912 0 01-20.913-8.615 15.11 15.11 0 01-2.933-3.377 20.753 20.753 0 01-1.534-3.518 156.8 156.8 0 00-9.084-20.119c-.979-1.815-2.087-3.7-3.906-4.676a10.322 10.322 0 00-4.239-.926c-4.536-.294-16.283-1.838-19.791 1.69-3.243 3.264-.672 13.356-.744 17.496z" fill="#2f2e41"/><circle data-name="Ellipse 8" cx="28.975" cy="28.975" r="28.975" transform="translate(213.996 347.745)" fill="#fbbebe"/><path data-name="Path 29" d="M216.806 400.646c-1.723 4.614-4.647 8.947-8.9 11.43l40.075 8.175a42.453 42.453 0 01-.562-17.869 10.3 10.3 0 00.24-4.409c-.754-2.907-4.026-4.307-6.955-4.974-7.314-1.667-13.782-2.561-20.579-5.792-2.078 3.556-1.787 9.338-3.319 13.439z" fill="#fbbebe"/><path data-name="Path 30" d="M207.571 401.227a31.338 31.338 0 0127.313.714c5.138 2.707 9.392 6.794 13.572 10.826 3.853 3.717 7.962 7.972 8.236 13.319.132 2.59-.676 5.123-1.084 7.684a25.766 25.766 0 0013.78 26.469c3.184 5.3 3.841 11.729 3.889 17.914.185 23.436-7.209 47.161-1.93 70 1.239 5.361 3.162 10.554 4.232 15.951 1.387 6.991 1.318 14.18 2.044 21.27a95.267 95.267 0 005.113 22.5c-1.744 2.774-5.374 3.837-8.642 3.613s-6.325-1.643-9.242-3.136c-14.123-7.227-27.059-16.757-41.687-22.9-9.678-4.064-19.987-6.595-29.376-11.288s-18.12-12.142-20.99-22.238c-1.241-4.365-1.318-8.965-1.385-13.5-.285-19.114-.55-38.436 3.61-57.094 3.669-16.454 10.741-32.194 12.284-48.981.5-5.464.513-11.314 3.566-15.873 4.314-6.457 13.632-8.126 16.697-15.25z" fill="#2f2e41"/><path data-name="Path 31" d="M226.492 377.129c1.707-2.227 5-2.531 7.728-1.872s5.243 2.064 8 2.6a4.675 4.675 0 003.743-.526 5.444 5.444 0 001.615-3.57 68.164 68.164 0 00.671-17.38 5.146 5.146 0 01.159-2.437c.682-1.643 2.763-2.035 4.462-2.562a13.316 13.316 0 009.013-13.633 5.421 5.421 0 00-1.657-3.741c-1.175-.958-2.82-1.016-4.336-1.029q-11.683-.094-23.367.006c-2.883.025-5.91.1-8.409 1.533-1.848 1.063-3.222 2.773-4.88 4.112-4.326 3.491-10.178 4.2-15.441 5.991a15.308 15.308 0 00-6.768 4.036c-1.75 2-2.592 4.973-1.493 7.393a26.248 26.248 0 001.887 2.9c3.1 4.964 1.038 11.4 1.5 17.24.579 7.288 11.365 19.112 18.679 20.836 11.807 2.785 4.985-15.112 8.894-19.897z" fill="#2f2e41"/><path data-name="Path 32" d="M210.135 696.683c.745 5.322 1.7 10.662 1.445 16.029-.357 7.494-3.059 14.714-3.559 22.2-.373 5.591.49 11.242-.287 16.791-.5 3.553-1.656 6.979-2.373 10.494a43.4 43.4 0 006.973 33.265 5.448 5.448 0 002.023 1.961 5.715 5.715 0 002.508.332 179.954 179.954 0 0025.17-2.287 2.415 2.415 0 001.616-.713 2.266 2.266 0 00.351-.954c1.544-7.936-1.977-15.893-2.872-23.928-.956-8.58 1.1-17.177 3.146-25.565a113.554 113.554 0 013.467-12.228c.988-2.7 2.181-5.321 3.037-8.063a61.463 61.463 0 002.2-13.2q.892-10.575.945-21.2a88.956 88.956 0 00-1.665-20.01c-1.878-8.338-5.724-16.081-9.536-23.73a15.029 15.029 0 00-5.618 2.67 125.379 125.379 0 01-15.35 8.481c-3.567 1.657-10.522 2.833-12.786 6.286-2.232 3.4-.792 10.351-.621 14.106q.442 9.664 1.786 19.263z" fill="#2f2e41"/><path data-name="Path 33" d="M210.135 696.683c.745 5.322 1.7 10.662 1.445 16.029-.357 7.494-3.059 14.714-3.559 22.2-.373 5.591.49 11.242-.287 16.791-.5 3.553-1.656 6.979-2.373 10.494a43.4 43.4 0 006.973 33.265 5.448 5.448 0 002.023 1.961 5.715 5.715 0 002.508.332 179.954 179.954 0 0025.17-2.287 2.415 2.415 0 001.616-.713 2.266 2.266 0 00.351-.954c1.544-7.936-1.977-15.893-2.872-23.928-.956-8.58 1.1-17.177 3.146-25.565a113.554 113.554 0 013.467-12.228c.988-2.7 2.181-5.321 3.037-8.063a61.463 61.463 0 002.2-13.2q.892-10.575.945-21.2a88.956 88.956 0 00-1.665-20.01c-1.878-8.338-5.724-16.081-9.536-23.73a15.029 15.029 0 00-5.618 2.67 125.379 125.379 0 01-15.35 8.481c-3.567 1.657-10.522 2.833-12.786 6.286-2.232 3.4-.792 10.351-.621 14.106q.442 9.664 1.786 19.263z" opacity=".1"/><path data-name="Path 34" d="M170.961 583.018c-3.848 10.359 1.808 21.554 6.722 31.452 12.106 24.386 20.513 50.407 28.874 76.317.626 1.941 1.252 4.058.554 5.974a7.825 7.825 0 01-2.822 3.347c-5.765 4.379-13.107 5.939-19.975 8.23a90.183 90.183 0 00-18.943 8.88c-4.977 3.084-9.639 6.644-14.292 10.2l-14.812 11.313a9.9 9.9 0 00-2.476 2.4c-1.429 2.241-.843 5.167-.132 7.728a131.434 131.434 0 007.252 19.792 6.911 6.911 0 002.63 3.447c2.312 1.242 5.14-.405 6.905-2.347s3.292-4.359 5.781-5.193 5.222.176 7.818-.189c4.2-.589 6.986-4.457 10.013-7.427 12.365-12.131 33.01-11.251 46.612-21.977a59.227 59.227 0 016.231-4.868c2.3-1.359 4.907-2.105 7.293-3.307 7.257-3.654 11.819-11.209 14.262-18.957s3.141-15.928 4.9-23.861c.908-4.1 2.1-8.158 2.507-12.338a66.09 66.09 0 00-.253-11.666l-4.913-60.72c-.4-4.943-.8-9.892-1.576-14.791-14.577.521-29.143 1.108-43.728 1.28-11.601.137-23.42.949-34.432-2.719z" fill="#2f2e41"/><path data-name="Path 35" d="M165.603 597.221c1.977 3.18 6.79 3.114 10.1 1.371s5.889-4.673 9.211-6.4c4.464-2.323 9.746-2.235 14.776-2.093 7.964.225 16.025.464 23.687 2.647 7.925 2.257 15.64 6.6 23.834 5.736 1.426-.151 2.985-.56 3.761-1.766a5.545 5.545 0 00.62-2.836l.268-7.159a6.464 6.464 0 00-.57-3.625 6.081 6.081 0 00-2.716-2.079c-11.663-5.646-24.965-6.7-37.915-7.141q-9.875-.338-19.757-.278c-5.591.034-12.3-.775-17.739.719-7.292 2.003-11.266 16.952-7.56 22.904z" fill="#2f2e41"/><path data-name="Path 36" d="M238.839 409.726c-15.282-.135-29.131-10.223-44.412-10.468a11.516 11.516 0 00-5.393.931c-2.129 1.073-3.529 3.147-5.147 4.9-4.518 4.893-11.061 7.505-15.7 12.281-4.352 4.478-6.773 11.15-5.055 17.153s8.2 10.608 14.279 9.165a36.8 36.8 0 0114.337-19.479 72.885 72.885 0 0111.205-5.882c6.868-3.112 14.548-6.283 21.718-3.95a30.637 30.637 0 017.409 4.04l11.954 8.03c-1.394-5.497-2.647-11.659-5.195-16.721z" fill="#3ecc5f"/><path data-name="Path 37" d="M175.649 438.374c-2.029 2.532.894 6.2.447 9.413-.3 2.135-2.054 3.765-2.786 5.793-.758 2.1-.356 4.427-.643 6.641a28.488 28.488 0 01-1.275 4.73 84.975 84.975 0 00-2.686 14.026l-2.675 19.976a75.681 75.681 0 00-.846 9.078 27.107 27.107 0 01-.452 6.787c-.592 2.183-1.9 4.093-2.786 6.176s-1.291 4.6-.1 6.524c-3.991 3.325-5.178 9.854-2.387 14.235a7.9 7.9 0 011.23 2.265 5.82 5.82 0 01-.542 3.34l-2.7 7.207c-.692 1.845-.911 4.653 1.014 5.074a17.006 17.006 0 00-3.651 5.767 6.866 6.866 0 00.972 6.506 8.29 8.29 0 011.694 2.056 5.473 5.473 0 01-.2 3.243 11.906 11.906 0 001.473 9.333 8.372 8.372 0 008.418 3.609c5.41-1.22 10.272-3.147 15.728-2.146 11.746 2.155 23.53 4.32 34.906 7.952 12.984 4.145 25.556 10.224 39.126 11.5a3.8 3.8 0 002.617-.407 3.931 3.931 0 001.21-2.488l4.194-19.665a202.362 202.362 0 003.855-22.028c.477-4.781.613-9.589.749-14.392l1.081-38.231a38.2 38.2 0 00-2.2-16.62l-6.217-19.848c-3.548-11.327-11.688-21.371-14.586-32.882-1.834-7.285-3.189-15.1-8.108-20.781-7.012-8.095-19.145-9.354-29.764-7.962-4.8.629-9.636 1.714-13.785 4.2-4.8 2.877-8.333 7.409-11.753 11.836-2.824 3.652-5.688 6.585-8.572 10.183z" fill="#3ecc5f"/><path data-name="Path 38" d="M200.444 550.823c.875 3.773 2.712 7.251 3.837 10.957 1.884 6.209 1.724 12.9 3.605 19.106.789 2.606 1.933 5.109 2.5 7.773 1.321 6.211-.608 12.636-3 18.516s-5.313 11.678-6.091 17.98c-.548 4.438.239 9.45 3.66 12.331 3.552 2.99 8.713 2.788 13.339 2.39a14.016 14.016 0 004.841-1.008c3.538-1.674 5.028-5.86 5.855-9.685 2.771-12.819 1.98-26.106 1.174-39.2l-2.106-34.234c-.405-6.591-.84-13.318-2.871-19.646-.739-2.3-2.026-6.954-4.129-8.424-2.083-1.456-8.03-1.521-10.609-1.642-12.101-.567-11.965 16.319-10.005 24.786z" fill="#fbbebe"/><path data-name="Path 39" d="M213.848 424.423c-2.471-1.294-5.584-.736-7.972.7a24.568 24.568 0 00-5.972 5.8c-5.339 6.517-10.991 13.995-10.2 22.382.3 3.145 1.5 6.121 2.317 9.172 3.579 13.38-.379 27.53.075 41.373.262 8 2 15.866 3.736 23.679.354 1.594.92 3.44 2.463 3.977 1.159.4 2.41-.115 3.557-.551a28.371 28.371 0 0125.963 3.272c2.865-1.529 1.791-6.363 1.149-9.546-1.908-9.458.682-19.214 3.828-28.335s6.911-18.23 7.432-27.865c.591-10.916-3.029-21.571-6.6-31.9-.779-2.255-1.631-4.62-3.439-6.178a13.665 13.665 0 00-5.2-2.377c-3.788-1.12-7.633-1.768-11.137-3.603z" fill="#2f2e41"/><path data-name="Path 40" d="M562 419.774h84v34h-84z" fill="#fff" fill-rule="evenodd"/><path data-name="Path 41" d="M486 530.774a19.976 19.976 0 01-17.3-10 19.976 19.976 0 0017.3 30h20v-20z" fill="#3ecc5f" fill-rule="evenodd"/><path data-name="Path 42" d="M575.98 425.15l70.02-4.376v-10a20 20 0 00-20-20h-90l-2.5-4.33a2.886 2.886 0 00-5 0l-2.5 4.33-2.5-4.33a2.886 2.886 0 00-5 0l-2.5 4.33-2.5-4.33a2.886 2.886 0 00-5 0l-2.5 4.33h-.065l-4.142-4.141a2.886 2.886 0 00-4.828 1.294l-1.365 5.107-5.2-1.392a2.886 2.886 0 00-3.531 3.532l1.39 5.193-5.1 1.367a2.887 2.887 0 00-1.3 4.83L486 410.71v.064l-4.33 2.5a2.886 2.886 0 000 5l4.33 2.5-4.33 2.5a2.886 2.886 0 000 5l4.33 2.5-4.33 2.5a2.886 2.886 0 000 5l4.33 2.5-4.33 2.5a2.886 2.886 0 000 5l4.33 2.5-4.33 2.5a2.886 2.886 0 000 5l4.33 2.5-4.33 2.5a2.886 2.886 0 000 5l4.33 2.5-4.33 2.5a2.886 2.886 0 000 5l4.33 2.5-4.33 2.5a2.886 2.886 0 000 5l4.33 2.5-4.33 2.5a2.886 2.886 0 000 5l4.33 2.5-4.33 2.5a2.886 2.886 0 000 5l4.33 2.5-4.33 2.5a2.886 2.886 0 000 5l4.33 2.5-4.33 2.5a2.886 2.886 0 000 5l4.33 2.5a20 20 0 0020 20h120a20 20 0 0020-20v-80l-70.02-4.376a10.645 10.645 0 010-21.248" fill="#3ecc5f" fill-rule="evenodd"/><path data-name="Path 43" d="M606 550.774h30v-40h-30z" fill="#3ecc5f" fill-rule="evenodd"/><path data-name="Path 44" d="M656 525.774a4.976 4.976 0 00-.639.064c-.038-.15-.074-.3-.116-.451a4.993 4.993 0 10-4.941-8.577q-.166-.169-.335-.336a4.992 4.992 0 10-8.588-4.946c-.148-.042-.3-.077-.445-.115a5 5 0 10-9.872 0c-.148.038-.3.073-.445.115a4.994 4.994 0 10-8.588 4.946 19.99 19.99 0 1033.33 19.236 4.989 4.989 0 10.639-9.936" fill="#44d860" fill-rule="evenodd"/><path data-name="Path 45" d="M616 490.774h30v-20h-30z" fill="#3ecc5f" fill-rule="evenodd"/><path data-name="Path 46" d="M656 483.274a2.5 2.5 0 100-5 2.572 2.572 0 00-.319.032c-.02-.075-.037-.15-.058-.225a2.5 2.5 0 00-.963-4.807 2.473 2.473 0 00-1.508.518q-.083-.085-.168-.168a2.473 2.473 0 00.506-1.494 2.5 2.5 0 00-4.8-.979 10 10 0 100 19.246 2.5 2.5 0 004.8-.979 2.473 2.473 0 00-.506-1.494q.086-.083.168-.168a2.473 2.473 0 001.508.518 2.5 2.5 0 00.963-4.807c.021-.074.038-.15.058-.225a2.572 2.572 0 00.319.032" fill="#44d860" fill-rule="evenodd"/><path data-name="Path 47" d="M526 423.274a2.5 2.5 0 01-2.5-2.5 7.5 7.5 0 00-15 0 2.5 2.5 0 01-5 0 12.5 12.5 0 0125 0 2.5 2.5 0 01-2.5 2.5" fill-rule="evenodd"/><path data-name="Path 48" d="M566 550.774h60a20 20 0 0020-20v-70h-60a20 20 0 00-20 20z" fill="#ffff50" fill-rule="evenodd"/><path data-name="Path 49" d="M631.02 491.774h-50.04a1 1 0 010-2h50.04a1 1 0 110 2m0 20h-50.04a1 1 0 010-2h50.04a1 1 0 110 2m0 20h-50.04a1 1 0 010-2h50.04a1 1 0 110 2m0-49.814h-50.04a1 1 0 010-2h50.04a1 1 0 010 2m0 19.814h-50.04a1 1 0 010-2h50.04a1 1 0 110 2m0 20h-50.04a1 1 0 010-2h50.04a1 1 0 110 2M646 429.385c-.012 0-.022-.006-.034-.005-3.09.1-4.552 3.2-5.842 5.923-1.346 2.85-2.387 4.7-4.093 4.647-1.889-.068-2.969-2.2-4.113-4.46-1.314-2.594-2.814-5.536-5.963-5.426-3.046.1-4.513 2.794-5.807 5.167-1.377 2.528-2.314 4.065-4.121 3.994-1.927-.07-2.951-1.805-4.136-3.813-1.321-2.236-2.848-4.75-5.936-4.664-2.994.1-4.465 2.385-5.763 4.4-1.373 2.13-2.335 3.428-4.165 3.351-1.973-.07-2.992-1.51-4.171-3.177-1.324-1.873-2.816-3.993-5.895-3.89-2.928.1-4.4 1.97-5.7 3.618-1.232 1.564-2.194 2.8-4.229 2.724a1 1 0 00-.072 2c3.017.1 4.545-1.8 5.872-3.487 1.177-1.5 2.193-2.787 4.193-2.855 1.926-.082 2.829 1.115 4.195 3.045 1.3 1.834 2.769 3.914 5.731 4.021 3.1.1 4.6-2.215 5.918-4.267 1.182-1.834 2.2-3.417 4.15-3.484 1.793-.067 2.769 1.35 4.145 3.681 1.3 2.2 2.766 4.686 5.787 4.8 3.125.108 4.634-2.62 5.949-5.035 1.139-2.088 2.214-4.06 4.119-4.126 1.793-.042 2.728 1.6 4.111 4.33 1.292 2.553 2.757 5.445 5.825 5.556h.169c3.064 0 4.518-3.075 5.8-5.794 1.139-2.41 2.217-4.68 4.067-4.773v-2z" fill-rule="evenodd"/><path data-name="Path 50" d="M546 550.774h40v-40h-40z" fill="#3ecc5f" fill-rule="evenodd"/><g data-name="Group 8" transform="rotate(-14.98 2059.695 -1914.943)"><rect data-name="Rectangle 3" width="84.522" height="33.367" rx="2" transform="translate(.046 .014)" fill="#d8d8d8"/><g data-name="Group 2" transform="translate(1 20.75)" fill="#4a4a4a"><rect data-name="Rectangle 4" width="4.883" height="4.883" rx="1" transform="translate(15.818 .339)"/><rect data-name="Rectangle 5" width="4.883" height="4.883" rx="1" transform="translate(21.605 .339)"/><rect data-name="Rectangle 6" width="4.883" height="4.883" rx="1" transform="translate(27.392 .339)"/><rect data-name="Rectangle 7" width="4.883" height="4.883" rx="1" transform="translate(33.179 .339)"/><rect data-name="Rectangle 8" width="4.883" height="4.883" rx="1" transform="translate(38.966 .339)"/><rect data-name="Rectangle 9" width="4.883" height="4.883" rx="1" transform="translate(44.753 .339)"/><rect data-name="Rectangle 10" width="4.883" height="4.883" rx="1" transform="translate(50.54 .339)"/><rect data-name="Rectangle 11" width="4.883" height="4.883" rx="1" transform="translate(56.327 .339)"/><rect data-name="Rectangle 12" width="4.883" height="4.883" rx="1" transform="translate(62.114 .339)"/><path data-name="Path 51" d="M1.447.34h12.286a1 1 0 011 1v2.882a1 1 0 01-1 1H1.447a1 1 0 01-1-1V1.339a1 1 0 011-1zm67.634 0h12.287a1 1 0 011 1v2.882a1 1 0 01-1 1H69.08a1 1 0 01-1-1V1.339a1 1 0 011-1z" fill-rule="evenodd"/></g><g data-name="Group 3" transform="translate(1 9)" fill="#4a4a4a"><path data-name="Path 52" d="M1.447.4h4.69a1 1 0 011 1v2.886a1 1 0 01-1 1h-4.69a1 1 0 01-1-1V1.4a1 1 0 011-1z" fill-rule="evenodd"/><rect data-name="Rectangle 13" width="4.883" height="4.883" rx="1" transform="translate(8.042 .404)"/><rect data-name="Rectangle 14" width="4.883" height="4.883" rx="1" transform="translate(13.829 .404)"/><rect data-name="Rectangle 15" width="4.883" height="4.883" rx="1" transform="translate(19.616 .404)"/><rect data-name="Rectangle 16" width="4.883" height="4.883" rx="1" transform="translate(25.403 .404)"/><rect data-name="Rectangle 17" width="4.883" height="4.883" rx="1" transform="translate(31.19 .404)"/><rect data-name="Rectangle 18" width="4.883" height="4.883" rx="1" transform="translate(36.977 .404)"/><rect data-name="Rectangle 19" width="4.883" height="4.883" rx="1" transform="translate(42.764 .404)"/><rect data-name="Rectangle 20" width="4.883" height="4.883" rx="1" transform="translate(48.551 .404)"/><rect data-name="Rectangle 21" width="4.883" height="4.883" rx="1" transform="translate(54.337 .404)"/><rect data-name="Rectangle 22" width="4.883" height="4.883" rx="1" transform="translate(60.124 .404)"/><rect data-name="Rectangle 23" width="4.883" height="4.883" rx="1" transform="translate(65.911 .404)"/><rect data-name="Rectangle 24" width="4.883" height="4.883" rx="1" transform="translate(71.698 .404)"/><rect data-name="Rectangle 25" width="4.883" height="4.883" rx="1" transform="translate(77.485 .404)"/></g><g data-name="Group 4" transform="rotate(180 41.684 4.375)" fill="#4a4a4a"><path data-name="Path 53" d="M1 0h4.691a1 1 0 011 1v2.883a1 1 0 01-1 1H1a1 1 0 01-1-1V1a1 1 0 011-1z" fill-rule="evenodd"/><rect data-name="Rectangle 26" width="4.883" height="4.883" rx="1" transform="translate(7.595)"/><rect data-name="Rectangle 27" width="4.883" height="4.883" rx="1" transform="translate(13.382)"/><rect data-name="Rectangle 28" width="4.883" height="4.883" rx="1" transform="translate(19.169)"/><rect data-name="Rectangle 29" width="4.883" height="4.883" rx="1" transform="translate(24.956)"/><rect data-name="Rectangle 30" width="4.883" height="4.883" rx="1" transform="translate(30.743)"/><rect data-name="Rectangle 31" width="4.883" height="4.883" rx="1" transform="translate(36.53)"/><rect data-name="Rectangle 32" width="4.883" height="4.883" rx="1" transform="translate(42.317)"/><rect data-name="Rectangle 33" width="4.883" height="4.883" rx="1" transform="translate(48.104)"/><rect data-name="Rectangle 34" width="4.883" height="4.883" rx="1" transform="translate(53.891)"/><rect data-name="Rectangle 35" width="4.883" height="4.883" rx="1" transform="translate(59.678)"/><rect data-name="Rectangle 36" width="4.883" height="4.883" rx="1" transform="translate(65.465)"/><rect data-name="Rectangle 37" width="4.883" height="4.883" rx="1" transform="translate(71.252)"/><rect data-name="Rectangle 38" width="4.883" height="4.883" rx="1" transform="translate(77.038)"/><rect data-name="Rectangle 39" width="4.883" height="4.883" rx="1" transform="translate(7.595)"/><rect data-name="Rectangle 40" width="4.883" height="4.883" rx="1" transform="translate(13.382)"/><rect data-name="Rectangle 41" width="4.883" height="4.883" rx="1" transform="translate(19.169)"/><rect data-name="Rectangle 42" width="4.883" height="4.883" rx="1" transform="translate(24.956)"/><rect data-name="Rectangle 43" width="4.883" height="4.883" rx="1" transform="translate(30.743)"/><rect data-name="Rectangle 44" width="4.883" height="4.883" rx="1" transform="translate(36.53)"/><rect data-name="Rectangle 45" width="4.883" height="4.883" rx="1" transform="translate(42.317)"/><rect data-name="Rectangle 46" width="4.883" height="4.883" rx="1" transform="translate(48.104)"/><rect data-name="Rectangle 47" width="4.883" height="4.883" rx="1" transform="translate(53.891)"/><rect data-name="Rectangle 48" width="4.883" height="4.883" rx="1" transform="translate(59.678)"/><rect data-name="Rectangle 49" width="4.883" height="4.883" rx="1" transform="translate(65.465)"/><rect data-name="Rectangle 50" width="4.883" height="4.883" rx="1" transform="translate(71.252)"/><rect data-name="Rectangle 51" width="4.883" height="4.883" rx="1" transform="translate(77.038)"/></g><g data-name="Group 6" fill="#4a4a4a"><path data-name="Path 54" d="M2.447 15.19h6.68a1 1 0 011 1v2.883a1 1 0 01-1 1h-6.68a1 1 0 01-1-1v-2.882a1 1 0 011-1z" fill-rule="evenodd"/><g data-name="Group 5" transform="translate(11.212 15.19)"><rect data-name="Rectangle 52" width="4.883" height="4.883" rx="1"/><rect data-name="Rectangle 53" width="4.883" height="4.883" rx="1" transform="translate(5.787)"/><rect data-name="Rectangle 54" width="4.883" height="4.883" rx="1" transform="translate(11.574)"/><rect data-name="Rectangle 55" width="4.883" height="4.883" rx="1" transform="translate(17.361)"/><rect data-name="Rectangle 56" width="4.883" height="4.883" rx="1" transform="translate(23.148)"/><rect data-name="Rectangle 57" width="4.883" height="4.883" rx="1" transform="translate(28.935)"/><rect data-name="Rectangle 58" width="4.883" height="4.883" rx="1" transform="translate(34.722)"/><rect data-name="Rectangle 59" width="4.883" height="4.883" rx="1" transform="translate(40.508)"/><rect data-name="Rectangle 60" width="4.883" height="4.883" rx="1" transform="translate(46.295)"/><rect data-name="Rectangle 61" width="4.883" height="4.883" rx="1" transform="translate(52.082)"/><rect data-name="Rectangle 62" width="4.883" height="4.883" rx="1" transform="translate(57.869)"/></g><path data-name="Path 55" d="M76.05 15.19h6.318a1 1 0 011 1v2.883a1 1 0 01-1 1h-6.319a1 1 0 01-1-1v-2.882a1 1 0 011-1z" fill-rule="evenodd"/></g><g data-name="Group 7" transform="translate(1 26)" fill="#4a4a4a"><rect data-name="Rectangle 63" width="4.883" height="4.883" rx="1" transform="translate(.447 1.126)"/><rect data-name="Rectangle 64" width="4.883" height="4.883" rx="1" transform="translate(6.234 1.126)"/><rect data-name="Rectangle 65" width="4.883" height="4.883" rx="1" transform="translate(12.021 1.126)"/><rect data-name="Rectangle 66" width="4.883" height="4.883" rx="1" transform="translate(17.808 1.126)"/><path data-name="Path 56" d="M24.594 1.126h27.84a1 1 0 011 1V5.01a1 1 0 01-1 1h-27.84a1 1 0 01-1-1V2.126a1 1 0 011-1zm30.743 0h3.607a1 1 0 011 1V5.01a1 1 0 01-1 1h-3.607a1 1 0 01-1-1V2.126a1 1 0 011-1z" fill-rule="evenodd"/><rect data-name="Rectangle 67" width="4.883" height="4.883" rx="1" transform="translate(60.848 1.126)"/><rect data-name="Rectangle 68" width="4.883" height="4.883" rx="1" transform="translate(66.635 1.126)"/><rect data-name="Rectangle 69" width="4.883" height="4.883" rx="1" transform="translate(77.485 1.126)"/><path data-name="Path 57" d="M72.059 3.206v-1.08a1 1 0 011-1h2.883a1 1 0 011 1v1.08z"/><path data-name="Path 58" d="M76.943 3.929v1.08a1 1 0 01-1 1H73.06a1 1 0 01-1-1v-1.08z"/></g><rect data-name="Rectangle 70" width="81.379" height="2.17" rx="1.085" transform="translate(1.808 1.085)" fill="#4a4a4a"/><rect data-name="Rectangle 71" width="4.563" height="1.447" rx=".723" transform="translate(3.798 1.447)" fill="#d8d8d8" opacity=".136"/><rect data-name="Rectangle 72" width="4.563" height="1.447" rx=".723" transform="translate(10.042 1.447)" fill="#d8d8d8" opacity=".136"/><rect data-name="Rectangle 73" width="4.563" height="1.447" rx=".723" transform="translate(14.846 1.447)" fill="#d8d8d8" opacity=".136"/><rect data-name="Rectangle 74" width="4.563" height="1.447" rx=".723" transform="translate(19.649 1.447)" fill="#d8d8d8" opacity=".136"/><rect data-name="Rectangle 75" width="4.563" height="1.447" rx=".723" transform="translate(24.453 1.447)" fill="#d8d8d8" opacity=".136"/><rect data-name="Rectangle 76" width="4.563" height="1.447" rx=".723" transform="translate(30.457 1.447)" fill="#d8d8d8" opacity=".136"/><rect data-name="Rectangle 77" width="4.563" height="1.447" rx=".723" transform="translate(35.26 1.447)" fill="#d8d8d8" opacity=".136"/><rect data-name="Rectangle 78" width="4.563" height="1.447" rx=".723" transform="translate(40.064 1.447)" fill="#d8d8d8" opacity=".136"/><rect data-name="Rectangle 79" width="4.563" height="1.447" rx=".723" transform="translate(44.867 1.447)" fill="#d8d8d8" opacity=".136"/><rect data-name="Rectangle 80" width="4.563" height="1.447" rx=".723" transform="translate(50.872 1.447)" fill="#d8d8d8" opacity=".136"/><rect data-name="Rectangle 81" width="4.563" height="1.447" rx=".723" transform="translate(55.675 1.447)" fill="#d8d8d8" opacity=".136"/><rect data-name="Rectangle 82" width="4.563" height="1.447" rx=".723" transform="translate(60.479 1.447)" fill="#d8d8d8" opacity=".136"/><rect data-name="Rectangle 83" width="4.563" height="1.447" rx=".723" transform="translate(66.483 1.447)" fill="#d8d8d8" opacity=".136"/><rect data-name="Rectangle 84" width="4.563" height="1.447" rx=".723" transform="translate(71.286 1.447)" fill="#d8d8d8" opacity=".136"/><rect data-name="Rectangle 85" width="4.563" height="1.447" rx=".723" transform="translate(76.09 1.447)" fill="#d8d8d8" opacity=".136"/></g><path data-name="Path 59" d="M606 525.774a4.976 4.976 0 00-.639.064c-.038-.15-.074-.3-.116-.451a4.993 4.993 0 10-4.941-8.577q-.166-.169-.335-.336a4.992 4.992 0 10-8.588-4.946c-.148-.042-.3-.077-.445-.115a5 5 0 10-9.872 0c-.148.038-.3.073-.445.115a4.994 4.994 0 10-8.588 4.946 19.99 19.99 0 1033.33 19.236 4.989 4.989 0 10.639-9.936" fill="#44d860" fill-rule="evenodd"/><path data-name="Path 60" d="M546 490.774h40v-20h-40z" fill="#3ecc5f" fill-rule="evenodd"/><path data-name="Path 61" d="M596 483.274a2.5 2.5 0 000-5 2.572 2.572 0 00-.319.032c-.02-.075-.037-.15-.058-.225a2.5 2.5 0 00-.963-4.807 2.473 2.473 0 00-1.508.518q-.083-.085-.168-.168a2.473 2.473 0 00.506-1.494 2.5 2.5 0 00-4.8-.979 10 10 0 100 19.246 2.5 2.5 0 004.8-.979 2.473 2.473 0 00-.506-1.494q.086-.083.168-.168a2.473 2.473 0 001.508.518 2.5 2.5 0 00.963-4.807c.021-.074.038-.15.058-.225a2.572 2.572 0 00.319.032" fill="#44d860" fill-rule="evenodd"/><path data-name="Path 62" d="M606 409.524a2.715 2.715 0 01-.49-.05 2.52 2.52 0 01-.47-.14 2.6 2.6 0 01-.431-.23 3.787 3.787 0 01-.38-.31 2.929 2.929 0 01-.309-.38 2.468 2.468 0 01-.42-1.39 2.715 2.715 0 01.05-.49 2.884 2.884 0 01.139-.47 2.629 2.629 0 01.231-.43 2.409 2.409 0 01.689-.69 2.6 2.6 0 01.431-.23 2.519 2.519 0 01.47-.14 2.313 2.313 0 01.98 0 2.429 2.429 0 01.9.37 3.787 3.787 0 01.38.31 3.677 3.677 0 01.31.38 2.549 2.549 0 01.23.43 2.621 2.621 0 01.19.96 2.535 2.535 0 01-.73 1.77 3.787 3.787 0 01-.38.31 2.491 2.491 0 01-1.39.42m20-1.25a2.553 2.553 0 01-1.771-.73 3.806 3.806 0 01-.309-.38 2.468 2.468 0 01-.42-1.39 2.552 2.552 0 01.729-1.77 3.787 3.787 0 01.38-.31 2.6 2.6 0 01.431-.23 2.519 2.519 0 01.47-.14 2.313 2.313 0 01.98 0 2.429 2.429 0 01.9.37 3.787 3.787 0 01.38.31 2.553 2.553 0 01.73 1.77 2.808 2.808 0 01-.05.49 2.542 2.542 0 01-.14.47 3.552 3.552 0 01-.23.43 3.678 3.678 0 01-.31.38 3.787 3.787 0 01-.38.31 2.491 2.491 0 01-1.39.42" fill-rule="evenodd"/></g></svg>